<?xml version="1.0" encoding="utf-8"?>
<!-- Generator: Adobe Illustrator 16.0.3, SVG Export Plug-In . SVG Version: 6.00 Build 0)  -->
<!DOCTYPE svg PUBLIC "-//W3C//DTD SVG 1.1//EN" "http://www.w3.org/Graphics/SVG/1.1/DTD/svg11.dtd">
<svg version="1.1" id="レイヤー_1" xmlns="http://www.w3.org/2000/svg" xmlns:xlink="http://www.w3.org/1999/xlink" x="0px"
	 y="0px" width="398.562px" height="724.704px" viewBox="0 0 398.562 724.704" enable-background="new 0 0 398.562 724.704"
	 xml:space="preserve">
<path fill-rule="evenodd" clip-rule="evenodd" d="M283.843,465.731c5.705,9.126,10.996,17.161,15.855,25.45
	c10.396,17.735,18.793,36.366,24.938,56.032c1.721,5.506,0.769,9.843-3.223,13.605c-8.486,7.999-18.506,13.552-29.336,17.654
	c-1.354,0.513-3.244,0.103-4.745-0.349c-6.563-1.972-11.356,1.177-12.548,7.948c-2.491,14.15-3.727,28.244-2.482,42.705
	c1.602,18.604-2.745,36.42-9.985,53.544c-0.703,1.661-1.304,3.365-2.23,5.772c2.219,0.364,3.919,0.698,5.634,0.916
	c20.968,2.666,41.95,5.224,62.896,8.054c3.747,0.507,7.551,1.698,10.944,3.358c2.638,1.29,4.679,3.8,6.984,5.768
	c-2.288,1.937-4.292,4.887-6.917,5.625c-8.791,2.469-17.712,4.921-26.748,6.006c-71.425,8.579-142.932,9.402-214.435,0.979
	c-10.389-1.224-20.724-3.356-30.877-5.894c-3.618-0.904-9.085-3.969-9.387-6.553c-0.595-5.094,5.458-6.263,9.385-7.021
	c16.166-3.126,32.408-5.934,48.705-8.285c9.214-1.33,18.591-1.528,27.891-2.283c1.933-0.156,3.849-0.519,6.378-0.87
	c-0.964-2.427-1.472-4.355-2.432-6.025c-10.163-17.677-13.858-36.897-14.335-57.051c-0.127-5.382-1.623-10.805-3.03-16.063
	c-1.718-6.422-4.118-12.658-6.015-19.036c-1.975-6.642-4.443-7.817-10.98-5.396c-1.693,0.628-4.18,0.818-5.668,0.022
	c-9.814-5.242-19.541-10.665-29.12-16.327c-5.579-3.298-6.803-8.222-5.247-14.638c6.675-27.518,18.962-52.549,33.177-76.775
	c0.927-1.579,1.819-3.18,2.694-4.787c0.149-0.273,0.125-0.641,0.257-1.399c-20.391-6.872-29.657-24.979-40.574-41.339
	c-3.066-4.594-6.257-7.387-11.967-8.285c-6.001-0.944-12.257-2.617-17.458-5.612c-4.822-2.776-8.827-7.374-12.39-11.813
	c-2.911-3.627-1.649-8.142,2.097-11.008c1.68-1.285,3.644-2.201,5.469-3.278c-4.042-8.208-1.599-12.491,7.669-13.264
	c3.638-0.303,7.321-0.205,10.979-0.095c3.638,0.109,7.27,0.463,11.146,0.726c0.284-1.454,0.209-2.928,0.847-3.962
	c1.481-2.4,2.899-5.771,5.107-6.531c2.241-0.772,6.455,0.217,7.967,1.997c5.788,6.812,10.823,14.261,16.167,21.452
	c2.032,2.735,3.813,5.765,6.277,8.046c4.752,4.399,9.907,8.361,15.267,12.813c1.3-2.062,2.492-3.824,3.555-5.661
	c4.671-8.076,9.637-16.004,13.876-24.302c7.04-13.775,18.229-22.188,32.641-26.842c3.804-1.228,7.735-2.186,11.353-3.829
	c2.962-1.346,5.544-3.525,8.763-5.644c-11.135,0-21.065,0-32.318,0c3.252,2.517,5.84,4.519,8.899,6.887
	c-17.297,6.828-33.225,3.852-48.561-5.464c-0.408,0.354-0.815,0.707-1.224,1.061c1.837,3.365,3.674,6.729,5.508,10.089
	c-5.803,3.297-14.376,1.578-34.668-7.451c1.293,7.009,6.254,10.917,10.596,16.263c-2.941-0.305-6.004-0.183-8.806-0.979
	c-27.781-7.886-46.343-26.262-57.175-52.371c-4.195-10.111-7.936-20.154-13.968-29.501C4.318,266.104,1.306,247.145,0.539,228.036
	c-1.367-34.06-0.704-68.192,8.842-101.158C28.146,62.074,71.789,22.48,136.629,6.234c33.807-8.471,67.94-8.244,101.948,0.282
	c50.832,12.743,86.661,43.789,110.246,89.812c9.103,17.763,14.929,36.619,18.166,56.374c1.03,6.288,3.707,12.426,6.359,18.304
	c5.952,13.196,13.297,25.835,18.373,39.34c8.265,21.985,9.879,44.528,0.159,66.738c-2.083,4.76-5.166,9.082-7.788,13.605
	c-0.365-0.172-0.729-0.345-1.095-0.517c1.269-5.874,2.536-11.747,3.804-17.621c-0.478-0.178-0.955-0.355-1.434-0.533
	c-0.891,1.822-1.802,3.634-2.668,5.467c-5.643,11.935-13.921,21.544-25.498,27.984c-4.099,2.281-7.905,6.364-13.591,3.832
	c-0.588-0.262-2.099,1.355-3.085,2.211c-6.775,5.883-14.281,10.363-23.187,12.169c-0.94,0.191-1.922,0.183-3.104,0.286
	c1.667-3.967,3.213-7.646,4.76-11.326c-12.806,9.594-25.315,18.645-41.235,21.115c-3.114,0.482-6.367,0.069-9.759-0.352
	c5.981-2.695,9.594-6.967,10.896-14.703c-15.239,13.051-32.377,16.621-51.146,15.223c0.973,6.133,4.61,6.559,8.905,6.244
	c12.964-0.948,24.34,2.639,33.706,11.952c6.321,6.285,10.084,13.977,12.729,22.347c2.702,8.55,5.496,17.07,8.605,26.709
	c6.194-6.512,13.264-10.047,16.687-18.297c3.188-7.685,8.821-14.4,13.703-21.314c2.038-2.886,5.354-5.677,8.911-3.689
	c2.674,1.493,4.289,4.93,6.267,7.581c0.438,0.588,0.42,1.516,0.65,2.438c5.179-0.555,10.111-1.206,15.066-1.564
	c2.81-0.204,5.687-0.185,8.476,0.18c8.095,1.057,10.373,5.561,6.603,13.267c1.99,0.796,4.028,1.446,5.916,2.396
	c4.893,2.462,6.294,6.832,3.92,11.735c-2.93,6.052-7.099,11.006-13.483,13.418c-5.892,2.227-11.921,4.217-18.043,5.659
	c-4.025,0.948-6.633,2.534-8.674,6.356c-4.387,8.218-9.256,16.201-14.345,24.009c-2.801,4.296-6.239,8.237-9.758,11.992
	C305.854,463.603,296.476,467.913,283.843,465.731z M74.105,259.337c0.929-2.348,1.756-4.119,2.34-5.967
	c2.109-6.668,3.957-13.423,6.233-20.031c4.326-12.559,17.233-22.14,29.744-22.36c13.588-0.24,24.566,6.429,28.88,20.413
	c3.586,11.625,5.216,23.997,6.41,36.166c0.81,8.242-3.765,14.75-11.704,18.039c-7.642,3.165-14.261,1.032-20.176-4.432
	c-7.928-7.324-12.312-16.422-14.045-26.941c-0.761-4.613-1.547-9.223-2.322-13.835c-0.463-0.114-0.926-0.229-1.39-0.345
	c-2.982,5.876-6.213,11.644-8.86,17.667c-1.771,4.029-4.227,5.157-8.25,3.908c-1.9-0.59-3.898-0.862-5.852-1.278
	c0.778,2.825,1.977,4.581,3.271,6.263c8.266,10.735,14.305,22.061,14.771,36.298c0.361,11.044,6.986,19.327,17.081,24.067
	c4.78,2.245,9.933,4.056,15.111,5.029c22.825,4.293,45.87,4.129,68.641,0.385c23.38-3.844,44.916-13.527,65.551-24.916
	c6.038-3.332,11.485-8.009,16.55-12.766c7.78-7.308,9.419-17.101,9.81-28.14c-7.275,4.431-13.899,8.676-22.421,6.976
	c17.609-14.179,21.924-33.207,22.053-54.358c-4.599-0.64-8.593-1.195-11.873-1.652c0.374,8.654,1.283,16.771,0.938,24.833
	c-0.479,11.195-10.207,21.173-21.876,23.597c-10.556,2.193-19.315-2.417-24.968-13.709c-2.138-4.272-3.7-8.921-4.897-13.56
	c-2.843-11.016-1.636-22.03-0.236-33.212c1-7.996,13.95-19.383,21.823-19.395c9.293-0.014,17.915,3.024,25.748,8.179
	c4.732,3.114,9.592,6.036,14.394,9.045c0.549-0.443,1.098-0.886,1.646-1.329c-0.805-2.62-0.789-6.563-2.543-7.651
	c-14.923-9.261-27.108-21.466-38.765-34.352c-1.221-1.35-3.29-2.563-5.046-2.685c-7.285-0.5-14.602-0.546-21.905-0.781
	c-3.199-0.103-3.98,1.421-4.249,4.551c-0.809,9.433-1.847,18.869-3.375,28.209c-1.126,6.875-2.996,7.43-8.356,3.233
	c-4.604-3.604-9.03-7.432-13.535-11.16c-0.41,0.348-0.82,0.695-1.229,1.043c2.945,4.093,5.646,8.395,8.901,12.224
	c3.834,4.509,3.642,6.212-2.203,7.394c-13.45,2.72-26.508,1.318-38.987-4.59c-1.506-0.713-2.998-1.454-4.497-2.183
	c-0.249,0.409-0.499,0.817-0.749,1.227c4.496,3.738,8.991,7.478,13.95,11.602c-5.792,3.052-11.421,2.517-16.917,1.583
	c-14.755-2.508-25.73-11.228-35.163-22.212c-8-9.316-7.991-9.395-19.238-3.522c-1.77,0.924-3.811,1.644-5.141,3.022
	c-2.099,2.175-4.62,4.58-5.364,7.321c-4.403,16.218-8.512,32.521-12.349,48.883C68.162,248.705,68.294,254.438,74.105,259.337z
	 M333.863,391.726c0-2.841,0.886-6.022-0.175-8.296c-2.6-5.566-5.695-10.82-4.237-17.663c-5.917,7.117-12.657,13.153-14.91,22.284
	c-0.488,1.979-1.466,4.175-2.913,5.524c-8.526,7.95-17.229,15.712-25.954,23.443c-1.14,1.01-2.756,1.479-4.151,2.2
	c-0.339-0.386-0.678-0.771-1.017-1.157c1.259-2.263,2.644-4.467,3.729-6.81c0.647-1.399,1.518-3.243,1.106-4.5
	c-4.034-12.333-8.156-24.643-12.588-36.838c-2.609-7.182-6.919-13.267-13.656-17.329c-5.564-3.354-6.55-3.33-8.796,2.559
	c-4.905,12.864-8.356,25.443-1.526,39.354c6.726,13.697,10.989,28.58,16.993,42.661c10.914,25.599,30.291,28.195,47.448,6.313
	c5.621-7.17,10.728-14.961,14.73-23.124c4.401-8.975,10.163-14.309,20.488-15.416c5.781-0.62,11.297-3.719,16.933-5.701
	c-0.137-0.405-0.273-0.811-0.41-1.216c-3.82-0.535-7.641-1.071-11.46-1.607c-0.033-0.736-0.066-1.474-0.1-2.21
	c5.909-1.413,11.818-2.825,17.728-4.237c-1.829-1.551-3.666-2.216-5.561-2.558c-3.931-0.709-7.935-1.062-11.818-1.953
	c-1.398-0.321-2.537-1.769-3.795-2.701c0.953-1.056,1.734-2.386,2.895-3.111c2.662-1.664,5.509-3.034,8.281-4.522
	c-0.163-0.478-0.326-0.955-0.49-1.434c-7.623,0.708-15.246,1.415-23.031,2.138C340.368,386.55,339.382,390.537,333.863,391.726z
	 M124.256,425.701c-2.61-1.693-4.604-2.735-6.304-4.134c-7.974-6.558-15.997-13.066-23.711-19.92
	c-2.481-2.204-4.635-5.164-5.963-8.204c-3.443-7.881-9.417-13.584-15.562-19.834c2.228,6.731-1.086,11.863-3.197,17.329
	c-0.658,1.704-0.027,3.894-0.053,5.86c-0.013,1.027-0.17,2.054-0.329,3.825c-7.308-4.589-4.883-10.543-3.539-16.847
	c-8.001,0-15.536,0-23.07,0c2.521,2.209,5.286,3.3,7.89,4.693c1.202,0.644,2.088,1.877,3.118,2.843
	c-1.28,1.142-2.382,2.777-3.879,3.313c-2.474,0.886-5.225,0.961-7.817,1.562c-2.733,0.634-5.417,1.483-8.123,2.238
	c0.088,0.488,0.177,0.976,0.265,1.464c4.715,0.691,9.452,1.272,14.129,2.164c0.994,0.189,1.771,1.513,2.648,2.313
	c-0.905,0.585-1.746,1.503-2.727,1.69c-2.485,0.476-5.033,0.625-7.556,0.904c-0.1,0.625-0.2,1.249-0.299,1.874
	c7.782,1.973,15.481,4.465,23.377,5.725c4.835,0.772,7.514,2.961,10.135,6.783c7.146,10.419,14.219,20.979,22.411,30.55
	c3.877,4.53,10.178,7.042,15.518,10.238c2.431,1.454,4.19,0.202,5.752-2.067c4.147-6.032,8.698-11.793,12.733-17.896
	c0.97-1.467,0.719-3.843,0.751-5.805c0.073-4.36-0.841-8.913,0.127-13.041c1.473-6.278,4.241-12.248,6.384-18.375
	c3.684-10.536,7.308-21.092,10.957-31.64c-2.456,1.863-4.228,4.049-5.596,6.464c-5.742,10.138-11.23,20.422-17.098,30.486
	c-2.316,3.974-4.829,7.55-1.423,12.094C124.572,422.838,124.256,423.835,124.256,425.701z M225.164,651.321
	c-0.427,0.016-0.853,0.032-1.279,0.048c2.405-18.622-3.77-35.64-9.472-52.697c-0.547-1.634-3.225-3.601-4.93-3.616
	c-6.479-0.06-12.982,0.451-19.429,1.176c-1.187,0.133-2.826,2.115-3.096,3.475c-0.937,4.729-1.239,9.578-2.005,14.345
	c-3.675,22.872-2.109,45.495,2.877,68.004c0.728,3.284,1.972,4.744,5.639,4.639c7.989-0.23,15.997-0.048,23.989,0.216
	c2.951,0.098,4.234-0.869,4.51-3.805C222.961,672.504,224.087,661.915,225.164,651.321z M95.106,33.213
	C69.741,44.18,50.794,62.393,36.154,85.246c-15.227,23.77-27.01,62.602-22.943,75.063c0.548-1.656,0.986-3.051,1.47-4.428
	c6.545-18.602,13.726-37.179,26.18-52.482c6.037-7.418,9.629-15.313,13.405-23.619c7.913-17.406,20.782-30.81,35.622-42.486
	C91.624,35.929,93.367,34.573,95.106,33.213z M227.66,345.62c-7.745,0.179-13.879,3.584-19.92,6.904
	c-10.056,5.527-19.978,11.077-32.186,4.928c-2.701,5.64-5.092,10.63-7.238,15.11c15.617-0.794,30.33-1.472,45.027-2.397
	c1.434-0.09,3.404-1.385,4.047-2.663C220.88,360.562,224.031,353.451,227.66,345.62z M335.722,200.054c0,21.133,0,40.942,0,61.01
	c0.615-0.304,1.373-0.557,1.996-1.001c15.094-10.756,19.364-37.827,7.92-52.532C343.217,204.419,339.163,202.58,335.722,200.054z
	 M210.53,118.335c1.331,11.28,2.576,21.832,3.794,32.151c7.385,0,14.434,0,21.529,0C227.633,140.05,219.434,129.64,210.53,118.335z
	 M102.122,173.874c-3.275-7.211-6.465-14.233-10.134-22.312c-2.271,10.086-4.301,19.104-6.428,28.552
	C91.548,177.857,96.631,175.942,102.122,173.874z"/>
<path fill-rule="evenodd" clip-rule="evenodd" fill="#FFFFFF" d="M74.105,259.337c-5.811-4.899-5.943-10.632-4.636-16.206
	c3.837-16.361,7.946-32.665,12.349-48.883c0.744-2.741,3.265-5.146,5.364-7.321c1.331-1.379,3.372-2.099,5.141-3.022
	c11.248-5.872,11.238-5.794,19.238,3.522c9.433,10.984,20.408,19.704,35.163,22.212c5.496,0.934,11.125,1.469,16.917-1.583
	c-4.959-4.124-9.454-7.863-13.95-11.602c0.25-0.409,0.5-0.817,0.749-1.227c1.499,0.729,2.991,1.47,4.497,2.183
	c12.479,5.908,25.537,7.31,38.987,4.59c5.845-1.182,6.037-2.885,2.203-7.394c-3.256-3.829-5.956-8.131-8.901-12.224
	c0.409-0.348,0.819-0.695,1.229-1.043c4.505,3.729,8.932,7.557,13.535,11.16c5.36,4.196,7.23,3.642,8.356-3.233
	c1.528-9.34,2.566-18.776,3.375-28.209c0.269-3.13,1.05-4.653,4.249-4.551c7.304,0.235,14.62,0.281,21.905,0.781
	c1.756,0.121,3.825,1.335,5.046,2.685c11.656,12.886,23.842,25.091,38.765,34.352c1.754,1.089,1.738,5.031,2.543,7.651
	c-0.549,0.443-1.098,0.886-1.646,1.329c-4.802-3.009-9.661-5.931-14.394-9.045c-7.833-5.154-16.455-8.192-25.748-8.179
	c-7.873,0.012-20.823,11.398-21.823,19.395c-1.399,11.182-2.606,22.196,0.236,33.212c1.197,4.639,2.76,9.287,4.897,13.56
	c5.652,11.292,14.412,15.902,24.968,13.709c11.669-2.424,21.396-12.401,21.876-23.597c0.346-8.063-0.563-16.179-0.938-24.833
	c3.28,0.457,7.274,1.013,11.873,1.652c-0.129,21.151-4.443,40.18-22.053,54.358c8.521,1.7,15.146-2.545,22.421-6.976
	c-0.391,11.039-2.029,20.832-9.81,28.14c-5.064,4.757-10.512,9.434-16.55,12.766c-20.635,11.389-42.171,21.072-65.551,24.916
	c-22.771,3.744-45.815,3.908-68.641-0.385c-5.179-0.974-10.331-2.784-15.111-5.029c-10.095-4.74-16.72-13.023-17.081-24.067
	c-0.466-14.237-6.504-25.563-14.771-36.298c-1.295-1.682-2.494-3.438-3.271-6.263c1.954,0.416,3.952,0.688,5.852,1.278
	c4.022,1.249,6.479,0.121,8.25-3.908c2.647-6.023,5.878-11.791,8.86-17.667c0.463,0.115,0.926,0.23,1.39,0.345
	c0.775,4.612,1.561,9.222,2.322,13.835c1.733,10.52,6.117,19.617,14.045,26.941c5.915,5.464,12.534,7.597,20.176,4.432
	c7.939-3.289,12.514-9.797,11.704-18.039c-1.194-12.169-2.824-24.541-6.41-36.166c-4.313-13.984-15.292-20.653-28.88-20.413
	c-12.511,0.221-25.418,9.802-29.744,22.36c-2.276,6.608-4.124,13.363-6.233,20.031C75.861,255.218,75.034,256.989,74.105,259.337z
	 M193.168,300.874c-2.113-1.344-3.21-2.545-4.365-2.603c-0.803-0.041-1.686,1.489-2.532,2.317c0.994,0.861,1.88,2.151,3.019,2.438
	C190.072,303.224,191.204,302.028,193.168,300.874z"/>
<path fill-rule="evenodd" clip-rule="evenodd" fill="#FFFFFF" d="M333.863,391.726c5.52-1.188,6.505-5.176,3.743-15.907
	c7.785-0.723,15.408-1.43,23.031-2.138c0.164,0.479,0.327,0.956,0.49,1.434c-2.772,1.488-5.619,2.858-8.281,4.522
	c-1.16,0.726-1.941,2.056-2.895,3.111c1.258,0.933,2.396,2.38,3.795,2.701c3.884,0.892,7.888,1.244,11.818,1.953
	c1.895,0.342,3.731,1.007,5.561,2.558c-5.909,1.412-11.818,2.824-17.728,4.237c0.033,0.736,0.066,1.474,0.1,2.21
	c3.819,0.536,7.64,1.072,11.46,1.607c0.137,0.405,0.273,0.811,0.41,1.216c-5.636,1.982-11.151,5.081-16.933,5.701
	c-10.325,1.107-16.087,6.441-20.488,15.416c-4.003,8.163-9.109,15.954-14.73,23.124c-17.157,21.882-36.534,19.285-47.448-6.313
	c-6.004-14.081-10.268-28.964-16.993-42.661c-6.83-13.91-3.379-26.489,1.526-39.354c2.246-5.889,3.231-5.913,8.796-2.559
	c6.737,4.063,11.047,10.147,13.656,17.329c4.432,12.195,8.554,24.505,12.588,36.838c0.411,1.257-0.459,3.101-1.106,4.5
	c-1.086,2.343-2.471,4.547-3.729,6.81c0.339,0.386,0.678,0.771,1.017,1.157c1.396-0.721,3.012-1.19,4.151-2.2
	c8.726-7.731,17.428-15.493,25.954-23.443c1.447-1.35,2.425-3.545,2.913-5.524c2.253-9.131,8.993-15.167,14.91-22.284
	c-1.458,6.843,1.638,12.097,4.237,17.663C334.749,385.703,333.863,388.885,333.863,391.726z"/>
<path fill-rule="evenodd" clip-rule="evenodd" fill="#FFFFFF" d="M124.256,425.701c0-1.866,0.315-2.863-0.05-3.35
	c-3.406-4.544-0.894-8.12,1.423-12.094c5.867-10.064,11.355-20.349,17.098-30.486c1.368-2.415,3.14-4.601,5.596-6.464
	c-3.649,10.548-7.273,21.104-10.957,31.64c-2.143,6.127-4.911,12.097-6.384,18.375c-0.968,4.128-0.054,8.681-0.127,13.041
	c-0.032,1.962,0.219,4.338-0.751,5.805c-4.035,6.104-8.586,11.864-12.733,17.896c-1.562,2.27-3.321,3.521-5.752,2.067
	c-5.34-3.196-11.64-5.708-15.518-10.238c-8.192-9.57-15.265-20.131-22.411-30.55c-2.621-3.822-5.3-6.011-10.135-6.783
	c-7.896-1.26-15.595-3.752-23.377-5.725c0.1-0.625,0.2-1.249,0.299-1.874c2.523-0.279,5.071-0.429,7.556-0.904
	c0.981-0.188,1.822-1.105,2.727-1.69c-0.877-0.801-1.655-2.124-2.648-2.313c-4.677-0.892-9.414-1.473-14.129-2.164
	c-0.088-0.488-0.177-0.976-0.265-1.464c2.705-0.755,5.389-1.604,8.123-2.238c2.592-0.601,5.343-0.676,7.817-1.562
	c1.497-0.535,2.599-2.171,3.879-3.313c-1.029-0.966-1.916-2.199-3.118-2.843c-2.604-1.394-5.369-2.484-7.89-4.693
	c7.535,0,15.069,0,23.07,0c-1.344,6.304-3.77,12.258,3.539,16.847c0.159-1.771,0.316-2.798,0.329-3.825
	c0.026-1.967-0.605-4.156,0.053-5.86c2.111-5.466,5.425-10.598,3.197-17.329c6.146,6.25,12.119,11.953,15.562,19.834
	c1.328,3.04,3.482,6,5.963,8.204c7.715,6.854,15.738,13.362,23.711,19.92C119.653,422.966,121.646,424.008,124.256,425.701z"/>
<path fill-rule="evenodd" clip-rule="evenodd" fill="#FFFFFF" d="M95.106,33.213c-1.74,1.36-3.483,2.716-5.218,4.081
	c-14.84,11.677-27.709,25.08-35.622,42.486c-3.776,8.307-7.368,16.201-13.405,23.619c-12.454,15.304-19.635,33.881-26.18,52.482
	c-0.484,1.377-0.922,2.771-1.47,4.428c-4.066-12.462,7.716-51.294,22.943-75.063C50.794,62.393,69.741,44.18,95.106,33.213z"/>
<path fill-rule="evenodd" clip-rule="evenodd" fill="#FFFFFF" d="M227.66,345.62c-3.629,7.831-6.779,14.941-10.27,21.882
	c-0.643,1.278-2.613,2.573-4.047,2.663c-14.697,0.926-29.41,1.604-45.027,2.397c2.146-4.48,4.537-9.471,7.238-15.11
	c12.208,6.149,22.13,0.6,32.186-4.928C213.781,349.204,219.915,345.799,227.66,345.62z"/>
<path fill-rule="evenodd" clip-rule="evenodd" fill="#FFFFFF" d="M335.722,200.054c3.44,2.526,7.495,4.365,9.916,7.477
	c11.444,14.705,7.174,41.776-7.92,52.532c-0.623,0.444-1.381,0.697-1.996,1.001C335.722,240.996,335.722,221.187,335.722,200.054z"
	/>
<path fill-rule="evenodd" clip-rule="evenodd" fill="#FFFFFF" d="M210.53,118.335c8.904,11.305,17.104,21.715,25.323,32.151
	c-7.096,0-14.145,0-21.529,0C213.106,140.167,211.861,129.615,210.53,118.335z"/>
<path fill-rule="evenodd" clip-rule="evenodd" fill="#FFFFFF" d="M102.122,173.874c-5.491,2.068-10.573,3.983-16.562,6.24
	c2.127-9.448,4.157-18.466,6.428-28.552C95.657,159.641,98.847,166.663,102.122,173.874z"/>
<path fill-rule="evenodd" clip-rule="evenodd" d="M193.168,300.874c-1.965,1.154-3.097,2.35-3.879,2.152
	c-1.139-0.286-2.024-1.576-3.019-2.438c0.847-0.828,1.729-2.358,2.532-2.317C189.958,298.329,191.055,299.53,193.168,300.874z"/>
</svg>
