<?xml version="1.0" encoding="utf-8"?>
<!-- Generator: Adobe Illustrator 16.0.3, SVG Export Plug-In . SVG Version: 6.00 Build 0)  -->
<!DOCTYPE svg PUBLIC "-//W3C//DTD SVG 1.1//EN" "http://www.w3.org/Graphics/SVG/1.1/DTD/svg11.dtd">
<svg version="1.1" id="レイヤー_1" xmlns="http://www.w3.org/2000/svg" xmlns:xlink="http://www.w3.org/1999/xlink" x="0px"
	 y="0px" width="710.976px" height="660.338px" viewBox="0 0 710.976 660.338" enable-background="new 0 0 710.976 660.338"
	 xml:space="preserve">
<path fill-rule="evenodd" clip-rule="evenodd" d="M413.587,363.694c-13.297,1.95-26.557,4.443-40.289,2.478
	c0.144,1.261,0.223,1.959,0.319,2.819c-3.144,0.674-6.221,0.479-9.234-0.443c-2.934-0.897-5.818-1.956-9.231-3.115
	c2.208,4.57,4.787,7.972,9.872,8.936c-7.145,2.976-13.587,1.285-27.948-7.253c0.335,3.505,2.595,5.691,4.54,8.237
	c-1.594,1.332-3.273,1.237-4.988,1.026c-10.245-1.257-18.964-5.915-26.992-12.107c-0.669-0.516-1.284-1.104-2.194-1.402
	c2.516,6.944,6.535,12.562,14.762,15.31c-6.627,2.501-12.183,2.332-17.886,0.999c-13.421-3.137-23.5-11.05-31.928-21.585
	c-6.621-8.275-10.799-17.657-13.146-27.88c-2.987-13.01-5.794-26.062-8.619-39.109c-0.739-3.409-1.228-6.872-1.904-10.295
	c-0.16-0.806-0.616-1.555-0.983-2.445c-8.493,2.641-16.901,4.691-26.346,6.22c1.35-2.696,2.109-4.668,3.24-6.397
	c5.171-7.906,7.693-16.719,9.202-25.917c0.464-2.829,0.955-5.674,1.73-8.428c1.52-5.39,1.543-10.871,1.272-16.368
	c-0.892-18.087,1.204-35.887,4.846-53.566c1.508-7.323,2.23-14.835,4.146-22.04c8.439-31.739,23.027-60.401,44.328-85.461
	c19.665-23.136,43.822-40.226,71.387-52.88c10.769-4.944,21.821-8.596,33.313-10.998c4.721-0.987,9.655-1.084,14.506-1.282
	c9.229-0.375,18.478-0.908,27.703-0.7c16.683,0.376,33.007,3.293,48.93,8.324c21.125,6.674,40.908,15.975,58.476,29.689
	c12.207,9.531,22.546,20.77,31.765,33.188c15.544,20.937,25.965,44.29,33.646,69.037c3.859,12.437,6.585,25.095,8.221,38
	c1.004,7.917,1.701,15.889,3.117,23.73c1.218,6.734,3.004,13.398,4.992,19.956c3.633,11.98,9.108,23.228,14.375,34.548
	c0.296,0.636,0.384,1.368,0.738,2.681c-8.676-0.114-16.17-3.607-24.339-5.82c-0.46,1.816-0.877,3.212-1.166,4.635
	c-2.856,14.095-6.231,28.06-11.963,41.299c-5.19,11.987-11.519,23.283-21.35,32.253c-6.643,6.061-14.475,9.677-23.129,11.708
	c-0.726,0.17-1.476,0.267-2.219,0.313c-0.854,0.054-1.715,0.013-2.649-0.253c5.504-2.095,10.678-4.471,14.643-9.036
	c3.942-4.539,6.189-9.798,7.701-15.566c-5.49,6.506-11.83,11.985-18.756,16.761c-6.849,4.723-13.647,9.597-22.377,11.292
	c1.021-1.241,2.04-2.483,3.06-3.725c-0.057-0.071-0.113-0.143-0.171-0.213c-3.456,2.287-6.817,4.739-10.395,6.818
	c-3.91,2.272-8.201,4.281-12.747,3.773c-5.927-0.662-9.191,2.604-12.681,6.96c1.607,0.539,2.951,1.063,4.334,1.442
	c15.543,4.27,25.241,14.236,27.353,30.223c2.509,19.005,8.896,36.833,14.952,54.798c2.028,6.017,4.538,11.87,6.726,17.837
	c0.46,1.255,0.473,2.674,0.708,4.118c11.508,12.177,20.476,26.334,28.942,40.763c7.137,12.16,13.736,24.655,20.116,37.234
	c7.176,14.146,13.483,28.694,19.095,43.559c1.973,5.227,1.057,9.229-2.523,12.964c-2.066,2.156-4.356,4.102-6.583,6.101
	c-0.897,0.807-1.896,1.5-3.374,2.656c16.968,0.67,33.229,1.456,49.497,1.915c19.512,0.551,45.13,2.957,48.949,5.096
	c-1.107,0.504-1.887,1.092-2.729,1.207c-6.18,0.848-12.36,1.708-18.562,2.36c-11.911,1.254-23.837,2.374-35.757,3.548
	c-10.806,1.063-21.614,2.106-32.419,3.194c-10.803,1.088-21.597,2.264-32.403,3.319c-9.936,0.972-19.865,2.167-29.827,2.668
	c-15.713,0.789-31.454,1.012-47.179,1.602c-14.97,0.562-29.931,1.577-44.904,1.825c-8.585,0.143-17.192-0.798-25.781-1.363
	c-1.591-0.105-3.277-0.492-4.691-1.204c-4.026-2.026-8.198-1.616-12.453-1.33c-13.353,0.896-26.709,1.169-39.979-1.026
	c-5.4-0.894-10.378-2.659-13.778-7.474c-0.648-0.917-2.261-1.452-3.496-1.604c-6.433-0.794-12.892-1.363-19.33-2.117
	c-1.435-0.167-2.819-0.765-5.095-1.411c5.336-4.589,11.646-3.34,17.33-5.692c-1.677-1.007-3.004-1.782-4.31-2.592
	c-4.47-2.768-5.305-4.781-4.393-9.985c1.328-7.579,3.949-14.775,7.404-21.545c8.516-16.684,17.436-33.162,26.189-49.725
	c1.927-3.645,3.94-7.248,5.699-10.973c0.539-1.141,0.7-2.685,0.458-3.932c-2.191-11.312-3.354-22.732-3.502-34.232
	c-0.301-23.484-0.577-46.971-0.516-70.455c0.018-6.958,0.929-13.949,1.9-20.858c1.796-12.752,9.307-20.904,21.271-25.189
	c1.248-0.447,2.469-0.966,3.703-1.451C413.746,364.345,413.666,364.02,413.587,363.694z M300.723,199.284
	c-1.741,2.631-3.112,4.284-4.025,6.16c-3.058,6.285-6.022,12.619-8.866,19.004c-0.797,1.792-1.248,3.796-1.521,5.751
	c-0.481,3.455-0.9,6.942-0.997,10.425c-0.231,8.209-1.426,16.582,1.851,24.449c2.444,5.867,5.643,11.414,8.248,17.219
	c2.496,5.562,4.894,11.192,6.911,16.941c2.372,6.757,1.324,13.859,1.318,20.832c-0.011,13.042,6.365,22.344,17.222,28.713
	c15.944,9.354,33.775,11.982,51.772,13.24c17.704,1.237,35.127-1.312,52.226-5.936c11.592-3.135,22.93-6.947,33.59-12.638
	c3.265-1.743,4.743-3.958,4.786-7.636c0.089-7.738,0.631-15.472,0.672-23.209c0.108-19.987,0.05-39.975,0.039-59.962
	c-0.001-1.079-0.174-2.157-0.304-3.666c-12.06-0.158-22.045-5.93-32.588-10.443c0.933,1.297,1.865,2.594,3.053,4.246
	c-5.906,0.889-11.06,0.272-15.65-2.019c-12.618-6.294-22.827-15.59-31.466-26.652c-2.146-2.746-4.171-5.585-6.252-8.381
	c3.783,13.467,10.469,25.561,16.768,37.669c-0.561,0.491-0.719,0.715-0.933,0.798c-0.342,0.133-0.73,0.273-1.082,0.238
	c-7.462-0.736-14.927-1.491-21.222-6.202c-1.097-0.821-2.111-1.416-3.417,0.309c0.95,1.461,1.96,3.014,3.166,4.869
	c-0.996,0.12-1.479,0.272-1.94,0.22c-9.18-1.035-18.31-2.382-27.089-5.381c-6.054-2.069-11.281-5.23-13.993-11.486
	c-1.221-2.814-2.718-5.51-4.302-8.688c-1.441,5.313,2.378,9.036,2.926,14.287C315.463,224.949,305.968,214.616,300.723,199.284z
	 M454.226,572.443c1.058-0.142,2.04-0.15,2.95-0.414c15.234-4.419,27.4-12.939,35.574-26.752c1.018-1.72,1.968-3.479,2.99-5.195
	c10.628-17.854,18.186-36.978,22.82-57.178c3.599-15.685,6.653-31.5,9.681-47.309c2.44-12.746,4.795-25.527,2.627-38.637
	c-0.942-5.698-2.063-11.309-4.653-16.501c-2.76-5.534-11.67-9.271-17.356-7.28c-0.983,0.345-1.963,1.158-2.571,2.019
	c-0.999,1.413-1.925,2.964-2.475,4.595c-1.995,5.909-4.191,11.787-5.611,17.842c-1.593,6.788-2.514,13.74-3.571,20.646
	c-2.191,14.308-4.154,28.653-6.467,42.943c-1.112,6.878-2.504,13.744-4.315,20.469c-1.947,7.222-4.741,14.213-6.794,21.41
	c-3.013,10.562-6.03,21.143-8.385,31.862c-1.257,5.722-4.381,9.279-9.185,11.901c-0.438,0.239-0.899,0.454-1.294,0.754
	c-3.965,3.014-7.982,5.963-11.853,9.094c-2.63,2.128-3.331,5.116-3.137,8.639c1.071-1.896,2.006-3.553,2.94-5.208
	c0.294,0.124,0.587,0.249,0.881,0.375c-0.637,3.476-2.478,6.884-1.043,10.469c2.303,1.118,3.629-0.285,4.908-1.681
	c1.894-2.065,3.924-3.907,7.04-5.126C457.302,567.506,453.019,568.61,454.226,572.443z M417.195,570.46
	c0.43-0.05,0.86-0.099,1.291-0.147c0.387-2.521,0.824-5.034,1.146-7.563c0.325-2.558-0.46-5.26,1.388-7.769
	c0.711,2.778,1.423,5.558,2.267,8.85c4.694-4.636,5.122-9.666,4.186-15.02c-1.246-7.122-2.608-14.226-3.849-21.35
	c-2.224-12.78-3.985-25.658-6.699-38.334c-2.767-12.922-6.667-25.596-9.667-38.474c-3.32-14.246-5.393-28.703-5.502-43.372
	c-0.024-3.34-0.147-6.313-3.173-8.66c-1.479-1.147-2.176-3.301-3.24-4.989c-0.49-0.776-1.015-1.532-1.523-2.297
	c-0.257,0.042-0.513,0.084-0.77,0.126c-0.479,4.296-1.338,8.587-1.378,12.888c-0.284,30.217-0.443,60.42,1.854,90.604
	c1.201,15.775,3.881,31.181,8.22,46.334c0.896,3.132,1.028,6.007-0.081,9.117c-1.298,3.639-2.327,7.391-3.195,11.157
	c-0.887,3.848,1.316,7.137,5.677,8.206c-0.593-3.127-1.139-6.01-1.685-8.893c0.279-0.104,0.559-0.207,0.837-0.311
	c0.728,1.236,1.452,2.475,2.184,3.71c0.952,1.607,1.813,3.282,2.893,4.802c1.061,1.491,2.436,2.106,4.196,0.475
	c-0.215-2.139-0.432-4.31-0.648-6.48c0.238-0.104,0.477-0.21,0.714-0.315C414.155,565.324,415.675,567.892,417.195,570.46z
	 M508.022,630.556c0.098-0.343,0.194-0.687,0.292-1.03c-2.08-2.44-4.045-4.993-6.263-7.3c-4.398-4.574-8.095-9.913-13.678-13.231
	c-10.717-6.37-22.088-11.176-34.463-13.073c-6.991-1.071-13.955-0.549-20.508,2.644c-2.207,1.076-3.403,2.767-4.064,5.061
	c-3.403,11.816,4.282,25.938,16.321,28.207c6.239,1.177,12.576,2.026,18.907,2.479c9.874,0.707,19.713-0.32,29.503-1.633
	C498.732,632.054,503.373,631.269,508.022,630.556z M426.809,626.658c-3.353-5.519-4.134-11.333-3.45-17.438
	c0.086-0.768-0.315-1.736-0.79-2.396c-4.035-5.602-8.849-10.184-15.964-11.508c-1.956-0.365-3.937-0.625-5.918-0.817
	c-7.137-0.69-14.216-0.143-21.165,1.518c-4.771,1.141-6.833,3.788-7.305,8.737c-0.518,5.454,1.334,10.288,4.024,14.911
	c3.159,5.427,7.764,8.655,13.989,9.548c2.59,0.371,5.173,0.806,7.771,1.084c9.312,0.993,18.396-0.409,27.38-2.735
	C425.713,627.476,425.992,627.185,426.809,626.658z M474.07,408.582c2.453-8.773,4.726-16.902,6.901-24.685
	c-7.115,2.568-14.255,5.384-21.551,7.712c-7.602,2.427-15.336,4.615-23.475,3.76c-4.579-0.481-9.127-1.268-13.694-1.876
	c-0.808-0.107-1.643-0.016-2.757-0.016c-0.274,5.221-1.474,10.208-0.443,15.637C437.505,414.401,455.758,412.451,474.07,408.582z
	 M524.242,309.17c5.174-1.722,8.86-4.25,12.234-7.167c10.338-8.942,17.109-19.477,14.515-33.979
	c-1.246-6.961-3.987-13.115-9.607-17.683c-3.063-2.488-6.478-4.078-10.982-3.908c-0.324,3.897-0.638,7.656-0.975,11.694
	c3.403,0.048,6.818-1.076,8.855,3.5c-2.424-1.412-3.923-0.972-5.636,0.127c-2.841,1.824-3.852,4.141-3.971,7.458
	c-0.427,11.712-1.285,23.397-3.62,34.921C524.769,305.549,524.591,306.988,524.242,309.17z M365.376,600.005
	c0.146-0.536,0.368-1.007,0.39-1.484c0.478-10.942,4.241-20.961,8.667-30.786c4.992-11.082,11.334-21.377,18.563-31.119
	c1.176-1.583,1.528-3.082,1.117-4.861c-0.462-1.996-1.014-3.973-1.67-6.514c-14.668,25.873-27.823,51.657-37.613,79.386
	C358.502,603.017,361.772,601.584,365.376,600.005z M317.883,47.998c-8.895,6.737-16.784,14.553-23.724,23.232
	c-6.07,7.59-11.498,15.691-17.463,23.372c-5.033,6.48-8.667,13.675-11.864,21.147c-0.563,1.313-1.037,2.665-1.552,3.999
	c0.954-0.356,1.404-0.939,1.81-1.55c3.104-4.675,6.28-9.304,9.273-14.048c2.913-4.616,7.905-7.635,9.792-13.048
	c0.69-1.981,1.585-3.982,2.807-5.671c4.455-6.162,8.857-12.387,13.713-18.228C306.167,60.598,312.126,54.383,317.883,47.998z"/>
<path fill-rule="evenodd" clip-rule="evenodd" d="M339.342,640.793c15.375,1.751,30.831,1.784,45.833,5.212
	c0.032,0.346,0.064,0.69,0.096,1.036c-0.819,0.367-1.607,0.936-2.464,1.07c-11.584,1.823-23.157,3.732-34.774,5.319
	c-9.516,1.301-19.081,2.254-28.635,3.259c-6.949,0.73-13.903,1.481-20.875,1.892c-12.459,0.732-24.931,1.266-37.402,1.749
	c-2.078,0.081-4.187-0.483-6.275-0.792c-17.154-2.531-34.311-5.047-51.458-7.623c-8.389-1.26-16.749-2.712-25.14-3.948
	c-13.574-2-27.178-3.804-40.744-5.856c-13.316-2.015-26.587-4.328-39.904-6.339c-11.597-1.751-23.248-3.148-34.844-4.908
	c-14.803-2.245-29.577-4.682-44.358-7.067c-4.924-0.795-9.835-1.668-14.744-2.549c-1.642-0.296-3.174-0.836-3.652-2.944
	c1.646-2.992,5.239-3.393,8.014-5.517c0-1.34,0-2.821,0-4.304C8.007,584.865,8,561.248,7.993,537.631
	c0-0.999-0.037-2.001,0.011-2.998c0.164-3.328,1.474-4.796,4.695-5.196c8.165-1.015,16.342-1.934,24.497-3.026
	c5.684-0.761,11.33-1.798,17.006-2.611c3.57-0.513,7.166-0.844,10.752-1.248c0.371-0.041,0.782,0.064,1.118-0.056
	c6.416-2.275,12.837-0.489,19.256-0.057c0.996,0.067,1.999,0.048,2.995,0.11c9.959,0.621,19.92,1.24,29.878,1.884
	c5.713,0.369,11.435,0.661,17.132,1.207c7.198,0.69,14.368,1.685,21.564,2.394c5.573,0.549,11.166,0.892,16.755,1.271
	c11.203,0.76,22.409,1.48,33.613,2.219c4.359,0.288,8.724,0.497,13.074,0.893c5.448,0.494,10.878,1.187,16.323,1.714
	c7.688,0.744,15.375,1.532,23.078,2.089c10.572,0.765,21.158,1.354,31.741,1.971c5.981,0.348,11.974,0.518,17.952,0.91
	c7.221,0.475,14.434,1.071,21.645,1.687c1.228,0.104,2.435,0.528,3.634,0.87c2.329,0.664,3.515,2.263,3.615,4.661
	c0.058,1.373,0.084,2.747,0.085,4.121c0.015,19.369-0.031,38.737,0.053,58.105c0.043,9.853,0.308,19.704,0.498,29.556
	C338.978,638.938,339.193,639.773,339.342,640.793z M320.31,545.192c-0.016-0.157-0.032-0.313-0.048-0.472
	c-3.6-0.288-7.2-0.583-10.802-0.863c-5.468-0.426-10.931-0.973-16.407-1.218c-4.479-0.2-9.041-0.521-13.45,0.07
	c-9.629,1.291-19.156,3.321-28.775,4.692c-11.966,1.706-23.883,3.907-36.028,4.112c-1.931,0.032-3.854,0.471-5.78,0.721
	c4.617,0.88,9.173,1.332,13.712,1.919c0.773,0.101,1.471,0.777,2.204,1.188c-0.106,0.336-0.211,0.672-0.317,1.008
	c-5.566,0.296-11.081-1.412-16.569-1.196c0,4.473,0,8.665,0,13.445c6.385,0.385,12.496,0.753,19.211,1.158
	c0-5.895,0-11.289,0-17.305c11.705,1.099,22.923,0.569,33.471,3.267c2.985-0.979,5.715-2.19,8.572-2.747
	c6.608-1.286,13.267-2.339,19.927-3.335C299.58,548.09,309.949,546.668,320.31,545.192z M226.073,537.506
	c0.005-0.189,0.009-0.378,0.014-0.565c-1.319-0.191-2.634-0.456-3.961-0.562c-6.089-0.481-12.174-1.068-18.273-1.326
	c-4.978-0.211-10.039-0.516-14.947,0.116c-9.509,1.224-18.907,3.304-28.409,4.606c-10.246,1.405-20.558,2.326-30.842,3.46
	c-2.321,0.255-4.643,0.517-6.963,0.774c13.508,1.394,13.508,1.394,14.889,4.229c-5.471-0.504-10.69-0.985-15.813-1.458
	c0,4.386,0,8.318,0,12.714c5.965,0.364,11.608,0.708,17.374,1.06c0.945-5.497-0.608-10.773,0.911-16.416
	c10.434,0.748,20.596,1.476,30.623,2.195c1.649-0.643,3.202-1.598,4.856-1.832c9.871-1.406,19.77-2.608,29.649-3.956
	C212.152,539.595,219.109,538.522,226.073,537.506z M58.564,536.838c3.901,0.171,7.855,0.407,11.813,0.503
	c7.27,0.177,14.396,1.731,21.85,0.043c9.34-2.115,18.978-2.915,28.485-4.3c6.82-0.995,13.637-2.021,20.455-3.032
	c-5.993-0.813-11.954-1.338-17.922-1.746c-8.833-0.604-17.63-0.777-26.433,0.819c-11.66,2.117-23.363,4.029-35.093,5.71
	c-6.394,0.915-12.882,1.171-19.327,1.724c2.413,0.426,4.876,0.449,7.255,0.909c2.2,0.427,5.048-0.539,6.922,3.127
	c-5.619-0.509-10.578-0.958-16.076-1.455c0.224,4.108,0.428,7.874,0.657,12.088c5.977,0.36,11.36,0.685,16.872,1.018
	C58.788,546.947,56.567,542.075,58.564,536.838z M173.814,642.999c0.481-0.05,0.963-0.1,1.444-0.149
	c0-1.179,0.061-2.361-0.013-3.535c-0.14-2.24-0.516-4.475-0.518-6.712c-0.025-25.347-0.031-50.693,0.063-76.04
	c0.01-2.668,0.682-5.332,1.075-8.205c1.984-0.104,3.46-0.32,4.916-0.229c3.731,0.234,7.458,0.568,11.18,0.932
	c6.172,0.602,12.254,1.827,18.564,0.63c5.372-1.018,10.926-1.028,16.349-1.828c12.583-1.853,25.136-3.906,37.697-5.9
	c0.688-0.11,1.346-0.418,2.741-0.865c-9.121-0.592-17.432-1.138-25.745-1.657c-0.74-0.046-1.5,0.022-2.237,0.131
	c-20.969,3.08-41.859,6.77-63.043,8.197c-0.587,0.039-1.155,0.354-2.048,0.643c-0.284,1.927-0.753,3.869-0.829,5.827
	c-0.313,8.103-0.73,16.212-0.703,24.316c0.069,20.345,0.351,40.688,0.583,61.031C173.303,640.725,173.632,641.861,173.814,642.999z
	 M89.495,539.943c-0.32,2.002-0.77,3.703-0.834,5.417c-0.31,8.229-0.65,16.46-0.726,24.692c-0.114,12.483-0.085,24.972,0.014,37.456
	c0.055,6.859,0.358,13.718,0.607,20.575c0.034,0.953,0.399,1.895,0.611,2.841c0.264-0.063,0.527-0.125,0.791-0.188
	c0-1.919,0-3.839,0-5.758c-0.01-26.219-0.021-52.438-0.024-78.657c0-0.873,0.012-1.756,0.139-2.616
	c0.437-2.972,1.431-3.935,4.459-3.784c3.731,0.185,7.447,0.654,11.173,0.963c5.921,0.488,11.714,1.809,17.817,0.643
	c7.817-1.492,15.82-1.982,23.706-3.155c9.571-1.423,19.104-3.109,28.653-4.681c-0.883-0.515-1.801-0.716-2.725-0.754
	c-4.364-0.177-8.731-0.281-13.095-0.469c-2.735-0.117-5.517-0.752-8.19-0.428c-8.412,1.021-16.764,2.527-25.173,3.578
	c-11.374,1.423-22.779,2.595-34.171,3.881C91.676,539.596,90.834,539.746,89.495,539.943z M94.514,526.504
	c0.021-0.267,0.042-0.534,0.062-0.801c-5.238,0-10.532,0.473-15.701-0.126c-5.81-0.673-11.422-0.062-17.1,0.735
	c-11.723,1.646-23.452,3.245-35.178,4.863c-1.482,0.204-2.96,0.443-4.447,0.605c-1.312,0.142-2.634,0.197-3.952,0.291
	c0.031,0.256,0.062,0.513,0.093,0.769c3.704,0.352,7.408,0.706,11.112,1.053c3.101,0.29,6.228,0.962,9.298,0.768
	c5.458-0.345,10.9-1.091,16.315-1.896c7.397-1.103,14.757-2.451,22.143-3.632C82.937,528.208,88.729,527.377,94.514,526.504z
	 M11.772,532.305c-1.908,1.664-1.844,3.43-1.909,5.114c-0.231,5.987-0.625,11.978-0.598,17.965
	c0.092,20.481,0.332,40.962,0.541,61.441c0.006,0.646,0.29,1.288,0.445,1.933c0.304-0.015,0.608-0.029,0.911-0.043
	c0-1.164,0.034-2.329-0.005-3.492c-0.203-5.988-0.632-11.977-0.603-17.963c0.093-19.482,0.335-38.965,0.568-58.446
	C11.146,536.865,11.501,534.922,11.772,532.305z"/>
<path fill-rule="evenodd" clip-rule="evenodd" fill="#FFFFFF" d="M300.723,199.284c5.246,15.333,14.74,25.666,28.901,33.07
	c-0.548-5.251-4.368-8.975-2.926-14.287c1.584,3.178,3.081,5.874,4.302,8.688c2.712,6.256,7.939,9.417,13.993,11.486
	c8.779,2.999,17.909,4.346,27.089,5.381c0.461,0.052,0.944-0.1,1.94-0.22c-1.206-1.855-2.216-3.408-3.166-4.869
	c1.306-1.724,2.32-1.129,3.417-0.309c6.295,4.711,13.76,5.466,21.222,6.202c0.352,0.035,0.74-0.105,1.082-0.238
	c0.214-0.083,0.372-0.307,0.933-0.798c-6.299-12.108-12.984-24.202-16.768-37.669c2.081,2.796,4.106,5.635,6.252,8.381
	c8.639,11.063,18.848,20.358,31.466,26.652c4.591,2.291,9.744,2.908,15.65,2.019c-1.188-1.651-2.12-2.948-3.053-4.246
	c10.543,4.513,20.528,10.285,32.588,10.443c0.13,1.509,0.303,2.587,0.304,3.666c0.011,19.987,0.069,39.975-0.039,59.962
	c-0.041,7.737-0.583,15.471-0.672,23.209c-0.043,3.678-1.521,5.893-4.786,7.636c-10.66,5.69-21.998,9.503-33.59,12.638
	c-17.099,4.624-34.521,7.173-52.226,5.936c-17.997-1.258-35.829-3.887-51.772-13.24c-10.857-6.369-17.233-15.671-17.222-28.713
	c0.006-6.973,1.053-14.075-1.318-20.832c-2.017-5.749-4.415-11.379-6.911-16.941c-2.605-5.805-5.804-11.352-8.248-17.219
	c-3.276-7.867-2.082-16.239-1.851-24.449c0.097-3.483,0.516-6.97,0.997-10.425c0.272-1.955,0.723-3.959,1.521-5.751
	c2.844-6.385,5.808-12.719,8.866-19.004C297.61,203.568,298.981,201.915,300.723,199.284z M461.574,279.564
	c0.32-0.082,0.64-0.164,0.96-0.245c0-1.535,0.252-3.119-0.043-4.595c-1.35-6.735-4.789-12.213-10.116-16.593
	c-7.875-6.474-16.952-9.623-26.977-11.048c-10.388-1.477-20.35,6.805-23.156,14.345c-2.181,5.859-3.284,12.027-2.631,18.388
	c1.163,11.319,5.393,21.085,14.879,27.816c14.05,9.969,31.653,2.65,34.813-14.217c1.549-8.267-0.366-15.84-4.208-23.095
	c-0.583-1.102-1.138-2.217-1.707-3.325c0.262-0.183,0.522-0.366,0.783-0.548C450.363,270.269,456.921,273.579,461.574,279.564z
	 M303.373,272.794c0.208,0.843,0.468,1.677,0.615,2.531c1.792,10.419,6.261,19.697,12.305,28.234
	c2.665,3.766,5.711,7.284,10.271,8.98c3.524,1.313,6.553,0.718,9.18-2.09c3.64-3.89,4.494-8.667,3.869-13.595
	c-1.953-15.398-7.772-29.063-18.898-40.195c-3.56-3.562-7.883-5.758-12.754-6.657c-8.825-1.629-14.43,4.388-15.524,11.892
	c-0.948,6.5,0.612,12.639,4.186,18.227c1.555,2.431,5.811,6.437,7.914,7.231C303.379,282.534,301.473,277.822,303.373,272.794z"/>
<path fill-rule="evenodd" clip-rule="evenodd" fill="#FFFFFF" d="M454.226,572.443c-1.207-3.833,3.076-4.938,3.702-8.263
	c-3.116,1.219-5.146,3.061-7.04,5.126c-1.279,1.396-2.605,2.799-4.908,1.681c-1.435-3.585,0.406-6.993,1.043-10.469
	c-0.294-0.126-0.587-0.251-0.881-0.375c-0.935,1.655-1.869,3.312-2.94,5.208c-0.194-3.522,0.507-6.511,3.137-8.639
	c3.87-3.131,7.888-6.08,11.853-9.094c0.395-0.3,0.856-0.515,1.294-0.754c4.804-2.622,7.928-6.18,9.185-11.901
	c2.354-10.72,5.372-21.301,8.385-31.862c2.053-7.197,4.847-14.188,6.794-21.41c1.812-6.725,3.203-13.591,4.315-20.469
	c2.313-14.29,4.275-28.636,6.467-42.943c1.058-6.906,1.979-13.858,3.571-20.646c1.42-6.055,3.616-11.933,5.611-17.842
	c0.55-1.631,1.476-3.182,2.475-4.595c0.608-0.86,1.588-1.674,2.571-2.019c5.687-1.99,14.597,1.746,17.356,7.28
	c2.59,5.192,3.711,10.803,4.653,16.501c2.168,13.109-0.187,25.891-2.627,38.637c-3.027,15.809-6.082,31.624-9.681,47.309
	c-4.635,20.2-12.192,39.324-22.82,57.178c-1.022,1.717-1.973,3.476-2.99,5.195c-8.174,13.813-20.34,22.333-35.574,26.752
	C456.266,572.293,455.283,572.302,454.226,572.443z"/>
<path fill-rule="evenodd" clip-rule="evenodd" fill="#FFFFFF" d="M417.195,570.46c-1.521-2.568-3.04-5.136-4.56-7.704
	c-0.237,0.105-0.476,0.211-0.714,0.315c0.217,2.171,0.434,4.342,0.648,6.48c-1.761,1.632-3.136,1.017-4.196-0.475
	c-1.079-1.52-1.94-3.194-2.893-4.802c-0.731-1.235-1.456-2.474-2.184-3.71c-0.278,0.104-0.558,0.207-0.837,0.311
	c0.546,2.883,1.092,5.766,1.685,8.893c-4.36-1.069-6.563-4.358-5.677-8.206c0.868-3.767,1.897-7.519,3.195-11.157
	c1.109-3.11,0.978-5.985,0.081-9.117c-4.339-15.153-7.019-30.559-8.22-46.334c-2.298-30.185-2.139-60.388-1.854-90.604
	c0.04-4.301,0.898-8.592,1.378-12.888c0.257-0.042,0.513-0.084,0.77-0.126c0.509,0.765,1.033,1.521,1.523,2.297
	c1.064,1.688,1.761,3.842,3.24,4.989c3.025,2.347,3.148,5.32,3.173,8.66c0.109,14.669,2.182,29.126,5.502,43.372
	c3,12.878,6.9,25.552,9.667,38.474c2.714,12.676,4.476,25.554,6.699,38.334c1.24,7.124,2.603,14.228,3.849,21.35
	c0.937,5.354,0.509,10.384-4.186,15.02c-0.844-3.292-1.556-6.071-2.267-8.85c-1.848,2.509-1.063,5.211-1.388,7.769
	c-0.321,2.528-0.759,5.042-1.146,7.563C418.056,570.361,417.625,570.41,417.195,570.46z"/>
<path fill-rule="evenodd" clip-rule="evenodd" fill="#FFFFFF" d="M508.022,630.556c-4.649,0.713-9.29,1.498-13.952,2.123
	c-9.79,1.313-19.629,2.34-29.503,1.633c-6.331-0.453-12.668-1.303-18.907-2.479c-12.039-2.27-19.725-16.391-16.321-28.207
	c0.661-2.294,1.857-3.984,4.064-5.061c6.553-3.192,13.517-3.715,20.508-2.644c12.375,1.897,23.746,6.703,34.463,13.073
	c5.583,3.318,9.279,8.657,13.678,13.231c2.218,2.307,4.183,4.859,6.263,7.3C508.217,629.869,508.12,630.213,508.022,630.556z"/>
<path fill-rule="evenodd" clip-rule="evenodd" fill="#FFFFFF" d="M426.809,626.658c-0.816,0.526-1.096,0.817-1.427,0.904
	c-8.984,2.326-18.068,3.729-27.38,2.735c-2.599-0.278-5.182-0.713-7.771-1.084c-6.226-0.893-10.83-4.121-13.989-9.548
	c-2.69-4.623-4.542-9.457-4.024-14.911c0.472-4.949,2.533-7.597,7.305-8.737c6.949-1.66,14.028-2.208,21.165-1.518
	c1.981,0.192,3.962,0.452,5.918,0.817c7.115,1.324,11.929,5.906,15.964,11.508c0.475,0.659,0.876,1.628,0.79,2.396
	C422.675,615.325,423.456,621.14,426.809,626.658z"/>
<path fill-rule="evenodd" clip-rule="evenodd" fill="#FFFFFF" d="M474.07,408.582c-18.313,3.869-36.565,5.819-55.019,0.532
	c-1.03-5.429,0.169-10.416,0.443-15.637c1.114,0,1.949-0.092,2.757,0.016c4.567,0.608,9.115,1.395,13.694,1.876
	c8.139,0.855,15.873-1.333,23.475-3.76c7.296-2.328,14.436-5.144,21.551-7.712C478.796,391.68,476.523,399.809,474.07,408.582z"/>
<path fill-rule="evenodd" clip-rule="evenodd" fill="#FFFFFF" d="M524.242,309.17c0.349-2.182,0.526-3.621,0.813-5.038
	c2.335-11.524,3.193-23.209,3.62-34.921c0.119-3.317,1.13-5.634,3.971-7.458c1.713-1.1,3.212-1.539,5.636-0.127
	c-2.037-4.576-5.452-3.451-8.855-3.5c0.337-4.038,0.65-7.797,0.975-11.694c4.505-0.17,7.919,1.42,10.982,3.908
	c5.62,4.568,8.361,10.722,9.607,17.683c2.595,14.503-4.177,25.038-14.515,33.979C533.103,304.92,529.416,307.449,524.242,309.17z"/>
<path fill-rule="evenodd" clip-rule="evenodd" fill="#FFFFFF" d="M365.376,600.005c-3.604,1.579-6.874,3.012-10.546,4.621
	c9.79-27.729,22.945-53.513,37.613-79.386c0.656,2.541,1.208,4.518,1.67,6.514c0.411,1.779,0.059,3.278-1.117,4.861
	c-7.229,9.742-13.571,20.037-18.563,31.119c-4.426,9.825-8.189,19.844-8.667,30.786
	C365.744,598.998,365.521,599.469,365.376,600.005z"/>
<path fill-rule="evenodd" clip-rule="evenodd" fill="#FFFFFF" d="M317.883,47.998c-5.756,6.385-11.715,12.6-17.207,19.204
	c-4.856,5.84-9.259,12.066-13.713,18.228c-1.222,1.689-2.117,3.69-2.807,5.671c-1.887,5.413-6.879,8.432-9.792,13.048
	c-2.994,4.744-6.17,9.373-9.273,14.048c-0.406,0.611-0.855,1.194-1.81,1.55c0.515-1.333,0.989-2.685,1.552-3.999
	c3.197-7.472,6.831-14.667,11.864-21.147c5.965-7.68,11.393-15.781,17.463-23.372C301.099,62.551,308.988,54.735,317.883,47.998z"/>
<path fill-rule="evenodd" clip-rule="evenodd" fill="#FFFFFF" d="M320.31,545.192c-10.361,1.476-20.73,2.897-31.08,4.444
	c-6.661,0.996-13.319,2.049-19.927,3.335c-2.857,0.557-5.587,1.769-8.572,2.747c-10.547-2.697-21.766-2.168-33.471-3.267
	c0,6.016,0,11.41,0,17.305c-6.715-0.405-12.827-0.773-19.211-1.158c0-4.78,0-8.973,0-13.445c5.488-0.216,11.003,1.492,16.569,1.196
	c0.105-0.336,0.211-0.672,0.317-1.008c-0.733-0.41-1.431-1.087-2.204-1.188c-4.539-0.587-9.095-1.039-13.712-1.919
	c1.927-0.25,3.85-0.688,5.78-0.721c12.145-0.205,24.062-2.406,36.028-4.112c9.619-1.371,19.146-3.401,28.775-4.692
	c4.409-0.591,8.971-0.271,13.45-0.07c5.477,0.245,10.939,0.792,16.407,1.218c3.602,0.28,7.202,0.575,10.802,0.863
	C320.277,544.879,320.293,545.035,320.31,545.192z"/>
<path fill-rule="evenodd" clip-rule="evenodd" fill="#FFFFFF" d="M226.073,537.506c-6.964,1.017-13.92,2.089-20.894,3.039
	c-9.879,1.348-19.779,2.55-29.649,3.956c-1.655,0.234-3.207,1.189-4.856,1.832c-10.026-0.72-20.188-1.447-30.623-2.195
	c-1.519,5.643,0.034,10.919-0.911,16.416c-5.766-0.352-11.408-0.695-17.374-1.06c0-4.396,0-8.328,0-12.714
	c5.123,0.473,10.342,0.954,15.813,1.458c-1.381-2.835-1.381-2.835-14.889-4.229c2.321-0.258,4.642-0.52,6.963-0.774
	c10.284-1.134,20.596-2.055,30.842-3.46c9.502-1.303,18.9-3.383,28.409-4.606c4.909-0.632,9.969-0.327,14.947-0.116
	c6.099,0.258,12.184,0.845,18.273,1.326c1.327,0.105,2.642,0.37,3.961,0.562C226.082,537.128,226.078,537.316,226.073,537.506z"/>
<path fill-rule="evenodd" clip-rule="evenodd" fill="#FFFFFF" d="M58.564,536.838c-1.997,5.237,0.224,10.109-0.541,15.407
	c-5.512-0.333-10.896-0.657-16.872-1.018c-0.229-4.214-0.434-7.979-0.657-12.088c5.498,0.497,10.457,0.946,16.076,1.455
	c-1.874-3.666-4.723-2.7-6.922-3.127c-2.378-0.46-4.842-0.483-7.255-0.909c6.445-0.553,12.934-0.809,19.327-1.724
	c11.73-1.681,23.433-3.593,35.093-5.71c8.803-1.597,17.599-1.423,26.433-0.819c5.968,0.408,11.929,0.934,17.922,1.746
	c-6.818,1.012-13.635,2.037-20.455,3.032c-9.507,1.385-19.145,2.185-28.485,4.3c-7.453,1.688-14.58,0.134-21.85-0.043
	C66.419,537.245,62.465,537.009,58.564,536.838z"/>
<path fill-rule="evenodd" clip-rule="evenodd" fill="#FFFFFF" d="M173.814,642.999c-0.182-1.138-0.511-2.274-0.524-3.414
	c-0.231-20.344-0.513-40.687-0.583-61.031c-0.027-8.104,0.389-16.214,0.703-24.316c0.076-1.958,0.544-3.9,0.829-5.827
	c0.893-0.288,1.461-0.604,2.048-0.643c21.185-1.428,42.075-5.117,63.043-8.197c0.738-0.108,1.497-0.177,2.237-0.131
	c8.313,0.52,16.624,1.065,25.745,1.657c-1.395,0.447-2.053,0.755-2.741,0.865c-12.561,1.994-25.114,4.048-37.697,5.9
	c-5.423,0.8-10.977,0.811-16.349,1.828c-6.31,1.197-12.392-0.028-18.564-0.63c-3.722-0.363-7.448-0.697-11.18-0.932
	c-1.456-0.092-2.932,0.125-4.916,0.229c-0.393,2.873-1.065,5.537-1.075,8.205c-0.094,25.347-0.088,50.693-0.063,76.04
	c0.002,2.237,0.377,4.472,0.518,6.712c0.074,1.174,0.013,2.356,0.013,3.535C174.777,642.899,174.296,642.949,173.814,642.999z"/>
<path fill-rule="evenodd" clip-rule="evenodd" fill="#FFFFFF" d="M89.495,539.943c1.339-0.197,2.182-0.348,3.03-0.443
	c11.392-1.286,22.797-2.458,34.171-3.881c8.409-1.051,16.762-2.558,25.173-3.578c2.673-0.324,5.455,0.311,8.19,0.428
	c4.364,0.188,8.731,0.292,13.095,0.469c0.924,0.038,1.842,0.239,2.725,0.754c-9.549,1.571-19.082,3.258-28.653,4.681
	c-7.886,1.173-15.889,1.663-23.706,3.155c-6.103,1.166-11.896-0.154-17.817-0.643c-3.726-0.309-7.442-0.778-11.173-0.963
	c-3.028-0.15-4.022,0.813-4.459,3.784c-0.126,0.86-0.139,1.743-0.139,2.616c0.003,26.22,0.015,52.438,0.024,78.657
	c0.001,1.919,0,3.839,0,5.758c-0.264,0.063-0.527,0.125-0.791,0.188c-0.212-0.946-0.577-1.888-0.611-2.841
	c-0.249-6.857-0.552-13.716-0.607-20.575c-0.1-12.484-0.128-24.973-0.014-37.456c0.076-8.232,0.416-16.464,0.726-24.692
	C88.725,543.646,89.175,541.945,89.495,539.943z"/>
<path fill-rule="evenodd" clip-rule="evenodd" fill="#FFFFFF" d="M94.514,526.504c-5.785,0.873-11.578,1.704-17.355,2.629
	c-7.386,1.181-14.746,2.529-22.143,3.632c-5.415,0.806-10.857,1.552-16.315,1.896c-3.071,0.194-6.197-0.478-9.298-0.768
	c-3.704-0.347-7.408-0.701-11.112-1.053c-0.031-0.256-0.062-0.513-0.093-0.769c1.318-0.094,2.64-0.149,3.952-0.291
	c1.487-0.162,2.965-0.401,4.447-0.605c11.726-1.618,23.455-3.218,35.178-4.863c5.678-0.797,11.291-1.408,17.1-0.735
	c5.169,0.599,10.463,0.126,15.701,0.126C94.556,525.97,94.535,526.237,94.514,526.504z"/>
<path fill-rule="evenodd" clip-rule="evenodd" fill="#FFFFFF" d="M11.772,532.305c-0.271,2.617-0.627,4.561-0.65,6.509
	c-0.233,19.481-0.476,38.964-0.568,58.446c-0.029,5.986,0.4,11.975,0.603,17.963c0.04,1.163,0.005,2.328,0.005,3.492
	c-0.303,0.014-0.607,0.028-0.911,0.043c-0.155-0.645-0.438-1.286-0.445-1.933c-0.209-20.479-0.449-40.96-0.541-61.441
	c-0.027-5.987,0.367-11.978,0.598-17.965C9.928,535.734,9.865,533.969,11.772,532.305z"/>
<path fill-rule="evenodd" clip-rule="evenodd" d="M461.574,279.564c-4.653-5.985-11.211-9.295-17.403-13.117
	c-0.261,0.182-0.521,0.365-0.783,0.548c0.569,1.108,1.124,2.223,1.707,3.325c3.842,7.254,5.757,14.828,4.208,23.095
	c-3.159,16.868-20.763,24.186-34.813,14.217c-9.486-6.73-13.716-16.497-14.879-27.816c-0.653-6.361,0.45-12.529,2.631-18.388
	c2.807-7.54,12.769-15.822,23.156-14.345c10.024,1.425,19.102,4.574,26.977,11.048c5.327,4.38,8.767,9.858,10.116,16.593
	c0.295,1.476,0.043,3.06,0.043,4.595C462.214,279.4,461.895,279.482,461.574,279.564z"/>
<path fill-rule="evenodd" clip-rule="evenodd" d="M303.373,272.794c-1.9,5.028,0.006,9.74,1.161,14.558
	c-2.103-0.795-6.359-4.801-7.914-7.231c-3.574-5.587-5.134-11.726-4.186-18.227c1.095-7.504,6.699-13.521,15.524-11.892
	c4.871,0.899,9.195,3.095,12.754,6.657c11.126,11.132,16.945,24.797,18.898,40.195c0.625,4.929-0.229,9.705-3.869,13.595
	c-2.627,2.808-5.655,3.402-9.18,2.09c-4.559-1.697-7.605-5.215-10.271-8.98c-6.044-8.537-10.513-17.815-12.305-28.234
	C303.84,274.471,303.581,273.637,303.373,272.794z"/>
<line fill-rule="evenodd" clip-rule="evenodd" fill="none" stroke="#000000" stroke-width="2" stroke-linecap="round" stroke-linejoin="round" stroke-miterlimit="10" x1="367.717" y1="342.096" x2="372.467" y2="342.096"/>
</svg>
