<?xml version="1.0" encoding="utf-8"?>
<!-- Generator: Adobe Illustrator 16.0.3, SVG Export Plug-In . SVG Version: 6.00 Build 0)  -->
<!DOCTYPE svg PUBLIC "-//W3C//DTD SVG 1.1//EN" "http://www.w3.org/Graphics/SVG/1.1/DTD/svg11.dtd">
<svg version="1.1" id="レイヤー_1" xmlns="http://www.w3.org/2000/svg" xmlns:xlink="http://www.w3.org/1999/xlink" x="0px"
	 y="0px" width="573.075px" height="994px" viewBox="0 0 573.075 994" enable-background="new 0 0 573.075 994"
	 xml:space="preserve">
<path fill-rule="evenodd" clip-rule="evenodd" fill="none" d="M492.662,739.583c0.106-2.252,0.238-3.723,0.235-5.193
	c-0.043-22.999,0.043-45.999-0.256-68.995c-0.083-6.334,0.773-10.142,7.63-13.592c13.415-6.752,17.44-20.021,17.138-34.252
	c-0.306-14.422-6.045-26.302-19.492-33.034c-3.886-1.946-5.117-4.097-5.086-8.313c0.178-24.33,0.053-48.662,0.031-72.994
	c-0.001-1.934,0-3.866,0-5.99c-2.025-0.113-3.328-0.252-4.629-0.249c-34.665,0.076-69.329,0.177-103.993,0.228
	c-1.968,0.003-4.168,0.119-5.867-0.666c-12.85-5.939-26.45-7.604-40.404-7.939c-2.348-0.057-5.157-1.55-6.858-3.267
	c-2.879-2.906-1.64-5.612,2.455-5.92c4.982-0.374,9.985-0.563,14.982-0.633c19.871-0.28,37.525-6.707,53.125-18.939
	c1.189-0.932,2.45-1.771,4.496-3.243c-2.205,11.202-8.214,17.685-17.242,21.995c30.191,2.072,52.09-14.175,73.931-34.032
	c-0.871,4.3-1.28,7.176-2.061,9.947c-0.837,2.972-2.021,5.847-3.083,8.844c6.861,0.152,15.613-2.877,26.107-9.548
	c33.863-21.528,54.132-53.216,67.34-91.505c4.13,15.334,1.9,29.586-0.169,44.313c7.324-6.108,15.188-19.521,18.259-31.068
	c6.478-24.359,4.581-48.384-4.593-71.586c-7.647-19.342-16.711-38.118-24.802-57.29c-3.542-8.393-6.652-17.022-9.209-25.765
	c-5.131-17.549-8.289-35.811-14.837-52.784C492.018,106.435,452.184,58.03,392.27,28.528C336.076,0.859,276.457-6.559,215.038,5.732
	C126.778,23.395,62.06,72.084,24.938,154.93C4.509,200.523-0.227,249.24,0.008,298.584c0.079,16.642,7.68,29.807,21.108,39.395
	c3.42,2.441,4.533,4.941,4.565,8.982c0.179,22.187,1.584,44.246,6.486,66.012c7.253,32.204,20.755,60.733,46.725,82.252
	c0.291,0.24,0.31,0.81,0.498,1.344c-2.08,0.316-3.991,0.606-6.049,0.92c0,1.517-0.001,2.673,0,3.829
	c0.028,25.498-0.005,50.997,0.163,76.495c0.021,3.259-0.958,4.819-3.848,6.5c-4.378,2.546-8.794,5.592-12.052,9.401
	c-15.532,18.165-9.85,53.654,16.008,61.663c0,27.761,0,55.68,0,84.068c14.91,0,29.332,0,44.333,0
	c-0.839,2.291-1.537,3.954-2.063,5.671c-2.967,9.69-5.934,19.382-8.82,29.098c-1.951,6.567,0.422,11.649,5.511,15.885
	c13.865,11.54,29.599,19.755,46.399,25.999c1.93,0.718,4.767,0.528,6.626-0.381c6.309-3.082,10.237-1.727,12.434,5.069
	c1.894,5.859,3.169,11.954,5.467,17.643c5.822,14.417,8.265,29.198,8.214,44.811c-0.071,21.654,5.979,42.083,15.74,61.398
	c1.399,2.771,2.64,5.623,4.227,9.024c-8.81,1.348-17.121,2.076-25.151,3.985c-9.98,2.374-20.008,5.038-29.481,8.891
	c-6.578,2.675-6.197,7.691-0.042,11.472c1.828,1.123,3.819,2.149,5.875,2.702c7.704,2.07,15.368,4.575,23.221,5.76
	c66.357,10.006,132.827,9.786,199.244,0.832c11.261-1.519,22.269-5.291,33.191-8.673c2.506-0.776,5.745-4.212,5.789-6.478
	c0.042-2.216-3.22-5.04-5.664-6.614c-2.873-1.851-6.334-3.059-9.704-3.814c-10.065-2.255-20.202-4.191-30.328-6.167
	c-3.627-0.708-7.301-1.173-11.305-1.804c1.515-3.563,2.699-6.31,3.851-9.068c8.828-21.156,15.043-43.062,12.521-66.094
	c-2.208-20.158,1.375-39.484,4.876-58.97c1.05-5.844,9.257-11.533,14.721-9.44c6.429,2.461,12.004,0.893,17.218-1.97
	c10.191-5.595,20.494-11.2,29.873-18.011c14.059-10.209,14.557-13.101,9.144-29.582c-2.271-6.917-4.97-13.695-7.656-21.036
	C465.594,739.583,478.87,739.583,492.662,739.583z"/>
<path fill-rule="evenodd" clip-rule="evenodd" d="M492.662,739.583c-13.792,0-27.067,0-40.79,0
	c2.687,7.341,5.385,14.119,7.656,21.036c5.413,16.481,4.915,19.373-9.144,29.582c-9.379,6.811-19.682,12.416-29.873,18.011
	c-5.214,2.862-10.789,4.431-17.218,1.97c-5.464-2.093-13.671,3.597-14.721,9.44c-3.501,19.485-7.084,38.812-4.876,58.97
	c2.522,23.032-3.692,44.938-12.521,66.094c-1.151,2.759-2.336,5.505-3.851,9.068c4.004,0.631,7.678,1.096,11.305,1.804
	c10.126,1.976,20.263,3.912,30.328,6.167c3.37,0.756,6.831,1.964,9.704,3.814c2.444,1.574,5.706,4.398,5.664,6.614
	c-0.044,2.266-3.283,5.701-5.789,6.478c-10.923,3.382-21.931,7.154-33.191,8.673c-66.417,8.954-132.887,9.174-199.244-0.832
	c-7.854-1.185-15.517-3.689-23.221-5.76c-2.056-0.553-4.047-1.579-5.875-2.702c-6.155-3.78-6.536-8.797,0.042-11.472
	c9.473-3.853,19.501-6.517,29.481-8.891c8.03-1.909,16.341-2.638,25.151-3.985c-1.587-3.401-2.827-6.254-4.227-9.024
	c-9.761-19.315-15.812-39.744-15.74-61.398c0.051-15.612-2.392-30.394-8.214-44.811c-2.297-5.688-3.573-11.783-5.467-17.643
	c-2.196-6.796-6.125-8.151-12.434-5.069c-1.859,0.909-4.697,1.099-6.626,0.381c-16.8-6.244-32.534-14.459-46.399-25.999
	c-5.088-4.235-7.462-9.317-5.511-15.885c2.886-9.716,5.853-19.407,8.82-29.098c0.526-1.717,1.224-3.38,2.063-5.671
	c-15.002,0-29.423,0-44.333,0c0-28.389,0-56.308,0-84.068c-25.858-8.009-31.541-43.498-16.008-61.663
	c3.258-3.81,7.674-6.855,12.052-9.401c2.891-1.681,3.87-3.241,3.848-6.5c-0.168-25.498-0.134-50.997-0.163-76.495
	c-0.001-1.156,0-2.313,0-3.829c2.059-0.313,3.97-0.604,6.049-0.92c-0.188-0.534-0.207-1.104-0.498-1.344
	c-25.97-21.519-39.472-50.048-46.725-82.252c-4.902-21.766-6.307-43.825-6.486-66.012c-0.033-4.041-1.146-6.541-4.565-8.982
	c-13.428-9.588-21.029-22.753-21.108-39.395c-0.235-49.344,4.5-98.061,24.93-143.654C62.06,72.084,126.778,23.395,215.038,5.732
	C276.457-6.559,336.076,0.859,392.27,28.528c59.914,29.502,99.748,77.906,123.54,139.583c6.548,16.974,9.706,35.235,14.837,52.784
	c2.557,8.742,5.667,17.372,9.209,25.765c8.091,19.172,17.154,37.948,24.802,57.29c9.174,23.202,11.07,47.227,4.593,71.586
	c-3.071,11.547-10.935,24.96-18.259,31.068c2.069-14.728,4.299-28.979,0.169-44.313c-13.208,38.289-33.477,69.977-67.34,91.505
	c-10.494,6.671-19.246,9.7-26.107,9.548c1.062-2.997,2.246-5.872,3.083-8.844c0.78-2.771,1.189-5.647,2.061-9.947
	c-21.841,19.857-43.739,36.104-73.931,34.032c9.028-4.311,15.037-10.793,17.242-21.995c-2.046,1.472-3.307,2.312-4.496,3.243
	c-15.6,12.232-33.254,18.659-53.125,18.939c-4.997,0.07-10,0.259-14.982,0.633c-4.095,0.308-5.334,3.014-2.455,5.92
	c1.701,1.717,4.511,3.21,6.858,3.267c13.954,0.336,27.555,2,40.404,7.939c1.699,0.785,3.899,0.669,5.867,0.666
	c34.664-0.051,69.328-0.151,103.993-0.228c1.301-0.003,2.604,0.136,4.629,0.249c0,2.124-0.001,4.057,0,5.99
	c0.021,24.332,0.146,48.664-0.031,72.994c-0.031,4.217,1.2,6.367,5.086,8.313c13.447,6.732,19.187,18.612,19.492,33.034
	c0.303,14.23-3.723,27.5-17.138,34.252c-6.856,3.45-7.713,7.258-7.63,13.592c0.299,22.996,0.213,45.996,0.256,68.995
	C492.9,735.86,492.768,737.331,492.662,739.583z M481.786,681.429c0-8.813,0.104-16.956-0.109-25.091
	c-0.033-1.241-1.271-3.127-2.397-3.561c-10.919-4.207-16.845-12.55-20.048-23.331c-6.445-21.691-0.168-35.907,20.256-46.215
	c1.107-0.56,2.068-2.462,2.156-3.802c0.304-4.647-0.125-9.354,0.323-13.98c0.493-5.098-1.147-7.33-6.462-6.943
	c-2.888,0.21-5.834-0.373-8.754-0.599c0.03-0.302,0.06-0.604,0.09-0.907c4.91-0.406,9.82-0.812,14.769-1.221
	c0-8.08,0-15.517,0-23.488c-17.703-0.691-35.132-1.371-52.561-2.051c3.544-0.985,7.134-1.376,10.732-1.52
	c12.485-0.498,24.979-0.829,37.456-1.457c1.557-0.079,4.286-1.466,4.356-2.404c0.414-5.561,0.204-11.167,0.204-16.855
	c-132.921,0-264.956,0-396.935,0c0,6.617,0,12.845,0,19.142c13.457,0.635,26.5,1.251,39.543,1.866
	c-0.024,0.637-0.049,1.273-0.073,1.91c-6.483,0-12.967,0-19.45,0c-6.619,0-13.237,0-19.979,0c0,11.885,0,22.598,0,33.421
	c5.763,0.532,11.113,1.027,16.464,1.522c-0.001,0.224-0.002,0.447-0.003,0.671c-5.421,0.382-10.843,0.764-16.644,1.172
	c0,4.325-0.173,8.301,0.11,12.244c0.081,1.123,1.255,2.66,2.32,3.146c17.808,8.126,23.914,18.103,21.836,36.971
	c-1.394,12.666-4.936,24.743-17.712,30.394c-5.999,2.653-6.882,6.117-6.778,11.7c0.075,4.019,1.374,5.134,5.122,5.217
	c8.293,0.184,16.579,0.727,24.867,1.123c-0.001,0.274-0.002,0.548-0.004,0.822c-9.825,0.485-19.651,0.972-29.5,1.459
	c0,13.127,0,25.699,0,38.489c12.713,0.558,25.025,1.097,37.336,1.637c0,0.369-0.001,0.738-0.001,1.107
	c-12.383,0.528-24.766,1.057-37.386,1.595c0,5.135,0,9.873,0,14.764c132.374,0,264.415,0,396.573,0c0-4.414,0-8.469,0-12.692
	c-13.145-0.548-25.907-1.08-38.67-1.613c0.016-0.377,0.03-0.754,0.045-1.131c12.882-0.558,25.763-1.115,38.737-1.678
	c0-8.63,0-16.557,0-25.016c-13.888-0.666-27.539-1.32-41.189-1.975c-0.004-0.285-0.007-0.571-0.011-0.856
	C454.012,682.762,467.607,682.109,481.786,681.429z M110.186,372.248c-0.168,0.381-0.336,0.763-0.504,1.145
	c2.029,2.811,3.938,5.718,6.106,8.418c12.422,15.479,20.104,32.746,21.293,52.843c0.849,14.331,8.753,24.667,20.995,31.405
	c5.905,3.25,12.411,5.875,18.967,7.397c32.356,7.516,65.151,7.905,97.869,3.444c36.096-4.922,69.184-19.113,101.179-35.865
	c7.02-3.676,13.474-8.589,19.747-13.496c14.388-11.253,20.348-26.503,20.225-45.088c-1.935,1.221-3.415,2.198-4.937,3.107
	c-7.366,4.405-15.084,7.85-23.835,8.118c-1.165,0.036-2.357-0.814-3.537-1.254c0.594-1.043,0.944-2.398,1.819-3.082
	c16.685-13.025,25.345-30.577,28.499-51.059c1.195-7.765,1.43-15.677,2.118-23.707c-7.038-0.823-12.762-1.494-18.95-2.219
	c0.297,1.83,0.445,3.1,0.714,4.343c2.38,11.006,3.178,22.085,1.477,33.265c-2.884,18.952-23.043,34.34-42.097,32.183
	c-12.296-1.393-20.44-8.902-25.88-19.097c-12.192-22.853-13.669-46.938-6.707-71.729c2.922-10.403,10.211-17.144,19.212-21.829
	c12.332-6.42,37.991-1.971,48.694,6.976c5.954,4.977,12.789,8.904,19.291,13.211c0.819,0.543,2.023,0.507,4.806,1.137
	c-1.375-4.866-1.226-10.396-3.662-12.001c-20.919-13.784-38.8-30.842-55.667-49.15c-1.761-1.911-4.613-3.734-7.083-3.914
	c-10.752-0.786-21.552-0.904-32.331-1.359c-4.563-0.192-5.742,1.868-5.753,6.288c-0.035,14.886-1.758,29.604-6.507,43.802
	c-2.035,6.087-3.832,6.551-8.845,2.726c-7.481-5.706-14.893-11.505-23.372-18.068c3.439,8.575,7.905,15.027,13.479,20.739
	c4.791,4.909,4.39,6.781-2.163,8.803c-1.111,0.343-2.244,0.654-3.39,0.841c-20.521,3.344-40.148,0.791-58.681-8.946
	c-1.178-0.618-2.406-1.14-3.611-1.706c-0.266,0.398-0.531,0.796-0.797,1.194c6.726,5.758,13.452,11.517,21.08,18.047
	c-3.111,1.02-5.439,2.17-7.881,2.516c-11.587,1.638-22.49-1.021-33.01-5.726c-16.9-7.56-30.057-19.565-40.56-34.579
	c-1.946-2.782-3.819-3.923-6.935-2.54c-8.484,3.766-17.028,7.408-25.376,11.455c-1.658,0.804-3.199,3.018-3.693,4.874
	c-6.379,23.967-12.626,47.97-18.757,72.002c-2.329,9.13-2.102,17.857,5.944,24.805c0.358-0.786,0.844-1.623,1.133-2.523
	c3.612-11.237,7.164-22.494,10.792-33.726c6.602-20.445,26.565-34.932,47.696-32.947c14.494,1.361,28.402,5.947,35.168,20.797
	c8.681,19.055,12.539,39.285,12.462,60.188c-0.051,13.581-6.13,22.493-17.607,26.941c-12.129,4.701-22.207,0.994-30.843-7.816
	c-8.955-9.135-14.841-20.088-17.654-32.525c-1.92-8.489-3.173-17.13-4.835-26.313c-1.521,1.952-3.051,3.48-4.066,5.297
	c-4.14,7.406-8.369,14.781-12.054,22.415c-1.745,3.616-3.959,4.362-7.478,3.626C118.015,373.518,114.09,372.932,110.186,372.248z
	 M312.806,950.88c0.271-0.839,0.545-1.442,0.658-2.073c3.707-20.645,5.16-41.643,1.882-62.194
	c-2.78-17.435-9.145-34.309-14.194-51.35c-0.344-1.159-2.97-2.335-4.525-2.322c-7.825,0.062-15.644,0.615-23.47,0.802
	c-7.459,0.178-8.137,0.605-8.841,8.062c-0.657,6.963-0.689,14.011-1.754,20.905c-3.984,25.802-3.292,51.459,1.646,77.041
	c2.166,11.218,2.222,11.177,13.635,11.139C289.477,950.85,301.111,950.88,312.806,950.88z M17.811,235.126
	c0.667-0.566,1.021-0.722,1.129-0.979c6.938-16.393,13.238-33.093,20.978-49.097c5.913-12.227,12.046-25.034,21.038-34.886
	c8.381-9.183,13.229-19.121,17.927-30.135c9.207-21.583,23.671-39.677,41.308-55.153c6.46-5.668,13.121-11.106,20.112-17.006
	C85.626,68.677,19.405,148.832,17.811,235.126z M101.33,614.651c-0.343-0.125-0.685-0.249-1.028-0.374
	c-0.167-1.82-0.206-3.665-0.525-5.459c-1.741-9.782-8.342-16.188-17.922-17.49c-9.277-1.263-16.445,2.734-20.839,11.967
	c-4.98,10.465-4.748,21.043,0.559,31.267c3.297,6.354,8.379,10.922,16.028,11.098c8,0.185,13.992-3.938,17.176-10.834
	C97.72,628.451,99.204,621.402,101.33,614.651z M509.297,614.756c-1.121-2.981-2.675-9.151-5.653-14.534
	c-3.999-7.228-10.824-9.953-19.124-8.839c-8.059,1.082-13.823,5.462-16.279,12.965c-4.264,13.022-1.643,25.236,7.369,35.442
	c7.912,8.96,20.578,7.735,27.553-1.945C507.416,631.941,508.884,625.181,509.297,614.756z M482.993,289.322
	c4.789,29.061,6.71,57.348,1.125,86.233c26.145-14.62,33.24-57.032,13.878-78.386C494.232,293.019,489.762,290.045,482.993,289.322z
	 M343.926,215.441c-11.81-14.961-23.78-30.125-35.882-45.457c1.701,15.334,3.38,30.471,5.042,45.457
	C323.581,215.441,334.136,215.441,343.926,215.441z M150.068,248.787c-4.625-10.307-9.22-20.544-14.199-31.639
	c-3.314,14.16-6.426,27.455-9.467,40.447C134.403,254.617,142.141,251.737,150.068,248.787z M224.895,491.771
	c-0.335,0.583-0.67,1.165-1.006,1.747c1.897,1.128,3.762,3.165,5.696,3.235c11.293,0.404,22.603,0.445,33.905,0.394
	c3.821-0.018,6.236-2.074,6.841-6.835C254.878,493.122,239.982,495.907,224.895,491.771z"/>
<path fill-rule="evenodd" clip-rule="evenodd" fill="none" d="M481.786,681.429c-14.179,0.681-27.773,1.333-41.368,1.985
	c0.004,0.285,0.007,0.571,0.011,0.856c13.65,0.654,27.302,1.309,41.189,1.975c0,8.459,0,16.386,0,25.016
	c-12.975,0.563-25.855,1.12-38.737,1.678c-0.015,0.377-0.029,0.754-0.045,1.131c12.763,0.533,25.525,1.065,38.67,1.613
	c0,4.224,0,8.278,0,12.692c-132.158,0-264.199,0-396.573,0c0-4.891,0-9.629,0-14.764c12.62-0.538,25.003-1.066,37.386-1.595
	c0-0.369,0.001-0.738,0.001-1.107c-12.312-0.54-24.623-1.079-37.336-1.637c0-12.79,0-25.362,0-38.489
	c9.85-0.487,19.675-0.974,29.5-1.459c0.001-0.274,0.003-0.548,0.004-0.822c-8.289-0.396-16.574-0.939-24.867-1.123
	c-3.749-0.083-5.047-1.198-5.122-5.217c-0.104-5.583,0.779-9.047,6.778-11.7c12.776-5.65,16.318-17.728,17.712-30.394
	c2.077-18.868-4.028-28.845-21.836-36.971c-1.065-0.485-2.24-2.022-2.32-3.146c-0.283-3.943-0.11-7.919-0.11-12.244
	c5.8-0.408,11.222-0.79,16.644-1.172c0.001-0.224,0.002-0.447,0.003-0.671c-5.351-0.495-10.701-0.99-16.464-1.522
	c0-10.823,0-21.536,0-33.421c6.741,0,13.36,0,19.979,0c6.483,0,12.966,0,19.45,0c0.024-0.637,0.049-1.273,0.073-1.91
	c-13.043-0.615-26.086-1.231-39.543-1.866c0-6.297,0-12.524,0-19.142c131.979,0,264.014,0,396.935,0
	c0,5.688,0.21,11.295-0.204,16.855c-0.07,0.938-2.8,2.325-4.356,2.404c-12.478,0.628-24.971,0.959-37.456,1.457
	c-3.599,0.144-7.188,0.534-10.732,1.52c17.429,0.68,34.857,1.359,52.561,2.051c0,7.972,0,15.408,0,23.488
	c-4.948,0.409-9.858,0.814-14.769,1.221c-0.03,0.303-0.06,0.605-0.09,0.907c2.92,0.226,5.866,0.809,8.754,0.599
	c5.314-0.387,6.955,1.846,6.462,6.943c-0.448,4.627-0.02,9.333-0.323,13.98c-0.088,1.34-1.049,3.242-2.156,3.802
	c-20.424,10.308-26.701,24.523-20.256,46.215c3.203,10.781,9.129,19.124,20.048,23.331c1.126,0.434,2.364,2.319,2.397,3.561
	C481.89,664.473,481.786,672.616,481.786,681.429z"/>
<path fill-rule="evenodd" clip-rule="evenodd" fill="none" d="M110.186,372.248c3.904,0.684,7.83,1.27,11.708,2.081
	c3.519,0.736,5.733-0.01,7.478-3.626c3.685-7.634,7.914-15.009,12.054-22.415c1.015-1.816,2.545-3.345,4.066-5.297
	c1.662,9.184,2.915,17.824,4.835,26.313c2.813,12.438,8.699,23.391,17.654,32.525c8.636,8.811,18.714,12.518,30.843,7.816
	c11.478-4.448,17.557-13.36,17.607-26.941c0.077-20.903-3.781-41.134-12.462-60.188c-6.766-14.85-20.674-19.436-35.168-20.797
	c-21.131-1.984-41.094,12.502-47.696,32.947c-3.627,11.231-7.18,22.488-10.792,33.726c-0.289,0.9-0.775,1.737-1.133,2.523
	c-8.046-6.947-8.273-15.675-5.944-24.805c6.131-24.032,12.377-48.035,18.757-72.002c0.494-1.856,2.035-4.07,3.693-4.874
	c8.348-4.047,16.892-7.689,25.376-11.455c3.115-1.383,4.988-0.242,6.935,2.54c10.503,15.014,23.66,27.02,40.56,34.579
	c10.52,4.705,21.423,7.363,33.01,5.726c2.441-0.346,4.77-1.496,7.881-2.516c-7.628-6.53-14.354-12.289-21.08-18.047
	c0.266-0.398,0.531-0.796,0.797-1.194c1.205,0.566,2.434,1.088,3.611,1.706c18.532,9.737,38.159,12.29,58.681,8.946
	c1.146-0.187,2.278-0.498,3.39-0.841c6.553-2.021,6.954-3.894,2.163-8.803c-5.574-5.712-10.04-12.164-13.479-20.739
	c8.479,6.563,15.891,12.362,23.372,18.068c5.013,3.825,6.81,3.361,8.845-2.726c4.749-14.197,6.472-28.916,6.507-43.802
	c0.011-4.42,1.19-6.48,5.753-6.288c10.779,0.455,21.579,0.573,32.331,1.359c2.47,0.18,5.322,2.003,7.083,3.914
	c16.867,18.309,34.748,35.366,55.667,49.15c2.437,1.605,2.287,7.135,3.662,12.001c-2.782-0.63-3.986-0.594-4.806-1.137
	c-6.502-4.307-13.337-8.234-19.291-13.211c-10.703-8.946-36.362-13.396-48.694-6.976c-9.001,4.686-16.29,11.426-19.212,21.829
	c-6.962,24.79-5.485,48.876,6.707,71.729c5.439,10.194,13.584,17.704,25.88,19.097c19.054,2.157,39.213-13.23,42.097-32.183
	c1.701-11.18,0.903-22.259-1.477-33.265c-0.269-1.243-0.417-2.513-0.714-4.343c6.188,0.725,11.912,1.396,18.95,2.219
	c-0.688,8.03-0.923,15.942-2.118,23.707c-3.154,20.481-11.814,38.033-28.499,51.059c-0.875,0.684-1.226,2.039-1.819,3.082
	c1.18,0.439,2.372,1.29,3.537,1.254c8.751-0.269,16.469-3.713,23.835-8.118c1.521-0.909,3.002-1.887,4.937-3.107
	c0.123,18.585-5.837,33.835-20.225,45.088c-6.273,4.907-12.728,9.82-19.747,13.496c-31.995,16.752-65.083,30.943-101.179,35.865
	c-32.718,4.461-65.513,4.071-97.869-3.444c-6.556-1.522-13.062-4.147-18.967-7.397c-12.241-6.738-20.146-17.074-20.995-31.405
	c-1.189-20.097-8.871-37.364-21.293-52.843c-2.167-2.7-4.077-5.607-6.106-8.418C109.849,373.011,110.017,372.629,110.186,372.248z
	 M274.398,424.733c-1.726,2.61-3.805,4.605-3.417,5.406c0.829,1.712,2.771,3.362,4.593,3.9c0.822,0.243,3.689-2.583,3.457-3.398
	C278.513,428.825,276.629,427.398,274.398,424.733z"/>
<path fill-rule="evenodd" clip-rule="evenodd" fill="none" d="M312.806,950.88c-11.695,0-23.329-0.03-34.963,0.009
	c-11.413,0.038-11.469,0.079-13.635-11.139c-4.938-25.582-5.631-51.239-1.646-77.041c1.064-6.895,1.097-13.942,1.754-20.905
	c0.704-7.456,1.382-7.884,8.841-8.062c7.826-0.187,15.645-0.74,23.47-0.802c1.556-0.013,4.182,1.163,4.525,2.322
	c5.05,17.041,11.414,33.915,14.194,51.35c3.278,20.552,1.825,41.55-1.882,62.194C313.351,949.438,313.077,950.041,312.806,950.88z"
	/>
<path fill-rule="evenodd" clip-rule="evenodd" fill="none" d="M17.811,235.126C19.405,148.832,85.626,68.677,140.303,47.87
	c-6.991,5.899-13.652,11.338-20.112,17.006c-17.637,15.477-32.102,33.57-41.308,55.153c-4.699,11.014-9.546,20.952-17.927,30.135
	c-8.991,9.852-15.125,22.659-21.038,34.886c-7.74,16.004-14.039,32.704-20.978,49.097C18.832,234.404,18.478,234.56,17.811,235.126z
	"/>
<path fill-rule="evenodd" clip-rule="evenodd" fill="none" d="M101.33,614.651c-2.126,6.751-3.609,13.8-6.552,20.174
	c-3.184,6.896-9.176,11.019-17.176,10.834c-7.649-0.176-12.73-4.744-16.028-11.098c-5.307-10.224-5.54-20.802-0.559-31.267
	c4.395-9.232,11.562-13.229,20.839-11.967c9.581,1.303,16.181,7.708,17.922,17.49c0.319,1.794,0.357,3.639,0.525,5.459
	C100.645,614.402,100.987,614.526,101.33,614.651z"/>
<path fill-rule="evenodd" clip-rule="evenodd" fill="none" d="M509.297,614.756c-0.413,10.425-1.882,17.186-6.135,23.089
	c-6.975,9.681-19.641,10.905-27.553,1.945c-9.012-10.206-11.633-22.42-7.369-35.442c2.456-7.503,8.221-11.883,16.279-12.965
	c8.3-1.114,15.125,1.611,19.124,8.839C506.623,605.604,508.176,611.774,509.297,614.756z"/>
<path fill-rule="evenodd" clip-rule="evenodd" fill="none" d="M482.993,289.322c6.77,0.723,11.239,3.696,15.003,7.848
	c19.362,21.354,12.267,63.766-13.878,78.386C489.703,346.67,487.782,318.383,482.993,289.322z"/>
<path fill-rule="evenodd" clip-rule="evenodd" fill="none" d="M343.926,215.441c-9.79,0-20.346,0-30.84,0
	c-1.662-14.986-3.341-30.123-5.042-45.457C320.146,185.316,332.117,200.48,343.926,215.441z"/>
<path fill-rule="evenodd" clip-rule="evenodd" fill="none" d="M150.068,248.787c-7.928,2.95-15.666,5.83-23.667,8.809
	c3.041-12.992,6.153-26.287,9.467-40.447C140.849,228.243,145.443,238.48,150.068,248.787z"/>
<path fill-rule="evenodd" clip-rule="evenodd" fill="none" d="M224.895,491.771c15.087,4.136,29.983,1.351,45.437-1.459
	c-0.604,4.761-3.02,6.817-6.841,6.835c-11.303,0.052-22.612,0.011-33.905-0.394c-1.935-0.07-3.799-2.107-5.696-3.235
	C224.225,492.937,224.56,492.354,224.895,491.771z"/>
<path fill-rule="evenodd" clip-rule="evenodd" d="M426.767,583.233c0,23.205,0,45.625,0,68.8c-59.243,0-118.251,0-177.563,0
	c0,10.703,0.112,20.657-0.092,30.604c-0.043,2.086-1.25,4.147-1.921,6.221c-2.1-0.684-4.551-0.887-6.246-2.124
	c-29.189-21.307-58.286-42.74-87.4-64.148c-6.404-4.71-6.42-6.407-0.054-11.026c28.713-20.831,57.432-41.653,86.15-62.477
	c0.808-0.586,1.593-1.217,2.452-1.718c4.336-2.53,7.029-1.041,7.056,4.026c0.047,9.162-0.038,18.324-0.045,27.487
	c-0.001,1.308,0.126,2.615,0.216,4.354C308.378,583.233,367.277,583.233,426.767,583.233z"/>
<path fill-rule="evenodd" clip-rule="evenodd" d="M274.398,424.733c2.231,2.665,4.115,4.092,4.633,5.908
	c0.232,0.815-2.635,3.642-3.457,3.398c-1.822-0.538-3.764-2.188-4.593-3.9C270.593,429.339,272.672,427.344,274.398,424.733z"/>
</svg>
