<?xml version="1.0" encoding="utf-8"?>
<!-- Generator: Adobe Illustrator 16.0.3, SVG Export Plug-In . SVG Version: 6.00 Build 0)  -->
<!DOCTYPE svg PUBLIC "-//W3C//DTD SVG 1.1//EN" "http://www.w3.org/Graphics/SVG/1.1/DTD/svg11.dtd">
<svg version="1.1" id="レイヤー_1" xmlns="http://www.w3.org/2000/svg" xmlns:xlink="http://www.w3.org/1999/xlink" x="0px"
	 y="0px" width="595.281px" height="841.891px" viewBox="0 0 595.281 841.891" enable-background="new 0 0 595.281 841.891"
	 xml:space="preserve">
<path d="M326.373,90.641c3.502,0,7.004,0,10.506,0c0.83,0.197,1.656,0.541,2.494,0.572c15.035,0.589,29.842,2.719,44.441,6.364
	c37.508,9.367,70.039,27.604,97.311,54.991c25.16,25.27,40.922,55.829,49.746,90.161c3.053,11.872,6.084,23.805,12.684,34.295
	c3.879,6.164,8.59,11.803,13.002,17.78c-7.504,1.347-14.4-1.999-21.813-4.885c0,2.2-0.039,3.788,0.006,5.374
	c0.686,24.521-3.738,47.758-17.195,68.739c-11.938,18.612-26.113,35.389-41.938,50.775c-6.777,6.59-14.605,11.729-23.516,15.076
	c-0.699,0.263-1.49,0.28-2.879,0.525c2.93-4.706,5.486-8.816,8.043-12.928c-0.313-0.244-0.627-0.488-0.939-0.732
	c-13.783,12.155-28.152,23.346-46.51,29.178c1.922-4.66,3.6-8.729,5.348-12.964c-0.807-0.035-1.119-0.15-1.268-0.041
	c-7.236,5.322-14.479,10.641-21.625,16.086c-0.328,0.252-0.092,2.06,0.422,2.468c2.334,1.858,5.068,3.243,7.283,5.219
	c13.867,12.365,23.043,28.028,31.127,44.475c0.828,1.688,2.516,3.401,4.223,4.142c18.324,7.943,36.842,15.45,55.09,23.562
	c20.676,9.188,40.678,19.677,58.887,33.274c4.631,3.459,4.93,4.296,3.188,9.777c-4.354,13.72-12.379,25.267-21.654,36.024
	c-15.66,18.168-35.426,30.589-56.906,40.644c-1.57,0.735-3.133,2.415-3.797,4.025c-9.881,24.003-22.096,46.703-37.23,67.814
	c-0.381,0.531-0.471,1.271-0.904,2.507c3.822,0,7.195-0.179,10.545,0.029c20.441,1.27,40.893,2.417,61.311,4.014
	c20.043,1.567,40.053,3.586,60.066,5.502c2.719,0.26,5.414,0.962,8.059,1.685c0.797,0.218,1.387,1.19,2.068,1.819
	c-0.684,0.633-1.271,1.618-2.068,1.834c-2.646,0.716-5.344,1.405-8.063,1.659c-19.646,1.837-39.277,3.896-58.957,5.247
	c-28.785,1.976-57.594,3.725-86.418,4.992c-23.828,1.048-47.693,1.657-71.545,1.744c-35.502,0.131-71.01-0.194-106.511-0.668
	c-21.597-0.289-43.187-1.162-64.776-1.889c-15.855-0.532-31.719-1.005-47.552-1.95c-20.447-1.223-40.876-2.774-61.296-4.405
	c-12.821-1.024-25.623-2.342-38.402-3.805c-2.313-0.264-4.475-1.864-6.707-2.849c0-0.25,0-0.501,0-0.751
	c3.336-0.927,6.622-2.359,10.018-2.698c20.502-2.048,41.025-3.896,61.554-5.666c2.691-0.23,3.902-0.688,3.808-3.835
	c-0.296-9.868-0.153-19.749-0.28-29.623c-0.08-6.156,2.171-8.927,8.262-9.007c11.998-0.157,24.005-0.279,35.996,0.061
	c3.885,0.109,4.579-1.123,4.556-4.563c-0.137-20.507-0.203-41.017-0.024-61.521c0.035-3.947-1.312-4.759-4.947-4.742
	c-27.758,0.126-55.518,0.078-83.276,0.045c-7.865-0.01-10.833-2.989-10.89-10.914c-0.058-8.127,0.007-16.254,0.008-24.38
	c0.005-35.756-0.011-71.51,0.026-107.266c0.007-6.224,3.077-9.22,9.19-9.249c3.122-0.016,6.244,0.037,9.366,0.046
	c25.493,0.065,50.987,0.11,76.48,0.231c1.986,0.01,2.99-0.419,3.882-2.444c0.646-1.467,2.735-3.195,4.23-3.241
	c9.115-0.285,18.25-0.29,27.363,0.048c1.662,0.062,3.259,2.117,4.866,3.277c0.886,0.641,1.65,1.713,2.615,1.923
	c1.805,0.395,3.717,0.401,5.585,0.397c26.863-0.052,53.725-0.177,80.588-0.179c8.019-0.001,10.157,2.263,10.298,10.306
	c0.067,3.807,0.012,7.611,0.012,12.331c3.529-2.426,6.412-4.301,9.182-6.331c9.25-6.783,18.516-13.551,27.667-20.469
	c4.504-3.405,3.881-7.083-1.469-9.021c-2.074-0.751-4.365-1.223-6.563-1.246c-6.238-0.068-12.487,0.387-18.718,0.205
	c-6.084-0.176-12.199-0.566-18.218-1.433c-7.501-1.079-9.173-3.813-8.83,6.685c0.088,2.701-0.998,3.39-3.363,2.315
	c-7.129-3.234-14.278-6.425-21.357-9.765c-2.398-1.133-4.611-2.657-6.909-4.002c-0.39,0.24-0.781,0.48-1.171,0.723
	c1.265,4.389,2.529,8.776,3.893,13.507c-12.444-5.408-22.467-13.795-31.905-23.035c-0.382,0.241-0.764,0.482-1.145,0.725
	c0.881,5.521,1.763,11.041,2.72,17.036c-7.112-2.894-12.418-7.445-17.19-12.524c-18.975-20.198-29.625-44.499-34.833-71.455
	c-0.656-3.398-1.182-7.177-3.03-9.935c-10.948-16.325-14.91-34.557-14.77-53.758c0.07-9.559,1.488-19.118,2.534-28.65
	c0.32-2.918-0.336-3.617-3.144-2.846c-3.128,0.859-6.315,1.701-9.528,2.015c-5.853,0.57-11.781,1.351-18.087-0.812
	c1.114-0.906,1.711-1.517,2.417-1.948c11.017-6.739,18.793-16.377,24.281-27.854c3.227-6.75,5.991-13.74,8.626-20.749
	c11.154-29.675,26.87-56.359,50.685-77.75c32.1-28.83,69.585-45.949,112.394-51.339C312.24,91.889,319.316,91.344,326.373,90.641z
	 M379.865,415.336c-0.313-0.324-0.625-0.65-0.938-0.975c0.461-0.966,0.83-1.991,1.398-2.889
	c8.908-14.072,13.564-29.559,16.137-45.925c3.672-23.395,4.047-46.989,4.979-70.552c0.078-1.982-1.678-5.097-3.416-5.924
	c-11.477-5.452-21.883-12.397-31.721-20.397c-2.646-2.151-6.336-3.657-9.73-4.131c-9.404-1.312-18.635,0.262-27.689,3.061
	c-3.398,1.051-5.523,3.15-6.902,6.314c-4.332,9.935-8.717,19.844-13.096,29.756c-3.182,7.202-5.953,14.497-5.5,22.587
	c0.229,4.026-0.793,4.905-4.322,2.825c-5.781-3.403-11.571-6.925-16.806-11.089c-10.727-8.532-18.648-19.376-24.373-31.831
	c-0.805-1.753-1.875-3.384-2.823-5.07c-0.503,0.209-1.007,0.418-1.51,0.628c2.607,8.986,5.214,17.975,8.058,27.776
	c-3.818-3.786-7.73-6.693-10.372-10.486c-5.611-8.056-10.447-16.646-15.854-24.853c-1.573-2.387-3.68-5.408-6.102-6.06
	c-6.448-1.735-13.177-2.567-19.845-3.293c-3.23-0.353-6.825,0.309-8.527,3.591c-4.182,8.063-8.229,16.209-11.991,24.477
	c-2.578,5.665-1.702,11.692-0.978,17.693c1.207,9.995,1.833,20.063,3.177,30.037c1.746,12.95,2.538,25.754-1.226,38.538
	c-2.517,8.547-0.526,16.585,4.18,23.925c8.112,12.648,20.739,19.147,34.14,24.419c17.918,7.049,36.589,11.089,55.775,11.758
	c14.454,0.504,29.028,0.479,43.415-0.813c20.434-1.839,39.836-8.271,58.713-16.24c3.281-1.385,6.455-2.326,7.1-6.647
	c0.514-3.446,1.744-6.787,2.895-11.047C390.06,408.533,384.962,411.935,379.865,415.336z M270.173,564.523
	c-1.767,0.263-3.209,0.521-4.662,0.688c-5.408,0.616-9.378-0.291-8.964-7.09c0.044-0.731-1.367-1.946-2.328-2.273
	c-2.916-0.99-6.219-1.136-8.87-2.552c-5.768-3.08-5.951-7.056-0.612-10.828c7.646-5.403,15.557-10.434,23.182-15.864
	c1.338-0.953,2.584-3.082,2.599-4.681c0.122-12.618,0.071-25.244-0.204-37.86c-0.212-9.729-3.73-12.861-13.375-12.856
	c-41.491,0.021-82.982,0.02-124.472-0.012c-21.367-0.016-42.734-0.16-64.1-0.14c-7.796,0.009-11.154,3.352-11.567,11.115
	c-0.179,3.367-0.303,6.742-0.307,10.114c-0.034,32.996-0.042,65.992-0.034,98.987c0,2.12,0.053,4.262,0.352,6.354
	c0.53,3.714,2.753,6.137,6.394,6.955c2.049,0.461,4.209,0.595,6.319,0.597c42.619,0.041,85.239,0.088,127.858,0.03
	c21.244-0.027,42.488-0.187,63.73-0.452c5.291-0.066,8.775-3.057,8.952-8.211C270.426,585.961,270.173,575.356,270.173,564.523z
	 M340.398,721.385c-0.223-0.84-0.281-1.458-0.535-1.981c-8.678-17.776-13.9-36.624-17.223-56.038
	c-0.434-2.525-1.469-3.76-3.936-4.643c-11.828-4.229-23.128-9.404-31.753-19.06c-4.663-5.219-4.694-5.791-1.281-11.94
	c12.455-22.453,27.648-43.063,42.964-63.563c4.262-5.7,5.506-10.604,1.199-16.747c-1.758-2.509-2.893-2.775-5.611-1.747
	c-12.721,4.814-25.475,9.574-38.382,13.852c-3.842,1.272-5.159,2.737-5.059,6.832c0.299,12.12,0.199,24.254,0.02,36.379
	c-0.116,7.897-3.149,10.731-10.98,10.804c-7.876,0.073-15.753,0.077-23.63,0.077c-20.254,0.002-40.509,0.028-60.764-0.083
	c-2.471-0.014-3.275,0.667-3.22,3.128c0.089,3.987-0.246,7.981-0.234,11.974c0.049,17.207,0.289,34.414,0.142,51.62
	c-0.032,3.73,1.359,4.235,4.506,4.2c12.125-0.136,24.255-0.12,36.382-0.036c6.573,0.045,8.814,2.364,8.831,8.85
	c0.021,8.127,0.081,16.257-0.122,24.38c-0.075,3.004,0.664,4.137,3.902,4.111c27.875-0.215,55.75-0.271,83.626-0.361
	C326.197,721.365,333.156,721.385,340.398,721.385z M261.153,549.776c-0.119,2.134-0.126,3.755-0.312,5.354
	c-0.81,6.938-0.603,7.136,6.143,5.444c0.485-0.121,0.99-0.183,1.457-0.35c24.901-8.923,49.783-17.898,74.703-26.765
	c14.4-5.124,27.467-13.119,41.354-19.373c13.855-6.239,22.209-17.772,21.482-33.949c-0.715-15.91-14.566-24.747-29.115-18.346
	c-3.635,1.6-7.15,3.619-10.418,5.883c-12.326,8.53-24.201,17.755-36.848,25.771c-22.674,14.379-45.798,28.046-68.698,42.07
	c-5.004,3.063-9.889,6.329-14.76,9.603c-1.583,1.064-3.257,2.358-0.76,4.319C248.305,551.736,257.471,552.15,261.153,549.776z
	 M525.869,255.374c0.588-1.125,0.801-1.344,0.791-1.552c-0.031-0.616-0.113-1.235-0.24-1.84
	c-6.529-31.393-19.297-59.868-40.43-84.165c-33.059-38.007-74.641-60.478-124.559-67.738c-36.311-5.282-71.46-1.47-105.522,12.168
	c-29.059,11.635-53.879,29.169-74.226,53.062c-15.692,18.426-26.575,39.464-34.91,62.01c-4.064,10.994-7.921,22.133-15.255,31.565
	c-0.696,0.896-1.393,1.792-2.089,2.688c1.29,0.144,2.075-0.157,2.739-0.629c9.501-6.771,17.526-14.992,22.881-25.386
	c4.913-9.536,9.169-19.409,13.691-29.146c1.019-2.193,1.896-3.919,4.884-2.063c1.104,0.686,3.296,0.387,4.641-0.229
	c3.735-1.71,7.265-3.861,10.917-5.76c1.982-1.03,1.834-2.254,0.801-3.926c-1.772-2.867-3.369-5.842-5.076-8.749
	c-1.42-2.418-1.486-4.814,0.375-6.956c7.289-8.388,13.819-17.66,22.113-24.907c42.057-36.75,91.042-52.334,146.636-45.248
	c22.293,2.842,42.881,10.546,59.889,26.022c0.371,0.337,0.934,0.463,1.408,0.688c0.229-0.215,0.455-0.431,0.684-0.646
	c-1.752-2.707-3.506-5.413-5.297-8.182c0.463-0.103,0.73-0.256,0.918-0.188c2.236,0.788,4.521,1.475,6.678,2.439
	c36.764,16.438,63.316,43.777,83.354,78.083c1.236,2.116,0.922,3.833-0.883,5.283c-3.111,2.498-6.139,5.149-9.477,7.311
	c-12.566,8.141-26.537,12.58-41.172,15.188c-1.387,0.247-2.717,0.803-4.072,1.216c0.971,0.798,1.695,0.817,2.404,0.719
	c17.699-2.424,35.406-4.804,53.09-7.349c3.148-0.454,6.199-1.598,9.725-2.538C515.775,235.48,520.658,245.103,525.869,255.374z
	 M415.867,666.214c-1.83,0-2.93-0.059-4.021,0.009c-12.586,0.772-25.164,1.83-37.762,2.199c-4.002,0.116-4.773,1.607-4.889,4.918
	c-0.518,14.985-1.088,29.97-1.752,44.948c-0.104,2.315,0.645,3.077,2.906,3.096c9.119,0.07,18.238,0.277,27.359,0.419
	c6.107,0.095,6.166,0.096,7.422-5.696C408.701,699.658,412.216,683.199,415.867,666.214z M473.779,333.515
	c-1.377,0.39-1.74,0.63-1.992,0.544c-6.91-2.361-8.059-1.045-9.959,6.419c-2.918,11.442-6.422,22.785-10.512,33.86
	c-2.127,5.767-5.943,10.935-9.193,16.251c-1.408,2.304-0.885,3.134,1.602,3.228c0.996,0.038,1.998,0.039,2.996-0.008
	c23.715-1.124,43.184-24.353,40.139-47.903c-1.471-11.365-6.342-20.469-17.307-25.286c-1.264-0.554-3.439-0.722-4.375-0.003
	c-2.57,1.979-1.502,7.792,1.42,9.275C468.73,330.975,470.867,332.047,473.779,333.515z M464.798,653.994
	c-0.92,0.049-1.287,0.002-1.615,0.094c-13.807,3.784-27.59,7.662-41.434,11.3c-2.211,0.58-2.92,1.456-3.322,3.608
	c-1.648,8.821-3.666,17.574-5.256,26.404c-0.264,1.464,0.439,3.742,1.527,4.7c5.539,4.878,12.205,5.602,19.301,4.702
	c4.469-0.566,7.588-2.563,9.627-6.613c5.771-11.465,11.744-22.828,17.467-34.315C462.611,660.827,463.513,657.476,464.798,653.994z
	 M401.345,271.242c-0.133-26.938-1.068-53.802-12.557-78.997c-6.328-13.881-14.527-26.451-26-36.753
	c10.617,17.567,19.549,35.861,26.018,55.321C395.339,230.465,399.291,250.628,401.345,271.242z M99.632,690.36
	c0.208,0.507,0.417,1.013,0.625,1.521c42.79-0.401,85.58-0.805,128.854-1.21c-1.777-3.362-4.47-3.494-7.213-3.497
	c-38.216-0.035-76.431-0.071-114.647-0.084c-1.237,0-2.614-0.063-3.676,0.437C102.134,688.201,100.935,689.39,99.632,690.36z
	 M157.807,357.504c0.427-0.19,0.854-0.382,1.282-0.573c-14.882-28.967-13.411-59.723-9.837-91.085
	c-3.407,0.801-5.014,2.3-5.412,5.126c-0.801,5.686-1.918,11.339-2.452,17.048c-1.931,20.669,0.719,40.626,10.113,59.361
	C153.276,350.92,155.689,354.138,157.807,357.504z M228.667,260.091c-6.605-21.573-4.849-43.661-2.962-65.789
	c-0.803,1.143-7.015,46.074-14.394,56.418c-1.297,1.818-2.289,3.859-3.354,5.834c-0.568,1.054-0.991,2.186-1.593,3.537
	C213.875,260.091,220.904,260.091,228.667,260.091z M354.736,258.094c-5.93-8.199-11.998-16.589-18.805-25.996
	c-2.795,10.397-5.273,19.62-7.582,28.201C337.314,259.549,345.873,258.834,354.736,258.094z M520.078,346.303
	c6.746-5.013,13.336-54.277,7.658-61.753c-0.926,10.831-1.486,21.096-2.756,31.271C523.693,326.14,521.705,336.372,520.078,346.303z
	"/>
<path fill="#FFFFFF" d="M379.865,415.336c5.098-3.401,10.193-6.803,16.242-10.838c-1.148,4.261-2.381,7.602-2.895,11.047
	c-0.645,4.321-3.816,5.263-7.098,6.647c-18.877,7.97-38.279,14.401-58.715,16.24c-14.387,1.294-28.961,1.317-43.414,0.813
	c-19.186-0.669-37.856-4.709-55.775-11.758c-13.4-5.271-26.028-11.771-34.14-24.419c-4.707-7.34-6.697-15.378-4.18-23.925
	c3.764-12.784,2.972-25.588,1.226-38.538c-1.344-9.975-1.97-20.042-3.177-30.037c-0.725-6.001-1.601-12.028,0.978-17.693
	c3.762-8.268,7.809-16.413,11.991-24.477c1.703-3.283,5.297-3.943,8.527-3.591c6.668,0.726,13.396,1.558,19.845,3.293
	c2.422,0.65,4.529,3.672,6.102,6.06c5.406,8.205,10.242,16.796,15.854,24.853c2.641,3.792,6.553,6.7,10.372,10.486
	c-2.844-9.802-5.451-18.79-8.058-27.776c0.503-0.209,1.006-0.418,1.51-0.628c0.948,1.687,2.018,3.317,2.823,5.07
	c5.725,12.455,13.646,23.299,24.373,31.831c5.235,4.164,11.025,7.686,16.805,11.089c3.529,2.08,4.551,1.202,4.324-2.825
	c-0.455-8.09,2.316-15.385,5.5-22.587c4.377-9.912,8.762-19.822,13.094-29.756c1.379-3.164,3.506-5.265,6.904-6.314
	c9.053-2.799,18.285-4.372,27.689-3.061c3.395,0.474,7.084,1.979,9.729,4.131c9.838,8,20.246,14.945,31.721,20.397
	c1.74,0.827,3.494,3.94,3.418,5.924c-0.932,23.563-1.307,47.157-4.98,70.552c-2.57,16.366-7.229,31.853-16.137,45.925
	c-0.568,0.897-0.938,1.923-1.398,2.889C379.24,414.686,379.552,415.011,379.865,415.336z M380.611,340.021
	c6.25-8.068,9.719-16,9.012-25.247c-0.982-12.882-9.012-21.287-19.066-27.937c-5.377-3.556-11.809-5.309-18.199-4.194
	c-13.576,2.367-21.645,11.501-26.699,23.68c-3.459,8.332-4.225,17.195-4.168,26.075c0.074,11.951,1.471,23.72,8.133,34.1
	c8.498,13.245,22.559,13.488,31.363,0.46c9.648-14.278,10.953-30.276,8.395-46.729c-0.938-6.044-3.188-11.887-4.795-17.661
	C374.41,307.153,381.611,323.222,380.611,340.021z M217.753,298.456c0.241,0.358,0.482,0.716,0.724,1.074
	c-1.01,2.917-2.186,5.79-2.998,8.761c-3.051,11.155-2.904,22.502-1.415,33.83c1.325,10.082,3.867,19.857,9.719,28.406
	c4.903,7.164,10.02,6.866,13.337-1.193c2.003-4.866,3.246-10.228,3.798-15.475c1.896-18.006,0.41-35.664-7.413-52.316
	c-3.229-6.872-7.338-13.148-14.69-16.346c-4.276-1.86-8.899-1.973-12.465,0.982c-7.684,6.367-12.63,14.652-11.171,24.878
	c0.942,6.609,3.792,12.969,6.003,19.366c0.939,2.718,2.431,5.242,3.576,7.654c0-6.525-0.189-13.002,0.054-19.461
	c0.23-6.104,1.683-11.985,6.35-16.326C212.977,300.602,215.534,299.71,217.753,298.456z"/>
<path fill="#FFFFFF" d="M270.173,564.523c0,10.833,0.253,21.438-0.108,32.022c-0.177,5.154-3.661,8.145-8.952,8.211
	c-21.242,0.267-42.486,0.425-63.73,0.452c-42.619,0.058-85.239,0.011-127.858-0.03c-2.11-0.002-4.271-0.136-6.319-0.597
	c-3.641-0.818-5.864-3.241-6.394-6.955c-0.299-2.094-0.351-4.234-0.352-6.354c-0.009-32.995,0-65.991,0.034-98.987
	c0.003-3.372,0.127-6.747,0.307-10.114c0.414-7.765,3.771-11.106,11.567-11.115c21.366-0.021,42.733,0.124,64.1,0.14
	c41.49,0.03,82.981,0.032,124.472,0.012c9.645-0.005,13.163,3.128,13.375,12.856c0.275,12.616,0.325,25.242,0.204,37.86
	c-0.015,1.599-1.261,3.728-2.599,4.681c-7.625,5.432-15.536,10.461-23.182,15.864c-5.339,3.772-5.156,7.748,0.612,10.828
	c2.65,1.416,5.954,1.562,8.87,2.552c0.961,0.327,2.373,1.542,2.328,2.273c-0.414,6.799,3.556,7.706,8.964,7.09
	C266.964,565.045,268.407,564.786,270.173,564.523z M184.967,519.884c0-0.018,0-0.032,0-0.05c-16.495,0-32.991-0.045-49.485,0.047
	c-2.571,0.013-3.468-0.672-3.385-3.389c0.201-6.489-0.021-12.993,0.064-19.488c0.032-2.507-0.99-4.552-3.328-4.554
	c-1.84-0.002-4.089,1.113-5.458,2.448c-13.419,13.077-26.715,26.28-39.989,39.505c-3.639,3.625-3.623,5.138,0.076,8.69
	c7.388,7.099,14.864,14.104,22.325,21.125c6.186,5.82,12.322,11.698,18.675,17.332c1.178,1.044,3.738,1.891,4.848,1.3
	c1.354-0.719,2.441-2.997,2.599-4.699c0.414-4.465,0.273-8.981,0.331-13.479c0.086-6.749,0.078-6.756,6.786-6.767
	c31.239-0.051,62.479-0.153,93.718-0.063c3.39,0.009,4.242-1.117,4.203-4.239c-0.128-10.12-0.164-20.245,0.026-30.362
	c0.056-2.958-0.962-3.439-3.645-3.42C217.208,519.947,201.087,519.884,184.967,519.884z"/>
<path fill="#FFFFFF" d="M261.153,549.776c-3.683,2.374-12.849,1.96-15.773-0.337c-2.497-1.961-0.823-3.255,0.76-4.319
	c4.871-3.272,9.756-6.538,14.76-9.603c22.899-14.024,46.023-27.691,68.699-42.07c12.645-8.017,24.521-17.24,36.846-25.771
	c3.27-2.264,6.783-4.283,10.418-5.883c14.549-6.401,28.402,2.436,29.117,18.346c0.727,16.177-7.629,27.71-21.484,33.949
	c-13.887,6.254-26.951,14.249-41.354,19.373c-24.92,8.865-49.801,17.842-74.702,26.765c-0.467,0.167-0.972,0.229-1.457,0.35
	c-6.746,1.69-6.952,1.493-6.143-5.444C261.027,553.531,261.035,551.91,261.153,549.776z"/>
<path fill="#FFFFFF" d="M525.869,255.374c-5.211-10.271-10.094-19.894-14.59-28.755c-3.525,0.94-6.574,2.084-9.725,2.538
	c-17.684,2.545-35.391,4.925-53.09,7.349c-0.709,0.099-1.434,0.079-2.404-0.719c1.355-0.413,2.688-0.969,4.072-1.216
	c14.635-2.607,28.605-7.048,41.172-15.188c3.338-2.161,6.363-4.813,9.477-7.311c1.805-1.449,2.119-3.167,0.883-5.283
	c-20.037-34.307-46.592-61.646-83.354-78.083c-2.156-0.965-4.439-1.651-6.678-2.439c-0.188-0.067-0.455,0.087-0.918,0.188
	c1.791,2.769,3.545,5.475,5.297,8.182c-0.229,0.216-0.455,0.431-0.684,0.646c-0.475-0.224-1.037-0.35-1.408-0.688
	c-17.008-15.476-37.596-23.181-59.889-26.021c-55.594-7.086-104.579,8.498-146.636,45.248c-8.294,7.247-14.824,16.521-22.113,24.907
	c-1.861,2.142-1.795,4.538-0.375,6.956c1.707,2.907,3.304,5.882,5.076,8.749c1.034,1.672,1.181,2.896-0.801,3.926
	c-3.652,1.897-7.182,4.05-10.917,5.76c-1.345,0.616-3.538,0.915-4.641,0.229c-2.987-1.856-3.865-0.131-4.884,2.063
	c-4.521,9.736-8.778,19.61-13.691,29.146c-5.355,10.394-13.38,18.614-22.881,25.386c-0.664,0.473-1.449,0.772-2.739,0.629
	c0.696-0.896,1.393-1.791,2.089-2.688c7.334-9.433,11.191-20.571,15.255-31.565c8.335-22.546,19.218-43.584,34.91-62.01
	c20.347-23.893,45.167-41.426,74.226-53.062c34.062-13.638,69.211-17.45,105.522-12.168c49.918,7.261,91.5,29.731,124.559,67.738
	c21.133,24.297,33.898,52.771,40.43,84.165c0.127,0.604,0.209,1.224,0.24,1.84C526.669,254.029,526.457,254.249,525.869,255.374z"/>
<path fill="#FFFFFF" d="M473.779,333.515c-2.912-1.469-5.049-2.54-7.182-3.623c-2.922-1.483-3.99-7.297-1.422-9.275
	c0.936-0.718,3.113-0.551,4.375,0.003c10.967,4.817,15.838,13.921,17.307,25.286c3.045,23.551-16.422,46.779-40.139,47.903
	c-0.996,0.047-1.998,0.046-2.996,0.008c-2.484-0.094-3.01-0.924-1.602-3.228c3.252-5.316,7.066-10.484,9.195-16.251
	c4.088-11.076,7.592-22.418,10.51-33.86c1.902-7.465,3.049-8.781,9.961-6.419C472.039,334.146,472.402,333.905,473.779,333.515z"/>
<path fill="#FFFFFF" d="M464.798,653.994c-1.285,3.482-2.188,6.833-3.705,9.879c-5.723,11.488-11.695,22.853-17.467,34.316
	c-2.039,4.052-5.158,6.047-9.627,6.613c-7.096,0.898-13.762,0.176-19.301-4.702c-1.088-0.958-1.791-3.236-1.527-4.7
	c1.59-8.83,3.605-17.583,5.256-26.404c0.402-2.152,1.111-3.028,3.322-3.608c13.844-3.639,27.627-7.516,41.434-11.3
	C463.511,653.996,463.878,654.043,464.798,653.994z"/>
<path fill="#FFFFFF" d="M401.345,271.242c-2.055-20.614-6.006-40.777-12.539-60.429c-6.469-19.46-15.398-37.754-26.018-55.321
	c11.473,10.302,19.672,22.873,26,36.753C400.277,217.439,401.212,244.302,401.345,271.242z"/>
<path fill="#FFFFFF" d="M99.632,690.36c1.303-0.97,2.502-2.159,3.943-2.835c1.063-0.498,2.439-0.437,3.676-0.437
	c38.216,0.013,76.431,0.049,114.647,0.084c2.743,0.003,5.436,0.135,7.213,3.497c-43.274,0.405-86.064,0.809-128.854,1.21
	C100.048,691.373,99.84,690.867,99.632,690.36z"/>
<path fill="#FFFFFF" d="M157.807,357.504c-2.118-3.365-4.531-6.584-6.305-10.123c-9.395-18.735-12.044-38.692-10.113-59.361
	c0.534-5.709,1.651-11.362,2.452-17.048c0.398-2.826,2.004-4.325,5.412-5.126c-3.574,31.362-5.045,62.119,9.837,91.085
	C158.662,357.122,158.234,357.313,157.807,357.504z"/>
<path fill="#FFFFFF" d="M228.667,260.091c-7.764,0-14.792,0-22.303,0c0.603-1.352,1.025-2.483,1.593-3.537
	c1.065-1.976,2.057-4.017,3.354-5.834c7.378-10.343,13.591-55.276,14.394-56.418C223.818,216.43,222.063,238.517,228.667,260.091z"
	/>
<path fill="#FFFFFF" d="M354.736,258.094c-8.863,0.74-17.422,1.455-26.387,2.205c2.309-8.581,4.787-17.804,7.582-28.201
	C342.738,241.505,348.806,249.895,354.736,258.094z"/>
<path fill="#FFFFFF" d="M520.078,346.303c1.627-9.933,3.615-20.164,4.902-30.482c1.27-10.175,1.83-20.439,2.756-31.271
	C533.414,292.026,526.824,341.292,520.078,346.303z"/>
<path d="M380.611,340.021c1-16.799-6.201-32.868-16.025-37.453c1.605,5.775,3.855,11.616,4.795,17.661
	c2.559,16.453,1.254,32.451-8.395,46.729c-8.807,13.028-22.865,12.785-31.365-0.46c-6.66-10.38-8.057-22.148-8.133-34.1
	c-0.055-8.88,0.709-17.744,4.168-26.075c5.057-12.179,13.125-21.313,26.699-23.68c6.393-1.114,12.822,0.639,18.199,4.194
	c10.057,6.649,18.084,15.054,19.068,27.937C390.33,324.021,386.861,331.953,380.611,340.021z"/>
<path d="M217.753,298.456c-2.219,1.254-4.776,2.146-6.591,3.834c-4.667,4.341-6.12,10.223-6.35,16.326
	c-0.243,6.459-0.054,12.937-0.054,19.461c-1.146-2.412-2.637-4.938-3.576-7.654c-2.211-6.396-5.061-12.757-6.003-19.366
	c-1.458-10.227,3.487-18.512,11.171-24.878c3.566-2.955,8.189-2.843,12.465-0.982c7.352,3.197,11.461,9.474,14.69,16.346
	c7.823,16.652,9.31,34.311,7.413,52.316c-0.552,5.248-1.795,10.609-3.798,15.475c-3.317,8.06-8.435,8.356-13.337,1.193
	c-5.852-8.549-8.394-18.325-9.719-28.406c-1.489-11.328-1.637-22.674,1.415-33.83c0.813-2.971,1.988-5.843,2.998-8.761
	C218.235,299.172,217.994,298.814,217.753,298.456z"/>
<path d="M184.967,519.884c16.12,0,32.241,0.063,48.361-0.063c2.682-0.021,3.7,0.462,3.645,3.42
	c-0.19,10.117-0.154,20.242-0.026,30.362c0.04,3.122-0.813,4.248-4.203,4.239c-31.239-0.092-62.479,0.013-93.718,0.063
	c-6.708,0.011-6.699,0.018-6.786,6.767c-0.057,4.497,0.083,9.016-0.331,13.479c-0.158,1.702-1.246,3.98-2.599,4.699
	c-1.11,0.591-3.67-0.256-4.848-1.3c-6.354-5.634-12.49-11.512-18.675-17.332c-7.461-7.021-14.938-14.026-22.325-21.125
	c-3.699-3.554-3.715-5.065-0.076-8.69c13.274-13.225,26.57-26.428,39.989-39.505c1.37-1.335,3.619-2.45,5.458-2.448
	c2.338,0.002,3.36,2.047,3.328,4.553c-0.084,6.496,0.137,12.999-0.064,19.489c-0.083,2.716,0.814,3.4,3.385,3.388
	c16.495-0.091,32.99-0.047,49.485-0.047C184.967,519.851,184.967,519.867,184.967,519.884z"/>
<line fill="none" stroke="#000000" stroke-width="2.7" stroke-linecap="round" stroke-linejoin="round" stroke-miterlimit="10" x1="274.479" y1="410.07" x2="276.667" y2="413.474"/>
</svg>
