<?xml version="1.0" encoding="utf-8"?>
<!-- Generator: Adobe Illustrator 16.0.3, SVG Export Plug-In . SVG Version: 6.00 Build 0)  -->
<!DOCTYPE svg PUBLIC "-//W3C//DTD SVG 1.1//EN" "http://www.w3.org/Graphics/SVG/1.1/DTD/svg11.dtd">
<svg version="1.1" id="レイヤー_1" xmlns="http://www.w3.org/2000/svg" xmlns:xlink="http://www.w3.org/1999/xlink" x="0px"
	 y="0px" width="595.28px" height="841.89px" viewBox="0 0 595.28 841.89" enable-background="new 0 0 595.28 841.89"
	 xml:space="preserve">
<path fill-rule="evenodd" clip-rule="evenodd" d="M326.373,90.641c3.502,0,7.003,0,10.505,0c0.831,0.198,1.656,0.541,2.495,0.573
	c15.035,0.588,29.842,2.718,44.441,6.364c37.508,9.367,70.039,27.603,97.31,54.991c25.161,25.27,40.922,55.829,49.747,90.161
	c3.052,11.872,6.084,23.805,12.683,34.295c3.879,6.164,8.591,11.803,13.003,17.78c-7.504,1.347-14.401-1.999-21.813-4.884
	c0,2.2-0.039,3.788,0.006,5.374c0.686,24.52-3.738,47.757-17.196,68.739c-11.938,18.612-26.114,35.389-41.938,50.775
	c-6.777,6.59-14.604,11.73-23.515,15.076c-0.7,0.263-1.49,0.281-2.879,0.526c2.929-4.706,5.486-8.817,8.044-12.928
	c-0.313-0.244-0.627-0.488-0.941-0.732c-13.782,12.155-28.152,23.345-46.51,29.177c1.922-4.66,3.601-8.728,5.349-12.964
	c-0.807-0.035-1.119-0.15-1.268-0.041c-7.236,5.323-14.479,10.641-21.624,16.086c-0.33,0.252-0.092,2.06,0.42,2.468
	c2.335,1.858,5.069,3.243,7.285,5.219c13.867,12.365,23.042,28.028,31.126,44.474c0.829,1.688,2.516,3.402,4.223,4.142
	c18.324,7.943,36.841,15.45,55.09,23.562c20.675,9.188,40.677,19.676,58.886,33.274c4.632,3.459,4.929,4.296,3.188,9.777
	c-4.354,13.72-12.38,25.267-21.654,36.025c-15.66,18.168-35.427,30.589-56.907,40.643c-1.571,0.736-3.133,2.415-3.796,4.026
	c-9.881,24.003-22.097,46.703-37.231,67.814c-0.38,0.531-0.471,1.271-0.904,2.507c3.821,0,7.194-0.179,10.544,0.029
	c20.441,1.27,40.894,2.417,61.311,4.014c20.043,1.567,40.052,3.586,60.067,5.502c2.718,0.26,5.413,0.962,8.058,1.684
	c0.796,0.218,1.386,1.191,2.069,1.82c-0.684,0.633-1.272,1.618-2.069,1.834c-2.646,0.716-5.343,1.405-8.063,1.659
	c-19.645,1.837-39.276,3.896-58.956,5.247c-28.785,1.976-57.594,3.725-86.418,4.992c-23.829,1.048-47.694,1.657-71.545,1.744
	c-35.503,0.131-71.01-0.194-106.511-0.668c-21.597-0.289-43.187-1.162-64.776-1.888c-15.855-0.533-31.719-1.005-47.552-1.951
	c-20.447-1.222-40.876-2.774-61.296-4.405c-12.821-1.024-25.623-2.342-38.402-3.804c-2.313-0.264-4.475-1.865-6.707-2.849
	c0-0.25,0-0.501,0-0.751c3.336-0.927,6.622-2.359,10.018-2.698c20.502-2.048,41.025-3.896,61.554-5.666
	c2.691-0.231,3.902-0.688,3.808-3.835c-0.296-9.868-0.153-19.749-0.28-29.623c-0.08-6.157,2.171-8.927,8.262-9.007
	c11.998-0.157,24.005-0.279,35.996,0.06c3.885,0.11,4.579-1.123,4.556-4.563c-0.137-20.507-0.203-41.017-0.024-61.522
	c0.035-3.947-1.312-4.758-4.947-4.742c-27.758,0.126-55.518,0.078-83.276,0.045c-7.865-0.01-10.833-2.989-10.89-10.914
	c-0.058-8.127,0.007-16.254,0.008-24.38c0.005-35.756-0.011-71.51,0.026-107.265c0.007-6.224,3.077-9.22,9.19-9.249
	c3.122-0.016,6.244,0.037,9.366,0.045c25.493,0.066,50.987,0.111,76.48,0.232c1.986,0.01,2.99-0.419,3.882-2.444
	c0.646-1.467,2.735-3.196,4.23-3.242c9.115-0.285,18.25-0.29,27.363,0.048c1.662,0.062,3.259,2.117,4.866,3.278
	c0.886,0.64,1.65,1.712,2.615,1.922c1.805,0.395,3.717,0.402,5.585,0.398c26.863-0.052,53.725-0.177,80.588-0.179
	c8.019-0.001,10.157,2.263,10.298,10.306c0.067,3.806,0.012,7.611,0.012,12.331c3.529-2.426,6.412-4.301,9.182-6.331
	c9.251-6.783,18.515-13.551,27.666-20.469c4.504-3.405,3.881-7.083-1.469-9.021c-2.073-0.751-4.364-1.223-6.563-1.247
	c-6.237-0.068-12.486,0.387-18.717,0.206c-6.084-0.176-12.199-0.567-18.218-1.433c-7.501-1.079-9.173-3.814-8.83,6.685
	c0.088,2.701-0.998,3.389-3.363,2.315c-7.129-3.234-14.278-6.425-21.357-9.765c-2.398-1.132-4.611-2.657-6.909-4.002
	c-0.39,0.241-0.781,0.481-1.171,0.723c1.265,4.389,2.529,8.776,3.893,13.507c-12.444-5.408-22.467-13.795-31.905-23.035
	c-0.382,0.241-0.764,0.482-1.145,0.724c0.881,5.521,1.763,11.041,2.72,17.036c-7.112-2.893-12.418-7.445-17.19-12.524
	c-18.975-20.198-29.625-44.499-34.833-71.455c-0.656-3.398-1.182-7.177-3.03-9.934c-10.948-16.326-14.91-34.557-14.77-53.758
	c0.07-9.559,1.488-19.118,2.534-28.651c0.32-2.918-0.336-3.617-3.144-2.845c-3.128,0.859-6.315,1.701-9.528,2.014
	c-5.853,0.571-11.781,1.351-18.087-0.811c1.114-0.906,1.711-1.517,2.417-1.948c11.017-6.74,18.793-16.377,24.281-27.855
	c3.227-6.75,5.991-13.74,8.626-20.749c11.154-29.675,26.87-56.359,50.685-77.75c32.1-28.83,69.585-45.949,112.393-51.339
	C312.24,91.889,319.316,91.343,326.373,90.641z M379.865,415.336c-0.313-0.325-0.625-0.651-0.938-0.975
	c0.462-0.966,0.83-1.991,1.398-2.889c8.908-14.072,13.566-29.558,16.137-45.924c3.673-23.395,4.048-46.99,4.979-70.552
	c0.078-1.983-1.677-5.097-3.417-5.924c-11.475-5.452-21.882-12.397-31.72-20.397c-2.646-2.152-6.335-3.658-9.73-4.131
	c-9.404-1.312-18.636,0.261-27.689,3.06c-3.399,1.051-5.525,3.151-6.904,6.315c-4.332,9.934-8.716,19.843-13.094,29.756
	c-3.183,7.202-5.954,14.497-5.5,22.586c0.227,4.027-0.794,4.906-4.324,2.826c-5.78-3.404-11.57-6.925-16.805-11.089
	c-10.727-8.532-18.648-19.376-24.373-31.831c-0.805-1.753-1.875-3.384-2.823-5.071c-0.503,0.209-1.007,0.418-1.51,0.628
	c2.607,8.987,5.214,17.975,8.058,27.777c-3.818-3.786-7.73-6.694-10.372-10.487c-5.611-8.055-10.447-16.646-15.854-24.852
	c-1.573-2.387-3.68-5.408-6.102-6.06c-6.448-1.735-13.177-2.567-19.845-3.293c-3.23-0.352-6.825,0.309-8.527,3.591
	c-4.182,8.063-8.229,16.209-11.991,24.477c-2.578,5.665-1.702,11.692-0.978,17.693c1.207,9.995,1.833,20.063,3.177,30.037
	c1.746,12.95,2.538,25.754-1.226,38.538c-2.517,8.547-0.526,16.585,4.18,23.925c8.112,12.649,20.739,19.147,34.14,24.419
	c17.918,7.049,36.589,11.089,55.775,11.758c14.453,0.504,29.028,0.479,43.414-0.814c20.435-1.839,39.837-8.271,58.714-16.24
	c3.281-1.385,6.454-2.326,7.099-6.647c0.514-3.447,1.745-6.787,2.894-11.047C390.06,408.533,384.962,411.935,379.865,415.336z
	 M270.173,564.523c-1.767,0.263-3.209,0.521-4.662,0.688c-5.408,0.617-9.378-0.291-8.964-7.089c0.044-0.732-1.367-1.947-2.328-2.274
	c-2.916-0.99-6.219-1.136-8.87-2.552c-5.768-3.08-5.951-7.055-0.612-10.828c7.646-5.403,15.557-10.433,23.182-15.864
	c1.338-0.953,2.584-3.082,2.599-4.681c0.122-12.618,0.071-25.244-0.204-37.86c-0.212-9.729-3.73-12.861-13.375-12.856
	c-41.491,0.021-82.982,0.019-124.472-0.012c-21.367-0.016-42.734-0.16-64.1-0.14c-7.796,0.009-11.154,3.352-11.567,11.115
	c-0.179,3.368-0.303,6.743-0.307,10.115c-0.034,32.996-0.042,65.992-0.034,98.987c0,2.12,0.053,4.262,0.352,6.354
	c0.53,3.714,2.753,6.137,6.394,6.956c2.049,0.461,4.209,0.594,6.319,0.596c42.619,0.041,85.239,0.088,127.858,0.031
	c21.244-0.028,42.488-0.187,63.73-0.453c5.291-0.066,8.775-3.056,8.952-8.211C270.426,585.96,270.173,575.356,270.173,564.523z
	 M340.398,721.384c-0.222-0.84-0.281-1.458-0.536-1.981c-8.677-17.777-13.899-36.624-17.222-56.038
	c-0.433-2.526-1.469-3.76-3.935-4.643c-11.829-4.229-23.129-9.404-31.754-19.059c-4.663-5.219-4.694-5.791-1.281-11.941
	c12.455-22.453,27.647-43.063,42.965-63.563c4.26-5.7,5.505-10.604,1.198-16.747c-1.758-2.509-2.892-2.776-5.61-1.747
	c-12.722,4.814-25.475,9.574-38.383,13.851c-3.842,1.273-5.159,2.737-5.059,6.832c0.299,12.12,0.199,24.254,0.02,36.379
	c-0.116,7.898-3.149,10.732-10.98,10.804c-7.876,0.073-15.753,0.077-23.63,0.077c-20.254,0.002-40.509,0.028-60.764-0.083
	c-2.471-0.014-3.275,0.667-3.22,3.128c0.089,3.987-0.246,7.981-0.234,11.973c0.049,17.207,0.289,34.415,0.142,51.621
	c-0.032,3.73,1.359,4.235,4.506,4.2c12.125-0.136,24.255-0.12,36.382-0.036c6.573,0.045,8.814,2.364,8.831,8.849
	c0.021,8.127,0.081,16.257-0.122,24.38c-0.075,3.004,0.664,4.137,3.902,4.111c27.875-0.214,55.75-0.271,83.626-0.361
	C326.197,721.365,333.156,721.384,340.398,721.384z M261.153,549.776c-0.119,2.134-0.126,3.755-0.312,5.354
	c-0.81,6.938-0.603,7.136,6.143,5.445c0.485-0.121,0.99-0.183,1.457-0.35c24.901-8.923,49.783-17.898,74.703-26.765
	c14.4-5.124,27.466-13.119,41.353-19.373c13.856-6.239,22.21-17.772,21.483-33.949c-0.714-15.91-14.567-24.747-29.116-18.346
	c-3.635,1.6-7.149,3.62-10.418,5.883c-12.325,8.531-24.201,17.755-36.846,25.771c-22.675,14.379-45.799,28.046-68.699,42.07
	c-5.004,3.064-9.889,6.329-14.76,9.603c-1.583,1.064-3.257,2.358-0.76,4.319C248.305,551.736,257.471,552.15,261.153,549.776z
	 M525.868,255.374c0.588-1.125,0.802-1.344,0.792-1.552c-0.031-0.616-0.114-1.235-0.24-1.84
	c-6.53-31.392-19.297-59.868-40.431-84.165c-33.058-38.007-74.64-60.477-124.558-67.738c-36.311-5.282-71.46-1.47-105.522,12.168
	c-29.059,11.635-53.879,29.169-74.226,53.061c-15.692,18.426-26.575,39.464-34.91,62.01c-4.064,10.994-7.921,22.133-15.255,31.566
	c-0.696,0.896-1.393,1.792-2.089,2.687c1.29,0.144,2.075-0.157,2.739-0.629c9.501-6.771,17.526-14.992,22.881-25.386
	c4.913-9.536,9.169-19.409,13.691-29.146c1.019-2.193,1.896-3.919,4.884-2.063c1.104,0.686,3.296,0.387,4.641-0.229
	c3.735-1.71,7.265-3.861,10.917-5.76c1.982-1.03,1.834-2.254,0.801-3.926c-1.772-2.867-3.369-5.841-5.076-8.749
	c-1.42-2.418-1.486-4.814,0.375-6.956c7.289-8.387,13.819-17.66,22.113-24.907c42.057-36.75,91.042-52.334,146.635-45.248
	c22.293,2.842,42.881,10.546,59.89,26.022c0.371,0.337,0.934,0.463,1.407,0.688c0.229-0.215,0.456-0.431,0.685-0.646
	c-1.753-2.707-3.506-5.413-5.298-8.181c0.463-0.103,0.73-0.256,0.919-0.189c2.236,0.788,4.52,1.475,6.677,2.44
	c36.763,16.437,63.317,43.777,83.354,78.083c1.236,2.116,0.922,3.833-0.883,5.283c-3.112,2.498-6.138,5.149-9.476,7.311
	c-12.567,8.14-26.538,12.58-41.173,15.188c-1.386,0.247-2.716,0.803-4.072,1.216c0.971,0.798,1.695,0.817,2.404,0.719
	c17.7-2.424,35.406-4.804,53.09-7.349c3.149-0.454,6.199-1.598,9.724-2.538C515.774,235.48,520.657,245.103,525.868,255.374z
	 M415.867,666.213c-1.83,0-2.93-0.058-4.022,0.009c-12.586,0.773-25.163,1.83-37.762,2.199c-4.001,0.117-4.773,1.608-4.888,4.918
	c-0.517,14.986-1.089,29.97-1.753,44.949c-0.103,2.315,0.646,3.077,2.907,3.095c9.12,0.071,18.239,0.278,27.359,0.419
	c6.107,0.095,6.166,0.096,7.423-5.696C408.7,699.658,412.217,683.199,415.867,666.213z M473.779,333.515
	c-1.377,0.39-1.74,0.63-1.992,0.544c-6.911-2.361-8.058-1.045-9.96,6.419c-2.918,11.443-6.422,22.785-10.511,33.861
	c-2.128,5.766-5.943,10.934-9.194,16.251c-1.408,2.303-0.884,3.133,1.602,3.227c0.997,0.038,1.999,0.039,2.996-0.008
	c23.716-1.124,43.183-24.352,40.138-47.903c-1.469-11.365-6.34-20.469-17.306-25.286c-1.263-0.554-3.44-0.722-4.375-0.003
	c-2.57,1.979-1.501,7.792,1.421,9.275C468.729,330.975,470.867,332.047,473.779,333.515z M464.799,653.994
	c-0.92,0.048-1.287,0.002-1.616,0.093c-13.807,3.785-27.589,7.662-41.434,11.3c-2.21,0.58-2.92,1.456-3.322,3.609
	c-1.649,8.821-3.665,17.574-5.255,26.404c-0.264,1.464,0.439,3.742,1.527,4.7c5.538,4.878,12.204,5.602,19.301,4.702
	c4.468-0.566,7.587-2.562,9.627-6.613c5.771-11.465,11.744-22.828,17.467-34.316C462.611,660.827,463.514,657.476,464.799,653.994z
	 M401.346,271.242c-0.133-26.939-1.069-53.802-12.557-78.997c-6.329-13.881-14.528-26.451-26-36.753
	c10.617,17.567,19.548,35.861,26.018,55.321C395.34,230.465,399.29,250.628,401.346,271.242z M99.632,690.36
	c0.208,0.507,0.417,1.013,0.625,1.52c42.79-0.401,85.58-0.804,128.854-1.21c-1.777-3.362-4.47-3.494-7.213-3.497
	c-38.216-0.035-76.431-0.071-114.647-0.084c-1.237,0-2.614-0.062-3.676,0.437C102.134,688.201,100.935,689.39,99.632,690.36z
	 M157.807,357.504c0.427-0.191,0.854-0.382,1.282-0.574c-14.882-28.966-13.411-59.722-9.837-91.085
	c-3.407,0.801-5.014,2.3-5.412,5.126c-0.801,5.686-1.918,11.339-2.452,17.048c-1.931,20.669,0.719,40.626,10.113,59.362
	C153.276,350.92,155.689,354.138,157.807,357.504z M228.667,260.091c-6.605-21.574-4.849-43.662-2.962-65.79
	c-0.803,1.143-1.344,2.28-1.543,3.474c-1.022,6.142-3.249,12.426-2.655,18.423c1.303,13.158-2.817,24.178-10.196,34.521
	c-1.297,1.819-2.289,3.86-3.354,5.834c-0.568,1.054-0.991,2.186-1.593,3.538C213.875,260.091,220.904,260.091,228.667,260.091z
	 M260.058,179.548c-3.425,12.533,8.747,49.381,21.274,54.197c-1.34-4.416-2.82-8.616-3.868-12.92
	c-1.341-5.512-1.191-5.549,4.384-5.545c1.379,0.001,2.758,0,4.137,0c0.092-0.337,0.186-0.675,0.278-1.012
	C271.406,207.594,264.914,194.631,260.058,179.548z M354.736,258.094c-5.93-8.199-11.998-16.588-18.804-25.996
	c-2.796,10.398-5.275,19.62-7.582,28.202C337.313,259.549,345.872,258.834,354.736,258.094z M520.078,346.303
	c6.746-5.012,13.336-54.277,7.657-61.753c-0.924,10.832-1.485,21.096-2.756,31.271C523.692,326.14,521.704,336.372,520.078,346.303z
	"/>
<path fill-rule="evenodd" clip-rule="evenodd" fill="#FFFFFF" d="M379.865,415.336c5.097-3.402,10.194-6.803,16.242-10.838
	c-1.148,4.261-2.38,7.601-2.894,11.047c-0.645,4.321-3.817,5.262-7.099,6.647c-18.877,7.97-38.279,14.401-58.714,16.24
	c-14.386,1.294-28.961,1.318-43.414,0.814c-19.186-0.669-37.856-4.709-55.775-11.758c-13.4-5.271-26.028-11.77-34.14-24.419
	c-4.707-7.34-6.697-15.378-4.18-23.925c3.764-12.784,2.972-25.588,1.226-38.538c-1.344-9.974-1.97-20.042-3.177-30.037
	c-0.725-6.001-1.601-12.028,0.978-17.693c3.762-8.268,7.809-16.413,11.991-24.477c1.703-3.283,5.297-3.943,8.527-3.591
	c6.668,0.726,13.396,1.558,19.845,3.293c2.422,0.651,4.529,3.672,6.102,6.06c5.406,8.205,10.242,16.796,15.854,24.852
	c2.641,3.792,6.553,6.701,10.372,10.487c-2.844-9.802-5.451-18.79-8.058-27.777c0.503-0.209,1.006-0.418,1.51-0.628
	c0.948,1.687,2.018,3.318,2.823,5.071c5.725,12.455,13.646,23.299,24.373,31.831c5.235,4.164,11.025,7.685,16.805,11.089
	c3.53,2.08,4.551,1.202,4.324-2.826c-0.454-8.089,2.317-15.384,5.5-22.586c4.378-9.913,8.762-19.823,13.094-29.756
	c1.379-3.164,3.505-5.265,6.904-6.315c9.054-2.799,18.285-4.372,27.689-3.06c3.396,0.473,7.084,1.979,9.73,4.131
	c9.838,8,20.245,14.945,31.72,20.397c1.74,0.827,3.495,3.94,3.417,5.924c-0.931,23.562-1.306,47.157-4.979,70.552
	c-2.57,16.366-7.229,31.852-16.137,45.924c-0.568,0.898-0.937,1.923-1.398,2.889C379.24,414.686,379.552,415.011,379.865,415.336z
	 M380.61,340.021c6.251-8.068,9.719-16,9.013-25.247c-0.983-12.882-9.013-21.287-19.067-27.936
	c-5.377-3.556-11.808-5.309-18.2-4.195c-13.575,2.367-21.644,11.501-26.699,23.68c-3.459,8.332-4.223,17.195-4.168,26.075
	c0.075,11.951,1.472,23.72,8.133,34.1c8.499,13.245,22.56,13.488,31.364,0.46c9.649-14.279,10.953-30.277,8.395-46.73
	c-0.939-6.044-3.188-11.886-4.795-17.661C374.41,307.153,381.61,323.222,380.61,340.021z M217.753,298.456
	c0.241,0.358,0.482,0.716,0.724,1.074c-1.01,2.917-2.186,5.79-2.998,8.761c-3.051,11.155-2.904,22.502-1.415,33.83
	c1.325,10.082,3.867,19.857,9.719,28.406c4.903,7.164,10.02,6.866,13.337-1.193c2.003-4.866,3.246-10.228,3.798-15.475
	c1.896-18.006,0.41-35.664-7.413-52.316c-3.229-6.872-7.338-13.149-14.69-16.346c-4.276-1.86-8.899-1.973-12.465,0.982
	c-7.684,6.368-12.63,14.653-11.171,24.878c0.942,6.61,3.792,12.969,6.003,19.367c0.939,2.717,2.431,5.242,3.576,7.654
	c0-6.525-0.189-13.002,0.054-19.461c0.23-6.104,1.683-11.985,6.35-16.326C212.977,300.602,215.534,299.71,217.753,298.456z"/>
<path fill-rule="evenodd" clip-rule="evenodd" fill="#FFFFFF" d="M270.173,564.523c0,10.833,0.253,21.438-0.108,32.022
	c-0.177,5.155-3.661,8.145-8.952,8.211c-21.242,0.267-42.486,0.425-63.73,0.453c-42.619,0.057-85.239,0.01-127.858-0.031
	c-2.11-0.002-4.271-0.135-6.319-0.596c-3.641-0.819-5.864-3.242-6.394-6.956c-0.299-2.093-0.351-4.234-0.352-6.354
	c-0.009-32.995,0-65.991,0.034-98.987c0.003-3.372,0.127-6.747,0.307-10.115c0.414-7.764,3.771-11.106,11.567-11.115
	c21.366-0.021,42.733,0.124,64.1,0.14c41.49,0.03,82.981,0.032,124.472,0.012c9.645-0.005,13.163,3.127,13.375,12.856
	c0.275,12.616,0.325,25.242,0.204,37.86c-0.015,1.599-1.261,3.728-2.599,4.681c-7.625,5.432-15.536,10.461-23.182,15.864
	c-5.339,3.773-5.156,7.748,0.612,10.828c2.65,1.416,5.954,1.562,8.87,2.552c0.961,0.327,2.373,1.542,2.328,2.274
	c-0.414,6.798,3.556,7.706,8.964,7.089C266.964,565.044,268.407,564.786,270.173,564.523z M184.967,519.883c0-0.017,0-0.032,0-0.05
	c-16.495,0-32.991-0.044-49.485,0.047c-2.571,0.013-3.468-0.672-3.385-3.388c0.201-6.49-0.021-12.993,0.064-19.489
	c0.032-2.506-0.99-4.551-3.328-4.553c-1.84-0.002-4.089,1.113-5.458,2.448c-13.419,13.077-26.715,26.28-39.989,39.505
	c-3.639,3.625-3.623,5.138,0.076,8.69c7.388,7.099,14.864,14.104,22.325,21.125c6.186,5.821,12.322,11.699,18.675,17.332
	c1.178,1.044,3.738,1.891,4.848,1.3c1.354-0.719,2.441-2.997,2.599-4.699c0.414-4.465,0.273-8.982,0.331-13.48
	c0.086-6.749,0.078-6.755,6.786-6.766c31.239-0.051,62.479-0.154,93.718-0.063c3.39,0.009,4.242-1.117,4.203-4.239
	c-0.128-10.12-0.164-20.245,0.026-30.362c0.056-2.958-0.962-3.44-3.645-3.42C217.208,519.947,201.087,519.883,184.967,519.883z"/>
<path fill-rule="evenodd" clip-rule="evenodd" fill="#FFFFFF" d="M261.153,549.776c-3.683,2.374-12.849,1.96-15.773-0.337
	c-2.497-1.961-0.823-3.255,0.76-4.319c4.871-3.273,9.756-6.538,14.76-9.603c22.899-14.024,46.024-27.691,68.699-42.07
	c12.645-8.017,24.521-17.24,36.846-25.771c3.269-2.263,6.783-4.283,10.418-5.883c14.549-6.401,28.402,2.436,29.116,18.346
	c0.727,16.177-7.627,27.71-21.483,33.949c-13.887,6.254-26.952,14.249-41.353,19.373c-24.92,8.866-49.802,17.842-74.703,26.765
	c-0.467,0.167-0.972,0.229-1.457,0.35c-6.746,1.69-6.952,1.493-6.143-5.445C261.027,553.531,261.035,551.91,261.153,549.776z"/>
<path fill-rule="evenodd" clip-rule="evenodd" fill="#FFFFFF" d="M525.868,255.374c-5.211-10.271-10.094-19.894-14.59-28.755
	c-3.524,0.94-6.574,2.084-9.724,2.538c-17.684,2.545-35.39,4.925-53.09,7.349c-0.709,0.098-1.434,0.079-2.404-0.719
	c1.356-0.413,2.687-0.969,4.072-1.216c14.635-2.607,28.605-7.048,41.173-15.188c3.338-2.162,6.363-4.813,9.476-7.311
	c1.805-1.449,2.119-3.167,0.883-5.283c-20.037-34.307-46.592-61.646-83.354-78.083c-2.157-0.965-4.44-1.652-6.677-2.44
	c-0.188-0.067-0.456,0.087-0.919,0.189c1.792,2.768,3.545,5.474,5.298,8.181c-0.229,0.216-0.456,0.431-0.685,0.646
	c-0.474-0.224-1.036-0.35-1.407-0.688c-17.009-15.476-37.597-23.181-59.89-26.022c-55.593-7.086-104.578,8.498-146.635,45.248
	c-8.294,7.247-14.824,16.521-22.113,24.907c-1.861,2.142-1.795,4.538-0.375,6.956c1.707,2.908,3.304,5.882,5.076,8.749
	c1.034,1.672,1.181,2.896-0.801,3.926c-3.652,1.898-7.182,4.05-10.917,5.76c-1.345,0.616-3.538,0.915-4.641,0.229
	c-2.987-1.856-3.865-0.13-4.884,2.063c-4.521,9.736-8.778,19.61-13.691,29.146c-5.355,10.394-13.38,18.615-22.881,25.386
	c-0.664,0.473-1.449,0.773-2.739,0.629c0.696-0.895,1.393-1.791,2.089-2.687c7.334-9.433,11.191-20.572,15.255-31.566
	c8.335-22.546,19.218-43.584,34.91-62.01c20.347-23.892,45.167-41.425,74.226-53.061c34.062-13.638,69.211-17.45,105.522-12.168
	c49.918,7.261,91.5,29.731,124.558,67.738c21.134,24.297,33.9,52.772,40.431,84.165c0.126,0.604,0.209,1.224,0.24,1.84
	C526.67,254.029,526.456,254.249,525.868,255.374z"/>
<path fill-rule="evenodd" clip-rule="evenodd" fill="#FFFFFF" d="M473.779,333.515c-2.912-1.468-5.05-2.54-7.182-3.623
	c-2.922-1.483-3.991-7.297-1.421-9.275c0.935-0.718,3.112-0.551,4.375,0.003c10.966,4.817,15.837,13.921,17.306,25.286
	c3.045,23.551-16.422,46.779-40.138,47.903c-0.997,0.047-1.999,0.046-2.996,0.008c-2.485-0.094-3.01-0.924-1.602-3.227
	c3.251-5.317,7.066-10.485,9.194-16.251c4.089-11.077,7.593-22.418,10.511-33.861c1.902-7.465,3.049-8.781,9.96-6.419
	C472.039,334.146,472.402,333.905,473.779,333.515z"/>
<path fill-rule="evenodd" clip-rule="evenodd" fill="#FFFFFF" d="M464.799,653.994c-1.285,3.482-2.188,6.833-3.705,9.879
	c-5.723,11.488-11.696,22.852-17.467,34.316c-2.04,4.052-5.159,6.047-9.627,6.613c-7.097,0.899-13.763,0.176-19.301-4.702
	c-1.088-0.958-1.791-3.236-1.527-4.7c1.59-8.83,3.605-17.583,5.255-26.404c0.402-2.153,1.112-3.029,3.322-3.609
	c13.845-3.638,27.627-7.515,41.434-11.3C463.512,653.996,463.879,654.042,464.799,653.994z"/>
<path fill-rule="evenodd" clip-rule="evenodd" fill="#FFFFFF" d="M401.346,271.242c-2.056-20.614-6.006-40.777-12.539-60.429
	c-6.47-19.46-15.4-37.754-26.018-55.321c11.472,10.302,19.671,22.873,26,36.753C400.276,217.439,401.213,244.302,401.346,271.242z"
	/>
<path fill-rule="evenodd" clip-rule="evenodd" fill="#FFFFFF" d="M99.632,690.36c1.303-0.97,2.502-2.159,3.943-2.835
	c1.063-0.498,2.439-0.437,3.676-0.437c38.216,0.013,76.431,0.049,114.647,0.084c2.743,0.003,5.436,0.135,7.213,3.497
	c-43.274,0.406-86.064,0.809-128.854,1.21C100.048,691.373,99.84,690.867,99.632,690.36z"/>
<path fill-rule="evenodd" clip-rule="evenodd" fill="#FFFFFF" d="M157.807,357.504c-2.118-3.366-4.531-6.584-6.305-10.123
	c-9.395-18.736-12.044-38.693-10.113-59.362c0.534-5.709,1.651-11.362,2.452-17.048c0.398-2.826,2.004-4.325,5.412-5.126
	c-3.574,31.363-5.045,62.12,9.837,91.085C158.662,357.122,158.234,357.313,157.807,357.504z"/>
<path fill-rule="evenodd" clip-rule="evenodd" fill="#FFFFFF" d="M228.667,260.091c-7.764,0-14.792,0-22.303,0
	c0.603-1.352,1.025-2.484,1.593-3.538c1.065-1.975,2.057-4.016,3.354-5.834c7.378-10.342,11.499-21.362,10.196-34.521
	c-0.594-5.997,1.633-12.281,2.655-18.423c0.199-1.194,0.74-2.332,1.543-3.474C223.818,216.43,222.063,238.517,228.667,260.091z"/>
<path fill-rule="evenodd" clip-rule="evenodd" fill="#FFFFFF" d="M260.058,179.548c4.856,15.083,11.348,28.046,26.205,34.719
	c-0.092,0.337-0.186,0.675-0.278,1.012c-1.379,0-2.758,0.001-4.137,0c-5.576-0.003-5.726,0.033-4.384,5.545
	c1.048,4.304,2.528,8.504,3.868,12.92C268.805,228.929,256.633,192.081,260.058,179.548z"/>
<path fill-rule="evenodd" clip-rule="evenodd" fill="#FFFFFF" d="M354.736,258.094c-8.864,0.741-17.423,1.456-26.386,2.206
	c2.307-8.582,4.786-17.804,7.582-28.202C342.738,241.505,348.807,249.895,354.736,258.094z"/>
<path fill-rule="evenodd" clip-rule="evenodd" fill="#FFFFFF" d="M520.078,346.303c1.626-9.932,3.614-20.164,4.901-30.482
	c1.271-10.175,1.832-20.439,2.756-31.271C533.414,292.026,526.824,341.292,520.078,346.303z"/>
<path fill-rule="evenodd" clip-rule="evenodd" d="M380.61,340.021c1-16.799-6.2-32.868-16.025-37.453
	c1.606,5.775,3.855,11.616,4.795,17.661c2.559,16.453,1.255,32.451-8.395,46.73c-8.805,13.028-22.865,12.785-31.364-0.46
	c-6.661-10.38-8.058-22.149-8.133-34.1c-0.055-8.88,0.709-17.744,4.168-26.075c5.056-12.179,13.124-21.313,26.699-23.68
	c6.393-1.114,12.823,0.639,18.2,4.195c10.055,6.649,18.084,15.053,19.067,27.936C390.329,324.021,386.861,331.953,380.61,340.021z"
	/>
<path fill-rule="evenodd" clip-rule="evenodd" d="M217.753,298.456c-2.219,1.254-4.776,2.146-6.591,3.834
	c-4.667,4.341-6.12,10.222-6.35,16.326c-0.243,6.459-0.054,12.936-0.054,19.461c-1.146-2.412-2.637-4.938-3.576-7.654
	c-2.211-6.397-5.061-12.757-6.003-19.367c-1.458-10.226,3.487-18.511,11.171-24.878c3.566-2.955,8.189-2.842,12.465-0.982
	c7.352,3.197,11.461,9.474,14.69,16.346c7.823,16.652,9.31,34.31,7.413,52.316c-0.552,5.248-1.795,10.609-3.798,15.475
	c-3.317,8.059-8.435,8.356-13.337,1.193c-5.852-8.549-8.394-18.325-9.719-28.406c-1.489-11.328-1.637-22.674,1.415-33.83
	c0.813-2.971,1.988-5.843,2.998-8.761C218.235,299.172,217.994,298.814,217.753,298.456z"/>
<path fill-rule="evenodd" clip-rule="evenodd" d="M184.967,519.883c16.12,0,32.241,0.063,48.361-0.063
	c2.682-0.021,3.7,0.462,3.645,3.42c-0.19,10.117-0.154,20.242-0.026,30.362c0.04,3.122-0.813,4.248-4.203,4.239
	c-31.239-0.091-62.479,0.013-93.718,0.063c-6.708,0.011-6.699,0.017-6.786,6.766c-0.057,4.498,0.083,9.016-0.331,13.48
	c-0.158,1.702-1.246,3.98-2.599,4.699c-1.11,0.591-3.67-0.256-4.848-1.3c-6.354-5.633-12.49-11.511-18.675-17.332
	c-7.461-7.021-14.938-14.026-22.325-21.125c-3.699-3.553-3.715-5.065-0.076-8.69c13.274-13.225,26.57-26.428,39.989-39.505
	c1.37-1.335,3.619-2.45,5.458-2.448c2.338,0.002,3.36,2.047,3.328,4.553c-0.084,6.496,0.137,12.999-0.064,19.489
	c-0.083,2.716,0.814,3.4,3.385,3.388c16.495-0.091,32.99-0.047,49.485-0.047C184.967,519.851,184.967,519.867,184.967,519.883z"/>
<line fill="none" stroke="#000000" stroke-width="2.7" stroke-linecap="round" stroke-linejoin="round" stroke-miterlimit="10" x1="274.479" y1="410.07" x2="276.667" y2="413.474"/>
</svg>
