<svg xmlns="http://www.w3.org/2000/svg" xml:space="preserve" width="573.075" height="994" viewBox="0 0 573.075 994"><path fill="#fff" d="m126.402 257.595 23.666-8.809-14.199-31.639zm341.839 346.753c-4.264 13.021-1.643 25.236 7.369 35.442 7.912 8.96 20.578 7.734 27.553-1.945 4.254-5.904 5.721-12.664 6.135-23.089-1.121-2.981-2.676-9.151-5.654-14.534-3.998-7.229-10.822-9.953-19.123-8.839-8.06 1.083-13.823 5.462-16.28 12.965M120.191 64.876c6.46-5.668 13.121-11.105 20.112-17.006C85.626 68.677 19.405 148.832 17.811 235.126c.667-.565 1.021-.722 1.129-.979 6.938-16.394 13.238-33.093 20.978-49.098 5.913-12.227 12.046-25.033 21.038-34.886 8.381-9.183 13.229-19.121 17.927-30.135 9.207-21.582 23.671-39.676 41.308-55.152m223.735 150.565-35.883-45.457 5.043 45.457zM94.779 634.826c2.941-6.375 5.866-20.424 5.523-20.549-.167-1.82-.206-3.665-.525-5.459-1.741-9.782-8.342-16.188-17.922-17.49-9.277-1.263-16.445 2.734-20.839 11.968-4.98 10.465-4.748 21.043.559 31.267 3.297 6.354 8.379 10.922 16.028 11.098 8 .184 13.992-3.939 17.176-10.835m249.18-365.335c12.332-6.42 37.99-1.971 48.693 6.976 5.955 4.978 12.789 8.904 19.291 13.212.818.543 2.023.507 4.807 1.137-1.375-4.866-1.227-10.396-3.662-12.001-20.92-13.784-38.801-30.842-55.668-49.15-1.76-1.911-4.613-3.733-7.082-3.914-10.752-.786-21.553-.903-32.332-1.358-4.563-.192-5.742 1.867-5.752 6.288-.035 14.886-1.758 29.604-6.508 43.802-2.035 6.087-3.832 6.551-8.845 2.726-7.481-5.706-14.893-11.505-23.372-18.067 3.439 8.574 7.905 15.026 13.479 20.738 4.791 4.909 4.39 6.781-2.163 8.804-1.111.343-2.244.653-3.39.841-20.521 3.344-40.148.791-58.681-8.946-1.178-.618-2.406-1.14-3.611-1.706l-.797 1.194 21.08 18.047c-3.111 1.02-5.439 2.17-7.881 2.516-11.587 1.639-22.49-1.021-33.01-5.726-16.9-7.561-30.057-19.565-40.56-34.579-1.946-2.782-3.819-3.923-6.935-2.54-8.484 3.766-17.028 7.408-25.376 11.455-1.658.804-3.199 3.018-3.693 4.874a7198 7198 0 0 0-18.757 72.002c-2.329 9.13-2.102 17.856 5.944 24.805.358-.786.844-1.623 1.133-2.522 3.612-11.237 7.164-22.494 10.792-33.727 6.602-20.444 26.565-34.932 47.696-32.946 14.494 1.36 28.402 5.946 35.168 20.797 8.681 19.055 12.539 39.284 12.462 60.188-.051 13.581-6.13 22.493-17.607 26.941-12.129 4.701-22.207.994-30.843-7.816-8.955-9.135-14.841-20.088-17.654-32.524-1.92-8.489-3.173-17.131-4.835-26.313-1.521 1.952-3.051 3.48-4.066 5.297-4.14 7.406-8.369 14.781-12.054 22.415-1.745 3.616-3.959 4.362-7.478 3.626-3.878-.813-7.803-1.399-11.707-2.084l-.504 1.146c2.029 2.811 3.938 5.718 6.106 8.418 12.422 15.479 20.104 32.746 21.293 52.843.849 14.331 8.753 24.667 20.995 31.405 5.905 3.25 12.411 5.875 18.967 7.396 32.356 7.517 65.151 7.905 97.869 3.444 36.096-4.922 69.184-19.113 101.178-35.865 7.021-3.676 13.475-8.589 19.748-13.496 14.387-11.253 20.348-26.503 20.225-45.088-1.936 1.221-3.414 2.198-4.938 3.107-7.365 4.404-15.084 7.85-23.834 8.117-1.166.036-2.357-.813-3.537-1.254.594-1.043.943-2.397 1.818-3.082 16.686-13.024 25.346-30.576 28.5-51.059 1.193-7.765 1.43-15.677 2.117-23.707-7.037-.823-12.762-1.494-18.949-2.219.297 1.83.443 3.1.713 4.343 2.381 11.006 3.178 22.085 1.477 33.265-2.883 18.952-23.043 34.34-42.096 32.184-12.297-1.394-20.441-8.902-25.881-19.098-12.191-22.853-13.668-46.938-6.707-71.729 2.923-10.407 10.213-17.148 19.214-21.833m-68.385 164.548c-1.822-.537-3.764-2.188-4.593-3.899-.388-.8 1.691-2.795 3.417-5.406 2.231 2.665 4.115 4.092 4.633 5.908.232.814-2.635 3.641-3.457 3.397m207.419-144.717c4.789 29.061 6.711 57.348 1.125 86.233 26.145-14.62 33.24-57.032 13.879-78.387-3.764-4.149-8.235-7.123-15.004-7.846"/><path fill="#fff" d="M84.83 579.952c.081 1.123 1.255 2.66 2.32 3.146 17.808 8.126 23.914 18.103 21.836 36.971-1.394 12.666-5.774 23.139-17.712 30.395-2.698 1.64-6.783 5.119-6.783 5.119s-.049 3.684.005 6.581c.075 4.019.434 66.213.434 66.213h396.572s.387-63.903.174-72.038c-.033-1.241-1.27-3.127-2.396-3.562-10.918-4.207-16.846-12.55-20.047-23.331-6.445-21.69-.168-35.907 20.256-46.215 1.105-.56 2.066-2.462 2.154-3.802.305-4.647.154-65.737.154-71.425H84.862c0 .001-.315 68.006-.032 71.948m68.661 31.608c28.713-20.831 57.432-41.653 86.15-62.478.808-.586 1.593-1.217 2.452-1.718 4.336-2.53 7.029-1.041 7.056 4.026.047 9.162-.038 18.324-.045 27.487-.001 1.308.126 2.614.216 4.354l177.446.001v68.8H249.204c0 10.703.112 20.657-.092 30.604-.043 2.086-1.25 4.146-1.921 6.221-2.1-.684-4.551-.887-6.246-2.124-29.189-21.307-58.286-42.74-87.4-64.148-6.404-4.709-6.42-6.406-.054-11.025"/><path d="M539.856 246.66c-3.543-8.393-6.652-17.022-9.209-25.765-5.131-17.549-8.289-35.811-14.838-52.784C492.018 106.434 452.184 58.03 392.27 28.528 336.077.859 276.457-6.559 215.038 5.732 126.778 23.395 62.06 72.084 24.937 154.93 4.507 200.523-.228 249.24.007 298.583c.079 16.643 7.68 29.808 21.108 39.396 3.419 2.44 4.532 4.94 4.565 8.981.179 22.188 1.584 44.246 6.486 66.013 7.253 32.204 20.755 60.732 46.725 82.252.291.24.31.81.498 1.344l-6.049.92v3.829c.029 25.498-.005 50.997.163 76.495.022 3.259-.957 4.819-3.848 6.5-4.378 2.546-8.794 5.591-12.052 9.401-15.533 18.165-9.85 53.653 16.008 61.663v84.067h44.333c-.839 2.291-1.537 3.954-2.063 5.671-2.967 9.691-5.934 19.383-8.82 29.099-1.951 6.567.423 11.649 5.511 15.885 13.865 11.54 29.599 19.755 46.399 25.999 1.929.718 4.767.528 6.626-.381 6.309-3.082 10.238-1.728 12.434 5.069 1.894 5.859 3.17 11.954 5.467 17.643 5.822 14.417 8.265 29.199 8.214 44.811-.072 21.654 5.979 42.083 15.74 61.398 1.4 2.77 2.64 5.623 4.227 9.023-8.81 1.348-17.121 2.076-25.151 3.985-9.98 2.374-20.008 5.038-29.481 8.892-6.578 2.675-6.197 7.691-.042 11.472 1.828 1.123 3.819 2.148 5.875 2.702 7.704 2.07 15.367 4.574 23.221 5.76 66.357 10.006 132.827 9.786 199.243.832 11.26-1.52 22.27-5.291 33.191-8.673 2.506-.777 5.746-4.212 5.789-6.479.043-2.216-3.221-5.04-5.664-6.614-2.873-1.85-6.334-3.058-9.703-3.813-10.066-2.255-20.203-4.191-30.328-6.167-3.627-.708-7.301-1.173-11.305-1.804 1.514-3.563 2.699-6.31 3.85-9.068 8.83-21.156 15.043-43.062 12.521-66.094-2.207-20.158 1.375-39.485 4.877-58.971 1.049-5.843 9.256-11.532 14.721-9.439 6.428 2.461 12.004.892 17.217-1.97 10.191-5.596 20.494-11.2 29.873-18.012 14.061-10.209 14.559-13.101 9.145-29.582-2.271-6.917-4.969-13.694-7.656-21.035h40.791c.105-2.253.238-3.724.234-5.195-.043-22.999.043-45.999-.256-68.995-.084-6.334.773-10.142 7.629-13.592 13.416-6.752 17.441-20.022 17.139-34.252-.305-14.422-6.045-26.303-19.492-33.034-3.885-1.946-5.117-4.096-5.086-8.313.178-24.33.053-48.661.031-72.993v-5.99c-2.025-.113-3.328-.252-4.629-.249-34.664.077-69.328.177-103.992.228-1.969.003-4.168.119-5.867-.666-12.85-5.938-26.451-7.603-40.404-7.938-2.348-.058-5.156-1.55-6.857-3.268-2.879-2.905-1.641-5.611 2.455-5.92 4.98-.374 9.984-.563 14.98-.633 19.871-.28 37.525-6.707 53.125-18.938 1.189-.932 2.451-1.771 4.496-3.243-2.205 11.202-8.213 17.684-17.242 21.995 30.193 2.071 52.09-14.176 73.932-34.032-.871 4.3-1.281 7.176-2.061 9.946-.838 2.973-2.021 5.848-3.084 8.845 6.861.151 15.613-2.877 26.107-9.548 33.863-21.528 54.133-53.217 67.34-91.506 4.131 15.334 1.9 29.585-.168 44.313 7.324-6.108 15.188-19.521 18.258-31.068 6.477-24.359 4.582-48.384-4.592-71.586-7.649-19.343-16.711-38.119-24.803-57.291m-195.93-31.219h-30.84l-5.043-45.457zM78.883 120.029c-4.698 11.014-9.546 20.952-17.927 30.135-8.992 9.853-15.125 22.659-21.038 34.886-7.74 16.005-14.04 32.704-20.978 49.098-.108.257-.462.413-1.129.979 1.594-86.295 67.815-166.45 122.492-187.257-6.991 5.9-13.652 11.338-20.112 17.006-17.637 15.476-32.101 33.57-41.308 55.153m71.185 128.758-23.666 8.809 9.467-40.447zM61.575 634.562c-5.307-10.224-5.539-20.802-.559-31.267 4.394-9.233 11.562-13.23 20.839-11.968 9.58 1.303 16.181 7.708 17.922 17.49.319 1.794.358 3.639.525 5.459.343.125-2.582 14.174-5.523 20.549-3.184 6.896-9.176 11.02-17.176 10.834-7.649-.175-12.731-4.743-16.028-11.097m251.888 314.245c-.113.631-.387 1.233-.658 2.073-11.693 0-23.328-.03-34.962.01-11.413.038-11.469.079-13.635-11.139-4.938-25.582-5.63-51.239-1.646-77.041 1.065-6.895 1.097-13.942 1.754-20.905.704-7.457 1.382-7.884 8.841-8.063 7.826-.187 15.644-.739 23.47-.802 1.555-.013 4.18 1.163 4.525 2.322 5.049 17.041 11.414 33.915 14.193 51.35 3.279 20.552 1.825 41.55-1.882 62.195m190.18-348.585c2.979 5.383 4.533 11.553 5.654 14.534-.414 10.425-1.881 17.185-6.135 23.089-6.975 9.68-19.641 10.905-27.553 1.945-9.012-10.206-11.633-22.421-7.369-35.442 2.457-7.503 8.221-11.883 16.279-12.965 8.302-1.114 15.126 1.611 19.124 8.839m-21.846-92.217c0 5.688.15 66.777-.154 71.425-.088 1.34-1.049 3.242-2.154 3.802-20.424 10.308-26.701 24.524-20.256 46.215 3.201 10.781 9.129 19.124 20.047 23.331 1.127.435 2.363 2.32 2.396 3.562.213 8.135-.174 72.038-.174 72.038H84.93s-.359-62.194-.434-66.213c-.054-2.897-.005-6.581-.005-6.581s4.085-3.479 6.783-5.119c11.938-7.256 16.318-17.729 17.712-30.395 2.078-18.868-4.028-28.845-21.836-36.971-1.065-.486-2.239-2.023-2.32-3.146-.283-3.942.032-71.947.032-71.947h396.935zm-257.908-14.487 1.006-1.747c15.087 4.136 29.983 1.351 45.436-1.459-.605 4.761-3.02 6.817-6.841 6.835-11.302.051-22.612.01-33.905-.394-1.934-.07-3.799-2.107-5.696-3.235m107.565-130.469c5.439 10.195 13.584 17.704 25.881 19.098 19.053 2.156 39.213-13.231 42.096-32.184 1.701-11.18.904-22.259-1.477-33.265-.27-1.243-.416-2.513-.713-4.343 6.188.725 11.912 1.396 18.949 2.219-.688 8.03-.924 15.942-2.117 23.707-3.154 20.482-11.814 38.034-28.5 51.059-.875.685-1.225 2.039-1.818 3.082 1.18.44 2.371 1.29 3.537 1.254 8.75-.268 16.469-3.713 23.834-8.117 1.523-.909 3.002-1.887 4.938-3.107.123 18.585-5.838 33.835-20.225 45.088-6.273 4.907-12.727 9.82-19.748 13.496-31.994 16.752-65.082 30.943-101.178 35.865-32.718 4.461-65.513 4.072-97.869-3.444-6.556-1.521-13.062-4.146-18.967-7.396-12.242-6.738-20.146-17.074-20.995-31.405-1.189-20.097-8.871-37.364-21.293-52.843-2.168-2.7-4.077-5.607-6.106-8.418l.504-1.146c3.904.685 7.829 1.271 11.707 2.084 3.519.736 5.733-.01 7.478-3.626 3.685-7.634 7.914-15.009 12.054-22.415 1.015-1.816 2.545-3.345 4.066-5.297 1.662 9.183 2.915 17.824 4.835 26.313 2.813 12.437 8.699 23.39 17.654 32.524 8.636 8.811 18.714 12.518 30.843 7.816 11.477-4.448 17.556-13.36 17.607-26.941.077-20.903-3.781-41.133-12.462-60.188-6.766-14.851-20.674-19.437-35.168-20.797-21.131-1.985-41.094 12.502-47.696 32.946-3.628 11.232-7.18 22.489-10.792 33.727-.289.899-.775 1.736-1.133 2.522-8.046-6.948-8.273-15.675-5.944-24.805a7198 7198 0 0 1 18.757-72.002c.494-1.856 2.035-4.07 3.693-4.874 8.348-4.047 16.892-7.689 25.376-11.455 3.116-1.383 4.989-.242 6.935 2.54 10.503 15.014 23.66 27.019 40.56 34.579 10.52 4.705 21.423 7.364 33.01 5.726 2.442-.346 4.77-1.496 7.881-2.516l-21.08-18.047.797-1.194c1.205.566 2.433 1.088 3.611 1.706 18.533 9.737 38.16 12.29 58.681 8.946 1.146-.188 2.279-.498 3.39-.841 6.553-2.022 6.953-3.895 2.163-8.804-5.574-5.712-10.04-12.164-13.479-20.738 8.479 6.563 15.891 12.361 23.372 18.067 5.013 3.825 6.81 3.361 8.845-2.726 4.75-14.198 6.473-28.916 6.508-43.802.01-4.421 1.189-6.48 5.752-6.288 10.779.455 21.58.572 32.332 1.358 2.469.181 5.322 2.003 7.082 3.914 16.867 18.309 34.748 35.366 55.668 49.15 2.436 1.604 2.287 7.135 3.662 12.001-2.783-.63-3.988-.594-4.807-1.137-6.502-4.308-13.336-8.234-19.291-13.212-10.703-8.946-36.361-13.396-48.693-6.976-9.002 4.685-16.291 11.426-19.213 21.829-6.962 24.795-5.486 48.88 6.706 71.733m152.664 12.506c5.586-28.886 3.664-57.173-1.125-86.233 6.77.723 11.24 3.697 15.004 7.847 19.361 21.354 12.265 63.766-13.879 78.386"/><path d="M153.545 622.586c29.114 21.408 58.211 42.842 87.4 64.148 1.695 1.237 4.146 1.44 6.246 2.124.671-2.074 1.878-4.135 1.921-6.221.204-9.947.092-19.901.092-30.604h177.562v-68.8l-177.446-.001c-.09-1.739-.217-3.046-.216-4.354.007-9.163.092-18.325.045-27.487-.027-5.067-2.72-6.557-7.056-4.026-.859.501-1.644 1.132-2.452 1.718-28.718 20.824-57.437 41.646-86.15 62.478-6.366 4.618-6.35 6.315.054 11.025m120.853-197.853c-1.726 2.611-3.805 4.606-3.417 5.406.829 1.712 2.771 3.362 4.593 3.899.822.244 3.689-2.583 3.457-3.397-.518-1.816-2.402-3.243-4.633-5.908"/></svg>