<?xml version="1.0" encoding="utf-8"?>
<!-- Generator: Adobe Illustrator 16.0.3, SVG Export Plug-In . SVG Version: 6.00 Build 0)  -->
<!DOCTYPE svg PUBLIC "-//W3C//DTD SVG 1.1//EN" "http://www.w3.org/Graphics/SVG/1.1/DTD/svg11.dtd">
<svg version="1.1" id="レイヤー_1" xmlns="http://www.w3.org/2000/svg" xmlns:xlink="http://www.w3.org/1999/xlink" x="0px"
	 y="0px" width="700.559px" height="1314.2px" viewBox="0 0 700.559 1314.2" enable-background="new 0 0 700.559 1314.2"
	 xml:space="preserve">
<path fill-rule="evenodd" clip-rule="evenodd" fill="none" d="M277.727,632.855c-4.991,3.844-10.009,7.359-14.632,11.334
	c-14.769,12.699-26.598,28.014-37.873,43.733c-15.649,21.82-30.753,44.065-40.746,69.16c-12.162,30.541-9.057,59.121,13.19,84.378
	c3.001,3.408,2.745,5.694,0.75,9.443c-14.546,27.34-29.375,54.553-42.979,82.361c-11.639,23.792-21.374,48.429-26.099,74.772
	c-1.286,7.167,0.383,12.529,5.643,17.43c17.659,16.453,38.777,26.851,61.107,35.042c2.335,0.857,5.936-0.048,8.31-1.324
	c5.475-2.942,10.461-2,13.408,3.524c0.925,1.735,1.425,3.712,2.011,5.611c3.534,11.448,6.673,23.033,10.657,34.321
	c3.653,10.352,5.651,20.76,5.469,31.77c-0.622,37.511,7.182,73.099,25.063,106.282c0.819,1.52,1.41,3.162,2.354,5.308
	c-13.231,0.852-25.667,1.533-38.082,2.474c-35.073,2.656-70.074,6.059-104.391,14.114c-9.328,2.189-18.413,5.701-27.28,9.398
	c-2.777,1.157-6.352,5.045-6.175,7.433c0.207,2.794,3.925,5.519,6.491,7.869c1.399,1.281,3.504,1.927,5.398,2.51
	c7.469,2.298,14.876,4.938,22.494,6.588c41.82,9.055,84.337,12.574,126.938,14.849c93.502,4.993,186.94,4.131,280.092-6.074
	c22.947-2.514,45.66-7.444,68.336-11.987c6.346-1.271,12.5-4.578,18.146-7.948c5.243-3.131,5.036-7.496,0.138-11.258
	c-2.475-1.9-5.282-3.72-8.23-4.591c-11.955-3.53-23.885-7.361-36.076-9.837c-33.867-6.877-68.279-9.502-102.686-11.998
	c-1.878-0.137-3.75-0.362-6.1-0.593c1.065-2.586,1.769-4.431,2.576-6.229c14.31-31.897,23.731-65.021,20.414-100.254
	c-2.516-26.716,2.347-52.447,6.77-78.359c1.476-8.643,12.521-14.186,20.961-11.734c3.41,0.99,7.505,0.897,10.984,0.051
	c4.303-1.048,8.41-3.161,12.395-5.217c16.804-8.67,32.87-18.375,45.309-33.066c3.259-3.851,4.705-8.056,3.223-12.951
	c-3.13-10.344-5.681-20.932-9.691-30.93c-16.599-41.378-36.936-80.867-61.311-118.238c-1.413-2.166-3.101-3.819-0.344-6.8
	c22.743-24.596,28.02-53.281,17.357-84.457c-12.574-36.77-30.871-70.766-53.348-102.477c-14.59-20.584-33.557-34.902-58.411-40.979
	c-4.116-1.006-8.294-2.864-11.672-5.369c-2.045-1.518-3.675-5.145-3.426-7.615c0.146-1.449,4.257-3.268,6.74-3.551
	c4.936-0.564,9.981-0.268,14.979-0.175c24.18,0.446,45.415-7.5,64.237-22.399c1.654-1.311,3.351-2.567,5.028-3.849
	c0.359,0.35,0.72,0.699,1.08,1.049c-2.698,12.181-9.924,20.646-22.212,25.471c3.101,1.013,6.2,2.1,9.076,1.675
	c8.362-1.236,16.854-2.366,24.902-4.821c20.001-6.101,36.196-18.835,52.329-31.534c2.938-2.313,5.915-4.578,9.859-7.628
	c-0.264,4.197-0.278,7.142-0.679,10.033c-0.396,2.866-1.181,5.679-2.075,9.809c59.755-21.346,88.713-67.946,108.634-122.813
	c2.09,26.414-7.11,50.641-13.862,75.49c4.674-5.299,9.096-10.682,12.884-16.479c26.497-40.546,33.179-83.831,16.005-129.567
	c-10.473-27.887-22.55-55.168-33.688-82.81c-2.408-5.977-4.537-12.213-5.677-18.531c-7.989-44.312-22.028-86.39-44.931-125.354
	c-29.441-50.087-68.238-90.902-120.096-117.77C411.46-0.408,331.676-9.603,249.714,9.895
	C132.049,37.885,54.741,111.03,18.406,226.356C3.826,272.632,0.407,320.789,0.042,369.12c-0.085,11.23-0.013,22.462-0.013,33.693
	c0.545,0.03,1.09,0.062,1.634,0.093c2.774-9.497,5.548-18.994,8.546-29.256c1.056,1.338,1.356,1.549,1.412,1.813
	c4.868,22.99,13.361,44.608,24.492,65.255c0.887,1.645,1.178,3.781,1.2,5.695c0.224,18.974-0.815,38.041,0.709,56.904
	c3.319,41.078,18.054,77.694,46.982,107.733c19.368,20.111,41.687,35.841,69.25,42.688c5.902,1.467,12.177,1.43,18.28,2.085
	c-4.882-5.214-10.023-8.859-14.542-13.159c-4.701-4.472-7.731-10.056-8.194-17.104c32.225,15.752,52.962,20.129,63.18,13.272
	c-2.605-2.763-5.639-5.206-7.635-8.315c-1.973-3.072-2.897-6.818-4.282-10.269c0.436-0.253,0.872-0.506,1.308-0.759
	C225.546,634.7,250.761,638.204,277.727,632.855z"/>
<path fill-rule="evenodd" clip-rule="evenodd" d="M277.727,632.855c-26.966,5.349-52.181,1.845-75.358-13.365
	c-0.436,0.253-0.872,0.506-1.308,0.759c1.384,3.45,2.309,7.196,4.282,10.269c1.996,3.109,5.029,5.553,7.635,8.315
	c-10.218,6.856-30.955,2.479-63.18-13.272c0.463,7.049,3.494,12.633,8.194,17.104c4.52,4.3,9.661,7.945,14.542,13.159
	c-6.103-0.655-12.378-0.618-18.28-2.085c-27.563-6.848-49.882-22.577-69.25-42.688c-28.929-30.039-43.664-66.655-46.982-107.733
	c-1.524-18.863-0.485-37.931-0.709-56.904c-0.022-1.914-0.313-4.051-1.2-5.695c-11.131-20.646-19.624-42.265-24.492-65.255
	c-0.056-0.264-0.356-0.475-1.412-1.813c-2.998,10.262-5.771,19.759-8.546,29.256c-0.544-0.031-1.089-0.063-1.634-0.093
	c0-11.231-0.072-22.463,0.013-33.693c0.365-48.331,3.784-96.488,18.364-142.764C54.741,111.03,132.049,37.885,249.714,9.895
	C331.676-9.603,411.46-0.408,486.697,38.571c51.857,26.867,90.654,67.683,120.096,117.77
	c22.902,38.964,36.941,81.042,44.931,125.354c1.14,6.318,3.269,12.555,5.677,18.531c11.139,27.642,23.216,54.923,33.688,82.81
	c17.174,45.736,10.492,89.021-16.005,129.567c-3.788,5.798-8.21,11.181-12.884,16.479c6.752-24.85,15.952-49.076,13.862-75.49
	c-19.921,54.866-48.879,101.467-108.634,122.813c0.895-4.13,1.679-6.942,2.075-9.809c0.4-2.892,0.415-5.836,0.679-10.033
	c-3.944,3.05-6.921,5.314-9.859,7.628c-16.133,12.699-32.328,25.434-52.329,31.534c-8.049,2.455-16.54,3.585-24.902,4.821
	c-2.876,0.425-5.976-0.662-9.076-1.675c12.288-4.824,19.514-13.29,22.212-25.471c-0.36-0.35-0.721-0.699-1.08-1.049
	c-1.678,1.281-3.374,2.538-5.028,3.849c-18.822,14.899-40.058,22.846-64.237,22.399c-4.997-0.093-10.043-0.39-14.979,0.175
	c-2.483,0.283-6.595,2.102-6.74,3.551c-0.249,2.471,1.381,6.098,3.426,7.615c3.378,2.505,7.556,4.363,11.672,5.369
	c24.854,6.076,43.821,20.395,58.411,40.979c22.477,31.711,40.773,65.707,53.348,102.477c10.662,31.176,5.386,59.861-17.357,84.457
	c-2.757,2.98-1.069,4.634,0.344,6.8c24.375,37.371,44.712,76.86,61.311,118.238c4.011,9.998,6.562,20.586,9.691,30.93
	c1.482,4.896,0.036,9.101-3.223,12.951c-12.438,14.691-28.505,24.396-45.309,33.066c-3.984,2.056-8.092,4.169-12.395,5.217
	c-3.479,0.847-7.574,0.939-10.984-0.051c-8.44-2.451-19.485,3.092-20.961,11.734c-4.423,25.912-9.285,51.644-6.77,78.359
	c3.317,35.233-6.104,68.356-20.414,100.254c-0.808,1.799-1.511,3.644-2.576,6.229c2.35,0.23,4.222,0.456,6.1,0.593
	c34.406,2.496,68.818,5.121,102.686,11.998c12.191,2.476,24.121,6.307,36.076,9.837c2.948,0.871,5.756,2.69,8.23,4.591
	c4.898,3.762,5.105,8.127-0.138,11.258c-5.646,3.37-11.801,6.677-18.146,7.948c-22.676,4.543-45.389,9.474-68.336,11.987
	c-93.152,10.205-186.59,11.067-280.092,6.074c-42.601-2.274-85.118-5.794-126.938-14.849c-7.618-1.649-15.025-4.29-22.494-6.588
	c-1.894-0.583-3.999-1.229-5.398-2.51c-2.566-2.351-6.284-5.075-6.491-7.869c-0.177-2.388,3.397-6.275,6.175-7.433
	c8.867-3.697,17.952-7.209,27.28-9.398c34.317-8.056,69.318-11.458,104.391-14.114c12.416-0.94,24.851-1.622,38.082-2.474
	c-0.944-2.146-1.535-3.788-2.354-5.308c-17.881-33.184-25.684-68.771-25.063-106.282c0.183-11.01-1.815-21.418-5.469-31.77
	c-3.984-11.288-7.123-22.873-10.657-34.321c-0.586-1.899-1.086-3.876-2.011-5.611c-2.947-5.524-7.933-6.467-13.408-3.524
	c-2.375,1.276-5.975,2.182-8.31,1.324c-22.331-8.191-43.448-18.589-61.107-35.042c-5.259-4.9-6.928-10.263-5.643-17.43
	c4.725-26.344,14.46-50.98,26.099-74.772c13.604-27.809,28.433-55.021,42.979-82.361c1.995-3.749,2.251-6.035-0.75-9.443
	c-22.248-25.257-25.353-53.837-13.19-84.378c9.993-25.095,25.097-47.34,40.746-69.16c11.275-15.72,23.104-31.034,37.873-43.733
	C267.718,640.215,272.736,636.699,277.727,632.855z M132.169,468.801l-0.147-0.156c3.5,5.161,6.749,10.516,10.544,15.449
	c13.658,17.756,22.126,37.343,23.306,60.033c0.751,14.447,8.043,25.861,19.159,34.876c8.174,6.63,17.68,10.556,27.7,13.396
	c18.255,5.175,37.003,6.879,55.846,7.459c32.225,0.992,64.364,0.295,95.715-8.48c29.438-8.24,57.667-19.693,85.096-33.113
	c15.958-7.809,30.606-17.464,42.929-30.534c12.763-13.538,15.473-30.209,16.579-47.149c-8.145,3.813-15.949,7.771-24.014,11.1
	c-3.46,1.429-7.436,1.799-11.224,2.147c-1.527,0.14-3.179-1.066-4.774-1.66c0.822-1.309,1.45-2.808,2.509-3.883
	c1.745-1.771,3.88-3.153,5.658-4.896c18.494-18.116,27.436-40.566,29.643-65.985c0.626-7.21,0.839-14.456,1.254-21.917
	c-8.302-0.959-15.612-1.804-23.445-2.708c0.678,2.972,1.159,5.061,1.63,7.151c2.773,12.309,3.466,24.74,1.906,37.253
	c-3.148,25.25-24.325,43.657-49.741,42.402c-6.013-0.297-12.536-2.514-17.68-5.698c-11.983-7.417-18.759-19.2-22.813-32.409
	c-7.329-23.884-8.682-47.875-2.399-72.431c3.846-15.036,13.584-23.934,26.415-30.482c3.771-1.924,8.218-3.773,12.288-3.639
	c16.099,0.535,31.149,5.085,44.653,14.12c7.196,4.815,14.273,9.809,21.496,14.584c1.832,1.212,4.011,1.899,6.961,3.256
	c0-3.358-0.173-5.644,0.036-7.893c0.432-4.643-1.244-7.471-5.54-9.884c-5.913-3.321-11.397-7.53-16.676-11.836
	c-17.843-14.557-34.752-30.114-49.881-47.541c-1.455-1.676-3.491-3.47-5.537-3.909c-14.945-3.214-30.049-3.582-45.24-1.91
	c-3.366,0.37-4.165,1.874-4.377,5.108c-0.869,13.28-1.627,26.602-3.411,39.773c-0.97,7.157-3.549,14.185-6.105,21.007
	c-1.652,4.411-3.979,4.609-7.717,1.675c-7.073-5.554-14.123-11.137-21.116-16.79c-2.778-2.246-5.378-4.713-8.06-7.08
	c2.921,9.764,8.205,17.871,15.063,24.957c6.99,7.223,6.398,9.339-3.561,12.037c-0.804,0.218-1.601,0.491-2.42,0.619
	c-26.157,4.103-51.131,0.925-74.496-12.137c-0.983-0.55-2.045-0.961-3.069-1.437c-0.382,0.564-0.764,1.128-1.146,1.691
	c7.79,6.106,15.603,12.186,23.347,18.349c1.076,0.856,2.604,2.203,2.508,3.184c-0.1,1.016-1.822,2.033-3.021,2.729
	c-0.972,0.563-2.204,0.738-3.346,0.939c-15.358,2.7-29.858-0.565-43.727-6.892c-20.564-9.379-36.46-24.299-49.065-42.845
	c-1.9-2.795-3.663-4.538-7.207-3.007c-9.435,4.077-18.952,7.967-28.341,12.145c-5.401,2.403-7.861,6.927-9.322,12.665
	c-6.982,27.428-14.428,54.737-21.492,82.146C120.891,445.974,121.726,458.493,132.169,468.801z M244.84,919.354
	c67.27,0,133.99,0,201.318,0c0-2.083,0.004-3.864-0.001-5.646c-0.031-13.159-0.181-26.32-0.021-39.478
	c0.045-3.789-0.961-6.423-3.975-8.951c-14.682-12.312-19.884-43.307,0.285-59.307c1.832-1.452,2.936-4.618,3.156-7.097
	c0.253-2.845-1.06-5.791-1.322-8.727c-0.337-3.749-0.648-7.559-0.346-11.292c0.41-5.048,1.897-10.031,2.065-15.071
	c0.35-10.483,0.136-20.984,0.153-31.479c0.003-1.614,0-3.228,0-5.007c-67.503,0-134.351,0-201.087,0c0,14.492,0,28.578,0,42.889
	c6.748-0.785,13.135-0.741,16.731,5.584c5.29,9.305,0.934,17.134-5.304,24.638c16.358,9.355,24.428,22.989,20.799,41.388
	c-3.467,17.576-12.694,30.688-32.452,32.971C244.84,889.711,244.84,904.31,244.84,919.354z M398.868,1183.156
	c-1.533-15.971-1.587-31.655-4.847-46.642c-4.05-18.622-10.817-36.648-16.249-54.98c-0.999-3.372-2.627-4.212-6.081-3.964
	c-11.283,0.813-22.596,1.572-33.897,1.591c-5.393,0.01-6.887,2.058-7.174,6.914c-0.609,10.296-1.055,20.651-2.58,30.832
	c-3.469,23.154-5.04,46.423-2.997,69.688c1.522,17.343,4.969,34.515,7.537,51.767c0.628,4.219,2.918,5.482,7.202,5.426
	c15.312-0.205,30.634-0.174,45.941,0.219c5.165,0.132,7.595-1.324,8.054-6.643C395.35,1219.15,397.176,1200.96,398.868,1183.156z
	 M476.852,755.115c5.542-1.635,10.061-3.286,14.725-4.142c1.339-0.245,3.946,1.527,4.4,2.896c0.367,1.104-1.29,3.465-2.645,4.447
	c-4.145,3.006-8.679,5.47-12.864,8.424c-3.892,2.747-4.684,7.145-3.51,11.207c0.801,2.771,3.877,4.801,5.312,7.495
	c1.196,2.247,1.485,4.979,2.177,7.496c-2.235-0.983-4.626-1.717-6.676-2.997c-5.771-3.601-11.23-7.729-17.154-11.039
	c-3.135-1.751-7.032-1.973-8.767,2.501c-2.033,5.244,3.615,14.438,9.173,15.6c1.385,0.29,3.563,1.521,3.607,2.41
	c0.076,1.475-0.896,3.565-2.112,4.43c-2.829,2.011-6.063,3.451-9.141,5.11c-22.639,12.202-17.805,39.875-4.055,51.636
	c6.105,5.223,12.954,6.496,20.519,3.697c11.472-4.243,17.566-13.162,19.658-24.557c1.521-8.285,1.356-16.871,2.136-25.306
	c0.13-1.413,1.236-2.735,1.892-4.099c1.146,0.983,3.126,1.838,3.303,2.973c1.038,6.678,1.724,13.414,2.368,20.146
	c0.156,1.632-0.287,3.322-0.454,4.985c0.515,0.235,1.029,0.471,1.544,0.706c3.919-4.649,8.271-9.004,11.68-14.001
	c13.834-20.276,14.05-42.109,6.437-64.56c-8.549-25.208-20.987-48.637-34.588-71.341c-8.171-13.641-18.193-26.199-27.77-38.954
	c-2.791-3.717-6.91-6.436-10.42-9.612c-0.384,0.237-0.768,0.474-1.151,0.711c0.199,2.247,0.229,4.524,0.625,6.735
	c2.263,12.62,4.476,25.252,7.005,37.819c0.944,4.693,1.386,10.806,4.468,13.363c2.822,2.341,8.897,0.76,13.539,0.906
	c0.167,0.005,0.335,0.017,0.5-0.001c4.867-0.51,6.471,1.932,6.415,6.516c-0.167,13.829-0.133,27.66-0.174,41.49
	C476.846,750.484,476.852,752.761,476.852,755.115z M206.588,832.596c1.108-6.739,1.795-12.463,3.125-18.032
	c0.389-1.629,2.612-2.819,3.994-4.211c0.671,1.702,1.833,3.379,1.923,5.111c0.292,5.646-0.181,11.346,0.315,16.965
	c1.195,13.527,6.423,24.795,19.285,31.141c7.117,3.511,14.109,3.464,20.721-1.432c19.515-14.447,17.763-42.303-3.401-53.88
	c-2.627-1.438-5.439-2.611-7.841-4.355c-1.124-0.816-1.913-2.67-2.011-4.11c-0.06-0.88,1.446-2.644,2.31-2.683
	c5.338-0.244,7.456-4.335,9.104-8.121c1.107-2.544,1.532-6.889,0.09-8.604c-1.377-1.64-5.56-1.107-8.515-1.15
	c-1.214-0.019-2.601,0.745-3.638,1.517c-4.921,3.658-9.68,7.539-14.66,11.113c-1.266,0.908-3.131,0.981-4.721,1.438
	c0.07-1.665-0.519-3.864,0.324-4.903c3.428-4.226,6.942-8.523,11.11-11.963c3.384-2.793,3.548-5.197,0.729-7.739
	c-3.922-3.535-8.363-6.49-12.378-9.931c-1.559-1.336-2.564-3.318-3.821-5.007c2.228-0.889,4.622-2.785,6.648-2.451
	c3.908,0.643,7.607,2.545,11.792,4.07c0-10.414,0.101-20.553-0.058-30.688c-0.051-3.236,0.892-5.256,3.98-6.601
	c4.725-2.058,9.178-4.751,13.932-6.729c3.747-1.559,5.565-4.109,6.719-7.893c4.854-15.917,9.963-31.756,14.993-47.619
	c0.721-2.27,1.521-4.513,2.286-6.769c-3.724,1.729-6.904,3.691-9.325,6.346c-8.854,9.708-17.987,19.232-26.045,29.58
	c-18.968,24.357-36.16,49.925-47.93,78.67c-8.09,19.757-7.693,39.335,3.243,58.117C200.973,825.411,203.738,828.646,206.588,832.596
	z M22.433,294.411c1.88-5.416,3.495-10.941,5.686-16.229c10.055-24.268,19.321-48.856,32.857-71.593
	c6.767-11.366,13.022-22.767,23.586-31.248c2.472-1.985,3.917-5.573,5.172-8.69c3.347-8.311,5.669-17.09,9.58-25.106
	c15.139-31.038,38.083-55.604,65.063-76.675c1.05-0.819,2.037-1.743,3.166-2.433c1.011-0.617,2.178-0.978,3.276-1.451
	c-0.523-0.526-1.046-1.053-1.57-1.579c-48.949,23.315-83.943,61.245-110.792,107.372C35.563,206.105,23.147,248.615,22.433,294.411z
	 M312.219,664.27c32.59,0.596,63.981,1.169,94.778,1.731c0-13.084,0.033-26.526-0.074-39.967c-0.008-0.912-0.879-2.319-1.69-2.645
	c-6.974-2.799-12.206-7.303-14.254-14.978c-6.97,3.625-13.146,6.881-19.361,10.061c-15.266,7.808-30.198,16.806-48.662,12.48
	c-1.366-0.32-4.491,1.505-4.776,2.784C315.901,643.939,314.11,654.251,312.219,664.27z M256.75,718.349
	c0.082,0.36,0.163,0.72,0.245,1.08c1.449,0.063,2.897,0.183,4.346,0.183c60.293,0.013,120.587-0.141,180.879,0.176
	c9.755,0.051,14.082-6.967,21.409-11.944c-1.778-0.217-2.271-0.329-2.766-0.329c-60.126-0.048-120.252-0.092-180.378-0.098
	c-1.461-0.001-3.098,0.084-4.354,0.72C269.618,711.435,263.201,714.925,256.75,718.349z M593.019,470.087
	c0.495,0.381,0.991,0.763,1.486,1.144c4.475-4.086,9.414-7.772,13.34-12.331c14.635-16.995,16.999-37.008,13.406-58.291
	c-1.724-10.211-5.253-19.632-12.527-27.276c-4.528-4.758-9.915-7.91-17.425-8.852C597.132,400.136,599.653,435.05,593.019,470.087z
	 M418.532,272.717c-14.311-18.246-29.175-37.198-43.978-56.07c2.137,18.817,4.279,37.695,6.365,56.07
	C393.872,272.717,406.743,272.717,418.532,272.717z M469.043,772.809c0-19.529,0-39.192,0-59.643
	c-4.499,3.363-8.66,6.09-12.311,9.383c-1.596,1.44-2.973,4.02-3.03,6.119c-0.303,10.987-0.149,21.987-0.154,32.982
	c-0.001,2.593,0,5.185,0,7.123C459.171,770.238,463.922,771.475,469.043,772.809z M163.744,275.758
	c-3.798,16.977-7.518,33.605-11.192,50.03c10.083-3.781,19.772-7.414,29.095-10.91C175.813,302.13,169.952,289.325,163.744,275.758z
	 M469.513,873.755c-5.619,0-10.651,0-15.63,0c0,13.355,0,26.711,0,41.556c5.582-6.298,10.301-11.551,14.902-16.904
	c0.564-0.656,0.69-1.852,0.698-2.8C469.539,888.473,469.513,881.338,469.513,873.755z M273.266,615.027
	c4.047,9.43,13.479,13.465,21.901,10.596c8.01-2.728,16.226-4.845,24.32-7.33c2.094-0.643,4.072-1.66,6.104-2.505
	c-0.118-0.404-0.236-0.808-0.354-1.212C308.219,618.222,291.195,621.374,273.266,615.027z"/>
<path fill-rule="evenodd" clip-rule="evenodd" fill="none" d="M132.169,468.801c-10.443-10.308-11.278-22.827-7.87-36.05
	c7.064-27.408,14.51-54.718,21.492-82.146c1.461-5.738,3.921-10.262,9.322-12.665c9.389-4.178,18.906-8.067,28.341-12.145
	c3.544-1.531,5.307,0.212,7.207,3.007c12.604,18.546,28.5,33.466,49.065,42.845c13.869,6.326,28.368,9.592,43.727,6.892
	c1.142-0.201,2.374-0.376,3.346-0.939c1.198-0.696,2.921-1.714,3.021-2.729c0.096-0.98-1.432-2.327-2.508-3.184
	c-7.744-6.163-15.557-12.242-23.347-18.349c0.382-0.563,0.764-1.127,1.146-1.691c1.024,0.476,2.086,0.887,3.069,1.437
	c23.365,13.062,48.339,16.239,74.496,12.137c0.819-0.128,1.616-0.401,2.42-0.619c9.959-2.698,10.551-4.814,3.561-12.037
	c-6.857-7.086-12.142-15.193-15.063-24.957c2.682,2.367,5.281,4.834,8.06,7.08c6.993,5.653,14.043,11.236,21.116,16.79
	c3.737,2.935,6.064,2.736,7.717-1.675c2.557-6.822,5.136-13.85,6.105-21.007c1.784-13.172,2.542-26.493,3.411-39.773
	c0.212-3.234,1.011-4.738,4.377-5.108c15.191-1.672,30.295-1.304,45.24,1.91c2.046,0.439,4.082,2.233,5.537,3.909
	c15.129,17.427,32.038,32.984,49.881,47.541c5.278,4.306,10.763,8.515,16.676,11.836c4.296,2.413,5.972,5.241,5.54,9.884
	c-0.209,2.249-0.036,4.534-0.036,7.893c-2.95-1.356-5.129-2.044-6.961-3.256c-7.223-4.775-14.3-9.769-21.496-14.584
	c-13.504-9.035-28.555-13.585-44.653-14.12c-4.07-0.135-8.518,1.715-12.288,3.639c-12.831,6.549-22.569,15.446-26.415,30.482
	c-6.282,24.556-4.93,48.547,2.399,72.431c4.054,13.209,10.829,24.992,22.813,32.409c5.144,3.185,11.667,5.401,17.68,5.698
	c25.416,1.255,46.593-17.152,49.741-42.402c1.56-12.513,0.867-24.944-1.906-37.253c-0.471-2.091-0.952-4.18-1.63-7.151
	c7.833,0.904,15.144,1.749,23.445,2.708c-0.415,7.461-0.628,14.707-1.254,21.917c-2.207,25.419-11.148,47.869-29.643,65.985
	c-1.778,1.742-3.913,3.125-5.658,4.896c-1.059,1.075-1.687,2.574-2.509,3.883c1.596,0.594,3.247,1.8,4.774,1.66
	c3.788-0.349,7.764-0.719,11.224-2.147c8.064-3.329,15.869-7.287,24.014-11.1c-1.106,16.94-3.816,33.611-16.579,47.149
	c-12.322,13.07-26.971,22.726-42.929,30.534c-27.429,13.42-55.658,24.873-85.096,33.113c-31.351,8.775-63.49,9.473-95.715,8.48
	c-18.842-0.58-37.59-2.284-55.846-7.459c-10.02-2.84-19.525-6.766-27.7-13.396c-11.115-9.015-18.408-20.429-19.159-34.876
	c-1.18-22.69-9.648-42.277-23.306-60.033c-3.795-4.934-7.044-10.288-10.554-15.457c5.725,0.926,11.484,1.733,17.184,2.845
	c3.359,0.655,5.14-0.47,6.599-3.545c4.064-8.565,8.276-17.072,12.786-25.409c1.973-3.649,4.811-6.83,7.311-10.3
	c2.379,11.832,4.004,23.048,6.965,33.899c4.458,16.338,12.311,30.968,25.811,41.791c10.322,8.275,21.967,10.217,34.224,4.913
	c12.021-5.2,19.041-14.739,19.919-27.729c2.036-30.086-4.292-58.533-18.471-85.167c-1.059-1.988-2.771-3.778-4.541-5.216
	c-34.26-27.81-82.728-12.478-95.064,29.903c-3.619,12.433-7.877,24.679-11.683,37.061
	C132.36,463.934,132.443,466.422,132.169,468.801z M336.739,543.621c1.009-1.191,3.426-2.75,3.629-4.558
	c0.39-3.482-2.415-5.714-5.642-5.37c-1.848,0.196-4.588,2.398-4.942,4.108C329.007,541.554,332.256,542.657,336.739,543.621z"/>
<path fill-rule="evenodd" clip-rule="evenodd" fill="none" d="M244.84,919.354c0-15.045,0-29.644,0-44.584
	c19.758-2.282,28.985-15.395,32.452-32.971c3.629-18.398-4.441-32.032-20.799-41.388c6.238-7.504,10.594-15.333,5.304-24.638
	c-3.596-6.325-9.983-6.369-16.731-5.584c0-14.311,0-28.396,0-42.889c66.737,0,133.584,0,201.087,0c0,1.779,0.003,3.393,0,5.007
	c-0.018,10.494,0.196,20.995-0.153,31.479c-0.168,5.04-1.655,10.023-2.065,15.071c-0.303,3.733,0.009,7.543,0.346,11.292
	c0.263,2.936,1.575,5.882,1.322,8.727c-0.221,2.479-1.324,5.645-3.156,7.097c-20.169,16-14.967,46.995-0.285,59.307
	c3.014,2.528,4.02,5.162,3.975,8.951c-0.159,13.157-0.01,26.318,0.021,39.478c0.005,1.781,0.001,3.563,0.001,5.646
	C378.831,919.354,312.11,919.354,244.84,919.354z"/>
<path fill-rule="evenodd" clip-rule="evenodd" fill="none" d="M398.868,1183.156c-1.691,17.804-3.518,35.994-5.091,54.207
	c-0.459,5.318-2.889,6.774-8.054,6.643c-15.308-0.393-30.63-0.424-45.941-0.219c-4.284,0.057-6.574-1.207-7.202-5.426
	c-2.568-17.252-6.015-34.424-7.537-51.767c-2.043-23.265-0.472-46.533,2.997-69.688c1.525-10.181,1.971-20.536,2.58-30.832
	c0.287-4.856,1.781-6.904,7.174-6.914c11.302-0.019,22.614-0.777,33.897-1.591c3.454-0.248,5.082,0.592,6.081,3.964
	c5.432,18.332,12.199,36.358,16.249,54.98C397.281,1151.501,397.334,1167.186,398.868,1183.156z"/>
<path fill-rule="evenodd" clip-rule="evenodd" fill="none" d="M476.852,755.115c0-2.354-0.006-4.631,0.001-6.906
	c0.041-13.83,0.007-27.661,0.174-41.49c0.056-4.584-1.548-7.025-6.415-6.516c-0.165,0.018-0.333,0.006-0.5,0.001
	c-4.642-0.146-10.717,1.435-13.539-0.906c-3.082-2.558-3.523-8.67-4.468-13.363c-2.529-12.567-4.742-25.199-7.005-37.819
	c-0.396-2.211-0.426-4.488-0.625-6.735c0.384-0.237,0.768-0.474,1.151-0.711c3.51,3.177,7.629,5.896,10.42,9.612
	c9.576,12.755,19.599,25.313,27.77,38.954c13.601,22.704,26.039,46.133,34.588,71.341c7.613,22.45,7.397,44.283-6.437,64.56
	c-3.409,4.997-7.761,9.352-11.68,14.001c-0.515-0.235-1.029-0.471-1.544-0.706c0.167-1.663,0.61-3.354,0.454-4.985
	c-0.645-6.732-1.33-13.469-2.368-20.146c-0.177-1.135-2.156-1.989-3.303-2.973c-0.655,1.363-1.762,2.686-1.892,4.099
	c-0.779,8.435-0.615,17.021-2.136,25.306c-2.092,11.395-8.187,20.313-19.658,24.557c-7.564,2.799-14.413,1.525-20.519-3.697
	c-13.75-11.761-18.584-39.434,4.055-51.636c3.077-1.659,6.312-3.1,9.141-5.11c1.217-0.864,2.188-2.955,2.112-4.43
	c-0.045-0.889-2.223-2.12-3.607-2.41c-5.558-1.162-11.206-10.355-9.173-15.6c1.734-4.474,5.632-4.252,8.767-2.501
	c5.924,3.31,11.384,7.438,17.154,11.039c2.05,1.28,4.44,2.014,6.676,2.997c-0.691-2.518-0.98-5.249-2.177-7.496
	c-1.435-2.694-4.511-4.725-5.312-7.495c-1.174-4.063-0.382-8.46,3.51-11.207c4.186-2.954,8.72-5.418,12.864-8.424
	c1.354-0.982,3.012-3.343,2.645-4.447c-0.454-1.369-3.062-3.142-4.4-2.896C486.913,751.829,482.394,753.48,476.852,755.115z"/>
<path fill-rule="evenodd" clip-rule="evenodd" fill="none" d="M206.588,832.596c-2.85-3.95-5.615-7.185-7.722-10.803
	c-10.936-18.782-11.333-38.36-3.243-58.117c11.77-28.745,28.962-54.313,47.93-78.67c8.058-10.348,17.191-19.872,26.045-29.58
	c2.421-2.654,5.602-4.617,9.325-6.346c-0.765,2.256-1.565,4.499-2.286,6.769c-5.03,15.863-10.139,31.702-14.993,47.619
	c-1.154,3.783-2.973,6.334-6.719,7.893c-4.754,1.978-9.207,4.671-13.932,6.729c-3.088,1.345-4.031,3.364-3.98,6.601
	c0.159,10.135,0.058,20.273,0.058,30.688c-4.184-1.525-7.884-3.428-11.792-4.07c-2.027-0.334-4.42,1.563-6.648,2.451
	c1.257,1.688,2.262,3.671,3.821,5.007c4.015,3.44,8.456,6.396,12.378,9.931c2.82,2.542,2.656,4.946-0.729,7.739
	c-4.168,3.439-7.682,7.737-11.11,11.963c-0.842,1.039-0.254,3.238-0.324,4.903c1.59-0.456,3.455-0.529,4.721-1.438
	c4.98-3.574,9.738-7.455,14.66-11.113c1.038-0.771,2.424-1.535,3.638-1.517c2.955,0.043,7.137-0.489,8.515,1.15
	c1.441,1.716,1.017,6.061-0.09,8.604c-1.648,3.786-3.766,7.877-9.104,8.121c-0.863,0.039-2.369,1.803-2.31,2.683
	c0.098,1.44,0.887,3.294,2.011,4.11c2.402,1.744,5.214,2.918,7.841,4.355c21.164,11.577,22.916,39.433,3.401,53.88
	c-6.612,4.896-13.604,4.942-20.721,1.432c-12.862-6.346-18.09-17.613-19.285-31.141c-0.496-5.619-0.024-11.318-0.315-16.965
	c-0.089-1.732-1.252-3.409-1.923-5.111c-1.382,1.392-3.604,2.582-3.994,4.211C208.383,820.133,207.697,825.856,206.588,832.596z"/>
<path fill-rule="evenodd" clip-rule="evenodd" fill="none" d="M22.433,294.411c0.714-45.796,13.131-88.306,36.022-127.632
	c26.85-46.127,61.843-84.057,110.792-107.372c0.523,0.526,1.046,1.053,1.57,1.579c-1.098,0.474-2.266,0.834-3.276,1.451
	c-1.129,0.689-2.116,1.613-3.166,2.433c-26.98,21.07-49.923,45.637-65.063,76.675c-3.91,8.017-6.233,16.796-9.58,25.106
	c-1.255,3.117-2.7,6.705-5.172,8.69c-10.563,8.481-16.819,19.882-23.586,31.248c-13.536,22.736-22.802,47.325-32.857,71.593
	C25.927,283.47,24.313,288.995,22.433,294.411z"/>
<path fill-rule="evenodd" clip-rule="evenodd" fill="none" d="M312.219,664.27c1.891-10.019,3.682-20.33,5.96-30.532
	c0.285-1.279,3.41-3.104,4.776-2.784c18.464,4.325,33.396-4.673,48.662-12.48c6.215-3.18,12.392-6.436,19.361-10.061
	c2.048,7.675,7.28,12.179,14.254,14.978c0.812,0.325,1.683,1.732,1.69,2.645c0.107,13.44,0.074,26.883,0.074,39.967
	C376.201,665.438,344.809,664.865,312.219,664.27z"/>
<path fill-rule="evenodd" clip-rule="evenodd" fill="none" d="M256.75,718.349c6.45-3.424,12.867-6.914,19.382-10.213
	c1.256-0.636,2.893-0.721,4.354-0.72c60.126,0.006,120.252,0.05,180.378,0.098c0.494,0,0.987,0.112,2.766,0.329
	c-7.327,4.978-11.654,11.995-21.409,11.944c-60.292-0.316-120.586-0.163-180.879-0.176c-1.449,0-2.897-0.119-4.346-0.183
	C256.914,719.068,256.832,718.709,256.75,718.349z"/>
<path fill-rule="evenodd" clip-rule="evenodd" fill="none" d="M593.019,470.087c6.634-35.037,4.113-69.951-1.72-105.606
	c7.51,0.941,12.896,4.094,17.425,8.852c7.274,7.645,10.804,17.065,12.527,27.276c3.593,21.283,1.229,41.296-13.406,58.291
	c-3.926,4.559-8.865,8.245-13.34,12.331C594.01,470.85,593.514,470.468,593.019,470.087z"/>
<path fill-rule="evenodd" clip-rule="evenodd" fill="none" d="M418.532,272.717c-11.789,0-24.66,0-37.612,0
	c-2.086-18.375-4.229-37.253-6.365-56.07C389.357,235.519,404.221,254.471,418.532,272.717z"/>
<path fill-rule="evenodd" clip-rule="evenodd" fill="none" d="M469.043,772.809c-5.121-1.334-9.872-2.57-15.495-4.035
	c0-1.938-0.001-4.53,0-7.123c0.005-10.995-0.148-21.995,0.154-32.982c0.058-2.1,1.435-4.679,3.03-6.119
	c3.65-3.293,7.812-6.02,12.311-9.383C469.043,733.616,469.043,753.279,469.043,772.809z"/>
<path fill-rule="evenodd" clip-rule="evenodd" fill="none" d="M163.744,275.758c6.208,13.567,12.069,26.372,17.903,39.12
	c-9.323,3.496-19.012,7.129-29.095,10.91C156.226,309.363,159.946,292.734,163.744,275.758z"/>
<path fill-rule="evenodd" clip-rule="evenodd" fill="none" d="M469.513,873.755c0,7.583,0.025,14.718-0.029,21.852
	c-0.008,0.948-0.134,2.144-0.698,2.8c-4.602,5.354-9.32,10.606-14.902,16.904c0-14.845,0-28.2,0-41.556
	C458.862,873.755,463.894,873.755,469.513,873.755z"/>
<path fill-rule="evenodd" clip-rule="evenodd" fill="none" d="M273.266,615.027c17.929,6.347,34.953,3.194,51.971-0.451
	c0.118,0.404,0.236,0.808,0.354,1.212c-2.031,0.845-4.01,1.862-6.104,2.505c-8.095,2.485-16.311,4.603-24.32,7.33
	C286.745,628.492,277.313,624.457,273.266,615.027z"/>
<path fill-rule="evenodd" clip-rule="evenodd" d="M132.169,468.801c0.274-2.379,0.191-4.867,0.883-7.117
	c3.806-12.382,8.064-24.628,11.683-37.061c12.336-42.381,60.805-57.713,95.064-29.903c1.771,1.438,3.482,3.228,4.541,5.216
	c14.179,26.634,20.507,55.081,18.471,85.167c-0.879,12.989-7.899,22.528-19.919,27.729c-12.257,5.304-23.901,3.362-34.224-4.913
	c-13.5-10.823-21.353-25.453-25.811-41.791c-2.961-10.852-4.586-22.067-6.965-33.899c-2.5,3.47-5.338,6.65-7.311,10.3
	c-4.509,8.337-8.722,16.844-12.786,25.409c-1.459,3.075-3.24,4.2-6.599,3.545c-5.7-1.111-11.459-1.919-17.184-2.845
	C132.021,468.645,132.169,468.801,132.169,468.801z"/>
<path fill-rule="evenodd" clip-rule="evenodd" d="M336.739,543.621c-4.482-0.964-7.731-2.067-6.955-5.819
	c0.354-1.71,3.095-3.912,4.942-4.108c3.227-0.344,6.031,1.888,5.642,5.37C340.165,540.871,337.748,542.43,336.739,543.621z"/>
</svg>
