<svg xmlns="http://www.w3.org/2000/svg" xml:space="preserve" viewBox="0 0 700.56 1314.2"><path fill="#fff" d="M252.55 808.26c-2.63-1.44-5.44-2.61-7.84-4.36-1.13-.81-1.91-2.67-2.01-4.1-.06-.89 1.44-2.65 2.3-2.69 5.35-.24 7.46-4.33 9.11-8.12 1.1-2.54 1.53-6.89.1-8.6-1.38-1.64-5.57-1.11-8.52-1.15-1.22-.02-2.6.74-3.64 1.51-4.92 3.66-9.68 7.54-14.66 11.12-1.27.9-3.13.98-4.72 1.43.07-1.66-.52-3.86.32-4.9 3.43-4.23 6.94-8.52 11.11-11.96 3.39-2.8 3.55-5.2.73-7.74-3.92-3.54-8.36-6.5-12.38-9.93-1.56-1.34-2.56-3.32-3.82-5.01 2.23-.89 4.62-2.78 6.65-2.45 3.9.64 7.6 2.54 11.8 4.07 0-10.41.1-20.55-.07-30.69-.05-3.24.9-5.26 3.98-6.6 4.73-2.06 9.18-4.75 13.94-6.73 3.74-1.56 5.56-4.1 6.72-7.9 4.85-15.9 9.96-31.75 14.99-47.61.72-2.27 1.52-4.51 2.28-6.77-3.72 1.73-6.9 3.69-9.32 6.35-8.85 9.7-17.99 19.23-26.05 29.58-18.96 24.35-36.16 49.92-47.93 78.67-8.09 19.75-7.69 39.33 3.25 58.11 2.1 3.62 4.87 6.86 7.72 10.8 1.1-6.73 1.8-12.46 3.12-18.03.4-1.63 2.62-2.82 4-4.2.67 1.7 1.83 3.37 1.92 5.1.3 5.65-.18 11.35.32 16.97 1.19 13.53 6.42 24.8 19.28 31.14 7.12 3.51 14.1 3.46 20.72-1.43 19.52-14.45 17.76-42.3-3.4-53.88"/><path fill="#fff" d="M446.14 874.23c.04-3.79-.96-6.42-3.98-8.95-14.68-12.31-19.88-43.3.29-59.3 1.83-1.46 2.93-4.63 3.15-7.1.25-2.85-1.06-5.8-1.32-8.73-.34-3.75-.65-7.56-.35-11.3.41-5.04 1.9-10.03 2.07-15.07.35-10.48.13-20.98.15-31.47v-5.01H245.06v42.89c6.75-.79 13.14-.74 16.74 5.58 5.29 9.3.93 17.13-5.3 24.64 16.35 9.35 24.42 22.99 20.79 41.39-3.47 17.57-12.7 30.69-32.45 32.97v44.58h201.32v-5.64c-.03-13.16-.18-26.32-.02-39.48m7.74-.47v41.55c5.58-6.3 10.3-11.55 14.9-16.9.57-.66.7-1.85.7-2.8.06-7.14.03-14.27.03-21.85zM152.55 325.79l29.1-10.91-17.9-39.12zm265.98-53.07-43.98-56.07 6.37 56.07zM164.38 64.87c1.05-.82 2.03-1.74 3.16-2.43 1.01-.62 2.18-.98 3.28-1.45l-1.57-1.58C120.3 82.72 85.3 120.65 58.45 166.78 35.57 206.1 23.16 248.6 22.44 294.4c1.88-5.41 3.5-10.94 5.69-16.23 10.05-24.27 19.32-48.85 32.86-71.59 6.76-11.37 13.02-22.77 23.58-31.25 2.47-1.98 3.92-5.57 5.17-8.69 3.35-8.3 5.67-17.09 9.58-25.1 15.14-31.04 38.09-55.6 65.07-76.68m309.27 428.97c-1.53.14-3.18-1.07-4.78-1.66.83-1.31 1.45-2.81 2.51-3.89 1.75-1.77 3.88-3.15 5.66-4.9 18.5-18.1 27.44-40.56 29.65-65.98.62-7.2.83-14.45 1.25-21.91l-23.45-2.71 1.63 7.15a108 108 0 0 1 1.91 37.25c-3.15 25.25-24.32 43.66-49.74 42.4a39 39 0 0 1-17.68-5.7c-11.98-7.41-18.76-19.2-22.81-32.4-7.33-23.89-8.69-47.88-2.4-72.43 3.84-15.04 13.58-23.94 26.41-30.49 3.77-1.92 8.22-3.77 12.3-3.63 16.09.53 31.14 5.08 44.64 14.12 7.2 4.81 14.28 9.8 21.5 14.58 1.83 1.21 4.01 1.9 6.96 3.26 0-3.36-.17-5.65.04-7.9.43-4.64-1.25-7.47-5.54-9.88-5.92-3.32-11.4-7.53-16.68-11.84-17.84-14.56-34.75-30.11-49.88-47.54-1.46-1.68-3.5-3.47-5.54-3.9-14.94-3.22-30.05-3.59-45.24-1.92-3.36.37-4.16 1.88-4.37 5.11-.87 13.28-1.63 26.6-3.42 39.77-.97 7.16-3.54 14.19-6.1 21.01-1.65 4.41-3.98 4.6-7.72 1.67a1906 1906 0 0 1-21.11-16.79c-2.78-2.24-5.38-4.7-8.06-7.08 2.92 9.77 8.2 17.88 15.06 24.96 6.99 7.23 6.4 9.34-3.56 12.04-.8.22-1.6.49-2.42.62-26.16 4.1-51.13.92-74.5-12.14-.98-.55-2.04-.96-3.07-1.44l-1.14 1.7c7.79 6.1 15.6 12.18 23.34 18.34 1.08.86 2.6 2.2 2.51 3.19-.1 1.01-1.82 2.03-3.02 2.73-.97.56-2.2.73-3.35.94-15.35 2.7-29.85-.57-43.72-6.9-20.57-9.38-36.46-24.3-49.07-42.84-1.9-2.8-3.66-4.54-7.2-3-9.44 4.07-18.96 7.96-28.35 12.14-5.4 2.4-7.86 6.92-9.32 12.66-6.98 27.43-14.43 54.74-21.49 82.15-3.4 13.15-2.57 25.6 7.72 35.89l.16.02c.26-2.34.2-4.77.87-6.98 3.8-12.38 8.07-24.63 11.69-37.06 12.33-42.38 60.8-57.71 95.06-29.9a18 18 0 0 1 4.54 5.21c14.18 26.64 20.5 55.08 18.47 85.17-.88 12.99-7.9 22.53-19.92 27.73-12.25 5.3-23.9 3.36-34.22-4.91-13.5-10.83-21.35-25.46-25.81-41.8-2.96-10.85-4.59-22.06-6.97-33.9-2.5 3.48-5.34 6.66-7.3 10.3a540 540 0 0 0-12.8 25.42c-1.45 3.07-3.23 4.2-6.6 3.54-5.64-1.1-11.34-1.9-17-2.82l-.02.14-.14-.15c3.5 5.16 6.74 10.51 10.54 15.44 13.65 17.76 22.12 37.35 23.3 60.04.75 14.44 8.05 25.86 19.16 34.87 8.18 6.63 17.68 10.56 27.7 13.4 18.26 5.17 37 6.88 55.85 7.46 32.22.99 64.36.3 95.71-8.48 29.44-8.24 57.67-19.7 85.1-33.12 15.96-7.8 30.6-17.46 42.93-30.53 12.76-13.54 15.47-30.2 16.58-47.15-8.15 3.81-15.95 7.77-24.02 11.1-3.46 1.43-7.43 1.8-11.22 2.15m-133.3 45.23c-.2 1.81-2.61 3.37-3.62 4.56-4.48-.96-7.73-2.07-6.96-5.82.36-1.7 3.1-3.9 4.95-4.1 3.22-.35 6.03 1.88 5.64 5.36m50.61 69.35c-6.97 3.63-13.15 6.88-19.36 10.06-15.27 7.81-30.2 16.8-48.66 12.48-1.37-.32-4.5 1.5-4.78 2.78-2.28 10.2-4.07 20.52-5.96 30.54L407 666c0-13.08.03-26.53-.08-39.97 0-.9-.88-2.32-1.69-2.64-6.97-2.8-12.2-7.3-14.25-14.98m217.74-235.08a27.7 27.7 0 0 0-17.42-8.85c5.83 35.66 8.35 70.57 1.72 105.6l1.49 1.15c4.47-4.09 9.4-7.77 13.34-12.33 14.63-17 17-37 13.4-58.3-1.72-10.2-5.25-19.62-12.53-27.27M276.13 708.14c-6.51 3.3-12.93 6.78-19.38 10.2l.25 1.09c1.44.06 2.9.18 4.34.18 60.3.01 120.59-.14 180.88.18 9.76.05 14.08-6.97 21.4-11.94-1.77-.22-2.26-.33-2.76-.33q-90.18-.09-180.37-.1c-1.47 0-3.1.08-4.36.72"/><path fill="#fff" d="M452.1 685.93c.95 4.7 1.4 10.8 4.47 13.36 2.83 2.35 8.9.76 13.54.9q.26.03.5 0c4.87-.5 6.47 1.94 6.42 6.52-.17 13.83-.13 27.66-.18 41.5v6.9c5.54-1.63 10.06-3.28 14.73-4.14 1.34-.24 3.94 1.53 4.4 2.9.36 1.1-1.3 3.46-2.65 4.44-4.14 3.01-8.68 5.47-12.86 8.43-3.9 2.75-4.69 7.14-3.51 11.2.8 2.78 3.87 4.8 5.3 7.5 1.2 2.25 1.5 4.98 2.19 7.5-2.24-.99-4.63-1.72-6.68-3-5.77-3.6-11.23-7.73-17.15-11.04-3.14-1.75-7.03-1.97-8.77 2.5-2.03 5.25 3.61 14.44 9.17 15.6 1.39.3 3.57 1.52 3.6 2.41a6 6 0 0 1-2.1 4.43c-2.83 2.01-6.07 3.45-9.14 5.11-22.64 12.2-17.8 39.88-4.06 51.64 6.1 5.22 12.95 6.5 20.52 3.7 11.47-4.25 17.57-13.17 19.66-24.56 1.52-8.29 1.35-16.87 2.13-25.3.13-1.42 1.24-2.74 1.9-4.1 1.14.97 3.12 1.83 3.3 2.96a345 345 0 0 1 2.37 20.15c.15 1.63-.29 3.32-.46 4.99l1.55.7c3.92-4.65 8.27-9 11.68-14 13.83-20.28 14.05-42.1 6.44-64.56-8.55-25.2-21-48.64-34.6-71.34-8.16-13.64-18.19-26.2-27.76-38.96-2.8-3.71-6.91-6.43-10.42-9.6l-1.15.7c.2 2.25.22 4.53.62 6.74 2.26 12.62 4.48 25.25 7 37.82"/><path fill="#fff" d="m453.55 768.77 15.5 4.04v-59.64c-4.5 3.36-8.67 6.09-12.32 9.38-1.6 1.44-2.97 4.02-3.03 6.12-.3 10.98-.15 21.98-.15 32.98z"/><path d="M657.4 300.23c-2.4-5.98-4.54-12.22-5.68-18.54-7.99-44.3-22.03-86.38-44.93-125.35-29.44-50.09-68.24-90.9-120.1-117.77C411.47-.41 331.69-9.6 249.72 9.9 132.05 37.89 54.74 111.03 18.41 226.36 3.83 272.63.4 320.79.04 369.12c-.08 11.23-.01 22.46-.01 33.7l1.63.09 8.55-29.26c1.06 1.34 1.36 1.55 1.41 1.81 4.87 23 13.36 44.61 24.5 65.26.88 1.64 1.17 3.78 1.2 5.7.22 18.97-.82 38.03.7 56.9C41.34 544.39 56.08 581 85 611.05c19.37 20.1 41.7 35.84 69.25 42.69 5.9 1.46 12.18 1.43 18.28 2.08-4.88-5.21-10.02-8.86-14.54-13.16-4.7-4.47-7.73-10.05-8.2-17.1 32.23 15.75 52.97 20.13 63.19 13.27-2.6-2.76-5.64-5.2-7.64-8.31-1.97-3.08-2.9-6.82-4.28-10.27l1.3-.76c23.19 15.2 48.4 18.71 75.37 13.36-5 3.85-10.01 7.36-14.63 11.34-14.77 12.7-26.6 28-37.87 43.73-15.65 21.82-30.76 44.06-40.75 69.16-12.16 30.54-9.06 59.12 13.2 84.38 3 3.4 2.74 5.69.74 9.44-14.54 27.34-29.37 54.55-42.98 82.36-11.64 23.8-21.37 48.43-26.1 74.77-1.28 7.17.39 12.53 5.65 17.43 17.66 16.45 38.77 26.85 61.1 35.04 2.34.86 5.94-.04 8.31-1.32 5.48-2.94 10.46-2 13.41 3.52.93 1.74 1.43 3.72 2.01 5.61 3.54 11.45 6.68 23.04 10.66 34.32 3.65 10.36 5.65 20.76 5.47 31.77-.62 37.52 7.18 73.1 25.06 106.29.82 1.52 1.41 3.16 2.36 5.3-13.24.86-25.67 1.54-38.09 2.48-35.07 2.66-70.07 6.06-104.39 14.11-9.33 2.2-18.41 5.7-27.28 9.4-2.78 1.16-6.35 5.05-6.17 7.43.2 2.8 3.92 5.52 6.49 7.87 1.4 1.28 3.5 1.93 5.4 2.51 7.47 2.3 14.87 4.94 22.49 6.6 41.82 9.05 84.34 12.57 126.94 14.84 93.5 5 186.94 4.13 280.09-6.07 22.95-2.52 45.66-7.45 68.34-11.99 6.34-1.27 12.5-4.58 18.14-7.95 5.24-3.13 5.04-7.5.14-11.26-2.47-1.9-5.28-3.72-8.23-4.59-11.95-3.53-23.89-7.36-36.08-9.83-33.86-6.88-68.28-9.5-102.68-12-1.88-.14-3.75-.36-6.1-.6 1.06-2.58 1.77-4.43 2.57-6.22 14.31-31.9 23.73-65.03 20.42-100.26-2.52-26.71 2.34-52.45 6.77-78.36 1.47-8.64 12.52-14.18 20.96-11.73 3.4.99 7.5.9 10.98.05 4.3-1.05 8.41-3.16 12.4-5.22 16.8-8.67 32.87-18.37 45.3-33.06 3.27-3.85 4.71-8.06 3.23-12.95-3.13-10.35-5.68-20.94-9.69-30.93a678 678 0 0 0-61.31-118.24c-1.41-2.17-3.1-3.82-.35-6.8 22.75-24.6 28.02-53.28 17.36-84.46C518.45 722 500.15 688 477.67 656.28c-14.59-20.58-33.55-34.9-58.4-40.98-4.12-1-8.3-2.86-11.68-5.36-2.05-1.52-3.68-5.15-3.43-7.62.15-1.45 4.26-3.27 6.74-3.55 4.94-.57 9.98-.27 14.98-.18 24.18.45 45.42-7.5 64.24-22.4q2.5-1.93 5.03-3.84l1.08 1.05c-2.7 12.18-9.93 20.64-22.22 25.47 3.1 1.01 6.2 2.1 9.08 1.67 8.36-1.23 16.85-2.36 24.9-4.82 20-6.1 36.2-18.83 52.33-31.53 2.94-2.32 5.92-4.58 9.86-7.63-.26 4.2-.28 7.14-.68 10.03-.4 2.87-1.18 5.68-2.07 9.81 59.75-21.34 88.7-67.94 108.63-122.81 2.1 26.41-7.1 50.64-13.86 75.49 4.67-5.3 9.1-10.68 12.88-16.48 26.5-40.55 33.18-83.83 16-129.57-10.46-27.88-22.54-55.16-33.68-82.8m-238.87-27.51h-37.61l-6.37-56.07zM89.73 166.65c-1.25 3.12-2.7 6.7-5.17 8.7-10.56 8.47-16.82 19.87-23.58 31.24-13.54 22.74-22.8 47.32-32.86 71.6-2.2 5.28-3.8 10.8-5.69 16.22.72-45.8 13.13-88.3 36.03-127.63C85.3 120.65 120.3 82.72 169.25 59.4l1.57 1.58c-1.1.47-2.27.83-3.28 1.45-1.13.69-2.11 1.61-3.16 2.43-26.98 21.07-49.93 45.64-65.07 76.68-3.9 8.01-6.23 16.79-9.58 25.1m91.92 148.23-29.1 10.9 11.2-50.02zm91.62 300.15c17.93 6.35 34.95 3.2 51.97-.45l.35 1.2c-2.03.85-4 1.87-6.1 2.51-8.1 2.49-16.31 4.6-24.32 7.33-8.43 2.87-17.86-1.16-21.9-10.6m-38.04 248.54c-12.86-6.35-18.09-17.61-19.28-31.14-.5-5.62-.03-11.32-.32-16.97-.09-1.73-1.25-3.4-1.92-5.1-1.39 1.39-3.6 2.58-4 4.2-1.33 5.57-2.01 11.3-3.12 18.04-2.85-3.95-5.62-7.19-7.72-10.8-10.94-18.79-11.34-38.37-3.25-58.12 11.77-28.75 28.97-54.32 47.93-78.67 8.06-10.35 17.2-19.88 26.05-29.58 2.42-2.66 5.6-4.62 9.32-6.35-.76 2.26-1.56 4.5-2.28 6.77-5.03 15.86-10.14 31.7-15 47.62-1.15 3.78-2.97 6.33-6.71 7.9-4.76 1.97-9.21 4.66-13.94 6.72-3.08 1.35-4.03 3.36-3.98 6.6.16 10.14.06 20.28.06 30.69-4.18-1.53-7.88-3.43-11.79-4.07-2.03-.33-4.42 1.56-6.65 2.45 1.26 1.69 2.26 3.67 3.82 5 4.02 3.45 8.46 6.4 12.38 9.94 2.82 2.54 2.66 4.94-.73 7.74-4.17 3.44-7.68 7.73-11.1 11.96-.85 1.04-.26 3.24-.33 4.9 1.59-.45 3.45-.53 4.72-1.43 4.98-3.58 9.74-7.46 14.66-11.12 1.04-.77 2.42-1.53 3.64-1.51 2.95.04 7.14-.5 8.51 1.15 1.44 1.71 1.02 6.06-.09 8.6-1.65 3.79-3.76 7.88-9.1 8.12-.87.04-2.37 1.8-2.31 2.68.1 1.44.88 3.3 2 4.11 2.41 1.75 5.22 2.92 7.85 4.36 21.16 11.58 22.92 39.43 3.4 53.88-6.61 4.9-13.6 4.94-20.72 1.43m158.55 373.8c-.46 5.31-2.9 6.77-8.06 6.64-15.3-.4-30.63-.43-45.94-.22-4.28.06-6.57-1.2-7.2-5.43-2.57-17.25-6.01-34.42-7.54-51.76-2.04-23.27-.47-46.54 3-69.7 1.53-10.17 1.97-20.53 2.58-30.83.29-4.85 1.78-6.9 7.17-6.9 11.3-.03 22.62-.79 33.9-1.6 3.45-.25 5.08.6 6.08 3.96 5.43 18.34 12.2 36.36 16.25 54.98 3.26 15 3.31 30.67 4.85 46.65-1.7 17.8-3.52 35.99-5.1 54.2m52.38-318.02H244.84v-44.58c19.76-2.28 28.98-15.4 32.45-32.97 3.63-18.4-4.44-32.03-20.8-41.4 6.24-7.5 10.6-15.32 5.3-24.63-3.59-6.32-9.98-6.37-16.73-5.58v-42.9h201.1v5.02c-.03 10.49.19 21-.16 31.47-.17 5.04-1.66 10.03-2.07 15.08-.3 3.73.01 7.54.35 11.29.26 2.93 1.57 5.88 1.32 8.72-.22 2.48-1.32 5.65-3.15 7.1-20.17 16-14.97 47-.29 59.3 3.02 2.54 4.02 5.17 3.98 8.96-.16 13.16-.01 26.32.02 39.48zm23.32-23.74c0 .94-.13 2.14-.7 2.8-4.6 5.35-9.31 10.6-14.9 16.9v-41.56h15.63c0 7.59.03 14.72-.03 21.86m-23.85-254.95c3.5 3.18 7.63 5.9 10.42 9.62 9.57 12.75 19.6 25.31 27.77 38.95 13.6 22.7 26.04 46.13 34.59 71.34 7.6 22.45 7.4 44.29-6.44 64.56-3.41 5-7.76 9.35-11.68 14l-1.55-.7c.17-1.67.61-3.36.46-4.99a346 346 0 0 0-2.37-20.14c-.18-1.14-2.16-2-3.3-2.98-.66 1.37-1.77 2.7-1.9 4.1-.77 8.44-.61 17.03-2.13 25.31-2.1 11.4-8.19 20.31-19.66 24.56-7.56 2.8-14.41 1.52-20.52-3.7-13.75-11.76-18.58-39.43 4.06-51.64 3.07-1.65 6.3-3.1 9.14-5.1a6 6 0 0 0 2.1-4.44c-.03-.88-2.21-2.12-3.6-2.4-5.56-1.17-11.2-10.36-9.17-15.6 1.73-4.48 5.63-4.26 8.77-2.5 5.92 3.3 11.38 7.43 17.15 11.03 2.05 1.28 4.44 2.02 6.68 3-.7-2.52-.98-5.25-2.18-7.5-1.44-2.7-4.51-4.72-5.31-7.5-1.18-4.05-.38-8.45 3.5-11.2 4.2-2.95 8.73-5.42 12.87-8.42 1.36-.99 3.01-3.35 2.65-4.45-.46-1.37-3.06-3.14-4.4-2.9-4.67.86-9.19 2.51-14.73 4.15v-6.91c.05-13.83.01-27.66.18-41.5.05-4.58-1.55-7.02-6.42-6.51h-.5c-4.64-.15-10.71 1.44-13.54-.9-3.08-2.56-3.52-8.67-4.46-13.37-2.53-12.56-4.75-25.2-7.01-37.82-.4-2.2-.43-4.48-.62-6.73zm8.07 88c.06-2.1 1.44-4.67 3.03-6.11 3.65-3.3 7.81-6.02 12.31-9.38v59.64l-15.5-4.04v-7.12c.01-11-.14-22 .16-32.98m7.16-21.14c.5 0 .99.1 2.77.32-7.33 4.98-11.65 12-21.41 11.95-60.3-.32-120.59-.17-180.88-.18-1.45 0-2.9-.12-4.34-.18l-.25-1.08c6.45-3.43 12.87-6.92 19.38-10.21 1.26-.64 2.9-.73 4.35-.72q90.2.01 180.38.1m-55.63-84.13c.81.33 1.68 1.73 1.7 2.64.1 13.45.07 26.89.07 39.97l-94.78-1.73c1.89-10.02 3.68-20.33 5.96-30.53.28-1.28 3.4-3.1 4.78-2.79 18.46 4.33 33.4-4.67 48.66-12.48 6.21-3.18 12.39-6.43 19.36-10.06 2.05 7.68 7.28 12.18 14.25 14.98m87.09-95.66c-12.33 13.07-26.97 22.73-42.93 30.53-27.43 13.42-55.66 24.88-85.1 33.12-31.35 8.77-63.49 9.47-95.71 8.48-18.85-.58-37.6-2.29-55.85-7.46-10.02-2.84-19.53-6.77-27.7-13.4-11.12-9.01-18.4-20.43-19.16-34.87-1.18-22.7-9.65-42.28-23.3-60.04-3.8-4.93-7.04-10.28-10.54-15.44l-.02-.01c-10.29-10.28-11.1-22.74-7.71-35.9 7.06-27.4 14.5-54.7 21.49-82.14 1.46-5.73 3.92-10.26 9.32-12.66 9.4-4.18 18.9-8.07 28.34-12.15 3.55-1.53 5.31.21 7.21 3 12.6 18.56 28.5 33.48 49.07 42.85 13.86 6.33 28.36 9.6 43.72 6.9 1.14-.2 2.38-.38 3.35-.94 1.2-.7 2.92-1.72 3.02-2.73.1-.98-1.43-2.33-2.5-3.19-7.75-6.16-15.57-12.24-23.36-18.35l1.15-1.69c1.02.48 2.09.9 3.07 1.44 23.36 13.06 48.34 16.24 74.5 12.14.81-.13 1.61-.4 2.42-.62 9.95-2.7 10.55-4.81 3.56-12.04-6.86-7.08-12.15-15.19-15.07-24.95 2.69 2.36 5.29 4.83 8.07 7.08q10.5 8.46 21.11 16.79c3.74 2.93 6.07 2.73 7.72-1.68 2.55-6.82 5.13-13.85 6.1-21 1.79-13.18 2.54-26.5 3.41-39.78.22-3.23 1.01-4.74 4.38-5.1 15.2-1.68 30.3-1.31 45.24 1.9 2.05.44 4.08 2.24 5.54 3.91 15.13 17.43 32.04 32.99 49.88 47.54 5.28 4.31 10.76 8.52 16.67 11.84 4.3 2.41 5.98 5.24 5.54 9.88-.2 2.25-.03 4.54-.03 7.9-2.95-1.36-5.13-2.05-6.96-3.26-7.23-4.77-14.3-9.77-21.5-14.58-13.5-9.04-28.55-13.59-44.65-14.12-4.07-.14-8.52 1.71-12.29 3.64-12.83 6.54-22.57 15.44-26.41 30.48-6.29 24.55-4.94 48.54 2.4 72.43 4.05 13.2 10.82 25 22.8 32.4a38.6 38.6 0 0 0 17.69 5.7c25.41 1.26 46.59-17.15 49.74-42.4 1.56-12.5.86-24.94-1.9-37.25l-1.64-7.15 23.45 2.7c-.42 7.47-.63 14.71-1.26 21.92-2.2 25.42-11.15 47.87-29.64 65.99-1.78 1.74-3.91 3.13-5.66 4.9-1.06 1.07-1.69 2.57-2.5 3.88 1.59.6 3.24 1.8 4.77 1.66 3.78-.35 7.76-.72 11.22-2.15 8.06-3.33 15.87-7.28 24.01-11.1-1.1 16.94-3.81 33.61-16.57 47.15m115.53-68.83c-3.93 4.56-8.87 8.24-13.34 12.33l-1.5-1.14c6.64-35.04 4.12-69.95-1.71-105.6 7.51.93 12.9 4.09 17.42 8.84 7.28 7.65 10.8 17.07 12.53 27.28 3.6 21.28 1.23 41.3-13.4 58.29"/><path d="M155.8 467.94a540 540 0 0 1 12.78-25.41c1.97-3.65 4.81-6.83 7.31-10.3 2.38 11.83 4 23.05 6.97 33.9 4.45 16.34 12.3 30.97 25.8 41.79 10.33 8.27 21.98 10.22 34.23 4.91 12.02-5.2 19.04-14.74 19.92-27.73 2.04-30.08-4.3-58.53-18.47-85.16a18 18 0 0 0-4.54-5.22c-34.26-27.81-82.73-12.48-95.07 29.9-3.61 12.44-7.87 24.68-11.68 37.06-.68 2.21-.61 4.65-.87 6.98 5.67.92 11.37 1.72 17.02 2.82 3.36.66 5.14-.47 6.6-3.54m-23.62.73-.16-.03v.02c.05.03.15.14.15.14zm202.55 65.03c-1.85.19-4.6 2.4-4.95 4.1-.77 3.75 2.48 4.86 6.96 5.82 1-1.19 3.43-2.75 3.63-4.56.39-3.48-2.42-5.71-5.64-5.37"/></svg>