<?xml version="1.0" encoding="utf-8"?>
<!-- Generator: Adobe Illustrator 16.0.3, SVG Export Plug-In . SVG Version: 6.00 Build 0)  -->
<!DOCTYPE svg PUBLIC "-//W3C//DTD SVG 1.1//EN" "http://www.w3.org/Graphics/SVG/1.1/DTD/svg11.dtd">
<svg version="1.1" id="レイヤー_1" xmlns="http://www.w3.org/2000/svg" xmlns:xlink="http://www.w3.org/1999/xlink" x="0px"
	 y="0px" width="455.653px" height="691.414px" viewBox="0 0 455.653 691.414" enable-background="new 0 0 455.653 691.414"
	 xml:space="preserve">
<path d="M449.764,289.097c-4.111-5.896-8.725-11.454-12.624-17.479c-7.38-11.402-11.443-24.283-15.41-37.128
	c-0.811-2.626-0.188-5.701-0.2-8.569c-0.079-21.106,0.677-42.256-0.457-63.306c-1.159-21.509-8.144-41.82-17.338-61.222
	c-24.308-51.296-65.177-81.947-119.92-94.446c-14.17-3.235-28.846-4.258-43.286-6.308c-1.22-0.173-2.429-0.425-3.642-0.64
	c-8.249,0-16.498,0-24.747,0c-9.405,1.719-18.758,3.851-28.229,5.054c-11.524,1.463-22.106,5.654-32.764,9.799
	c-2.546,0.99-5.12,1.972-7.762,2.638c-9.975,2.513-18.056,8.565-26.802,13.538C105,37.614,94.383,45.273,84.773,54.374
	c-3.145,2.978-5.44,6.841-8.52,9.9c-12.335,12.251-19.455,27.771-25.592,43.428c-5.4,13.776-9.455,28.229-11.035,43.191
	c-0.899,8.512-2.639,16.932-3.868,25.412c-1.585,10.932-3.04,21.881-4.547,32.824c-0.153,1.113-0.474,2.244-0.394,3.342
	c1.071,14.617-4.896,27.348-10.916,39.982c-4.073,8.548-8.615,16.882-13.196,25.175c-1.9,3.44-4.451,6.521-6.706,9.766
	c0.155,0.333,0.311,0.667,0.466,1c2.378-0.635,4.923-0.922,7.104-1.968c7.964-3.817,15.854-7.796,23.664-11.919
	c2.216-1.17,3.647-0.977,4.278,1.343c0.645,2.371,0.939,4.857,1.184,7.313c0.875,8.76,1.067,17.635,2.616,26.27
	c2.843,15.85,8.957,30.588,17.251,44.396c0.895,1.49,1.924,2.927,3.067,4.234c4.827,5.518,9.267,11.482,14.685,16.354
	c10.863,9.767,23.118,16.334,39.117,12.789c-6.309-4.701-14.624-7.055-14.95-17.575c9.679,13.174,22.861,18.041,37.719,18.915
	c3.304,0.195,6.717-1.479,9.948-2.781c-9.381-3.814-18.857-6.683-23.705-17.44c4.86,2.177,8.81,4.638,13.107,5.743
	c13.946,3.589,28.035,6.226,42.042,0.151c1.418-0.615,2.526-1.947,3.377-2.627c8.097-0.369,16.256-0.742,25.568-1.167
	c-2.73,1.521-4.634,3.006-6.794,3.712c-7.396,2.414-15.122,3.978-22.271,6.951c-8.219,3.419-15.761,7.909-21.564,15.348
	c-8.37,10.729-13.439,22.948-18.508,35.296c-2.627,6.398-5.668,12.627-8.393,18.987c-5.43,12.674-12.149,24.934-13.653,38.946
	c-0.863,8.032-1.549,16.739,4.778,22.684c4.953,4.653,3.055,7.847,0.487,11.938c-2.614,4.167-5.369,8.264-7.704,12.585
	c-3.627,6.712-6.914,13.607-10.417,20.389c-2.408,4.662-5.133,9.169-7.351,13.916c-2.025,4.334-3.543,8.905-5.313,13.36
	c-1.94,4.884-4.215,9.661-5.786,14.66c-1.557,4.958-4.384,10.316-0.783,15.26c2.24,3.077,5.482,5.773,8.836,7.621
	c8.328,4.591,16.923,8.709,25.515,12.8c6.405,3.051,13.252,4.661,20.336,5.179c7.784,0.569,8.215,1.866,9.74,9.69
	c2.725,13.988,6.416,27.789,9.703,41.668c17.498,0,34.995,0,52.493,0c0.404-10.251,0.812-20.502,1.209-30.752
	c0.105-2.691,0.006-5.407,0.366-8.062c0.117-0.863,1.385-2.23,2.147-2.245c8.583-0.159,17.171-0.101,26.584-0.101
	c0.399,13.814,0.794,27.486,1.189,41.159c17.748,0,35.495,0,53.243,0c1.811-7.853,3.707-15.686,5.405-23.562
	c1.572-7.296,3.012-14.624,4.349-21.968c0.534-2.938,1.452-4.397,4.937-4.996c7.665-1.317,15.229-3.387,22.706-5.581
	c6.457-1.895,13.029-3.804,19.016-6.78c5.82-2.895,11.171-6.886,16.331-10.905c3.796-2.957,3.437-7.468,2.547-11.787
	c-2.541-12.329-7.063-23.984-12.401-35.311c-5.922-12.566-12.013-25.06-18.362-37.414c-2.854-5.555-6.519-10.694-9.938-16.22
	c1.548-1.755,3.374-3.424,4.717-5.418c6.597-9.794,5.744-20.349,2.006-30.665c-3.792-10.464-8.565-20.569-12.815-30.87
	c-3.758-9.106-7.18-18.356-11.124-27.378c-4.701-10.754-9.568-21.439-17.883-30.113c-5.027-5.245-11.46-8.134-17.905-10.71
	c-8.341-3.334-17.065-5.703-25.578-8.623c-1.329-0.455-2.413-1.627-3.376-3.017c8.229,1.676,16.248,2.706,23.268,0.431
	c1.636,1.795,2.703,4.085,4.021,4.239c13.211,1.551,26.547,3.034,39.605-0.51c5.048-1.369,9.624-4.489,14.397-6.845
	c0.846-0.416,1.612-0.994,2.597-1.611c-0.967,8.333-12.094,17.421-24.527,20.03c5.336,3.205,10.887,3.401,16.179,2.409
	c5.277-0.987,10.547-2.781,15.386-5.118c4.937-2.385,9.347-5.859,14.29-9.053c-2.101,6.692-7.579,9.571-12.905,13.661
	c3.869,0.056,7.95,0.943,11.569,0.02c14.863-3.791,27.031-11.396,36.086-24.424c10.097-14.526,16.733-30.461,22.274-47.003
	c3.153-9.413,5.929-18.953,8.983-28.792c11.66,4.09,23.11,10.176,37.171,11.505C453.375,295.155,451.776,291.981,449.764,289.097z"
	/>
<path d="M296.811,138.382c2.784,8.421,5.248,15.871,7.718,23.337c-3.887,0-7.926,0-12.078,0
	C293.823,154.375,295.208,146.964,296.811,138.382z"/>
<path d="M149.154,139.377c1.401,7.975,2.671,15.205,3.918,22.303c-4.066,0-8.094,0-12.349,0
	C143.543,154.222,146.223,147.131,149.154,139.377z"/>
<path d="M61.576,130.366c-3.253,9.521-4.95,19.562-7.703,29.266c-2.543,8.967-5.55,17.802-8.353,26.696
	c-0.422-0.079-0.845-0.158-1.267-0.237c0.182-2.228,0.337-4.459,0.552-6.684c0.215-2.238,0.454-4.474,0.742-6.703
	c3.869-29.962,11.254-58.853,26.183-85.418c7.607-13.537,17.105-25.502,29.593-34.913c1.394-1.05,2.868-1.998,4.341-2.935
	c0.376-0.24,0.893-0.259,1.345-0.379c0.178,0.223,0.356,0.447,0.533,0.67c-2.765,3.326-5.546,6.636-8.291,9.978
	C81.977,80.741,70.305,104.822,61.576,130.366z"/>
<path d="M173.512,452.21c13.984,0.048,27.968,0.277,41.951,0.484c0.14,0.002,0.274,0.361,1.082,1.497
	c-15.89,0.414-31.135,0.812-46.38,1.208c-0.123-0.455-0.246-0.91-0.369-1.366C171.035,453.396,172.275,452.205,173.512,452.21z"/>
<path d="M199.82,461.066c4.83,0.034,9.661,0.011,14.778,0.011c-0.38,2.075-0.443,3.74-1.043,5.183
	c-0.351,0.842-1.555,1.875-2.387,1.886c-7.927,0.1-15.855-0.021-23.784-0.04c-9.565-0.021-19.129-0.005-29.671-0.005
	c3.257-3.753,5.474-7.282,8.603-9.552c1.928-1.398,5.247-1.114,7.949-1.164c7.263-0.137,14.53-0.047,22.084-0.047
	C195.717,460.771,197.705,461.051,199.82,461.066z"/>
<path d="M148.143,468.922c-6.709,10.252-3.668,21.565-4.087,32.373c-0.064,1.651,1.825,3.334,2.654,5.076
	c0.969,2.037,2.318,4.104,2.518,6.25c0.363,3.884-2.254,5.936-6.158,5.466c-6.113-0.734-10.863-3.726-13.943-9.011
	c-4.068-6.98-5.583-14.662-3.081-22.343c3.224-9.893,7.348-19.49,11.078-29.217c1.99-5.188,3.854-10.428,5.976-15.561
	c3.093-7.479,6.288-14.918,9.59-22.308c3.128-7.001,6.165-14.096,11.738-19.634c1.27-1.263,2.768-2.296,4.16-3.435
	c0.314,0.157,0.629,0.314,0.943,0.472c-0.602,5.104-1.146,10.214-1.819,15.307c-1.445,10.943-3.186,21.854-4.327,32.828
	c-0.452,4.354-2.169,7.795-4.723,11.045c-1.459,1.857-3.025,3.631-4.532,5.429c-8.159-3.982-22.929,5.511-23.276,17.501
	C136.19,474.404,141.644,470.787,148.143,468.922z"/>
<path d="M155.432,500.617c-1.056-0.059-2.835-1.78-2.889-2.81c-0.379-7.284-0.665-14.602-0.301-21.874
	c0.073-1.463,3.022-3.934,4.697-3.979c12.912-0.347,25.837-0.212,38.758-0.224c5.344-0.004,10.688,0,15.58,0
	c0,9.705,0,19.103,0,28.743c-11.346,0-21.75-0.009-32.154,0.005c-3.226,0.004-6.452,0.07-9.677,0.107
	C164.771,500.642,160.088,500.875,155.432,500.617z"/>
<path d="M288.535,568.155c-6.972,0.113-13.944,0.14-20.916,0.116c-7.889-0.025-15.777-0.202-23.665-0.205
	c-12.488-0.005-24.975,0.103-37.462,0.123c-14.85,0.026-29.7,0.004-44.55,0.016c-2.939,0.003-4.292-1.337-4.243-4.358
	c0.161-9.78,0.234-19.563,0.295-29.344c0.042-6.724,0.008-13.448,0.008-20.765c6.72,0,13.162,0.012,19.604-0.002
	c13.174-0.028,26.348-0.125,39.522-0.095c24.577,0.056,49.155,0.202,73.732,0.249c2.274,0.004,3.011,0.798,2.998,3.08
	c-0.073,13.177-0.009,26.354-0.002,39.532c0.002,2.332-0.286,4.69-0.028,6.99C294.307,567.766,291.499,568.107,288.535,568.155z"/>
<path d="M297.665,496.989c0.016,2.864-0.573,3.744-3.806,3.611c-8.787-0.36-17.6-0.086-26.402-0.077
	c-9.129,0.009-18.259,0.002-28.252,0.002c0-9.398,0-18.728,0-29.022c4.81,0,10.119-0.01,15.428,0.002
	c9.264,0.02,18.527,0.071,27.792,0.067c3.467-0.003,6.935-0.227,10.398-0.159c2.523,0.048,5.23,3.102,5.18,5.46
	C297.856,483.578,297.627,490.284,297.665,496.989z"/>
<path d="M295.758,410.873c6.576,15.117,12.699,30.43,19.068,45.638c2.115,5.051,4.242,10.113,6.698,15.003
	c3.519,7.008,5.736,14.314,6.038,22.152c0.252,6.545-1.504,12.503-5.506,17.763c-3.451,4.535-8.359,6.258-13.686,6.419
	c-2.01,0.061-5.408-1.27-5.818-2.66c-0.71-2.412-0.566-6.346,0.974-7.882c3.1-3.092,3.38-6.428,3.389-10.193
	c0.009-3.37,0.182-6.743,0.1-10.109c-0.15-6.229-0.127-12.536-5.433-17.393c0.476-0.47,0.95-0.94,1.425-1.411
	c2.945,1.813,5.865,3.67,8.845,5.426c3.048,1.795,6.155,3.491,9.542,5.404c-0.929-10.832-14.475-20.042-23.386-16.8
	c-7.9-5.91-8.114-14.774-9.246-23.266c-1.794-13.458-3.535-26.924-5.291-40.388c-0.095-0.725-0.107-1.46-0.192-2.665
	C289.662,399.438,293.182,404.952,295.758,410.873z"/>
<path d="M284.785,459.138c2.611,2.586,4.939,5.455,8.209,9.149c-18.872,0-36.567,0-54.969,0c-0.42-1.737-1.014-4.199-1.737-7.196
	c5.25,0,10.063-0.01,14.878,0.004c2.486,0.007,5.016,0.117,4.591-3.618c8.69,0,16.949-0.069,25.204,0.072
	C282.263,457.57,283.865,458.227,284.785,459.138z"/>
<path d="M280.747,454.217c-15.06,0-30.141,0-45.223,0c0.037-0.441,0.074-0.884,0.111-1.326
	C244.011,450.711,278.307,451.745,280.747,454.217z"/>
<path d="M260.673,391.771c-0.568,8.665-1.097,16.715-1.661,25.326c-1.623,0.207-3.546,0.694-5.461,0.66
	c-16.333-0.298-32.665-0.694-48.998-1.049c-0.871-0.018-1.746,0.048-2.615,0.118c-8.413,0.686-6.639,1.418-7.943-6.598
	c-0.912-5.605-1.018-11.342-1.528-17.559c6.975,1.388,14.02,2.557,20.943,4.229c8.272,1.999,16.339,2.311,24.648-0.076
	C245.309,394.741,252.801,393.494,260.673,391.771z"/>
<path d="M352.01,267.559c-0.537,11.361-1.001,22.753-2.267,34.045c-1.263,11.269-5.69,21.131-15.259,28.19
	c-9.796,7.228-21.005,11.144-32.556,14.033c-12.015,3.004-24.153,5.673-36.372,7.667c-9.96,1.623-20.1,2.465-30.192,2.888
	c-18.837,0.787-37.577-0.783-56.069-4.443c-11.66-2.309-23.354-4.727-34.731-8.113c-11.925-3.549-23.554-8.128-32.094-18.048
	c-4.013-4.662-6.428-10.005-7.625-15.908c-3.623-17.854-4.265-35.983-4.732-54.121c-0.044-1.734-0.109-3.468-0.123-5.202
	c-0.002-0.197,0.266-0.395,0.614-0.877c1.328,1.407,2.515,2.905,3.938,4.127c2.923,2.509,4.695,1.832,6.042-1.734
	c2.009-5.317,4.201-10.57,6.481-15.778c0.673-1.537,1.906-2.828,3.28-3.995c-1.015,4.728-2.397,9.409-2.978,14.189
	c-2.043,16.824-0.67,33.066,9.372,47.535c4.616,6.65,16.667,11.397,24.545,9.435c4.071-1.015,8.231-2.183,11.919-4.109
	c6.682-3.489,10.576-9.776,12.649-16.636c2.034-6.729,3.872-13.961,3.547-20.866c-0.66-14.047-0.976-28.473-9.116-40.937
	c-4.644-7.112-11.028-11.309-19.585-13.255c-7.414-1.686-14.388-1.3-21.467,0.464c-9.297,2.317-16.57,7.843-22.503,15.187
	c-2.259,2.796-4.208,5.842-6.673,9.299c-0.252-3.557-0.609-6.644-0.657-9.735c-0.061-3.947-0.005-7.907,0.297-11.839
	c0.084-1.097,0.982-2.714,1.904-3.073c9.648-3.763,17.309-10.042,23.298-18.333c3.881-5.372,7.435-10.991,10.925-16.629
	c1.067-1.725,1.808-2.142,4.011-1.933c5.136,0.488,10.349,0.155,15.56,0.155c6.102,16.167,12.492,31.826,30.946,36.801
	c0.437-0.363,0.874-0.727,1.311-1.09c-1.389-2.8-2.778-5.6-4.167-8.4c0.251-0.163,0.502-0.327,0.752-0.49
	c1.579,1.783,3.151,3.571,4.736,5.348c8.333,9.343,18.81,14.25,31.244,15.167c3.238,0.239,6.458,0.699,9.694,0.979
	c3.244,0.28,5.879-0.799,7.67-3.66c0.458-0.731,0.985-1.483,1.653-2.008c5.113-4.024,10.27-7.994,15.988-11.886
	c-3.461,5.574-6.921,11.147-10.368,16.701c6.934,0.5,13.135-1.739,19.164-5.633c13.268-8.568,19.453-21.67,24.111-35.901
	c0.389-1.187,0.878-2.352,1.149-3.565c0.53-2.362,1.862-2.557,4.116-2.384c4.14,0.315,8.356,0.277,12.482-0.16
	c2.024-0.215,2.863,0.215,3.776,1.887c5.849,10.701,12.858,20.636,22.82,27.79c5.246,3.767,11.622,5.95,17.429,8.96
	c0.899,0.465,2.097,1.521,2.117,2.33c0.171,6.672,0.097,13.351-0.234,20.154c-3.568-6.912-8.578-12.438-14.731-16.899
	c-11.701-8.481-24.773-11.021-38.605-7.304c-10.003,2.688-16.618,9.961-19.946,19.593c-5.893,17.052-7.384,34.567-3.214,52.259
	c2.08,8.825,6.278,16.427,14.821,20.816c8.742,4.492,22.729,4.267,30.903-2.435c7.224-5.922,11.12-13.856,13.321-22.753
	c3.438-13.895,2.266-27.59-1.762-41.164c-0.177-0.596-0.346-1.197-0.464-1.806c-0.042-0.22,0.077-0.472,0.277-1.516
	c2.158,3.825,4.313,6.985,5.786,10.436c1.444,3.385,2.298,7.039,3.225,10.623c0.897,3.473,2.704,4.304,5.654,2.146
	c1.582-1.157,2.895-2.685,5.013-4.695C352.066,254.606,352.317,261.096,352.01,267.559z"/>
<path fill="#FFFFFF" d="M213.613,650.355c-0.763,0.015-2.03,1.382-2.147,2.245c-0.36,2.654-0.261,5.37-0.366,8.062
	c-0.397,10.25-0.806,20.501-1.209,30.752c10.499,0,20.997,0,31.496,0c-0.396-13.673-0.79-27.345-1.189-41.159
	C230.784,650.255,222.196,650.196,213.613,650.355z"/>
<path fill="#FFFFFF" d="M347.053,252.145c-2.95,2.158-4.757,1.327-5.654-2.146c-0.927-3.584-1.78-7.238-3.225-10.623
	c-1.474-3.451-3.628-6.611-5.786-10.436c-0.2,1.044-0.319,1.296-0.277,1.516c0.118,0.609,0.287,1.21,0.464,1.806
	c4.027,13.574,5.199,27.27,1.762,41.164c-2.201,8.897-6.098,16.831-13.321,22.753c-8.174,6.702-22.161,6.927-30.903,2.435
	c-8.543-4.389-12.741-11.991-14.821-20.816c-4.17-17.692-2.679-35.207,3.214-52.259c3.328-9.631,9.943-16.904,19.946-19.593
	c13.832-3.717,26.904-1.177,38.605,7.304c6.153,4.461,11.163,9.987,14.731,16.899c0.331-6.803,0.405-13.482,0.234-20.154
	c-0.021-0.81-1.218-1.865-2.117-2.33c-5.807-3.011-12.183-5.193-17.429-8.96c-9.962-7.154-16.972-17.088-22.82-27.79
	c-0.913-1.672-1.752-2.102-3.776-1.887c-4.126,0.437-8.343,0.475-12.482,0.16c-2.254-0.172-3.586,0.022-4.116,2.384
	c-0.271,1.213-0.761,2.378-1.149,3.565c-4.658,14.231-10.844,27.333-24.111,35.901c-6.029,3.894-12.23,6.132-19.164,5.633
	c3.447-5.553,6.907-11.127,10.368-16.701c-5.719,3.892-10.875,7.861-15.988,11.886c-0.668,0.525-1.195,1.277-1.653,2.008
	c-1.791,2.861-4.426,3.939-7.67,3.66c-3.236-0.279-6.457-0.74-9.694-0.979c-12.435-0.917-22.911-5.824-31.244-15.167
	c-1.585-1.777-3.157-3.564-4.736-5.348c-0.25,0.163-0.501,0.327-0.752,0.49c1.389,2.8,2.778,5.6,4.167,8.4
	c-0.437,0.363-0.874,0.728-1.311,1.09c-18.454-4.975-24.844-20.634-30.946-36.801c-5.211,0-10.424,0.333-15.56-0.155
	c-2.204-0.209-2.944,0.208-4.011,1.933c-3.49,5.638-7.043,11.257-10.925,16.629c-5.989,8.291-13.65,14.57-23.298,18.333
	c-0.922,0.359-1.819,1.977-1.904,3.073c-0.302,3.932-0.357,7.892-0.297,11.839c0.047,3.091,0.404,6.178,0.657,9.735
	c2.464-3.457,4.414-6.502,6.673-9.299c5.933-7.344,13.207-12.87,22.503-15.187c7.08-1.765,14.054-2.15,21.467-0.464
	c8.557,1.946,14.941,6.143,19.585,13.255c8.14,12.464,8.456,26.89,9.116,40.937c0.324,6.905-1.514,14.137-3.547,20.866
	c-2.073,6.859-5.967,13.147-12.649,16.636c-3.688,1.926-7.848,3.095-11.919,4.109c-7.879,1.962-19.93-2.785-24.545-9.435
	c-10.042-14.468-11.415-30.711-9.372-47.535c0.581-4.78,1.963-9.461,2.978-14.189c-1.375,1.167-2.607,2.458-3.28,3.995
	c-2.28,5.208-4.472,10.46-6.481,15.778c-1.348,3.566-3.119,4.243-6.042,1.734c-1.423-1.222-2.61-2.72-3.938-4.127
	c-0.348,0.482-0.616,0.68-0.614,0.877c0.014,1.734,0.078,3.468,0.123,5.202c0.467,18.138,1.109,36.267,4.732,54.121
	c1.197,5.903,3.612,11.246,7.625,15.908c8.54,9.919,20.169,14.499,32.094,18.048c11.377,3.386,23.071,5.804,34.731,8.113
	c18.493,3.66,37.232,5.23,56.069,4.443c10.093-0.423,20.232-1.265,30.192-2.888c12.219-1.993,24.357-4.662,36.372-7.667
	c11.551-2.889,22.76-6.805,32.556-14.033c9.568-7.06,13.996-16.922,15.259-28.19c1.266-11.292,1.729-22.684,2.267-34.045
	c0.307-6.463,0.056-12.953,0.056-20.11C349.948,249.459,348.635,250.987,347.053,252.145z"/>
<path fill="#FFFFFF" d="M225.063,328.45c-2.735,0.369-5.382-2.114-5.124-4.648c0.278-2.727,1.493-4.767,4.193-4.533
	c3.274-0.055,5.48,1.928,5.348,4.479C229.338,326.494,227.605,328.108,225.063,328.45z"/>
<path fill="#FFFFFF" d="M293.857,556.503c-0.007-13.178-0.071-26.355,0.002-39.532c0.013-2.282-0.724-3.076-2.998-3.08
	c-24.577-0.047-49.155-0.193-73.732-0.249c-13.174-0.03-26.349,0.066-39.522,0.095c-6.442,0.014-12.884,0.002-19.604,0.002
	c0,7.316,0.034,14.041-0.008,20.765c-0.061,9.781-0.135,19.563-0.295,29.344c-0.05,3.021,1.303,4.361,4.243,4.358
	c14.85-0.012,29.7,0.011,44.55-0.016c12.487-0.021,24.974-0.128,37.462-0.123c7.888,0.003,15.776,0.18,23.665,0.205
	c6.972,0.023,13.944-0.003,20.916-0.116c2.964-0.048,5.772-0.39,5.294-4.662C293.571,561.193,293.859,558.835,293.857,556.503z"/>
<path fill="#FFFFFF" d="M283.417,565.079c-10.634-0.079-21.271-0.179-31.9,0.063c-3.364,0.077-5.145-1.46-5.353-4.236
	c-0.389-5.165-0.167-10.376-0.181-15.568c-0.006-2.481,0.017-4.965,0.049-7.447c0.057-4.331,1.118-5.584,5.538-5.728
	c5.2-0.169,10.409-0.04,15.615-0.04c0.001-0.139,0.001-0.278,0.001-0.417c4.982,0,9.965-0.011,14.945,0.003
	c3.937,0.011,5.654,1.4,5.793,5.215c0.291,7.957,0.43,15.92,0.523,23.882C288.478,563.38,286.047,565.098,283.417,565.079z"/>
<path fill="#FFFFFF" d="M288.762,438.964c1.132,8.491,1.346,17.355,9.246,23.266c8.911-3.242,22.457,5.968,23.386,16.8
	c-3.387-1.913-6.494-3.609-9.542-5.404c-2.979-1.756-5.899-3.613-8.845-5.426c-0.475,0.471-0.949,0.941-1.425,1.411
	c5.306,4.856,5.282,11.164,5.433,17.393c0.082,3.366-0.091,6.739-0.1,10.109c-0.009,3.766-0.289,7.102-3.389,10.193
	c-1.54,1.536-1.684,5.47-0.974,7.882c0.41,1.391,3.809,2.721,5.818,2.66c5.326-0.161,10.234-1.884,13.686-6.419
	c4.002-5.26,5.758-11.218,5.506-17.763c-0.302-7.838-2.52-15.145-6.038-22.152c-2.456-4.89-4.583-9.952-6.698-15.003
	c-6.369-15.208-12.492-30.521-19.068-45.638c-2.576-5.921-6.097-11.435-12.479-14.962c0.085,1.205,0.098,1.94,0.192,2.665
	C285.227,412.04,286.968,425.506,288.762,438.964z"/>
<path fill="#FFFFFF" d="M154.131,461.66c1.507-1.798,3.073-3.571,4.532-5.429c2.554-3.25,4.271-6.691,4.723-11.045
	c1.141-10.974,2.882-21.885,4.327-32.828c0.672-5.093,1.217-10.203,1.819-15.307c-0.314-0.157-0.628-0.314-0.943-0.472
	c-1.393,1.139-2.89,2.172-4.16,3.435c-5.574,5.538-8.61,12.633-11.738,19.634c-3.302,7.39-6.497,14.829-9.59,22.308
	c-2.123,5.133-3.986,10.372-5.976,15.561c-3.73,9.727-7.854,19.324-11.078,29.217c-2.502,7.681-0.987,15.362,3.081,22.343
	c3.08,5.285,7.831,8.276,13.943,9.011c3.904,0.47,6.521-1.582,6.158-5.466c-0.2-2.146-1.549-4.213-2.518-6.25
	c-0.829-1.742-2.718-3.425-2.654-5.076c0.418-10.808-2.622-22.121,4.087-32.373c-6.5,1.865-11.953,5.482-17.289,10.239
	C131.202,467.171,145.972,457.678,154.131,461.66z"/>
<path fill="#FFFFFF" d="M169.445,500.586c3.226-0.037,6.451-0.104,9.677-0.107c10.404-0.014,20.808-0.005,32.154-0.005
	c0-9.641,0-19.038,0-28.743c-4.892,0-10.236-0.004-15.58,0c-12.921,0.012-25.846-0.123-38.758,0.224
	c-1.675,0.046-4.624,2.517-4.697,3.979c-0.364,7.272-0.078,14.59,0.301,21.874c0.054,1.029,1.833,2.751,2.889,2.81
	C160.088,500.875,164.771,500.642,169.445,500.586z"/>
<path fill="#FFFFFF" d="M292.823,471.413c-3.464-0.067-6.932,0.156-10.398,0.159c-9.265,0.004-18.528-0.048-27.792-0.067
	c-5.309-0.012-10.618-0.002-15.428-0.002c0,10.295,0,19.624,0,29.022c9.993,0,19.123,0.007,28.252-0.002
	c8.803-0.009,17.615-0.283,26.402,0.077c3.232,0.133,3.821-0.747,3.806-3.611c-0.037-6.705,0.191-13.411,0.338-20.116
	C298.053,474.515,295.346,471.461,292.823,471.413z"/>
<path fill="#FFFFFF" d="M213.41,396.9c-6.923-1.673-13.968-2.842-20.943-4.229c0.51,6.217,0.616,11.953,1.528,17.559
	c1.304,8.016-0.469,7.283,7.943,6.598c0.869-0.07,1.744-0.136,2.615-0.118c16.333,0.354,32.665,0.751,48.998,1.049
	c1.915,0.034,3.838-0.453,5.461-0.66c0.564-8.611,1.093-16.661,1.661-25.326c-7.872,1.723-15.364,2.97-22.615,5.053
	C229.749,399.211,221.682,398.899,213.41,396.9z"/>
<path fill="#FFFFFF" d="M107.011,49.058c-0.453,0.121-0.969,0.14-1.345,0.379c-1.474,0.938-2.948,1.885-4.341,2.935
	c-12.488,9.411-21.986,21.376-29.593,34.913c-14.928,26.565-22.314,55.457-26.183,85.418c-0.288,2.229-0.527,4.465-0.742,6.703
	c-0.214,2.225-0.37,4.456-0.552,6.684c0.422,0.079,0.844,0.158,1.267,0.237c2.802-8.894,5.81-17.729,8.353-26.696
	c2.753-9.705,4.45-19.746,7.703-29.266c8.729-25.543,20.401-49.625,37.677-70.66c2.745-3.342,5.526-6.652,8.291-9.978
	C107.367,49.505,107.188,49.281,107.011,49.058z"/>
<path fill="#FFFFFF" d="M255.756,457.477c0.425,3.735-2.104,3.625-4.591,3.618c-4.814-0.014-9.628-0.004-14.878-0.004
	c0.724,2.997,1.317,5.459,1.737,7.196c18.401,0,36.097,0,54.969,0c-3.27-3.694-5.598-6.563-8.209-9.149
	c-0.92-0.911-2.521-1.567-3.824-1.589C272.706,457.407,264.447,457.477,255.756,457.477z"/>
<path fill="#FFFFFF" d="M174.264,457.385c-2.702,0.05-6.021-0.234-7.949,1.164c-3.129,2.27-5.346,5.799-8.603,9.552
	c10.542,0,20.106-0.017,29.671,0.005c7.929,0.019,15.857,0.14,23.784,0.04c0.832-0.011,2.036-1.044,2.387-1.886
	c0.601-1.442,0.663-3.107,1.043-5.183c-5.117,0-9.948,0.023-14.778-0.011c-2.115-0.016-4.103-0.295-3.471-3.729
	C188.794,457.338,181.527,457.248,174.264,457.385z"/>
<path fill="#FFFFFF" d="M296.811,138.382c-1.604,8.582-2.988,15.993-4.36,23.337c4.152,0,8.191,0,12.078,0
	C302.059,154.253,299.595,146.803,296.811,138.382z"/>
<path fill="#FFFFFF" d="M149.154,139.377c-2.931,7.754-5.611,14.845-8.43,22.303c4.254,0,8.282,0,12.349,0
	C151.825,154.582,150.555,147.352,149.154,139.377z"/>
<path fill="#FFFFFF" d="M216.544,454.191c-0.807-1.136-0.942-1.495-1.082-1.497c-13.983-0.207-27.967-0.437-41.951-0.484
	c-1.237-0.005-2.478,1.187-3.717,1.823c0.123,0.456,0.246,0.911,0.369,1.366C185.41,455.003,200.655,454.605,216.544,454.191z"/>
<path fill="#FFFFFF" d="M235.635,452.891c-0.037,0.442-0.074,0.885-0.111,1.326c15.082,0,30.163,0,45.223,0
	C278.307,451.745,244.011,450.711,235.635,452.891z"/>
<path d="M224.133,319.269c-2.701-0.233-3.915,1.806-4.193,4.533c-0.258,2.534,2.389,5.017,5.124,4.648
	c2.542-0.342,4.275-1.957,4.417-4.702C229.614,321.197,227.408,319.214,224.133,319.269z"/>
<path d="M282.131,531.709c-4.98-0.014-9.963-0.003-14.945-0.003c0,0.139,0,0.278-0.001,0.417c-5.206,0-10.415-0.129-15.615,0.04
	c-4.42,0.144-5.481,1.396-5.538,5.728c-0.032,2.482-0.055,4.966-0.049,7.447c0.014,5.192-0.208,10.403,0.181,15.568
	c0.208,2.776,1.988,4.313,5.353,4.236c10.629-0.242,21.267-0.143,31.9-0.063c2.631,0.019,5.062-1.699,5.031-4.273
	c-0.094-7.962-0.232-15.925-0.523-23.882C287.786,533.109,286.068,531.72,282.131,531.709z"/>
<path d="M253.716,557.127c-0.012-0.232-0.023-0.463-0.034-0.694c5.359,0,10.719,0,16.079,0c0.012,0.231,0.023,0.462,0.035,0.694
	C264.436,557.127,259.077,557.127,253.716,557.127z"/>
<path d="M280.348,557.176c-2.707,0-5.414,0-8.121,0c0.002-0.299,0.004-0.597,0.006-0.896c2.732,0,5.465,0,8.197,0
	C280.403,556.579,280.375,556.877,280.348,557.176z"/>
<path d="M253.215,540.768c0-0.281-0.002-0.563-0.003-0.844c9.168,0,18.336,0,27.504,0c0.001,0.281,0.004,0.563,0.005,0.844
	C271.553,540.768,262.384,540.768,253.215,540.768z"/>
<path fill="#FFFFFF" d="M253.212,539.924c0.001,0.281,0.003,0.563,0.003,0.844c9.169,0,18.338,0,27.506,0
	c-0.001-0.281-0.004-0.563-0.005-0.844C271.548,539.924,262.38,539.924,253.212,539.924z"/>
<path fill="#FFFFFF" d="M253.682,556.433c0.011,0.231,0.022,0.462,0.034,0.694c5.36,0,10.72,0,16.08,0
	c-0.012-0.232-0.023-0.463-0.035-0.694C264.401,556.433,259.042,556.433,253.682,556.433z"/>
<path fill="#FFFFFF" d="M272.227,557.176c2.707,0,5.414,0,8.121,0c0.027-0.299,0.055-0.597,0.082-0.896c-2.732,0-5.465,0-8.197,0
	C272.231,556.579,272.229,556.877,272.227,557.176z"/>
</svg>
