<?xml version="1.0" encoding="utf-8"?>
<!-- Generator: Adobe Illustrator 16.0.3, SVG Export Plug-In . SVG Version: 6.00 Build 0)  -->
<!DOCTYPE svg PUBLIC "-//W3C//DTD SVG 1.1//EN" "http://www.w3.org/Graphics/SVG/1.1/DTD/svg11.dtd">
<svg version="1.1" id="レイヤー_1" xmlns="http://www.w3.org/2000/svg" xmlns:xlink="http://www.w3.org/1999/xlink" x="0px"
	 y="0px" width="768.903px" height="1344.832px" viewBox="0 0 768.903 1344.832" enable-background="new 0 0 768.903 1344.832"
	 xml:space="preserve">
<path fill="#FFFFFF" d="M452.077,596.221c-4.471,1.551-8.914,3.28-11.324,8.735c5.172,0,9.828,0,15.016,0
	c-0.496-2.488-0.783-4.786-1.477-6.952C454.04,597.215,452.579,596.047,452.077,596.221z"/>
<path fill="#FFFFFF" d="M554.157,319.547c5.773-1.007,11.557-1.525,17.367-0.165c1.047,0.245,2.145,0.267,3.85,0.464
	c-4.373-18.279-9.711-35.613-16.736-53.177c-0.602,1.183-0.947,1.563-0.977,1.967c-1.217,16.286-2.82,32.52-6.451,48.486
	C550.637,319.643,552.165,319.893,554.157,319.547z"/>
<path fill="#FFFFFF" d="M316.188,564.155c29.058,10.431,59,16.63,89.779,18.259c14.115,0.748,28.307,0.072,42.463-0.044
	c1.902-0.016,4.021,0.214,5.158-2.144c2.672-5.537,7.551-8.769,12.709-11.581c11.939-6.509,24.684-10.841,37.984-13.516
	c14.959-3.01,29.941-4.926,44.988-0.296c1.072,0.33,2.715-0.09,3.699-0.747c7.984-5.333,14.891-11.691,19.43-20.382
	c5.738-10.987,5.359-22.399,3.086-34.108c-2.535-13.063-3.086-26.082,1.307-38.982c3.543-10.4,6.764-20.911,10.1-31.382
	c0.475-1.486,0.775-3.027,1.158-4.542c-4.695,2.278-6.225,7.492-10.658,9.632c-0.402-0.564-0.732-0.816-0.75-1.086
	c-0.068-1.16-0.074-2.325-0.057-3.488c0.199-11.694-3.197-22.313-9.658-31.986c-1.66-2.49-3.758-4.54-7.477-5.872
	c0.303,2.015,0.432,3.417,0.736,4.779c0.477,2.111,1.303,4.165,1.582,6.294c3.004,22.919,1.002,45.209-8.633,66.489
	c-3.697,8.167-8.555,15.501-16.178,20.522c-9.078,5.98-17.912,3.683-23.188-5.796c-2.887-5.187-4.191-10.818-4.891-16.665
	c-1.666-13.943-0.01-27.615,3.426-41.102c2.207-8.652,3.975-17.565,7.459-25.71c5.289-12.355,14.9-21.245,27.104-26.824
	c12.262-5.606,21.645-2.987,30.07,7.556c1.248,1.561,2.373,3.217,3.598,4.796c0.621,0.801,1.338,1.526,2.5,2.835
	c0.314-2.104,0.621-3.379,0.684-4.667c0.848-17.435-1.311-34.577-4.92-51.597c-0.637-2.999-2.6-4.339-5.115-4.669
	c-6.572-0.864-13.18-1.646-19.799-1.953c-4.563-0.215-4.545,0.4-6.133,4.88c-3.561,10.027-7.209,20.03-11.166,29.904
	c-1.271,3.167-4.051,5.719-5.395,8.869c-5.07,11.889-13.646,20.766-23.811,28.246c-2.957,2.175-6.543,3.492-9.842,5.202
	c-0.33-0.339-0.66-0.677-0.99-1.016c1.998-7.861,7.107-14.577,9.727-23.432c-21.928,27.508-42.775,28.516-69.402,26.696
	c4.268-18.585,6.979-37.313,6.486-56.378c-2.793,6.257-5.119,12.613-7.723,18.853c-4.035,9.675-10.018,18.011-17.938,24.905
	c-1.246,1.086-2.705,1.927-4.064,2.88c-0.314-0.228-0.631-0.456-0.945-0.685c11.934-47.5,9.369-95.315,4.453-143.183
	c-0.33-0.041-0.662-0.083-0.992-0.125c-9.186,16.359-18.371,32.72-27.748,49.422c10.014,2.118,19.605,3.65,26.307,12.967
	c-1.998-0.163-3.104-0.17-4.178-0.354c-7.713-1.325-15.475-2.441-23.105-4.134c-4.017-0.891-6.334,0.188-8.872,3.36
	c-14.624,18.278-31.026,34.776-49.992,48.618c-0.645,0.472-1.122,1.171-1.889,1.987c0.757,0.067,0.932,0.132,1.073,0.087
	c1.425-0.449,2.837-0.946,4.27-1.375c17.63-5.26,35.13-5.382,52.38,1.555c1.944,0.78,4.157,1.889,5.295,3.512
	c5.24,7.471,5.992,16.122,6.414,25.685c-4.992-3.12-8.271-7.583-14.321-8.332c1.016,2.547,1.688,4.243,2.368,5.937
	c8.669,21.604,9.14,43.507,1.943,65.525c-3.753,11.485-9.886,21.546-20.431,28.141c-22.238,13.906-52.087,4.771-63.512-19.457
	c-6.033-12.795-7.779-26.422-7.05-40.446c0.098-1.877,0.014-3.765,0.014-5.649c-1.292,0.658-1.909,1.444-2.083,2.319
	c-0.777,3.908-1.529,7.826-2.094,11.77c-0.556,3.881-1.299,4.384-4.667,2.266c-1.958-1.23-3.757-2.753-5.492-4.297
	c-7.766-6.912-8.73-12.651-3.573-21.604c5.162-8.962,10.696-17.664,18.189-24.937c0.779-0.755,1.357-1.718,2.401-3.067
	c-1.086,0.194-1.554,0.199-1.956,0.362c-7.847,3.192-15.646,6.505-23.546,9.558c-3.061,1.184-3.773,3.239-3.742,6.19
	c0.252,24.152,3.227,47.841,11.702,70.628c8.663,23.293,21.53,43.524,42.177,58.124c0.433,0.306,0.604,0.979,1.171,1.945
	c-17.695,1.124-31.362-6.241-44.145-18.338c3,16,12.937,34.519,23.889,46.246C307.005,559.925,311.195,562.363,316.188,564.155z"/>
<path fill="#FFFFFF" d="M592.01,407.244c0.908-1.219,2.305-2.314,2.646-3.676c2.092-8.34,3.963-16.736,5.857-25.125
	c0.182-0.811,0.023-1.696,0.023-3.46c-4.09,6.174-7.275,11.767-11.246,16.735c-3.396,4.247-3.096,8.119-0.588,12.263
	C589.479,405.266,590.889,406.168,592.01,407.244z"/>
<path fill="#FFFFFF" d="M485.928,679.698c1.043,1.95,1.793,3.408,2.594,4.84c7.09,12.704,12.59,25.928,15.922,40.228
	c5.324,22.839,11.316,45.535,17.617,68.126c2.215,7.942,5.672,15.655,9.447,23.019c5.84,11.391,16.045,17.639,28.514,21.939
	c-0.422-1.391-0.58-2.148-0.877-2.85c-2.459-5.826-4.967-11.634-7.42-17.464c-18.193-43.257-36.461-86.486-54.465-129.823
	C495.133,682.594,492.083,679.968,485.928,679.698z"/>
<path fill="#FFFFFF" d="M552.28,569.89c-1.227-4.868-4.27-7.79-9.367-8.36c-4.953-0.555-9.904-1.104-14.857-1.657
	c-17.393,1.07-34.047,4.844-49.883,11.914c-4.986,2.227-9.76,5.023-14.367,7.973c-3.764,2.408-5.51,5.824-4.246,10.697
	c2.336,9.021,3.938,18.232,6.34,27.233c4.08,15.293,9.191,30.247,15.674,44.723c2.594,5.793,6.77,9.357,12.965,10.557
	c2.119,0.41,4.264,0.864,6.412,0.951c17.738,0.718,34.328-3.337,49.873-11.939c9.064-5.017,13.297-12.411,13.17-22.84
	c-0.164-13.57-2.016-26.923-4.6-40.162C557.483,589.192,554.713,579.571,552.28,569.89z"/>
<path fill="#FFFFFF" d="M339.761,783.596c5.891,6.481,12.691,12.277,19.69,17.577c9.108,6.896,18.202,6.595,27.833,0.282
	c8.117-5.318,14.244-12.458,19.049-20.804c6.703-11.646,10.973-24.255,14.242-37.19c4.443-17.59,8.732-35.223,12.748-52.913
	c1.668-7.342,5.16-12.765,12.055-16.071c3.127-1.5,6.074-3.5,8.826-5.631c3.139-2.432,6.234-5.024,8.865-7.98
	c2.854-3.208,4.123-7.227,3.316-11.611c-0.598-3.255-1.258-6.509-2.109-9.703c-0.982-3.69-2.063-7.37-3.402-10.941
	c-0.48-1.278-1.643-2.576-2.84-3.254c-2.16-1.225-2.473-2.531-1.838-4.896c1.705-6.342-1.418-10.126-7.959-9.658
	c-2.949,0.21-5.879,1.022-8.758,1.786c-2.404,0.638-4.699,1.687-7.092,2.381c-1.016,0.295-2.16,0.15-3.244,0.206
	c0.242-1.194,0.256-2.504,0.781-3.56c0.957-1.922,2.221-3.693,3.748-6.163c-1.613,0.122-2.135,0.027-2.514,0.219
	c-0.883,0.446-1.807,0.914-2.523,1.577c-11.209,10.381-21.559,21.212-24.791,37.079c-3.02,14.831-9.736,28.281-17.219,41.312
	c-10.357,18.04-20.881,35.981-31.312,53.979c-1.473,2.537-2.825,5.146-4.234,7.724c-0.578-0.152-1.155-0.307-1.733-0.458
	c0.698-3.514,0.91-7.219,2.2-10.497c2.491-6.335,5.366-12.547,8.522-18.579c1.838-3.517,1.782-6.319-0.291-9.69
	c-5.233-8.503-10.282-17.126-15.123-25.855c-1.663-3.001-3.439-6.457-3.472-9.722c-0.048-4.818-1.447-8.997-4.07-12.563
	c-5.406-7.352-10.973-14.659-17.196-21.307c-3.669-3.918-8.691-6.589-13.172-9.723c-2.86-2-5.335-1.365-8.117,0.784
	c-9.988,7.717-15.733,17.743-17.981,30.106c-3.166,17.403-3.572,34.052,5.993,50.238
	C302.111,736.259,319.322,761.099,339.761,783.596z"/>
<path fill="#FFFFFF" d="M575.721,1004.971c-2.566-4.854-4.863-9.853-7.477-14.68c-2.033-3.757-2.514-3.797-6.27-2.155
	c-14.174,6.191-28.324,12.438-42.549,18.516c-2.492,1.066-3.139,2.031-1.416,4.314c3.994,5.294,4.539,11.27,3.297,17.596
	c-5.594,28.474-8.789,57.271-11.711,86.111c-1.779,17.563-3.748,35.108-7.9,52.331c-1.012,4.185-1.344,8.532-2.1,13.543
	c0.717,3.476,0.938,7.778,2.488,11.53c6.988,16.896,16.443,32.319,28.934,45.766c3.434,3.697,7.473,6.603,12.33,8.238
	c9.385,3.158,13.951,0.515,14.504-9.315c0.418-7.452-0.15-14.968-0.443-22.449c-0.416-10.648-1.127-21.289-1.443-31.94
	c-0.273-9.239,1.096-18.324,4.428-26.961c6.23-16.148,12.859-32.146,19.041-48.313c6.119-16.005,11.75-32.197,17.885-48.197
	c2.438-6.354,1.354-11.645-1.98-17.429C588.438,1029.516,582.18,1017.184,575.721,1004.971z"/>
<path fill="#FFFFFF" d="M707.569,1097.49c-11.123-11.599-21.629-23.757-27.67-38.829c-5.195-12.96-9.453-26.304-13.928-39.546
	c-8.744-25.865-17.186-51.834-26.104-77.64c-3.092-8.947-6.834-17.753-12.686-25.37c-5.311-6.913-7.529-7.27-14.961-2.972
	c-12.16,7.034-23.432,15.386-33.715,24.863c-19.098,17.603-37.752,35.684-56.563,53.593c-1.061,1.01-1.887,2.266-2.82,3.406
	c0.213,0.24,0.428,0.48,0.641,0.723c0.764-0.232,1.563-0.383,2.281-0.71c13.932-6.322,27.932-12.5,41.744-19.078
	c6.508-3.102,7.998-2.905,11.092,3.723c0.211,0.452,0.418,0.907,0.639,1.355c7.717,15.674,14.91,31.631,23.266,46.957
	c14.418,26.454,29.656,52.461,44.338,78.772c4.811,8.621,11.467,14.773,21,17.213c10.467,2.678,21.008,5.246,31.662,6.949
	c6.49,1.038,13.355,1.122,19.879,0.276c12.301-1.596,14.777-8.199,6.922-17.647C717.913,1107.907,712.639,1102.778,707.569,1097.49z
	"/>
<path fill="#FFFFFF" d="M507.762,1044.312c-0.127-3.043-2.348-3.855-4.701-4.273c-7.041-1.25-14.105-2.361-21.16-3.527
	c-3.309-0.547-6.18,0.287-8.842,2.383c-15.008,11.825-32.225,15.966-51.057,14.765c-26.984-1.722-53.701-5.184-79.989-11.632
	c-15.75-3.86-31.087-8.706-44.642-18.065c-1.808-1.247-4.282-1.759-6.526-2.109c-23.03-3.606-46.068-7.167-69.122-10.622
	c-13.981-2.096-27.993-3.985-39.56-5.623c-9.048,0.553-15.561,0.663-22,1.407c-11.425,1.321-22.825,3.066-33.298,8.19
	c-2.417,1.184-4.676,3.178-6.331,5.321c-2.591,3.358-2.489,4.267,0.897,7.033c2.087,1.706,4.787,3.104,7.414,3.631
	c9.465,1.897,18.999,3.482,28.54,4.974c32.583,5.096,65.182,10.085,97.77,15.144c25.668,3.982,51.336,7.967,76.992,12.03
	c15.295,2.423,30.584,4.892,45.839,7.552c8.135,1.419,16.208,1.704,24.338,0.229c3.93-0.713,7.883-1.304,11.807-2.059
	c25.668-4.942,51.332-9.896,76.988-14.899c4.08-0.796,8.154-1.703,12.141-2.865C506.319,1050.404,507.897,1047.563,507.762,1044.312
	z"/>
<path fill="#FFFFFF" d="M398.487,609.141c-2.096,0.5-4.25,0.88-6.396,1.013c-10.721,0.667-20.865-1.788-30.444-6.375
	c-5.949-2.848-11.603-6.314-17.995-9.84c-2.314,8.686-8,14.716-15.66,19.026c0.701,0.843,0.952,1.313,1.341,1.59
	c13.301,9.482,24.163,21.33,33.457,34.668c2.014,2.89,4.4,3.554,7.742,2.717c6.938-1.737,13.901-3.466,20.944-4.668
	c3.764-0.643,5.279-2.36,5.986-5.95c2.074-10.55,7.09-19.637,14.506-27.415c0.746-0.783,1.33-1.72,2.256-2.935
	c-3.648-1.335-6.801-2.917-10.131-3.533C402.391,607.127,400.405,608.683,398.487,609.141z"/>
<path fill="#FFFFFF" d="M296.978,743.321c-6.104-11.251-12.123-22.344-18.573-34.232
	C276.856,725.283,286.226,742.344,296.978,743.321z"/>
<path d="M734.491,1113.566c-3.088-5.068-7.141-9.599-11.084-14.086c-7.363-8.379-15.01-16.509-22.434-24.836
	c-1.762-1.977-3.125-4.309-4.643-6.498c-0.912-1.314-0.842-2.459,0.686-3.313c5.754-3.223,7.02-8.66,6.748-14.562
	c-0.611-13.308-1.459-26.606-2.232-39.906c-0.098-1.662-0.434-3.312-0.494-4.973c-0.273-7.517-4.563-11.998-11.252-14.269
	c-6.617-2.246-13.359-4.149-20.115-5.942c-3.432-0.911-5.416-2.669-6.305-6.188c-1.301-5.164-2.859-10.277-4.637-15.299
	c-0.977-2.765-0.676-5.041,0.645-7.57c4.342-8.313,7.535-17.043,8.99-26.354c1.859-11.919-0.617-22.804-7.561-32.72
	c-8.699-12.421-20.502-21.332-33.15-29.188c-15.76-9.788-32.604-17.389-50.045-23.651c-2.496-0.897-4.283-2.006-5.402-4.609
	c-13.232-30.746-26.615-61.427-39.869-92.161c-8.574-19.878-17.006-39.817-25.49-59.732c-0.584-1.365-1.078-2.769-1.852-4.771
	c2.092-0.227,3.83-0.473,5.576-0.596c14.32-0.997,27.852-4.862,40.646-11.298c2.666-1.342,5.197-2.992,7.646-4.708
	c8.832-6.19,13.414-14.813,13.236-25.523c-0.145-8.809-1.02-17.612-1.734-26.404c-0.381-4.677-0.504-4.579,3.898-6.259
	c10.328-3.937,18.885-10.395,26.115-18.677c2.689-3.082,5.318-6.219,8.354-9.081c-0.299,13.452-6.92,24.229-14.525,34.961
	c7.586-0.673,12.369-5.552,17.576-9.515c8.615-6.56,14.268-15.448,19.961-24.56c13.453-21.524,18.02-45.523,21.189-70.022
	c5.146-39.762,5.842-79.729,4.973-119.733c-0.182-8.436,1.652-16.087,5.1-23.592c2.148-4.675,4.004-9.481,6.068-14.194
	c0.854-1.948,1.914-3.81,2.936-5.82c10.012,4.003,17.045,14.104,29.643,12.889c-0.713-1.467-1.027-2.394-1.561-3.167
	c-6.402-9.269-10.289-19.777-14.6-30.039c-4.305-10.248-4.971-21.313-6.316-32.225c-1.607-13.048-3.363-26.096-5.656-39.038
	c-2.498-14.088-5.607-28.071-8.594-42.068c-2.461-11.529-4.449-23.232-10.646-33.586c-1.242-8.697-6.191-16.134-8.332-24.558
	c-0.967-3.802-3.074-7.321-4.754-10.928c-1.76-3.773-3.936-7.38-5.379-11.264c-2.818-7.583-6.902-14.383-11.748-20.785
	c-0.602-0.794-1.344-1.604-1.592-2.523c-1.607-5.987-6.146-9.772-10.271-13.857C561.709,46.77,501.27,15.802,431.641,2.424
	c-4.23-0.812-8.463-1.614-12.693-2.424c-37.663,0-75.324,0-112.987,0c-5.022,0.99-10.044,1.997-15.072,2.966
	c-83.223,16.059-149.385,58.19-196.349,129.197c-8.333,12.601-15.94,25.866-22.22,39.587c-5.986,13.077-10.126,27.048-14.492,40.811
	c-6.515,20.536-10.497,41.645-12.266,63.113c-0.738,8.951-0.822,17.972-0.85,26.963c-0.067,21.24-6.152,40.699-17.263,58.606
	c-5.964,9.612-12.485,18.878-18.747,28.308c-0.355,0.534-0.643,1.112-1.408,2.445c13.296,0.807,23.265-6.81,34.85-11.151
	c0.216,2.572,0.51,4.825,0.578,7.083c0.797,26.644,0.834,53.335,2.522,79.92c2.013,31.709,11.287,61.46,28.694,88.292
	c3.778,5.824,8.774,10.858,13.247,16.226c0.265,0.318,0.869,0.353,1.74,0.678c-0.004-5.493-3.449-9.748-4.507-15.758
	c4.412,5.55,7.993,10.431,11.974,14.959c4.168,4.739,8.62,9.246,13.131,13.668c6.014,5.896,13.931,8.258,21.562,11.073
	c9.064,3.345,18.282,6.105,28.379,6.538c-11.124-8.488-19.116-18.983-22.228-32.887c17.42,22.596,38.284,39.464,69.173,42.688
	c-2.011-3.406-3.458-5.849-4.896-8.297c-1.499-2.553-2.988-5.112-3.808-8.321c1.092,1.047,2.204,2.072,3.271,3.144
	c11.824,11.858,25.251,21.166,41.591,25.637c3.736,1.022,7.686,1.263,11.538,1.862c0.151-0.368,0.302-0.735,0.453-1.102
	c-4.853-5.542-9.706-11.085-14.559-16.627c0.26-0.392,0.521-0.781,0.781-1.173c14.62,9.532,30.698,15.059,48.311,17.825
	c-0.916,1.171-1.342,1.851-1.895,2.404c-9.172,9.187-14.172,20.407-16.146,33.098c-0.461,2.964-0.844,5.939-1.244,8.911
	c-0.641,4.753-1.375,5.598-6.136,6.275c-7.25,1.031-14.521,1.92-21.776,2.922c-27.708,3.823-55.412,7.691-83.123,11.497
	c-15.831,2.174-31.671,4.295-47.516,6.365c-4.972,0.649-8.791-2.21-9.628-7.276c-0.732-4.429-1.143-8.911-1.675-13.373
	c-0.098-0.826,0.008-1.684-0.156-2.491c-1.635-8.067-4.548-13.13-14.42-12.359c-12.774,0.995-25.49,2.74-38.222,4.232
	c-1.468,0.172-2.894,0.756-4.322,1.206c-5.587,1.76-8.694,5.499-8.562,11.439c0.132,5.987,0.395,11.981,0.874,17.953
	c1.45,18.095,3.038,36.18,4.561,54.27c3.004,35.689,6.062,71.373,8.983,107.07c2.854,34.867,5.49,69.754,8.361,104.621
	c2.76,33.535,5.744,67.054,8.544,100.588c1.941,23.24,3.703,46.496,5.608,69.74c1.904,23.238,3.948,46.466,5.812,69.707
	c1.372,17.105,2.539,34.226,3.826,51.337c0.687,9.134,1.371,18.269,2.175,27.393c0.66,7.486,4.376,12.025,11.806,13.571
	c15.05,3.131,30.138,2.872,45.052-0.892c6.87-1.733,10.409-6.776,10.046-14.195c-0.618-12.644-1.541-25.271-2.422-37.9
	c-3.001-43.044-6.046-86.083-9.052-129.127c-0.185-2.656-0.281-5.329-0.245-7.991c0.079-5.848,2.36-7.805,8.187-6.901
	c9.71,1.505,19.404,3.109,29.1,4.708c38.294,6.307,76.586,12.629,114.879,18.944c15.941,2.63,31.883,5.247,47.821,7.902
	c1.307,0.217,2.57,0.684,3.857,1.022c3.677,0.968,5.517,3.292,5.807,7.142c0.913,12.124,2.092,24.227,2.935,36.353
	c1.928,27.755,3.71,55.519,5.561,83.278c1.486,22.272,2.963,44.546,4.503,66.815c0.277,3.984,0.678,7.975,1.312,11.916
	c0.967,6.019,2.751,7.383,8.97,7.384c16.664,0.003,33.328,0.011,49.994-0.005c5.771-0.007,8.324-1.904,9.053-7.654
	c0.543-4.268,0.508-8.65,0.291-12.961c-1.553-31.116-3.229-62.227-4.846-93.339c-1.428-27.451-2.836-54.902-4.223-82.354
	c-0.117-2.326-0.188-4.681,0.041-6.99c0.471-4.711,2.729-7.319,7.23-8.311c19.021-4.19,38.055-8.323,57.09-12.447
	c4.191-0.908,8.408-1.7,12.961-2.616c0,2.085,0.15,3.708-0.021,5.297c-1.613,14.906-3.154,29.822-6.801,44.424
	c-3.465,13.882-1.686,26.985,5.395,39.547c6.475,11.486,13.172,22.789,21.648,32.93c5.168,6.184,10.961,11.648,18.475,14.977
	c4.652,2.062,9.477,3.168,14.582,2.634c6.984-0.731,12.051-4.298,13.869-11.105c1.273-4.768,1.986-9.851,1.916-14.78
	c-0.143-10.151-0.623-20.328-1.607-30.433c-1.865-19.174,0.607-37.555,8.67-55.118c0.555-1.209,0.969-2.481,1.479-3.714
	c4.951-12.012,9.977-23.993,14.818-36.05c1.24-3.09,2.932-4.85,6.439-5.199c3.787-0.377,7.498-1.475,11.26-2.168
	c4.488-0.827,5.727,0.156,6.01,4.71c1.934,31.097,3.875,62.193,5.775,93.292c1.422,23.282,2.783,46.567,4.18,69.85
	c0.52,8.642,3.408,12.339,11.875,14.322c14.818,3.472,29.67,4.104,44.313-0.872c7.418-2.521,10.176-6.38,10.094-14.181
	c-0.088-8.158-0.537-16.318-0.984-24.467c-1.764-32.104-3.594-64.202-5.389-96.305c-0.291-5.207-0.135-5.03,5.232-4.688
	c8.617,0.551,17.289,1.141,25.891,0.72c4.287-0.21,8.818-2.001,12.621-4.164C737.594,1131.42,739.95,1122.53,734.491,1113.566z
	 M551.725,817.536c2.453,5.83,4.961,11.638,7.42,17.464c0.297,0.701,0.455,1.459,0.877,2.85
	c-12.469-4.301-22.674-10.549-28.514-21.939c-3.775-7.363-7.232-15.076-9.447-23.019c-6.301-22.591-12.293-45.287-17.617-68.126
	c-3.332-14.3-8.832-27.523-15.922-40.228c-0.801-1.432-1.551-2.89-2.594-4.84c6.154,0.27,9.205,2.896,11.332,8.015
	C515.264,731.05,533.532,774.279,551.725,817.536z M550.823,661.981c-15.545,8.603-32.135,12.657-49.873,11.939
	c-2.148-0.087-4.293-0.541-6.412-0.951c-6.195-1.199-10.371-4.764-12.965-10.557c-6.482-14.476-11.594-29.43-15.674-44.723
	c-2.402-9.001-4.004-18.213-6.34-27.233c-1.264-4.873,0.482-8.289,4.246-10.697c4.607-2.949,9.381-5.746,14.367-7.973
	c15.836-7.07,32.49-10.844,49.883-11.914c4.953,0.553,9.904,1.103,14.857,1.657c5.098,0.57,8.141,3.492,9.367,8.36
	c2.434,9.681,5.203,19.302,7.113,29.089c2.584,13.239,4.436,26.592,4.6,40.162C564.12,649.57,559.887,656.965,550.823,661.981z
	 M569.645,605.037c-3.164-8.311-3.084-8.497,6.566-14.166C574.112,595.403,572.01,599.934,569.645,605.037z M589.292,391.719
	c3.971-4.969,7.156-10.562,11.246-16.735c0,1.764,0.158,2.649-0.023,3.46c-1.895,8.389-3.766,16.785-5.857,25.125
	c-0.342,1.361-1.738,2.457-2.646,3.676c-1.121-1.076-2.531-1.978-3.307-3.263C586.196,399.838,585.895,395.966,589.292,391.719z
	 M551.209,317.122c3.631-15.967,5.234-32.2,6.451-48.486c0.029-0.404,0.375-0.784,0.977-1.967
	c7.025,17.563,12.363,34.897,16.736,53.177c-1.705-0.197-2.803-0.219-3.85-0.464c-5.811-1.36-11.594-0.842-17.367,0.165
	C552.165,319.893,550.637,319.643,551.209,317.122z M279.459,509.762c12.782,12.097,26.449,19.462,44.145,18.338
	c-0.566-0.967-0.738-1.64-1.171-1.945c-20.646-14.6-33.514-34.831-42.177-58.124c-8.475-22.787-11.45-46.476-11.702-70.628
	c-0.031-2.951,0.681-5.007,3.742-6.19c7.9-3.053,15.699-6.365,23.546-9.558c0.402-0.163,0.87-0.168,1.956-0.362
	c-1.044,1.35-1.622,2.313-2.401,3.067c-7.493,7.272-13.027,15.975-18.189,24.937c-5.157,8.953-4.193,14.692,3.573,21.604
	c1.735,1.544,3.534,3.066,5.492,4.297c3.368,2.118,4.111,1.615,4.667-2.266c0.565-3.943,1.317-7.861,2.094-11.77
	c0.174-0.875,0.791-1.661,2.083-2.319c0,1.885,0.084,3.772-0.014,5.649c-0.729,14.024,1.017,27.651,7.05,40.446
	c11.425,24.229,41.273,33.363,63.512,19.457c10.545-6.595,16.678-16.655,20.431-28.141c7.197-22.019,6.727-43.922-1.943-65.525
	c-0.681-1.693-1.353-3.39-2.368-5.937c6.049,0.749,9.329,5.212,14.321,8.332c-0.422-9.563-1.174-18.214-6.414-25.685
	c-1.139-1.623-3.352-2.731-5.295-3.512c-17.25-6.937-34.75-6.814-52.38-1.555c-1.433,0.429-2.845,0.926-4.27,1.375
	c-0.142,0.045-0.316-0.02-1.073-0.087c0.767-0.816,1.244-1.516,1.889-1.987c18.966-13.842,35.368-30.34,49.992-48.618
	c2.537-3.172,4.854-4.251,8.872-3.36c7.631,1.692,15.393,2.809,23.105,4.134c1.074,0.185,2.18,0.191,4.178,0.354
	c-6.701-9.316-16.293-10.849-26.307-12.967c9.377-16.702,18.563-33.063,27.748-49.422c0.33,0.042,0.662,0.084,0.992,0.125
	c4.916,47.867,7.48,95.683-4.453,143.183c0.314,0.229,0.631,0.457,0.945,0.685c1.359-0.953,2.818-1.794,4.064-2.88
	c7.92-6.895,13.902-15.23,17.938-24.905c2.604-6.239,4.93-12.596,7.723-18.853c0.492,19.064-2.219,37.793-6.486,56.378
	c26.627,1.819,47.475,0.812,69.402-26.696c-2.619,8.854-7.729,15.57-9.727,23.432c0.33,0.339,0.66,0.677,0.99,1.016
	c3.299-1.71,6.885-3.027,9.842-5.202c10.164-7.48,18.74-16.357,23.811-28.246c1.344-3.15,4.123-5.702,5.395-8.869
	c3.957-9.874,7.605-19.877,11.166-29.904c1.588-4.479,1.57-5.095,6.133-4.88c6.619,0.308,13.227,1.089,19.799,1.953
	c2.516,0.33,4.479,1.67,5.115,4.669c3.609,17.02,5.768,34.162,4.92,51.597c-0.063,1.288-0.369,2.563-0.684,4.667
	c-1.162-1.309-1.879-2.034-2.5-2.835c-1.225-1.579-2.35-3.235-3.598-4.796c-8.426-10.543-17.809-13.162-30.07-7.556
	c-12.203,5.579-21.814,14.469-27.104,26.824c-3.484,8.145-5.252,17.058-7.459,25.71c-3.436,13.486-5.092,27.158-3.426,41.102
	c0.699,5.847,2.004,11.479,4.891,16.665c5.275,9.479,14.109,11.776,23.188,5.796c7.623-5.021,12.48-12.355,16.178-20.522
	c9.635-21.28,11.637-43.57,8.633-66.489c-0.279-2.129-1.105-4.183-1.582-6.294c-0.305-1.362-0.434-2.765-0.736-4.779
	c3.719,1.332,5.816,3.382,7.477,5.872c6.461,9.674,9.857,20.292,9.658,31.986c-0.018,1.163-0.012,2.328,0.057,3.488
	c0.018,0.27,0.348,0.521,0.75,1.086c4.434-2.14,5.963-7.354,10.658-9.632c-0.383,1.515-0.684,3.056-1.158,4.542
	c-3.336,10.471-6.557,20.981-10.1,31.382c-4.393,12.9-3.842,25.919-1.307,38.982c2.273,11.709,2.652,23.121-3.086,34.108
	c-4.539,8.69-11.445,15.049-19.43,20.382c-0.984,0.657-2.627,1.077-3.699,0.747c-15.047-4.63-30.029-2.714-44.988,0.296
	c-13.301,2.675-26.045,7.007-37.984,13.516c-5.158,2.813-10.037,6.044-12.709,11.581c-1.137,2.357-3.256,2.128-5.158,2.144
	c-14.156,0.116-28.348,0.792-42.463,0.044c-30.779-1.629-60.721-7.828-89.779-18.259c-4.993-1.792-9.184-4.23-12.841-8.146
	C292.396,544.281,282.459,525.762,279.459,509.762z M455.768,604.957c-5.188,0-9.844,0-15.016,0
	c2.41-5.455,6.854-7.185,11.324-8.735c0.502-0.175,1.963,0.993,2.215,1.783C454.985,600.171,455.272,602.469,455.768,604.957z
	 M414.223,610.972c-0.926,1.215-1.51,2.151-2.256,2.935c-7.416,7.778-12.432,16.865-14.506,27.415
	c-0.707,3.59-2.223,5.308-5.986,5.95c-7.042,1.202-14.005,2.931-20.944,4.668c-3.342,0.837-5.729,0.173-7.742-2.717
	c-9.294-13.338-20.156-25.186-33.457-34.668c-0.389-0.277-0.64-0.747-1.341-1.59c7.66-4.311,13.346-10.341,15.66-19.026
	c6.393,3.525,12.046,6.992,17.995,9.84c9.579,4.587,19.723,7.042,30.444,6.375c2.146-0.133,4.301-0.513,6.396-1.013
	c1.918-0.458,3.904-2.015,5.605-1.702C407.422,608.055,410.575,609.637,414.223,610.972z M309.078,612.454
	c-2.793,1.457-5.192,2.838-7.715,3.941c-0.688,0.301-2.175,0.092-2.562-0.429c-2.661-3.57-5.57-7.801-9.049-12.766
	c0.326-0.207,0.653-0.414,0.979-0.621C296.662,605.771,302.593,608.963,309.078,612.454z M280.646,659.838
	c2.248-12.363,7.993-22.39,17.981-30.106c2.782-2.149,5.257-2.784,8.117-0.784c4.48,3.134,9.503,5.805,13.172,9.723
	c6.224,6.647,11.79,13.955,17.196,21.307c2.623,3.566,4.022,7.745,4.07,12.563c0.032,3.265,1.809,6.721,3.472,9.722
	c4.841,8.729,9.89,17.353,15.123,25.855c2.073,3.371,2.129,6.174,0.291,9.69c-3.156,6.032-6.031,12.244-8.522,18.579
	c-1.29,3.278-1.502,6.983-2.2,10.497c0.578,0.151,1.155,0.306,1.733,0.458c1.409-2.577,2.762-5.187,4.234-7.724
	c10.431-17.997,20.955-35.938,31.312-53.979c7.482-13.03,14.199-26.48,17.219-41.312c3.232-15.867,13.582-26.698,24.791-37.079
	c0.717-0.663,1.641-1.131,2.523-1.577c0.379-0.191,0.9-0.097,2.514-0.219c-1.527,2.47-2.791,4.241-3.748,6.163
	c-0.525,1.056-0.539,2.365-0.781,3.56c1.084-0.056,2.229,0.089,3.244-0.206c2.393-0.694,4.688-1.743,7.092-2.381
	c2.879-0.764,5.809-1.576,8.758-1.786c6.541-0.468,9.664,3.316,7.959,9.658c-0.635,2.364-0.322,3.671,1.838,4.896
	c1.197,0.678,2.359,1.976,2.84,3.254c1.34,3.571,2.42,7.251,3.402,10.941c0.852,3.194,1.512,6.448,2.109,9.703
	c0.807,4.385-0.463,8.403-3.316,11.611c-2.631,2.956-5.727,5.549-8.865,7.98c-2.752,2.131-5.699,4.131-8.826,5.631
	c-6.895,3.307-10.387,8.729-12.055,16.071c-4.016,17.69-8.305,35.323-12.748,52.913c-3.27,12.936-7.539,25.544-14.242,37.19
	c-4.805,8.346-10.932,15.485-19.049,20.804c-9.63,6.313-18.724,6.614-27.833-0.282c-6.999-5.3-13.8-11.096-19.69-17.577
	c-20.438-22.497-37.649-47.338-53.122-73.521C277.074,693.889,277.48,677.241,280.646,659.838z M278.405,709.089
	c6.45,11.889,12.469,22.981,18.573,34.232C286.226,742.344,276.856,725.283,278.405,709.089z M112.995,825.279
	c-0.146-1.981-0.294-4.021,0.006-5.965c0.549-3.558,2.717-5.65,6.215-6.223c18.881-3.094,37.777-6.101,56.654-9.216
	c21.516-3.552,43.015-7.207,64.53-10.771c6.196-1.027,12.42-1.884,19.327-2.924c-0.428,7.203-0.7,13.809-1.232,20.394
	c-2.79,34.55-5.228,69.117-4.609,103.81c0.321,18.027,1.779,35.96,7.423,53.25c1.119,3.427-0.977,3.611-3.125,4.06
	c-13.205,2.76-26.434,5.405-39.619,8.257c-23.106,5-46.187,10.116-69.276,15.193c-4.878,1.074-9.733,2.254-14.623,3.269
	c-3.791,0.785-6.102-0.534-7.056-4.413c-0.748-3.047-1-6.23-1.283-9.37c-2.031-22.562-4.052-45.124-6-67.694
	c-1.504-17.426-2.928-34.859-4.33-52.294C114.943,851.525,113.962,838.402,112.995,825.279z M491.12,1054.16
	c-25.656,5.003-51.32,9.957-76.988,14.899c-3.924,0.755-7.877,1.346-11.807,2.059c-8.131,1.476-16.203,1.19-24.338-0.229
	c-15.255-2.66-30.544-5.129-45.839-7.552c-25.655-4.063-51.323-8.048-76.992-12.03c-32.588-5.059-65.187-10.048-97.77-15.144
	c-9.541-1.491-19.075-3.076-28.54-4.974c-2.627-0.527-5.327-1.925-7.414-3.631c-3.386-2.767-3.488-3.675-0.897-7.033
	c1.655-2.144,3.914-4.138,6.331-5.321c10.473-5.124,21.873-6.869,33.298-8.19c6.439-0.744,12.952-0.854,22-1.407
	c11.567,1.638,25.579,3.527,39.56,5.623c23.054,3.455,46.092,7.016,69.122,10.622c2.244,0.351,4.718,0.862,6.526,2.109
	c13.555,9.359,28.892,14.205,44.642,18.065c26.288,6.448,53.004,9.91,79.989,11.632c18.832,1.201,36.049-2.939,51.057-14.765
	c2.662-2.096,5.533-2.93,8.842-2.383c7.055,1.166,14.119,2.277,21.16,3.527c2.354,0.418,4.574,1.23,4.701,4.273
	c0.135,3.251-1.443,6.092-4.502,6.982C499.274,1052.457,495.2,1053.364,491.12,1054.16z M597.319,1058.906
	c-6.135,16-11.766,32.192-17.885,48.197c-6.182,16.167-12.811,32.164-19.041,48.313c-3.332,8.637-4.701,17.722-4.428,26.961
	c0.316,10.651,1.027,21.292,1.443,31.94c0.293,7.481,0.861,14.997,0.443,22.449c-0.553,9.83-5.119,12.474-14.504,9.315
	c-4.857-1.636-8.896-4.541-12.33-8.238c-12.49-13.446-21.945-28.869-28.934-45.766c-1.551-3.752-1.771-8.055-2.488-11.53
	c0.756-5.011,1.088-9.358,2.1-13.543c4.152-17.223,6.121-34.769,7.9-52.331c2.922-28.84,6.117-57.638,11.711-86.111
	c1.242-6.326,0.697-12.302-3.297-17.596c-1.723-2.283-1.076-3.248,1.416-4.314c14.225-6.078,28.375-12.324,42.549-18.516
	c3.756-1.642,4.236-1.602,6.27,2.155c2.613,4.827,4.91,9.825,7.477,14.68c6.459,12.213,12.717,24.545,19.617,36.506
	C598.672,1047.261,599.756,1052.552,597.319,1058.906z M715.665,1131.177c-6.523,0.846-13.389,0.762-19.879-0.276
	c-10.654-1.703-21.195-4.271-31.662-6.949c-9.533-2.439-16.189-8.592-21-17.213c-14.682-26.312-29.92-52.318-44.338-78.772
	c-8.355-15.326-15.549-31.283-23.266-46.957c-0.221-0.448-0.428-0.903-0.639-1.355c-3.094-6.628-4.584-6.824-11.092-3.723
	c-13.813,6.578-27.813,12.756-41.744,19.078c-0.719,0.327-1.518,0.478-2.281,0.71c-0.213-0.242-0.428-0.482-0.641-0.723
	c0.934-1.141,1.76-2.396,2.82-3.406c18.811-17.909,37.465-35.99,56.563-53.593c10.283-9.478,21.555-17.829,33.715-24.863
	c7.432-4.298,9.65-3.941,14.961,2.972c5.852,7.617,9.594,16.423,12.686,25.37c8.918,25.806,17.359,51.774,26.104,77.64
	c4.475,13.242,8.732,26.586,13.928,39.546c6.041,15.072,16.547,27.23,27.67,38.829c5.07,5.288,10.344,10.417,15.018,16.039
	C730.442,1122.977,727.965,1129.581,715.665,1131.177z"/>
<path d="M492.983,492.974c1.211,0.957,2.803,1.585,3.041,2.548c0.395,1.596,0.41,3.683-0.346,5.044
	c-0.627,1.129-2.598,1.513-3.973,2.229c-0.359-1.299-0.926-2.58-1.02-3.896c-0.09-1.294,0.168-2.661,0.535-3.919
	C491.413,494.335,492.176,493.858,492.983,492.974z"/>
<path d="M507.198,669.564c-3.928-0.587-7.979-0.747-11.752-1.859c-5.623-1.657-6.703-5.587-2.391-9.554
	c3.859-3.547,8.279-6.776,12.979-9.063c12.99-6.323,26.861-8.602,41.266-7.076c2.615,0.275,5.254,0.946,7.727,1.857
	c3.307,1.22,4.242,3.592,1.893,6.147c-3.213,3.493-6.773,7.051-10.893,9.252C533.989,665.698,521.024,669.17,507.198,669.564z"/>
</svg>
