<?xml version="1.0" encoding="utf-8"?>
<!-- Generator: Adobe Illustrator 16.0.3, SVG Export Plug-In . SVG Version: 6.00 Build 0)  -->
<!DOCTYPE svg PUBLIC "-//W3C//DTD SVG 1.1//EN" "http://www.w3.org/Graphics/SVG/1.1/DTD/svg11.dtd">
<svg version="1.1" id="レイヤー_1" xmlns="http://www.w3.org/2000/svg" xmlns:xlink="http://www.w3.org/1999/xlink" x="0px"
	 y="0px" width="768.903px" height="1344.832px" viewBox="0 0 768.903 1344.832" enable-background="new 0 0 768.903 1344.832"
	 xml:space="preserve">
<path fill-rule="evenodd" clip-rule="evenodd" d="M305.961,0c37.663,0,75.324,0,112.986,0c4.232,0.809,8.464,1.612,12.695,2.424
	c69.628,13.378,130.068,44.346,180.561,94.342c4.126,4.085,8.664,7.87,10.273,13.858c0.247,0.919,0.989,1.729,1.591,2.523
	c4.846,6.403,8.929,13.202,11.748,20.785c1.444,3.884,3.62,7.491,5.379,11.264c1.68,3.606,3.787,7.126,4.753,10.928
	c2.141,8.424,7.091,15.86,8.332,24.557c6.199,10.354,8.186,22.057,10.647,33.586c2.987,13.997,6.097,27.981,8.594,42.069
	c2.293,12.942,4.049,25.99,5.657,39.038c1.346,10.912,2.012,21.976,6.315,32.224c4.312,10.262,8.198,20.771,14.6,30.039
	c0.534,0.774,0.849,1.701,1.561,3.167c-12.597,1.216-19.63-8.885-29.643-12.888c-1.022,2.011-2.081,3.872-2.936,5.82
	c-2.064,4.713-3.92,9.52-6.067,14.194c-3.447,7.505-5.282,15.157-5.1,23.592c0.869,40.004,0.173,79.972-4.973,119.733
	c-3.169,24.499-7.737,48.498-21.189,70.023c-5.693,9.111-11.346,18-19.961,24.559c-5.207,3.963-9.991,8.842-17.577,9.515
	c7.607-10.732,14.228-21.509,14.527-34.961c-3.037,2.862-5.665,5.999-8.355,9.081c-7.229,8.282-15.787,14.74-26.114,18.677
	c-4.403,1.68-4.28,1.582-3.899,6.259c0.714,8.792,1.589,17.595,1.734,26.404c0.178,10.711-4.404,19.333-13.237,25.523
	c-2.448,1.716-4.98,3.367-7.646,4.708c-12.795,6.436-26.325,10.301-40.646,11.298c-1.746,0.123-3.485,0.369-5.576,0.596
	c0.773,2.003,1.268,3.406,1.851,4.772c8.484,19.915,16.917,39.854,25.49,59.732c13.255,30.734,26.638,61.415,39.869,92.161
	c1.12,2.604,2.906,3.712,5.403,4.609c17.441,6.263,34.286,13.864,50.044,23.652c12.65,7.856,24.453,16.767,33.152,29.188
	c6.942,9.916,9.42,20.801,7.559,32.72c-1.455,9.311-4.648,18.041-8.989,26.354c-1.32,2.529-1.622,4.805-0.644,7.57
	c1.776,5.021,3.335,10.135,4.636,15.299c0.888,3.519,2.873,5.277,6.304,6.188c6.756,1.793,13.499,3.696,20.116,5.942
	c6.689,2.271,10.978,6.752,11.252,14.269c0.061,1.661,0.396,3.311,0.493,4.973c0.775,13.3,1.621,26.598,2.233,39.906
	c0.271,5.901-0.994,11.339-6.747,14.561c-1.528,0.854-1.598,1.998-0.686,3.313c1.518,2.189,2.881,4.522,4.643,6.498
	c7.424,8.327,15.07,16.457,22.433,24.836c3.943,4.487,7.995,9.018,11.083,14.086c5.459,8.964,3.104,17.853-6.03,23.046
	c-3.804,2.163-8.335,3.954-12.622,4.164c-8.601,0.421-17.272-0.169-25.891-0.72c-5.367-0.343-5.522-0.519-5.231,4.688
	c1.795,32.102,3.624,64.2,5.388,96.304c0.447,8.149,0.897,16.309,0.984,24.467c0.082,7.801-2.675,11.659-10.093,14.181
	c-14.643,4.976-29.495,4.343-44.313,0.872c-8.467-1.984-11.356-5.681-11.875-14.323c-1.396-23.282-2.757-46.567-4.18-69.849
	c-1.899-31.099-3.841-62.195-5.775-93.292c-0.283-4.554-1.521-5.537-6.01-4.71c-3.762,0.693-7.472,1.791-11.26,2.168
	c-3.508,0.349-5.198,2.109-6.439,5.199c-4.841,12.057-9.867,24.038-14.819,36.05c-0.508,1.232-0.923,2.505-1.478,3.714
	c-8.063,17.563-10.535,35.944-8.669,55.118c0.984,10.104,1.464,20.281,1.607,30.433c0.07,4.929-0.642,10.012-1.916,14.78
	c-1.818,6.807-6.884,10.374-13.87,11.105c-5.104,0.534-9.928-0.572-14.582-2.634c-7.513-3.328-13.305-8.793-18.474-14.976
	c-8.477-10.141-15.173-21.443-21.648-32.93c-7.081-12.561-8.859-25.665-5.394-39.547c3.645-14.601,5.187-29.517,6.799-44.424
	c0.172-1.588,0.023-3.211,0.023-5.296c-4.553,0.916-8.77,1.708-12.961,2.616c-19.036,4.124-38.069,8.257-57.091,12.447
	c-4.501,0.991-6.76,3.6-7.229,8.311c-0.23,2.309-0.16,4.664-0.042,6.99c1.387,27.451,2.796,54.902,4.222,82.353
	c1.617,31.113,3.293,62.223,4.847,93.339c0.216,4.311,0.251,8.694-0.291,12.961c-0.73,5.75-3.282,7.648-9.054,7.654
	c-16.665,0.016-33.329,0.008-49.993,0.005c-6.219-0.001-8.003-1.365-8.97-7.384c-0.633-3.941-1.034-7.931-1.311-11.915
	c-1.54-22.27-3.017-44.543-4.503-66.816c-1.851-27.76-3.633-55.523-5.561-83.278c-0.842-12.126-2.021-24.229-2.934-36.353
	c-0.29-3.849-2.13-6.174-5.807-7.141c-1.287-0.339-2.551-0.806-3.857-1.023c-15.938-2.655-31.88-5.272-47.821-7.902
	c-38.293-6.316-76.585-12.638-114.879-18.945c-9.696-1.598-19.39-3.203-29.1-4.708c-5.827-0.903-8.108,1.054-8.187,6.902
	c-0.036,2.662,0.06,5.335,0.245,7.991c3.006,43.044,6.051,86.083,9.052,129.127c0.881,12.629,1.804,25.257,2.422,37.9
	c0.363,7.419-3.176,12.462-10.046,14.196c-14.914,3.763-30.002,4.022-45.052,0.891c-7.43-1.546-11.146-6.085-11.806-13.571
	c-0.804-9.124-1.488-18.259-2.175-27.393c-1.287-17.111-2.454-34.231-3.826-51.336c-1.864-23.242-3.908-46.469-5.812-69.707
	c-1.905-23.245-3.667-46.5-5.608-69.741c-2.8-33.534-5.784-67.053-8.544-100.588c-2.871-34.867-5.507-69.754-8.361-104.621
	c-2.921-35.697-5.979-71.381-8.983-107.07c-1.523-18.09-3.111-36.175-4.561-54.27c-0.479-5.971-0.742-11.965-0.874-17.953
	c-0.132-5.94,2.975-9.679,8.562-11.439c1.428-0.45,2.854-1.034,4.322-1.206c12.732-1.492,25.448-3.237,38.222-4.233
	c9.872-0.77,12.785,4.292,14.42,12.36c0.164,0.807,0.058,1.665,0.156,2.491c0.532,4.462,0.943,8.944,1.675,13.373
	c0.837,5.066,4.656,7.926,9.628,7.276c15.845-2.07,31.685-4.191,47.516-6.365c27.711-3.806,55.415-7.674,83.123-11.497
	c7.255-1.002,14.526-1.891,21.776-2.922c4.761-0.678,5.495-1.522,6.136-6.275c0.4-2.972,0.783-5.947,1.244-8.911
	c1.974-12.691,6.974-23.911,16.146-33.098c0.553-0.554,0.979-1.233,1.895-2.404c-17.613-2.767-33.691-8.293-48.311-17.825
	c-0.26,0.391-0.521,0.781-0.781,1.172c4.853,5.542,9.706,11.085,14.559,16.627c-0.151,0.367-0.302,0.734-0.453,1.102
	c-3.852-0.6-7.802-0.84-11.538-1.862c-16.34-4.471-29.767-13.779-41.591-25.637c-1.067-1.071-2.179-2.097-3.271-3.144
	c0.82,3.209,2.309,5.769,3.808,8.322c1.438,2.448,2.885,4.89,4.896,8.296c-30.889-3.223-51.753-20.091-69.173-42.687
	c3.112,13.903,11.104,24.398,22.228,32.887c-10.097-0.433-19.315-3.194-28.379-6.538c-7.631-2.816-15.548-5.178-21.562-11.074
	c-4.511-4.422-8.963-8.928-13.131-13.668c-3.981-4.528-7.562-9.409-11.974-14.959c1.058,6.01,4.503,10.265,4.507,15.758
	c-0.871-0.325-1.475-0.359-1.74-0.678c-4.473-5.367-9.469-10.401-13.247-16.225c-17.407-26.832-26.681-56.583-28.694-88.292
	c-1.688-26.585-1.725-53.276-2.522-79.92c-0.068-2.258-0.362-4.511-0.578-7.083c-11.585,4.342-21.554,11.958-34.85,11.152
	c0.765-1.333,1.053-1.912,1.408-2.446c6.262-9.429,12.783-18.695,18.747-28.307c11.111-17.908,17.196-37.367,17.263-58.607
	c0.028-8.991,0.112-18.012,0.85-26.963c1.769-21.468,5.751-42.577,12.266-63.113c4.366-13.763,8.506-27.733,14.492-40.811
	c6.28-13.72,13.887-26.986,22.22-39.586C141.504,61.156,207.666,19.024,290.889,2.966C295.917,1.997,300.938,0.99,305.961,0z
	 M279.459,509.762c3,16,12.937,34.519,23.889,46.246c3.657,3.916,7.847,6.355,12.84,8.147c29.058,10.431,59,16.63,89.779,18.259
	c14.115,0.748,28.307,0.072,42.463-0.044c1.902-0.016,4.021,0.214,5.158-2.144c2.672-5.537,7.551-8.768,12.709-11.581
	c11.939-6.509,24.683-10.841,37.984-13.516c14.96-3.009,29.943-4.925,44.99-0.295c1.072,0.33,2.714-0.09,3.699-0.748
	c7.983-5.333,14.889-11.691,19.429-20.381c5.738-10.988,5.359-22.4,3.086-34.109c-2.536-13.063-3.087-26.082,1.306-38.982
	c3.543-10.401,6.765-20.911,10.1-31.382c0.474-1.486,0.776-3.027,1.158-4.542c-4.695,2.278-6.225,7.492-10.658,9.632
	c-0.403-0.565-0.732-0.817-0.749-1.086c-0.07-1.16-0.076-2.325-0.057-3.488c0.199-11.695-3.198-22.313-9.658-31.987
	c-1.661-2.49-3.759-4.54-7.477-5.872c0.303,2.015,0.432,3.417,0.737,4.78c0.475,2.111,1.301,4.165,1.581,6.294
	c3.005,22.918,1.002,45.208-8.632,66.489c-3.697,8.167-8.556,15.501-16.179,20.522c-9.078,5.981-17.912,3.683-23.186-5.796
	c-2.887-5.186-4.193-10.818-4.892-16.665c-1.666-13.943-0.01-27.615,3.427-41.101c2.206-8.653,3.974-17.566,7.459-25.71
	c5.288-12.356,14.899-21.245,27.102-26.824c12.263-5.607,21.646-2.988,30.072,7.555c1.247,1.561,2.372,3.217,3.597,4.796
	c0.62,0.801,1.338,1.527,2.5,2.835c0.315-2.103,0.621-3.379,0.684-4.667c0.847-17.434-1.311-34.577-4.921-51.596
	c-0.637-3-2.599-4.339-5.114-4.669c-6.573-0.865-13.181-1.646-19.799-1.954c-4.563-0.214-4.545,0.401-6.134,4.88
	c-3.559,10.028-7.209,20.031-11.166,29.905c-1.27,3.167-4.05,5.718-5.394,8.869c-5.07,11.888-13.646,20.765-23.811,28.246
	c-2.957,2.175-6.543,3.492-9.842,5.202c-0.33-0.339-0.66-0.677-0.989-1.016c1.997-7.861,7.107-14.577,9.726-23.431
	c-21.927,27.508-42.775,28.515-69.403,26.696c4.269-18.585,6.979-37.313,6.487-56.378c-2.792,6.257-5.119,12.613-7.722,18.853
	c-4.035,9.674-10.018,18.01-17.938,24.905c-1.246,1.086-2.705,1.927-4.065,2.88c-0.314-0.228-0.63-0.456-0.944-0.685
	c11.933-47.5,9.369-95.315,4.453-143.182c-0.331-0.041-0.662-0.083-0.993-0.125c-9.186,16.359-18.371,32.719-27.749,49.421
	c10.014,2.119,19.606,3.651,26.308,12.967c-1.999-0.163-3.104-0.17-4.179-0.354c-7.712-1.325-15.473-2.442-23.104-4.134
	c-4.018-0.891-6.335,0.188-8.872,3.36c-14.624,18.279-31.027,34.777-49.992,48.619c-0.645,0.471-1.122,1.17-1.889,1.987
	c0.757,0.067,0.932,0.132,1.073,0.087c1.425-0.449,2.837-0.947,4.27-1.375c17.63-5.26,35.13-5.382,52.38,1.554
	c1.943,0.781,4.156,1.889,5.295,3.512c5.241,7.471,5.993,16.122,6.415,25.685c-4.993-3.12-8.272-7.583-14.322-8.332
	c1.016,2.547,1.688,4.243,2.368,5.936c8.669,21.604,9.14,43.507,1.943,65.525c-3.753,11.486-9.886,21.546-20.431,28.141
	c-22.238,13.906-52.087,4.772-63.512-19.457c-6.033-12.795-7.779-26.422-7.05-40.446c0.098-1.877,0.014-3.765,0.014-5.649
	c-1.292,0.658-1.909,1.444-2.083,2.319c-0.777,3.908-1.529,7.826-2.094,11.769c-0.556,3.881-1.299,4.384-4.667,2.266
	c-1.958-1.231-3.757-2.753-5.492-4.297c-7.766-6.912-8.73-12.651-3.573-21.604c5.162-8.962,10.696-17.664,18.189-24.937
	c0.779-0.755,1.357-1.718,2.401-3.067c-1.086,0.194-1.554,0.199-1.956,0.362c-7.847,3.192-15.646,6.505-23.546,9.558
	c-3.061,1.183-3.773,3.239-3.742,6.19c0.252,24.152,3.227,47.841,11.702,70.628c8.663,23.293,21.53,43.524,42.177,58.124
	c0.432,0.305,0.604,0.978,1.171,1.945C305.908,529.224,292.241,521.859,279.459,509.762z M259.727,790.181
	c-6.907,1.04-13.131,1.897-19.327,2.924c-21.515,3.563-43.014,7.219-64.53,10.77c-18.877,3.116-37.773,6.122-56.654,9.216
	c-3.498,0.572-5.666,2.665-6.215,6.223c-0.3,1.944-0.152,3.983-0.006,5.965c0.967,13.123,1.948,26.246,3.002,39.362
	c1.402,17.435,2.826,34.868,4.33,52.294c1.948,22.57,3.969,45.133,6,67.694c0.283,3.14,0.535,6.324,1.283,9.37
	c0.954,3.879,3.265,5.199,7.056,4.413c4.89-1.014,9.745-2.194,14.623-3.268c23.089-5.077,46.17-10.193,69.276-15.193
	c13.185-2.852,26.414-5.498,39.619-8.257c2.148-0.449,4.244-0.633,3.125-4.06c-5.644-17.29-7.102-35.223-7.423-53.25
	c-0.619-34.692,1.819-69.26,4.609-103.809C259.027,803.99,259.299,797.384,259.727,790.181z M351.079,747.341
	c-0.578-0.152-1.155-0.306-1.733-0.458c0.698-3.513,0.91-7.218,2.2-10.497c2.491-6.335,5.366-12.547,8.522-18.579
	c1.838-3.516,1.783-6.319-0.291-9.69c-5.233-8.503-10.282-17.126-15.123-25.856c-1.663-3.001-3.439-6.457-3.471-9.721
	c-0.048-4.819-1.448-8.997-4.071-12.564c-5.406-7.351-10.972-14.659-17.196-21.306c-3.669-3.918-8.691-6.589-13.172-9.723
	c-2.86-2-5.335-1.365-8.117,0.784c-9.988,7.717-15.733,17.743-17.981,30.106c-3.166,17.404-3.572,34.052,5.993,50.239
	c15.472,26.182,32.683,51.023,53.122,73.52c5.89,6.482,12.691,12.278,19.69,17.577c9.109,6.897,18.202,6.595,27.832,0.283
	c8.117-5.319,14.245-12.458,19.05-20.804c6.702-11.647,10.972-24.255,14.241-37.191c4.444-17.589,8.733-35.222,12.749-52.913
	c1.667-7.341,5.159-12.764,12.055-16.071c3.127-1.5,6.073-3.5,8.825-5.631c3.139-2.431,6.235-5.024,8.865-7.98
	c2.854-3.208,4.124-7.227,3.318-11.612c-0.598-3.255-1.259-6.508-2.11-9.703c-0.982-3.69-2.063-7.37-3.403-10.941
	c-0.48-1.279-1.643-2.576-2.839-3.254c-2.16-1.225-2.473-2.531-1.838-4.896c1.704-6.341-1.418-10.126-7.96-9.658
	c-2.948,0.21-5.878,1.023-8.757,1.786c-2.405,0.638-4.699,1.687-7.092,2.381c-1.016,0.295-2.159,0.151-3.244,0.206
	c0.243-1.194,0.256-2.504,0.781-3.559c0.958-1.922,2.221-3.694,3.749-6.163c-1.613,0.122-2.136,0.027-2.514,0.218
	c-0.884,0.447-1.807,0.914-2.524,1.578c-11.209,10.38-21.559,21.211-24.791,37.079c-3.02,14.831-9.737,28.281-17.219,41.311
	c-10.357,18.04-20.881,35.982-31.312,53.979C353.841,742.155,352.488,744.764,351.079,747.341z M519.124,994.996
	c0.213,0.24,0.427,0.48,0.64,0.722c0.763-0.232,1.563-0.383,2.282-0.71c13.932-6.322,27.932-12.5,41.743-19.078
	c6.508-3.101,7.999-2.905,11.092,3.723c0.211,0.452,0.418,0.907,0.639,1.355c7.716,15.674,14.911,31.631,23.265,46.957
	c14.419,26.454,29.656,52.461,44.339,78.773c4.81,8.621,11.467,14.773,21,17.213c10.467,2.678,21.007,5.246,31.661,6.949
	c6.491,1.038,13.357,1.122,19.879,0.276c12.301-1.595,14.778-8.199,6.923-17.647c-4.674-5.622-9.948-10.751-15.019-16.039
	c-11.122-11.599-21.628-23.757-27.669-38.829c-5.196-12.96-9.453-26.304-13.928-39.546c-8.743-25.865-17.186-51.834-26.103-77.64
	c-3.092-8.947-6.835-17.753-12.686-25.37c-5.311-6.913-7.53-7.27-14.96-2.972c-12.16,7.035-23.432,15.386-33.715,24.864
	c-19.098,17.602-37.752,35.683-56.564,53.592C520.883,992.599,520.058,993.855,519.124,994.996z M499.596,1180.547
	c0.717,3.476,0.938,7.779,2.489,11.531c6.988,16.896,16.443,32.319,28.933,45.765c3.433,3.697,7.472,6.603,12.331,8.238
	c9.383,3.159,13.95,0.515,14.503-9.315c0.419-7.452-0.151-14.968-0.443-22.449c-0.417-10.649-1.127-21.289-1.444-31.941
	c-0.274-9.239,1.097-18.324,4.429-26.961c6.23-16.148,12.858-32.145,19.04-48.312c6.119-16.005,11.751-32.197,17.885-48.197
	c2.437-6.354,1.354-11.645-1.981-17.429c-6.9-11.961-13.157-24.293-19.616-36.506c-2.567-4.854-4.865-9.852-7.478-14.68
	c-2.033-3.756-2.513-3.796-6.269-2.155c-14.174,6.192-28.325,12.438-42.549,18.516c-2.492,1.066-3.139,2.031-1.415,4.314
	c3.993,5.294,4.539,11.27,3.296,17.596c-5.594,28.474-8.789,57.271-11.711,86.111c-1.779,17.563-3.747,35.109-7.9,52.331
	C500.685,1171.189,500.352,1175.537,499.596,1180.547z M182.164,1005.607c-9.048,0.553-15.561,0.663-22,1.407
	c-11.425,1.321-22.825,3.067-33.298,8.191c-2.417,1.183-4.676,3.177-6.331,5.321c-2.591,3.358-2.489,4.267,0.897,7.033
	c2.087,1.706,4.787,3.104,7.414,3.631c9.465,1.897,18.999,3.482,28.54,4.974c32.583,5.095,65.182,10.085,97.77,15.143
	c25.668,3.983,51.336,7.967,76.991,12.031c15.295,2.422,30.584,4.891,45.839,7.551c8.135,1.419,16.208,1.704,24.338,0.229
	c3.931-0.713,7.884-1.304,11.807-2.059c25.668-4.942,51.333-9.896,76.989-14.899c4.079-0.796,8.154-1.703,12.141-2.865
	c3.057-0.891,4.636-3.732,4.501-6.983c-0.127-3.043-2.347-3.855-4.701-4.273c-7.04-1.25-14.105-2.362-21.16-3.528
	c-3.309-0.547-6.18,0.287-8.841,2.383c-15.009,11.825-32.226,15.966-51.058,14.765c-26.983-1.722-53.7-5.184-79.988-11.632
	c-15.75-3.861-31.087-8.706-44.642-18.066c-1.808-1.247-4.282-1.758-6.526-2.109c-23.03-3.607-46.068-7.167-69.122-10.622
	C207.743,1009.134,193.731,1007.245,182.164,1005.607z M528.055,559.873c-17.393,1.07-34.047,4.843-49.882,11.914
	c-4.987,2.226-9.761,5.023-14.368,7.972c-3.763,2.408-5.509,5.825-4.246,10.698c2.337,9.02,3.938,18.232,6.339,27.233
	c4.081,15.293,9.193,30.247,15.674,44.723c2.594,5.793,6.771,9.357,12.965,10.556c2.12,0.41,4.265,0.864,6.412,0.951
	c17.739,0.718,34.328-3.337,49.874-11.939c9.065-5.017,13.297-12.411,13.17-22.84c-0.164-13.57-2.015-26.923-4.6-40.162
	c-1.91-9.787-4.679-19.408-7.114-29.089c-1.225-4.868-4.268-7.79-9.367-8.36C537.96,560.975,533.008,560.425,528.055,559.873z
	 M327.991,612.965c0.701,0.843,0.952,1.313,1.341,1.59c13.301,9.483,24.163,21.33,33.457,34.668c2.014,2.89,4.4,3.554,7.742,2.717
	c6.939-1.737,13.902-3.466,20.945-4.668c3.763-0.643,5.279-2.36,5.985-5.95c2.075-10.55,7.09-19.637,14.506-27.415
	c0.746-0.783,1.331-1.72,2.257-2.935c-3.649-1.335-6.801-2.917-10.132-3.533c-1.701-0.313-3.688,1.244-5.606,1.702
	c-2.095,0.5-4.25,0.88-6.396,1.013c-10.721,0.667-20.864-1.788-30.444-6.375c-5.949-2.848-11.602-6.315-17.995-9.84
	C341.337,602.625,335.651,608.655,327.991,612.965z M485.929,679.698c1.042,1.95,1.793,3.408,2.593,4.84
	c7.09,12.704,12.59,25.927,15.922,40.227c5.324,22.839,11.316,45.535,17.617,68.126c2.215,7.942,5.672,15.655,9.448,23.019
	c5.839,11.39,16.045,17.638,28.513,21.939c-0.422-1.39-0.58-2.148-0.876-2.85c-2.46-5.826-4.968-11.633-7.421-17.463
	c-18.194-43.257-36.461-86.487-54.465-129.824C495.134,682.593,492.082,679.967,485.929,679.698z M558.638,266.669
	c-0.602,1.182-0.948,1.562-0.978,1.966c-1.216,16.287-2.82,32.52-6.451,48.487c-0.572,2.521,0.956,2.771,2.947,2.425
	c5.775-1.007,11.558-1.526,17.367-0.165c1.047,0.245,2.146,0.266,3.851,0.463C571.001,301.566,565.662,284.232,558.638,266.669z
	 M600.538,374.983c-4.091,6.174-7.276,11.767-11.247,16.735c-3.396,4.248-3.095,8.12-0.588,12.263
	c0.776,1.285,2.187,2.187,3.307,3.263c0.909-1.219,2.305-2.315,2.646-3.676c2.093-8.34,3.963-16.736,5.858-25.125
	C600.696,377.633,600.538,376.747,600.538,374.983z M278.405,709.088c-1.549,16.195,7.821,33.256,18.573,34.233
	C290.874,732.07,284.855,720.977,278.405,709.088z M300.923,597.548c-0.326,0.207-0.653,0.414-0.98,0.621
	c2.994,4.272,5.933,8.585,9.049,12.766c0.387,0.521,1.873,0.73,2.562,0.429c2.522-1.104,4.922-2.485,7.715-3.942
	C312.784,603.931,306.853,600.739,300.923,597.548z M455.768,604.957c-0.496-2.489-0.783-4.787-1.477-6.953
	c-0.252-0.79-1.712-1.958-2.215-1.783c-4.47,1.551-8.914,3.281-11.324,8.736C445.924,604.957,450.581,604.957,455.768,604.957z
	 M576.212,590.871c-9.651,5.669-9.731,5.855-6.566,14.166C572.011,599.934,574.111,595.403,576.212,590.871z"/>
<path fill-rule="evenodd" clip-rule="evenodd" fill="none" d="M305.961,0c-5.023,0.99-10.045,1.997-15.073,2.966
	c-83.223,16.058-149.385,58.19-196.348,129.198c-8.333,12.6-15.94,25.866-22.22,39.586c-5.986,13.078-10.126,27.048-14.492,40.811
	c-6.515,20.537-10.497,41.646-12.266,63.113c-0.737,8.951-0.821,17.972-0.85,26.963c-0.067,21.24-6.152,40.699-17.263,58.607
	c-5.964,9.612-12.485,18.878-18.747,28.307c-0.355,0.534-0.644,1.112-1.408,2.446c13.296,0.806,23.265-6.81,34.85-11.152
	c0.216,2.572,0.51,4.825,0.578,7.083c0.798,26.644,0.835,53.334,2.522,79.92c2.013,31.71,11.288,61.461,28.694,88.292
	c3.778,5.824,8.774,10.858,13.247,16.225c0.265,0.318,0.869,0.353,1.74,0.678c-0.004-5.493-3.449-9.748-4.507-15.758
	c4.412,5.55,7.993,10.431,11.974,14.959c4.168,4.741,8.621,9.246,13.131,13.668c6.014,5.896,13.931,8.258,21.562,11.074
	c9.064,3.344,18.282,6.105,28.379,6.538c-11.124-8.489-19.115-18.984-22.228-32.887c17.42,22.596,38.284,39.464,69.173,42.687
	c-2.011-3.406-3.459-5.848-4.896-8.296c-1.499-2.554-2.987-5.113-3.808-8.322c1.092,1.047,2.204,2.073,3.271,3.144
	c11.824,11.858,25.251,21.166,41.591,25.637c3.736,1.022,7.686,1.262,11.538,1.862c0.151-0.367,0.302-0.734,0.453-1.102
	c-4.853-5.542-9.706-11.085-14.559-16.627c0.261-0.391,0.521-0.781,0.781-1.172c14.62,9.531,30.698,15.058,48.311,17.825
	c-0.915,1.171-1.341,1.851-1.895,2.404c-9.172,9.187-14.172,20.407-16.146,33.098c-0.461,2.964-0.844,5.939-1.244,8.911
	c-0.641,4.753-1.375,5.598-6.136,6.275c-7.25,1.031-14.521,1.92-21.776,2.922c-27.708,3.823-55.412,7.691-83.123,11.497
	c-15.831,2.174-31.67,4.295-47.516,6.365c-4.973,0.649-8.792-2.21-9.628-7.276c-0.732-4.429-1.144-8.911-1.675-13.373
	c-0.098-0.826,0.008-1.685-0.156-2.491c-1.635-8.069-4.548-13.13-14.42-12.36c-12.773,0.996-25.49,2.741-38.222,4.233
	c-1.468,0.172-2.895,0.756-4.322,1.206c-5.587,1.76-8.694,5.499-8.562,11.439c0.132,5.988,0.396,11.982,0.874,17.953
	c1.45,18.095,3.038,36.18,4.561,54.27c3.004,35.689,6.062,71.373,8.983,107.07c2.854,34.867,5.491,69.754,8.361,104.621
	c2.761,33.535,5.744,67.054,8.544,100.588c1.941,23.241,3.704,46.496,5.608,69.741c1.904,23.238,3.947,46.465,5.812,69.707
	c1.372,17.104,2.539,34.225,3.826,51.336c0.687,9.134,1.372,18.269,2.175,27.393c0.66,7.486,4.375,12.025,11.806,13.571
	c15.05,3.132,30.139,2.872,45.052-0.891c6.871-1.734,10.41-6.777,10.046-14.196c-0.618-12.644-1.541-25.271-2.422-37.9
	c-3.001-43.044-6.046-86.083-9.052-129.127c-0.186-2.656-0.281-5.329-0.245-7.991c0.079-5.849,2.36-7.806,8.187-6.902
	c9.71,1.505,19.404,3.11,29.1,4.708c38.294,6.308,76.586,12.629,114.879,18.945c15.941,2.63,31.884,5.247,47.821,7.902
	c1.306,0.218,2.57,0.685,3.857,1.023c3.677,0.967,5.517,3.292,5.807,7.141c0.913,12.123,2.092,24.227,2.934,36.353
	c1.927,27.755,3.709,55.519,5.561,83.278c1.486,22.273,2.964,44.547,4.503,66.816c0.276,3.984,0.678,7.974,1.311,11.915
	c0.967,6.019,2.75,7.383,8.97,7.384c16.664,0.003,33.328,0.011,49.993-0.005c5.771-0.006,8.323-1.904,9.054-7.654
	c0.542-4.267,0.507-8.65,0.291-12.961c-1.554-31.116-3.229-62.226-4.847-93.339c-1.426-27.45-2.835-54.901-4.222-82.353
	c-0.118-2.326-0.188-4.682,0.042-6.99c0.47-4.711,2.729-7.319,7.229-8.311c19.021-4.19,38.055-8.323,57.091-12.447
	c4.191-0.908,8.408-1.7,12.961-2.616c0,2.085,0.148,3.708-0.023,5.296c-1.612,14.907-3.154,29.823-6.799,44.424
	c-3.466,13.882-1.688,26.986,5.394,39.547c6.476,11.486,13.172,22.789,21.648,32.93c5.169,6.183,10.961,11.647,18.474,14.976
	c4.654,2.062,9.478,3.168,14.582,2.634c6.986-0.731,12.052-4.299,13.87-11.105c1.274-4.769,1.986-9.852,1.916-14.78
	c-0.144-10.151-0.623-20.328-1.607-30.433c-1.866-19.174,0.605-37.556,8.669-55.118c0.555-1.209,0.97-2.481,1.478-3.714
	c4.952-12.012,9.979-23.993,14.819-36.05c1.241-3.09,2.932-4.851,6.439-5.199c3.788-0.377,7.498-1.475,11.26-2.168
	c4.488-0.827,5.727,0.156,6.01,4.71c1.935,31.097,3.876,62.193,5.775,93.292c1.423,23.281,2.783,46.566,4.18,69.849
	c0.519,8.643,3.408,12.339,11.875,14.323c14.817,3.471,29.67,4.104,44.313-0.872c7.418-2.521,10.175-6.38,10.093-14.181
	c-0.087-8.158-0.537-16.317-0.984-24.467c-1.764-32.104-3.593-64.202-5.388-96.304c-0.291-5.207-0.136-5.031,5.231-4.688
	c8.618,0.551,17.29,1.141,25.891,0.72c4.287-0.21,8.818-2.001,12.622-4.164c9.135-5.193,11.489-14.082,6.03-23.046
	c-3.088-5.068-7.14-9.599-11.083-14.086c-7.362-8.379-15.009-16.509-22.433-24.836c-1.762-1.976-3.125-4.309-4.643-6.498
	c-0.912-1.315-0.843-2.459,0.686-3.313c5.753-3.222,7.019-8.659,6.747-14.561c-0.612-13.309-1.458-26.606-2.233-39.906
	c-0.097-1.662-0.433-3.312-0.493-4.973c-0.274-7.517-4.563-11.997-11.252-14.269c-6.617-2.246-13.36-4.149-20.116-5.942
	c-3.431-0.91-5.416-2.669-6.304-6.188c-1.301-5.164-2.859-10.278-4.636-15.299c-0.979-2.766-0.677-5.041,0.644-7.57
	c4.341-8.313,7.534-17.043,8.989-26.354c1.861-11.919-0.616-22.804-7.559-32.72c-8.699-12.422-20.502-21.332-33.152-29.188
	c-15.758-9.788-32.603-17.39-50.044-23.652c-2.497-0.897-4.283-2.005-5.403-4.609c-13.231-30.746-26.614-61.427-39.869-92.161
	c-8.573-19.878-17.006-39.817-25.49-59.732c-0.583-1.366-1.077-2.77-1.851-4.772c2.091-0.227,3.83-0.473,5.576-0.596
	c14.321-0.997,27.852-4.862,40.646-11.298c2.665-1.341,5.197-2.992,7.646-4.708c8.833-6.189,13.415-14.812,13.237-25.523
	c-0.146-8.81-1.021-17.612-1.734-26.404c-0.381-4.677-0.504-4.579,3.899-6.259c10.327-3.937,18.885-10.395,26.114-18.677
	c2.69-3.083,5.318-6.219,8.355-9.081c-0.3,13.453-6.92,24.229-14.527,34.961c7.586-0.673,12.37-5.552,17.577-9.515
	c8.615-6.558,14.268-15.448,19.961-24.559c13.452-21.526,18.021-45.525,21.189-70.023c5.146-39.761,5.842-79.729,4.973-119.733
	c-0.183-8.435,1.652-16.087,5.1-23.592c2.147-4.674,4.003-9.48,6.067-14.194c0.854-1.949,1.913-3.809,2.936-5.82
	c10.013,4.002,17.046,14.104,29.643,12.888c-0.712-1.465-1.026-2.392-1.561-3.167c-6.401-9.268-10.288-19.777-14.6-30.039
	c-4.304-10.248-4.97-21.312-6.315-32.224c-1.608-13.048-3.364-26.096-5.657-39.038c-2.497-14.088-5.606-28.072-8.594-42.069
	c-2.462-11.53-4.448-23.232-10.647-33.586c-1.241-8.696-6.191-16.133-8.332-24.557c-0.966-3.801-3.073-7.321-4.753-10.928
	c-1.759-3.772-3.935-7.38-5.379-11.264c-2.819-7.583-6.902-14.381-11.748-20.785c-0.602-0.794-1.344-1.604-1.591-2.523
	c-1.609-5.988-6.147-9.773-10.273-13.858C561.711,46.771,501.271,15.803,431.643,2.424C427.411,1.612,423.18,0.809,418.947,0
	C535.6,0,652.251,0,768.903,0c0,448.277,0,896.555,0,1344.832c-256.301,0-512.602,0-768.903,0C0,896.555,0,448.277,0,0
	C101.987,0,203.975,0,305.961,0z"/>
<path fill-rule="evenodd" clip-rule="evenodd" fill="none" d="M279.459,509.762c12.782,12.097,26.449,19.461,44.147,18.343
	c-0.566-0.967-0.739-1.64-1.171-1.945c-20.647-14.6-33.515-34.831-42.177-58.124c-8.475-22.787-11.449-46.476-11.702-70.628
	c-0.031-2.952,0.681-5.007,3.742-6.19c7.9-3.053,15.7-6.366,23.546-9.558c0.402-0.163,0.87-0.168,1.956-0.362
	c-1.043,1.349-1.622,2.312-2.401,3.067c-7.493,7.273-13.027,15.975-18.189,24.937c-5.157,8.952-4.193,14.691,3.573,21.604
	c1.735,1.544,3.534,3.066,5.492,4.297c3.368,2.118,4.111,1.615,4.667-2.266c0.565-3.943,1.317-7.861,2.094-11.769
	c0.174-0.875,0.792-1.661,2.083-2.319c0,1.884,0.084,3.771-0.014,5.649c-0.729,14.024,1.017,27.651,7.05,40.446
	c11.424,24.229,41.273,33.363,63.512,19.457c10.544-6.595,16.678-16.655,20.431-28.141c7.196-22.018,6.726-43.921-1.943-65.525
	c-0.68-1.693-1.353-3.389-2.368-5.936c6.05,0.749,9.329,5.212,14.322,8.332c-0.422-9.563-1.174-18.214-6.415-25.685
	c-1.139-1.623-3.352-2.73-5.295-3.512c-17.25-6.937-34.75-6.814-52.38-1.554c-1.433,0.428-2.845,0.926-4.27,1.375
	c-0.142,0.045-0.316-0.021-1.073-0.087c0.767-0.817,1.244-1.517,1.889-1.987c18.964-13.842,35.368-30.34,49.992-48.619
	c2.537-3.172,4.854-4.251,8.872-3.36c7.632,1.692,15.393,2.81,23.104,4.134c1.074,0.185,2.18,0.191,4.179,0.354
	c-6.701-9.316-16.294-10.848-26.308-12.967c9.378-16.703,18.563-33.062,27.749-49.421c0.331,0.042,0.662,0.084,0.993,0.125
	c4.916,47.867,7.479,95.683-4.453,143.182c0.314,0.229,0.63,0.457,0.944,0.685c1.36-0.954,2.819-1.794,4.065-2.88
	c7.92-6.895,13.902-15.23,17.938-24.905c2.603-6.24,4.93-12.595,7.722-18.853c0.492,19.065-2.219,37.792-6.487,56.378
	c26.628,1.819,47.477,0.813,69.403-26.696c-2.618,8.854-7.729,15.569-9.726,23.431c0.329,0.339,0.659,0.677,0.989,1.016
	c3.299-1.71,6.885-3.027,9.842-5.202c10.165-7.48,18.74-16.357,23.811-28.246c1.344-3.151,4.124-5.702,5.394-8.869
	c3.957-9.875,7.607-19.877,11.166-29.905c1.589-4.479,1.571-5.094,6.134-4.88c6.618,0.309,13.226,1.089,19.799,1.954
	c2.516,0.33,4.478,1.668,5.114,4.669c3.61,17.02,5.768,34.162,4.921,51.596c-0.063,1.287-0.368,2.563-0.684,4.667
	c-1.162-1.309-1.88-2.035-2.5-2.835c-1.225-1.579-2.35-3.236-3.597-4.796c-8.426-10.542-17.81-13.162-30.072-7.555
	c-12.202,5.579-21.813,14.468-27.102,26.824c-3.485,8.145-5.253,17.058-7.459,25.71c-3.437,13.486-5.093,27.157-3.427,41.101
	c0.698,5.847,2.005,11.479,4.892,16.665c5.273,9.479,14.107,11.777,23.186,5.796c7.623-5.021,12.481-12.355,16.179-20.522
	c9.634-21.281,11.637-43.571,8.632-66.489c-0.28-2.129-1.106-4.183-1.581-6.294c-0.306-1.363-0.435-2.765-0.737-4.78
	c3.718,1.332,5.815,3.381,7.477,5.872c6.46,9.674,9.857,20.292,9.658,31.987c-0.02,1.163-0.014,2.328,0.057,3.488
	c0.017,0.27,0.346,0.521,0.749,1.086c4.434-2.14,5.963-7.354,10.658-9.632c-0.382,1.515-0.685,3.056-1.158,4.542
	c-3.335,10.471-6.557,20.98-10.1,31.382c-4.393,12.9-3.842,25.919-1.306,38.982c2.273,11.708,2.652,23.121-3.086,34.109
	c-4.54,8.69-11.445,15.048-19.429,20.381c-0.985,0.658-2.627,1.078-3.699,0.748c-15.047-4.63-30.03-2.714-44.99,0.295
	c-13.302,2.674-26.045,7.007-37.984,13.516c-5.158,2.813-10.037,6.044-12.709,11.581c-1.138,2.358-3.256,2.128-5.158,2.144
	c-14.156,0.116-28.348,0.792-42.463,0.044c-30.779-1.629-60.721-7.828-89.779-18.259c-4.994-1.792-9.184-4.232-12.84-8.147
	C292.396,544.281,282.459,525.762,279.459,509.762z M492.983,492.974c-0.807,0.884-1.571,1.361-1.76,2.006
	c-0.368,1.259-0.626,2.625-0.535,3.919c0.092,1.315,0.658,2.597,1.018,3.895c1.376-0.715,3.346-1.099,3.974-2.228
	c0.756-1.361,0.739-3.448,0.344-5.044C495.785,494.559,494.193,493.93,492.983,492.974z"/>
<path fill-rule="evenodd" clip-rule="evenodd" fill="none" d="M259.727,790.181c-0.428,7.203-0.7,13.81-1.231,20.395
	c-2.791,34.549-5.228,69.116-4.609,103.809c0.321,18.027,1.78,35.96,7.423,53.25c1.118,3.427-0.978,3.61-3.125,4.06
	c-13.205,2.759-26.435,5.405-39.619,8.257c-23.106,5-46.187,10.116-69.276,15.193c-4.878,1.073-9.733,2.254-14.623,3.268
	c-3.791,0.786-6.102-0.534-7.056-4.413c-0.749-3.046-1-6.23-1.283-9.37c-2.031-22.562-4.053-45.124-6-67.694
	c-1.504-17.426-2.928-34.859-4.33-52.294c-1.055-13.116-2.035-26.239-3.002-39.362c-0.146-1.981-0.294-4.021,0.006-5.965
	c0.549-3.558,2.717-5.65,6.215-6.223c18.881-3.094,37.777-6.1,56.654-9.216c21.516-3.551,43.015-7.207,64.53-10.77
	C246.596,792.078,252.82,791.221,259.727,790.181z"/>
<path fill-rule="evenodd" clip-rule="evenodd" fill="none" d="M351.079,747.341c1.409-2.577,2.762-5.186,4.234-7.727
	c10.431-17.997,20.955-35.939,31.312-53.979c7.481-13.03,14.199-26.48,17.219-41.311c3.232-15.867,13.582-26.699,24.791-37.079
	c0.718-0.664,1.641-1.131,2.524-1.578c0.378-0.19,0.9-0.096,2.514-0.218c-1.528,2.469-2.791,4.241-3.749,6.163
	c-0.525,1.055-0.538,2.365-0.781,3.559c1.085-0.055,2.229,0.089,3.244-0.206c2.393-0.694,4.687-1.744,7.092-2.381
	c2.879-0.763,5.809-1.576,8.757-1.786c6.542-0.468,9.664,3.317,7.96,9.658c-0.635,2.365-0.322,3.671,1.838,4.896
	c1.196,0.678,2.358,1.975,2.839,3.254c1.34,3.571,2.421,7.251,3.403,10.941c0.852,3.195,1.513,6.448,2.11,9.703
	c0.806,4.386-0.465,8.405-3.318,11.612c-2.63,2.956-5.727,5.549-8.865,7.98c-2.752,2.131-5.698,4.131-8.825,5.631
	c-6.896,3.308-10.388,8.73-12.055,16.071c-4.016,17.691-8.305,35.324-12.749,52.913c-3.27,12.937-7.539,25.544-14.241,37.191
	c-4.805,8.346-10.933,15.484-19.05,20.804c-9.63,6.312-18.723,6.614-27.832-0.283c-6.999-5.299-13.8-11.095-19.69-17.577
	c-20.439-22.496-37.65-47.338-53.122-73.52c-9.564-16.187-9.158-32.835-5.993-50.239c2.248-12.363,7.993-22.389,17.981-30.106
	c2.782-2.149,5.257-2.784,8.117-0.784c4.481,3.134,9.503,5.805,13.172,9.723c6.224,6.647,11.79,13.956,17.196,21.306
	c2.623,3.567,4.023,7.745,4.071,12.564c0.032,3.264,1.809,6.72,3.471,9.721c4.84,8.73,9.89,17.354,15.123,25.856
	c2.074,3.371,2.129,6.175,0.291,9.69c-3.156,6.032-6.032,12.244-8.522,18.579c-1.29,3.279-1.502,6.984-2.2,10.497
	C349.924,747.035,350.501,747.188,351.079,747.341z"/>
<path fill-rule="evenodd" clip-rule="evenodd" fill="none" d="M519.124,994.996c0.934-1.141,1.759-2.397,2.819-3.406
	c18.813-17.909,37.467-35.99,56.564-53.592c10.283-9.479,21.555-17.829,33.715-24.864c7.43-4.298,9.649-3.941,14.96,2.972
	c5.851,7.617,9.594,16.423,12.686,25.37c8.917,25.806,17.359,51.774,26.103,77.64c4.475,13.242,8.731,26.586,13.928,39.546
	c6.041,15.072,16.547,27.23,27.669,38.829c5.07,5.288,10.345,10.417,15.019,16.039c7.855,9.448,5.378,16.053-6.923,17.647
	c-6.521,0.846-13.388,0.762-19.879-0.276c-10.654-1.703-21.194-4.271-31.661-6.949c-9.533-2.439-16.19-8.592-21-17.213
	c-14.683-26.313-29.92-52.319-44.339-78.773c-8.354-15.326-15.549-31.283-23.265-46.957c-0.221-0.448-0.428-0.903-0.639-1.355
	c-3.093-6.628-4.584-6.823-11.092-3.723c-13.812,6.578-27.812,12.756-41.743,19.078c-0.72,0.327-1.52,0.478-2.282,0.71
	C519.551,995.477,519.337,995.236,519.124,994.996z"/>
<path fill-rule="evenodd" clip-rule="evenodd" fill="none" d="M499.596,1180.547c0.756-5.01,1.089-9.357,2.099-13.543
	c4.153-17.222,6.121-34.768,7.9-52.331c2.922-28.841,6.117-57.638,11.711-86.111c1.243-6.326,0.697-12.302-3.296-17.596
	c-1.724-2.283-1.077-3.248,1.415-4.314c14.224-6.078,28.375-12.323,42.549-18.516c3.756-1.641,4.235-1.601,6.269,2.155
	c2.612,4.828,4.91,9.826,7.478,14.68c6.459,12.213,12.716,24.545,19.616,36.506c3.335,5.784,4.418,11.074,1.981,17.429
	c-6.134,16-11.766,32.192-17.885,48.197c-6.182,16.167-12.81,32.163-19.04,48.312c-3.332,8.637-4.703,17.722-4.429,26.961
	c0.317,10.652,1.027,21.292,1.444,31.941c0.292,7.481,0.862,14.997,0.443,22.449c-0.553,9.83-5.12,12.475-14.503,9.315
	c-4.859-1.636-8.898-4.541-12.331-8.238c-12.489-13.445-21.944-28.868-28.933-45.765
	C500.533,1188.326,500.313,1184.022,499.596,1180.547z"/>
<path fill-rule="evenodd" clip-rule="evenodd" fill="none" d="M182.164,1005.607c11.567,1.638,25.58,3.526,39.56,5.621
	c23.053,3.455,46.091,7.015,69.122,10.622c2.244,0.352,4.718,0.862,6.526,2.109c13.555,9.36,28.892,14.205,44.642,18.066
	c26.289,6.448,53.005,9.91,79.988,11.632c18.832,1.201,36.049-2.939,51.058-14.765c2.661-2.096,5.532-2.93,8.841-2.383
	c7.055,1.166,14.12,2.278,21.16,3.528c2.354,0.418,4.574,1.23,4.701,4.273c0.135,3.251-1.444,6.093-4.501,6.983
	c-3.986,1.162-8.062,2.069-12.141,2.865c-25.656,5.004-51.321,9.957-76.989,14.899c-3.923,0.755-7.876,1.346-11.807,2.059
	c-8.131,1.475-16.203,1.189-24.338-0.229c-15.255-2.66-30.544-5.129-45.839-7.551c-25.655-4.064-51.323-8.048-76.991-12.031
	c-32.588-5.058-65.187-10.048-97.77-15.143c-9.541-1.491-19.074-3.076-28.54-4.974c-2.627-0.526-5.327-1.925-7.414-3.631
	c-3.386-2.767-3.488-3.675-0.897-7.033c1.654-2.145,3.913-4.139,6.331-5.321c10.473-5.124,21.873-6.87,33.298-8.191
	C166.603,1006.271,173.116,1006.16,182.164,1005.607z"/>
<path fill-rule="evenodd" clip-rule="evenodd" fill="none" d="M528.055,559.873c4.953,0.552,9.905,1.102,14.856,1.655
	c5.1,0.57,8.143,3.493,9.367,8.36c2.436,9.681,5.204,19.302,7.114,29.089c2.585,13.239,4.436,26.592,4.6,40.162
	c0.127,10.429-4.104,17.823-13.17,22.84c-15.546,8.603-32.135,12.657-49.874,11.939c-2.147-0.087-4.292-0.541-6.412-0.951
	c-6.193-1.198-10.371-4.762-12.965-10.556c-6.48-14.476-11.593-29.43-15.674-44.723c-2.401-9.001-4.002-18.214-6.339-27.233
	c-1.263-4.873,0.483-8.29,4.246-10.698c4.607-2.949,9.381-5.746,14.368-7.972C494.008,564.716,510.662,560.943,528.055,559.873z
	 M507.198,669.564c13.825-0.396,26.79-3.867,38.826-10.293c4.12-2.201,7.681-5.759,10.894-9.252
	c2.351-2.556,1.413-4.928-1.894-6.147c-2.472-0.912-5.109-1.582-7.726-1.858c-14.402-1.525-28.274,0.753-41.266,7.076
	c-4.698,2.287-9.118,5.516-12.977,9.063c-4.314,3.966-3.233,7.896,2.389,9.554C499.219,668.817,503.271,668.978,507.198,669.564z"/>
<path fill-rule="evenodd" clip-rule="evenodd" fill="none" d="M327.991,612.965c7.66-4.31,13.346-10.341,15.661-19.027
	c6.393,3.525,12.045,6.992,17.995,9.84c9.58,4.587,19.723,7.042,30.444,6.375c2.146-0.133,4.301-0.513,6.396-1.013
	c1.919-0.458,3.905-2.016,5.606-1.702c3.331,0.615,6.482,2.197,10.132,3.533c-0.926,1.215-1.511,2.152-2.257,2.935
	c-7.416,7.778-12.431,16.865-14.506,27.415c-0.706,3.59-2.223,5.308-5.985,5.95c-7.043,1.202-14.005,2.931-20.945,4.668
	c-3.342,0.836-5.728,0.173-7.742-2.717c-9.294-13.338-20.156-25.185-33.457-34.668C328.943,614.278,328.692,613.809,327.991,612.965
	z"/>
<path fill-rule="evenodd" clip-rule="evenodd" fill="none" d="M485.929,679.698c6.153,0.269,9.205,2.895,11.331,8.014
	c18.004,43.337,36.271,86.567,54.465,129.824c2.453,5.83,4.961,11.637,7.421,17.463c0.296,0.701,0.454,1.46,0.876,2.85
	c-12.468-4.302-22.674-10.55-28.513-21.939c-3.776-7.363-7.233-15.076-9.448-23.019c-6.301-22.591-12.293-45.287-17.617-68.126
	c-3.332-14.3-8.832-27.522-15.922-40.227C487.722,683.106,486.971,681.648,485.929,679.698z"/>
<path fill-rule="evenodd" clip-rule="evenodd" fill="none" d="M558.638,266.669c7.024,17.563,12.363,34.897,16.736,53.176
	c-1.705-0.197-2.804-0.218-3.851-0.463c-5.81-1.361-11.592-0.842-17.367,0.165c-1.991,0.347-3.52,0.096-2.947-2.425
	c3.631-15.967,5.235-32.2,6.451-48.487C557.689,268.231,558.036,267.851,558.638,266.669z"/>
<path fill-rule="evenodd" clip-rule="evenodd" fill="none" d="M600.538,374.983c0,1.763,0.158,2.65-0.024,3.459
	c-1.896,8.39-3.766,16.786-5.858,25.125c-0.341,1.36-1.736,2.457-2.646,3.676c-1.12-1.076-2.53-1.978-3.307-3.263
	c-2.507-4.143-2.808-8.015,0.588-12.263C593.262,386.75,596.447,381.157,600.538,374.983z"/>
<path fill-rule="evenodd" clip-rule="evenodd" fill="none" d="M278.405,709.088c6.45,11.889,12.469,22.982,18.573,34.233
	C286.226,742.344,276.855,725.283,278.405,709.088z"/>
<path fill-rule="evenodd" clip-rule="evenodd" fill="none" d="M300.923,597.548c5.93,3.191,11.861,6.383,18.345,9.874
	c-2.792,1.457-5.193,2.837-7.715,3.942c-0.689,0.302-2.175,0.092-2.562-0.429c-3.116-4.181-6.055-8.494-9.049-12.766
	C300.27,597.962,300.597,597.755,300.923,597.548z"/>
<path fill-rule="evenodd" clip-rule="evenodd" fill="none" d="M455.768,604.957c-5.187,0-9.844,0-15.016,0
	c2.41-5.456,6.854-7.186,11.324-8.736c0.503-0.175,1.963,0.993,2.215,1.783C454.984,600.17,455.271,602.467,455.768,604.957z"/>
<path fill-rule="evenodd" clip-rule="evenodd" fill="none" d="M576.212,590.871c-2.101,4.532-4.201,9.063-6.566,14.166
	C566.48,596.726,566.561,596.541,576.212,590.871z"/>
<path fill-rule="evenodd" clip-rule="evenodd" d="M492.983,492.974c1.21,0.957,2.802,1.585,3.04,2.548
	c0.396,1.596,0.412,3.683-0.344,5.044c-0.628,1.129-2.598,1.513-3.974,2.228c-0.359-1.298-0.926-2.58-1.018-3.895
	c-0.091-1.294,0.167-2.661,0.535-3.919C491.412,494.334,492.177,493.858,492.983,492.974z"/>
<path fill-rule="evenodd" clip-rule="evenodd" d="M507.198,669.564c-3.928-0.587-7.979-0.747-11.753-1.859
	c-5.622-1.658-6.703-5.587-2.389-9.554c3.858-3.547,8.278-6.776,12.977-9.063c12.991-6.323,26.863-8.601,41.266-7.076
	c2.616,0.276,5.254,0.946,7.726,1.858c3.307,1.219,4.244,3.591,1.894,6.147c-3.213,3.493-6.773,7.051-10.894,9.252
	C533.988,665.698,521.023,669.169,507.198,669.564z"/>
</svg>
