<?xml version="1.0" encoding="utf-8"?>
<!-- Generator: Adobe Illustrator 16.0.3, SVG Export Plug-In . SVG Version: 6.00 Build 0)  -->
<!DOCTYPE svg PUBLIC "-//W3C//DTD SVG 1.1//EN" "http://www.w3.org/Graphics/SVG/1.1/DTD/svg11.dtd">
<svg version="1.1" id="レイヤー_1" xmlns="http://www.w3.org/2000/svg" xmlns:xlink="http://www.w3.org/1999/xlink" x="0px"
	 y="0px" width="362.293px" height="638.338px" viewBox="0 0 362.293 638.338" enable-background="new 0 0 362.293 638.338"
	 xml:space="preserve">
<path fill-rule="evenodd" clip-rule="evenodd" d="M362.293,497.273c-2.126,4.204-5.684,5.609-10.238,6.228
	c-10.938,1.484-19.757-2.668-27.852-9.32c-1.022-0.841-2.077-1.644-3.905-3.085c0,3.059-0.111,5.224,0.017,7.373
	c1.448,24.311,2.968,48.617,4.392,72.929c0.519,8.855,0.869,17.721,1.226,26.584c0.234,5.825-1.076,7.561-6.712,9.019
	c-6.565,1.699-13.111,1.357-19.629-0.353c-3.185-0.835-4.687-2.784-4.882-6.153c-1.424-24.567-2.944-49.129-4.454-73.69
	c-0.113-1.851-0.379-3.691-0.589-5.677c-3.571-0.426-5.608,0.345-5.509,4.384c0.114,4.666-0.749,9.369-5.729,11.179
	c-5.082,1.845-9.873,0.052-13.911-3.271c-1.802-1.481-3.493-3.345-4.588-5.383c-1.634-3.041-3.842-1.914-6.111-1.534
	c-2.668,0.448-2.024,2.514-1.944,4.115c0.748,15.097,1.576,30.188,2.369,45.282c0.445,8.485-1.437,10.841-9.92,11.187
	c-4.452,0.182-8.978-0.309-13.402-0.956c-4.235-0.621-6.024-2.783-6.331-7.109c-0.921-12.954-1.71-25.917-2.58-38.874
	c-0.156-2.335-0.452-4.659-0.759-7.736c-7.198,1.619-14.012,2.971-20.678,4.844c-1.029,0.289-2.018,3-1.955,4.549
	c0.534,13.355,1.306,26.701,2.021,40.049c0.843,15.714,1.764,31.424,2.517,47.142c0.276,5.773-1.231,8.175-6.828,8.795
	c-6.378,0.708-12.918,0.697-19.322,0.182c-4.875-0.393-6.215-2.551-6.552-7.544c-1.833-27.168-3.65-54.338-5.481-81.506
	c-0.075-1.12-0.259-2.233-0.348-3.354c-0.784-9.934,0.328-8.915-10.401-10.693c-27.1-4.49-54.208-8.933-81.305-13.438
	c-7.774-1.293-8.218-1.122-7.68,6.779c1.323,19.439,2.872,38.864,4.27,58.3c0.483,6.724,0.761,13.462,1.187,20.19
	c0.249,3.924-1.71,5.98-5.354,6.925c-6.666,1.728-13.339,1.702-20.036,0.306c-3.921-0.817-5.865-3.139-6.16-7.277
	c-1.447-20.307-2.966-40.611-4.624-60.902c-2.512-30.744-5.18-61.476-7.744-92.215c-1.941-23.271-3.803-46.549-5.738-69.82
	c-1.562-18.79-3.174-37.575-4.775-56.362c-0.646-7.584,0.667-9.428,8.116-10.518c5.058-0.739,10.153-1.323,15.251-1.658
	c4.888-0.322,6.788,1.423,7.488,6.305c0.39,2.718,0.362,5.533,1.095,8.144c0.297,1.057,2.233,2.518,3.237,2.385
	c24.362-3.226,48.7-6.641,73.338-10.063c-0.418-11.008,0.631-21.295,10.387-29.033c-13.054-4.768-23.032-12.414-29.526-23.602
	c-3.793-0.196-7.245-0.375-10.696-0.554c-0.252,0.267-0.504,0.535-0.756,0.802c3.887,3.575,7.774,7.149,11.733,10.79
	c-2.939,1.034-6.159-0.223-8.883-1.758c-3.434-1.935-6.43-4.664-9.548-7.133c-3.194-2.532-6.308-5.166-9.752-7.467
	c0.739,6.093,3.976,10.516,8.587,14.2c-16.67-2.537-28.67-12.244-39.498-24.592c1.391,2.915,2.782,5.83,4.172,8.745
	c-0.223,0.24-0.447,0.479-0.67,0.719c-3.737-3.695-8.056-6.969-11.103-11.165c-9.192-12.659-14.785-26.89-15.782-42.591
	c-0.791-12.458-0.943-24.957-1.384-37.438c-0.024-0.714-0.095-1.427-0.164-2.408c-7.073,2.152-13.527,5.958-21.91,5.721
	c4.536-5.299,8.52-9.708,12.228-14.338c6.868-8.576,11.167-17.951,11.066-29.421c-0.215-24.503,7.869-46.651,19.876-67.772
	c18.971-33.372,47.826-52.557,84.827-60.01c41-8.258,80.267-2.425,117.28,16.9c29.726,15.52,50.038,39.962,63.578,70.275
	c4.664,10.441,7.714,21.29,7.52,32.945c-0.119,7.096-0.162,14.332,1.08,21.269c0.982,5.481,3.821,10.67,6.141,15.853
	c1.154,2.577,2.99,4.848,4.598,7.383c-4.36,0.393-4.365,0.392-15.719-6.645c-2.428,5.394-5.192,10.647-7.086,16.199
	c-0.71,2.084,0.513,4.878,1.013,7.316c2.7,13.188,5.874,26.294,8.082,39.563c3.15,18.928,0.841,36.955-11.982,52.25
	c-2.98,3.555-7.015,6.272-10.765,9.112c-1.462,1.107-3.475,1.489-6.126,2.561c6.641-8.583,9.916-16.464,9.788-23.296
	c-2.47,2.957-4.587,5.766-7,8.29c-1.879,1.965-3.924,3.944-6.269,5.241c-2.407,1.331-2.424,2.903-2.186,5.206
	c0.677,6.554,1.192,13.128,1.573,19.707c0.411,7.074-3.325,11.928-9.215,15.047c-3.695,1.957-4.236,4.518-4.237,8.426
	c-0.005,11.705-0.284,23.438-1.198,35.103c-0.485,6.193-4.229,11.156-9.604,14.516c-3.327,2.079-6.888,2.844-10.666,0.957
	c-0.837-0.419-1.844-0.499-3.205-0.845c0.142,2.989,0.193,5.577,0.438,8.146c0.058,0.611,0.635,1.354,1.185,1.704
	c2.153,1.365,4.276,2.925,6.642,3.751c1.313,0.458,3.098-0.323,4.644-0.667c9.71-2.155,19.322-4.984,29.141-6.37
	c13.891-1.959,24.063,4.216,30.898,16.378c13.545,24.1,24.728,49.288,34.685,75.029c2.819,7.288,5.976,14.244,11.27,20.076
	C362.293,495.773,362.293,496.523,362.293,497.273z M133.685,235.23c0.464,3.902,1.392,7.23,1.134,10.464
	c-0.527,6.605,3.013,9.517,8.528,11.728c21.482,8.616,43.863,11.515,66.772,10.351c16.916-0.859,33.409-4.254,48.721-11.852
	c9.32-4.625,14.337-14.12,11.604-22.394c-1.998-6.05-1.504-11.763,0.023-17.609c1.536-5.879,3.219-11.72,4.836-17.578
	c-0.364,0.072-0.73,0.144-1.095,0.215c-0.581-1.436-1.31-2.832-1.704-4.317c-0.515-1.938-0.764-3.947-1.302-6.869
	c-1.599,7.674-2.356,14.273-4.421,20.436c-2.312,6.902-5.616,13.5-8.864,20.045c-1.654,3.333-4.864,5.139-8.704,4.572
	c-3.729-0.551-4.469-3.913-5.432-6.867c-0.348-1.063-0.593-2.174-0.749-3.282c-1.634-11.524-0.477-22.942,1.693-34.253
	c1.688-8.792,5.473-16.17,14.748-19.433c8.5-2.99,14.444-0.542,18.054,7.758c0.514,1.18,1.227,2.273,1.848,3.406
	c0.455-1.375,0.541-2.623,0.293-3.799c-2.038-9.629-4.099-19.253-6.255-28.856c-0.43-1.915-0.434-4.569-3.697-3.941
	c-3.375,0.649-7.813-1.251-9.234,4.044c-2.087,7.769-5.391,14.954-10.002,21.608c-3.909,5.64-8.577,10.831-12.079,12.888
	c2.342-7.322,4.966-15.533,7.592-23.744c-0.424-0.192-0.848-0.384-1.271-0.576c-8.129,13.364-17.597,25.255-32.978,30.79
	c2.048-2.28,4.013-4.468,5.979-6.657c-0.213-0.167-0.427-0.334-0.64-0.502c-6.398,3.508-12.797,7.016-19.195,10.524
	c0.771-3.21,2.14-5.436,3.143-7.814c2.987-7.091,2.323-14.458,1.191-21.775c-2.191-14.175-4.575-28.321-6.776-42.495
	c-0.729-4.688-1.141-9.426-1.764-14.709c-5.58,10.092-10.763,19.465-15.914,28.781c10.776,0.649,15.918,2.485,18.065,6.88
	c-5.994-0.995-11.723-1.826-17.396-2.94c-2.615-0.512-4.518-0.047-6.248,2.056c-10.876,13.209-24.188,23.206-39.829,30.17
	c-5.182,2.307-5.104,2.483-3.375,7.971c4.971-3.255,10.07-6.313,14.863-9.792c7.912-5.745,16.533-8.417,26.339-7.496
	c11.917,1.118,18.148,8.147,17.412,20.139c-0.421,6.851-0.818,13.709-1.536,20.532c-0.903,8.596-2.615,17.039-6.892,24.699
	c-3.719,6.662-8.93,9.04-16.025,6.203c-3.972-1.588-8.285-4.302-10.534-7.753c-3.241-4.975-5.418-10.917-6.829-16.743
	c-2.039-8.417-2.383-17.104,0.081-25.698c-0.335-0.17-0.669-0.34-1.004-0.509c-3.785,4.423-7.57,8.846-11.257,13.155
	c-0.987-1.539-2.255-3.517-3.523-5.495c-0.381,0.229-0.762,0.459-1.142,0.689c3.976,19.959,9.866,38.924,28.118,51.751
	C148.343,242.487,140.861,240.511,133.685,235.23z M249.212,442.423c-0.394,3.396-0.912,6.29-1.038,9.201
	c-0.768,17.826,3.049,35.019,7.908,51.96c2.044,7.128,5.246,13.963,8.354,20.731c1.63,3.551,4.461,6.46,8.663,7.064
	c2.384,0.343,4.844,0.213,5.292-3.146c2.632-19.666,5.425-39.31,7.904-58.993c1.451-11.516,2.628-23.075,3.526-34.646
	c0.525-6.769-0.218-13.596-3.628-19.641c-5.606-9.938-14.99-12.137-25.407-11.264c-14.593,1.224-28.827,4.355-42.826,8.656
	c-5.473,1.682-9.576,4.942-11.999,9.966c-6.767,14.033-13.313,28.174-19.905,42.291c-0.345,0.738-0.605,1.718-0.422,2.467
	c1.061,4.335,9.228,10.221,13.934,9.827c3.46-0.288,6.96-0.814,10.296-1.755c10.589-2.982,19.852-8.469,28.475-15.251
	c3.313-2.605,5.62-5.174,5.872-9.692C244.37,447.348,245.08,444.01,249.212,442.423z M165.18,357.111
	c-0.456-0.093-0.913-0.187-1.369-0.279c0.773-3.818,0.507-8.352,2.537-11.307c4.139-6.027,2.874-11.188-0.109-16.811
	c-0.922-1.737-1.347-3.748-1.914-5.659c-0.207-0.696-0.193-1.465-0.231-2.203c-0.059-1.11,0.373-2.57-0.179-3.28
	c-5.452-7.011-11.173-13.75-19.49-17.646c-5.672-2.657-7.868-2.137-11.067,3.331c-0.992,1.695-2.09,3.656-2.129,5.517
	c-0.117,5.555-0.449,11.261,0.601,16.655c2.358,12.113,8.115,23.01,14.125,33.638c4.224,7.47,8.897,14.766,14.101,21.582
	c7.912,10.364,18.995,10.595,27.781,1.078c2.019-2.188,3.95-4.557,5.425-7.127c8.39-14.624,13.392-30.39,15.529-47.098
	c0.088-0.68,0.962-1.329,1.583-1.859c4.646-3.968,9.321-7.903,15.006-12.709c1.821,1.242,4.693,3.292,7.664,5.187
	c1.445,0.921,3.001,1.902,4.637,2.254c12.012,2.58,23.306,0.644,33.439-6.345c2.163-1.49,4.477-4.229,4.81-6.657
	c1.517-11.035-0.054-21.909-3.381-32.51c-1.727-5.5-5.623-8.727-11.356-8.557c-6.674,0.199-13.415,0.682-19.963,1.913
	c-6.726,1.265-13.212,3.669-18.411,8.531c-2.962,2.77-3.203,6.784-1.844,10.149c2.452,6.072,4.372,12.37,6.244,18.654
	c0.344,1.154-0.188,3.319-1.057,3.89c-1.042,0.685-2.878,0.162-5.304,0.162c3.62-3.298,3.62-3.298-2.745-8.154
	c1.404-0.273,2.608-0.508,3.813-0.743c0.19-0.368,0.381-0.735,0.571-1.103c-1.722-1.36-3.443-2.722-5.515-4.359
	c1.01-0.51,1.96-0.989,2.906-1.474c-0.835-2.914-0.835-2.914-9.686-2.321c2.416-2.257,4.292-4.009,6.181-5.773
	c-4.319-3.443-6.852-3.244-10.343,0.45c-1.188,1.258-2.492,2.476-3.939,3.41c-5.953,3.843-9.595,9.323-11.7,15.961
	c-1.651,5.207-2.393,10.978-5.165,15.5C178.025,332.759,170.278,344.174,165.18,357.111z M130.146,374.576
	c-1.818,0.126-2.891,0.114-3.934,0.285c-23.027,3.764-46.049,7.567-69.081,11.303c-2.868,0.466-4.126,1.801-3.87,4.787
	c1.064,12.432,1.98,24.876,3.048,37.308c1.185,13.8,2.396,27.599,3.765,41.38c0.464,4.678,1.176,4.601,5.731,3.494
	c12.814-3.115,25.66-6.16,38.605-8.647c6.371-1.224,12.929-1.267,17.377-7.032c0.587-0.761,1.504-1.356,2.387-1.782
	c2.39-1.154,2.572-2.73,1.789-5.159c-3.085-9.563-2.679-19.01,0.418-28.651c2.929-9.12,4.937-18.54,7.196-27.866
	c0.36-1.487,0.519-3.628-0.272-4.687C130.083,384.997,128.392,380.442,130.146,374.576z M250.733,398.814
	c0.169,0.197,0.339,0.395,0.508,0.593c4.694-0.263,9.394-0.816,14.082-0.736c16.443,0.281,26.371,8.038,28.617,24.21
	c1.249,8.994-0.234,18.358-0.354,27.558c-0.023,1.872-0.094,4.265,0.938,5.551c10.658,13.282,22.751,25.149,36.05,35.803
	c6.309,5.055,13.535,6.688,21.378,6.14c1.221-0.085,2.388-0.95,3.578-1.455c-0.46-0.955-0.891-1.926-1.386-2.861
	c-1.922-3.631-4.122-7.139-5.757-10.893c-8.009-18.396-15.546-37.004-23.913-55.231c-4.563-9.942-10.151-19.459-15.836-28.828
	c-3.686-6.074-9.696-9.169-16.918-9.604c-12.969-0.782-25.197,2.497-37.198,6.879C253.099,396.457,251.988,397.833,250.733,398.814z
	 M143.731,490.331c-2.241-0.314-3.669-0.531-5.101-0.713c-6.637-0.845-13.599,0.013-19.706-3.623
	c-8.006-4.767-16.798-6.983-25.942-7.891c-11.54-1.146-22.966-0.721-33.773,4.074c-1.468,0.651-2.394,2.526-3.571,3.835
	c1.371,1.057,2.612,2.744,4.136,3.06c6.099,1.266,12.279,2.148,18.441,3.096c30.425,4.679,60.851,9.35,91.283,13.979
	c5.792,0.882,11.766,2.802,17.388,2.1c11.954-1.491,23.759-4.267,35.554-6.841c1.871-0.409,3.373-2.51,5.045-3.828
	c-1.62-1.118-3.24-2.238-4.865-3.349c-0.097-0.066-0.241-0.059-0.359-0.096c-12.821-4.089-26.085-4.333-39.317-4.038
	c-13.45,0.3-26.957,0.67-39.978,4.816c-0.71,0.227-1.577-0.036-3.042-0.101C141.245,493.257,142.148,492.194,143.731,490.331z
	 M193.067,293.197c-2.71-4.964-6.734-5.793-11.153-5.531c-5.212,0.311-10.414,0.791-15.62,1.214
	c-3.396,0.276-6.789,0.583-10.639,0.916c0.629,1.181,0.774,1.877,1.2,2.182c3.737,2.681,7.458,5.397,11.343,7.854
	c1.002,0.634,2.661,0.774,3.852,0.477c5.911-1.479,11.788-3.113,17.627-4.859C190.881,295.089,191.87,294.016,193.067,293.197z
	 M127.111,83.492c0.533,0.243,1.065,0.486,1.598,0.73c6.054-23.497,21.01-41.291,36.62-58.737
	c-6.898,2.61-13.156,6.006-17.928,11.705c-6.57,7.847-11.168,16.801-14.454,26.399C130.709,70.124,129.036,76.851,127.111,83.492z
	 M299.309,487.323c3.134-0.68,6.325-1.168,9.385-2.097c2.566-0.779,2.852-2.55,0.98-4.504c-3.35-3.499-6.657-7.041-10.118-10.426
	c-2.84-2.778-6.824-1.652-7.759,2.188c-0.494,2.032-0.568,4.175-0.746,6.275C290.77,482.096,295.855,487.16,299.309,487.323z
	 M219.522,272.82c-3.664,1.249-6.635,3.083-9.624,3.115c-7.171,0.079-14.366-0.528-21.517-1.222
	c-1.938-0.188-2.97-0.017-3.094,1.866c-0.116,1.776-1.421,4.186,1.74,4.797c4.129,0.798,8.251,1.683,12.417,2.204
	c1.205,0.151,3.105-0.437,3.735-1.345c2.597-3.748,5.789-4.642,10.016-3.289c0.909,0.291,2.538-0.105,3.155-0.794
	C217.538,276.827,218.239,275.066,219.522,272.82z M140.11,275.065c1.82,2.416,3.462,4.594,5.579,7.402
	c-3.773-1.083-7.077-2.031-11.008-3.159c1.841,3.843,3.455,7.21,5.017,10.469c4.584-1.975,8.71-3.624,12.716-5.525
	c2.601-1.234,4.994-2.857,4.434-5.652C151.169,277.4,145.943,276.297,140.11,275.065z M271.015,138.822
	c-1.688-6.646-3.299-12.991-4.91-19.337c-0.192,0.038-0.384,0.077-0.576,0.115c-0.917,6.323-1.833,12.647-2.786,19.223
	C265.442,138.822,268.004,138.822,271.015,138.822z M240.605,325.596c0.756,3.269,1.39,6.004,2.023,8.74
	c0.277,0.003,0.555,0.007,0.833,0.011c0.916-2.827,1.832-5.653,2.837-8.751C244.152,325.596,242.589,325.596,240.605,325.596z"/>
<path fill-rule="evenodd" clip-rule="evenodd" fill="#FFFFFF" d="M133.685,235.23c7.176,5.281,14.658,7.257,23.37,6.107
	c-18.252-12.827-24.142-31.792-28.118-51.751c0.38-0.229,0.761-0.459,1.142-0.689c1.268,1.978,2.536,3.956,3.523,5.495
	c3.688-4.309,7.473-8.732,11.257-13.155c0.334,0.169,0.669,0.339,1.004,0.509c-2.463,8.595-2.119,17.281-0.081,25.698
	c1.411,5.826,3.588,11.769,6.829,16.743c2.249,3.452,6.562,6.166,10.534,7.753c7.096,2.837,12.307,0.458,16.025-6.203
	c4.276-7.66,5.988-16.103,6.892-24.699c0.718-6.822,1.115-13.681,1.536-20.532c0.736-11.992-5.495-19.021-17.412-20.139
	c-9.807-0.921-18.427,1.751-26.339,7.496c-4.792,3.479-9.892,6.537-14.863,9.792c-1.729-5.487-1.808-5.664,3.375-7.971
	c15.641-6.964,28.952-16.96,39.829-30.17c1.73-2.103,3.633-2.568,6.248-2.056c5.674,1.114,11.402,1.945,17.396,2.94
	c-2.147-4.396-7.289-6.231-18.065-6.88c5.151-9.316,10.334-18.689,15.914-28.781c0.623,5.283,1.035,10.021,1.764,14.709
	c2.201,14.174,4.585,28.32,6.776,42.495c1.132,7.318,1.796,14.685-1.191,21.775c-1.003,2.379-2.371,4.604-3.143,7.814
	c6.398-3.508,12.797-7.016,19.195-10.524c0.213,0.168,0.427,0.335,0.64,0.502c-1.966,2.188-3.931,4.376-5.979,6.657
	c15.381-5.535,24.849-17.426,32.978-30.79c0.424,0.192,0.848,0.384,1.271,0.576c-2.626,8.211-5.25,16.422-7.592,23.744
	c3.502-2.058,8.17-7.248,12.079-12.888c4.611-6.655,7.915-13.84,10.002-21.608c1.422-5.295,5.859-3.396,9.234-4.044
	c3.264-0.627,3.268,2.026,3.697,3.941c2.156,9.603,4.217,19.227,6.255,28.856c0.248,1.176,0.162,2.423-0.293,3.799
	c-0.621-1.133-1.334-2.227-1.848-3.406c-3.609-8.3-9.554-10.748-18.054-7.758c-9.275,3.263-13.061,10.641-14.748,19.433
	c-2.17,11.312-3.327,22.729-1.693,34.253c0.156,1.108,0.401,2.219,0.749,3.282c0.963,2.954,1.703,6.316,5.432,6.867
	c3.84,0.566,7.05-1.239,8.704-4.572c3.248-6.545,6.553-13.144,8.864-20.045c2.064-6.162,2.822-12.761,4.421-20.436
	c0.538,2.921,0.787,4.93,1.302,6.869c0.395,1.485,1.123,2.881,1.704,4.317c0.364-0.072,0.73-0.144,1.095-0.215
	c-1.617,5.857-3.3,11.698-4.836,17.578c-1.527,5.846-2.021,11.559-0.023,17.609c2.732,8.274-2.284,17.769-11.604,22.394
	c-15.312,7.598-31.805,10.993-48.721,11.852c-22.909,1.164-45.291-1.734-66.772-10.351c-5.515-2.211-9.055-5.123-8.528-11.728
	C135.077,242.46,134.149,239.132,133.685,235.23z"/>
<path fill-rule="evenodd" clip-rule="evenodd" fill="#FFFFFF" d="M249.212,442.423c-4.132,1.587-4.842,4.925-5.001,7.777
	c-0.252,4.519-2.559,7.087-5.872,9.692c-8.623,6.782-17.886,12.269-28.475,15.251c-3.336,0.94-6.836,1.467-10.296,1.755
	c-4.706,0.394-12.873-5.492-13.934-9.827c-0.184-0.749,0.077-1.729,0.422-2.467c6.593-14.117,13.139-28.258,19.905-42.291
	c2.423-5.023,6.526-8.284,11.999-9.966c13.999-4.301,28.233-7.433,42.826-8.656c10.417-0.873,19.801,1.326,25.407,11.264
	c3.41,6.045,4.153,12.872,3.628,19.641c-0.898,11.57-2.075,23.13-3.526,34.646c-2.479,19.684-5.272,39.327-7.904,58.993
	c-0.448,3.358-2.908,3.488-5.292,3.146c-4.202-0.604-7.033-3.514-8.663-7.064c-3.108-6.769-6.311-13.604-8.354-20.731
	c-4.859-16.941-8.676-34.134-7.908-51.96C248.3,448.713,248.818,445.82,249.212,442.423z"/>
<path fill-rule="evenodd" clip-rule="evenodd" fill="#FFFFFF" d="M165.18,357.111c5.099-12.937,12.846-24.352,20.057-36.112
	c2.772-4.522,3.514-10.293,5.165-15.5c2.105-6.639,5.747-12.119,11.7-15.961c1.447-0.934,2.751-2.152,3.939-3.41
	c3.491-3.693,6.023-3.893,10.343-0.45c-1.889,1.764-3.765,3.517-6.181,5.773c8.851-0.593,8.851-0.593,9.688,2.324
	c-0.948,0.482-1.898,0.961-2.908,1.471c2.071,1.637,3.793,2.999,5.515,4.359c-0.19,0.368-0.381,0.735-0.571,1.103
	c-1.204,0.235-2.408,0.47-3.813,0.743c6.365,4.855,6.365,4.855,2.745,8.154c2.426,0,4.262,0.523,5.304-0.162
	c0.869-0.57,1.4-2.735,1.057-3.89c-1.872-6.284-3.792-12.582-6.244-18.654c-1.359-3.366-1.118-7.379,1.844-10.149
	c5.199-4.862,11.686-7.266,18.411-8.531c6.548-1.231,13.289-1.714,19.963-1.913c5.733-0.17,9.63,3.056,11.356,8.557
	c3.327,10.602,4.897,21.476,3.381,32.51c-0.333,2.427-2.646,5.167-4.81,6.657c-10.134,6.988-21.428,8.925-33.439,6.345
	c-1.636-0.352-3.191-1.333-4.637-2.254c-2.971-1.895-5.843-3.944-7.664-5.187c-5.685,4.806-10.359,8.741-15.006,12.709
	c-0.621,0.53-1.495,1.18-1.583,1.859c-2.138,16.708-7.14,32.474-15.529,47.098c-1.475,2.57-3.406,4.939-5.425,7.127
	c-8.786,9.517-19.869,9.286-27.781-1.078c-5.203-6.816-9.876-14.112-14.101-21.582c-6.01-10.628-11.767-21.524-14.125-33.638
	c-1.05-5.394-0.718-11.1-0.601-16.655c0.039-1.861,1.137-3.822,2.129-5.517c3.199-5.468,5.395-5.988,11.067-3.331
	c8.317,3.896,14.038,10.634,19.49,17.646c0.552,0.71,0.12,2.17,0.179,3.28c0.039,0.738,0.024,1.507,0.231,2.203
	c0.566,1.911,0.991,3.922,1.914,5.659c2.983,5.622,4.248,10.783,0.109,16.811c-2.03,2.955-1.764,7.488-2.537,11.307
	C164.267,356.924,164.724,357.018,165.18,357.111z M273.89,308.155c-1.58-1.062-2.681-2.33-3.987-2.597
	c-11.217-2.293-21.787-0.573-31.393,5.807c-1.182,0.786-2.729,2.926-2.396,3.684c0.65,1.471,2.435,3.271,3.89,3.405
	c4.89,0.448,9.973,0.956,14.734,0.086C261.82,317.244,268.718,314.842,273.89,308.155z"/>
<path fill-rule="evenodd" clip-rule="evenodd" fill="#FFFFFF" d="M130.146,374.576c-1.755,5.866-0.064,10.421,3.16,14.731
	c0.791,1.059,0.632,3.199,0.272,4.687c-2.259,9.326-4.267,18.746-7.196,27.866c-3.097,9.642-3.504,19.088-0.418,28.651
	c0.783,2.429,0.601,4.005-1.789,5.159c-0.882,0.426-1.799,1.021-2.387,1.782c-4.449,5.766-11.006,5.809-17.377,7.032
	c-12.946,2.487-25.792,5.532-38.605,8.647c-4.555,1.106-5.267,1.184-5.731-3.494c-1.368-13.781-2.58-27.58-3.765-41.38
	c-1.068-12.432-1.983-24.876-3.048-37.308c-0.256-2.986,1.002-4.321,3.87-4.787c23.032-3.735,46.054-7.539,69.081-11.303
	C127.256,374.69,128.328,374.702,130.146,374.576z"/>
<path fill-rule="evenodd" clip-rule="evenodd" fill="#FFFFFF" d="M250.733,398.814c1.255-0.98,2.365-2.357,3.789-2.877
	c12.001-4.382,24.229-7.661,37.198-6.879c7.222,0.436,13.232,3.53,16.918,9.604c5.685,9.369,11.272,18.886,15.836,28.828
	c8.367,18.228,15.904,36.836,23.913,55.231c1.635,3.754,3.835,7.262,5.757,10.893c0.495,0.936,0.926,1.906,1.386,2.861
	c-1.19,0.505-2.357,1.37-3.578,1.455c-7.843,0.548-15.069-1.085-21.378-6.14c-13.299-10.653-25.392-22.521-36.05-35.803
	c-1.031-1.286-0.961-3.679-0.938-5.551c0.119-9.199,1.603-18.563,0.354-27.558c-2.246-16.172-12.174-23.929-28.617-24.21
	c-4.688-0.08-9.388,0.474-14.082,0.736C251.072,399.208,250.902,399.011,250.733,398.814z"/>
<path fill-rule="evenodd" clip-rule="evenodd" fill="#FFFFFF" d="M143.731,490.331c-1.583,1.863-2.486,2.927-3.808,4.481
	c1.464,0.064,2.331,0.327,3.042,0.101c13.021-4.146,26.528-4.517,39.978-4.816c13.232-0.295,26.496-0.051,39.317,4.038
	c0.118,0.037,0.263,0.029,0.359,0.096c1.625,1.11,3.245,2.23,4.865,3.349c-1.672,1.318-3.174,3.419-5.045,3.828
	c-11.795,2.574-23.6,5.35-35.554,6.841c-5.622,0.702-11.596-1.218-17.388-2.1c-30.432-4.63-60.857-9.301-91.283-13.979
	c-6.162-0.947-12.342-1.83-18.441-3.096c-1.524-0.315-2.765-2.003-4.136-3.06c1.177-1.309,2.103-3.184,3.571-3.835
	c10.807-4.795,22.233-5.22,33.773-4.074c9.145,0.907,17.937,3.124,25.942,7.891c6.107,3.636,13.069,2.778,19.706,3.623
	C140.062,489.799,141.49,490.016,143.731,490.331z"/>
<path fill-rule="evenodd" clip-rule="evenodd" fill="#FFFFFF" d="M193.067,293.197c-1.197,0.819-2.187,1.893-3.391,2.252
	c-5.839,1.747-11.716,3.38-17.627,4.859c-1.191,0.297-2.849,0.157-3.852-0.477c-3.884-2.456-7.605-5.172-11.343-7.854
	c-0.426-0.305-0.57-1.001-1.2-2.182c3.85-0.333,7.243-0.639,10.639-0.916c5.206-0.423,10.408-0.904,15.62-1.214
	C186.333,287.403,190.357,288.232,193.067,293.197z"/>
<path fill-rule="evenodd" clip-rule="evenodd" fill="#FFFFFF" d="M127.111,83.492c1.925-6.641,3.599-13.368,5.836-19.902
	c3.286-9.599,7.884-18.553,14.454-26.399c4.772-5.698,11.03-9.095,17.928-11.705c-15.61,17.446-30.566,35.24-36.62,58.737
	C128.176,83.978,127.644,83.735,127.111,83.492z"/>
<path fill-rule="evenodd" clip-rule="evenodd" fill="#FFFFFF" d="M299.309,487.323c-3.453-0.163-8.539-5.227-8.258-8.563
	c0.178-2.101,0.252-4.243,0.746-6.275c0.935-3.84,4.919-4.966,7.759-2.188c3.461,3.385,6.769,6.927,10.118,10.426
	c1.871,1.954,1.586,3.725-0.98,4.504C305.634,486.155,302.442,486.643,299.309,487.323z"/>
<path fill-rule="evenodd" clip-rule="evenodd" fill="#FFFFFF" d="M219.522,272.82c-1.283,2.246-1.984,4.007-3.171,5.332
	c-0.617,0.689-2.246,1.085-3.155,0.794c-4.227-1.353-7.419-0.459-10.016,3.289c-0.63,0.909-2.53,1.496-3.735,1.345
	c-4.166-0.521-8.288-1.405-12.417-2.204c-3.161-0.611-1.856-3.021-1.74-4.797c0.124-1.883,1.156-2.054,3.094-1.866
	c7.15,0.694,14.346,1.301,21.517,1.222C212.888,275.903,215.858,274.069,219.522,272.82z"/>
<path fill-rule="evenodd" clip-rule="evenodd" fill="#FFFFFF" d="M140.11,275.065c5.833,1.232,11.059,2.335,16.737,3.534
	c0.561,2.795-1.833,4.418-4.434,5.652c-4.005,1.902-8.131,3.55-12.716,5.525c-1.562-3.259-3.176-6.626-5.017-10.469
	c3.931,1.128,7.235,2.076,11.008,3.159C143.572,279.659,141.93,277.48,140.11,275.065z"/>
<path fill-rule="evenodd" clip-rule="evenodd" fill="#FFFFFF" d="M271.015,138.822c-3.011,0-5.572,0-8.272,0
	c0.953-6.576,1.869-12.899,2.786-19.223c0.192-0.038,0.384-0.077,0.576-0.115C267.716,125.831,269.327,132.176,271.015,138.822z"/>
<path fill-rule="evenodd" clip-rule="evenodd" fill="#FFFFFF" d="M240.605,325.596c1.983,0,3.547,0,5.693,0
	c-1.005,3.098-1.921,5.924-2.837,8.751c-0.278-0.004-0.556-0.008-0.833-0.011C241.995,331.6,241.361,328.865,240.605,325.596z"/>
<path fill-rule="evenodd" clip-rule="evenodd" d="M273.89,308.155c-5.172,6.688-12.069,9.089-19.151,10.385
	c-4.762,0.87-9.845,0.362-14.734-0.086c-1.455-0.134-3.239-1.935-3.89-3.405c-0.334-0.758,1.214-2.897,2.396-3.684
	c9.605-6.38,20.176-8.1,31.393-5.807C271.209,305.825,272.31,307.093,273.89,308.155z"/>
<path fill-rule="evenodd" clip-rule="evenodd" d="M217.246,255.982c0.249-0.014,0.45-0.302,0.621-0.474
	c0.181-0.18,0.346-0.38,0.509-0.579c0.315-0.384,0.635-0.865,0.665-1.407c0.018-0.297-0.092-0.63-0.249-0.869
	c-0.247-0.377-0.746-0.53-1.122-0.36c-0.99,0.445-1.224,1.89-1.007,2.934c0.044,0.213,0.065,0.551,0.203,0.719
	c0.145,0.176,0.319,0.034,0.478-0.042"/>
</svg>
