<?xml version="1.0" encoding="utf-8"?>
<!-- Generator: Adobe Illustrator 16.0.3, SVG Export Plug-In . SVG Version: 6.00 Build 0)  -->
<!DOCTYPE svg PUBLIC "-//W3C//DTD SVG 1.1//EN" "http://www.w3.org/Graphics/SVG/1.1/DTD/svg11.dtd">
<svg version="1.1" id="レイヤー_1" xmlns="http://www.w3.org/2000/svg" xmlns:xlink="http://www.w3.org/1999/xlink" x="0px"
	 y="0px" width="558.899px" height="633.147px" viewBox="0 0 558.899 633.147" enable-background="new 0 0 558.899 633.147"
	 xml:space="preserve">
<path fill-rule="evenodd" clip-rule="evenodd" fill="#FFFFFF" d="M9.206,589.978c-2.451,1.69-4.516,2.861-6.274,4.387
	c-2.552,2.213-2.868,4.849-0.375,7.101c2.437,2.201,5.329,4.171,8.362,5.396c18.872,7.622,38.807,10.77,58.825,13.457
	c8.763,1.177,17.539,2.275,26.329,3.227c9.542,1.032,19.101,1.943,28.666,2.736c8.198,0.68,16.418,1.09,24.625,1.673
	c9.329,0.662,18.648,1.49,27.983,2.055c9.967,0.604,19.944,1.063,29.923,1.441c15.476,0.589,30.955,1.177,46.438,1.535
	c10.368,0.24,20.746,0.029,31.118,0.114c26.867,0.22,53.718-0.321,80.554-1.584c5.36-0.253,10.722-0.504,16.074-0.869
	c9.58-0.653,19.155-1.375,28.73-2.1c7.088-0.536,14.176-1.067,21.255-1.699c6.949-0.619,13.886-1.376,20.83-2.05
	c5.832-0.565,11.694-0.901,17.494-1.692c9.373-1.278,18.727-2.727,28.052-4.322c12.759-2.182,25.524-4.466,37.717-8.972
	c4.409-1.63,8.792-3.608,12.742-6.125c4.276-2.725,4.204-6.836,0.009-9.73c-3.144-2.169-6.613-4.039-10.185-5.388
	c-15.483-5.85-31.813-7.945-48.059-10.34c-0.896-0.132-2.149-0.007-2.767,0.534c-2.678,2.343-5.18,4.887-7.902,7.509
	c3.937,6.918,4.677,14.149-1.156,20.564c-4.839,5.32-11.27,6.422-17.918,3.953c-8.993-3.341-11.353-10.438-9.658-19.022
	c-10.876-4.043-21.38-7.996-31.937-11.803c-1.141-0.411-2.773-0.366-3.863,0.141c-6.193,2.881-12.304,2.608-18.513,0.131
	c-0.942-0.375-2.248-0.579-3.137-0.229c-8.947,3.521-17.846,7.167-26.747,10.807c-0.422,0.172-0.736,0.605-1.154,0.964
	c0.093,0.685,0.18,1.291,0.256,1.9c0.978,7.837-2.956,14.695-9.806,17.06c-6.131,2.116-11.887,1.519-16.852-2.853
	c-4.44-3.91-5.916-8.993-4.24-14.618c1.617-5.423,4.249-10.201,10.668-11.271c0.664-0.11,1.401-0.602,1.834-1.135
	c3.53-4.352,6.011-8.98,3.475-14.782c-0.179-0.409-0.12-0.922-0.191-1.565c10.092,0,19.977,0,29.861,0
	c-0.412,0.897-0.948,1.333-1.556,1.614c-7.707,3.568-15.426,7.114-23.141,10.668c-3.3,1.52-6.604,2.996-8.606,6.335
	c-0.402,0.671-1.298,1.151-2.069,1.478c-3.826,1.615-5.673,4.792-6.673,8.534c-1.271,4.754-0.232,9.011,3.636,12.188
	c3.738,3.069,7.94,4.103,12.552,1.836c4.521-2.223,7.338-5.654,7.225-10.854c-0.053-2.432-0.679-4.851-1.085-7.545
	c11.731-4.644,23.645-9.359,35.483-14.045c5.788,4.956,12.107,4.886,18.887-0.232c13.285,4.953,26.686,9.948,40.188,14.981
	c-0.408,1.681-0.891,3.226-1.149,4.808c-1.273,7.804,6.457,15.4,14.051,13.851c5.984-1.22,10.242-5.801,10.396-11.186
	c0.172-5.959-3.649-10.961-9.558-12.646c-1.041-0.297-1.981-0.943-3.71-1.793c4.237,0.176,7.683,1.03,10.718,0.264
	c3.802-0.96,6.603-3.991,8.213-7.72c3.005-6.956-0.753-14.285-8.007-15.844c-0.705-0.151-1.587-0.333-2.008-0.825
	c-2.893-3.391-6.904-4.531-10.969-5.133c-8.023-1.188-16.085-2.18-24.162-2.903c-6.456-0.58-12.959-0.641-19.305-0.926
	c-0.913-1.223-1.529-2.587-2.583-3.341c-1.915-1.368-2.214-3.143-2.186-5.234c0.057-4.249-0.032-8.499,0.054-12.747
	c0.049-2.454,0.32-4.903,0.486-7.283c1.294-0.349,2.12-0.647,2.971-0.788c19.173-3.181,37.712-8.72,56.011-15.115
	c5.893-2.059,11.701-4.375,17.465-6.775c4.31-1.795,6.735-4.987,6.423-9.936c-0.182-2.865-0.068-5.748-0.174-8.618
	c-0.102-2.767-1.176-5.194-3.432-6.788c-4.101-2.898-8.939-3.333-14.124-4.239c-0.262,2.911-0.475,5.289-0.684,7.612
	c-9.979,2.557-20.224,5.181-30.47,7.806c8.216-3.39,16.626-6.134,25.41-7.549c1.921-0.31,2.954-1.047,3.104-3.01
	c0.076-0.992,0.328-1.971,0.495-2.956c2.079-12.185,4.132-24.375,6.279-36.548c0.171-0.965,0.997-1.814,1.52-2.718
	c0.406,0.144,0.813,0.286,1.218,0.429c-0.97,11.303-3.506,22.403-5.412,33.612c3.8,1.17,7.267,2.164,10.684,3.308
	c4.813,1.609,6.854,1.13,9.909-3.036c1.233-1.681,2.363-3.615,2.884-5.605c1.231-4.703,2.173-9.491,3.039-14.279
	c1.15-6.356,2.117-12.746,3.164-19.125c1.116-0.198,1.837-0.343,2.564-0.451c3.706-0.553,7.43-1.01,11.117-1.666
	c4.066-0.724,5.605-2.42,5.911-6.508c0.139-1.854-0.021-3.74-0.164-5.603c-0.359-4.667-2.097-6.646-6.778-7.559
	c-2.179-0.424-4.411-0.573-6.887-0.881c0.068-1.256,0.041-2.357,0.199-3.431c2.092-14.082,4.557-28.12,6.211-42.253
	c1.348-11.519,2.06-23.141,2.436-34.736c0.255-7.901-3.317-14.44-9.488-19.533c-5.188-4.283-11.355-6.185-17.713-7.665
	c-25.033-5.827-50.329-7.693-75.928-4.979c-0.714,0.076-1.469-0.237-2.204-0.369c-0.05-0.258-0.099-0.515-0.147-0.772
	c16.553-3.668,29.879-12.692,41.265-24.936c0.286,0.208,0.571,0.416,0.856,0.623c-1.615,4.752-3.23,9.504-4.914,14.455
	c14.98-3.654,27.284-11.691,37.786-22.826c0.228,0.183,0.453,0.366,0.681,0.549c-0.936,3.321-1.871,6.643-2.946,10.465
	c7.225-3.828,13.138-8.352,18.792-13.292c7.06-6.17,12.596-13.367,16.282-22.044c4.63-10.897,6.374-22.278,6.365-34.019
	c-0.001-1.274,0.18-2.548,0.297-4.101c7.784,3.157,14.988,6.171,23.613,6.249c-0.774-1.126-1.133-1.738-1.576-2.279
	c-3.854-4.696-7.715-9.388-11.591-14.066c-5.637-6.803-8.099-14.815-8.79-23.445c-0.607-7.583-0.481-15.264-1.627-22.757
	c-3.803-24.872-10.639-48.702-24.172-70.347c-13.219-21.142-30.348-38.006-52.228-49.905c-26.86-14.608-55.654-20.258-86.08-17.883
	c-28.4,2.218-54.43,11.395-77.952,27.328c-22.162,15.012-39.176,34.681-51.1,58.705c-7.375,14.859-10.516,30.838-12.996,47.069
	c-1.45,9.487-1.247,18.853-0.224,28.313c0.549,5.082,0.905,10.221,0.829,15.326c-0.113,7.635-1.812,14.878-7.123,20.799
	c-2.164,2.413-4.386,4.775-6.528,7.207c-0.504,0.573-0.792,1.336-1.451,2.487c7.223,0.515,13.139-2.138,19.271-4.551
	c2.54,14.101,4.998,27.742,7.53,41.802c-0.605-0.724-0.961-1.199-1.368-1.628c-2.734-2.886-5.368-5.881-8.262-8.599
	c-1.738-1.633-4.157-2.046-6.305-0.945c-2.109,1.082-1.922,3.479-1.672,5.373c0.245,1.85,1.24,3.6,2.157,6.071
	c-1.296-1.059-2.119-1.719-2.93-2.395c-3.174-2.645-5.697-3.227-7.763-1.785c-2.184,1.525-2.518,4.541-0.822,8.221
	c0.574,1.244,1.323,2.408,2,3.603c0.601,1.061,1.216,2.116,2.101,3.653c-1.731-0.284-2.938-0.639-4.146-0.649
	c-2.851-0.026-5.813-0.353-8.527,0.294c-4.12,0.98-4.872,4.749-1.814,7.668c0.985,0.941,2.123,1.762,3.298,2.457
	c2.339,1.382,4.752,2.638,7.38,4.081c-2.23,1.139-4.292,2.045-6.199,3.206c-2.036,1.239-3.384,3.152-3.052,5.603
	c0.311,2.302,2.29,3.259,4.323,3.58c3.933,0.621,7.9,1.033,11.859,1.472c1.428,0.158,2.875,0.148,4.235,0.212
	c0.897,9.079,0.646,28.378-0.51,31.394c-50.718,1.383-101.609,2.769-152.593,4.158c0-43.979,0-87.392,0-131.118
	c1.855,0,3.336-0.049,4.813,0.008c6.492,0.251,12.982,0.557,19.475,0.799c17.606,0.658,35.211,1.353,52.821,1.921
	c21.601,0.698,43.212,1.121,64.803,2.038c5.093,0.216,7.696-1.988,9.974-6.473c-2.202,0-4.034,0.047-5.863-0.007
	c-20.477-0.604-40.956-1.164-61.431-1.86c-18.731-0.636-37.454-1.542-56.187-2.112c-15.457-0.469-30.922-2.385-46.385,0.292
	c-4.975,0.861-6.354,2.066-6.356,7.288c-0.004,12.623-0.001,25.245-0.001,37.868c0,31.244-0.012,62.488,0.013,93.733
	c0.005,6.761,1.438,8.218,8.079,8.27c10.369,0.08,20.738,0.079,31.106,0.108c2.208,0.007,4.416,0.002,6.932,0.002
	c0,11.128,0,21.671,0,32.507c-1.474,0.129-2.818,0.231-4.159,0.366c-5.467,0.548-10.949,0.987-16.394,1.702
	c-3.429,0.45-4.264,1.732-4.016,5.064c0.182,2.447,1.188,3.59,4.581,3.887c7.835,0.686,15.694,1.106,23.544,1.616
	c5.045,0.328,10.092,0.621,15.591,0.958c-1.215,3.527-4.524,2.271-6.429,3.873c0.428,0.844,0.877,1.729,1.556,3.065
	c-2.12,0-3.734,0.051-5.344-0.009c-7.742-0.286-15.484-0.556-23.223-0.915c-24.086-1.116-48.169-2.313-72.257-3.388
	c-8.429-0.376-10.383,1.875-9.546,10.411c0.497,5.069,1.375,5.925,6.483,6.264c3.198,0.213,6.398,0.4,9.973,0.623
	c0,2.959,0.09,5.437-0.054,7.9c-0.044,0.751-0.557,1.85-1.159,2.126c-2.212,1.013-2.124,2.855-2.111,4.751
	c0.047,7.373,0.126,14.747,0.13,22.12c0.026,50.866,0.034,101.731,0.055,152.598c0.002,4.483,1.008,5.461,5.447,5.704
	c3.991,0.22,7.979,0.503,11.96,0.854c21.154,1.867,42.305,3.778,63.458,5.648c19.162,1.693,38.323,3.41,57.493,5
	c6.574,0.546,13.093,1.614,19.789,0.629c14.084-2.073,28.224-3.771,42.347-5.573c4.698-0.6,5.833-1.655,5.886-6.424
	c0.081-7.496,0.034-14.995,0.037-22.494c0.017-40.613,0.039-81.228,0.044-121.841c0.002-12.122-0.015-24.245-0.083-36.366
	c-0.021-3.831-0.698-4.591-4.515-4.983c-3.851-0.397-7.725-0.57-11.588-0.857c-6.998-0.519-13.995-1.049-20.992-1.573
	c2.088-0.759,4.174-1.044,6.27-1.179c28.427-1.825,56.857-3.593,85.281-5.462c7.849-0.517,15.688-1.242,23.511-2.063
	c1.485-0.156,3.616-0.836,4.183-1.929c2.367-4.578,4.254-9.406,6.71-15.045c-31.949,2.176-62.816,4.28-93.684,6.384
	c-0.024-0.336-0.047-0.671-0.072-1.006c23.985-1.751,47.97-3.501,71.874-5.246c2.257-5.514,1.216-8.49-3.703-10.863
	c-0.898-0.433-1.834-0.79-2.766-1.15c-7.454-2.884-14.869-5.873-22.383-8.592c-3.824-1.383-7.856-3.32-11.741-3.207
	c-15.22,0.444-30.417,1.626-45.625,2.498c-17.959,1.029-35.921,2.028-53.884,3.019c-0.95,0.053-1.911-0.1-2.839-0.155
	c0-10.188,0-20.084,0-30.165c1.551-0.191,2.644-0.402,3.744-0.45c20.1-0.864,40.201-1.694,60.299-2.566
	c6.741-0.292,13.485-0.557,20.21-1.069c3.89-0.295,4.909-1.596,5.166-5.503c0.082-1.245,0.056-2.498,0.057-3.747
	c0.001-8.374-0.019-16.747,0.007-25.12c0.005-1.561,0.182-3.12,0.283-4.721c3.112,0.328,5.032,1.312,6.33,3.944
	c4.749,9.619,9.463,19.276,14.749,28.603c2.864,5.055,6.768,9.54,10.375,14.147c1.944,2.484,4.675,3.653,7.927,3.459
	c7.107-0.424,14.223-0.753,21.327-1.215c5.564-0.36,11.119-0.862,16.787-1.311c-0.592,3.611-1.319,6.652-1.549,9.73
	c-0.536,7.199,2.001,13.532,6.239,19.182c1.527,2.035,1.854,3.907,0.917,6.196c-3.076,7.511-6.049,15.065-9.193,22.547
	c-0.555,1.321-1.602,2.528-2.666,3.527c-10.987,10.313-21.073,21.312-27.864,34.986c-0.764,1.536-2.404,2.796-3.904,3.773
	c-5.017,3.272-10.258,6.206-15.21,9.568c-3.421,2.323-6.762,5.186-7.918,9.243c-1.188,4.168-3.34,7.342-6.575,10.002
	c-0.566,0.466-0.927,1.174-1.423,1.733c-1.426,1.608-1.467,3.231-0.465,5.144c4.145,7.902,9.348,14.777,17.582,18.855
	c0.99,0.49,1.924,1.094,2.643,1.506c3.688,26.886,12.466,51.831,24.343,75.996c-20.773,0.612-41.219,0.189-62.019,1.701
	c0,1.706-0.002,3.045,0,4.385c0.015,7.123,0.13,14.248,0.013,21.369c-0.079,4.759-2.56,7.73-6.549,8.28
	c-14.228,1.964-28.452,3.96-42.693,5.816c-3.817,0.497-7.714,0.923-11.537,0.712c-6.853-0.379-13.67-1.333-20.513-1.929
	c-18.665-1.622-37.337-3.16-56.003-4.773c-22.273-1.925-44.539-3.925-66.815-5.813C15.627,595.711,11.475,595.171,9.206,589.978z"/>
<path fill-rule="evenodd" clip-rule="evenodd" fill="#FFFFFF" d="M263.708,411.788c-2.108,0.559-4.427,0.479-5.497,1.595
	c-2.782,2.901-2.166,6.682-1.326,10.27c0.696,2.973,3.148,3.584,5.688,4.02c1.46,0.25,3.057,0.229,4.345,0.847
	c3.658,1.751,5.481,1.253,7.746-1.979c4.423-6.312,9.016-12.503,13.519-18.759c0.102-0.141-0.034-0.454-0.085-0.924
	c-8.416,0.608-16.89,0.763-25.185,3.377C263.373,411.134,263.582,411.542,263.708,411.788z"/>
<path fill-rule="evenodd" clip-rule="evenodd" fill="#FFFFFF" d="M231.617,208.487c-3.247,1.096-3.398,1.155-3.448,4.091
	c-0.084,4.983-0.056,9.968,0.002,14.951c0.011,0.931,0.384,1.858,0.608,2.871c0.856,0.042,1.465,0.125,2.066,0.083
	c0.468-0.032,0.925-0.22,1.312-0.32C233.235,225.51,232.929,211.328,231.617,208.487z"/>
<path fill-rule="evenodd" clip-rule="evenodd" d="M9.206,589.978c2.269,5.193,6.421,5.733,10.804,6.105
	c22.276,1.889,44.542,3.889,66.815,5.813c18.666,1.613,37.338,3.151,56.003,4.773c6.843,0.596,13.661,1.55,20.513,1.929
	c3.823,0.211,7.72-0.215,11.537-0.712c14.241-1.856,28.465-3.853,42.693-5.816c3.99-0.55,6.471-3.521,6.549-8.28
	c0.117-7.121,0.002-14.246-0.013-21.369c-0.002-1.34,0-2.679,0-4.385c20.799-1.512,41.245-1.089,62.019-1.701
	c-11.877-24.165-20.654-49.11-24.343-75.996c-0.719-0.412-1.653-1.016-2.643-1.506c-8.234-4.078-13.438-10.953-17.582-18.855
	c-1.002-1.912-0.961-3.535,0.465-5.144c0.497-0.56,0.857-1.268,1.423-1.733c3.234-2.66,5.387-5.834,6.575-10.002
	c1.156-4.058,4.497-6.92,7.918-9.243c4.952-3.362,10.193-6.296,15.21-9.568c1.5-0.978,3.141-2.237,3.904-3.773
	c6.791-13.675,16.877-24.674,27.864-34.986c1.064-0.999,2.111-2.206,2.666-3.527c3.145-7.481,6.117-15.036,9.193-22.547
	c0.938-2.289,0.61-4.161-0.917-6.196c-4.238-5.649-6.775-11.982-6.239-19.182c0.229-3.078,0.957-6.119,1.549-9.73
	c-5.668,0.448-11.223,0.95-16.787,1.311c-7.104,0.462-14.22,0.791-21.327,1.215c-3.252,0.194-5.982-0.975-7.927-3.459
	c-3.607-4.607-7.511-9.093-10.375-14.147c-5.285-9.327-10-18.984-14.749-28.603c-1.298-2.632-3.218-3.616-6.33-3.944
	c-0.101,1.601-0.278,3.16-0.283,4.721c-0.026,8.373-0.006,16.746-0.007,25.12c-0.001,1.249,0.025,2.502-0.057,3.747
	c-0.256,3.907-1.275,5.208-5.166,5.503c-6.725,0.513-13.47,0.777-20.21,1.069c-20.099,0.872-40.2,1.702-60.299,2.566
	c-1.1,0.048-2.193,0.259-3.744,0.45c0,10.081,0,19.977,0,30.165c0.928,0.056,1.889,0.208,2.839,0.155
	c17.963-0.99,35.925-1.989,53.884-3.019c15.208-0.872,30.405-2.054,45.625-2.498c3.885-0.113,7.917,1.824,11.741,3.207
	c7.514,2.719,14.929,5.708,22.383,8.592c0.932,0.36,1.867,0.718,2.766,1.15c4.919,2.373,5.96,5.35,3.703,10.863
	c-23.903,1.745-47.889,3.495-71.874,5.246c0.024,0.335,0.048,0.67,0.072,1.006c30.867-2.104,61.734-4.208,93.684-6.384
	c-2.456,5.639-4.343,10.467-6.71,15.045c-0.566,1.093-2.697,1.772-4.183,1.929c-7.823,0.821-15.662,1.547-23.511,2.063
	c-28.424,1.869-56.854,3.637-85.281,5.462c-2.096,0.135-4.182,0.42-6.27,1.179c6.998,0.524,13.994,1.055,20.992,1.573
	c3.863,0.287,7.737,0.46,11.588,0.857c3.817,0.393,4.495,1.152,4.515,4.983c0.067,12.121,0.085,24.244,0.083,36.366
	c-0.005,40.613-0.027,81.228-0.044,121.841c-0.003,7.499,0.044,14.998-0.037,22.494c-0.052,4.769-1.188,5.824-5.886,6.424
	c-14.123,1.802-28.262,3.5-42.347,5.573c-6.696,0.985-13.215-0.083-19.789-0.629c-19.17-1.59-38.331-3.307-57.493-5
	c-21.154-1.87-42.304-3.781-63.458-5.648c-3.981-0.352-7.97-0.635-11.96-0.854c-4.439-0.243-5.445-1.221-5.447-5.704
	c-0.021-50.866-0.029-101.731-0.055-152.598c-0.004-7.373-0.083-14.747-0.13-22.12c-0.012-1.896-0.101-3.738,2.111-4.751
	c0.602-0.276,1.115-1.375,1.159-2.126c0.145-2.464,0.054-4.941,0.054-7.9c-3.575-0.223-6.775-0.41-9.973-0.623
	c-5.108-0.339-5.986-1.194-6.483-6.264c-0.837-8.536,1.117-10.787,9.546-10.411c24.088,1.074,48.171,2.271,72.257,3.388
	c7.738,0.359,15.481,0.629,23.223,0.915c1.61,0.06,3.224,0.009,5.344,0.009c-0.678-1.337-1.128-2.222-1.556-3.065
	c1.904-1.603,5.214-0.346,6.429-3.873c-5.499-0.337-10.545-0.63-15.591-0.958c-7.851-0.51-15.709-0.931-23.544-1.616
	c-3.393-0.297-4.398-1.439-4.581-3.887c-0.248-3.332,0.586-4.614,4.016-5.064c5.445-0.715,10.927-1.154,16.394-1.702
	c1.341-0.135,2.685-0.237,4.159-0.366c0-10.836,0-21.379,0-32.507c-2.516,0-4.724,0.005-6.932-0.002
	c-10.369-0.029-20.737-0.028-31.106-0.108c-6.641-0.052-8.074-1.509-8.079-8.27c-0.025-31.245-0.013-62.489-0.013-93.733
	c0-12.623-0.003-25.246,0.001-37.868c0.002-5.222,1.381-6.427,6.356-7.288c15.463-2.678,30.928-0.762,46.385-0.292
	c18.733,0.57,37.456,1.476,56.187,2.112c20.475,0.696,40.954,1.255,61.431,1.86c1.83,0.054,3.661,0.007,5.863,0.007
	c-2.278,4.484-4.881,6.688-9.974,6.473c-21.591-0.917-43.203-1.339-64.803-2.038c-17.61-0.569-35.214-1.264-52.821-1.921
	c-6.493-0.243-12.983-0.548-19.475-0.799c-1.477-0.057-2.957-0.008-4.813-0.008c0,43.726,0,87.139,0,131.118
	c50.984-1.39,101.875-2.775,152.593-4.158c1.156-3.015,1.408-22.315,0.51-31.394c-1.36-0.064-2.807-0.054-4.235-0.212
	c-3.959-0.439-7.926-0.851-11.859-1.472c-2.033-0.321-4.012-1.277-4.323-3.58c-0.332-2.451,1.017-4.364,3.052-5.603
	c1.907-1.161,3.969-2.067,6.199-3.206c-2.628-1.443-5.042-2.699-7.38-4.081c-1.175-0.694-2.313-1.515-3.298-2.457
	c-3.058-2.919-2.306-6.688,1.814-7.668c2.714-0.647,5.677-0.32,8.527-0.294c1.209,0.01,2.416,0.365,4.146,0.649
	c-0.885-1.537-1.5-2.592-2.101-3.653c-0.677-1.195-1.426-2.359-2-3.603c-1.696-3.68-1.362-6.696,0.822-8.221
	c2.066-1.442,4.588-0.86,7.763,1.785c0.811,0.676,1.634,1.336,2.93,2.395c-0.917-2.471-1.912-4.221-2.157-6.071
	c-0.25-1.894-0.438-4.292,1.672-5.373c2.148-1.101,4.567-0.688,6.305,0.945c2.894,2.718,5.528,5.712,8.262,8.599
	c0.406,0.429,0.762,0.904,1.368,1.628c-2.532-14.06-4.99-27.701-7.53-41.802c-6.132,2.413-12.047,5.065-19.271,4.551
	c0.659-1.15,0.946-1.914,1.451-2.487c2.142-2.432,4.364-4.794,6.528-7.207c5.311-5.921,7.01-13.164,7.123-20.799
	c0.076-5.105-0.28-10.244-0.829-15.326c-1.022-9.461-1.226-18.827,0.224-28.313c2.48-16.231,5.621-32.21,12.996-47.069
	c11.924-24.024,28.938-43.692,51.1-58.705c23.522-15.933,49.552-25.11,77.952-27.328c30.426-2.375,59.22,3.275,86.08,17.883
	c21.88,11.899,39.009,28.763,52.228,49.905c13.533,21.645,20.369,45.476,24.172,70.347c1.146,7.493,1.02,15.174,1.627,22.757
	c0.691,8.63,3.153,16.642,8.79,23.445c3.876,4.679,7.736,9.37,11.591,14.066c0.443,0.542,0.802,1.153,1.576,2.279
	c-8.625-0.077-15.829-3.091-23.613-6.249c-0.117,1.552-0.298,2.826-0.297,4.101c0.009,11.741-1.735,23.122-6.365,34.019
	c-3.687,8.678-9.223,15.874-16.282,22.044c-5.654,4.941-11.567,9.465-18.792,13.292c1.075-3.822,2.011-7.144,2.946-10.465
	c-0.228-0.183-0.453-0.366-0.681-0.549c-10.502,11.135-22.806,19.172-37.786,22.826c1.684-4.951,3.299-9.703,4.914-14.455
	c-0.285-0.207-0.57-0.415-0.856-0.623c-11.386,12.244-24.712,21.268-41.265,24.936c0.049,0.257,0.098,0.515,0.147,0.772
	c0.735,0.132,1.49,0.445,2.204,0.369c25.599-2.714,50.895-0.848,75.928,4.979c6.357,1.48,12.525,3.382,17.713,7.665
	c6.171,5.093,9.743,11.632,9.488,19.533c-0.376,11.596-1.088,23.218-2.436,34.736c-1.654,14.133-4.119,28.171-6.211,42.253
	c-0.158,1.073-0.131,2.175-0.199,3.431c2.476,0.308,4.708,0.457,6.887,0.881c4.682,0.912,6.419,2.892,6.778,7.559
	c0.144,1.862,0.303,3.748,0.164,5.603c-0.306,4.088-1.845,5.784-5.911,6.508c-3.688,0.656-7.411,1.113-11.117,1.666
	c-0.728,0.108-1.448,0.253-2.564,0.451c-1.047,6.379-2.014,12.769-3.164,19.125c-0.866,4.788-1.808,9.576-3.039,14.279
	c-0.521,1.99-1.65,3.925-2.884,5.605c-3.056,4.166-5.096,4.646-9.909,3.036c-3.417-1.144-6.884-2.138-10.684-3.308
	c1.906-11.209,4.442-22.31,5.412-33.612c-0.405-0.143-0.812-0.285-1.218-0.429c-0.522,0.903-1.349,1.753-1.52,2.718
	c-2.147,12.173-4.2,24.363-6.279,36.548c-0.167,0.985-0.419,1.964-0.495,2.956c-0.149,1.963-1.183,2.7-3.104,3.01
	c-8.784,1.415-17.194,4.159-25.41,7.549c10.246-2.625,20.491-5.249,30.47-7.806c0.209-2.323,0.422-4.701,0.684-7.612
	c5.185,0.906,10.023,1.341,14.124,4.239c2.256,1.594,3.33,4.021,3.432,6.788c0.105,2.87-0.008,5.753,0.174,8.618
	c0.313,4.948-2.113,8.141-6.423,9.936c-5.764,2.4-11.572,4.717-17.465,6.775c-18.299,6.396-36.838,11.935-56.011,15.115
	c-0.851,0.141-1.677,0.439-2.971,0.788c-0.166,2.38-0.438,4.829-0.486,7.283c-0.086,4.248,0.003,8.498-0.054,12.747
	c-0.028,2.092,0.271,3.866,2.186,5.234c1.054,0.754,1.67,2.118,2.583,3.341c6.346,0.285,12.849,0.346,19.305,0.926
	c8.077,0.724,16.139,1.716,24.162,2.903c4.064,0.602,8.076,1.742,10.969,5.133c0.421,0.492,1.303,0.674,2.008,0.825
	c7.254,1.559,11.012,8.888,8.007,15.844c-1.61,3.729-4.411,6.76-8.213,7.72c-3.035,0.767-6.48-0.088-10.718-0.264
	c1.729,0.85,2.669,1.496,3.71,1.793c5.908,1.685,9.729,6.687,9.558,12.646c-0.154,5.385-4.412,9.966-10.396,11.186
	c-7.594,1.55-15.324-6.047-14.051-13.851c0.259-1.582,0.741-3.127,1.149-4.808c-13.503-5.033-26.903-10.028-40.188-14.981
	c-6.779,5.118-13.099,5.188-18.887,0.232c-11.839,4.686-23.752,9.401-35.483,14.045c0.406,2.694,1.032,5.113,1.085,7.545
	c0.113,5.2-2.703,8.632-7.225,10.854c-4.611,2.267-8.813,1.233-12.552-1.836c-3.868-3.177-4.906-7.434-3.636-12.188
	c1-3.742,2.847-6.919,6.673-8.534c0.771-0.326,1.667-0.807,2.069-1.478c2.002-3.339,5.307-4.815,8.606-6.335
	c7.715-3.554,15.434-7.1,23.141-10.668c0.607-0.281,1.144-0.717,1.556-1.614c-9.885,0-19.77,0-29.861,0
	c0.071,0.644,0.013,1.156,0.191,1.565c2.536,5.802,0.056,10.431-3.475,14.782c-0.433,0.533-1.17,1.024-1.834,1.135
	c-6.419,1.07-9.051,5.849-10.668,11.271c-1.676,5.625-0.2,10.708,4.24,14.618c4.965,4.371,10.721,4.969,16.852,2.853
	c6.85-2.364,10.783-9.223,9.806-17.06c-0.076-0.609-0.163-1.216-0.256-1.9c0.418-0.358,0.732-0.792,1.154-0.964
	c8.901-3.64,17.8-7.286,26.747-10.807c0.889-0.35,2.194-0.146,3.137,0.229c6.209,2.478,12.319,2.75,18.513-0.131
	c1.09-0.507,2.723-0.552,3.863-0.141c10.557,3.807,21.061,7.76,31.937,11.803c-1.694,8.585,0.665,15.682,9.658,19.022
	c6.648,2.469,13.079,1.367,17.918-3.953c5.833-6.415,5.093-13.646,1.156-20.564c2.723-2.622,5.225-5.166,7.902-7.509
	c0.617-0.541,1.871-0.666,2.767-0.534c16.246,2.395,32.575,4.49,48.059,10.34c3.571,1.349,7.041,3.219,10.185,5.388
	c4.195,2.895,4.268,7.006-0.009,9.73c-3.95,2.517-8.333,4.495-12.742,6.125c-12.192,4.506-24.958,6.79-37.717,8.972
	c-9.325,1.596-18.679,3.044-28.052,4.322c-5.8,0.791-11.662,1.127-17.494,1.692c-6.944,0.674-13.881,1.431-20.83,2.05
	c-7.079,0.632-14.167,1.163-21.255,1.699c-9.575,0.725-19.15,1.446-28.73,2.1c-5.353,0.365-10.714,0.616-16.074,0.869
	c-26.836,1.263-53.687,1.804-80.554,1.584c-10.372-0.085-20.75,0.126-31.118-0.114c-15.483-0.358-30.962-0.946-46.438-1.535
	c-9.979-0.379-19.956-0.838-29.923-1.441c-9.335-0.564-18.654-1.393-27.983-2.055c-8.207-0.583-16.426-0.993-24.625-1.673
	c-9.565-0.793-19.124-1.704-28.666-2.736c-8.79-0.951-17.566-2.05-26.329-3.227c-20.018-2.688-39.953-5.835-58.825-13.457
	c-3.034-1.226-5.926-3.195-8.362-5.396c-2.492-2.252-2.176-4.888,0.375-7.101C4.69,592.839,6.755,591.668,9.206,589.978z
	 M299.456,136.972c-4.868,0.768-9.646,1.484-14.409,2.286c-3.225,0.542-5.211,2.397-6.437,5.528
	c-3.663,9.353-6.094,19.017-7.81,28.88c-0.801,4.596-1.455,9.218-2.175,13.828c2.965-2.576,5.171-5.391,7.438-8.154
	c5.241-6.388,12.006-9.832,20.271-9.408c3.236,0.167,6.914,0.924,9.497,2.708c5.398,3.729,8.939,9.223,11.621,15.267
	c3.225,7.268,3.729,14.993,4.033,22.724c0.284,7.251,0.128,14.531-2.838,21.37c-4.747,10.946-15.65,12.507-23.266,3.38
	c-3.848-4.612-6.199-9.949-7.501-15.75c-2.1-9.363-1.846-18.862-1.376-28.356c0.08-1.624,0.491-3.232,0.749-4.848
	c-8.694,6.616-10.419,15.41-8.467,25.412c-0.282,0.109-0.563,0.218-0.846,0.328c-2.663-3.595-5.325-7.189-8.512-11.492
	c0.199,1.47,0.209,2.07,0.368,2.628c1.262,4.44,2.419,8.915,3.86,13.297c2.829,8.596,4.242,17.214,1.298,26.084
	c-0.312,0.939-0.403,1.955-0.587,2.936c-1.023,5.479,0.284,10.397,3.569,14.84c3.441,4.655,8.106,7.758,13.246,10.152
	c10.062,4.685,20.693,7.35,31.727,8.328c13.47,1.194,26.952,1.157,40.423-0.04c18.666-1.657,36.723-5.625,53.826-13.62
	c3.905-1.825,5.99-4.324,7.174-8.303c5.083-17.091,7.602-34.604,8.978-52.319c0.228-2.928,0.408-5.859,0.661-9.524
	c-2.203,1.876-3.816,3.25-6.04,5.143c1.192-6.028-2.692-8.996-5.138-12.699c3.457,9.226,3.587,18.591,1.717,28.062
	c-1.078,5.464-3.16,10.517-6.739,14.865c-8.701,10.57-23.938,9.545-30.96-2.152c-1.274-2.122-2.428-4.424-3.076-6.796
	c-4.103-14.994-4.633-30.064-0.056-45.051c1.365-4.469,3.979-8.275,8.05-10.958c7.468-4.921,15.043-2.875,22.176,0.227
	c5.429,2.361,10.293,6.05,15.326,9.276c1.733,1.11,3.221,2.604,5.64,4.6c0-2.608-0.167-4.314,0.038-5.975
	c0.342-2.775-0.763-4.483-2.901-6.3c-6.743-5.729-13.199-11.796-19.769-17.729c-0.511-0.46-1.04-0.9-1.561-1.349
	c-0.18,0.098-0.36,0.196-0.54,0.295c1.081,3.138,2.163,6.276,3.245,9.414c-0.281,0.131-0.563,0.261-0.844,0.392
	c-9.13-7.807-16.441-17.146-22.415-27.824c-4.999,0.36-9.789,0.704-14.678,1.055c-0.384,1.933-0.622,3.402-0.972,4.844
	c-2.288,9.458-4.563,18.921-6.923,28.361c-0.877,3.508-2.075,6.937-2.926,10.452c-0.419,1.729-0.378,3.569-0.548,5.394
	c-13.426-1.718-23.933-8.024-33.037-17.311c2.201,5.204,4.402,10.407,6.841,16.168C317.845,171.904,307.042,156.527,299.456,136.972
	z M374.288,502.029c-0.003-0.334-0.006-0.669-0.008-1.004c-10.355-3.347-18.389-10.458-27.196-16.321
	c-3.319-2.209-6.694-4.473-10.34-6.014c-3.738-1.58-7.781-2.879-11.792-3.276c-6.472-0.642-11.428,2.346-14.053,8.425
	c-1.379,3.192-2.736,6.526-3.268,9.927c-1.288,8.251-2.346,16.559-3.021,24.883c-0.941,11.571-1.518,23.175-2.123,34.771
	c-0.64,12.219-1.241,24.442-1.616,36.672c-0.102,3.325,0.315,6.768,1.13,9.997c1.257,4.984,4.692,6.278,9.129,3.793
	c1.29-0.724,2.644-1.582,3.539-2.716c3.854-4.882,8.025-9.602,11.213-14.903c9.771-16.252,16.187-33.999,21.946-51.97
	c2.283-7.122,4.047-14.415,5.958-21.653c0.77-2.916,2.333-4.9,5.338-5.645c1.21-0.299,2.397-0.697,3.582-1.09
	C366.569,504.623,370.428,503.323,374.288,502.029z M347.178,291.731c-0.146-0.389-0.294-0.777-0.442-1.166
	c-3.499,0.717-7.1,1.118-10.479,2.208c-12.013,3.877-24.013,7.791-36.624,9.208c-5.505,0.619-11.022,2.222-16.801,0.311
	c-0.349,1.459-0.685,2.866-0.97,4.062c-1.937-3.863-3.769-7.779-5.829-11.57c-3.161-5.815-6.402-11.591-9.761-17.294
	c-1.758-2.984-2.8-6.091-2.913-9.543c-0.23-7.063-2.082-14.158,0.492-21.172c0.206-0.563-0.188-1.345-0.361-2.377
	c-6.857,2.276-8.233,8.954-12.143,13.931c-2.337-1.916-4.735-3.515-6.671-5.553c-3.09-3.255-5.786-6.882-8.819-10.196
	c-1.725-1.884-3.788-3.459-5.699-5.174c-0.238,0.189-0.476,0.378-0.713,0.568c0.908,7.237,5.416,13.035,8.323,19.582
	c-5.889-4.676-11.878-8.979-18.069-13.065c1.373,6.974,6.344,11.881,9.892,18.214c-7.16-1.162-13.476-2.762-19.948-2.729
	c-0.122,0.402-0.243,0.803-0.365,1.206c6.374,3.089,12.749,6.177,19.124,9.266c-0.041,0.258-0.081,0.515-0.12,0.774
	c-5.475,1.398-10.954,2.785-16.36,6.543c2.05,0.436,3.325,0.846,4.626,0.958c3.856,0.333,7.725,0.519,11.583,0.827
	c1.09,0.087,2.273,0.176,3.227,0.645c4.103,2.021,8.135,4.183,12.435,6.419c0.197,0.678,0.385,1.927,0.903,3.02
	c3.427,7.218,6.621,14.57,10.496,21.543c3.138,5.647,6.981,10.928,10.782,16.175c2.551,3.521,6.082,5.244,10.706,4.796
	c11.681-1.133,23.388-1.983,35.072-3.068c1.253-0.117,2.739-0.737,3.593-1.627c4.41-4.59,8.746-9.261,12.922-14.065
	c4.095-4.711,7.897-9.675,11.961-14.416C342.401,296.435,344.853,294.137,347.178,291.731z M510.443,404.524
	c-2.123-1.344-3.595-2.371-5.153-3.244c-4.574-2.56-9.323-4.838-13.73-7.656c-3.01-1.925-6.067-4.174-8.234-6.955
	c-15.279-19.614-30.092-39.573-43.442-60.582c-5.154-8.11-10.435-16.152-15.976-24.001c-2.856-4.048-7.082-6.658-11.818-8.234
	c-4.063-1.354-5.284-0.8-7.184,2.974c-3.294,6.545-4.911,13.612-6.313,20.728c-0.255,1.288-0.115,2.778,0.269,4.046
	c2.351,7.769,4.794,15.51,7.279,23.237c0.544,1.689,1.386,3.285,2.138,5.032c4.785-6.513,1.205-11.79-1.607-17.316
	c2.583,2.338,4.72,4.841,6.674,7.479c5.646,7.621,10.951,15.511,16.875,22.907c11.449,14.296,24.527,26.973,39.291,37.873
	c7.242,5.347,15.374,7.636,24.283,7.191c2.092-0.104,4.156-0.774,6.593-1.255c-1.307-1.488-2.111-2.405-2.916-3.321
	C501.578,404.808,505.271,407.015,510.443,404.524z M305.901,485.423c-1.684-1.944-3.282-3.845-4.938-5.692
	c-5.113-5.709-11.251-9.859-18.689-11.871c-6.105-1.653-10.184,0.417-12.595,6.226c-0.524,1.263-0.905,2.589-1.299,3.902
	c-2.102,7.02-1.516,14.126-0.283,21.152c4.503,25.674,13.754,49.693,25.742,72.728c0.656,1.262,1.573,2.387,2.831,4.264
	c0.17-1.517,0.266-2.097,0.296-2.68c0.964-18.438,1.762-36.888,2.939-55.313C300.605,507.193,301.614,496.234,305.901,485.423z
	 M346.873,552.808c14.346-1.254,28.601-2.501,42.198-3.691c6.507-3.558,5.377-9.396,5.31-14.905c-0.011-0.873-0.019-1.746-0.02-2.62
	c-0.002-3.33-0.001-6.66-0.001-10.188c-12.714-0.489-24.871-0.958-37.112-1.43C353.775,530.966,350.331,541.863,346.873,552.808z
	 M168.053,599.1c-0.144-1.229-0.313-2.073-0.332-2.919c-0.14-6.119-0.343-12.238-0.354-18.357
	c-0.093-52.724-0.15-105.446-0.217-158.17c-0.005-3.76,0.229-3.949,4-4.192c10.718-0.69,21.434-1.423,32.15-2.146
	c3.462-0.234,6.921-0.492,10.724-0.764c0,2.222,0,4.136,0,6.453c-14.346,0.908-28.59,1.811-42.783,2.709c0,3.748,0,6.896,0,10.381
	c14.559-1.047,28.689-2.063,43.155-3.103c0.282,7.125-0.284,13.679,0.253,20.164c0.248-0.015,0.495-0.03,0.744-0.046
	c0-12.533,0-25.066,0-38.099c-16.784,0.376-33.08,2.147-49.471,3.39c0,62.286,0,124.083,0,186.581
	c16.787-1.971,33.159-3.974,49.355-6.356c0.986-6.48,0.659-127.376-0.57-130.101c-0.269,2.051-0.268,4.112-0.269,6.173
	c-0.009,29.611-0.021,59.222-0.027,88.832c-0.002,9.62,0.01,19.241,0.012,28.861c0.001,4.606-0.041,4.664-4.708,5.344
	c-1.729,0.252-3.471,0.418-5.205,0.642C192.518,595.928,180.524,597.483,168.053,599.1z M139.618,404.207
	c-0.706-0.996-0.949-1.679-1.235-1.697c-33.428-2.131-66.877-3.768-100.613-4.526c0,1.762,0,2.996,0,4.23c0,1.325,0,2.65,0,4.296
	c32.466,1.482,64.398,3.207,96.486,4.572c0.331-2.569,0.579-4.491,0.831-6.439C136.537,404.503,137.724,404.389,139.618,404.207z
	 M461.33,469.007c0.344,0.067,0.688,0.135,1.032,0.202c1.682-12.249,3.363-24.498,5.085-37.045c-2.59-0.39-4.537-0.68-6.483-0.975
	c-6.585-0.999-8.25-3.027-7.987-9.742c0.019-0.499,0.041-1,0.103-1.494c0.487-3.95,0.851-4.273,4.938-4.34
	c1.461-0.023,2.923-0.004,4.437-0.004c-0.172-1.123-0.276-1.804-0.413-2.698c3.321-0.861,6.401-1.66,9.481-2.46
	c-0.054-0.265-0.107-0.53-0.161-0.795c-4.871,0.641-9.772,1.105-14.603,1.974c-4.418,0.793-6.273,3.149-6.785,7.712
	c-0.764,6.805,0.708,10.837,4.785,12.667c1.108,0.497,2.393,0.668,3.616,0.826c1.713,0.22,3.446,0.287,5.771,0.467
	c-0.723,6.172-1.423,12.145-2.183,18.637c-2.553-1.342-4.438-2.588-6.503-3.355c-2.623-0.977-3.841-2.812-4.727-5.336
	c-4.721-13.473-10.654-26.394-18.251-38.498c-4.776-7.612-9.833-15.047-14.603-22.663c-1.147-1.83-2.434-4.111-2.308-6.1
	c0.37-5.835,1.171-11.675,2.302-17.415c0.608-3.089-0.226-5.165-2.519-7.537c-0.343,1.239-0.622,2.037-0.78,2.857
	c-1.255,6.496-2.344,13.027-3.79,19.479c-0.63,2.809-0.177,5.13,1.321,7.445c2.713,4.191,5.319,8.451,8.06,12.625
	c11.063,16.857,20.779,34.39,27.315,53.566c0.454,1.335,1.884,2.572,3.167,3.345c3.713,2.233,7.582,4.207,11.384,6.278
	C461.78,461.063,461.556,465.035,461.33,469.007z M472.875,244.325c12.371-2.425,22.26-14.201,22.615-26.818
	c0.207-7.373-2.046-13.778-7.516-18.845c-2.062-1.909-4.284-3.737-7.718-3.448C479.803,211.994,478.206,228.436,472.875,244.325z
	 M382.134,315.431c2.321-6.675,4.514-12.979,6.817-19.604c-4.824,1.557-9.379,3.123-13.991,4.492
	c-6.301,1.87-12.647,3.172-19.03-0.114c-4.336,4.081-7.667,8.754-10.974,13.979C357.594,318.089,369.771,315.941,382.134,315.431z
	 M215.545,450.577c-14.92,1.288-29.468,2.544-44.287,3.824c0,3.884,0,7.409,0,11.261c14.986-1.217,29.654-2.409,44.287-3.598
	C215.545,458.021,215.545,454.595,215.545,450.577z M461.987,564.333c-10.811,0-21.063,0-31.317,0
	c-0.064,0.228-0.131,0.455-0.196,0.684c10.986,4.696,21.973,9.393,33.253,14.215C459.217,574.838,460.084,569.884,461.987,564.333z
	 M298.549,133.514c-0.886-8.426-1.783-16.964-2.668-25.396c-3.496,4.166-12.126,22.722-12.313,26.301
	C288.474,134.122,293.413,133.824,298.549,133.514z M296.571,282.822c1.516,3.762,2.814,7.214,4.298,10.584
	c1.035,2.352,2.947,3.209,5.518,2.677c3.172-0.657,6.421-1.013,9.538-1.86c5.01-1.361,9.938-3.019,14.901-4.551
	c-0.046-0.214-0.091-0.428-0.138-0.642c-4.51-1.512-9.021-3.022-13.944-4.671c1.229,2.113,2.152,3.704,3.076,5.294
	c-0.212,0.223-0.426,0.445-0.638,0.668c-2.143-0.503-4.347-0.827-6.415-1.544C307.617,286.991,302.528,285.027,296.571,282.822z
	 M387.825,126.452c-3.191-7.195-6.293-14.186-9.602-21.645c-0.64,7.976-1.23,15.349-1.831,22.828
	C380.498,127.211,384.052,126.843,387.825,126.452z M449.712,62.357c12.92,20.301,19.521,42.923,24.743,66.068
	C470.924,104.619,463.991,82.082,449.712,62.357z M185.055,580.123c-0.131,3.73,2.894,7.381,6.309,7.61
	c3.382,0.228,7.288-3.79,7.35-7.56c0.064-3.946-2.796-7.086-6.551-7.189C188.337,572.878,185.199,576.03,185.055,580.123z
	 M298.418,296.944c-7.423-3.478-14.443-6.767-21.386-10.02c1.542,2.721,3.187,5.751,4.962,8.704c1.015,1.689,2.533,2.853,4.628,2.65
	C290.556,297.898,294.478,297.396,298.418,296.944z M401.452,286.484c3.204,0.584,5.829,1.063,8.533,1.557
	c1.745-3.466,3.353-6.656,5.293-10.51C410.412,280.682,406.284,283.355,401.452,286.484z"/>
<path fill-rule="evenodd" clip-rule="evenodd" d="M263.708,411.788c-0.126-0.246-0.335-0.654-0.795-1.554
	c8.295-2.614,16.769-2.769,25.185-3.377c0.051,0.47,0.187,0.783,0.085,0.924c-4.503,6.256-9.096,12.447-13.519,18.759
	c-2.265,3.231-4.088,3.729-7.746,1.979c-1.288-0.617-2.885-0.597-4.345-0.847c-2.541-0.436-4.993-1.047-5.688-4.02
	c-0.839-3.588-1.456-7.368,1.326-10.27C259.281,412.267,261.6,412.347,263.708,411.788z"/>
<path fill-rule="evenodd" clip-rule="evenodd" d="M231.617,208.487c1.312,2.841,1.618,17.022,0.541,21.676
	c-0.387,0.1-0.844,0.288-1.312,0.32c-0.601,0.042-1.21-0.042-2.066-0.083c-0.224-1.013-0.597-1.94-0.608-2.871
	c-0.058-4.983-0.086-9.968-0.002-14.951C228.219,209.642,228.371,209.583,231.617,208.487z"/>
<path fill-rule="evenodd" clip-rule="evenodd" fill="#FFFFFF" d="M299.456,136.972c7.586,19.555,18.389,34.932,38.428,42.563
	c-2.438-5.761-4.64-10.964-6.841-16.168c9.104,9.287,19.611,15.593,33.037,17.311c0.17-1.825,0.129-3.665,0.548-5.394
	c0.851-3.515,2.049-6.943,2.926-10.452c2.36-9.44,4.635-18.903,6.923-28.361c0.35-1.442,0.588-2.912,0.972-4.844
	c4.889-0.351,9.679-0.695,14.678-1.055c5.974,10.678,13.285,20.017,22.415,27.824c0.281-0.13,0.563-0.261,0.844-0.392
	c-1.082-3.138-2.164-6.276-3.245-9.414c0.18-0.099,0.36-0.197,0.54-0.295c0.521,0.449,1.05,0.889,1.561,1.349
	c6.569,5.933,13.025,12,19.769,17.729c2.139,1.817,3.243,3.525,2.901,6.3c-0.205,1.661-0.038,3.367-0.038,5.975
	c-2.419-1.995-3.906-3.49-5.64-4.6c-5.033-3.226-9.897-6.915-15.326-9.276c-7.133-3.102-14.708-5.147-22.176-0.227
	c-4.07,2.683-6.685,6.489-8.05,10.958c-4.577,14.986-4.047,30.057,0.056,45.051c0.648,2.372,1.802,4.674,3.076,6.796
	c7.021,11.697,22.259,12.723,30.96,2.152c3.579-4.348,5.661-9.4,6.739-14.865c1.87-9.471,1.74-18.835-1.717-28.062
	c2.445,3.703,6.33,6.671,5.138,12.699c2.224-1.893,3.837-3.267,6.04-5.143c-0.253,3.665-0.434,6.597-0.661,9.524
	c-1.376,17.716-3.895,35.228-8.978,52.319c-1.184,3.979-3.269,6.478-7.174,8.303c-17.104,7.994-35.16,11.962-53.826,13.62
	c-13.471,1.197-26.953,1.233-40.423,0.04c-11.033-0.978-21.665-3.643-31.727-8.328c-5.14-2.394-9.805-5.497-13.246-10.152
	c-3.285-4.443-4.593-9.361-3.569-14.84c0.184-0.981,0.275-1.997,0.587-2.936c2.944-8.87,1.531-17.488-1.298-26.084
	c-1.441-4.382-2.599-8.857-3.86-13.297c-0.159-0.558-0.169-1.158-0.368-2.628c3.187,4.303,5.849,7.897,8.512,11.492
	c0.282-0.109,0.563-0.219,0.846-0.328c-1.952-10.001-0.228-18.795,8.467-25.412c-0.258,1.615-0.669,3.224-0.749,4.848
	c-0.47,9.494-0.724,18.993,1.376,28.356c1.302,5.801,3.653,11.138,7.501,15.75c7.615,9.127,18.519,7.566,23.266-3.38
	c2.966-6.838,3.122-14.118,2.838-21.37c-0.304-7.731-0.809-15.457-4.033-22.724c-2.682-6.044-6.223-11.537-11.621-15.267
	c-2.583-1.784-6.261-2.542-9.497-2.708c-8.265-0.424-15.029,3.02-20.271,9.408c-2.267,2.763-4.473,5.578-7.438,8.154
	c0.72-4.61,1.374-9.231,2.175-13.828c1.716-9.863,4.146-19.528,7.81-28.88c1.226-3.131,3.212-4.986,6.437-5.528
	C289.811,138.456,294.588,137.74,299.456,136.972z"/>
<path fill-rule="evenodd" clip-rule="evenodd" fill="#FFFFFF" d="M374.288,502.029c-3.86,1.294-7.719,2.594-11.582,3.876
	c-1.185,0.393-2.372,0.791-3.582,1.09c-3.005,0.744-4.568,2.729-5.338,5.645c-1.911,7.238-3.675,14.531-5.958,21.653
	c-5.76,17.971-12.175,35.718-21.946,51.97c-3.188,5.302-7.358,10.021-11.213,14.903c-0.896,1.134-2.249,1.992-3.539,2.716
	c-4.437,2.485-7.872,1.191-9.129-3.793c-0.814-3.229-1.231-6.672-1.13-9.997c0.375-12.229,0.977-24.453,1.616-36.672
	c0.605-11.597,1.182-23.2,2.123-34.771c0.676-8.324,1.733-16.632,3.021-24.883c0.531-3.4,1.889-6.734,3.268-9.927
	c2.625-6.079,7.581-9.066,14.053-8.425c4.011,0.397,8.054,1.696,11.792,3.276c3.646,1.541,7.021,3.805,10.34,6.014
	c8.808,5.863,16.841,12.975,27.196,16.321C374.282,501.36,374.285,501.695,374.288,502.029z"/>
<path fill-rule="evenodd" clip-rule="evenodd" fill="#FFFFFF" d="M347.178,291.731c-2.325,2.406-4.776,4.704-6.949,7.24
	c-4.063,4.74-7.866,9.705-11.961,14.416c-4.176,4.805-8.512,9.476-12.922,14.065c-0.854,0.89-2.34,1.51-3.593,1.627
	c-11.685,1.085-23.392,1.936-35.072,3.068c-4.624,0.448-8.155-1.274-10.706-4.796c-3.801-5.247-7.645-10.527-10.782-16.175
	c-3.875-6.973-7.069-14.325-10.496-21.543c-0.519-1.093-0.707-2.342-0.903-3.02c-4.3-2.236-8.333-4.398-12.435-6.419
	c-0.954-0.469-2.136-0.558-3.227-0.645c-3.859-0.309-7.728-0.495-11.583-0.827c-1.301-0.112-2.576-0.522-4.626-0.958
	c5.407-3.758,10.885-5.146,16.36-6.543c0.039-0.259,0.08-0.516,0.12-0.774c-6.375-3.089-12.75-6.177-19.124-9.266
	c0.122-0.402,0.243-0.804,0.365-1.206c6.472-0.034,12.788,1.567,19.948,2.729c-3.548-6.333-8.519-11.24-9.892-18.214
	c6.191,4.086,12.181,8.39,18.069,13.065c-2.907-6.547-7.415-12.345-8.323-19.582c0.237-0.19,0.475-0.379,0.713-0.568
	c1.911,1.714,3.974,3.29,5.699,5.174c3.033,3.314,5.729,6.94,8.819,10.196c1.936,2.039,4.334,3.637,6.671,5.553
	c3.909-4.977,5.285-11.654,12.143-13.931c0.174,1.033,0.567,1.815,0.361,2.377c-2.574,7.014-0.723,14.109-0.492,21.172
	c0.113,3.452,1.155,6.559,2.913,9.543c3.358,5.703,6.6,11.479,9.761,17.294c2.061,3.791,3.893,7.707,5.829,11.57
	c0.285-1.196,0.621-2.603,0.97-4.062c5.778,1.911,11.296,0.308,16.801-0.311c12.611-1.418,24.611-5.331,36.624-9.208
	c3.379-1.09,6.979-1.491,10.479-2.208C346.884,290.954,347.031,291.342,347.178,291.731z"/>
<path fill-rule="evenodd" clip-rule="evenodd" fill="#FFFFFF" d="M510.443,404.524c-5.172,2.49-8.865,0.283-12.974-1.098
	c0.805,0.916,1.609,1.833,2.916,3.321c-2.437,0.48-4.501,1.151-6.593,1.255c-8.909,0.444-17.041-1.845-24.283-7.191
	c-14.764-10.9-27.842-23.577-39.291-37.873c-5.924-7.396-11.229-15.286-16.875-22.907c-1.954-2.639-4.091-5.142-6.674-7.479
	c2.813,5.526,6.393,10.804,1.607,17.316c-0.752-1.747-1.594-3.343-2.138-5.032c-2.485-7.728-4.929-15.469-7.279-23.237
	c-0.384-1.268-0.523-2.758-0.269-4.046c1.402-7.116,3.02-14.183,6.313-20.728c1.899-3.773,3.12-4.327,7.184-2.974
	c4.736,1.577,8.962,4.187,11.818,8.234c5.541,7.849,10.821,15.891,15.976,24.001c13.351,21.009,28.163,40.968,43.442,60.582
	c2.167,2.781,5.225,5.03,8.234,6.955c4.407,2.818,9.156,5.097,13.73,7.656C506.849,402.153,508.32,403.181,510.443,404.524z"/>
<path fill-rule="evenodd" clip-rule="evenodd" fill="#FFFFFF" d="M305.901,485.423c-4.287,10.812-5.296,21.771-5.996,32.715
	c-1.178,18.426-1.976,36.875-2.939,55.313c-0.03,0.583-0.126,1.163-0.296,2.68c-1.258-1.877-2.175-3.002-2.831-4.264
	c-11.988-23.034-21.239-47.054-25.742-72.728c-1.232-7.026-1.818-14.133,0.283-21.152c0.394-1.313,0.774-2.64,1.299-3.902
	c2.411-5.809,6.489-7.879,12.595-6.226c7.438,2.012,13.576,6.162,18.689,11.871C302.619,481.578,304.218,483.479,305.901,485.423z"
	/>
<path fill-rule="evenodd" clip-rule="evenodd" fill="#FFFFFF" d="M346.873,552.808c3.458-10.944,6.902-21.842,10.375-32.835
	c12.241,0.472,24.398,0.94,37.112,1.43c0,3.528-0.001,6.858,0.001,10.188c0.001,0.874,0.009,1.747,0.02,2.62
	c0.067,5.51,1.197,11.348-5.31,14.905C375.474,550.307,361.219,551.554,346.873,552.808z"/>
<path fill-rule="evenodd" clip-rule="evenodd" fill="#FFFFFF" d="M168.053,599.1c12.472-1.616,24.465-3.172,36.459-4.723
	c1.734-0.224,3.476-0.39,5.205-0.642c4.667-0.68,4.709-0.737,4.708-5.344c-0.001-9.62-0.014-19.241-0.012-28.861
	c0.006-29.61,0.018-59.221,0.027-88.832c0.001-2.061,0-4.122,0.269-6.173c1.229,2.725,1.556,123.62,0.57,130.101
	c-16.197,2.383-32.569,4.386-49.355,6.356c0-62.498,0-124.295,0-186.581c16.391-1.242,32.687-3.014,49.471-3.39
	c0,13.032,0,25.565,0,38.099c-0.249,0.016-0.496,0.031-0.744,0.046c-0.537-6.485,0.029-13.039-0.253-20.164
	c-14.465,1.04-28.596,2.056-43.155,3.103c0-3.484,0-6.633,0-10.381c14.193-0.898,28.438-1.801,42.783-2.709c0-2.317,0-4.231,0-6.453
	c-3.803,0.271-7.262,0.529-10.724,0.764c-10.716,0.723-21.432,1.455-32.15,2.146c-3.771,0.243-4.005,0.433-4,4.192
	c0.066,52.724,0.124,105.446,0.217,158.17c0.011,6.119,0.213,12.238,0.354,18.357C167.74,597.026,167.909,597.87,168.053,599.1z"/>
<path fill-rule="evenodd" clip-rule="evenodd" fill="#FFFFFF" d="M139.618,404.207c-1.894,0.182-3.081,0.296-4.532,0.436
	c-0.251,1.948-0.5,3.87-0.831,6.439c-32.088-1.365-64.02-3.09-96.486-4.572c0-1.646,0-2.971,0-4.296c0-1.234,0-2.469,0-4.23
	c33.736,0.759,67.185,2.396,100.613,4.526C138.669,402.528,138.913,403.211,139.618,404.207z"/>
<path fill-rule="evenodd" clip-rule="evenodd" fill="#FFFFFF" d="M461.33,469.007c0.226-3.972,0.45-7.943,0.702-12.376
	c-3.802-2.071-7.671-4.045-11.384-6.278c-1.283-0.772-2.713-2.01-3.167-3.345c-6.536-19.177-16.252-36.709-27.315-53.566
	c-2.74-4.174-5.347-8.434-8.06-12.625c-1.498-2.315-1.951-4.637-1.321-7.445c1.446-6.452,2.535-12.983,3.79-19.479
	c0.158-0.82,0.438-1.618,0.78-2.857c2.293,2.372,3.127,4.448,2.519,7.537c-1.131,5.74-1.932,11.58-2.302,17.415
	c-0.126,1.988,1.16,4.27,2.308,6.1c4.77,7.616,9.826,15.051,14.603,22.663c7.597,12.104,13.53,25.025,18.251,38.498
	c0.886,2.524,2.104,4.359,4.727,5.336c2.064,0.768,3.95,2.014,6.503,3.355c0.76-6.492,1.46-12.465,2.183-18.637
	c-2.325-0.18-4.059-0.247-5.771-0.467c-1.224-0.158-2.508-0.329-3.616-0.826c-4.077-1.83-5.549-5.862-4.785-12.667
	c0.512-4.563,2.367-6.919,6.785-7.712c4.83-0.868,9.731-1.333,14.603-1.974c0.054,0.265,0.107,0.53,0.161,0.795
	c-3.08,0.8-6.16,1.599-9.481,2.46c0.137,0.895,0.241,1.575,0.413,2.698c-1.514,0-2.976-0.02-4.437,0.004
	c-4.087,0.066-4.45,0.39-4.938,4.34c-0.062,0.494-0.084,0.995-0.103,1.494c-0.263,6.715,1.402,8.743,7.987,9.742
	c1.946,0.295,3.894,0.585,6.483,0.975c-1.722,12.547-3.403,24.796-5.085,37.045C462.019,469.142,461.674,469.074,461.33,469.007z"/>
<path fill-rule="evenodd" clip-rule="evenodd" fill="#FFFFFF" d="M472.875,244.325c5.331-15.889,6.928-32.332,7.382-49.111
	c3.434-0.289,5.656,1.539,7.718,3.448c5.47,5.066,7.723,11.472,7.516,18.845C495.135,230.124,485.246,241.9,472.875,244.325z"/>
<path fill-rule="evenodd" clip-rule="evenodd" fill="#FFFFFF" d="M382.134,315.431c-12.363,0.511-24.54,2.658-37.178-1.246
	c3.307-5.225,6.638-9.899,10.974-13.979c6.383,3.287,12.729,1.984,19.03,0.114c4.612-1.37,9.167-2.935,13.991-4.492
	C386.647,302.452,384.455,308.756,382.134,315.431z"/>
<path fill-rule="evenodd" clip-rule="evenodd" fill="#FFFFFF" d="M215.545,450.577c0,4.018,0,7.443,0,11.487
	c-14.633,1.188-29.301,2.381-44.287,3.598c0-3.852,0-7.377,0-11.261C186.077,453.121,200.625,451.865,215.545,450.577z"/>
<path fill-rule="evenodd" clip-rule="evenodd" fill="#FFFFFF" d="M461.987,564.333c-1.903,5.551-2.771,10.505,1.739,14.898
	c-11.28-4.822-22.267-9.519-33.253-14.215c0.065-0.229,0.132-0.456,0.196-0.684C440.924,564.333,451.177,564.333,461.987,564.333z"
	/>
<path fill-rule="evenodd" clip-rule="evenodd" fill="#FFFFFF" d="M298.549,133.514c-5.136,0.311-10.075,0.608-14.98,0.904
	c0.187-3.579,8.816-22.135,12.313-26.301C296.766,116.55,297.663,125.088,298.549,133.514z"/>
<path fill-rule="evenodd" clip-rule="evenodd" fill="#FFFFFF" d="M296.571,282.822c5.957,2.205,11.046,4.169,16.196,5.955
	c2.068,0.717,4.272,1.041,6.415,1.544c0.212-0.223,0.426-0.445,0.638-0.668c-0.924-1.59-1.848-3.181-3.076-5.294
	c4.923,1.649,9.435,3.16,13.944,4.671c0.047,0.214,0.092,0.428,0.138,0.642c-4.963,1.532-9.892,3.19-14.901,4.551
	c-3.117,0.847-6.366,1.203-9.538,1.86c-2.57,0.532-4.482-0.325-5.518-2.677C299.386,290.036,298.087,286.584,296.571,282.822z"/>
<path fill-rule="evenodd" clip-rule="evenodd" fill="#FFFFFF" d="M387.825,126.452c-3.773,0.391-7.327,0.759-11.433,1.184
	c0.601-7.479,1.191-14.853,1.831-22.828C381.532,112.267,384.634,119.257,387.825,126.452z"/>
<path fill-rule="evenodd" clip-rule="evenodd" fill="#FFFFFF" d="M449.712,62.357c14.279,19.725,21.212,42.261,24.743,66.068
	C469.233,105.281,462.632,82.658,449.712,62.357z"/>
<path fill-rule="evenodd" clip-rule="evenodd" fill="#FFFFFF" d="M185.055,580.123c0.145-4.093,3.282-7.245,7.107-7.139
	c3.755,0.104,6.616,3.243,6.551,7.189c-0.062,3.77-3.968,7.787-7.35,7.56C187.949,587.504,184.924,583.854,185.055,580.123z
	 M196.337,579.678c-0.095-2.373-2.033-4.281-4.292-4.226c-2.3,0.056-4.309,2.505-4.267,5.202c0.034,2.265,2.141,4.411,4.214,4.293
	C194.098,584.827,196.43,581.998,196.337,579.678z"/>
<path fill-rule="evenodd" clip-rule="evenodd" fill="#FFFFFF" d="M298.418,296.944c-3.94,0.453-7.862,0.955-11.796,1.334
	c-2.095,0.202-3.613-0.961-4.628-2.65c-1.775-2.953-3.42-5.983-4.962-8.704C283.975,290.177,290.995,293.466,298.418,296.944z"/>
<path fill-rule="evenodd" clip-rule="evenodd" fill="#FFFFFF" d="M401.452,286.484c4.832-3.129,8.96-5.803,13.826-8.954
	c-1.94,3.854-3.548,7.044-5.293,10.51C407.281,287.547,404.656,287.068,401.452,286.484z"/>
<path fill-rule="evenodd" clip-rule="evenodd" d="M196.337,579.678c0.093,2.32-2.239,5.149-4.345,5.27
	c-2.073,0.118-4.18-2.028-4.214-4.293c-0.042-2.697,1.967-5.146,4.267-5.202C194.304,575.396,196.242,577.305,196.337,579.678z"/>
<line fill="none" stroke="#000000" stroke-width="2" stroke-linecap="round" stroke-linejoin="round" stroke-miterlimit="10" x1="347.178" y1="259.232" x2="350.884" y2="259.232"/>
</svg>
