<?xml version="1.0" encoding="utf-8"?>
<!-- Generator: Adobe Illustrator 16.0.3, SVG Export Plug-In . SVG Version: 6.00 Build 0)  -->
<!DOCTYPE svg PUBLIC "-//W3C//DTD SVG 1.1//EN" "http://www.w3.org/Graphics/SVG/1.1/DTD/svg11.dtd">
<svg version="1.1" id="レイヤー_1" xmlns="http://www.w3.org/2000/svg" xmlns:xlink="http://www.w3.org/1999/xlink" x="0px"
	 y="0px" width="578.938px" height="640.5px" viewBox="0 0 578.938 640.5" enable-background="new 0 0 578.938 640.5"
	 xml:space="preserve">
<path fill-rule="evenodd" clip-rule="evenodd" d="M292.278,395.077c3.101,0,5.684,0,8.489,0c0.288-1.661,0.534-3.232,0.838-4.794
	c1.398-7.193,4.385-10.012,11.625-10.274c7.492-0.271,14.998-0.216,22.499-0.223c24.26-0.025,48.52-0.014,72.778-0.015
	c1.488-0.001,2.976,0,4.975,0c0.305-7.054,0.154-13.85,0.064-21.083c-9.141-0.438-18.089-0.095-27.028-0.148
	c-9.003-0.054-18.007-0.031-27.01-0.036c-9.002-0.004-18.004,0-27.097,0c-2.194-0.978-3.504-2.667-3.507-5.183
	c-0.02-14.625-0.01-29.25-0.01-43.8c3.35-1.718,6.638-3.209,9.722-5.043c3.092-1.838,6.341-3.577,8.265-6.796
	c0.872-0.386,1.662-0.753,2.466-1.09c8.14-3.402,14.117-9.289,18.686-16.642c4.77-7.677,8.23-15.948,10.337-24.758
	c1.476-6.169,3.027-12.323,4.321-18.531c0.605-2.906,0.687-5.921,0.992-8.889c0.1-0.967,0.156-1.938,0.257-3.228
	c2.477-0.194,4.799-0.505,7.124-0.535c8.242-0.106,16.486-0.149,24.729-0.156c10.001-0.009,20.002,0.057,30.004,0.064
	c20.376,0.014,40.751,0.014,61.128,0.004c1.622-0.001,3.244-0.118,4.865-0.203c3.565-0.188,6.415,0.875,7.729,4.202
	c0,41.122,0,82.002-0.001,122.882c0,6.018-1.66,7.67-7.872,7.677c-20.884,0.025-41.767,0.023-62.65,0.031
	c-1.614,0.001-3.228,0-4.739,0c-0.981,2.813-1.199,16.302-0.401,21.193c0.785,0.082,1.628,0.252,2.468,0.244
	c4.375-0.038,8.756,0.016,13.121-0.221c7.106-0.384,13.684,5.416,13.107,13.123c-0.045,0.609-0.006,1.226-0.006,2.358
	c1.644,0.071,3.206,0.196,4.768,0.198c24.761,0.031,49.521,0.061,74.279,0.043c2.483-0.002,4.785,0.134,6.462,2.998
	c0.042,0.629,0.181,1.739,0.182,2.85c0.011,9.004,0.02,18.008-0.023,27.011c-0.023,5.239-1.506,6.705-6.673,6.753
	c-2.855,0.026-5.711,0.005-8.048,0.005c-0.607,0.475-0.723,0.538-0.8,0.632c-0.076,0.092-0.139,0.209-0.165,0.324
	c-0.083,0.362-0.205,0.729-0.208,1.096c-0.032,4.126-0.061,8.252-0.061,12.378c-0.004,55.864-0.003,111.728-0.003,167.915
	c4.543,0.576,8.748,0.957,12.896,1.669c6.512,1.117,13,2.396,19.467,3.757c1.356,0.286,2.576,1.223,4.318,2.089
	c-3.286,2.3-6.584,2.487-9.662,2.887c-9.521,1.235-19.073,2.274-28.636,3.151c-14.174,1.3-28.363,2.431-42.553,3.56
	c-5.104,0.407-10.228,0.574-15.339,0.898c-10.837,0.688-21.672,1.407-32.508,2.111c-0.623,0.04-1.249,0.054-1.874,0.072
	c-10.993,0.325-21.985,0.676-32.979,0.968c-20.486,0.545-40.972,1.351-61.461,1.518c-41.382,0.336-82.767,0.382-124.15,0.408
	c-12.37,0.008-24.742-0.364-37.109-0.709c-14.487-0.405-28.972-0.923-43.454-1.483c-10.984-0.425-21.971-0.859-32.941-1.53
	c-16.691-1.02-33.37-2.255-50.055-3.385c-8.848-0.6-17.709-1.042-26.545-1.786c-11.681-0.985-23.36-2.084-34.849-4.55
	c-1.625-0.35-3.54-0.337-4.822-2.642c1.185-0.51,2.205-1.173,3.311-1.388c7.104-1.38,14.213-2.747,21.35-3.943
	c3.928-0.658,7.913-0.975,12.231-1.487c0-60.753,0-121.346,0-182.273c-0.712-0.077-1.652-0.248-2.595-0.267
	c-2.125-0.041-4.252,0.037-6.376-0.013c-4.547-0.106-6.126-1.625-6.191-6.099c-0.063-4.375,0.066-8.753,0-13.129
	c-0.069-4.619-0.34-9.237-0.393-13.857c-0.052-4.647,1.621-6.386,6.248-6.399c17.882-0.053,35.764-0.037,53.646-0.047
	c1.718-0.001,3.436,0,5.664,0c-0.277-4.511-0.45-8.589-0.795-12.652c-0.559-6.587-1.253-13.162-1.848-19.746
	c-0.652-7.21-1.186-14.432-1.901-21.635c-0.969-9.757,2.458-17.601,10.062-23.666c7.006-5.589,15.245-7.892,23.983-8.583
	c14.742-1.167,29.478-0.628,44.193,0.562c4.975,0.402,9.949,0.926,14.887,1.643c3.654,0.531,7.167,0.297,10.767-0.445
	c5.604-1.155,11.334-1.745,17.131-4.181c0.094-1.797,0.193-3.704,0.304-5.829c-1.122,0-1.815,0-2.613,0
	c-0.485,1.203-0.983,2.437-1.627,4.033c-3.296-1.516-6.406-2.945-10.02-4.607c-0.167,2.027-0.302,3.672-0.454,5.52
	c-3.364,0.692-6.442-0.335-9.467-1.333c-2.952-0.975-5.927-2-8.689-3.402c-2.838-1.441-5.43-3.366-8.284-5.175
	c-1.12,3.236,1.16,5.442,1.838,8.397c-3.877-0.826-7.216-2.106-10.29-3.942c-2.927-1.748-5.678-3.792-8.914-5.982
	c0.635,4.39,3.402,7.089,5.65,10.873c-10.163-1.733-19.009-5.058-26.882-10.693c-7.854-5.621-13.25-13.43-18.193-21.623
	c0.235,7.699,2.406,14.73,6.644,21.91c-4.477-1.667-7.681-4.084-10.432-7.035c-2.713-2.909-5.141-6.084-7.87-9.354
	c-5.011-0.604-8.973-3.733-12.196-7.552c-2.87-3.4-5.02-7.408-7.475-11.156c-0.523-0.799-0.989-1.637-1.635-2.712
	c-1.745,7.258,1.75,20.282,8.79,27.846c-3.752-0.769-6.411-2.728-8.982-4.73c-8.784-6.843-14.375-15.632-16.932-26.585
	c-1.913-8.192-2.349-16.106-0.477-24.416c1.608-7.142,2.052-14.562,2.781-21.881c0.643-6.459,1.196-12.943,1.369-19.428
	c0.166-6.202-0.211-12.418-0.352-18.766c-6.751,0.338-13.013,0.602-19.798,0.028c2.497-3.142,4.796-5.722,6.74-8.547
	c4.452-6.472,9.105-12.837,12.205-20.13c0.38-0.895,0.783-1.903,0.735-2.836c-0.423-8.261,1.798-16.116,3.939-23.908
	c4.974-18.096,12.549-35.04,23.711-50.233c11.882-16.174,26.059-29.79,43.396-40.208c18.633-11.198,38.763-17.68,60.063-21.063
	c11.264-1.79,22.604-2.646,33.985-2.142c18.703,0.828,36.947,4.001,54.495,10.888c14.17,5.561,27.609,12.361,39.444,21.988
	c10.112,8.224,19.197,17.491,26.994,27.991c15.667,21.1,24.624,45,29.583,70.572c1.115,5.754,1.729,11.619,3.098,17.306
	c1.866,7.764,4.447,15.345,8.146,22.456c1.053,2.025,2.787,3.697,4.381,5.751c-6.409,1.854-10.633-2.157-15.637-5.679
	c0.22,2.704,0.507,4.649,0.516,6.597c0.046,9.878,0.243,19.765-0.038,29.635c-0.332,11.583-0.625,23.218-2.883,34.624
	c-1.719,8.685-4.799,16.994-7.909,25.295c-2.336,6.235-5.8,11.565-10.394,16.239c-1.246,1.268-2.815,2.22-4.952,3.871
	c1.494-5.174,2.45-9.503,1.563-14.082c-2.043,0.123-2.126,1.798-2.687,2.905c-2.995,5.919-6.055,11.818-10.491,16.795
	c-2.108,2.364-4.741,4.261-7.435,6.124c0.828-3.136,2.929-5.723,2.896-9.25c-1.913-0.172-2.914,1.12-4.015,1.92
	c-7.919,5.754-16.751,9.378-26.277,11.354c-2.614,0.542-5.311,0.689-8.1,0.711c5.497-4.151,10.198-8.716,12.083-15.616
	c-10.377,8.656-22.299,13.918-35.261,17.461c0.326-2.747,0.628-5.291,1.008-8.487c-4.104,2.263-7.477,4.527-11.159,6.042
	c-3.751,1.543-7.807,2.349-11.897,3.525c-0.211-2.358-0.381-4.236-0.606-6.739c-4.002,1.763-7.469,3.29-10.75,4.735
	c-1.937-1.102-1.103-4.012-3.701-4.305c-1.937,1.766-1.458,3.994-1.326,6.548c2.299,0.807,4.623,1.644,6.96,2.438
	c5.079,1.728,10.15,3.48,15.251,5.135c6.159,1.999,10.133,6.166,12.413,12.118c2.235,5.834,4.289,11.752,6.821,17.455
	c2.936,6.608,6.288,13.033,9.501,19.516c0.776,1.564,1.62,3.113,2.6,4.555c1.702,2.503,1.521,5.014-0.032,7.364
	c-2.113,3.199-4.458,6.244-7.23,10.089c0.975,2.477,1.962,5.834,3.556,8.874c3.826,7.294,7.936,14.439,11.938,21.641
	c0.242,0.437,0.581,0.821,0.805,1.264c2.672,5.26,6.167,9.042,12.272,11.056c4.786,1.577,8.801,5.535,13.104,8.513
	c1.73,1.198,3.191,2.817,4.994,3.873c6.256,3.665,9.083,9.029,8.577,16.229c-0.742,10.563-3.214,20.711-7.23,30.496
	c-0.188,0.458-0.336,0.932-0.633,1.763c3.192,4.6,2.874,9.659,0.67,14.747c-2.32,5.359-7.013,7.52-12.668,8.865
	c-0.21,2.964-0.373,5.926-0.638,8.879c-1.698,18.979-4.812,37.664-11.843,55.502c-0.867,2.201-1.989,4.313-3.138,6.387
	c-1.084,1.956-2.357,3.807-3.874,6.224c-0.145,3.063,0.987,6.983-2.308,10.341c5.12,1.903,6.723,5.8,7.025,10.583
	c1.164,0.124,2.129,0.291,3.097,0.318c2,0.058,4.002,0.037,6.002,0.058c24.377,0.263,48.755,0.488,73.13,0.813
	c8.249,0.109,16.494,0.472,24.741,0.705c1.357,0.037,2.717,0.005,4.296,0.005c0.103-1.256,0.252-2.223,0.253-3.189
	c0.036-24.134,0.092-48.268,0.067-72.401c-0.019-17.255-0.161-34.511-0.222-51.767c-0.009-2.485-0.163-5.021,0.254-7.446
	c1.146-6.656,5.191-9.999,11.873-10.105c5.002-0.079,10.004-0.109,15.006-0.112c15.13-0.01,30.262,0.005,45.393,0.009
	c1.354,0.001,2.709,0,3.986,0c1.509-2.554-0.611-6.171,2.761-7.184c2.497-9.446,1.965-18.125-4.011-26.219
	c-1.905,0.105-3.868,0.311-5.83,0.311c-48.269,0.008-96.537-0.022-144.806,0.026c-2.795,0.003-4.901-0.969-7.164-2.517
	c-7.102-4.857-14.411-9.409-21.626-14.104c-0.92-0.6-2.043-1.165-2.565-2.047c-3.762-6.335-7.397-12.745-11.052-19.143
	C292.804,396.707,292.662,396.092,292.278,395.077z M130.59,217.589c-0.223,0.062-0.445,0.124-0.667,0.186
	c-0.027,0.61-0.121,1.225-0.071,1.828c0.706,8.605,1.604,17.187,4.474,25.4c3.323,9.509,7.302,18.642,15.598,25.074
	c0.067,0.051,0.03,0.237,0.063,0.577c-4.383,0.453-8.451-1.301-12.914-2.071c0.856,5.129,2.658,9.099,7.49,11.127
	c4.257,1.787,8.322,4.133,12.696,5.528c22.048,7.032,44.693,10.912,67.831,10.919c18.915,0.007,37.641-2.296,56.04-6.96
	c8.125-2.06,16.108-4.34,23.751-7.949c11.666-5.51,17.405-14.813,18.852-27.037c-1.687-1.983-3.269-3.845-4.93-5.799
	c5.182-12.753,10.048-25.242,10.297-38.979c-3.463,5.695-7.633,10.714-13.036,15.837c1.189-6.406,1.431-11.939-0.865-17.309
	c-2.227-5.207-7.626-11.548-10.906-12.553c0.583,1.7,1.254,3.301,1.683,4.965c2.558,9.927,2.188,19.819-0.633,29.624
	c-2.074,7.21-6.074,13.114-12.363,17.34c-6.851,4.603-14.838,3.485-20.159-2.839c-2.602-3.092-4.612-6.535-5.687-10.464
	c-3.242-11.858-2.43-23.731-0.217-35.637c1.053-5.668,3.913-10.517,6.679-15.382c2.453-4.314,6.194-7.215,11.274-7.872
	c7.352-0.95,14.439-0.124,21.148,3.31c5.271,2.696,9.979,6.109,14.269,10.177c2.764,2.62,4.969,5.528,6.188,9.175
	c0.637,1.9,1.675,3.569,4.062,4.823c1.247-8.939,1.239-17.573,1.024-26.095c-11.785-10.034-20.08-22.449-27.126-35.308
	c-10.412-1.712-20.322-0.507-30.394,0.713c-1.054,2.865-2.076,5.67-3.117,8.469c-3.371,9.059-7.447,17.756-13.486,25.383
	c-3.454,4.363-7.463,8.119-12.56,10.654c1.97-4.402,3.85-8.602,5.729-12.801c-3.06,1.785-5.485,3.947-8.093,5.862
	c-4.928,3.619-10.347,6.055-16.602,6.143c-0.336,0.005-0.676-0.217-1.077-0.354c0.427-0.631,0.817-1.206,1.188-1.755
	c-3.938-4.413-7.762-8.699-11.586-12.985c-0.139,0.067-0.278,0.135-0.417,0.202c0.872,3.651,1.743,7.302,2.793,11.699
	c-6.482-5.573-10.892-11.737-13.827-18.844c-2.94-7.121-5.415-14.435-8.141-21.792c-8.537-0.862-17.169-2.581-26.142-0.572
	c-9.204,14.756-19.855,28.389-35.773,36.933c3.329-4.614,5.48-9.749,7.383-15.075c-2.94,1.838-5.881,3.675-8.952,5.594
	c-0.398,7.185-1.885,14.202-1.909,21.491c2.59-1.616,4.756-3.458,7.005-5.191c8.902-6.861,19.097-10.3,30.226-10.692
	c6.109-0.216,11.363,2.243,14.49,7.731c8.007,14.051,10.872,29.12,8.303,45.15c-0.76,4.736-2.223,9.203-4.899,13.248
	c-8.921,13.484-24.471,12.162-33.591,2.058c-4.758-5.271-7.607-11.736-8.978-18.73c-1.747-8.914-1.341-17.774,1.299-26.882
	c-4.465,3.101-6.846,7.14-8.272,11.904c-1.429,4.771-2.023,9.577-1.354,14.625C132.651,221.469,131.621,219.528,130.59,217.589z
	 M61.416,435.204c-0.018,60.48-0.199,120.525,0.103,180.826c22.355-1.138,44.129-2.247,65.787-3.35
	c0.522-2.585,0.545-5.11,1.575-7.119c1.015-1.979,3.05-3.433,4.917-5.414c-0.123-0.687-0.355-1.772-0.506-2.869
	c-0.781-5.666,1.022-8.863,6.416-10.668c3.78-1.265,7.662-2.266,11.552-3.149c11.574-2.628,23.243-4.715,35.086-5.718
	c4.077-0.346,8.15-0.742,12.45-1.136c0.088-1.294,0.217-2.382,0.226-3.472c0.03-3.5-0.001-7.001,0.022-10.502
	c0.036-5.617,1.246-7.128,6.764-8.574c0.207-0.055,0.357-0.323,0.788-0.733c0.132-3.231,0.341-6.714,0.382-10.197
	c0.016-1.338-0.349-2.68-0.555-4.122c-1.786-0.216-3.351-0.406-5.292-0.641c0-6.854,0-13.546,0-20.522
	c-1.718-0.108-3.054-0.201-4.391-0.274c-4.984-0.278-9.978-0.43-14.95-0.848c-10.571-0.89-21.146-1.778-31.691-2.927
	c-9.675-1.054-19.338-2.285-28.961-3.743c-7.329-1.109-11.778-7.734-10.554-15.045c0.745-4.454,2.776-6.462,7.298-7.278
	c0.683-0.124,1.335-0.415,2.155-0.677c-0.873-3.568-1.693-6.922-2.562-10.469c-0.944-0.292-1.985-0.718-3.068-0.932
	c-7.038-1.398-11.731-5.669-14.998-11.872c-2.665-5.06-3.962-10.48-4.715-16.075c-0.559-4.155-1.06-8.318-1.589-12.5
	C82.487,435.204,72.273,435.204,61.416,435.204z M140.737,361.59c0.417,3.87,0.758,7.22,1.141,10.564
	c0.996,8.693,2.25,17.337,5.134,25.652c1.404,4.046,3.279,7.81,6.239,10.99c1.85,1.988,4,2.537,6.445,1.549
	c3.956-1.597,7.749-3.528,10.748-6.661c3.368-3.517,6.675-7.094,9.971-10.68c0.639-0.695,1.103-1.552,1.697-2.403
	c-2.253-2.529-4.313-4.842-6.473-7.265c-0.828,4.164-1.554,7.813-2.314,11.636c-1.05-4.852-1.612-9.468-3.081-13.774
	c-2.414-7.083-5.366-13.986-8.192-20.925c-1.209-2.97-2.672-5.837-4.188-9.113c0.555-1.331,1.288-3.046,1.985-4.774
	c1.395-3.456,2.045-7.015,0.574-10.571c-1.446-3.495-1.902-6.93-0.58-10.56c0.432-1.186,0.514-2.499-1.081-3.078
	c-3.264,1.862-3.264,1.862-6.315,9.301c-2.426,0-4.875,0-7.396,0c-2.004-2.751-3.807-5.453-5.847-7.965
	c-2.12-2.608-4.364-5.139-6.764-7.488c-1.141-1.117-2.675-2.411-4.617-0.704c1.231,4.758,5.664,7.682,6.821,12.421
	c-3.307-2.929-6.282-6.125-9.425-9.146c-1.277-1.229-2.756-2.586-5.188-1.671c-0.013,4.942,4.155,7.911,5.889,12.461
	c-4.015-2.286-6.248-6.541-11.652-6.66c0.532,1.658,0.675,3.041,1.356,4.065c2.556,3.838,5.292,7.557,7.95,11.327
	c0.43,0.609,0.806,1.257,1.58,2.472c-6.255-4.065-7.363-4.422-10.535-3.524c0.304,2.142,1.852,3.493,3.268,4.815
	c2.552,2.383,5.469,4.4,7.85,6.933C130.283,353.645,134.748,358.517,140.737,361.59z M498.833,467.296
	c5.894,2.394,8.625,7.063,8.602,13.646c-0.062,16.876,0.024,33.754,0.01,50.63c-0.022,25.63-0.083,51.259-0.114,76.888
	c-0.003,1.715,0.109,3.431,0.179,5.459c3.532,0.285,6.696,0.54,10.166,0.819c0-60.095,0-119.646,0-179.447
	c-7.928,0-15.584,0-23.243,0c1.046,4.316,2.516,8.362,2.897,12.51c0.394,4.29-0.269,8.68-0.469,13.025
	c0.149-0.031,0.299-0.063,0.448-0.096C497.795,462.825,498.281,464.917,498.833,467.296z M229.792,576.333
	c7.739,0.827,14.943,1.362,22.07,2.422c7.233,1.074,14.391,2.664,21.772,4.063c0.569-3.616,1.104-7.007,1.557-9.886
	c-2.281-2.409-4.401-4.347-6.167-6.565c-8.207-10.311-14.471-21.804-20.133-33.642c-2.356-4.927-4.56-9.925-6.805-14.828
	c-4.539,0-8.748,0-13.487,0c-0.214,6.83-0.422,13.494-0.634,20.284c-2.003,0.289-3.671,0.528-5.475,0.788c0,5.012,0,9.807,0,14.843
	c6.29,0.87,7.777,4.946,7.314,10.336c-0.074,0.867-0.011,1.747-0.011,2.621C229.792,569.873,229.792,572.976,229.792,576.333z
	 M279.148,490.335c-0.546-10.4-2.71-19.934-9.576-27.648c-5.902-6.632-13.479-9.491-22.301-7.257
	c-10.238,2.593-16.2,10.253-21.131,18.904c-0.593,1.04-0.681,2.36-1.231,3.433c-2.39,4.658-4.899,9.255-7.289,13.912
	c-0.835,1.629-1.452,3.371-2.271,5.304c6.071,2.982,11.987,4.603,18.875,4.335c-0.916-2.137-1.589-3.71-2.263-5.283
	c2.819,1.542,3.888,4.837,7.378,5.281C249.841,488.444,262.593,483.467,279.148,490.335z M182.924,317.517
	c-5.793,0.608-7.514,1.336-9.771,5.133c-4.072,6.851-8.254,13.605-9.095,21.934c-0.378,3.735-0.374,7.185,0.96,10.618
	c1.944,5.003,3.901,10.004,6.034,14.928c0.563,1.3,1.653,2.474,2.745,3.427c4.375,3.818,8.846,7.527,13.804,11.718
	c2.166-9.267-1.522-17.446-3.577-25.888c1.919,2.535,3.838,5.069,5.757,7.604c0.209-0.068,0.417-0.137,0.626-0.205
	c0.209-8.18,0.418-16.358,0.623-24.34c0.905,4.22,1.851,8.63,2.797,13.041C196.75,340.797,189.27,329.288,182.924,317.517z
	 M179.327,490.62c6.54,3.796,13.151,5.036,19.803,5.992c4.946,0.71,8.811-1.384,11.332-5.62c2.805-4.713,5.436-9.531,8.044-14.357
	c6.525-12.067,15.15-21.938,28.165-27.308c0.691-0.285,1.283-0.81,2.067-1.316c-0.589-0.315-0.792-0.48-1.022-0.534
	c-0.36-0.085-0.742-0.147-1.109-0.128c-10.158,0.53-20.124,1.965-29.347,6.605c-6.178,3.107-11.394,7.388-16.336,12.287
	c-5.95,5.897-11.784,11.843-16.956,18.431C182.521,486.514,181.085,488.367,179.327,490.62z M283.927,438.118
	c3.862-2.649,7.913-4.071,12.436-3.726c2.112,0.161,4.221,0.38,6.334,0.538c1.268,0.096,2.539,0.124,4.121,0.196
	c-1.114-3.104-3.486-3.104-5.435-3.474c-2.816-0.533-4.576-1.99-6.004-4.469c-6.538-11.347-13.238-22.601-19.891-33.881
	c-0.546-0.927-1.179-1.804-1.508-2.303c-2.598,1.084-4.77,2.174-7.058,2.897c-2.536,0.802-4.065,2.182-4.359,4.935
	c-0.25,2.348-0.754,4.667-1.204,7.347C267.097,417.81,275.367,427.902,283.927,438.118z M308.984,494.743
	c-0.535-9.644-1.629-18.677-6.495-26.936c-2.589-4.394-6.243-7.146-11.058-8.286c-5.55-1.315-10.781-0.411-15.864,2.91
	c7.467,10.878,8.627,23.021,9.01,35.293c4.058-1.029,7.863-2.387,11.777-2.874C300.277,494.362,304.309,494.743,308.984,494.743z
	 M245.318,327.026c-4.685,3.461-9.378,6.933-14.913,9.234c-4.796-1.547-9.579-2.981-14.284-4.637
	c-4.693-1.652-8.978-4.385-13.93-5.813c3.087,7.947,6.014,15.48,9.043,23.278c13.188-0.029,26.613,0.155,39.99-0.143
	C251.678,343.388,248.516,331.848,245.318,327.026z M205.475,595.004c-1.641-0.05-2.815-0.177-3.978-0.104
	c-8.465,0.517-16.936,0.963-25.388,1.653c-7.448,0.608-14.875,1.479-22.305,2.3c-1.114,0.123-2.615-0.095-2.873,1.643
	c4.874,3.681,4.874,3.681,6.473,11.897c14.031-0.326,28.144-0.655,42.26-0.983C199.366,601.18,199.199,600.952,205.475,595.004z
	 M275.866,600.821c-0.299-1.953-1.45-2.279-2.977-2.407c-8.333-0.701-16.654-1.561-24.99-2.222
	c-7.719-0.611-15.45-1.062-23.18-1.523c-0.827-0.05-1.677,0.29-2.517,0.449c7.217,3.45,7.801,9.3,6.552,16.104
	c14.005,0,27.675,0,41.477,0C270.636,606.759,271.6,602.802,275.866,600.821z M254.126,319.796c0.534,1.442,0.937,2.462,1.29,3.498
	c2.052,6.012,4.301,11.966,6.088,18.057c2.923,9.956,5.329,20.021,4.03,30.565c-0.457,3.712-0.746,7.447-1.064,11.175
	c-0.09,1.056-0.013,2.125-0.013,3.623c8.538-2.632,14.612-7.387,18.456-14.868c-0.587-1.177-0.89-2.005-1.37-2.713
	c-6.349-9.368-10.634-19.73-14.668-30.224c-1.655-4.302-3.487-8.536-5.24-12.8C260.33,322.934,258.249,320.623,254.126,319.796z
	 M301.246,136.818c-7.736-16.159-15.597-32.075-21.733-48.872c0.497,17.285-0.563,34.334-4.985,51.789
	C283.528,135.41,292.105,134.662,301.246,136.818z M494.31,488.978c-6.077,0-11.914,0.001-17.75-0.001
	c-5.748-0.001-11.496-0.004-17.244-0.007c-5.873-0.002-11.746-0.058-17.619,0.008c-5.802,0.063-11.623-0.313-17.45,0.021
	c0,2.996,0,5.424,0,7.799c23.541,0,46.806,0,70.063,0C494.31,494.029,494.31,491.703,494.31,488.978z M243.524,323.34
	c-0.314-2.978-0.667-5.127-2.683-6.743c-13.265,4.159-25.232-1.47-37.436-5.003c-2.52,0.914-4.94,1.792-7.424,2.692
	c1.982,3.25,4.231,5.303,7.703,7.254c7.542,4.237,15.638,7.07,23.891,9.531c1.803,0.537,3.479,0.396,5.019-0.587
	C236.248,328.155,239.853,325.747,243.524,323.34z M169.947,443.087c-1.5-5.636-4.544-9.196-8.925-11.705
	c-4.203-2.405-8.833-3.396-13.586-3.823c-12.435-1.117-24.328,1.363-35.933,5.604c-0.674,0.247-1.232,0.811-1.845,1.227
	c6.593-0.995,13.011-1.67,19.495-1.302c8.572,0.486,16.633,2.211,22.06,9.818c0.132,0.186,0.408,0.269,0.269,0.181
	C157.668,443.087,163.5,443.087,169.947,443.087z M443.829,587.479c-0.02,8.871,6.662,15.728,15.682,15.69
	c8.458-0.035,15.138-6.153,15.4-15.587c0.229-8.213-7.831-15.842-16.017-15.748C450.852,571.927,443.848,579.201,443.829,587.479z
	 M424.124,530.2c2.851,0,5.334-0.002,7.817,0c19.462,0.02,38.924,0.046,58.386,0.047c1.321,0,2.643-0.182,3.979-0.279
	c0-2.095,0-3.771,0-5.651c-23.528,0-46.766,0-70.182,0C424.124,526.244,424.124,527.822,424.124,530.2z M194.388,139.75
	c-2.18-13.053-3.264-26.008-2.958-39.134c-5.429,12.022-11.095,23.822-18.458,35.541
	C180.881,135.132,187.649,136.357,194.388,139.75z M330.031,453.59c-1.041-1.854-1.579-3.099-2.368-4.158
	c-2.54-3.41-5.93-5.651-9.958-6.987c-7.731-2.564-15.733-1.226-23.634-1.86c8.583,2.405,16.843,5.146,21.615,13.006
	C320.453,453.59,324.785,453.59,330.031,453.59z M298.472,450.905c2.914,8.28,8.678,14.44,12.615,21.779
	c0.623-3.501,1.081-6.937,1.191-10.382c0.086-2.716-0.966-5.169-3.102-6.945C306.153,452.842,302.52,451.762,298.472,450.905z
	 M129.354,478.266c0.343,3.154,0.614,6.134,2.076,8.531c2.672,0,4.851,0,7.262,0c0-2.64,0-4.958,0-7.499
	c-2.589-0.434-5.151-0.886-7.722-1.273C130.521,477.957,130.033,478.157,129.354,478.266z"/>
<path fill-rule="evenodd" clip-rule="evenodd" fill="#FFFFFF" d="M130.59,217.589c1.03,1.939,2.061,3.88,3.091,5.819
	c-0.669-5.048-0.074-9.854,1.354-14.625c1.426-4.764,3.807-8.803,8.272-11.904c-2.64,9.107-3.046,17.968-1.299,26.882
	c1.371,6.995,4.219,13.459,8.978,18.73c9.12,10.104,24.669,11.426,33.591-2.058c2.676-4.044,4.139-8.511,4.899-13.248
	c2.569-16.03-0.296-31.099-8.303-45.15c-3.127-5.488-8.381-7.947-14.49-7.731c-11.128,0.393-21.323,3.831-30.226,10.692
	c-2.249,1.733-4.415,3.576-7.005,5.191c0.024-7.289,1.511-14.306,1.909-21.491c3.071-1.919,6.012-3.756,8.952-5.594
	c-1.903,5.326-4.054,10.46-7.383,15.075c15.918-8.544,26.57-22.176,35.773-36.933c8.973-2.008,17.605-0.29,26.142,0.572
	c2.726,7.357,5.2,14.671,8.141,21.792c2.935,7.107,7.345,13.271,13.827,18.844c-1.05-4.396-1.922-8.047-2.793-11.699
	c0.139-0.067,0.278-0.135,0.417-0.202c3.824,4.287,7.648,8.572,11.586,12.985c-0.371,0.549-0.761,1.124-1.188,1.755
	c0.4,0.138,0.741,0.36,1.077,0.354c6.255-0.088,11.673-2.523,16.602-6.143c2.607-1.915,5.033-4.077,8.093-5.862
	c-1.879,4.199-3.759,8.398-5.729,12.801c5.097-2.535,9.106-6.291,12.56-10.654c6.04-7.627,10.116-16.325,13.486-25.383
	c1.041-2.798,2.063-5.604,3.117-8.469c10.072-1.22,19.982-2.426,30.394-0.713c7.046,12.859,15.341,25.274,27.126,35.308
	c0.215,8.522,0.223,17.155-1.024,26.095c-2.387-1.254-3.425-2.923-4.062-4.823c-1.22-3.647-3.425-6.555-6.188-9.175
	c-4.289-4.068-8.998-7.481-14.269-10.177c-6.709-3.434-13.796-4.26-21.148-3.31c-5.08,0.657-8.821,3.558-11.274,7.872
	c-2.767,4.866-5.626,9.714-6.679,15.382c-2.213,11.906-3.025,23.779,0.217,35.637c1.074,3.929,3.084,7.373,5.687,10.464
	c5.321,6.324,13.309,7.441,20.159,2.839c6.289-4.226,10.289-10.129,12.363-17.34c2.82-9.805,3.19-19.697,0.633-29.624
	c-0.429-1.664-1.1-3.266-1.683-4.965c3.28,1.004,8.68,7.346,10.906,12.553c2.296,5.37,2.055,10.903,0.865,17.309
	c5.403-5.123,9.573-10.142,13.036-15.837c-0.249,13.737-5.115,26.226-10.297,38.979c1.661,1.954,3.243,3.815,4.93,5.799
	c-1.446,12.225-7.186,21.527-18.852,27.037c-7.643,3.609-15.625,5.889-23.751,7.949c-18.399,4.665-37.125,6.967-56.04,6.96
	c-23.138-0.008-45.783-3.888-67.831-10.919c-4.374-1.395-8.438-3.741-12.696-5.528c-4.832-2.028-6.634-5.998-7.49-11.127
	c4.463,0.77,8.531,2.524,12.914,2.071c-0.032-0.34,0.004-0.525-0.063-0.577c-8.296-6.433-12.275-15.565-15.598-25.074
	c-2.87-8.213-3.768-16.795-4.474-25.4c-0.049-0.603,0.044-1.218,0.071-1.828C130.146,217.713,130.368,217.65,130.59,217.589z"/>
<path fill-rule="evenodd" clip-rule="evenodd" fill="#FFFFFF" d="M61.416,435.204c10.857,0,21.072,0,31.69,0
	c0.529,4.182,1.03,8.345,1.589,12.5c0.753,5.595,2.05,11.016,4.715,16.075c3.267,6.203,7.96,10.474,14.998,11.872
	c1.083,0.214,2.124,0.64,3.068,0.932c0.868,3.547,1.688,6.9,2.562,10.469c-0.819,0.262-1.472,0.553-2.155,0.677
	c-4.522,0.816-6.553,2.824-7.298,7.278c-1.224,7.311,3.225,13.936,10.554,15.045c9.623,1.458,19.286,2.689,28.961,3.743
	c10.545,1.148,21.12,2.037,31.691,2.927c4.972,0.418,9.966,0.569,14.95,0.848c1.336,0.073,2.672,0.166,4.391,0.274
	c0,6.977,0,13.668,0,20.522c1.94,0.234,3.506,0.425,5.292,0.641c0.206,1.442,0.571,2.784,0.555,4.122
	c-0.042,3.483-0.25,6.966-0.382,10.197c-0.431,0.41-0.582,0.679-0.788,0.733c-5.519,1.446-6.728,2.957-6.764,8.574
	c-0.023,3.501,0.008,7.002-0.022,10.502c-0.009,1.09-0.138,2.178-0.226,3.472c-4.3,0.394-8.373,0.79-12.45,1.136
	c-11.843,1.003-23.512,3.09-35.086,5.718c-3.89,0.884-7.772,1.885-11.552,3.149c-5.393,1.805-7.196,5.002-6.416,10.668
	c0.151,1.097,0.383,2.183,0.506,2.869c-1.868,1.981-3.903,3.436-4.917,5.414c-1.03,2.009-1.053,4.534-1.575,7.119
	c-21.658,1.103-43.432,2.212-65.787,3.35C61.216,555.729,61.398,495.684,61.416,435.204z"/>
<path fill-rule="evenodd" clip-rule="evenodd" fill="#FFFFFF" d="M140.737,361.59c-5.989-3.073-10.454-7.945-15-12.777
	c-2.381-2.532-5.298-4.55-7.85-6.933c-1.417-1.322-2.964-2.674-3.268-4.815c3.172-0.897,4.28-0.541,10.535,3.524
	c-0.774-1.215-1.15-1.862-1.58-2.472c-2.658-3.771-5.394-7.489-7.95-11.327c-0.682-1.024-0.825-2.407-1.356-4.065
	c5.404,0.119,7.637,4.374,11.652,6.66c-1.733-4.55-5.901-7.519-5.889-12.461c2.432-0.915,3.911,0.441,5.188,1.671
	c3.143,3.021,6.118,6.218,9.425,9.146c-1.158-4.739-5.59-7.663-6.821-12.421c1.942-1.707,3.476-0.413,4.617,0.704
	c2.4,2.35,4.644,4.88,6.764,7.488c2.04,2.512,3.843,5.214,5.847,7.965c2.521,0,4.97,0,7.396,0c3.051-7.438,3.051-7.438,6.315-9.301
	c1.595,0.579,1.513,1.893,1.081,3.078c-1.323,3.63-0.866,7.064,0.58,10.56c1.471,3.557,0.82,7.115-0.574,10.571
	c-0.697,1.729-1.431,3.443-1.985,4.774c1.516,3.276,2.979,6.144,4.188,9.113c2.826,6.938,5.778,13.842,8.192,20.925
	c1.469,4.307,2.031,8.923,3.081,13.774c0.76-3.822,1.486-7.472,2.314-11.636c2.159,2.423,4.22,4.735,6.473,7.265
	c-0.594,0.852-1.058,1.708-1.697,2.403c-3.295,3.586-6.603,7.163-9.971,10.68c-3,3.133-6.792,5.064-10.748,6.661
	c-2.445,0.988-4.595,0.439-6.445-1.549c-2.959-3.181-4.835-6.944-6.239-10.99c-2.884-8.315-4.138-16.959-5.134-25.652
	C141.495,368.81,141.153,365.46,140.737,361.59z"/>
<path fill-rule="evenodd" clip-rule="evenodd" fill="#FFFFFF" d="M229.792,576.333c0-3.357,0-6.461,0-9.563
	c0-0.874-0.063-1.754,0.011-2.621c0.463-5.39-1.024-9.466-7.314-10.336c0-5.036,0-9.831,0-14.843
	c1.804-0.26,3.472-0.499,5.475-0.788c0.212-6.79,0.42-13.454,0.634-20.284c4.739,0,8.949,0,13.487,0
	c2.245,4.903,4.449,9.901,6.805,14.828c5.662,11.838,11.926,23.331,20.133,33.642c1.766,2.219,3.886,4.156,6.167,6.565
	c-0.453,2.879-0.987,6.27-1.557,9.886c-7.381-1.399-14.539-2.989-21.772-4.063C244.735,577.696,237.53,577.161,229.792,576.333z"/>
<path fill-rule="evenodd" clip-rule="evenodd" fill="#FFFFFF" d="M279.148,490.335c-16.556-6.868-29.308-1.892-39.806,10.98
	c-3.491-0.444-4.559-3.739-7.378-5.281c0.674,1.573,1.347,3.146,2.263,5.283c-6.888,0.268-12.804-1.353-18.875-4.335
	c0.819-1.933,1.435-3.675,2.271-5.304c2.39-4.657,4.899-9.254,7.289-13.912c0.55-1.072,0.638-2.393,1.231-3.433
	c4.931-8.651,10.893-16.312,21.131-18.904c8.822-2.234,16.399,0.625,22.301,7.257C276.438,470.402,278.603,479.935,279.148,490.335z
	"/>
<path fill-rule="evenodd" clip-rule="evenodd" fill="#FFFFFF" d="M182.924,317.517c6.345,11.771,13.826,23.28,10.903,37.97
	c-0.946-4.411-1.892-8.821-2.797-13.041c-0.204,7.981-0.414,16.16-0.623,24.34c-0.209,0.068-0.417,0.137-0.626,0.205
	c-1.919-2.535-3.838-5.069-5.757-7.604c2.055,8.441,5.743,16.621,3.577,25.888c-4.958-4.19-9.43-7.899-13.804-11.718
	c-1.092-0.953-2.181-2.127-2.745-3.427c-2.133-4.924-4.09-9.925-6.034-14.928c-1.334-3.434-1.338-6.883-0.96-10.618
	c0.841-8.328,5.023-15.083,9.095-21.934C175.41,318.853,177.131,318.125,182.924,317.517z"/>
<path fill-rule="evenodd" clip-rule="evenodd" fill="#FFFFFF" d="M179.327,490.62c1.758-2.253,3.194-4.105,4.641-5.948
	c5.172-6.588,11.006-12.533,16.956-18.431c4.942-4.899,10.159-9.18,16.336-12.287c9.223-4.641,19.188-6.075,29.347-6.605
	c0.367-0.02,0.749,0.043,1.109,0.128c0.229,0.054,0.433,0.219,1.022,0.534c-0.784,0.507-1.376,1.031-2.067,1.316
	c-13.015,5.37-21.64,15.24-28.165,27.308c-2.609,4.826-5.24,9.645-8.044,14.357c-2.521,4.236-6.386,6.33-11.332,5.62
	C192.478,495.656,185.867,494.416,179.327,490.62z"/>
<path fill-rule="evenodd" clip-rule="evenodd" fill="#FFFFFF" d="M283.927,438.118c-8.56-10.216-16.83-20.308-22.568-31.938
	c0.45-2.68,0.954-4.999,1.204-7.347c0.293-2.753,1.823-4.133,4.359-4.935c2.288-0.724,4.46-1.813,7.058-2.897
	c0.329,0.499,0.961,1.376,1.508,2.303c6.653,11.28,13.353,22.534,19.891,33.881c1.428,2.479,3.188,3.936,6.004,4.469
	c1.948,0.369,4.32,0.37,5.435,3.474c-1.582-0.072-2.854-0.101-4.121-0.196c-2.113-0.158-4.222-0.377-6.334-0.538
	C291.839,434.046,287.789,435.468,283.927,438.118z"/>
<path fill-rule="evenodd" clip-rule="evenodd" fill="#FFFFFF" d="M308.984,494.743c-4.675,0-8.707-0.381-12.63,0.107
	c-3.915,0.487-7.72,1.845-11.777,2.874c-0.382-12.271-1.542-24.415-9.01-35.293c5.083-3.321,10.314-4.226,15.864-2.91
	c4.814,1.141,8.469,3.893,11.058,8.286C307.355,476.066,308.449,485.099,308.984,494.743z"/>
<path fill-rule="evenodd" clip-rule="evenodd" fill="#FFFFFF" d="M245.318,327.026c3.198,4.822,6.36,16.362,5.906,21.921
	c-13.376,0.298-26.802,0.113-39.99,0.143c-3.03-7.798-5.956-15.331-9.043-23.278c4.952,1.428,9.237,4.16,13.93,5.813
	c4.705,1.655,9.487,3.09,14.284,4.637C235.94,333.958,240.633,330.487,245.318,327.026z"/>
<path fill-rule="evenodd" clip-rule="evenodd" fill="#FFFFFF" d="M254.126,319.796c4.122,0.826,6.203,3.138,7.509,6.313
	c1.752,4.264,3.585,8.498,5.24,12.8c4.034,10.493,8.319,20.855,14.668,30.224c0.48,0.708,0.783,1.536,1.37,2.713
	c-3.843,7.481-9.918,12.236-18.456,14.868c0-1.498-0.077-2.567,0.013-3.623c0.318-3.728,0.607-7.463,1.064-11.175
	c1.299-10.545-1.107-20.609-4.03-30.565c-1.787-6.091-4.037-12.045-6.088-18.057C255.063,322.258,254.661,321.239,254.126,319.796z"
	/>
<path fill-rule="evenodd" clip-rule="evenodd" fill="#FFFFFF" d="M301.246,136.818c-9.14-2.157-17.718-1.409-26.718,2.917
	c4.423-17.454,5.482-34.503,4.985-51.789C285.648,104.743,293.509,120.66,301.246,136.818z"/>
<path fill-rule="evenodd" clip-rule="evenodd" fill="#FFFFFF" d="M494.31,488.978c0,2.725,0,5.051,0,7.82
	c-23.258,0-46.522,0-70.063,0c0-2.375,0-4.803,0-7.799c5.827-0.334,11.648,0.042,17.45-0.021c5.873-0.065,11.746-0.01,17.619-0.008
	c5.748,0.003,11.496,0.006,17.244,0.007C482.396,488.979,488.233,488.978,494.31,488.978z"/>
<path fill-rule="evenodd" clip-rule="evenodd" fill="#FFFFFF" d="M243.524,323.34c-3.671,2.406-7.276,4.814-10.93,7.145
	c-1.54,0.983-3.216,1.124-5.019,0.587c-8.252-2.461-16.349-5.294-23.891-9.531c-3.472-1.951-5.721-4.004-7.703-7.254
	c2.484-0.9,4.905-1.778,7.424-2.692c12.204,3.533,24.171,9.162,37.436,5.003C242.856,318.213,243.209,320.363,243.524,323.34z"/>
<path fill-rule="evenodd" clip-rule="evenodd" fill="#FFFFFF" d="M169.947,443.087c-6.447,0-12.279,0-18.466,0
	c0.139,0.088-0.136,0.005-0.269-0.181c-5.426-7.607-13.487-9.332-22.06-9.818c-6.484-0.368-12.901,0.307-19.495,1.302
	c0.612-0.416,1.171-0.979,1.845-1.227c11.604-4.241,23.498-6.722,35.933-5.604c4.754,0.427,9.384,1.418,13.586,3.823
	C165.403,433.891,168.447,437.452,169.947,443.087z"/>
<path fill-rule="evenodd" clip-rule="evenodd" fill="#FFFFFF" d="M443.829,587.479c0.02-8.278,7.023-15.552,15.065-15.645
	c8.186-0.094,16.245,7.535,16.017,15.748c-0.263,9.434-6.942,15.552-15.4,15.587C450.491,603.207,443.809,596.35,443.829,587.479z
	 M469.593,587.592c0.077-5.516-4.846-10.267-10.71-10.336c-4.984-0.06-9.805,4.746-9.89,9.857
	c-0.091,5.415,4.71,10.682,9.883,10.841C464.4,598.124,469.514,593.177,469.593,587.592z"/>
<path fill-rule="evenodd" clip-rule="evenodd" fill="#FFFFFF" d="M424.124,530.2c0-2.378,0-3.956,0-5.884
	c23.416,0,46.653,0,70.182,0c0,1.881,0,3.557,0,5.651c-1.336,0.098-2.657,0.279-3.979,0.279
	c-19.462-0.001-38.924-0.027-58.386-0.047C429.458,530.198,426.974,530.2,424.124,530.2z"/>
<path fill-rule="evenodd" clip-rule="evenodd" fill="#FFFFFF" d="M194.388,139.75c-6.738-3.393-13.507-4.618-21.416-3.593
	c7.363-11.719,13.028-23.519,18.458-35.541C191.124,113.742,192.208,126.697,194.388,139.75z"/>
<path fill-rule="evenodd" clip-rule="evenodd" fill="#FFFFFF" d="M330.031,453.59c-5.246,0-9.578,0-14.346,0
	c-4.771-7.86-13.032-10.601-21.615-13.006c7.901,0.635,15.903-0.704,23.634,1.86c4.028,1.336,7.418,3.577,9.958,6.987
	C328.452,450.492,328.99,451.737,330.031,453.59z"/>
<path fill-rule="evenodd" clip-rule="evenodd" fill="#FFFFFF" d="M298.472,450.905c4.048,0.857,7.681,1.938,10.705,4.452
	c2.136,1.776,3.188,4.229,3.102,6.945c-0.11,3.445-0.568,6.881-1.191,10.382C307.15,465.345,301.386,459.185,298.472,450.905z"/>
<path fill-rule="evenodd" clip-rule="evenodd" fill="#FFFFFF" d="M129.354,478.266c0.679-0.109,1.167-0.31,1.615-0.241
	c2.571,0.388,5.133,0.84,7.722,1.273c0,2.541,0,4.859,0,7.499c-2.411,0-4.59,0-7.262,0
	C129.968,484.4,129.697,481.42,129.354,478.266z"/>
<path fill-rule="evenodd" clip-rule="evenodd" d="M469.593,587.592c-0.079,5.585-5.193,10.531-10.717,10.362
	c-5.173-0.159-9.974-5.426-9.883-10.841c0.085-5.111,4.905-9.917,9.89-9.857C464.748,577.326,469.67,582.077,469.593,587.592z"/>
<line fill="none" stroke="#000000" stroke-width="2.4" stroke-linecap="round" stroke-linejoin="round" x1="223.625" y1="270.722" x2="230.562" y2="270.722"/>
</svg>
