<?xml version="1.0" encoding="utf-8"?>
<!-- Generator: Adobe Illustrator 16.0.3, SVG Export Plug-In . SVG Version: 6.00 Build 0)  -->
<!DOCTYPE svg PUBLIC "-//W3C//DTD SVG 1.1//EN" "http://www.w3.org/Graphics/SVG/1.1/DTD/svg11.dtd">
<svg version="1.1" id="レイヤー_1" xmlns="http://www.w3.org/2000/svg" xmlns:xlink="http://www.w3.org/1999/xlink" x="0px"
	 y="0px" width="503.832px" height="670.736px" viewBox="0 0 503.832 670.736" enable-background="new 0 0 503.832 670.736"
	 xml:space="preserve">
<path d="M458.918,659.904c8.15,0,15.613-0.09,23.074,0.025c7.254,0.111,14.537-0.147,21.758,0.659
	c0.027,0.366,0.054,0.734,0.081,1.104c-0.956,0.179-1.911,0.503-2.869,0.515c-8.944,0.112-17.889,0.204-26.834,0.23
	c-4.729,0.015-9.473-0.313-14.195-0.133c-9.415,0.354-18.82,0.932-28.229,1.465c-8.07,0.458-16.138,0.97-24.205,1.482
	c-9.421,0.599-18.837,1.301-28.263,1.808c-6.151,0.329-12.318,0.369-18.479,0.578c-6.393,0.217-12.784,0.487-19.177,0.721
	c-7.529,0.273-15.058,0.593-22.591,0.781c-10.128,0.253-20.311-0.164-30.379,0.713c-18.287,1.594-36.564,0.499-54.842,0.722
	c-11.603,0.144-23.212,0.088-34.813-0.129c-19.095-0.354-38.187-0.867-57.277-1.4c-13.223-0.371-26.446-0.788-39.661-1.379
	c-12.219-0.545-24.426-1.361-36.639-2.028c-8.083-0.44-16.168-0.824-24.252-1.237c-9.329-0.478-18.66-0.918-27.983-1.478
	c-1.866-0.112-4.021,0.218-5.749-2.199c1.18-0.335,2.025-0.73,2.896-0.798c8.935-0.688,17.869-1.404,26.813-1.943
	c10.072-0.605,20.153-1.077,30.233-1.538c10.18-0.466,20.36-0.955,30.544-1.237c13.731-0.383,27.468-0.569,41.202-0.854
	c1.323-0.027,2.644-0.146,4.4-0.242c-1.332-4.48-2.524-8.515-3.728-12.543c-1.567-5.246-3.226-10.468-4.698-15.741
	c-1.941-6.956-4.038-13.89-5.515-20.947c-1.376-6.576-2.027-13.307-3.003-19.968c-0.268-1.825-0.561-3.646-0.752-4.883
	c-5.894-2.666-11.165-5.204-16.561-7.442c-4.947-2.055-10.054-3.719-15.043-5.678c-4.053-1.591-8.091-3.242-12.035-5.084
	c-6.208-2.897-12.336-5.973-18.488-8.99c-1.893-0.93-3.756-1.92-6.175-3.159c16.292-44.75,39.036-85.515,70.703-121.202
	c0-0.169,0.092-0.466-0.013-0.654c-3.16-5.668-2.94-11.271-0.306-17.152c4.353-9.72,4.971-20.291,6.448-30.659
	c0.615-4.317,1.438-8.608,2.281-12.892c0.209-1.063,0.693-2.164,1.338-3.036c4.606-6.235,9.222-12.479,15.835-16.835
	c0.71-0.469,1.387-0.986,1.966-1.9c-13.619,0.871-24.275-4.037-32.831-14.575c0.958,2.988,1.758,6.042,2.919,8.95
	c1.146,2.871,2.659,5.599,4.007,8.384c-9.011,1.29-20.115-7.879-27.817-22.432c0.362,2.283,0.62,4.59,1.113,6.845
	c0.559,2.561,1.229,5.104,2.035,7.597c0.761,2.354,1.76,4.631,2.814,7.352c-10.257-0.901-19.366-3.663-27.369-9.608
	c-7.844-5.828-13.199-13.747-18.261-21.998c-1.658,8.441,0.989,15.672,5.702,22.617c-3.672-0.709-7.137-1.666-10.354-3.534
	c-12.217-7.092-19.483-18.049-24.106-30.994c-3.852-10.782-5.85-21.944-6.15-33.4c-0.012-0.461-0.087-0.919-0.493-1.508
	c-5.251,6.01-8.428,13.09-10.247,20.717c-1.871,7.847-1.228,15.632,2.342,23.07c-0.172,0.197-0.345,0.396-0.517,0.593
	c-1.09-0.57-2.274-1.015-3.254-1.733C6.489,305.226,1.986,296.296,0.505,285.7c-1.757-12.574,1.218-24.312,6.468-35.633
	c2.51-5.412,4.681-11.002,7.488-16.253c3.233-6.048,6.918-11.859,10.555-17.683c4.232-6.774,8.87-13.309,12.872-20.214
	c3.17-5.47,5.171-11.504,7.353-17.475c1.988-5.439,2.27-11.229,4.565-16.507c4.065-9.349,7.801-18.768,12.87-27.738
	c11.625-20.578,27.842-36.377,47.817-48.396c11.009-6.625,22.978-11.241,35.542-14.461c16.112-4.129,32.388-5.885,48.92-4.84
	c9.299,0.588,18.549,1.958,27.818,3.003c0.733,0.083,1.477,0.313,2.156,0.611c6.559,2.88,13.672,3.699,20.48,5.618
	c6.705,1.89,13.19,4.558,19.761,6.913c1.141,0.409,2.229,0.969,3.867,1.69c0-27.134,0-53.775,0-80.614
	c1.72-0.561,3.091-1.108,4.513-1.447c3.38-0.804,6.755-1.813,10.188-2.151c2.627-0.26,5.52-0.139,7.984,0.71
	c6.765,2.327,13.378,5.089,20.025,7.746c11.965,4.78,23.926,9.569,35.854,14.435c9.044,3.688,18.044,7.479,27.051,11.255
	c13.021,5.458,26.027,10.952,39.059,16.396c0.88,0.367,1.878,0.629,2.822,0.629c2.567,0,5.14-0.188,7.711-0.26
	c4.188-0.118,8.382-0.319,12.57-0.276c6.842,0.07,13.681,0.305,20.521,0.49c0.216,0.006,0.425,0.238,0.949,0.553
	c0.051,1.008,0.168,2.218,0.168,3.428c0.005,173.677,0.001,347.354-0.001,521.028c0,26.126-0.001,52.251,0.024,78.376
	C458.482,656.203,458.735,657.776,458.918,659.904z M450.95,368.118c-0.277-1.091-0.795-2.182-0.797-3.271
	c-0.036-23.211-0.065-46.422,0.011-69.633c0.056-17.338,0.39-34.675,0.351-52.013c-0.021-9.5-0.737-18.999-0.815-28.5
	c-0.073-9.03,0.248-18.063,0.444-27.097c0.319-14.495-0.335-28.985,0.369-43.498c0.527-10.854-0.323-21.77-0.353-32.656
	c-0.031-12.347,0.275-24.692,0.222-37.038c-0.021-5.099-0.603-10.192-0.934-15.354c-3.752,0.696-7.296-1.21-10.468,1.486
	c0,21.989-0.009,44.035,0.003,66.081c0.009,21.971,0.056,43.939,0.049,65.91c-0.008,22.181-0.066,44.358-0.09,66.538
	c-0.025,22.371-0.052,44.744-0.051,67.116c0.004,22.164,0.04,44.326,0.059,66.489c0.017,22.354,0.022,44.706,0.039,67.06
	c0.015,22.132,0.054,44.265,0.048,66.396c-0.005,21.788-0.23,43.577-0.031,65.361c0.201,21.932-0.397,43.871,0.136,65.537
	c3.43,0.209,6.197,0.378,9.271,0.564c0.321-0.95,0.853-1.945,0.975-2.989c0.335-2.866,0.676-5.752,0.697-8.632
	c0.082-9.563,0.023-19.123,0.024-28.686c0.002-34.554,0.006-69.104,0.007-103.656c0.002-25.344-0.011-50.688,0.027-76.029
	c0.004-1.193,0.457-2.387,0.701-3.579c0.286,1.11,0.817,2.219,0.82,3.33c0.016,8.244-0.128,16.49-0.117,24.734
	c0.028,24.842,0.189,49.683,0.144,74.522c-0.071,36.938-0.286,73.872-0.403,110.812c-0.009,2.78,0.203,5.568,0.474,8.34
	c0.069,0.713,0.749,1.364,1.149,2.044c0.896-1.774,1.206-3.236,1.206-4.698c-0.021-198.471-0.064-396.938-0.118-595.41
	c0-0.99-0.176-1.979-0.285-2.971c-0.013-0.106-0.133-0.21-0.219-0.298c-0.085-0.087-0.191-0.15-0.288-0.221
	c-8.392,0.381-16.818-0.044-25.256,1.041c1.186,0.792,2.412,1.251,3.668,1.353c1.862,0.15,3.748,0.048,5.623,0.049
	c4.703,0.002,9.403,0.002,14.273,0.002c0.074,1.603,0.168,2.698,0.17,3.795c0.014,13.697,0.02,27.396,0.015,41.097
	c-0.01,26.775-0.004,53.551-0.046,80.326c-0.022,14.037-0.19,28.072-0.187,42.107c0.007,16.947,0.166,33.895,0.192,50.84
	c0.044,28.032,0.058,56.064,0.014,84.097C451.669,361.986,451.203,365.051,450.95,368.118z M273.898,7.323
	c0,119.945,0,239.746,0,359.763c4.465,2.145,7.438,5.485,8.518,10.367c0.209-0.453,0.291-0.799,0.291-1.145
	c0.05-26.879,0.121-53.76,0.132-80.64c0.021-51.508,0.007-103.016,0.002-154.522c-0.002-31.004-0.007-62.009-0.028-93.014
	c-0.011-12.753-0.09-25.506-0.082-38.259c0-1.34,0.383-2.681,0.648-4.416c2.839,1.779,1.951,3.992,1.948,5.786
	c-0.043,27.737-0.209,55.477-0.267,83.215c-0.065,31.5-0.067,63-0.067,94.501c0.001,38.355,0.03,76.713,0.053,115.069
	c0.007,11.378,0.142,22.758,0.017,34.135c-0.137,12.372-0.219,24.758-0.914,37.104c-0.287,5.095-1.373,10.037,0.625,15.034
	c0.521,1.306,0.238,2.972,0.164,4.466c-0.139,2.867-0.592,5.729-0.564,8.59c0.174,18.125,0.591,36.247,0.646,54.371
	c0.08,25.248-0.133,50.498-0.14,75.747c-0.008,32.256,0.062,64.513,0.106,96.77c0.017,10.13,0.068,20.258,0.111,30.386
	c0.01,1.976-0.173,4.095,3.12,4.427c0-21.849,0-43.525,0-65.204c0.157,0.002,0.314,0.003,0.472,0.005
	c0.307,21.639,0.61,43.275,0.924,65.439c5.25-0.379,10.132-0.646,14.99-1.107c5.096-0.484,10.166-1.206,15.258-1.742
	c7.757-0.815,15.521-1.559,23.279-2.342c10.415-1.051,20.829-2.099,31.242-3.169c8.308-0.854,16.604-1.784,24.914-2.596
	c5.581-0.545,11.185-0.888,16.765-1.433c3.68-0.355,7.339-0.914,11.496-1.443c0-8.378,0.063-16.442-0.018-24.504
	c-0.084-8.287-0.425-16.57-0.437-24.855c-0.009-6.758,0.385-13.516,0.448-20.274c0.046-4.647-0.258-9.3-0.239-13.946
	c0.05-12.741,0.19-25.48,0.28-38.222c0.06-8.072,0.129-16.146,0.118-24.222c-0.009-6.884-0.142-13.768-0.188-20.651
	c-0.048-6.921-0.085-13.841-0.075-20.761c0.012-9.325,0.111-18.649,0.1-27.978c-0.01-7.404-0.112-14.81-0.217-22.213
	c-0.063-4.471-0.331-8.94-0.291-13.409c0.096-10.428,0.427-20.853,0.466-31.278c0.039-10.371-0.205-20.74-0.242-31.112
	c-0.021-5.553,0.228-11.104,0.188-16.655c-0.049-6.818-0.419-13.637-0.386-20.452c0.05-10.207,0.409-20.412,0.488-30.619
	c0.079-10.484-0.059-20.969-0.03-31.454c0.021-7.954,0.217-15.909,0.209-23.861c-0.012-10.267-0.141-20.529-0.229-30.796
	c-0.054-6.215-0.182-12.431-0.18-18.646c0.002-7.315,0.104-14.63,0.171-21.946c0.044-4.813,0.151-9.625,0.132-14.437
	c-0.021-5.757-0.22-11.515-0.214-17.271c0.006-6.686,0.185-13.371,0.221-20.057c0.041-7.7,0.009-15.401,0.008-23.104
	c0-2.938,0-5.878,0-8.685c-46.723-18.576-92.355-38.944-138.106-56.379C283.871,5,279.165,6.097,273.898,7.323z M125.973,219.964
	c-0.502-0.117-0.777-0.282-0.945-0.208c-11.672,5.167-19.309,13.545-20.792,26.622c-0.333,2.937-0.108,5.938-0.11,8.909
	c-0.006,13.497-0.016,26.994,0.012,40.491c0.005,2.387,0.099,4.82,2.057,6.597c2.867,2.601,5.588,5.409,8.704,7.674
	c12.985,9.446,27.855,14.531,43.345,17.893c17.476,3.792,35.168,4.337,52.923,2.446c14.122-1.504,27.803-4.776,40.579-11.177
	c6.268-3.14,12.035-7.046,17.37-12.188c0-7.429-0.017-14.913,0.004-22.396c0.026-9.361,0.207-18.728,0.073-28.086
	c-0.065-4.58-0.024-9.337-1.227-13.685c-1.648-5.971-5.613-10.839-10.169-15.055c-1.249-1.156-2.88-1.898-4.336-2.83
	c5.476,10.59,6.004,21.377,4,32.479c-0.854,4.738-2.604,9.145-5.676,12.913c-6.876,8.44-20.863,11.029-28.98-1.043
	c-3.007-4.472-4.61-9.405-5.337-14.662c-1.312-9.489,0.123-18.509,3.561-27.521c3.703-9.708,13.437-15.792,23.594-13.94
	c9.353,1.704,16.596,6.569,22.492,13.78c0.47,0.575,1.051,1.061,1.978,1.979c0-5.147,0.147-9.647-0.094-14.125
	c-0.068-1.287-1.059-2.698-1.982-3.729c-2.25-2.501-4.875-4.67-7.059-7.223c-11.693-13.672-18.119-29.762-21.408-47.258
	c-0.15-0.801-0.385-1.584-0.798-3.261c-1.932,5.518-3.411,10.229-5.22,14.813c-5.668,14.355-12.832,27.695-26.037,36.721
	c-0.637,0.437-1.395,0.695-2.811,1.383c2.185-6.555,4.123-12.371,6.061-18.188c-10.782,11.41-22.039,21.896-37.529,26.986
	c0.906,2.411,1.65,4.395,2.394,6.376c-0.31,0.164-0.621,0.326-0.93,0.489c-14.228-6.313-18.045-19.931-22.38-33.317
	c-8.157-3.383-15.816-0.89-23.685,2.369c3.349-7.62,11.333-10.449,22.381-8.509c0.633-11.006,1.268-22.041,1.923-33.433
	c-12.938,21.783-28.638,40.865-48.209,55.681c0,7.968,0,15.231,0,23.34c1.205-1.573,1.795-2.497,2.535-3.281
	c3.073-3.254,5.887-6.847,9.35-9.623c10.042-8.053,24.375-8.75,35.146-2.17c3.796,2.317,6.51,5.498,7.667,9.789
	c1.264,4.689,2.656,9.396,3.317,14.187c1.266,9.187,0.668,18.234-3.907,26.621c-3.444,6.313-8.766,10.155-15.95,10.157
	c-8.798,0.001-15.467-4.398-18.849-12.491c-5.454-13.051-4.929-26.076,1.733-38.708
	C125.186,221.723,125.551,220.861,125.973,219.964z M162.025,408.792c0.767,3.277,2.112,5.389,4.588,7.088
	c11.225,7.711,23.28,13.369,36.521,16.823c18.869,4.924,36.879,2.578,54.343-5.34c4.781-2.167,8.61-5.715,10.379-10.972
	c1.713-0.301,3.457-0.481,5.133-0.927c3.117-0.823,4.416-2.249,4.582-4.708c0.148-2.239-0.898-3.475-3.994-4.707
	c-1.543-0.612-3.081-1.236-4.622-1.855c3.921-1.919,6.748,1.813,10.282,1.385c0.97-6.098-0.791-8.881-6.452-10.533
	c-0.796-0.23-1.481-0.825-2.22-1.254c4.203-1.437,7.004,0.916,10.101,3.104c1.229-3.676,0.405-6.861-0.972-9.955
	c-1.978-4.444-6.209-4.631-10.392-4.776c0.746-2.597,2.384-2.965,4.229-2.858c1.682,0.097,3.357,0.317,5.111,0.493
	c-1.648-8.685-8.498-11.512-15.229-6.435c-1.859,1.402-3.828,3.064-4.879,5.063c-3.825,7.278-7.288,14.75-10.874,22.153
	c-0.442,0.913-0.807,1.865-1.207,2.799c-0.322-0.055-0.645-0.109-0.967-0.165c0-2.089,0-4.179,0-6.571
	c-2.496,0.183-4.519,0.086-6.421,0.519c-3.995,0.907-7.871,2.655-11.895,3.052c-8.995,0.885-17.943,0.802-26.25-3.874
	c-4.708-2.649-9.765-4.295-15.394-3.551C174.957,394.185,166.58,398.615,162.025,408.792z M282.585,416.014
	c-0.228,0.008-0.454,0.017-0.681,0.023c-1.961,2.887-3.905,5.783-5.887,8.656c-1.375,1.994-2.266,4.065-2.242,6.602
	c0.102,10.846,0.08,21.691,0.09,32.54c0.011,10.356-0.002,20.718,0.007,31.074c0.013,15.74,0.062,31.482,0.045,47.226
	c-0.017,16.985-0.119,33.977-0.122,50.965c-0.002,13.615,0.104,27.229,0.135,40.845c0.022,9.724,0.004,19.443,0.004,29.506
	c2.928,0.331,5.57,0.629,8.651,0.979C282.585,581.278,282.585,498.646,282.585,416.014z M135.597,582.565
	c0.19,5.479,0.361,10.415,0.536,15.35c0.004,0.123,0.052,0.244,0.071,0.368c2.676,16.917,7.283,33.329,12.969,49.456
	c2.033,5.768,4.767,7.123,11.08,5.56c11.761-18.975,14.503-40.287,16.274-62.34C162.688,588.12,149.457,585.406,135.597,582.565z
	 M224.972,653.784c0.761-1.092,1.609-1.924,2.002-2.934c2.795-7.189,5.849-14.308,8.13-21.66c2.21-7.126,3.867-14.456,5.255-21.794
	c1.058-5.589,1.339-11.327,1.909-17.005c0.185-1.832-0.901-2.785-2.609-3.009c-0.982-0.129-1.995-0.113-2.988-0.061
	c-9.711,0.537-19.422,1.089-29.131,1.66c-0.949,0.057-1.888,0.271-2.688,0.388c0,2.562-0.042,4.786,0.008,7.012
	c0.109,4.86-0.169,9.782,0.499,14.569c1.183,8.495,2.78,16.944,4.535,25.347c1.262,6.044,2.43,12.2,6.223,17.484
	C218.935,653.784,221.792,653.784,224.972,653.784z M251,585.803c-0.173,0.429-0.322,0.648-0.35,0.886
	c-1.067,9.243-1.215,18.634-4.438,27.532c-0.163,0.45-0.135,0.993-0.107,1.485c0.487,8.603-3.132,15.957-6.782,23.394
	c-2.22,4.521-3.77,9.37-5.881,14.729c12.404-0.229,23.906,0.438,35.765-0.081c0-4.354,0.059-8.208-0.014-12.058
	c-0.127-6.974-0.483-13.946-0.469-20.918c0.02-8.845,0.293-17.689,0.498-26.534c0.074-3.241,0.434-6.481,0.362-9.719
	c-0.063-2.899-1.5-3.953-4.123-3.188C260.577,582.755,255.734,584.33,251,585.803z M206.105,652.951
	c-1.402-6.342-2.653-11.92-3.862-17.509c-0.763-3.531-1.653-7.05-2.147-10.621c-0.836-6.03-1.528-12.091-2.038-18.158
	c-0.312-3.726-0.089-7.491-0.272-11.231c-0.088-1.799-0.558-3.578-0.849-5.338c-2.453,0-4.439,0-6.426,0c-1.938,0-3.874,0-5.548,0
	c-3.334,21.913-5.212,43.479-16.173,63.247c1.708,0.313,3.14,0.848,4.551,0.796c5.935-0.22,11.86-0.691,17.794-0.922
	C196.087,653.02,201.048,653.032,206.105,652.951z M66.645,229.81c-6.295-0.8-12.216,2.215-16.068,7.949
	c-8.4,12.501-6.722,28.59,4.216,38.908c2.843,2.684,6.075,4.946,10.258,5.792c0-6.365,0-12.333,0-19.417
	c-2.106-1.918-4.743-4.317-7.51-6.838c2.332-2.008,4.944,0.205,7.537-0.848c0-3.359,0-6.778,0-10.269
	c-3.49-2.143-6.944-4.054-11.955-2.376c4.437-4.608,8.392-1.692,12.628-0.567C66.059,237.91,66.343,233.982,66.645,229.81z
	 M269.009,343.711c-4.726,1.895-8.975,3.984-13.454,5.281c-4.455,1.288-9.144,1.799-13.855-0.018
	c6.77-8.121,6.978-8.452,7.476-12.253c-4.842,6.211-11.034,9.737-18.437,12.491c10.776,6.681,19.229,15.061,27.569,24.294
	c2.504-4.136,6.62-5.276,10.703-6.404C269.009,359.17,269.009,351.584,269.009,343.711z"/>
<path fill="#FFFFFF" d="M273.898,7.323c5.267-1.227,9.973-2.322,15.635-3.643c45.751,17.436,91.386,37.803,138.106,56.379
	c0,2.807,0,5.745,0,8.686c0.001,7.7,0.033,15.401-0.008,23.103c-0.036,6.687-0.215,13.372-0.221,20.057
	c-0.006,5.757,0.189,11.515,0.214,17.271c0.02,4.813-0.088,9.625-0.132,14.438c-0.064,7.315-0.169,14.632-0.171,21.946
	c-0.002,6.215,0.126,12.431,0.18,18.646c0.088,10.266,0.217,20.528,0.228,30.795c0.009,7.954-0.188,15.907-0.21,23.861
	c-0.024,10.484,0.111,20.971,0.032,31.454c-0.079,10.207-0.438,20.412-0.488,30.619c-0.033,6.815,0.337,13.634,0.386,20.452
	c0.04,5.551-0.206,11.104-0.188,16.655c0.037,10.372,0.281,20.742,0.242,31.112c-0.039,10.428-0.37,20.853-0.466,31.278
	c-0.04,4.469,0.229,8.938,0.291,13.408c0.104,7.404,0.207,14.81,0.217,22.214c0.014,9.326-0.088,18.649-0.1,27.978
	c-0.011,6.92,0.027,13.84,0.074,20.761c0.05,6.886,0.183,13.77,0.189,20.651c0.011,8.074-0.061,16.147-0.118,24.222
	c-0.09,12.739-0.23,25.479-0.281,38.222c-0.018,4.646,0.286,9.299,0.24,13.947c-0.063,6.76-0.457,13.518-0.449,20.273
	c0.013,8.285,0.354,16.568,0.438,24.855c0.081,8.062,0.018,16.126,0.018,24.504c-4.157,0.529-7.816,1.088-11.496,1.443
	c-5.582,0.545-11.184,0.888-16.765,1.433c-8.31,0.812-16.608,1.741-24.914,2.596c-10.413,1.07-20.827,2.118-31.242,3.169
	c-7.76,0.783-15.522,1.524-23.279,2.342c-5.092,0.536-10.162,1.258-15.258,1.742c-4.858,0.463-9.739,0.729-14.989,1.107
	c-0.313-22.164-0.618-43.803-0.924-65.439c-0.156-0.002-0.313-0.003-0.473-0.005c0,21.679,0,43.356,0,65.204
	c-3.293-0.332-3.109-2.451-3.119-4.427c-0.045-10.128-0.098-20.257-0.111-30.385c-0.047-32.258-0.115-64.515-0.107-96.771
	c0.006-25.249,0.219-50.499,0.139-75.747c-0.056-18.124-0.473-36.246-0.646-54.371c-0.026-2.859,0.428-5.724,0.565-8.59
	c0.072-1.494,0.356-3.16-0.164-4.467c-1.998-4.996-0.912-9.938-0.625-15.033c0.694-12.349,0.776-24.732,0.914-37.104
	c0.125-11.376-0.011-22.756-0.018-34.134c-0.021-38.356-0.052-76.715-0.053-115.07c0-31.501,0.002-63.001,0.066-94.501
	c0.059-27.739,0.225-55.478,0.268-83.215c0.003-1.794,0.891-4.006-1.948-5.786c-0.267,1.735-0.647,3.075-0.647,4.416
	c-0.01,12.753,0.07,25.506,0.082,38.259c0.021,31.005,0.025,62.01,0.027,93.014c0.006,51.508,0.02,103.016-0.002,154.522
	c-0.011,26.88-0.082,53.761-0.132,80.64c0,0.347-0.082,0.689-0.291,1.145c-1.079-4.881-4.054-8.225-8.519-10.367
	C273.898,247.07,273.898,127.269,273.898,7.323z M309.639,391.135c0.045,0.506,0.141,1.12,0.15,1.736
	c0.155,8.285,0.376,16.569,0.423,24.855c0.039,6.794-0.124,13.591-0.214,20.387c-0.036,2.675-0.194,5.353-0.163,8.024
	c0.108,9.335,0.367,18.669,0.391,28.004c0.02,6.686-0.311,13.372-0.369,20.058c-0.063,6.831,0.004,13.664,0.028,20.495
	c0.041,10.328,0.146,20.657,0.136,30.985c-0.013,13.585-0.117,27.171-0.158,40.756c-0.025,8.438-0.005,16.878-0.005,25.676
	c18.271-1.932,36.11-3.816,54.014-5.711c0.3-9.231,0.674-18.23,0.856-27.233c0.161-7.853,0.206-15.709,0.13-23.563
	c-0.107-10.89-0.536-21.778-0.54-32.666c-0.006-14.874,0.354-29.748,0.389-44.623c0.03-14.019-0.175-28.038-0.248-42.057
	c-0.031-5.785,0.089-11.572-0.003-17.356c-0.091-5.759-0.36-11.515-0.558-17.44c-11.693-2.249-22.996-4.424-34.454-6.629
	c1.031-3.871,2.382-7.447,2.858-11.14c0.484-3.729,0.107-7.572,0.107-11.584c1.139,0.316,2.291,0.646,3.446,0.957
	c8.979,2.434,16.896,0.06,22.938-6.6c8.791-9.687,10.883-21.187,7.143-33.771c-0.901-3.04-1.771-6.195-1.908-9.33
	c-0.179-4.035,0.598-8.103,0.611-12.156c0.073-19.146,0.028-38.292,0.023-57.438c-0.006-23.009-0.017-46.019-0.021-69.025
	c0-11.743,0.021-23.486,0.021-35.229c0.002-9.796,0.003-19.592-0.021-29.389c-0.019-7.268-0.093-14.533-0.115-21.801
	c-0.021-5.79-0.004-11.58-0.004-17.988c-17.517-8.184-35.805-14.992-54.633-22.63c0,88.444,0,176.053,0,263.864
	c0.081-0.058-0.108,0.111-0.33,0.226c-0.328,0.17-0.681,0.302-1.021,0.448c-8.682,3.736-13.264,10.647-14.395,19.718
	c-0.938,7.517-0.742,15.104,1.42,22.483C298.432,374.247,301.873,383.749,309.639,391.135z M417.55,344.248
	c0-52.328,0-104.239,0-156.148c-0.343-0.003-0.685-0.006-1.025-0.01c-1.621,23.688-0.123,47.432-0.599,71.141
	c-0.475,23.689-0.104,47.396-0.104,71.097c-0.311,0-0.616-0.001-0.925-0.001c-0.311-73.978,0.228-147.953-0.104-221.929
	c0.423-0.001,0.846-0.003,1.268-0.004c0,21.925,0,43.85,0,65.773c0.44,0.005,0.882,0.012,1.319,0.017
	c0.045-1.654,0.117-3.309,0.131-4.962c0.081-9.623,0.187-19.248,0.208-28.871c0.021-7.661-0.041-15.323-0.113-22.984
	c-0.051-5.026-0.187-10.052-0.276-14.881c-1.268-0.753-1.973-1.263-2.75-1.62c-5.592-2.566-11.144-5.232-16.813-7.611
	c-6.128-2.569-12.354-4.911-18.579-7.237c-1.348-0.503-2.878-0.52-4.562-0.8c-0.134,1.407-0.251,2.131-0.264,2.854
	c-0.143,7.734-0.348,15.469-0.375,23.201c-0.048,12.593,0.005,25.188,0.055,37.781c0.021,5.136,0.261,10.272,0.198,15.407
	c-0.121,9.946-0.523,19.894-0.544,29.839c-0.017,7.102,0.561,14.202,0.587,21.306c0.025,7.723-0.335,15.444-0.42,23.168
	c-0.104,9.217-0.12,18.437-0.12,27.653c0,6.086,0.081,12.171,0.152,18.257c0.09,7.363,0.225,14.728,0.303,22.09
	c0.035,3.325-0.026,6.651-0.029,9.979c-0.007,6.124-0.002,12.248-0.002,18.514c4.712,1.245,8.852,2.464,13.05,3.421
	c5.322,1.214,10.708,2.153,16.039,3.334c3.66,0.811,7.253,1.928,10.922,2.688C415.267,344.929,416.513,344.407,417.55,344.248z
	 M417.405,601.649c0-15.214,0-30.1,0-44.985c-0.394-0.007-0.782-0.014-1.173-0.021c-0.633,6.896,0.218,13.845-0.038,20.753
	c-0.265,7.113,0.241,14.274-1.105,21.364c-0.639-0.914-0.896-1.839-0.878-2.758c0.063-3.076,0.305-6.149,0.324-9.226
	c0.046-7.021-0.053-14.046,0.004-21.066c0.086-10.586,0.364-21.17,0.367-31.757c0.008-25.385-0.063-50.771-0.174-76.152
	c-0.05-10.816-0.382-21.633-0.307-32.447c0.01-1.293-0.881-3.697,1.538-4.422c0.137,2.401,0.269,4.673,0.396,6.945
	c0.308-0.021,0.613-0.04,0.923-0.062c0-4.539-0.181-9.088,0.073-13.611c0.134-2.393-0.206-4.221-1.726-5.078
	c-13.99-2.42-27.288-4.721-41.215-7.13c-0.911,33.865-0.517,67.432-0.747,100.982c-0.232,34.131-0.052,68.266-0.052,102.764
	C388.266,604.375,402.651,603.029,417.405,601.649z M417.28,447.764c-0.291-0.011-0.584-0.021-0.876-0.032
	c-0.753,35.982,0.278,71.979-0.292,108.114c0.514-0.148,1.128-0.243,1.128-0.339C417.281,519.594,417.28,483.678,417.28,447.764z
	 M288.668,157.056c-0.135,0-0.27,0-0.402,0c0,47.623,0,95.246,0,142.867c0.135,0,0.27,0,0.402,0
	C288.668,252.302,288.668,204.679,288.668,157.056z M288.176,466.985c0.147-0.001,0.297-0.001,0.443-0.002
	c0-38.396,0-76.795,0-115.191c-0.146,0-0.296,0-0.443,0.001C288.176,390.189,288.176,428.587,288.176,466.985z"/>
<path fill="#FFFFFF" d="M125.973,219.964c-0.421,0.896-0.787,1.76-1.223,2.584c-6.662,12.633-7.187,25.658-1.733,38.708
	c3.382,8.094,10.051,12.494,18.849,12.492c7.184-0.001,12.505-3.846,15.95-10.158c4.575-8.386,5.173-17.436,3.907-26.62
	c-0.661-4.791-2.053-9.496-3.317-14.187c-1.157-4.291-3.87-7.471-7.667-9.789c-10.771-6.579-25.104-5.883-35.146,2.17
	c-3.463,2.776-6.277,6.367-9.35,9.623c-0.739,0.783-1.33,1.708-2.535,3.28c0-8.106,0-15.373,0-23.339
	c19.572-14.814,35.271-33.896,48.209-55.682c-0.655,11.393-1.29,22.428-1.923,33.434c-11.048-1.94-19.032,0.889-22.381,8.508
	c7.869-3.258,15.528-5.752,23.685-2.368c4.335,13.387,8.153,27.004,22.38,33.317c0.31-0.163,0.621-0.327,0.93-0.49
	c-0.744-1.981-1.488-3.964-2.394-6.376c15.49-5.089,26.747-15.575,37.529-26.985c-1.938,5.815-3.876,11.634-6.061,18.188
	c1.416-0.688,2.174-0.946,2.811-1.383c13.205-9.024,20.368-22.363,26.037-36.722c1.809-4.583,3.288-9.295,5.22-14.813
	c0.413,1.677,0.647,2.459,0.798,3.261c3.289,17.496,9.715,33.586,21.408,47.258c2.183,2.553,4.808,4.722,7.058,7.223
	c0.926,1.029,1.913,2.442,1.983,3.729c0.241,4.479,0.094,8.979,0.094,14.125c-0.927-0.922-1.508-1.405-1.978-1.979
	c-5.896-7.211-13.141-12.077-22.492-13.78c-10.157-1.852-19.891,4.233-23.594,13.939c-3.438,9.014-4.873,18.032-3.561,27.521
	c0.727,5.258,2.33,10.191,5.337,14.663c8.117,12.072,22.104,9.482,28.98,1.043c3.072-3.771,4.82-8.174,5.676-12.914
	c2.004-11.102,1.475-21.889-4-32.479c1.456,0.933,3.087,1.675,4.336,2.83c4.555,4.217,8.52,9.084,10.169,15.056
	c1.2,4.347,1.159,9.104,1.226,13.685c0.135,9.359-0.047,18.725-0.072,28.086c-0.021,7.483-0.006,14.968-0.006,22.396
	c-5.334,5.143-11.104,9.049-17.368,12.188c-12.775,6.398-26.457,9.672-40.579,11.176c-17.754,1.892-35.447,1.347-52.923-2.445
	c-15.49-3.361-30.36-8.446-43.345-17.893c-3.115-2.266-5.837-5.073-8.704-7.674c-1.958-1.775-2.051-4.21-2.057-6.597
	c-0.028-13.498-0.018-26.995-0.012-40.492c0.001-2.971-0.223-5.973,0.11-8.908c1.483-13.077,9.12-21.454,20.792-26.622
	C125.196,219.681,125.471,219.847,125.973,219.964z M247.848,196.08c-0.43-4.624-6.569-9.247-13.155-10.104
	c-5.642-0.735-11.027,1.981-12.849,6.801C231.107,189.817,239.703,191.095,247.848,196.08z"/>
<path fill="#FFFFFF" d="M450.845,434.03c-0.244,1.192-0.699,2.386-0.701,3.579c-0.038,25.344-0.025,50.688-0.027,76.029
	c-0.001,34.552-0.005,69.104-0.007,103.656c-0.001,9.563,0.058,19.124-0.024,28.686c-0.021,2.88-0.362,5.766-0.697,8.632
	c-0.122,1.044-0.651,2.039-0.975,2.989c-3.073-0.188-5.843-0.355-9.271-0.564c-0.533-21.666,0.065-43.605-0.136-65.537
	c-0.199-21.784,0.026-43.573,0.031-65.361c0.006-22.132-0.033-44.264-0.048-66.396c-0.017-22.354-0.022-44.705-0.039-67.06
	c-0.019-22.163-0.055-44.325-0.059-66.489c-0.001-22.372,0.023-44.744,0.051-67.116c0.021-22.18,0.082-44.357,0.09-66.538
	c0.007-21.971-0.04-43.939-0.049-65.91c-0.012-22.046-0.003-44.091-0.003-66.081c3.172-2.696,6.716-0.79,10.468-1.486
	c0.331,5.16,0.911,10.255,0.934,15.354c0.057,12.346-0.253,24.691-0.222,37.038c0.026,10.888,0.88,21.803,0.353,32.656
	c-0.704,14.512-0.05,29.002-0.368,43.498c-0.197,9.032-0.521,18.065-0.445,27.097c0.078,9.502,0.795,19,0.815,28.5
	c0.039,17.337-0.295,34.675-0.351,52.013c-0.076,23.211-0.047,46.422-0.011,69.633c0.002,1.09,0.52,2.181,0.797,3.271l-0.061-0.105
	c-0.251,1.056-0.719,2.11-0.722,3.168c-0.057,20.492-0.063,40.986-0.037,61.479c0.001,0.498,0.526,0.996,0.808,1.494L450.845,434.03
	z"/>
<path fill="#FFFFFF" d="M162.025,408.792c4.555-10.178,12.932-14.605,23.504-16.002c5.629-0.744,10.686,0.899,15.394,3.551
	c8.306,4.676,17.255,4.759,26.25,3.874c4.024-0.396,7.9-2.145,11.895-3.052c1.902-0.433,3.925-0.336,6.421-0.519
	c0,2.395,0,4.482,0,6.571c0.322,0.056,0.645,0.11,0.967,0.165c0.4-0.935,0.765-1.886,1.207-2.799
	c3.586-7.404,7.049-14.875,10.874-22.154c1.051-1.998,3.02-3.66,4.879-5.063c6.729-5.076,13.579-2.25,15.229,6.436
	c-1.754-0.176-3.431-0.396-5.11-0.493c-1.847-0.104-3.483,0.264-4.229,2.858c4.182,0.146,8.413,0.332,10.391,4.776
	c1.378,3.094,2.197,6.279,0.972,9.955c-3.097-2.188-5.896-4.541-10.101-3.104c0.736,0.429,1.426,1.021,2.22,1.254
	c5.661,1.651,7.422,4.438,6.452,10.533c-3.534,0.429-6.361-3.304-10.282-1.385c1.541,0.619,3.079,1.243,4.622,1.855
	c3.096,1.231,4.146,2.468,3.995,4.707c-0.166,2.459-1.466,3.885-4.581,4.708c-1.678,0.442-3.422,0.626-5.133,0.929
	c-1.771,5.255-5.6,8.803-10.381,10.97c-17.462,7.918-35.474,10.262-54.341,5.34c-13.24-3.454-25.296-9.112-36.521-16.823
	C164.137,414.179,162.792,412.07,162.025,408.792z"/>
<path fill="#FFFFFF" d="M282.585,416.014c0,82.632,0,165.264,0,248.413c-3.081-0.35-5.724-0.646-8.651-0.979
	c0-10.063,0.021-19.784-0.004-29.506c-0.031-13.615-0.137-27.229-0.135-40.845c0.003-16.988,0.105-33.979,0.122-50.965
	c0.017-15.741-0.032-31.483-0.045-47.226c-0.009-10.356,0.004-20.718-0.007-31.076c-0.01-10.847,0.012-21.692-0.09-32.538
	c-0.021-2.534,0.867-4.605,2.242-6.602c1.979-2.873,3.926-5.771,5.887-8.656C282.131,416.031,282.359,416.022,282.585,416.014z"/>
<path fill="#FFFFFF" d="M135.597,582.565c13.86,2.842,27.091,5.556,40.93,8.394c-1.771,22.053-4.514,43.365-16.274,62.34
	c-6.313,1.563-9.047,0.208-11.08-5.56c-5.687-16.127-10.293-32.539-12.969-49.456c-0.019-0.124-0.066-0.245-0.071-0.367
	C135.958,592.98,135.788,588.045,135.597,582.565z"/>
<path fill="#FFFFFF" d="M224.972,653.784c-3.18,0-6.037,0-8.855,0c-3.793-5.282-4.961-11.44-6.223-17.484
	c-1.755-8.4-3.352-16.852-4.535-25.347c-0.667-4.785-0.389-9.709-0.499-14.569c-0.05-2.226-0.008-4.45-0.008-7.012
	c0.799-0.117,1.739-0.329,2.688-0.388c9.709-0.571,19.42-1.123,29.131-1.66c0.993-0.055,2.005-0.068,2.988,0.061
	c1.708,0.224,2.794,1.177,2.609,3.009c-0.57,5.678-0.852,11.416-1.909,17.005c-1.388,7.338-3.045,14.668-5.255,21.794
	c-2.282,7.354-5.335,14.471-8.13,21.66C226.581,651.861,225.732,652.693,224.972,653.784z"/>
<path fill="#FFFFFF" d="M450.95,368.118c0.253-3.065,0.72-6.133,0.725-9.198c0.044-28.031,0.03-56.063-0.014-84.097
	c-0.026-16.945-0.188-33.893-0.192-50.84c-0.006-14.036,0.162-28.071,0.187-42.107c0.042-26.775,0.037-53.551,0.046-80.327
	c0.005-13.698-0.001-27.396-0.015-41.096c-0.002-1.098-0.096-2.193-0.17-3.795c-4.868,0-9.57,0-14.273-0.002
	c-1.875,0-3.76,0.102-5.623-0.049c-1.256-0.102-2.482-0.562-3.668-1.353c8.438-1.085,16.864-0.66,25.256-1.043
	c0.097,0.072,0.203,0.137,0.288,0.224c0.086,0.088,0.206,0.19,0.219,0.298c0.109,0.989,0.285,1.979,0.285,2.971
	c0.054,198.471,0.098,396.939,0.118,595.41c0,1.462-0.31,2.924-1.206,4.698c-0.4-0.68-1.08-1.331-1.149-2.044
	c-0.271-2.771-0.48-5.56-0.474-8.34c0.117-36.938,0.332-73.874,0.403-110.812c0.048-24.842-0.113-49.683-0.144-74.522
	c-0.011-8.244,0.133-16.49,0.117-24.734c-0.003-1.111-0.534-2.22-0.82-3.33l0.095,0.125c0.23-1.184,0.663-2.366,0.666-3.552
	c0.057-19.997,0.068-39.994,0.042-59.991c-0.001-0.866-0.492-1.733-0.757-2.602L450.95,368.118z"/>
<path fill="#FFFFFF" d="M66.645,229.81c-0.302,4.172-0.586,8.101-0.893,12.336c-4.236-1.125-8.191-4.041-12.628,0.567
	c5.011-1.677,8.464,0.234,11.955,2.376c0,3.489,0,6.908,0,10.269c-2.593,1.053-5.206-1.16-7.537,0.848
	c2.767,2.521,5.403,4.919,7.51,6.838c0,7.084,0,13.052,0,19.417c-4.183-0.847-7.415-3.109-10.258-5.792
	c-10.938-10.318-12.616-26.407-4.216-38.908C54.429,232.024,60.35,229.01,66.645,229.81z"/>
<path d="M309.639,391.135c-7.767-7.388-11.207-16.89-14.072-26.685c-2.161-7.382-2.355-14.969-1.42-22.482
	c1.131-9.07,5.714-15.981,14.396-19.719c0.342-0.146,0.692-0.278,1.022-0.448c0.22-0.113,0.409-0.281,0.328-0.226
	c0-87.813,0-175.42,0-263.864c18.828,7.638,37.116,14.446,54.633,22.63c0,6.409-0.019,12.199,0.004,17.988
	c0.022,7.268,0.099,14.533,0.115,21.801c0.023,9.797,0.022,19.593,0.021,29.389c-0.001,11.742-0.021,23.485-0.021,35.229
	c0.004,23.009,0.015,46.019,0.021,69.025c0.005,19.146,0.05,38.291-0.023,57.438c-0.016,4.055-0.79,8.121-0.611,12.156
	c0.139,3.135,1.007,6.291,1.91,9.331c3.738,12.584,1.646,24.084-7.145,33.77c-6.042,6.657-13.96,9.031-22.938,6.6
	c-1.155-0.313-2.31-0.641-3.446-0.957c0,4.012,0.377,7.854-0.107,11.584c-0.479,3.689-1.827,7.269-2.858,11.14
	c11.458,2.205,22.761,4.38,34.454,6.629c0.195,5.928,0.467,11.684,0.558,17.44c0.092,5.784-0.028,11.571,0.003,17.356
	c0.073,14.019,0.278,28.038,0.248,42.057c-0.033,14.875-0.393,29.749-0.389,44.623c0.004,10.888,0.433,21.776,0.54,32.666
	c0.076,7.854,0.031,15.711-0.128,23.563c-0.187,9.003-0.561,18.002-0.858,27.233c-17.901,1.894-35.74,3.779-54.014,5.711
	c0-8.798-0.021-17.235,0.005-25.676c0.041-13.585,0.146-27.171,0.159-40.756c0.009-10.328-0.096-20.657-0.137-30.985
	c-0.024-6.831-0.093-13.664-0.028-20.495c0.061-6.686,0.389-13.372,0.369-20.058c-0.021-9.335-0.28-18.669-0.391-28.004
	c-0.031-2.674,0.127-5.352,0.163-8.024c0.09-6.796,0.253-13.593,0.214-20.387c-0.047-8.286-0.268-16.57-0.423-24.855
	C309.778,392.256,309.684,391.641,309.639,391.135z M362.251,317.438c0.222-4.817,0.531-8.722,0.554-12.625
	c0.055-9.265-0.021-18.527-0.062-27.793c-0.034-8.239-0.1-16.479-0.129-24.721c-0.044-11.501-0.115-23.003-0.088-34.504
	c0.021-9.463,0.271-18.926,0.242-28.39c-0.034-11.664-0.369-23.329-0.369-34.994c0-14.313,0.223-28.626,0.325-42.939
	c0.037-4.93,0.008-9.857,0.008-14.409c-15.122-6.23-29.532-12.171-44.038-18.148c0,76.416,0,152.25,0,228.198
	c3.683,0.938,6.829,1.85,10.022,2.532c8.8,1.881,17.688,3.366,26.243,6.292C357.167,316.69,359.557,316.899,362.251,317.438z
	 M312.852,606.452c0.4,0.187,0.804,0.37,1.203,0.557c1.267-1.688,2.603-3.33,3.775-5.08c1.177-1.751,1.449-3.521,0.268-5.563
	c-0.618-1.067-0.635-2.591-0.618-3.902c0.046-3.529,0.34-7.058,0.382-10.586c0.151-13.154,0.225-26.312,0.366-39.466
	c0.091-8.263,0.32-16.521,0.354-24.783c0.016-4.367-0.38-8.735-0.376-13.104c0.004-5.334,0.333-10.669,0.339-16.004
	c0.009-6.659-0.212-13.318-0.255-19.979c-0.104-15.657-0.195-31.316-0.197-46.977c0-3.114,0.429-6.23,0.66-9.347
	c0.341,0.02,0.681,0.037,1.021,0.057c0,60.669,0,121.338,0,182.321c2.871,0,5.477,0.166,8.053-0.031
	c9.137-0.697,18.268-1.467,27.39-2.334c2.145-0.203,4.239-0.896,6.773-1.458c0.625-29.321,0.27-58.143,0.325-86.959
	c0.056-29.025,0.012-58.051,0.012-87.543c-8.343-1.135-16.404-2.082-24.412-3.36c-8.222-1.314-16.393-2.956-25.062-4.542
	C312.852,474.81,312.852,540.632,312.852,606.452z M312.2,64.378c0.047,81.283-0.345,161.75,0.248,242.6c2.009,0,3.357,0,4.872,0
	c0-38.441,0.048-76.562-0.015-114.682c-0.061-37.55-0.229-75.103-0.352-112.313c-1.224-1.028-1.932-1.625-2.945-2.477
	c1.529-0.832,2.78-1.512,3.854-2.095c14.901,6.313,29.506,12.494,44.498,18.845c0-2.822,0-5.333,0-8.079
	C345.78,78.972,329.26,71.793,312.2,64.378z M332.133,328.614c1.21,1.712,2.149,3.04,3.104,4.389
	c0.598-0.296,1.002-0.496,1.425-0.705c0.174,0.844,0.347,1.684,0.437,2.119c4.015,3.521,8.108,1.181,12.047,0.411
	c0.667,2.438,2.367,2.319,3.942,2.574c0.135-0.629,1.657-2.395,2.164-3.216c0.232-0.377-0.256-1.198-0.417-1.816
	c0.651-9.183-3.287-11.765-14.093-14.356c2.807-0.783,4.902-0.594,6.94,0.438c8.339,4.215,13.681,10.651,14.853,20.147
	c0.512,4.146,2.285,8.174,1,12.526c0.555-0.52,0.99-1.057,0.98-1.586c-0.058-3.794,0.957-7.554,0.088-11.386
	c-1.547-6.81-3.232-13.527-9.232-17.995c-5.437-4.048-11.303-6.591-18.315-4.799c-8.622,2.203-13.46,8.271-16.651,16.079
	c-0.218,0.526-0.586,0.99-0.886,1.481c-0.155-0.082-0.313-0.161-0.472-0.242c0.709-2.785,1.417-5.568,2.12-8.328
	c-9.379-2.786-12.481-1.025-16.408,2.161c-2.921,2.37-4.847,5.543-6.189,9.121c-2.532,6.735-2.471,13.6-1.283,20.521
	c0.621,3.618,3.587,8.909,5.642,10.619c-3.632-11.728-4.142-19.868-1.715-25.532c0,3.391,0,7.026,0,10.38
	c1.212,0.816,2.146,1.446,2.826,1.906c1.429-1.011,2.582-1.824,3.38-2.391c2.912-3.634,5.593-6.977,8.302-10.354
	c0.457,2.699,0.025,5.654,2.636,8.207c0.32-1.448,0.54-2.438,0.767-3.455c1.444,3.637,2.72,7.24,4.286,10.715
	c2.763,6.124,7.109,10.812,13.457,13.271c5.184,2.008,10.308,2.08,15.19-1.587c-0.446-0.096-0.662-0.211-0.83-0.165
	c-8.217,2.257-15.549,0.287-20.92-6.058c-6.899-8.147-8.613-17.813-5.668-28.186c1.492-5.254,4.372-9.518,8.842-12.811
	c0.926,1.353,1.745,2.552,2.57,3.759c-0.774,0.474-1.783,1.088-2.771,1.691c0.981,0.898,1.826,1.671,3.086,2.822
	C334.757,328.846,333.741,328.756,332.133,328.614z M362.454,412.678c-0.536-3.027,0.938-6.262-2.247-8.446
	c-15.639-2.829-31.313-5.665-47.33-8.563c0,2.954,0,6.217,0,9.83c15.771,2.619,31.295,5.196,47.476,7.885
	C360.455,413.349,361.26,413.079,362.454,412.678z M361.778,595.031c-1.429-0.345-2.738-1.123-3.454-0.751
	c-2.731,1.42-5.653,0.714-8.438,1.02c-9.54,1.042-19.13,1.644-28.304,2.381c-2.188,3.762-4.11,7.072-6.543,11.256
	c15.834-1.566,31.063-2.935,46.736-4.671C361.778,601.116,361.778,598.087,361.778,595.031z M322.616,321.769
	c3.376-2.714,6.604-5.311,10.226-8.222c-6.71-1.415-13.099-2.762-19.789-4.173c0,3.754,0,7.049,0,10.274
	C316.391,320.39,319.486,321.075,322.616,321.769z"/>
<path d="M417.55,344.248c-1.037,0.158-2.283,0.683-3.374,0.456c-3.669-0.761-7.262-1.878-10.922-2.688
	c-5.331-1.181-10.717-2.12-16.039-3.334c-4.198-0.957-8.338-2.176-13.05-3.421c0-6.266-0.005-12.39,0.002-18.514
	c0.003-3.326,0.064-6.651,0.029-9.979c-0.078-7.364-0.213-14.728-0.304-22.09c-0.07-6.085-0.151-12.172-0.151-18.257
	c0-9.218,0.018-18.438,0.12-27.653c0.085-7.725,0.445-15.446,0.42-23.168c-0.026-7.104-0.604-14.204-0.587-21.306
	c0.021-9.945,0.423-19.893,0.544-29.839c0.063-5.135-0.18-10.271-0.198-15.408c-0.05-12.593-0.104-25.188-0.055-37.78
	c0.027-7.732,0.232-15.468,0.375-23.201c0.013-0.727,0.13-1.448,0.264-2.854c1.684,0.281,3.214,0.296,4.561,0.8
	c6.229,2.326,12.452,4.667,18.58,7.237c5.671,2.379,11.224,5.045,16.813,7.611c0.777,0.357,1.481,0.867,2.75,1.62
	c0.092,4.829,0.228,9.854,0.276,14.881c0.072,7.661,0.134,15.323,0.113,22.984c-0.021,9.624-0.127,19.248-0.208,28.87
	c-0.014,1.654-0.086,3.309-0.131,4.963c-0.438-0.006-0.879-0.012-1.319-0.017c0-21.926,0-43.85,0-65.773
	c-0.422,0.001-0.845,0.003-1.268,0.004c0.33,73.977-0.206,147.952,0.103,221.928c0.311,0,0.616,0.001,0.927,0.001
	c0-23.698-0.37-47.405,0.104-71.096c0.476-23.709-1.022-47.452,0.598-71.141c0.344,0.003,0.686,0.006,1.026,0.01
	C417.55,240.01,417.55,291.919,417.55,344.248z M412.221,329.519c0.337-1.167,0.932-2.289,0.938-3.413
	c0.032-4.542-0.17-9.083-0.187-13.625c-0.02-5.451,0.122-10.9,0.094-16.353c-0.055-9.694-0.25-19.391-0.258-29.085
	c-0.006-7.645,0.225-15.287,0.271-22.931c0.027-4.295-0.158-8.591-0.146-12.886c0.019-5.307,0.214-10.609,0.195-15.915
	c-0.015-4.66-0.301-9.318-0.313-13.979c-0.031-9.779,0.066-19.562,0.053-29.341c-0.011-5.993-0.212-11.987-0.187-17.979
	c0.021-5.082,0.296-10.163,0.355-15.246c0.024-2.069-0.332-4.145-0.313-6.213c0.038-3.472,0.413-6.945,0.33-10.409
	c-0.099-4.12-0.839-4.641-4.832-6.124c-5.342-1.985-10.58-4.246-15.874-6.363c-3.048-1.221-6.111-2.394-9.57-3.744
	c-0.333,2.071-0.794,3.753-0.837,5.443c-0.107,4.302-0.023,8.605-0.021,12.909c0.005,13.957,0.021,27.914,0.007,41.87
	c-0.017,18.894-0.078,37.785-0.072,56.678c0.009,31.003,0.04,62.009,0.11,93.012c0.005,2.051,0.421,4.103,0.654,6.234
	C392.489,324.546,402.045,326.955,412.221,329.519z M377.725,104.896c-0.124,0.438-0.249,0.677-0.251,0.916
	c-0.108,16.66-0.268,33.317-0.293,49.979c-0.02,11.842,0.186,23.684,0.209,35.523c0.04,18.94,0.039,37.884,0.016,56.825
	c-0.031,22.149-0.149,44.3-0.104,66.449c0.006,2.526-0.688,5.459,2.517,7.993c0.178-8.225,0.446-15.879,0.479-23.534
	c0.029-7.247-0.295-14.495-0.28-21.743c0.027-13.341,0.267-26.682,0.271-40.021c0.003-9.359-0.345-18.718-0.338-28.076
	c0.007-10.43,0.341-20.857,0.344-31.288c0.004-10.365-0.324-20.732-0.329-31.101c-0.005-13.303,0.161-26.604,0.271-39.908
	C380.243,105.307,379.543,104.623,377.725,104.896z M412.464,107.388c-11.723-4.092-22.662-10.214-34.969-14.149
	c0,3.097,0,5.651,0,7.76c11.904,4.953,23.422,9.746,35.439,14.748C412.788,113.086,412.654,110.722,412.464,107.388z
	 M377.915,324.49c-0.958,5.767-1.465,7.636,5.833,8.91c4.571,0.801,9.142,1.62,13.681,2.583c4.927,1.044,9.813,2.265,14.997,3.475
	c0.321-2.058,0.575-3.675,0.838-5.354c-0.376-0.493-0.668-1.307-1.138-1.428c-10.001-2.573-20.019-5.085-30.044-7.564
	C380.792,324.791,379.443,324.711,377.915,324.49z"/>
<path d="M417.405,601.649c-14.754,1.38-29.141,2.726-43.785,4.096c0-34.498-0.182-68.633,0.052-102.764
	c0.23-33.553-0.164-67.117,0.747-100.982c13.927,2.408,27.225,4.71,41.215,7.13c1.52,0.857,1.857,2.688,1.726,5.078
	c-0.253,4.523-0.073,9.072-0.073,13.611c-0.31,0.021-0.615,0.039-0.923,0.062c-0.129-2.272-0.261-4.546-0.396-6.945
	c-2.419,0.724-1.526,3.129-1.538,4.422c-0.074,10.814,0.257,21.631,0.307,32.447c0.11,25.384,0.182,50.77,0.174,76.152
	c-0.003,10.585-0.281,21.172-0.367,31.757c-0.057,7.021,0.042,14.046-0.004,21.066c-0.021,3.074-0.264,6.147-0.324,9.226
	c-0.019,0.919,0.239,1.844,0.878,2.758c1.351-7.09,0.843-14.251,1.105-21.364c0.256-6.908-0.595-13.854,0.038-20.753
	c0.391,0.007,0.779,0.014,1.173,0.021C417.405,571.55,417.405,586.435,417.405,601.649z M379.378,421.19
	c-2.046,1.911-2.591,18.903-2.205,30.432c0.335,10.011,0.607,20.062,0.067,30.049c-0.5,9.255,0.437,18.579-0.737,28.191
	c-0.117-0.106,0.63,0.259,0.625,0.616c-0.104,8.425-0.358,16.85-0.438,25.275c-0.095,9.736-0.05,19.478-0.062,29.216
	c-0.008,7.353-0.045,14.704,0.013,22.056c0.013,1.419-0.563,3.361,2.237,3.73c0-3.254,0.062-6.333-0.011-9.408
	c-0.239-10.439-0.543-20.878-0.776-31.317c-0.059-2.621,0.006-5.247,0.094-7.868c0.286-8.555,0.641-17.105,0.906-25.662
	c0.156-5.003,0.504-9.987,0.541-15.011c0.064-8.638,0.226-17.274,0.085-25.922c-0.027-1.845,0.575-3.699,0.889-5.549
	c0.399,0.035,0.802,0.072,1.2,0.109c0,2.313,0.032,4.626-0.006,6.938c-0.106,6.639-0.261,13.278-0.366,19.917
	c-0.092,5.797-0.098,11.596-0.224,17.393c-0.161,7.41-0.496,14.818-0.579,22.231c-0.06,5.319,0.26,10.644,0.25,15.963
	c-0.012,7.309-0.176,14.611-0.271,21.917c-0.055,3.962-0.105,7.924-0.146,11.885c-0.021,2.145,2.044,4.313,3.967,3.694
	c1.574-0.504,3.111-0.19,4.616-0.555c3.791-0.918,7.78-0.653,11.55-0.854c3.841-0.203,7.532-1.275,11.794-0.994
	c1.396-46.525-0.125-92.798,0.75-139.048c0.158-8.35-0.358-16.712-0.573-25.39c-10.229-2.052-20.252-2.163-30.644-3.501
	c0,1.69,0,2.905,0,4.119c-0.005,12.704,0.018,25.405-0.072,38.108c-0.006,0.83-0.841,1.654-1.29,2.481
	c-0.474-1.031-0.153-1.719-0.181-2.394c-0.185-4.812-0.646-9.619-0.625-14.429c0.032-7.426,0.436-14.849,0.543-22.272
	C380.321,423.963,379.702,422.573,379.378,421.19z M412.45,590.565c-2.55,0.246-4.601,0.486-6.652,0.634
	c-3.353,0.239-6.71,0.396-10.062,0.63c-4.415,0.313-8.836,0.577-13.234,1.052c-1.825,0.194-4.441-0.169-4.971,2.094
	c-0.575,2.462-2.181,5.373,0.867,7.718c5.796-0.563,11.818-0.603,17.571-1.869c5.389-1.185,11.063,0.125,16.479-2.239
	C412.45,595.987,412.45,593.448,412.45,590.565z M412.531,414.811c-5.108-3.003-31.797-7.521-35.174-5.813
	c0.249,2.276,0.511,4.665,0.747,6.829c11.813,1.499,22.936,2.908,34.427,4.366C412.531,417.982,412.531,416.338,412.531,414.811z"/>
<path d="M417.28,447.764c0,35.914,0.001,71.829-0.04,107.743c0,0.096-0.614,0.188-1.128,0.339
	c0.57-36.136-0.461-72.132,0.292-108.114C416.696,447.742,416.989,447.754,417.28,447.764z"/>
<path d="M288.668,157.056c0,47.623,0,95.245,0,142.867c-0.135,0-0.27,0-0.402,0c0-47.621,0-95.244,0-142.867
	C288.4,157.056,288.534,157.056,288.668,157.056z"/>
<path d="M288.176,466.985c0-38.396,0-76.796,0-115.192c0.147-0.001,0.297-0.001,0.443-0.001c0,38.396,0,76.796,0,115.191
	C288.473,466.984,288.324,466.984,288.176,466.985z"/>
<path d="M247.848,196.08c-8.146-4.984-16.741-6.264-26.004-3.304c1.822-4.817,7.207-7.535,12.849-6.801
	C241.279,186.833,247.418,191.457,247.848,196.08z"/>
<path d="M450.891,368.011c0.265,0.865,0.754,1.732,0.755,2.601c0.028,19.997,0.017,39.994-0.04,59.991
	c-0.005,1.186-0.436,2.368-0.666,3.552c-0.279-0.498-0.807-0.996-0.808-1.494c-0.025-20.493-0.02-40.987,0.037-61.479
	C450.172,370.123,450.64,369.067,450.891,368.011z"/>
<path fill="#FFFFFF" d="M362.251,317.438c-2.694-0.538-5.085-0.748-7.289-1.501c-8.558-2.926-17.443-4.411-26.243-6.292
	c-3.193-0.685-6.342-1.594-10.022-2.532c0-75.948,0-151.782,0-228.198c14.506,5.979,28.916,11.918,44.038,18.148
	c0,4.552,0.029,9.479-0.008,14.409c-0.104,14.313-0.325,28.626-0.325,42.939c0,11.665,0.335,23.329,0.369,34.994
	c0.029,9.464-0.221,18.927-0.242,28.39c-0.027,11.501,0.044,23.003,0.088,34.504c0.031,8.24,0.095,16.479,0.129,24.721
	c0.038,9.266,0.114,18.528,0.062,27.793C362.783,308.716,362.473,312.619,362.251,317.438z"/>
<path fill="#FFFFFF" d="M312.852,606.452c0-65.819,0-131.643,0-198.082c8.668,1.586,16.84,3.228,25.062,4.542
	c8.008,1.278,16.069,2.228,24.412,3.36c0,29.492,0.044,58.518-0.014,87.543c-0.056,28.816,0.302,57.638-0.323,86.959
	c-2.534,0.562-4.631,1.255-6.773,1.458c-9.122,0.867-18.253,1.637-27.39,2.334c-2.576,0.197-5.182,0.031-8.055,0.031
	c0-60.983,0-121.652,0-182.321c-0.34-0.02-0.68-0.037-1.021-0.057c-0.231,3.114-0.66,6.23-0.66,9.347
	c0.002,15.658,0.096,31.317,0.197,46.977c0.043,6.658,0.264,13.317,0.255,19.979c-0.006,5.335-0.335,10.67-0.339,16.004
	c-0.004,4.367,0.392,8.735,0.376,13.104c-0.031,8.262-0.263,16.521-0.354,24.783c-0.144,13.154-0.215,26.312-0.366,39.464
	c-0.042,3.53-0.336,7.059-0.382,10.588c-0.017,1.313,0,2.835,0.618,3.902c1.184,2.04,0.909,3.813-0.268,5.563
	c-1.175,1.75-2.511,3.392-3.775,5.08C313.654,606.823,313.252,606.637,312.852,606.452z"/>
<path fill="#FFFFFF" d="M312.2,64.378c17.061,7.415,33.58,14.595,50.162,21.801c0,2.745,0,5.257,0,8.079
	c-14.992-6.35-29.597-12.532-44.498-18.845c-1.073,0.583-2.324,1.264-3.854,2.095c1.016,0.852,1.724,1.447,2.945,2.477
	c0.121,37.211,0.291,74.763,0.352,112.313c0.063,38.12,0.015,76.239,0.015,114.682c-1.515,0-2.863,0-4.872,0
	C311.855,226.127,312.247,145.661,312.2,64.378z"/>
<path fill="#FFFFFF" d="M332.133,328.614c1.607,0.143,2.624,0.231,4.228,0.373c-1.261-1.15-2.104-1.923-3.086-2.822
	c0.988-0.604,1.996-1.219,2.771-1.691c-0.825-1.207-1.646-2.406-2.571-3.759c-4.469,3.294-7.349,7.557-8.841,12.811
	c-2.947,10.373-1.231,20.036,5.668,28.186c5.371,6.345,12.703,8.313,20.92,6.058c0.168-0.046,0.383,0.069,0.83,0.165
	c-4.885,3.667-10.009,3.595-15.19,1.587c-6.348-2.459-10.694-7.146-13.457-13.271c-1.566-3.475-2.844-7.078-4.286-10.715
	c-0.228,1.018-0.444,2.007-0.768,3.454c-2.607-2.552-2.178-5.507-2.635-8.206c-2.709,3.38-5.39,6.723-8.302,10.354
	c-0.798,0.564-1.951,1.38-3.38,2.391c-0.683-0.46-1.614-1.09-2.826-1.906c0-3.354,0-6.988,0-10.38
	c-2.427,5.664-1.917,13.808,1.715,25.532c-2.055-1.71-5.021-7.001-5.642-10.619c-1.188-6.923-1.25-13.785,1.282-20.521
	c1.346-3.578,3.271-6.75,6.19-9.122c3.927-3.188,7.029-4.947,16.408-2.161c-0.703,2.76-1.411,5.543-2.12,8.328
	c0.157,0.081,0.313,0.162,0.472,0.242c0.299-0.491,0.668-0.955,0.886-1.481c3.191-7.806,8.029-13.875,16.651-16.079
	c7.015-1.792,12.881,0.751,18.315,4.799c6,4.468,7.688,11.188,9.232,17.995c0.869,3.832-0.146,7.592-0.088,11.386
	c0.008,0.529-0.428,1.066-0.98,1.586c1.285-4.354-0.488-8.383-1-12.526c-1.172-9.497-6.514-15.935-14.853-20.147
	c-2.038-1.029-4.136-1.221-6.94-0.438c10.806,2.594,14.743,5.176,14.093,14.356c0.161,0.618,0.647,1.439,0.417,1.816
	c-0.507,0.822-2.029,2.587-2.164,3.216c-1.575-0.255-3.275-0.136-3.942-2.574c-3.938,0.77-8.032,3.109-12.047-0.411
	c-0.09-0.437-0.263-1.274-0.437-2.118c-0.423,0.209-0.827,0.408-1.426,0.704C334.283,331.654,333.343,330.326,332.133,328.614z"/>
<path fill="#FFFFFF" d="M362.454,412.678c-1.193,0.399-1.999,0.671-2.104,0.704c-16.181-2.688-31.704-5.266-47.476-7.885
	c0-3.614,0-6.876,0-9.83c16.02,2.897,31.691,5.733,47.33,8.563C363.393,406.417,361.917,409.651,362.454,412.678z"/>
<path fill="#FFFFFF" d="M361.778,595.031c0,3.058,0,6.086,0,9.232c-15.673,1.736-30.902,3.104-46.736,4.671
	c2.433-4.185,4.356-7.494,6.543-11.256c9.174-0.737,18.764-1.339,28.304-2.381c2.782-0.306,5.704,0.4,8.438-1.02
	C359.04,593.907,360.351,594.686,361.778,595.031z"/>
<path fill="#FFFFFF" d="M322.616,321.769c-3.13-0.692-6.227-1.379-9.563-2.119c0-3.227,0-6.521,0-10.274
	c6.69,1.411,13.079,2.759,19.789,4.174C329.22,316.458,325.992,319.054,322.616,321.769z"/>
<path fill="#FFFFFF" d="M412.221,329.519c-10.176-2.563-19.73-4.973-29.599-7.458c-0.233-2.133-0.649-4.185-0.654-6.234
	c-0.069-31.004-0.104-62.009-0.109-93.012c-0.007-18.894,0.057-37.786,0.071-56.678c0.014-13.956-0.002-27.913-0.007-41.87
	c-0.002-4.304-0.086-8.607,0.021-12.909c0.043-1.69,0.504-3.372,0.837-5.443c3.459,1.352,6.522,2.523,9.571,3.744
	c5.294,2.117,10.531,4.377,15.873,6.363c3.993,1.483,4.733,2.004,4.832,6.124c0.083,3.464-0.292,6.938-0.328,10.409
	c-0.021,2.069,0.336,4.145,0.311,6.213c-0.061,5.083-0.334,10.164-0.355,15.246c-0.025,5.992,0.176,11.985,0.187,17.979
	c0.016,9.779-0.084,19.562-0.053,29.341c0.015,4.659,0.301,9.317,0.313,13.979c0.019,5.305-0.179,10.608-0.195,15.915
	c-0.014,4.294,0.174,8.59,0.146,12.886c-0.048,7.645-0.276,15.287-0.271,22.931c0.008,9.694,0.203,19.391,0.258,29.085
	c0.028,5.45-0.111,10.9-0.094,16.353c0.017,4.542,0.219,9.084,0.187,13.625C413.151,327.23,412.558,328.351,412.221,329.519z"/>
<path fill="#FFFFFF" d="M377.725,104.896c1.818-0.272,2.52,0.411,2.507,2.016c-0.109,13.303-0.275,26.604-0.271,39.908
	c0.005,10.367,0.333,20.733,0.329,31.101c-0.003,10.431-0.337,20.857-0.344,31.288c-0.007,9.357,0.341,18.718,0.338,28.076
	c-0.004,13.34-0.241,26.681-0.271,40.021c-0.015,7.248,0.312,14.497,0.28,21.743c-0.03,7.655-0.301,15.311-0.479,23.534
	c-3.205-2.534-2.511-5.465-2.517-7.993c-0.047-22.149,0.071-44.3,0.104-66.449c0.023-18.941,0.024-37.885-0.016-56.825
	c-0.023-11.841-0.229-23.684-0.209-35.523c0.025-16.659,0.185-33.317,0.293-49.979C377.476,105.573,377.601,105.334,377.725,104.896
	z"/>
<path fill="#FFFFFF" d="M412.464,107.388c0.189,3.334,0.323,5.697,0.473,8.356c-12.02-5.002-23.535-9.795-35.439-14.748
	c0-2.107,0-4.663,0-7.76C389.802,97.175,400.742,103.297,412.464,107.388z"/>
<path fill="#FFFFFF" d="M377.915,324.49c1.528,0.221,2.878,0.301,4.167,0.619c10.025,2.479,20.043,4.991,30.044,7.564
	c0.47,0.121,0.762,0.936,1.138,1.428c-0.263,1.682-0.517,3.299-0.838,5.354c-5.186-1.21-10.071-2.431-14.997-3.475
	c-4.539-0.963-9.107-1.782-13.681-2.583C376.45,332.126,376.957,330.257,377.915,324.49z"/>
<path fill="#FFFFFF" d="M379.378,421.19c0.323,1.384,0.942,2.772,0.922,4.151c-0.107,7.426-0.511,14.849-0.543,22.272
	c-0.021,4.81,0.44,9.617,0.625,14.431c0.025,0.673-0.293,1.358,0.183,2.392c0.447-0.827,1.282-1.651,1.288-2.481
	c0.09-12.701,0.067-25.404,0.072-38.108c0-1.214,0-2.429,0-4.119c10.392,1.338,20.415,1.45,30.644,3.501
	c0.215,8.678,0.731,17.04,0.573,25.39c-0.875,46.25,0.646,92.521-0.75,139.05c-4.262-0.283-7.951,0.791-11.794,0.992
	c-3.77,0.2-7.759-0.063-11.55,0.854c-1.505,0.364-3.042,0.051-4.616,0.555c-1.923,0.616-3.986-1.552-3.967-3.692
	c0.04-3.961,0.093-7.925,0.146-11.887c0.097-7.306,0.261-14.608,0.271-21.917c0.01-5.318-0.31-10.644-0.25-15.963
	c0.083-7.413,0.418-14.819,0.579-22.23c0.126-5.796,0.132-11.597,0.224-17.394c0.105-6.639,0.26-13.276,0.366-19.917
	c0.038-2.313,0.006-4.626,0.006-6.938c-0.398-0.037-0.801-0.074-1.2-0.109c-0.313,1.85-0.916,3.704-0.889,5.549
	c0.141,8.646-0.021,17.284-0.085,25.922c-0.037,5.021-0.385,10.01-0.541,15.013c-0.268,8.555-0.62,17.105-0.904,25.662
	c-0.09,2.619-0.152,5.245-0.096,7.866c0.233,10.439,0.537,20.878,0.776,31.317c0.07,3.075,0.011,6.154,0.011,9.408
	c-2.803-0.369-2.227-2.313-2.237-3.73c-0.058-7.352-0.021-14.703-0.013-22.056c0.012-9.738-0.033-19.479,0.062-29.216
	c0.08-8.426,0.335-16.853,0.438-25.275c0.005-0.355-0.742-0.725-0.625-0.616c1.174-9.61,0.237-18.938,0.737-28.191
	c0.54-9.987,0.268-20.038-0.067-30.047C376.788,440.094,377.333,423.101,379.378,421.19z"/>
<path fill="#FFFFFF" d="M412.45,590.565c0,2.884,0,5.422,0,8.017c-5.415,2.364-11.092,1.057-16.479,2.239
	c-5.753,1.269-11.775,1.308-17.571,1.869c-3.048-2.345-1.442-5.256-0.867-7.718c0.527-2.263,3.146-1.897,4.971-2.094
	c4.398-0.475,8.819-0.738,13.234-1.052c3.352-0.234,6.709-0.391,10.062-0.63C407.851,591.052,409.9,590.811,412.45,590.565z"/>
<path fill="#FFFFFF" d="M412.531,414.811c0,1.526,0,3.171,0,5.382c-11.491-1.458-22.611-2.867-34.427-4.366
	c-0.236-2.164-0.498-4.553-0.747-6.829C380.734,407.292,407.422,411.808,412.531,414.811z"/>
<line fill="none" stroke="#000000" stroke-width="3" stroke-linecap="round" stroke-linejoin="bevel" stroke-miterlimit="10" x1="186.475" y1="296.03" x2="190.291" y2="296.03"/>
</svg>
