<svg xmlns="http://www.w3.org/2000/svg" xml:space="preserve" width="503.832" height="670.736" viewBox="0 0 503.832 670.736"><path d="M458.918 659.904c8.15 0 15.613-.09 23.074.025 7.254.111 14.537-.147 21.758.659l.081 1.104c-.956.179-1.911.503-2.869.515-8.944.112-17.889.204-26.834.23-4.729.015-9.473-.313-14.195-.133-9.415.354-18.82.932-28.229 1.465-8.07.458-16.138.97-24.205 1.482-9.421.599-18.837 1.301-28.263 1.808-6.151.329-12.318.369-18.479.578-6.393.217-12.784.487-19.177.721-7.529.273-15.058.593-22.591.781-10.128.253-20.311-.164-30.379.713-18.287 1.594-36.564.499-54.842.722a1119 1119 0 0 1-34.813-.129c-19.095-.354-38.187-.867-57.277-1.4-13.223-.371-26.446-.788-39.661-1.379-12.219-.545-24.426-1.361-36.639-2.028-8.083-.44-16.168-.824-24.252-1.237-9.329-.478-18.66-.918-27.983-1.478-1.866-.112-4.021.218-5.749-2.199 1.18-.335 2.025-.73 2.896-.798 8.935-.688 17.869-1.404 26.813-1.943 10.072-.605 20.153-1.077 30.233-1.538 10.18-.466 20.36-.955 30.544-1.237 13.731-.383 27.468-.569 41.202-.854 1.323-.027 2.644-.146 4.4-.242-1.332-4.48-2.524-8.515-3.728-12.543-1.567-5.246-3.226-10.468-4.698-15.741-1.941-6.956-4.038-13.89-5.515-20.947-1.376-6.576-2.027-13.307-3.003-19.968-.268-1.825-.561-3.646-.752-4.883-5.894-2.666-11.165-5.204-16.561-7.442-4.947-2.055-10.054-3.719-15.043-5.678-4.053-1.591-8.091-3.242-12.035-5.084-6.208-2.897-12.336-5.973-18.488-8.99-1.893-.93-3.756-1.92-6.175-3.159 16.292-44.75 39.036-85.515 70.703-121.202 0-.169.092-.466-.013-.654-3.16-5.668-2.94-11.271-.306-17.152 4.353-9.72 4.971-20.291 6.448-30.659.615-4.317 1.438-8.608 2.281-12.892a7.8 7.8 0 0 1 1.338-3.036c4.606-6.235 9.222-12.479 15.835-16.835.71-.469 1.387-.986 1.966-1.9-13.619.871-24.275-4.037-32.831-14.575.958 2.988 1.758 6.042 2.919 8.95 1.146 2.871 2.659 5.599 4.007 8.384-9.011 1.29-20.115-7.879-27.817-22.432.362 2.283.62 4.59 1.113 6.845a81 81 0 0 0 2.035 7.597c.761 2.354 1.76 4.631 2.814 7.352-10.257-.901-19.366-3.663-27.369-9.608-7.844-5.828-13.199-13.747-18.261-21.998-1.658 8.441.989 15.672 5.702 22.617-3.672-.709-7.137-1.666-10.354-3.534-12.217-7.092-19.483-18.049-24.106-30.994-3.852-10.782-5.85-21.944-6.15-33.4-.012-.461-.087-.919-.493-1.508-5.251 6.01-8.428 13.09-10.247 20.717-1.871 7.847-1.228 15.632 2.342 23.07l-.517.593c-1.09-.57-2.274-1.015-3.254-1.733-8.78-6.464-13.283-15.394-14.764-25.99-1.757-12.574 1.218-24.312 6.468-35.633 2.51-5.412 4.681-11.002 7.488-16.253 3.233-6.048 6.918-11.859 10.555-17.683 4.232-6.774 8.87-13.309 12.872-20.214 3.17-5.47 5.171-11.504 7.353-17.475 1.988-5.439 2.27-11.229 4.565-16.507 4.065-9.349 7.801-18.768 12.87-27.738 11.625-20.578 27.842-36.377 47.817-48.396 11.009-6.625 22.978-11.241 35.542-14.461 16.112-4.129 32.388-5.885 48.92-4.84 9.299.588 18.549 1.958 27.818 3.003.733.083 1.477.313 2.156.611 6.559 2.88 13.672 3.699 20.48 5.618 6.705 1.89 13.19 4.558 19.761 6.913 1.141.409 2.229.969 3.867 1.69V3.721c1.72-.561 3.091-1.108 4.513-1.447 3.38-.804 6.755-1.813 10.188-2.151 2.627-.26 5.52-.139 7.984.71 6.765 2.327 13.378 5.089 20.025 7.746 11.965 4.78 23.926 9.569 35.854 14.435 9.044 3.688 18.044 7.479 27.051 11.255 13.021 5.458 26.027 10.952 39.059 16.396.88.367 1.878.629 2.822.629 2.567 0 5.14-.188 7.711-.26 4.188-.118 8.382-.319 12.57-.276 6.842.07 13.681.305 20.521.49.216.006.425.238.949.553.051 1.008.168 2.218.168 3.428.005 173.677.001 347.354-.001 521.028 0 26.126-.001 52.251.024 78.376.007 1.57.26 3.143.443 5.271m-7.968-291.786c-.277-1.091-.795-2.182-.797-3.271-.036-23.211-.065-46.422.011-69.633.056-17.338.39-34.675.351-52.013-.021-9.5-.737-18.999-.815-28.5-.073-9.03.248-18.063.444-27.097.319-14.495-.335-28.985.369-43.498.527-10.854-.323-21.77-.353-32.656-.031-12.347.275-24.692.222-37.038-.021-5.099-.603-10.192-.934-15.354-3.752.696-7.296-1.21-10.468 1.486 0 21.989-.009 44.035.003 66.081.009 21.971.056 43.939.049 65.91-.008 22.181-.066 44.358-.09 66.538-.025 22.371-.052 44.744-.051 67.116.004 22.164.04 44.326.059 66.489.017 22.354.022 44.706.039 67.06.015 22.132.054 44.265.048 66.396-.005 21.788-.23 43.577-.031 65.361.201 21.932-.397 43.871.136 65.537 3.43.209 6.197.378 9.271.564.321-.95.853-1.945.975-2.989.335-2.866.676-5.752.697-8.632.082-9.563.023-19.123.024-28.686l.007-103.656c.002-25.344-.011-50.688.027-76.029.004-1.193.457-2.387.701-3.579.286 1.11.817 2.219.82 3.33.016 8.244-.128 16.49-.117 24.734.028 24.842.189 49.683.144 74.522-.071 36.938-.286 73.872-.403 110.812-.009 2.78.203 5.568.474 8.34.069.713.749 1.364 1.149 2.044.896-1.774 1.206-3.236 1.206-4.698-.021-198.471-.064-396.938-.118-595.41 0-.99-.176-1.979-.285-2.971-.013-.106-.133-.21-.219-.298-.085-.087-.191-.15-.288-.221-8.392.381-16.818-.044-25.256 1.041 1.186.792 2.412 1.251 3.668 1.353 1.862.15 3.748.048 5.623.049 4.703.002 9.403.002 14.273.002.074 1.603.168 2.698.17 3.795q.022 20.546.015 41.097c-.01 26.775-.004 53.551-.046 80.326-.022 14.037-.19 28.072-.187 42.107.007 16.947.166 33.895.192 50.84.044 28.032.058 56.064.014 84.097-.004 3.07-.47 6.135-.723 9.202M273.898 7.323v359.763c4.465 2.145 7.438 5.485 8.518 10.367.209-.453.291-.799.291-1.145.05-26.879.121-53.76.132-80.64.021-51.508.007-103.016.002-154.522-.002-31.004-.007-62.009-.028-93.014-.011-12.753-.09-25.506-.082-38.259 0-1.34.383-2.681.648-4.416 2.839 1.779 1.951 3.992 1.948 5.786-.043 27.737-.209 55.477-.267 83.215-.065 31.5-.067 63-.067 94.501.001 38.355.03 76.713.053 115.069.007 11.378.142 22.758.017 34.135-.137 12.372-.219 24.758-.914 37.104-.287 5.095-1.373 10.037.625 15.034.521 1.306.238 2.972.164 4.466-.139 2.867-.592 5.729-.564 8.59.174 18.125.591 36.247.646 54.371.08 25.248-.133 50.498-.14 75.747-.008 32.256.062 64.513.106 96.77.017 10.13.068 20.258.111 30.386.01 1.976-.173 4.095 3.12 4.427v-65.204l.472.005c.307 21.639.61 43.275.924 65.439 5.25-.379 10.132-.646 14.99-1.107 5.096-.484 10.166-1.206 15.258-1.742 7.757-.815 15.521-1.559 23.279-2.342 10.415-1.051 20.829-2.099 31.242-3.169 8.308-.854 16.604-1.784 24.914-2.596 5.581-.545 11.185-.888 16.765-1.433 3.68-.355 7.339-.914 11.496-1.443 0-8.378.063-16.442-.018-24.504-.084-8.287-.425-16.57-.437-24.855-.009-6.758.385-13.516.448-20.274.046-4.647-.258-9.3-.239-13.946.05-12.741.19-25.48.28-38.222.06-8.072.129-16.146.118-24.222-.009-6.884-.142-13.768-.188-20.651-.048-6.921-.085-13.841-.075-20.761.012-9.325.111-18.649.1-27.978-.01-7.404-.112-14.81-.217-22.213-.063-4.471-.331-8.94-.291-13.409.096-10.428.427-20.853.466-31.278.039-10.371-.205-20.74-.242-31.112-.021-5.553.228-11.104.188-16.655-.049-6.818-.419-13.637-.386-20.452.05-10.207.409-20.412.488-30.619.079-10.484-.059-20.969-.03-31.454.021-7.954.217-15.909.209-23.861-.012-10.267-.141-20.529-.229-30.796-.054-6.215-.182-12.431-.18-18.646.002-7.315.104-14.63.171-21.946.044-4.813.151-9.625.132-14.437-.021-5.757-.22-11.515-.214-17.271.006-6.686.185-13.371.221-20.057.041-7.7.009-15.401.008-23.104v-8.685c-46.723-18.576-92.355-38.944-138.106-56.379zM125.973 219.964c-.502-.117-.777-.282-.945-.208-11.672 5.167-19.309 13.545-20.792 26.622-.333 2.937-.108 5.938-.11 8.909-.006 13.497-.016 26.994.012 40.491.005 2.387.099 4.82 2.057 6.597 2.867 2.601 5.588 5.409 8.704 7.674 12.985 9.446 27.855 14.531 43.345 17.893 17.476 3.792 35.168 4.337 52.923 2.446 14.122-1.504 27.803-4.776 40.579-11.177 6.268-3.14 12.035-7.046 17.37-12.188 0-7.429-.017-14.913.004-22.396.026-9.361.207-18.728.073-28.086-.065-4.58-.024-9.337-1.227-13.685-1.648-5.971-5.613-10.839-10.169-15.055-1.249-1.156-2.88-1.898-4.336-2.83 5.476 10.59 6.004 21.377 4 32.479-.854 4.738-2.604 9.145-5.676 12.913-6.876 8.44-20.863 11.029-28.98-1.043-3.007-4.472-4.61-9.405-5.337-14.662-1.312-9.489.123-18.509 3.561-27.521 3.703-9.708 13.437-15.792 23.594-13.94 9.353 1.704 16.596 6.569 22.492 13.78.47.575 1.051 1.061 1.978 1.979 0-5.147.147-9.647-.094-14.125-.068-1.287-1.059-2.698-1.982-3.729-2.25-2.501-4.875-4.67-7.059-7.223-11.693-13.672-18.119-29.762-21.408-47.258-.15-.801-.385-1.584-.798-3.261-1.932 5.518-3.411 10.229-5.22 14.813-5.668 14.355-12.832 27.695-26.037 36.721-.637.437-1.395.695-2.811 1.383l6.061-18.188c-10.782 11.41-22.039 21.896-37.529 26.986l2.394 6.376-.93.489c-14.228-6.313-18.045-19.931-22.38-33.317-8.157-3.383-15.816-.89-23.685 2.369 3.349-7.62 11.333-10.449 22.381-8.509l1.923-33.433c-12.938 21.783-28.638 40.865-48.209 55.681v23.34c1.205-1.573 1.795-2.497 2.535-3.281 3.073-3.254 5.887-6.847 9.35-9.623 10.042-8.053 24.375-8.75 35.146-2.17 3.796 2.317 6.51 5.498 7.667 9.789 1.264 4.689 2.656 9.396 3.317 14.187 1.266 9.187.668 18.234-3.907 26.621-3.444 6.313-8.766 10.155-15.95 10.157-8.798.001-15.467-4.398-18.849-12.491-5.454-13.051-4.929-26.076 1.733-38.708.434-.829.799-1.691 1.221-2.588m36.052 188.828c.767 3.277 2.112 5.389 4.588 7.088 11.225 7.711 23.28 13.369 36.521 16.823 18.869 4.924 36.879 2.578 54.343-5.34 4.781-2.167 8.61-5.715 10.379-10.972 1.713-.301 3.457-.481 5.133-.927 3.117-.823 4.416-2.249 4.582-4.708.148-2.239-.898-3.475-3.994-4.707-1.543-.612-3.081-1.236-4.622-1.855 3.921-1.919 6.748 1.813 10.282 1.385.97-6.098-.791-8.881-6.452-10.533-.796-.23-1.481-.825-2.22-1.254 4.203-1.437 7.004.916 10.101 3.104 1.229-3.676.405-6.861-.972-9.955-1.978-4.444-6.209-4.631-10.392-4.776.746-2.597 2.384-2.965 4.229-2.858 1.682.097 3.357.317 5.111.493-1.648-8.685-8.498-11.512-15.229-6.435-1.859 1.402-3.828 3.064-4.879 5.063-3.825 7.278-7.288 14.75-10.874 22.153-.442.913-.807 1.865-1.207 2.799l-.967-.165v-6.571c-2.496.183-4.519.086-6.421.519-3.995.907-7.871 2.655-11.895 3.052-8.995.885-17.943.802-26.25-3.874-4.708-2.649-9.765-4.295-15.394-3.551-10.569 1.395-18.946 5.825-23.501 16.002m120.56 7.222q-.341.013-.681.023c-1.961 2.887-3.905 5.783-5.887 8.656-1.375 1.994-2.266 4.065-2.242 6.602.102 10.846.08 21.691.09 32.54.011 10.356-.002 20.718.007 31.074.013 15.74.062 31.482.045 47.226-.017 16.985-.119 33.977-.122 50.965-.002 13.615.104 27.229.135 40.845.022 9.724.004 19.443.004 29.506 2.928.331 5.57.629 8.651.979zM135.597 582.565c.19 5.479.361 10.415.536 15.35.004.123.052.244.071.368 2.676 16.917 7.283 33.329 12.969 49.456 2.033 5.768 4.767 7.123 11.08 5.56 11.761-18.975 14.503-40.287 16.274-62.34-13.839-2.839-27.07-5.553-40.93-8.394m89.375 71.219c.761-1.092 1.609-1.924 2.002-2.934 2.795-7.189 5.849-14.308 8.13-21.66 2.21-7.126 3.867-14.456 5.255-21.794 1.058-5.589 1.339-11.327 1.909-17.005.185-1.832-.901-2.785-2.609-3.009-.982-.129-1.995-.113-2.988-.061a8332 8332 0 0 0-29.131 1.66c-.949.057-1.888.271-2.688.388 0 2.562-.042 4.786.008 7.012.109 4.86-.169 9.782.499 14.569 1.183 8.495 2.78 16.944 4.535 25.347 1.262 6.044 2.43 12.2 6.223 17.484 2.818.003 5.675.003 8.855.003M251 585.803c-.173.429-.322.648-.35.886-1.067 9.243-1.215 18.634-4.438 27.532-.163.45-.135.993-.107 1.485.487 8.603-3.132 15.957-6.782 23.394-2.22 4.521-3.77 9.37-5.881 14.729 12.404-.229 23.906.438 35.765-.081 0-4.354.059-8.208-.014-12.058-.127-6.974-.483-13.946-.469-20.918.02-8.845.293-17.689.498-26.534.074-3.241.434-6.481.362-9.719-.063-2.899-1.5-3.953-4.123-3.188-4.884 1.424-9.727 2.999-14.461 4.472m-44.895 67.148c-1.402-6.342-2.653-11.92-3.862-17.509-.763-3.531-1.653-7.05-2.147-10.621a339 339 0 0 1-2.038-18.158c-.312-3.726-.089-7.491-.272-11.231-.088-1.799-.558-3.578-.849-5.338h-11.974c-3.334 21.913-5.212 43.479-16.173 63.247 1.708.313 3.14.848 4.551.796 5.935-.22 11.86-.691 17.794-.922 4.952-.195 9.913-.183 14.97-.264M66.645 229.81c-6.295-.8-12.216 2.215-16.068 7.949-8.4 12.501-6.722 28.59 4.216 38.908 2.843 2.684 6.075 4.946 10.258 5.792v-19.417c-2.106-1.918-4.743-4.317-7.51-6.838 2.332-2.008 4.944.205 7.537-.848v-10.269c-3.49-2.143-6.944-4.054-11.955-2.376 4.437-4.608 8.392-1.692 12.628-.567.308-4.234.592-8.162.894-12.334m202.364 113.901c-4.726 1.895-8.975 3.984-13.454 5.281-4.455 1.288-9.144 1.799-13.855-.018 6.77-8.121 6.978-8.452 7.476-12.253-4.842 6.211-11.034 9.737-18.437 12.491 10.776 6.681 19.229 15.061 27.569 24.294 2.504-4.136 6.62-5.276 10.703-6.404-.002-7.932-.002-15.518-.002-23.391"/><path fill="#fff" d="M273.898 7.323c5.267-1.227 9.973-2.322 15.635-3.643 45.751 17.436 91.386 37.803 138.106 56.379v8.686c.001 7.7.033 15.401-.008 23.103-.036 6.687-.215 13.372-.221 20.057-.006 5.757.189 11.515.214 17.271.02 4.813-.088 9.625-.132 14.438-.064 7.315-.169 14.632-.171 21.946-.002 6.215.126 12.431.18 18.646.088 10.266.217 20.528.228 30.795.009 7.954-.188 15.907-.21 23.861-.024 10.484.111 20.971.032 31.454-.079 10.207-.438 20.412-.488 30.619-.033 6.815.337 13.634.386 20.452.04 5.551-.206 11.104-.188 16.655.037 10.372.281 20.742.242 31.112-.039 10.428-.37 20.853-.466 31.278-.04 4.469.229 8.938.291 13.408.104 7.404.207 14.81.217 22.214.014 9.326-.088 18.649-.1 27.978-.011 6.92.027 13.84.074 20.761.05 6.886.183 13.77.189 20.651.011 8.074-.061 16.147-.118 24.222-.09 12.739-.23 25.479-.281 38.222-.018 4.646.286 9.299.24 13.947-.063 6.76-.457 13.518-.449 20.273.013 8.285.354 16.568.438 24.855.081 8.062.018 16.126.018 24.504-4.157.529-7.816 1.088-11.496 1.443-5.582.545-11.184.888-16.765 1.433-8.31.812-16.608 1.741-24.914 2.596-10.413 1.07-20.827 2.118-31.242 3.169-7.76.783-15.522 1.524-23.279 2.342-5.092.536-10.162 1.258-15.258 1.742-4.858.463-9.739.729-14.989 1.107l-.924-65.439-.473-.005v65.204c-3.293-.332-3.109-2.451-3.119-4.427-.045-10.128-.098-20.257-.111-30.385-.047-32.258-.115-64.515-.107-96.771.006-25.249.219-50.499.139-75.747-.056-18.124-.473-36.246-.646-54.371-.026-2.859.428-5.724.565-8.59.072-1.494.356-3.16-.164-4.467-1.998-4.996-.912-9.938-.625-15.033.694-12.349.776-24.732.914-37.104.125-11.376-.011-22.756-.018-34.134-.021-38.356-.052-76.715-.053-115.07 0-31.501.002-63.001.066-94.501.059-27.739.225-55.478.268-83.215.003-1.794.891-4.006-1.948-5.786-.267 1.735-.647 3.075-.647 4.416-.01 12.753.07 25.506.082 38.259.021 31.005.025 62.01.027 93.014.006 51.508.02 103.016-.002 154.522-.011 26.88-.082 53.761-.132 80.64 0 .347-.082.689-.291 1.145-1.079-4.881-4.054-8.225-8.519-10.367.003-120.017.003-239.818.003-359.764m35.741 383.812c.045.506.141 1.12.15 1.736.155 8.285.376 16.569.423 24.855.039 6.794-.124 13.591-.214 20.387-.036 2.675-.194 5.353-.163 8.024.108 9.335.367 18.669.391 28.004.02 6.686-.311 13.372-.369 20.058-.063 6.831.004 13.664.028 20.495.041 10.328.146 20.657.136 30.985-.013 13.585-.117 27.171-.158 40.756-.025 8.438-.005 16.878-.005 25.676 18.271-1.932 36.11-3.816 54.014-5.711.3-9.231.674-18.23.856-27.233q.243-11.78.13-23.563c-.107-10.89-.536-21.778-.54-32.666-.006-14.874.354-29.748.389-44.623.03-14.019-.175-28.038-.248-42.057-.031-5.785.089-11.572-.003-17.356-.091-5.759-.36-11.515-.558-17.44l-34.454-6.629c1.031-3.871 2.382-7.447 2.858-11.14.484-3.729.107-7.572.107-11.584 1.139.316 2.291.646 3.446.957 8.979 2.434 16.896.06 22.938-6.6 8.791-9.687 10.883-21.187 7.143-33.771-.901-3.04-1.771-6.195-1.908-9.33-.179-4.035.598-8.103.611-12.156.073-19.146.028-38.292.023-57.438-.006-23.009-.017-46.019-.021-69.025 0-11.743.021-23.486.021-35.229.002-9.796.003-19.592-.021-29.389-.019-7.268-.093-14.533-.115-21.801-.021-5.79-.004-11.58-.004-17.988-17.517-8.184-35.805-14.992-54.633-22.63v263.864c.081-.058-.108.111-.33.226-.328.17-.681.302-1.021.448-8.682 3.736-13.264 10.647-14.395 19.718-.938 7.517-.742 15.104 1.42 22.483 2.869 9.799 6.31 19.301 14.076 26.687m107.911-46.887V188.1l-1.025-.01c-1.621 23.688-.123 47.432-.599 71.141-.475 23.689-.104 47.396-.104 71.097l-.925-.001c-.311-73.978.228-147.953-.104-221.929l1.268-.004v65.773l1.319.017c.045-1.654.117-3.309.131-4.962.081-9.623.187-19.248.208-28.871.021-7.661-.041-15.323-.113-22.984-.051-5.026-.187-10.052-.276-14.881-1.268-.753-1.973-1.263-2.75-1.62-5.592-2.566-11.144-5.232-16.813-7.611-6.128-2.569-12.354-4.911-18.579-7.237-1.348-.503-2.878-.52-4.562-.8-.134 1.407-.251 2.131-.264 2.854-.143 7.734-.348 15.469-.375 23.201-.048 12.593.005 25.188.055 37.781.021 5.136.261 10.272.198 15.407-.121 9.946-.523 19.894-.544 29.839-.017 7.102.561 14.202.587 21.306.025 7.723-.335 15.444-.42 23.168-.104 9.217-.12 18.437-.12 27.653 0 6.086.081 12.171.152 18.257.09 7.363.225 14.728.303 22.09.035 3.325-.026 6.651-.029 9.979-.007 6.124-.002 12.248-.002 18.514 4.712 1.245 8.852 2.464 13.05 3.421 5.322 1.214 10.708 2.153 16.039 3.334 3.66.811 7.253 1.928 10.922 2.688 1.089.219 2.335-.303 3.372-.462m-.145 257.401v-44.985l-1.173-.021c-.633 6.896.218 13.845-.038 20.753-.265 7.113.241 14.274-1.105 21.364-.639-.914-.896-1.839-.878-2.758.063-3.076.305-6.149.324-9.226.046-7.021-.053-14.046.004-21.066.086-10.586.364-21.17.367-31.757.008-25.385-.063-50.771-.174-76.152-.05-10.816-.382-21.633-.307-32.447.01-1.293-.881-3.697 1.538-4.422.137 2.401.269 4.673.396 6.945.308-.021.613-.04.923-.062 0-4.539-.181-9.088.073-13.611.134-2.393-.206-4.221-1.726-5.078l-41.215-7.13c-.911 33.865-.517 67.432-.747 100.982-.232 34.131-.052 68.266-.052 102.764 14.651-1.367 29.036-2.713 43.79-4.093m-.125-153.885-.876-.032c-.753 35.982.278 71.979-.292 108.114.514-.148 1.128-.243 1.128-.339.041-35.913.04-71.829.04-107.743M288.668 157.056h-.402v142.867h.402zm-.492 309.929.443-.002V351.792l-.443.001zM125.973 219.964c-.421.896-.787 1.76-1.223 2.584-6.662 12.633-7.187 25.658-1.733 38.708 3.382 8.094 10.051 12.494 18.849 12.492 7.184-.001 12.505-3.846 15.95-10.158 4.575-8.386 5.173-17.436 3.907-26.62-.661-4.791-2.053-9.496-3.317-14.187-1.157-4.291-3.87-7.471-7.667-9.789-10.771-6.579-25.104-5.883-35.146 2.17-3.463 2.776-6.277 6.367-9.35 9.623-.739.783-1.33 1.708-2.535 3.28v-23.339c19.572-14.814 35.271-33.896 48.209-55.682l-1.923 33.434c-11.048-1.94-19.032.889-22.381 8.508 7.869-3.258 15.528-5.752 23.685-2.368 4.335 13.387 8.153 27.004 22.38 33.317l.93-.49-2.394-6.376c15.49-5.089 26.747-15.575 37.529-26.985l-6.061 18.188c1.416-.688 2.174-.946 2.811-1.383 13.205-9.024 20.368-22.363 26.037-36.722 1.809-4.583 3.288-9.295 5.22-14.813.413 1.677.647 2.459.798 3.261 3.289 17.496 9.715 33.586 21.408 47.258 2.183 2.553 4.808 4.722 7.058 7.223.926 1.029 1.913 2.442 1.983 3.729.241 4.479.094 8.979.094 14.125-.927-.922-1.508-1.405-1.978-1.979-5.896-7.211-13.141-12.077-22.492-13.78-10.157-1.852-19.891 4.233-23.594 13.939-3.438 9.014-4.873 18.032-3.561 27.521.727 5.258 2.33 10.191 5.337 14.663 8.117 12.072 22.104 9.482 28.98 1.043 3.072-3.771 4.82-8.174 5.676-12.914 2.004-11.102 1.475-21.889-4-32.479 1.456.933 3.087 1.675 4.336 2.83 4.555 4.217 8.52 9.084 10.169 15.056 1.2 4.347 1.159 9.104 1.226 13.685.135 9.359-.047 18.725-.072 28.086-.021 7.483-.006 14.968-.006 22.396-5.334 5.143-11.104 9.049-17.368 12.188-12.775 6.398-26.457 9.672-40.579 11.176-17.754 1.892-35.447 1.347-52.923-2.445-15.49-3.361-30.36-8.446-43.345-17.893-3.115-2.266-5.837-5.073-8.704-7.674-1.958-1.775-2.051-4.21-2.057-6.597-.028-13.498-.018-26.995-.012-40.492.001-2.971-.223-5.973.11-8.908 1.483-13.077 9.12-21.454 20.792-26.622.17-.071.445.095.947.212m121.875-23.884c-.43-4.624-6.569-9.247-13.155-10.104-5.642-.735-11.027 1.981-12.849 6.801 9.263-2.96 17.859-1.682 26.004 3.303m202.997 237.95c-.244 1.192-.699 2.386-.701 3.579-.038 25.344-.025 50.688-.027 76.029l-.007 103.656c-.001 9.563.058 19.124-.024 28.686-.021 2.88-.362 5.766-.697 8.632-.122 1.044-.651 2.039-.975 2.989-3.073-.188-5.843-.355-9.271-.564-.533-21.666.065-43.605-.136-65.537-.199-21.784.026-43.573.031-65.361.006-22.132-.033-44.264-.048-66.396-.017-22.354-.022-44.705-.039-67.06-.019-22.163-.055-44.325-.059-66.489-.001-22.372.023-44.744.051-67.116.021-22.18.082-44.357.09-66.538.007-21.971-.04-43.939-.049-65.91-.012-22.046-.003-44.091-.003-66.081 3.172-2.696 6.716-.79 10.468-1.486.331 5.16.911 10.255.934 15.354.057 12.346-.253 24.691-.222 37.038.026 10.888.88 21.803.353 32.656-.704 14.512-.05 29.002-.368 43.498-.197 9.032-.521 18.065-.445 27.097.078 9.502.795 19 .815 28.5.039 17.337-.295 34.675-.351 52.013-.076 23.211-.047 46.422-.011 69.633.002 1.09.52 2.181.797 3.271l-.061-.105c-.251 1.056-.719 2.11-.722 3.168-.057 20.492-.063 40.986-.037 61.479.001.498.526.996.808 1.494z"/><path fill="#fff" d="M162.025 408.792c4.555-10.178 12.932-14.605 23.504-16.002 5.629-.744 10.686.899 15.394 3.551 8.306 4.676 17.255 4.759 26.25 3.874 4.024-.396 7.9-2.145 11.895-3.052 1.902-.433 3.925-.336 6.421-.519v6.571l.967.165c.4-.935.765-1.886 1.207-2.799 3.586-7.404 7.049-14.875 10.874-22.154 1.051-1.998 3.02-3.66 4.879-5.063 6.729-5.076 13.579-2.25 15.229 6.436-1.754-.176-3.431-.396-5.11-.493-1.847-.104-3.483.264-4.229 2.858 4.182.146 8.413.332 10.391 4.776 1.378 3.094 2.197 6.279.972 9.955-3.097-2.188-5.896-4.541-10.101-3.104.736.429 1.426 1.021 2.22 1.254 5.661 1.651 7.422 4.438 6.452 10.533-3.534.429-6.361-3.304-10.282-1.385 1.541.619 3.079 1.243 4.622 1.855 3.096 1.231 4.146 2.468 3.995 4.707-.166 2.459-1.466 3.885-4.581 4.708-1.678.442-3.422.626-5.133.929-1.771 5.255-5.6 8.803-10.381 10.97-17.462 7.918-35.474 10.262-54.341 5.34-13.24-3.454-25.296-9.112-36.521-16.823-2.481-1.701-3.826-3.81-4.593-7.088m120.56 7.222v248.413c-3.081-.35-5.724-.646-8.651-.979 0-10.063.021-19.784-.004-29.506-.031-13.615-.137-27.229-.135-40.845.003-16.988.105-33.979.122-50.965.017-15.741-.032-31.483-.045-47.226-.009-10.356.004-20.718-.007-31.076-.01-10.847.012-21.692-.09-32.538-.021-2.534.867-4.605 2.242-6.602 1.979-2.873 3.926-5.771 5.887-8.656q.341-.006.681-.02M135.597 582.565l40.93 8.394c-1.771 22.053-4.514 43.365-16.274 62.34-6.313 1.563-9.047.208-11.08-5.56-5.687-16.127-10.293-32.539-12.969-49.456-.019-.124-.066-.245-.071-.367-.175-4.936-.345-9.871-.536-15.351m89.375 71.219h-8.855c-3.793-5.282-4.961-11.44-6.223-17.484-1.755-8.4-3.352-16.852-4.535-25.347-.667-4.785-.389-9.709-.499-14.569-.05-2.226-.008-4.45-.008-7.012.799-.117 1.739-.329 2.688-.388a8332 8332 0 0 1 29.131-1.66c.993-.055 2.005-.068 2.988.061 1.708.224 2.794 1.177 2.609 3.009-.57 5.678-.852 11.416-1.909 17.005-1.388 7.338-3.045 14.668-5.255 21.794-2.282 7.354-5.335 14.471-8.13 21.66-.393 1.008-1.242 1.84-2.002 2.931M450.95 368.118c.253-3.065.72-6.133.725-9.198.044-28.031.03-56.063-.014-84.097-.026-16.945-.188-33.893-.192-50.84-.006-14.036.162-28.071.187-42.107.042-26.775.037-53.551.046-80.327q.007-20.546-.015-41.096c-.002-1.098-.096-2.193-.17-3.795-4.868 0-9.57 0-14.273-.002-1.875 0-3.76.102-5.623-.049-1.256-.102-2.482-.562-3.668-1.353 8.438-1.085 16.864-.66 25.256-1.043.097.072.203.137.288.224.086.088.206.19.219.298.109.989.285 1.979.285 2.971.054 198.471.098 396.939.118 595.41 0 1.462-.31 2.924-1.206 4.698-.4-.68-1.08-1.331-1.149-2.044-.271-2.771-.48-5.56-.474-8.34.117-36.938.332-73.874.403-110.812.048-24.842-.113-49.683-.144-74.522-.011-8.244.133-16.49.117-24.734-.003-1.111-.534-2.22-.82-3.33l.095.125c.23-1.184.663-2.366.666-3.552.057-19.997.068-39.994.042-59.991-.001-.866-.492-1.733-.757-2.602zM66.645 229.81l-.893 12.336c-4.236-1.125-8.191-4.041-12.628.567 5.011-1.677 8.464.234 11.955 2.376v10.269c-2.593 1.053-5.206-1.16-7.537.848 2.767 2.521 5.403 4.919 7.51 6.838v19.417c-4.183-.847-7.415-3.109-10.258-5.792-10.938-10.318-12.616-26.407-4.216-38.908 3.851-5.737 9.772-8.751 16.067-7.951"/><path d="M309.639 391.135c-7.767-7.388-11.207-16.89-14.072-26.685-2.161-7.382-2.355-14.969-1.42-22.482 1.131-9.07 5.714-15.981 14.396-19.719.342-.146.692-.278 1.022-.448.22-.113.409-.281.328-.226V57.711c18.828 7.638 37.116 14.446 54.633 22.63 0 6.409-.019 12.199.004 17.988.022 7.268.099 14.533.115 21.801.023 9.797.022 19.593.021 29.389-.001 11.742-.021 23.485-.021 35.229.004 23.009.015 46.019.021 69.025.005 19.146.05 38.291-.023 57.438-.016 4.055-.79 8.121-.611 12.156.139 3.135 1.007 6.291 1.91 9.331 3.738 12.584 1.646 24.084-7.145 33.77-6.042 6.657-13.96 9.031-22.938 6.6-1.155-.313-2.31-.641-3.446-.957 0 4.012.377 7.854-.107 11.584-.479 3.689-1.827 7.269-2.858 11.14l34.454 6.629c.195 5.928.467 11.684.558 17.44.092 5.784-.028 11.571.003 17.356.073 14.019.278 28.038.248 42.057-.033 14.875-.393 29.749-.389 44.623.004 10.888.433 21.776.54 32.666.076 7.854.031 15.711-.128 23.563-.187 9.003-.561 18.002-.858 27.233-17.901 1.894-35.74 3.779-54.014 5.711 0-8.798-.021-17.235.005-25.676.041-13.585.146-27.171.159-40.756.009-10.328-.096-20.657-.137-30.985-.024-6.831-.093-13.664-.028-20.495.061-6.686.389-13.372.369-20.058-.021-9.335-.28-18.669-.391-28.004-.031-2.674.127-5.352.163-8.024.09-6.796.253-13.593.214-20.387-.047-8.286-.268-16.57-.423-24.855-.015-.617-.109-1.232-.154-1.738m52.612-73.697c.222-4.817.531-8.722.554-12.625.055-9.265-.021-18.527-.062-27.793-.034-8.239-.1-16.479-.129-24.721-.044-11.501-.115-23.003-.088-34.504.021-9.463.271-18.926.242-28.39-.034-11.664-.369-23.329-.369-34.994 0-14.313.223-28.626.325-42.939.037-4.93.008-9.857.008-14.409-15.122-6.23-29.532-12.171-44.038-18.148v228.198c3.683.938 6.829 1.85 10.022 2.532 8.8 1.881 17.688 3.366 26.243 6.292 2.208.753 4.598.962 7.292 1.501m-49.399 289.014c.4.187.804.37 1.203.557 1.267-1.688 2.603-3.33 3.775-5.08 1.177-1.751 1.449-3.521.268-5.563-.618-1.067-.635-2.591-.618-3.902.046-3.529.34-7.058.382-10.586.151-13.154.225-26.312.366-39.466.091-8.263.32-16.521.354-24.783.016-4.367-.38-8.735-.376-13.104.004-5.334.333-10.669.339-16.004.009-6.659-.212-13.318-.255-19.979-.104-15.657-.195-31.316-.197-46.977 0-3.114.429-6.23.66-9.347l1.021.057v182.321c2.871 0 5.477.166 8.053-.031a1476 1476 0 0 0 27.39-2.334c2.145-.203 4.239-.896 6.773-1.458.625-29.321.27-58.143.325-86.959.056-29.025.012-58.051.012-87.543-8.343-1.135-16.404-2.082-24.412-3.36-8.222-1.314-16.393-2.956-25.062-4.542zM312.2 64.378c.047 81.283-.345 161.75.248 242.6h4.872c0-38.441.048-76.562-.015-114.682-.061-37.55-.229-75.103-.352-112.313-1.224-1.028-1.932-1.625-2.945-2.477l3.854-2.095c14.901 6.313 29.506 12.494 44.498 18.845v-8.079zm19.933 264.236 3.104 4.389 1.425-.705.437 2.119c4.015 3.521 8.108 1.181 12.047.411.667 2.438 2.367 2.319 3.942 2.574.135-.629 1.657-2.395 2.164-3.216.232-.377-.256-1.198-.417-1.816.651-9.183-3.287-11.765-14.093-14.356 2.807-.783 4.902-.594 6.94.438 8.339 4.215 13.681 10.651 14.853 20.147.512 4.146 2.285 8.174 1 12.526.555-.52.99-1.057.98-1.586-.058-3.794.957-7.554.088-11.386-1.547-6.81-3.232-13.527-9.232-17.995-5.437-4.048-11.303-6.591-18.315-4.799-8.622 2.203-13.46 8.271-16.651 16.079-.218.526-.586.99-.886 1.481q-.233-.122-.472-.242l2.12-8.328c-9.379-2.786-12.481-1.025-16.408 2.161-2.921 2.37-4.847 5.543-6.189 9.121-2.532 6.735-2.471 13.6-1.283 20.521.621 3.618 3.587 8.909 5.642 10.619-3.632-11.728-4.142-19.868-1.715-25.532v10.38c1.212.816 2.146 1.446 2.826 1.906 1.429-1.011 2.582-1.824 3.38-2.391 2.912-3.634 5.593-6.977 8.302-10.354.457 2.699.025 5.654 2.636 8.207.32-1.448.54-2.438.767-3.455 1.444 3.637 2.72 7.24 4.286 10.715 2.763 6.124 7.109 10.812 13.457 13.271 5.184 2.008 10.308 2.08 15.19-1.587-.446-.096-.662-.211-.83-.165-8.217 2.257-15.549.287-20.92-6.058-6.899-8.147-8.613-17.813-5.668-28.186 1.492-5.254 4.372-9.518 8.842-12.811l2.57 3.759c-.774.474-1.783 1.088-2.771 1.691l3.086 2.822c-1.61-.137-2.626-.227-4.234-.369m30.321 84.064c-.536-3.027.938-6.262-2.247-8.446l-47.33-8.563v9.83c15.771 2.619 31.295 5.196 47.476 7.885zm-.676 182.353c-1.429-.345-2.738-1.123-3.454-.751-2.731 1.42-5.653.714-8.438 1.02-9.54 1.042-19.13 1.644-28.304 2.381-2.188 3.762-4.11 7.072-6.543 11.256 15.834-1.566 31.063-2.935 46.736-4.671.003-3.15.003-6.179.003-9.235m-39.162-273.262 10.226-8.222-19.789-4.173v10.274c3.338.742 6.433 1.427 9.563 2.121m94.934 22.479c-1.037.158-2.283.683-3.374.456-3.669-.761-7.262-1.878-10.922-2.688-5.331-1.181-10.717-2.12-16.039-3.334-4.198-.957-8.338-2.176-13.05-3.421 0-6.266-.005-12.39.002-18.514.003-3.326.064-6.651.029-9.979-.078-7.364-.213-14.728-.304-22.09-.07-6.085-.151-12.172-.151-18.257 0-9.218.018-18.438.12-27.653.085-7.725.445-15.446.42-23.168-.026-7.104-.604-14.204-.587-21.306.021-9.945.423-19.893.544-29.839.063-5.135-.18-10.271-.198-15.408-.05-12.593-.104-25.188-.055-37.78.027-7.732.232-15.468.375-23.201.013-.727.13-1.448.264-2.854 1.684.281 3.214.296 4.561.8 6.229 2.326 12.452 4.667 18.58 7.237 5.671 2.379 11.224 5.045 16.813 7.611.777.357 1.481.867 2.75 1.62.092 4.829.228 9.854.276 14.881.072 7.661.134 15.323.113 22.984-.021 9.624-.127 19.248-.208 28.87-.014 1.654-.086 3.309-.131 4.963l-1.319-.017v-65.773l-1.268.004c.33 73.977-.206 147.952.103 221.928l.927.001c0-23.698-.37-47.405.104-71.096.476-23.709-1.022-47.452.598-71.141l1.026.01zm-5.329-14.729c.337-1.167.932-2.289.938-3.413.032-4.542-.17-9.083-.187-13.625-.02-5.451.122-10.9.094-16.353-.055-9.694-.25-19.391-.258-29.085-.006-7.645.225-15.287.271-22.931.027-4.295-.158-8.591-.146-12.886.019-5.307.214-10.609.195-15.915-.015-4.66-.301-9.318-.313-13.979-.031-9.779.066-19.562.053-29.341-.011-5.993-.212-11.987-.187-17.979.021-5.082.296-10.163.355-15.246.024-2.069-.332-4.145-.313-6.213.038-3.472.413-6.945.33-10.409-.099-4.12-.839-4.641-4.832-6.124-5.342-1.985-10.58-4.246-15.874-6.363-3.048-1.221-6.111-2.394-9.57-3.744-.333 2.071-.794 3.753-.837 5.443-.107 4.302-.023 8.605-.021 12.909.005 13.957.021 27.914.007 41.87-.017 18.894-.078 37.785-.072 56.678.009 31.003.04 62.009.11 93.012.005 2.051.421 4.103.654 6.234zm-34.496-224.623c-.124.438-.249.677-.251.916-.108 16.66-.268 33.317-.293 49.979-.02 11.842.186 23.684.209 35.523.04 18.94.039 37.884.016 56.825-.031 22.149-.149 44.3-.104 66.449.006 2.526-.688 5.459 2.517 7.993.178-8.225.446-15.879.479-23.534.029-7.247-.295-14.495-.28-21.743.027-13.341.267-26.682.271-40.021.003-9.359-.345-18.718-.338-28.076.007-10.43.341-20.857.344-31.288.004-10.365-.324-20.732-.329-31.101-.005-13.303.161-26.604.271-39.908.006-1.603-.694-2.287-2.512-2.014m34.739 2.492c-11.723-4.092-22.662-10.214-34.969-14.149v7.76c11.904 4.953 23.422 9.746 35.439 14.748-.146-2.661-.28-5.025-.47-8.359M377.915 324.49c-.958 5.767-1.465 7.636 5.833 8.91 4.571.801 9.142 1.62 13.681 2.583 4.927 1.044 9.813 2.265 14.997 3.475.321-2.058.575-3.675.838-5.354-.376-.493-.668-1.307-1.138-1.428a3298 3298 0 0 0-30.044-7.564c-1.29-.321-2.639-.401-4.167-.622m39.49 277.159-43.785 4.096c0-34.498-.182-68.633.052-102.764.23-33.553-.164-67.117.747-100.982 13.927 2.408 27.225 4.71 41.215 7.13 1.52.857 1.857 2.688 1.726 5.078-.253 4.523-.073 9.072-.073 13.611-.31.021-.615.039-.923.062-.129-2.272-.261-4.546-.396-6.945-2.419.724-1.526 3.129-1.538 4.422-.074 10.814.257 21.631.307 32.447.11 25.384.182 50.77.174 76.152-.003 10.585-.281 21.172-.367 31.757-.057 7.021.042 14.046-.004 21.066-.021 3.074-.264 6.147-.324 9.226-.019.919.239 1.844.878 2.758 1.351-7.09.843-14.251 1.105-21.364.256-6.908-.595-13.854.038-20.753l1.173.021c-.005 14.883-.005 29.768-.005 44.982M379.378 421.19c-2.046 1.911-2.591 18.903-2.205 30.432.335 10.011.607 20.062.067 30.049-.5 9.255.437 18.579-.737 28.191-.117-.106.63.259.625.616-.104 8.425-.358 16.85-.438 25.275-.095 9.736-.05 19.478-.062 29.216-.008 7.353-.045 14.704.013 22.056.013 1.419-.563 3.361 2.237 3.73 0-3.254.062-6.333-.011-9.408-.239-10.439-.543-20.878-.776-31.317-.059-2.621.006-5.247.094-7.868.286-8.555.641-17.105.906-25.662.156-5.003.504-9.987.541-15.011.064-8.638.226-17.274.085-25.922-.027-1.845.575-3.699.889-5.549.399.035.802.072 1.2.109 0 2.313.032 4.626-.006 6.938-.106 6.639-.261 13.278-.366 19.917-.092 5.797-.098 11.596-.224 17.393-.161 7.41-.496 14.818-.579 22.231-.06 5.319.26 10.644.25 15.963-.012 7.309-.176 14.611-.271 21.917a3367 3367 0 0 0-.146 11.885c-.021 2.145 2.044 4.313 3.967 3.694 1.574-.504 3.111-.19 4.616-.555 3.791-.918 7.78-.653 11.55-.854 3.841-.203 7.532-1.275 11.794-.994 1.396-46.525-.125-92.798.75-139.048.158-8.35-.358-16.712-.573-25.39-10.229-2.052-20.252-2.163-30.644-3.501v4.119c-.005 12.704.018 25.405-.072 38.108-.006.83-.841 1.654-1.29 2.481-.474-1.031-.153-1.719-.181-2.394-.185-4.812-.646-9.619-.625-14.429.032-7.426.436-14.849.543-22.272.022-1.373-.597-2.763-.921-4.146m33.072 169.375c-2.55.246-4.601.486-6.652.634-3.353.239-6.71.396-10.062.63-4.415.313-8.836.577-13.234 1.052-1.825.194-4.441-.169-4.971 2.094-.575 2.462-2.181 5.373.867 7.718 5.796-.563 11.818-.603 17.571-1.869 5.389-1.185 11.063.125 16.479-2.239.002-2.598.002-5.137.002-8.02m.081-175.754c-5.108-3.003-31.797-7.521-35.174-5.813l.747 6.829 34.427 4.366z"/><path d="M417.28 447.764c0 35.914.001 71.829-.04 107.743 0 .096-.614.188-1.128.339.57-36.136-.461-72.132.292-108.114zM288.668 157.056v142.867h-.402V157.056zm-.492 309.929V351.793l.443-.001v115.191zM247.848 196.08c-8.146-4.984-16.741-6.264-26.004-3.304 1.822-4.817 7.207-7.535 12.849-6.801 6.586.858 12.725 5.482 13.155 10.105m203.043 171.931c.265.865.754 1.732.755 2.601q.044 29.995-.04 59.991c-.005 1.186-.436 2.368-.666 3.552-.279-.498-.807-.996-.808-1.494-.025-20.493-.02-40.987.037-61.479.003-1.059.471-2.115.722-3.171"/><path fill="#fff" d="M362.251 317.438c-2.694-.538-5.085-.748-7.289-1.501-8.558-2.926-17.443-4.411-26.243-6.292-3.193-.685-6.342-1.594-10.022-2.532V78.915c14.506 5.979 28.916 11.918 44.038 18.148 0 4.552.029 9.479-.008 14.409-.104 14.313-.325 28.626-.325 42.939 0 11.665.335 23.329.369 34.994.029 9.464-.221 18.927-.242 28.39-.027 11.501.044 23.003.088 34.504.031 8.24.095 16.479.129 24.721.038 9.266.114 18.528.062 27.793-.025 3.903-.335 7.806-.557 12.625m-49.399 289.014V408.37c8.668 1.586 16.84 3.228 25.062 4.542 8.008 1.278 16.069 2.228 24.412 3.36 0 29.492.044 58.518-.014 87.543-.056 28.816.302 57.638-.323 86.959-2.534.562-4.631 1.255-6.773 1.458a1476 1476 0 0 1-27.39 2.334c-2.576.197-5.182.031-8.055.031V412.276l-1.021-.057c-.231 3.114-.66 6.23-.66 9.347.002 15.658.096 31.317.197 46.977.043 6.658.264 13.317.255 19.979-.006 5.335-.335 10.67-.339 16.004-.004 4.367.392 8.735.376 13.104-.031 8.262-.263 16.521-.354 24.783-.144 13.154-.215 26.312-.366 39.464-.042 3.53-.336 7.059-.382 10.588-.017 1.313 0 2.835.618 3.902 1.184 2.04.909 3.813-.268 5.563-1.175 1.75-2.511 3.392-3.775 5.08q-.599-.28-1.2-.558"/><path fill="#fff" d="m312.2 64.378 50.162 21.801v8.079c-14.992-6.35-29.597-12.532-44.498-18.845l-3.854 2.095c1.016.852 1.724 1.447 2.945 2.477.121 37.211.291 74.763.352 112.313.063 38.12.015 76.239.015 114.682h-4.872c-.595-80.853-.203-161.319-.25-242.602m19.933 264.236c1.607.143 2.624.231 4.228.373-1.261-1.15-2.104-1.923-3.086-2.822l2.771-1.691-2.571-3.759c-4.469 3.294-7.349 7.557-8.841 12.811-2.947 10.373-1.231 20.036 5.668 28.186 5.371 6.345 12.703 8.313 20.92 6.058.168-.046.383.069.83.165-4.885 3.667-10.009 3.595-15.19 1.587-6.348-2.459-10.694-7.146-13.457-13.271-1.566-3.475-2.844-7.078-4.286-10.715-.228 1.018-.444 2.007-.768 3.454-2.607-2.552-2.178-5.507-2.635-8.206l-8.302 10.354-3.38 2.391c-.683-.46-1.614-1.09-2.826-1.906v-10.38c-2.427 5.664-1.917 13.808 1.715 25.532-2.055-1.71-5.021-7.001-5.642-10.619-1.188-6.923-1.25-13.785 1.282-20.521 1.346-3.578 3.271-6.75 6.19-9.122 3.927-3.188 7.029-4.947 16.408-2.161l-2.12 8.328q.235.122.472.242c.299-.491.668-.955.886-1.481 3.191-7.806 8.029-13.875 16.651-16.079 7.015-1.792 12.881.751 18.315 4.799 6 4.468 7.688 11.188 9.232 17.995.869 3.832-.146 7.592-.088 11.386.008.529-.428 1.066-.98 1.586 1.285-4.354-.488-8.383-1-12.526-1.172-9.497-6.514-15.935-14.853-20.147-2.038-1.029-4.136-1.221-6.94-.438 10.806 2.594 14.743 5.176 14.093 14.356.161.618.647 1.439.417 1.816-.507.822-2.029 2.587-2.164 3.216-1.575-.255-3.275-.136-3.942-2.574-3.938.77-8.032 3.109-12.047-.411l-.437-2.118-1.426.704c-.947-1.352-1.887-2.68-3.097-4.392m30.321 84.064c-1.193.399-1.999.671-2.104.704l-47.476-7.885v-9.83c16.02 2.897 31.691 5.733 47.33 8.563 3.189 2.187 1.713 5.421 2.25 8.448m-.676 182.353v9.232c-15.673 1.736-30.902 3.104-46.736 4.671l6.543-11.256c9.174-.737 18.764-1.339 28.304-2.381 2.782-.306 5.704.4 8.438-1.02.713-.37 2.024.409 3.451.754"/><path fill="#fff" d="M322.616 321.769c-3.13-.692-6.227-1.379-9.563-2.119v-10.274l19.789 4.174c-3.622 2.908-6.85 5.504-10.226 8.219m89.605 7.75c-10.176-2.563-19.73-4.973-29.599-7.458-.233-2.133-.649-4.185-.654-6.234a45059 45059 0 0 1-.109-93.012c-.007-18.894.057-37.786.071-56.678.014-13.956-.002-27.913-.007-41.87-.002-4.304-.086-8.607.021-12.909.043-1.69.504-3.372.837-5.443 3.459 1.352 6.522 2.523 9.571 3.744 5.294 2.117 10.531 4.377 15.873 6.363 3.993 1.483 4.733 2.004 4.832 6.124.083 3.464-.292 6.938-.328 10.409-.021 2.069.336 4.145.311 6.213-.061 5.083-.334 10.164-.355 15.246-.025 5.992.176 11.985.187 17.979.016 9.779-.084 19.562-.053 29.341.015 4.659.301 9.317.313 13.979.019 5.305-.179 10.608-.195 15.915-.014 4.294.174 8.59.146 12.886-.048 7.645-.276 15.287-.271 22.931.008 9.694.203 19.391.258 29.085.028 5.45-.111 10.9-.094 16.353.017 4.542.219 9.084.187 13.625-.012 1.122-.605 2.243-.942 3.411m-34.496-224.623c1.818-.272 2.52.411 2.507 2.016-.109 13.303-.275 26.604-.271 39.908.005 10.367.333 20.733.329 31.101-.003 10.431-.337 20.857-.344 31.288-.007 9.357.341 18.718.338 28.076-.004 13.34-.241 26.681-.271 40.021-.015 7.248.312 14.497.28 21.743-.03 7.655-.301 15.311-.479 23.534-3.205-2.534-2.511-5.465-2.517-7.993-.047-22.149.071-44.3.104-66.449.023-18.941.024-37.885-.016-56.825-.023-11.841-.229-23.684-.209-35.523.025-16.659.185-33.317.293-49.979.007-.241.132-.48.256-.918m34.739 2.492.473 8.356-35.439-14.748v-7.76c12.304 3.939 23.244 10.061 34.966 14.152M377.915 324.49c1.528.221 2.878.301 4.167.619a3298 3298 0 0 1 30.044 7.564c.47.121.762.936 1.138 1.428l-.838 5.354c-5.186-1.21-10.071-2.431-14.997-3.475-4.539-.963-9.107-1.782-13.681-2.583-7.298-1.271-6.791-3.14-5.833-8.907m1.463 96.7c.323 1.384.942 2.772.922 4.151-.107 7.426-.511 14.849-.543 22.272-.021 4.81.44 9.617.625 14.431.025.673-.293 1.358.183 2.392.447-.827 1.282-1.651 1.288-2.481.09-12.701.067-25.404.072-38.108v-4.119c10.392 1.338 20.415 1.45 30.644 3.501.215 8.678.731 17.04.573 25.39-.875 46.25.646 92.521-.75 139.05-4.262-.283-7.951.791-11.794.992-3.77.2-7.759-.063-11.55.854-1.505.364-3.042.051-4.616.555-1.923.616-3.986-1.552-3.967-3.692.04-3.961.093-7.925.146-11.887.097-7.306.261-14.608.271-21.917.01-5.318-.31-10.644-.25-15.963.083-7.413.418-14.819.579-22.23.126-5.796.132-11.597.224-17.394.105-6.639.26-13.276.366-19.917.038-2.313.006-4.626.006-6.938l-1.2-.109c-.313 1.85-.916 3.704-.889 5.549.141 8.646-.021 17.284-.085 25.922-.037 5.021-.385 10.01-.541 15.013-.268 8.555-.62 17.105-.904 25.662-.09 2.619-.152 5.245-.096 7.866.233 10.439.537 20.878.776 31.317.07 3.075.011 6.154.011 9.408-2.803-.369-2.227-2.313-2.237-3.73-.058-7.352-.021-14.703-.013-22.056.012-9.738-.033-19.479.062-29.216.08-8.426.335-16.853.438-25.275.005-.355-.742-.725-.625-.616 1.174-9.61.237-18.938.737-28.191.54-9.987.268-20.038-.067-30.047-.386-11.535.159-28.528 2.204-30.439m33.072 169.375v8.017c-5.415 2.364-11.092 1.057-16.479 2.239-5.753 1.269-11.775 1.308-17.571 1.869-3.048-2.345-1.442-5.256-.867-7.718.527-2.263 3.146-1.897 4.971-2.094 4.398-.475 8.819-.738 13.234-1.052 3.352-.234 6.709-.391 10.062-.63 2.051-.144 4.1-.385 6.65-.631m.081-175.754v5.382l-34.427-4.366-.747-6.829c3.377-1.706 30.065 2.81 35.174 5.813"/><path fill="none" stroke="#000" stroke-linecap="round" stroke-linejoin="bevel" stroke-miterlimit="10" stroke-width="3" d="M186.475 296.03h3.816"/></svg>