<svg xmlns="http://www.w3.org/2000/svg" xml:space="preserve" width="864" height="1185" viewBox="0 0 864 1185"><path fill-rule="evenodd" d="M444.899 1012.828c-6.829 2.177-13.06 3.913-19.053 6.252-1.473.575-2.854 3.017-3.125 4.777-1.953 12.645-3.557 25.342-5.389 38.005-.664 4.592-1.463 9.182-2.533 13.693-1.648 6.943-3.027 14.027-5.514 20.681-5.239 14.021-10.999 27.854-16.782 41.665-4.593 10.968-11.756 14.665-23.558 12.347-3.56-.699-7.035-1.949-10.458-3.197-5.791-2.112-9.168-6.412-10.489-12.369-7.354-33.15-15.456-66.188-14.921-100.515.036-2.28-.506-4.569-.789-6.94h-20.255c-1.632 10.649-3.113 21.147-4.867 31.601-4.308 25.674-9.675 51.045-22.56 74.11-1.133 2.027-2.408 4.002-3.829 5.836-5.311 6.85-12.006 11.371-21.012 9.932-9.587-1.532-15.799-7.546-18.625-16.756-5.462-17.806-10.68-35.688-16.079-53.513-6.195-20.448-10.412-41.28-12.207-62.576-.374-4.435-2.457-6.739-6.615-8.588-34.925-15.528-71.262-27.869-104.844-46.438-6.907-3.819-7.178-3.635-4.381-11.08 27.569-73.391 64.743-141.231 116.276-200.738 2.045-2.361 2.801-4.198 1.208-7.41-3.922-7.91-3.682-16.284-.025-24.172 6.787-14.641 8.313-30.382 10.554-46.017 1.345-9.386 2.768-18.767 4.495-28.087.496-2.674 1.791-5.4 3.375-7.639 7.622-10.767 15.677-21.174 26.923-28.549.496-.325.842-.881 2.043-2.178-22.019 1.16-39.48-6.436-53.919-22.243 1.477 4.385 2.783 8.838 4.477 13.137 1.745 4.43 3.868 8.711 6.388 14.306-23.835-1.99-34.463-18.688-45.935-35.245.677 3.552 1.236 7.132 2.063 10.648a158 158 0 0 0 3.156 11.55c1.144 3.611 2.572 7.133 4.032 11.122-35.891-2.154-58.967-22.323-76.212-52.963-2.725 14.774 1.871 26.244 9.248 37.856-8.666-1.491-15.75-4.274-22.268-8.767-18.821-12.972-29.808-31.413-36.943-52.557-5.622-16.657-8.735-33.777-9.188-51.369-.037-1.424-.239-2.843-.48-5.576-9.895 11.045-14.944 23.076-17.934 36.115-3.028 13.206-1.271 26.01 4.187 38.449l-1.028.884c-2.173-1.236-4.491-2.275-6.498-3.74-13.054-9.527-19.171-23.205-21.987-38.475-4.657-25.261 2.12-48.781 11.757-71.798 10.217-24.4 24.379-46.559 38.84-68.534 12.767-19.401 20.582-40.601 27.002-62.917 5.513-19.161 13.884-37.861 23.441-55.432 33.515-61.622 85.645-98.74 154.03-113.43 20.943-4.499 42.125-7.163 63.497-5.769 18.419 1.201 37.1 2.244 55.02 6.248 21.475 4.798 42.264 12.666 63.35 19.204 1.396.433 2.793.86 4.951 1.525v-6.226c-.02-34.83.05-69.661-.166-104.49-.029-4.674 1.599-6.285 5.878-8.005 10.029-4.032 19.149-3.001 29.276.366 58.89 19.582 117.979 38.568 177.041 57.628 3.408 1.1 7.176 1.501 10.778 1.513 36.163.121 72.327.095 108.49.102 8.564.001 8.599-.014 8.6 8.458.029 169.818.061 339.635.068 509.454.008 165.318-.026 330.638.069 495.957.003 4.583-1.316 6.123-5.955 6.062-15.152-.204-30.441-1.295-45.438.268-35.927 3.741-71.712 8.834-107.563 13.314-28.075 3.508-56.165 6.899-84.245 10.372-24.452 3.023-48.859 6.512-73.376 8.866-7.007.673-14.34-1.798-21.477-3.088-.808-.146-1.637-1.926-1.87-3.067-.327-1.603-.115-3.316-.115-4.983q-.005-60.245-.007-120.489zm22.218-972.721v3.923c-.066 50.653-.202 101.307-.182 151.96.021 54.488.297 108.976.268 163.463-.052 94.814-.262 189.63-.316 284.444-.002 1.805.742 3.841 1.742 5.375 3.645 5.591 6.021 11.431 5.302 18.284-.145 1.382.023 3.129.766 4.22 8.906 13.094 1.266 25.861-.664 38.718-.382 2.543-1.172 5.043-1.974 7.498-.813 2.489-1.882 4.895-2.82 7.344-.787 2.052-2.225 4.114-2.226 6.172-.102 136.476-.087 272.95-.082 409.426v5.454l275.031-34.348c0-2.437.001-4.408-.001-6.379-.036-43.492-.106-86.984-.104-130.477.014-279.783.023-559.566.228-839.349.004-5.478-1.953-7.382-6.649-8.897C656.946 101.607 578.5 76.14 500.043 50.71c-10.713-3.47-21.437-6.904-32.926-10.603M212.79 390.62c-24.66 9.725-36.992 27.405-37.281 51.478-.33 27.48.157 54.972.48 82.455.025 2.109.985 4.848 2.493 6.192 7.434 6.629 14.667 13.7 22.947 19.123 25.863 16.938 55.129 24.677 85.325 28.812 29.031 3.975 58.162 3.407 87.048-1.785 23.969-4.308 46.599-12.287 66.919-26.131 3.06-2.084 4.309-4.33 4.291-8.158-.175-39.491-.13-78.983-.151-118.476-.005-9.278-8.078-20.02-17.403-22.915.238.745.367 1.37.63 1.932 6.231 13.327 7.856 27.446 6.802 41.908-.798 10.927-3.586 21.312-10.176 30.375-12.625 17.362-36.553 17.445-48.531-.265-3.564-5.271-6.416-11.436-7.935-17.601-4.679-19.002-2.539-37.722 4.87-55.732 5.699-13.856 19.021-22.619 33.231-22.298 12.178.274 22.479 5.436 31.843 12.807 1.971 1.552 3.896 3.161 6.759 5.487 0-9.067.091-16.708-.089-24.342-.03-1.294-.959-2.819-1.918-3.803-19.785-20.286-30.912-45.085-37.707-72.138-1.564-6.225-2.844-12.521-4.483-19.803-.839 2.078-1.271 3.126-1.687 4.182-5.346 13.609-10.263 27.409-16.155 40.777-5.745 13.034-13.707 24.795-24.387 34.422-4.233 3.815-8.932 7.115-13.417 10.649l-1.297-1.059 9.083-27.597c-18.552 18.62-37.529 35.901-62.879 44.127l3.624 10.936c-2.774-.145-4.559-.914-6.212-1.903-8.806-5.269-15.793-12.453-20.074-21.701-4.176-9.021-7.631-18.405-10.867-27.814-1.319-3.834-3.333-5.544-7.13-6.473-9.735-2.379-18.779.104-27.815 3.185q-2.564.875-5.126 1.754c8.222-15.141 21.822-15.231 36.168-13.508l3.398-55.738c-.949.621-1.307.733-1.461.975-1.074 1.681-2.108 3.388-3.152 5.089-17.524 28.57-37.487 55.333-63.752 76.344-10.159 8.126-14.393 16.413-12.798 28.909.863 6.758.154 13.717.154 21.356 5.539-6.092 10.21-11.482 15.15-16.613 10.507-10.914 23.477-16.023 38.576-15.677 20.02.459 34.601 10.907 39.055 27.863.591 2.251 1.174 4.504 1.781 6.751 4.948 18.298 5.774 36.498-2.008 54.265-5.564 12.703-14.589 21.174-29.334 20.971-14.952-.206-25.208-7.878-30.718-21.504-8.399-20.769-8.281-41.492 1.548-61.892 1.114-2.316 2.149-4.672 3.768-8.198m547.237 723.101c5.129 0 9.629-.33 14.058.088 4.95.468 6.516-.985 6.499-6.227-.201-64.16-.163-128.322-.154-192.484.034-269.476.081-538.951.105-808.426 0-1.267-.245-2.533-.36-3.652h-99.737c8.679 3.81 17.482 6.701 26.277 9.62 14.819 4.918 29.394 10.616 45.628 8.802 7.603-.849 7.709-.177 7.711 7.696q.017 93.243.013 186.485l-.039 787.441zM413.879 693.477c-5.031.688-9.438.693-13.459 1.94-23.033 7.141-44.991 6.907-67.017-4.941-18.366-9.88-44.587-1.238-56.404 15.794-6.406 9.232-2.69 15.565 3.814 19.822 8.475 5.546 17.162 10.898 26.226 15.388 40.778 20.202 82.336 23.81 124.538 4.431 4.433-2.036 9.253-4.693 12.083-8.432 5.012-6.621 9.129-13.631 18.709-13.709.151-.001.368-.09.443-.208 1.495-2.363 4.026-4.688 4.14-7.124.1-2.151-2.074-4.964-4.019-6.511-2.324-1.85-5.472-2.663-8.263-3.925l.534-1.61c3.496.954 7.062 1.711 10.469 2.914 3.899 1.376 5.173.011 5.15-3.833-.035-6.188-2.72-10.168-8.731-12.566-1.796-.717-3.526-1.599-6.445-2.936 7.862-2.28 12.021 2.16 16.653 4.992 2.331-4.268 2.022-7.699.083-13.978-2.809-9.089-10.293-10.625-18.72-11.459 4.203-6.643 9.984-3.146 14.812-3.511-.573-11.21-9.435-17.923-18.868-14.303-6.377 2.447-11.632 6.494-14.657 12.862-6.21 13.07-12.347 26.175-18.547 39.249-.419.883-1.12 1.633-2.524 3.635zm50.382-653.352c-3.313.916-5.814 1.883-8.402 2.263-4.61.676-5.958 2.853-5.921 7.66.28 36.16.206 72.323.215 108.485.042 158.979.075 317.958.111 476.937v6.692l13.997 2.418zm290.79 1073.222V126.221h-8.054v8.619c-.02 38.663-.053 77.326-.007 115.989.002 1.667.316 4.486 1.199 4.808 4.665 1.697 4.398 5.45 4.403 9.084.017 12.831-.162 25.663-.076 38.493.029 4.436-.247 8.384-5.649 9.283l.001 3.373q.07 269.473.134 538.947c.008 32.33-.027 64.661.072 96.99.006 1.706.931 3.482 1.701 5.095 1.12 2.345 3.519 4.542 3.582 6.852.364 13.32.205 26.655.215 39.985.002 3.66-.729 6.787-5.332 6.507v103.102zM464.239 729.309c-12.755 1.021-14.188 4.864-14.023 15.321.029 1.832-.011 3.665-.011 5.497l.01 373.82c0 5.331-.134 10.668.094 15.988.058 1.332 1.016 3.463 2.008 3.77 3.738 1.152 7.662 1.702 11.923 2.56zm-234.566 285.239c0 9.917-1.073 19.171.199 28.09 3.953 27.724 12.185 54.422 21.279 80.845 2.022 5.876 4.842 11.08 12.046 11.696 7.164.613 9.117-5.096 11.629-9.839 15.939-30.098 20.295-62.915 22.681-96.682zm115.662 11.62c-.089 1.907-.148 3.539-.242 5.17-1.297 22.513 2.776 44.447 7.47 66.263 2.229 10.361 5.096 20.607 8.166 30.757 2.121 7.012 8.202 7.83 14.535 7.97 5.646.124 6.714-4.408 8.252-8.015 13.325-31.24 23.059-63.416 24.854-97.612.384-7.316-.257-8.265-7.565-7.899-16.785.838-33.563 1.815-50.344 2.765-1.624.09-3.235.373-5.126.601m-233.08-617.749c-11.581-1.033-19.929 3.52-26.238 12.086-16.643 22.598-11.345 55.663 11.565 71.876 3.214 2.274 7.093 3.608 11.573 5.827 0-11.031.198-20.507-.142-29.963-.083-2.304-1.51-4.907-3.069-6.732-2.48-2.903-5.59-5.27-8.434-7.862l.635-1.299 11.082-.675c0-5.437.172-10.573-.119-15.684-.074-1.297-1.379-3.261-2.533-3.633-4.878-1.571-9.914-2.658-14.689-3.871 5.702-5.686 12.341-.139 18.911.559zm279.307 203.816c6.853 5.508 14.852 11.451 22.275 18.042 7.581 6.732 14.598 14.101 21.801 21.132 2.323-1.617 4.957-3.329 7.436-5.243.804-.621 1.7-1.766 1.708-2.678.113-12.098.076-24.197.076-37.025-12.33 4.492-24.013 9.735-37.445 4.496 2.77-3.42 5.23-6.126 7.297-9.106 1.927-2.779 3.433-5.849 4.93-8.452-9.561 6.412-18.97 12.724-28.078 18.834m355.611 378.637 1.156-.033v-13.525l-1.156.027zm1.144-713.547-1.128-.04v13.479h1.128z" clip-rule="evenodd"/><path fill="#fff" fill-rule="evenodd" d="M467.117 40.107c11.489 3.699 22.213 7.133 32.926 10.604 78.457 25.43 156.902 50.897 235.393 76.228 4.696 1.516 6.653 3.419 6.649 8.897-.204 279.783-.214 559.565-.228 839.349-.003 43.492.067 86.984.104 130.477.002 1.971.001 3.942.001 6.379l-275.031 34.348v-5.454c-.005-136.476-.02-272.95.082-409.426.001-2.058 1.438-4.12 2.226-6.172.938-2.449 2.008-4.854 2.82-7.344.802-2.455 1.592-4.955 1.974-7.498 1.93-12.856 9.57-25.624.664-38.718-.742-1.091-.91-2.838-.766-4.22.72-6.854-1.657-12.693-5.302-18.284-1-1.534-1.744-3.57-1.742-5.375.055-94.814.265-189.63.316-284.444.029-54.488-.246-108.976-.268-163.463-.021-50.653.115-101.307.182-151.96.001-.981 0-1.962 0-3.924m46.023 82.857v446.285l194.053 23.16c0-2.71-.002-4.5.001-6.291.021-17.167.065-34.333.064-51.5-.012-116.333-.063-232.665.057-348.998.005-4.728-1.516-6.486-5.978-7.771-53.044-15.282-106.023-30.793-159.016-46.258-9.517-2.778-19.016-5.62-29.181-8.627m194.094 905.788v-7.755q.005-145.732.006-291.465c0-4.333-.146-8.669-.01-12.997.099-3.107-.968-4.373-4.257-4.6-22.597-1.559-45.183-3.273-67.766-5.016-32.71-2.521-65.413-5.134-98.124-7.651-8.073-.621-16.164-1.028-24.635-1.559v351.128l189.36-21.7-.17-1.382zm-176.445-440.42c-2.941-.937-6.752-2.786-10.731-3.284-8.408-1.053-15.167 2.697-20.764 8.746-15.26 16.491-14.043 49.428 2.38 64.775 9.587 8.958 20.167 9.358 30.471 1.175.362-.288.875-.386 1.274-.554 21.099 16.356 40.948 4 48.304-12.352 7.424-16.502 6.951-32.979-1.742-48.928-7.038-12.911-18.544-19.331-31.576-16.773-5.972 1.173-11.499 4.617-17.616 7.195M212.79 390.62c-1.619 3.526-2.654 5.882-3.771 8.2-9.829 20.4-9.947 41.123-1.548 61.892 5.51 13.626 15.766 21.298 30.718 21.504 14.745.203 23.77-8.268 29.334-20.971 7.783-17.768 6.956-35.967 2.008-54.265-.607-2.247-1.19-4.5-1.781-6.751-4.454-16.956-19.035-27.404-39.055-27.863-15.099-.346-28.069 4.763-38.576 15.677-4.94 5.131-9.611 10.521-15.15 16.613 0-7.639.709-14.598-.154-21.356-1.594-12.496 2.64-20.783 12.798-28.909 26.265-21.01 46.228-47.773 63.752-76.344 1.043-1.701 2.078-3.408 3.152-5.089.155-.242.513-.354 1.461-.975l-3.398 55.738c-14.347-1.723-27.946-1.632-36.168 13.508q2.562-.878 5.126-1.754c9.037-3.081 18.081-5.564 27.815-3.185 3.798.928 5.811 2.639 7.13 6.473 3.236 9.409 6.691 18.794 10.867 27.814 4.28 9.248 11.268 16.432 20.074 21.701 1.653.989 3.438 1.758 6.212 1.903l-3.624-10.936c25.35-8.227 44.328-25.507 62.879-44.127l-9.083 27.597 1.297 1.059c4.485-3.534 9.184-6.834 13.417-10.649 10.68-9.627 18.642-21.388 24.387-34.422 5.893-13.369 10.81-27.168 16.155-40.777.415-1.056.848-2.104 1.687-4.182 1.64 7.282 2.919 13.578 4.483 19.803 6.795 27.053 17.922 51.853 37.707 72.138.959.984 1.888 2.508 1.918 3.803.18 7.634.089 15.275.089 24.342-2.862-2.326-4.788-3.935-6.759-5.487-9.364-7.371-19.665-12.532-31.843-12.807-14.211-.321-27.532 8.442-33.231 22.298-7.409 18.01-9.549 36.73-4.87 55.732 1.519 6.165 4.37 12.33 7.935 17.601 11.979 17.71 35.906 17.627 48.531.265 6.59-9.063 9.378-19.448 10.176-30.375 1.055-14.462-.57-28.582-6.802-41.908-.263-.562-.392-1.187-.63-1.932 9.325 2.895 17.398 13.637 17.403 22.915.021 39.492-.023 78.984.151 118.476.018 3.828-1.231 6.074-4.291 8.158-20.32 13.844-42.95 21.823-66.919 26.131-28.887 5.192-58.018 5.76-87.048 1.785-30.196-4.135-59.462-11.874-85.325-28.812-8.28-5.423-15.513-12.494-22.947-19.123-1.508-1.345-2.468-4.083-2.493-6.192-.323-27.483-.81-54.975-.48-82.455.292-24.075 12.624-41.755 37.284-51.48m161.486-45.431c15.146-4.81 29.269-2.55 42.935 5.512-1.597-8.668-11.887-16.17-22.854-17.354-7.289-.787-17.883 3.573-20.081 11.842M317.1 523.295c1.914-.393 3.795-.475 5.32-1.255.542-.277.221-2.246.293-3.443-3.337-.043-6.676-.127-10.004.021-.131.006-.639 2.941-.148 3.265 1.278.843 3.015.993 4.539 1.412" clip-rule="evenodd"/><path fill="#fff" fill-rule="evenodd" d="M760.027 1113.721v-10.657q.021-393.72.039-787.441.004-93.243-.013-186.485c-.002-7.873-.108-8.545-7.711-7.696-16.234 1.813-30.809-3.884-45.628-8.802-8.795-2.918-17.599-5.81-26.277-9.62h99.737c.115 1.119.36 2.385.36 3.652-.024 269.476-.071 538.951-.105 808.426-.009 64.162-.047 128.324.154 192.484.017 5.241-1.549 6.694-6.499 6.227-4.428-.418-8.928-.088-14.057-.088M413.879 693.477v11.982c1.404-2.002 2.105-2.752 2.524-3.635 6.2-13.074 12.337-26.179 18.547-39.249 3.025-6.368 8.28-10.415 14.657-12.862 9.434-3.62 18.295 3.093 18.868 14.303-4.827.365-10.608-3.132-14.812 3.511 8.427.834 15.911 2.37 18.72 11.459 1.939 6.278 2.248 9.71-.083 13.978-4.632-2.832-8.791-7.272-16.653-4.992 2.919 1.337 4.649 2.219 6.445 2.936 6.012 2.398 8.696 6.379 8.731 12.566.022 3.844-1.251 5.209-5.15 3.833-3.407-1.203-6.973-1.96-10.469-2.914l-.534 1.61c2.791 1.262 5.938 2.075 8.263 3.925 1.944 1.547 4.118 4.359 4.019 6.511-.113 2.436-2.645 4.761-4.14 7.124-.075.118-.292.207-.443.208-9.58.078-13.697 7.088-18.709 13.709-2.83 3.738-7.65 6.396-12.083 8.432-42.202 19.379-83.76 15.771-124.538-4.431-9.064-4.489-17.751-9.842-26.226-15.388-6.505-4.257-10.221-10.59-3.814-19.822 11.817-17.032 38.038-25.674 56.404-15.794 22.025 11.849 43.983 12.082 67.017 4.941 4.021-1.248 8.428-1.253 13.459-1.941m50.382-653.352V644.58l-13.997-2.418v-6.692c-.036-158.979-.069-317.958-.111-476.937-.009-36.162.065-72.325-.215-108.485-.037-4.807 1.311-6.984 5.921-7.66 2.587-.379 5.089-1.346 8.402-2.263" clip-rule="evenodd"/><path fill="#fff" fill-rule="evenodd" d="M755.051 1113.347h-7.811v-103.102c4.604.28 5.334-2.847 5.332-6.507-.01-13.33.149-26.665-.215-39.985-.063-2.31-2.462-4.507-3.582-6.852-.771-1.612-1.695-3.389-1.701-5.095-.1-32.329-.064-64.66-.072-96.99q-.065-269.474-.134-538.947l-.001-3.373c5.402-.899 5.679-4.848 5.649-9.283-.086-12.83.093-25.662.076-38.493-.005-3.634.262-7.387-4.403-9.084-.883-.321-1.197-3.141-1.199-4.808-.046-38.663-.013-77.326.007-115.989v-8.619h8.054zM464.239 729.309v416.956c-4.261-.857-8.185-1.407-11.923-2.56-.992-.307-1.95-2.438-2.008-3.77-.228-5.32-.094-10.657-.094-15.988l-.01-373.82c0-1.832.04-3.665.011-5.497-.163-10.457 1.269-14.301 14.024-15.321m-234.566 285.239 67.834 14.11c-2.385 33.767-6.741 66.584-22.681 96.682-2.512 4.743-4.465 10.452-11.629 9.839-7.204-.616-10.024-5.82-12.046-11.696-9.094-26.423-17.326-53.121-21.279-80.845-1.271-8.919-.199-18.173-.199-28.09m115.662 11.62c1.891-.228 3.502-.511 5.125-.603 16.78-.949 33.559-1.927 50.344-2.765 7.309-.365 7.949.583 7.565 7.899-1.795 34.196-11.528 66.372-24.854 97.612-1.538 3.606-2.605 8.139-8.252 8.015-6.333-.14-12.414-.958-14.535-7.97-3.07-10.149-5.938-20.396-8.166-30.757-4.693-21.815-8.767-43.75-7.47-66.263.095-1.629.154-3.261.243-5.168m-233.08-617.749-1.457 20.629c-6.57-.697-13.209-6.244-18.911-.559 4.776 1.213 9.811 2.3 14.689 3.871 1.154.372 2.459 2.336 2.533 3.633.291 5.11.119 10.247.119 15.684l-11.082.675-.635 1.299c2.844 2.593 5.954 4.959 8.434 7.862 1.559 1.825 2.986 4.429 3.069 6.732.34 9.456.142 18.932.142 29.963-4.48-2.219-8.359-3.553-11.573-5.827-22.91-16.214-28.208-49.278-11.565-71.876 6.309-8.566 14.657-13.118 26.237-12.086" clip-rule="evenodd"/><path fill="#fff" fill-rule="evenodd" d="M747.173 990.872v-13.531l1.156-.027v13.525zm1.144-713.547v13.439h-1.128v-13.479z" clip-rule="evenodd"/><path fill-rule="evenodd" d="M513.14 122.964c10.165 3.007 19.664 5.85 29.182 8.627 52.992 15.465 105.972 30.976 159.016 46.258 4.462 1.285 5.982 3.043 5.978 7.771-.12 116.333-.068 232.665-.057 348.998.001 17.167-.043 34.333-.064 51.5-.003 1.791-.001 3.581-.001 6.291l-194.053-23.16zm2.283 9.222v434.765l183.58 21.889v-5.217c.009-130.964-.002-261.927.123-392.891.004-3.921-1.286-5.367-4.904-6.414-47.251-13.678-94.456-27.516-141.674-41.31-12.083-3.529-24.17-7.046-37.125-10.822m188.69 50.84c-1.16 1.904-2.23 2.928-2.431 4.101-1.834 10.727-.125 399.562 2.431 403.059zm-2.47-.499.185-1.605-185.806-54.43-.827 2.002c1.486.77 2.895 1.81 4.472 2.27 31.238 9.129 62.505 18.165 93.749 27.274 27.413 7.993 54.8 16.078 82.226 24.029 1.885.548 3.995.325 6.001.46m5.591 846.225-5.595-2.996.17 1.382-189.36 21.7V697.71c8.471.53 16.562.938 24.635 1.559 32.711 2.518 65.414 5.13 98.124 7.651 22.583 1.742 45.169 3.457 67.766 5.016 3.289.227 4.355 1.492 4.257 4.6-.137 4.328.01 8.664.01 12.997q0 145.732-.006 291.465zm-192.332 17.017c4.344-.403 7.992-.676 11.624-1.091 31.079-3.552 62.153-7.137 93.23-10.699 24.637-2.824 49.268-5.695 73.919-8.381 3.903-.425 5.172-1.795 5.169-5.874-.079-100.132-.008-200.265.024-300.396.001-1.605-.156-3.211-.251-5.036l-183.716-14.129zm188.407-331.323-1.947.361c0 3.73.003 7.462-.001 11.193-.065 63.333-.144 126.665-.195 189.998-.027 33.667-.047 67.333.063 100.999.008 2.438 1.102 4.871 1.69 7.306l1.979-.339v-8.239q.013-145.999.021-291.998c0-2.166.112-4.35-.131-6.491-.112-.973-.964-1.862-1.479-2.79m-172.52-126.114c6.117-2.578 11.644-6.022 17.615-7.194 13.032-2.558 24.538 3.862 31.576 16.773 8.693 15.949 9.166 32.426 1.742 48.928-7.355 16.352-27.205 28.708-48.304 12.352-.399.168-.912.266-1.274.554-10.304 8.184-20.884 7.783-30.471-1.175-16.423-15.348-17.64-48.284-2.38-64.775 5.597-6.049 12.355-9.799 20.764-8.746 3.98.497 7.791 2.347 10.732 3.283m-14.033 71.049c5.072 2.003 8.877-.401 12.746-3.445-1.749-2.709-3.617-5.065-4.896-7.707-1.958-4.046-4.39-7.209-8.131-10.124-9.464-7.374-7.062-25.513 2.159-28.561 1.042-.344 2.048-1.582 2.546-2.649 2.095-4.489 3.989-9.071 6.006-13.731-6.246-5.324-11.874-4.054-18.547 3.989-13.039 15.716-12.888 48.763 8.123 62.22-2.578-1.311-5.636-2.115-7.646-4.023-6.786-6.436-10.28-14.688-11.17-23.905-1.444-14.965 1.196-28.745 12.603-39.919-3.195 1.938-6.193 4-8.426 6.697-6.697 8.091-9.046 17.758-8.518 28.015.616 11.962 3.511 23.232 13.989 30.623 2.436 1.716 6.076 1.725 9.162 2.52m6.805-34.517c.075 9.513 3.083 21.004 12.792 29.836 11.586 10.539 27.273 9.041 36.733-3.405 11.991-15.775 11.327-40.875-1.068-56.366-9.641-12.048-25.4-11.299-35.091-3.244-9.366 7.785-12.942 18.247-13.366 33.179m-4.642 11.077v-22.498c-7.662 5.99-7.269 17.375 0 22.498M374.276 345.189c2.197-8.27 12.792-12.629 20.081-11.842 10.967 1.184 21.257 8.686 22.854 17.354-13.666-8.062-27.788-10.321-42.935-5.512M317.1 523.295c-1.523-.419-3.261-.569-4.539-1.413-.49-.323.018-3.259.148-3.265 3.328-.147 6.667-.063 10.004-.021-.072 1.197.249 3.166-.293 3.443-1.525.781-3.406.863-5.32 1.256" clip-rule="evenodd"/><path fill="#fff" fill-rule="evenodd" d="M515.423 132.186c12.955 3.776 25.042 7.292 37.125 10.822 47.218 13.794 94.423 27.632 141.674 41.31 3.618 1.047 4.908 2.493 4.904 6.414-.125 130.963-.114 261.927-.123 392.891v5.217l-183.58-21.889zm188.69 50.84v407.16c-2.556-3.497-4.265-392.332-2.431-403.059.201-1.173 1.271-2.197 2.431-4.101m-2.47-.499c-2.006-.135-4.115.088-6.002-.459-27.426-7.952-54.813-16.037-82.226-24.029-31.244-9.109-62.511-18.145-93.749-27.274-1.577-.46-2.985-1.5-4.472-2.27l.827-2.002 185.806 54.43zm-186.741 863.242V700.163l183.716 14.129c.095 1.825.252 3.431.251 5.036-.032 100.132-.104 200.265-.024 300.396.003 4.079-1.266 5.449-5.169 5.874-24.651 2.686-49.282 5.557-73.919 8.381-31.077 3.563-62.151 7.147-93.23 10.699-3.632.415-7.281.687-11.625 1.091m188.407-331.323c.516.928 1.367 1.816 1.479 2.79.243 2.142.131 4.325.131 6.491q-.008 145.999-.021 291.998v8.239l-1.979.339c-.589-2.435-1.683-4.868-1.69-7.306-.109-33.666-.09-67.332-.063-100.999.052-63.333.13-126.665.195-189.998.004-3.731.001-7.463.001-11.193zm-179.748-89.582c.425-14.933 4-25.395 13.366-33.18 9.69-8.055 25.45-8.804 35.091 3.244 12.396 15.491 13.06 40.591 1.068 56.366-9.46 12.446-25.147 13.944-36.733 3.405-9.709-8.831-12.717-20.322-12.792-29.835m29.674-1.591c1.532 4.559 2.384 9.242 4.591 13.164 3.593 6.387 10.73 6.446 15.219.69 5.595-7.177 5.306-21.235-.579-28.082-4.383-5.1-11.392-4.963-14.646.892-2.189 3.936-3.024 8.624-4.585 13.336m-8.208-33.672c-11.521 6.142-17.638 23.899-14.941 42.43 1.732 11.903 9.627 23.94 17.018 25.506-10.38-9.05-14.741-20.58-15.03-33.742-.288-13.03 3.598-24.656 12.953-34.194" clip-rule="evenodd"/><path fill="#fff" fill-rule="evenodd" d="M516.769 659.37c-21.017-13.455-21.168-46.502-8.129-62.218 6.673-8.043 12.301-9.313 18.547-3.989-2.017 4.66-3.911 9.242-6.006 13.731-.498 1.067-1.504 2.306-2.546 2.649-9.221 3.048-11.623 21.187-2.159 28.561 3.741 2.915 6.173 6.078 8.131 10.124 1.278 2.642 3.146 4.998 4.896 7.707-3.869 3.044-7.674 5.448-12.746 3.445z" clip-rule="evenodd"/><path fill="#fff" fill-rule="evenodd" d="M516.756 659.381c-3.086-.795-6.726-.804-9.161-2.521-10.479-7.391-13.373-18.661-13.989-30.623-.528-10.257 1.82-19.924 8.518-28.015 2.232-2.697 5.23-4.76 8.426-6.697-11.406 11.174-14.047 24.954-12.603 39.919.89 9.218 4.384 17.47 11.17 23.905 2.011 1.908 5.068 2.713 7.649 4.022.003-.001-.01.01-.01.01" clip-rule="evenodd"/><path fill="#fff" fill-rule="evenodd" d="M518.919 635.941c-7.269-5.123-7.662-16.509 0-22.498z" clip-rule="evenodd"/><path fill-rule="evenodd" d="M553.235 623.273c1.561-4.713 2.396-9.4 4.584-13.336 3.255-5.854 10.264-5.991 14.646-.892 5.885 6.847 6.174 20.905.579 28.082-4.488 5.756-11.626 5.696-15.219-.69-2.206-3.921-3.057-8.605-4.59-13.164m21.297.183c-1.127-3.881-1.691-7.38-3.142-10.462-2.266-4.816-6.484-5.09-9.848-1.026-4.368 5.278-4.526 17.159-.3 22.581 2.881 3.696 7.032 3.879 9.365-.205 1.913-3.345 2.695-7.335 3.925-10.888m-29.505-33.855c-9.355 9.538-13.241 21.164-12.954 34.193.289 13.162 4.65 24.692 15.03 33.742-7.391-1.565-15.285-13.603-17.018-25.506-2.695-18.53 3.421-36.288 14.942-42.429" clip-rule="evenodd"/><path fill="#fff" fill-rule="evenodd" d="M574.532 623.456c-1.23 3.553-2.013 7.543-3.924 10.888-2.333 4.084-6.484 3.901-9.365.205-4.227-5.422-4.068-17.303.3-22.581 3.363-4.063 7.582-3.79 9.848 1.026 1.45 3.082 2.014 6.581 3.141 10.462" clip-rule="evenodd"/></svg>