<svg xmlns="http://www.w3.org/2000/svg" xml:space="preserve" viewBox="0 0 640.61 692.5"><path d="m424.5 473.86 3.58-2.45c9.83-6.8 26.32-6.45 35.68.86 3.6 2.81 6.82 5.97 6.38 11.3 2.57.14 4.92.42 7.24.3 1.11-.05 2.2-.83 3.27-1.35.32-.15.57-.5.74-.83 4.28-8 11.19-9.52 19.57-8.66 6.07.61 12.24.16 18.36.15.6 0 1.22-.21 2.2-.4v-22.55h-3.9l-61.12.08c-1.25 0-2.5.03-3.75-.01-5.6-.17-8.33-2.71-8.38-8.35-.12-12.12-.05-24.24-.05-36.37 0-11.12-.03-22.24.1-33.37a10 10 0 0 1 1.41-4.43c3.4-6.08 7.06-12 10.33-18.14a7.7 7.7 0 0 1 3.78-3.68c4.31-2.1 8.4-4.64 13.2-6.8-2.98 5.1-6 10.16-8.93 15.28-.86 1.5-2.98 2.82-1.3 4.93 1.63 2.07 4.05 2.26 6.14 1.29 3.61-1.67 7.25-3.45 10.44-5.8a77 77 0 0 0 21.6-24.6c1.73-3.04 3.8-4.3 7.36-4.29 26.6.15 53.2.12 79.8.14 4.5 0 9-.11 13.5-.04 5.78.1 8.3 2.61 8.3 8.26q-.04 53.05-.16 106.12c-.02 8.14-1.95 9.91-10.4 9.91q-24 0-48-.04h-4.65v22.44c1.56.1 2.88.27 4.2.27 8 .04 16 .13 24 0 2.75-.05 4.76.78 6.49 2.9 8.29 10.17 5.15 7.78 17.16 8 10.62.2 21.25-.01 31.87-.08 6.8-.05 9.95 2.95 10 9.69.03 4.37.1 8.75-.04 13.12-.19 5.57-3.14 8.38-8.76 8.49-3.1.06-6.2.01-9.43.01v163c3.03 0 5.75-.09 8.46.02 4.22.17 7.15 2.8 7.4 6.48.23 3.22-2.56 6.65-6.2 7.44-1.33.3-2.74.3-4.1.3q-142.87.06-285.73.08-165.36.04-330.72-.04c-2.43 0-5.03-.4-7.22-1.35-3.1-1.35-4.19-4.6-3.38-7.93.7-2.94 2.83-4.67 6.33-4.78 3.86-.12 7.72-.02 12-.02V515.15c-3.75 0-7.32.08-10.89-.02-5.37-.15-8.03-2.78-8.18-8.12-.12-4.25-.12-8.5-.1-12.75.03-7.22 2.72-10.1 9.9-10.14 16.11-.1 32.24-.07 48.36-.08h13.52c-.42-3.43-.78-6.23-1.1-9.04-.92-8.07-1.86-16.15-2.7-24.22-.51-4.94 1.32-7.06 6.27-7.1q17.63-.12 35.24-.05c4.82.02 6.77 2.21 6.31 7.15-.87 9.46-1.87 18.9-2.83 28.35-.15 1.46-.35 2.91-.57 4.66h27.55l-3.24-30.48c-2.32 0-4.53.07-6.74-.02-4.13-.16-6.1-1.8-6.24-5.89-.24-6.99-.2-14-.1-20.99.05-3.11 2.14-4.67 5.07-5.03 2.1-.26 4.22-.28 6.37-.41.63-1.61.82-3.61 1.9-4.47 1.52-1.2 3.7-2.1 5.62-2.14 9.62-.2 19.24-.15 28.87.03 2.49.05 3.78-.82 4.96-2.94 2.43-4.35 5.17-8.54 7.83-12.77 1.21-1.92 2.72-3.6 5.14-1.85 2.26 1.64 2.03 3.73.6 5.93-2.4 3.65-4.71 7.36-6.42 10.04.48 3.99 1.32 7.02 1.12 9.98a2773 2773 0 0 1-3.9 48.95c-.35 3.94-1.33 7.83-2.07 12h32.07c.86-4.4 1.5-8.72 2.56-12.92 7.65-30.25 17.14-59.79 33.5-86.7 4.53-7.44 10.45-13.01 18.77-15.8 8.75-2.94 17.53-5.77 26.3-8.67a14 14 0 0 0 3.6-1.71c-2.9-.11-5.67.74-8.36 1.06-5.07.6-10.35-.54-15.54-1.02-.7-.06-1.35-.49-2.45-.18l4.8 3.96c-10.74.32-19.36-3.15-27-9.46l-.71.45 5.6 10.85a36 36 0 0 1-18.15-11.68l-.68.57 5.8 9.84A49 49 0 0 1 221 354.4c3.68 11.21 10 20.42 19.8 27.18-16.16-2.04-29.02-9.99-40.1-21.44 2.53 7.4 6.17 14.03 12.06 19.4a43 43 0 0 1-13.57-9.48c-6.86-6.97-11.67-15.21-15.08-24.35a5.3 5.3 0 0 0-2.8-2.94c-12.05-4.01-21.05-11.26-25.64-23.4q-.18-.45-.86-.7c2.34 14.98 6.42 29.19 17.35 40.77-.94-.4-1.91-.75-2.8-1.23-18.67-10.08-29.67-26.25-36.32-45.84-4.31-12.69-5.63-25.87-5.75-39.16-.08-8.98.5-17.98.78-26.97.04-1.1 0-2.2 0-3.66l-23.21 4.12c.8-1.74 1.09-2.48 1.48-3.17 6.1-10.58 12.5-21.01 18.2-31.8 2.65-5.01 4.23-10.66 5.8-16.15a292 292 0 0 0 4.79-19.96c2.42-11.46 4.23-23.07 7.04-34.43 9.16-37.08 27.1-69.13 55.6-94.93 20.55-18.62 44.44-31.2 71.02-38.9 33.68-9.75 67.35-10.03 100.87.34 57.06 17.66 95.65 55.17 117.3 110.48 7.04 17.98 11.33 36.75 14.49 55.75.75 4.52.47 9.23.46 13.85-.03 9.11 2.77 17.42 7.1 25.27q5.88 10.65 12.08 21.11c2.13 3.6 4.6 7 7.3 11.07-7.15.6-13.22-2.3-19.92-2.46.26 5.17.57 10.32.77 15.48.8 19.75-.68 39.3-7.31 58.05-5.78 16.37-15.54 29.84-30.97 38.6-.32.2-.7.25-1.77.61 7.54-11.06 10.8-23.03 12.77-35.43l-.7-.29c-.54.94-1.13 1.86-1.62 2.82-5 9.74-13.08 15.91-23.11 19.67a6.4 6.4 0 0 0-4.21 4.16c-5.19 13.44-13.58 24.36-25.98 32-.8.5-1.66.93-2.73 1.18 5.59-5.6 9.75-12 12.16-19.74-10.94 11.48-23.8 19.3-39.22 21.93 3.64-3.97 7.85-7.7 10.95-12.18 3.07-4.42 5.02-9.6 7.59-14.72l-23.14 9.08 8.43-12.43-.99-.96c-4.96 5.98-11.23 10-18.07 13.6l6.6-13.16-.66-.74c-7.19 5.9-14.9 10.6-24.78 10.97 1.5-1.05 3.01-2.1 4.94-3.42-6.06.56-11.13 1.13-16.23 1.4-1.06.07-2.19-.96-2.95-2.14l-6.48.74-.25.6 8.2 2.76c8.14 2.78 16.31 5.49 24.4 8.4 5.74 2.07 9.94 6.18 13.35 11.09 8.54 12.3 15.01 25.74 20.02 39.73 6.06 16.91 11.04 34.21 16.48 51.34.18.58.3 1.15.53 2.1M289.82 187l-.9.11c1.22 10.86 3.31 21.53 7.7 32.48-1.57-1.24-2.55-1.96-3.47-2.75-9.02-7.8-14.83-17.78-19.13-28.71-7.96-20.21-9.37-41.28-8.05-62.7l.24-3.74-.89-.14c-10.62 18.47-19.44 37.82-28.34 57.62 8.24-.13 16.06-1.66 23.28 2.25-.82.41-1.62.42-2.42.4-6.1-.1-12.2-.14-18.31-.36-2.77-.1-4.23 1-5.27 3.6-3.52 8.82-7.29 17.53-10.93 26.3-.3.73-.34 1.58-.6 2.86 1.24-.57 2.01-.88 2.75-1.26 7.2-3.66 14.75-6.17 22.82-6.9 7.26-.65 13.68 1.23 18.68 6.7 4.69 5.14 8.4 10.9 10 17.77 2.78 12 2.4 24.08.2 36.07a45 45 0 0 1-4.15 11.97c-7.61 15.03-28.84 17.25-38.8 3.73-11.82-16.06-11.61-33.67-4.58-51.6.83-2.13 2.34-3.99 3.53-5.97-7.75 3.23-14.26 7.62-16.69 16.92l-7.02-7.65-.77.45c0 1.86-.1 3.73 0 5.58 1.18 21.58 2.5 43.15 3.49 64.74.26 5.64 2.71 9.68 6.75 13.17 6.14 5.31 13.27 8.93 20.78 11.73 24.36 9.09 49.7 13.14 75.58 13.98 20.26.66 40.13-2.3 59.74-7.13 12.52-3.08 24.76-6.94 35.96-13.6 7.67-4.57 12.52-10.04 13.13-19.98 1.3-21.08 3.26-42.1 2.82-63.26-.03-1.44-.15-2.88-.23-4.32l-.75-.3-5.32 6.26c-3.36-8.5-8.78-14.28-17.78-17.38.48 1.07.55 1.45.77 1.71 11.3 13.27 9.44 41.58 1.32 54.1-9.2 14.2-28.78 15.36-39.02 1.96-3.42-4.48-5.37-9.57-6.42-15.02-3.37-17.56-.83-34.2 8.96-49.22 5.22-8 12.9-12.52 22.94-11.08 12.88 1.83 23.48 8.08 32.44 17.32.62.65 1.31 1.22 1.97 1.83a4.4 4.4 0 0 0-.25-2.74c-5.5-12.6-10.96-25.2-16.55-37.75-1.74-3.91-2.73-4.24-7.55-3.52-.83 7.36-.8 14.96-4 21.95-.3-.99-.28-1.96-.43-2.9q-1.42-8.69-2.88-17.36c-.32-1.9-1.24-2.76-3.36-2.5-4.09.49-8.2.77-12.32 1.06-2 .14-3.25 1.02-3.81 2.96-3.49 11.86-9.82 21.95-19.04 29.88 3.22-21.03-.9-41.79-5.26-62.53-1.67 7.14-2.88 14.27-4.34 21.35-2.51 12.17-6.16 23.97-12.26 34.87-1.48 2.65-3.32 5.09-5.23 7.98l-8.3-9.55q-.48.3-.97.57l5.05 13.33c-7.37.72-13.88-.36-18.3-6.13-4.46-5.8-8.36-12.07-12.19-18.33-1.73-2.82-2.7-6.1-4.01-9.18m193.1 490.96c.2-2.56.3-4.78.55-6.98.67-5.95 2.38-7.95 8.33-8.69 12.03-1.48 24.07-2.83 36.14-3.96 2.93-.28 3.68-1.24 3.68-4.09-.1-40.85-.07-81.7-.07-122.56v-16.55h-3.89l-68.22-.02c-13.5.01-26.99.03-40.48.16-1.31.01-3.17.43-3.82 1.35-2.16 3.02-5.02 6.2-5.44 9.6-.42 3.37 1.76 7.07 2.83 10.6q.61 1.97 1.28 3.93a384 384 0 0 1 14.56 60.4c.72 4.49-.2 6.41-4.33 8.5a42 42 0 0 1-8.32 3.35 783 783 0 0 1-28.39 6.81c-2.61.57-4.03 1.57-4.1 4.27-.02.61-.22 1.23-.33 1.84-3.37 17.15-6.16 34.44-12.91 50.73-.12.3-.02.7-.02 1.3zm-436.62 0c-.36-3.25-1-6.32-1.01-9.4q-.14-64.67-.13-129.35c0-8.8 5.17-14.13 13.89-14.16q46.5-.18 92.98-.15c2.18 0 4.54.44 6.52 1.33 6.48 2.91 9.3 8 9.27 15.22-.18 40.5-.12 80.99-.21 121.48-.01 4.91-.44 9.82-.68 15.01h99.44c-.17-.88-.2-1.5-.4-2.05-6.08-17.14-9.64-34.9-12.59-52.8-.39-2.35-1.5-2.95-3.62-3.33-11.46-2.02-22.85-4.35-33.56-9.12-8.02-3.57-8.53-4.54-7.48-13.1q.19-1.5.42-2.97c3.55-22.41 9.64-44.16 17.05-65.57.4-1.15.62-2.73.15-3.75-1.3-2.8-3.11-5.37-4.51-8.14-.78-1.54-1.65-2.1-3.45-2.1-58.24.14-116.48.2-174.71.28-1.33 0-2.65.17-4.18.27v162.32c1.9.12 3.5.26 5.1.31.58.02 1.17-.15 1.71-.23M552.6 515.4v142.25c1.26.21 2.22.42 3.2.54 10.78 1.32 21.58 2.6 32.37 3.92 6.95.85 9.88 4.15 9.94 11.14v4.48h3.9V515.39zM376.96 379.64l-1.8.54c.35 7.05-.27 14.31 1.2 21.12q8.86 41.04 18.86 81.8c2.6 10.62 6.56 20.9 9.9 31.34l.85.1c1.7-3.42 3.47-6.81 5.1-10.27 5.5-11.73 7.12-23.86 3.49-36.47-2.32-8.05-4.45-16.15-7-24.12-6.06-18.96-13.26-37.45-23.55-54.58-2.01-3.36-4.69-6.32-7.05-9.46m-116.7.58c-1.29 1.16-2.13 1.72-2.73 2.48-1.4 1.76-2.82 3.52-3.96 5.45-15.76 26.75-25.74 55.69-32.42 85.86-1.82 8.2-.65 16.18 2.26 23.93 1.76 4.67 3.78 9.24 5.73 13.85.34.82.87 1.57 1.81 3.22 4.1-12.1 8.73-23.1 11.55-34.56 6.05-24.5 11.08-49.24 16.72-73.84 1.95-8.53 1.9-17.02 1.05-26.4m24.78-9.59c2.1 9.05 4.18 18.26 6.44 27.42.16.64 1.7 1.4 2.53 1.34a313 313 0 0 1 48.26-.07c2.33.17 3.04-.89 3.46-2.85 1-4.76 2.17-9.49 3.19-14.25.88-4.09 1.65-8.2 2.5-12.44-2.88-.88-5.33-2.02-7.87-2.3-2.9-.3-6-.32-8.77.43-3.55.97-6.88 2.78-10.27 4.32-6 2.7-11.63 1.27-16.69-2.07-5.28-3.5-10.65-3.68-16.37-1.98-1.98.59-3.88 1.47-6.41 2.45m50.65 262.44c0 1.78.32 3.7-.07 5.47-.72 3.27.87 6.23.6 9.58-.79 9.44-.72 18.96-.67 28.44.02 4.14 2.55 6.4 6.64 6.6 3.36.15 6.74.06 10.1-.03 6.15-.16 6.7-.64 8.95-6.41a192 192 0 0 0 10.74-40.03c.45-2.86.07-5.86.07-9.18zm-71.76-6.4c.76 4.98 1.85 9.6 2.1 14.28.48 9.57 3.48 18.52 6.27 27.52 1.14 3.68 2.77 7.22 4.27 10.78 1.12 2.67 3.12 4.03 6.15 3.94 3.36-.1 6.74.07 10.1.03 5.7-.07 7.95-2.23 7.97-7.9.06-14.29.02-28.58.02-42.62-12.18-1.01-24.52-1.3-36.88-6.03m200.6-360.47 1.1.15c.84-11.81 1.9-23.62 2.47-35.44.57-11.86.96-23.73.88-35.6-.1-11.98-.45-24-1.45-35.94-.99-11.63-2.94-23.17-4.47-34.76l.81-.19c2.25 2.79 1.6 7.8 7.16 8.99l-.47-8.8.92-.57c1.42 1.74 3.24 3.3 4.18 5.27a308 308 0 0 1 8.3 18.83c2.31 5.76 4.2 11.68 6.49 18.2 1-30.7-31.4-96.68-52.59-108.64 4.8 7.25 10.1 14.76 14.87 22.6 4.83 7.92 9.3 16.1 11.65 25.03-1.57-.2-3.23-.92-3.92-.38-.97.75-1.2 2.44-1.75 3.72l-1.22.86-4.02-5.83-.73.58c7.87 26.18 9.76 53.25 11.7 80.26 1.95 27.18 2.27 54.43.09 81.66M325.18 624.22c-3.78 0-7.4.14-10.99-.05-2.44-.12-3.33.8-3.44 3.16-.57 11.07-1.38 22.13-1.78 33.2-.2 5.7.29 11.4.47 17.37h16.95c2.2-9.13 1.44-43.65-1.21-53.68M171.53 295.96 165.49 237c-9.29 8.61-12 19-10.85 30.52 1.22 12.05 6.18 22.11 16.89 28.45m26.68-238.3c-24.5 18.87-55.06 82.83-52.44 109.83.25-.39.54-.66.62-.98 4.4-17.94 11.72-34.7 20.62-50.8 1.68-3.04 4.19-5.9 4.92-9.14 1.87-8.3 5.25-15.87 9.6-23.01 5.32-8.71 11.04-17.18 16.68-25.9M471.43 238.1l-6.71 57.95c18.46-9.37 22.94-42.78 6.71-57.95m-87.85-90.26-.74.34-5.88 31.63 16.35-1.52zm-166.9 43.94-1.09-.12c-3.86 11.4-7.55 22.82-6.7 35.4 3.33-3.07 6.19-6.02 9.39-8.53 1.77-1.39 2.17-2.63 1.72-4.74a265 265 0 0 1-2.6-14.33c-.4-2.53-.5-5.12-.73-7.68m314.41 480.58h-27.85v5.85h23.66c5.07.01 5.34-.34 4.2-5.85m46.95-.02H552.4c.12 2.18.2 3.94.3 5.62h25.35zM135.85 428.4c-4.84-.76-5.03-.66-5.16 3.26q-.16 5.6-.17 11.2c-.03 4.55.6 5 5.33 3.9zm265.82-260.23-.66.17c0 2.29-.04 4.57.01 6.86.1 4.46.77 4.96 5.95 4.21z"/><path fill="#fff" d="M289.83 187.01c1.31 3.08 2.28 6.36 4.01 9.18 3.83 6.26 7.73 12.52 12.19 18.33 4.42 5.77 10.93 6.85 18.3 6.13l-5.05-13.33.97-.57c2.6 3 5.2 6 8.3 9.55 1.9-2.9 3.74-5.34 5.22-7.98 6.1-10.9 9.76-22.7 12.26-34.87 1.46-7.08 2.68-14.22 4.35-21.35 4.35 20.74 8.48 41.5 5.26 62.53 9.21-7.94 15.54-18.02 19.03-29.88.57-1.94 1.82-2.83 3.82-2.96 4.1-.29 8.23-.57 12.32-1.06 2.11-.26 3.04.6 3.36 2.5q1.47 8.67 2.87 17.35c.16.94.13 1.92.44 2.9 3.2-6.98 3.16-14.58 4-21.94 4.81-.73 5.8-.4 7.55 3.52 5.59 12.55 11.06 25.15 16.55 37.75.33.77.46 1.62.25 2.74-.66-.6-1.35-1.19-1.97-1.83-8.97-9.24-19.56-15.49-32.44-17.33-10.05-1.43-17.73 3.1-22.94 11.1-9.8 15.02-12.34 31.65-8.97 49.2 1.05 5.46 3 10.55 6.42 15.03 10.24 13.4 29.82 12.23 39.02-1.96 8.13-12.52 9.98-40.83-1.31-54.1-.22-.26-.3-.64-.77-1.72 9 3.11 14.41 8.89 17.78 17.4l5.32-6.27.75.3c.08 1.44.2 2.88.23 4.32.44 21.15-1.52 42.18-2.82 63.25-.6 9.95-5.46 15.42-13.13 19.98-11.2 6.66-23.44 10.52-35.96 13.6-19.61 4.83-39.48 7.8-59.74 7.14-25.89-.85-51.22-4.9-75.58-13.98-7.51-2.8-14.64-6.42-20.78-11.73-4.04-3.49-6.5-7.53-6.75-13.18-.99-21.58-2.31-43.15-3.48-64.73-.1-1.86-.02-3.72-.02-5.58l.78-.45 7.02 7.65c2.43-9.3 8.94-13.7 16.7-16.92-1.2 1.98-2.71 3.84-3.54 5.96-7.03 17.94-7.24 35.55 4.58 51.6 9.96 13.53 31.18 11.31 38.8-3.72 1.9-3.74 3.4-7.86 4.15-11.97 2.2-12 2.58-24.07-.2-36.07-1.6-6.87-5.31-12.64-10-17.77-5-5.48-11.42-7.36-18.68-6.7-8.08.73-15.62 3.24-22.82 6.9-.74.37-1.5.69-2.75 1.26.26-1.28.3-2.13.6-2.86 3.64-8.77 7.41-17.48 10.93-26.3 1.04-2.6 2.5-3.7 5.27-3.6 6.1.22 12.2.26 18.31.37.8.01 1.6 0 2.42-.41-7.22-3.91-15.04-2.38-23.28-2.25 8.9-19.8 17.72-39.15 28.34-57.62l.9.14q-.15 1.88-.25 3.74c-1.32 21.42.09 42.49 8.05 62.7 4.3 10.93 10.1 20.9 19.13 28.71.92.8 1.9 1.5 3.47 2.74-4.39-10.94-6.48-21.61-7.7-32.47zm87.14 192.63c2.36 3.14 5.04 6.1 7.06 9.46 10.29 17.13 17.49 35.62 23.55 54.58 2.54 7.97 4.68 16.07 7 24.11 3.62 12.61 2.01 24.74-3.5 36.48-1.62 3.45-3.39 6.85-5.09 10.27l-.86-.1c-3.34-10.44-7.3-20.72-9.9-31.34a2958 2958 0 0 1-18.86-81.8c-1.47-6.81-.85-14.07-1.19-21.12zm-116.69.58c.85 9.37.9 17.86-1.05 26.39-5.64 24.6-10.67 49.35-16.72 73.84-2.82 11.45-7.44 22.47-11.55 34.56-.94-1.65-1.47-2.4-1.81-3.22-1.95-4.6-3.97-9.18-5.73-13.85-2.91-7.74-4.08-15.72-2.26-23.92 6.68-30.18 16.66-59.12 32.42-85.87 1.14-1.92 2.57-3.69 3.96-5.45.6-.76 1.44-1.32 2.74-2.48m24.77-9.59c2.52-.98 4.43-1.86 6.41-2.45 5.72-1.7 11.1-1.52 16.37 1.97 5.06 3.35 10.69 4.79 16.69 2.08 3.4-1.54 6.72-3.36 10.28-4.32 2.76-.76 5.87-.73 8.76-.42 2.54.27 4.99 1.41 7.87 2.29-.84 4.23-1.62 8.35-2.5 12.44-1.02 4.76-2.19 9.49-3.2 14.25-.4 1.96-1.12 3.02-3.45 2.85a314 314 0 0 0-48.26.07c-.83.06-2.37-.7-2.52-1.34-2.27-9.16-4.36-18.37-6.45-27.42m50.65 262.44 36.36-5.56c0 3.33.38 6.32-.07 9.18a192 192 0 0 1-10.75 40.03c-2.24 5.77-2.79 6.25-8.93 6.41-3.37.1-6.75.18-10.11.02-4.09-.18-6.62-2.45-6.64-6.58-.05-9.49-.12-19.01.66-28.45.28-3.35-1.31-6.3-.6-9.58.4-1.76.08-3.69.08-5.47m-71.76-6.4c12.36 4.74 24.7 5.02 36.88 6.03 0 14.04.04 28.33-.02 42.63-.02 5.67-2.27 7.82-7.96 7.9-3.37.03-6.75-.14-10.11-.03-3.03.09-5.03-1.28-6.15-3.95-1.5-3.56-3.13-7.1-4.27-10.78-2.8-9-5.79-17.95-6.28-27.52-.24-4.68-1.33-9.3-2.09-14.28m200.6-360.47c2.18-27.23 1.86-54.47-.1-81.66-1.93-27-3.82-54.08-11.7-80.26l.73-.58 4.03 5.83 1.22-.86c.54-1.28.78-2.97 1.74-3.72.7-.54 2.36.18 3.93.38-2.35-8.94-6.83-17.1-11.65-25.04-4.77-7.83-10.07-15.34-14.87-22.59 21.2 11.96 53.59 77.94 52.59 108.63-2.3-6.51-4.18-12.43-6.48-18.19a310 310 0 0 0-8.3-18.83c-.95-1.98-2.77-3.53-4.2-5.27l-.9.57.45 8.8c-5.55-1.2-4.9-6.2-7.15-8.99l-.81.2c1.52 11.57 3.48 23.12 4.46 34.75a469 469 0 0 1 1.45 35.94 644 644 0 0 1-.87 35.6c-.57 11.82-1.63 23.63-2.48 35.44zm-293.01 29.76c-10.71-6.34-15.67-16.4-16.88-28.45-1.17-11.51 1.55-21.9 10.84-30.52zm26.67-238.3c-5.63 8.72-11.35 17.19-16.66 25.9-4.36 7.14-7.75 14.71-9.61 23-.73 3.26-3.24 6.1-4.92 9.15-8.9 16.1-16.23 32.86-20.62 50.8-.08.32-.37.6-.62.98-2.62-27 27.94-90.96 52.44-109.83"/><path fill="#fff" d="M471.43 238.1c16.23 15.17 11.75 48.58-6.71 57.95zm-87.84-90.26 9.72 30.44-16.35 1.53 5.88-31.63zm-166.92 43.94c.24 2.56.33 5.15.73 7.68.76 4.8 1.58 9.59 2.6 14.33.45 2.1.05 3.35-1.72 4.74-3.2 2.51-6.06 5.46-9.4 8.52-.84-12.57 2.84-24 6.7-35.4zm185-23.61 5.3 11.24c-5.18.74-5.85.25-5.95-4.22-.05-2.28 0-4.56 0-6.85z"/><path fill="none" stroke="#000" stroke-linecap="round" stroke-linejoin="round" stroke-miterlimit="10" stroke-width="3" d="M316.56 317.83h7.48"/></svg>