<?xml version="1.0" encoding="utf-8"?>
<!-- Generator: Adobe Illustrator 16.0.3, SVG Export Plug-In . SVG Version: 6.00 Build 0)  -->
<!DOCTYPE svg PUBLIC "-//W3C//DTD SVG 1.1//EN" "http://www.w3.org/Graphics/SVG/1.1/DTD/svg11.dtd">
<svg version="1.1" id="レイヤー_1" xmlns="http://www.w3.org/2000/svg" xmlns:xlink="http://www.w3.org/1999/xlink" x="0px"
	 y="0px" width="640.605px" height="692.498px" viewBox="0 0 640.605 692.498" enable-background="new 0 0 640.605 692.498"
	 xml:space="preserve">
<path d="M424.498,473.855c1.383-0.943,2.486-1.69,3.584-2.448c9.828-6.79,26.322-6.445,35.676,0.863
	c3.594,2.81,6.82,5.97,6.379,11.302c2.576,0.134,4.922,0.42,7.246,0.306c1.111-0.056,2.201-0.837,3.27-1.357
	c0.311-0.151,0.57-0.507,0.742-0.828c4.271-7.999,11.182-9.521,19.568-8.668c6.064,0.615,12.234,0.16,18.357,0.153
	c0.609-0.001,1.219-0.21,2.197-0.393c0-7.31,0-14.618,0-22.553c-1.27,0-2.584-0.001-3.896,0
	c-20.373,0.026-40.746,0.053-61.119,0.077c-1.25,0.003-2.5,0.026-3.75-0.012c-5.596-0.168-8.328-2.709-8.383-8.342
	c-0.119-12.121-0.047-24.246-0.043-36.37c0.004-11.124-0.031-22.248,0.098-33.371c0.018-1.49,0.66-3.103,1.408-4.438
	c3.393-6.074,7.055-12.003,10.33-18.14c0.949-1.779,1.967-2.79,3.781-3.675c4.309-2.096,8.396-4.64,13.205-6.796
	c-2.988,5.089-6.012,10.156-8.941,15.278c-0.854,1.496-2.975,2.817-1.303,4.927c1.641,2.07,4.053,2.258,6.15,1.289
	c3.607-1.665,7.25-3.452,10.434-5.793c8.971-6.596,16.137-14.914,21.609-24.6c1.723-3.046,3.785-4.313,7.355-4.291
	c26.6,0.149,53.201,0.118,79.803,0.135c4.496,0.002,8.994-0.113,13.488-0.037c5.789,0.1,8.314,2.61,8.309,8.26
	c-0.031,35.371-0.074,70.743-0.162,106.115c-0.021,8.146-1.949,9.916-10.404,9.916c-15.998-0.002-31.994-0.028-47.992-0.047
	c-1.465-0.001-2.93,0-4.648,0c0,7.648,0,14.841,0,22.444c1.555,0.105,2.875,0.271,4.199,0.275
	c7.998,0.033,15.998,0.124,23.994-0.011c2.752-0.046,4.762,0.786,6.492,2.907c8.289,10.168,5.15,7.781,17.16,8.009
	c10.619,0.201,21.246-0.019,31.869-0.089c6.797-0.045,9.949,2.955,10.002,9.688c0.031,4.374,0.098,8.753-0.045,13.123
	c-0.182,5.575-3.133,8.376-8.758,8.488c-3.1,0.063-6.199,0.013-9.424,0.013c0,54.548,0,108.586,0,163.001
	c3.023,0,5.746-0.089,8.461,0.02c4.219,0.169,7.143,2.796,7.402,6.481c0.227,3.215-2.563,6.646-6.215,7.44
	c-1.326,0.289-2.73,0.295-4.098,0.296c-95.24,0.036-190.482,0.068-285.725,0.08c-110.241,0.016-220.48,0.018-330.721-0.042
	c-2.421-0.002-5.024-0.393-7.218-1.348c-3.089-1.344-4.184-4.589-3.381-7.93c0.708-2.943,2.835-4.664,6.331-4.774
	c3.86-0.122,7.726-0.028,12.003-0.028c0-54.491,0-108.503,0-163.207c-3.747,0-7.319,0.08-10.886-0.019
	c-5.371-0.146-8.032-2.784-8.183-8.122c-0.12-4.248-0.118-8.499-0.099-12.748c0.032-7.225,2.719-10.096,9.89-10.142
	c16.122-0.105,32.245-0.063,48.368-0.079c4.345-0.005,8.691-0.001,13.523-0.001c-0.42-3.423-0.788-6.229-1.106-9.042
	c-0.915-8.071-1.855-16.141-2.697-24.22c-0.515-4.934,1.323-7.058,6.269-7.095c11.748-0.086,23.496-0.09,35.244-0.048
	c4.814,0.018,6.767,2.212,6.311,7.146c-0.874,9.457-1.875,18.901-2.834,28.35c-0.148,1.461-0.354,2.915-0.568,4.656
	c9.563,0,18.722,0,27.55,0c-1.089-10.241-2.152-20.248-3.239-30.479c-2.319,0-4.535,0.07-6.746-0.014
	c-4.123-0.158-6.098-1.795-6.237-5.891c-0.237-6.988-0.197-13.993-0.094-20.987c0.046-3.119,2.134-4.677,5.065-5.035
	c2.096-0.255,4.219-0.282,6.368-0.414c0.633-1.607,0.816-3.607,1.901-4.462c1.519-1.195,3.699-2.108,5.616-2.146
	c9.62-0.188,19.248-0.143,28.869,0.034c2.491,0.045,3.781-0.825,4.962-2.941c2.433-4.356,5.174-8.545,7.836-12.771
	c1.208-1.917,2.72-3.603,5.137-1.849c2.259,1.639,2.029,3.733,0.59,5.926c-2.397,3.651-4.704,7.363-6.407,10.043
	c0.478,3.989,1.321,7.021,1.114,9.979c-1.143,16.33-2.472,32.648-3.904,48.955c-0.347,3.94-1.327,7.824-2.064,12.006
	c10.57,0,21.231,0,32.074,0c0.86-4.416,1.49-8.728,2.552-12.93c7.65-30.251,17.149-59.786,33.506-86.693
	c4.529-7.447,10.453-13.019,18.773-15.812c8.747-2.937,17.53-5.768,26.292-8.661c1.25-0.412,2.465-0.932,3.598-1.717
	c-2.9-0.107-5.667,0.744-8.355,1.063c-5.07,0.603-10.353-0.541-15.542-1.019c-0.691-0.064-1.35-0.486-2.45-0.183
	c1.411,1.165,2.821,2.328,4.802,3.964c-10.735,0.315-19.356-3.152-27.008-9.464c-0.235,0.151-0.47,0.304-0.704,0.454
	c1.854,3.59,3.706,7.182,5.597,10.845c-7.132-1.957-13.194-5.892-18.144-11.676c-0.227,0.189-0.452,0.381-0.678,0.569
	c1.908,3.243,3.816,6.486,5.792,9.844c-6.383-1.475-12.344-3.984-17.817-7.932c3.678,11.214,9.993,20.423,19.81,27.179
	c-16.171-2.044-29.024-9.989-40.102-21.438c2.527,7.392,6.166,14.03,12.053,19.401c-5.221-2.238-9.654-5.506-13.566-9.477
	c-6.866-6.97-11.673-15.217-15.079-24.359c-0.442-1.188-1.653-2.553-2.807-2.937c-12.051-4.011-21.048-11.261-25.64-23.402
	c-0.115-0.304-0.41-0.539-0.858-0.691c2.344,14.969,6.422,29.179,17.352,40.766c-0.938-0.408-1.912-0.748-2.809-1.232
	c-18.665-10.078-29.657-26.255-36.312-45.839c-4.313-12.692-5.629-25.875-5.749-39.161c-0.081-8.986,0.505-17.979,0.783-26.971
	c0.034-1.096,0.005-2.194,0.005-3.661c-7.577,1.344-14.958,2.653-23.222,4.118c0.807-1.732,1.089-2.479,1.483-3.164
	c6.102-10.585,12.501-21.012,18.207-31.806c2.648-5.01,4.226-10.652,5.798-16.147c1.879-6.572,3.369-13.266,4.783-19.959
	c2.421-11.462,4.233-23.066,7.041-34.429c9.161-37.078,27.106-69.133,55.592-94.932c20.563-18.623,44.449-31.2,71.032-38.896
	c33.674-9.748,67.352-10.028,100.865,0.34c57.064,17.653,95.656,55.167,117.305,110.478c7.037,17.981,11.328,36.748,14.482,55.751
	c0.75,4.517,0.48,9.224,0.465,13.844c-0.031,9.118,2.766,17.424,7.105,25.272c3.924,7.096,7.939,14.142,12.074,21.116
	c2.129,3.598,4.596,6.992,7.303,11.069c-7.15,0.606-13.225-2.307-19.918-2.465c0.26,5.17,0.563,10.324,0.771,15.479
	c0.799,19.758-0.689,39.296-7.316,58.056c-5.781,16.367-15.539,29.838-30.971,38.607c-0.316,0.182-0.699,0.245-1.766,0.604
	c7.535-11.068,10.795-23.037,12.77-35.43c-0.234-0.097-0.469-0.193-0.703-0.291c-0.541,0.938-1.125,1.854-1.617,2.816
	c-5.002,9.739-13.082,15.912-23.117,19.675c-2.197,0.824-3.357,1.938-4.211,4.153c-5.18,13.448-13.578,24.364-25.969,31.997
	c-0.813,0.5-1.662,0.938-2.738,1.184c5.588-5.589,9.752-12,12.16-19.736c-10.934,11.479-23.791,19.305-39.221,21.931
	c3.645-3.974,7.85-7.701,10.959-12.188c3.061-4.417,5.012-9.604,7.582-14.715c-7.98,3.134-15.256,5.989-23.133,9.082
	c3.166-4.668,5.797-8.549,8.428-12.431c-0.33-0.319-0.66-0.641-0.992-0.959c-4.957,5.973-11.232,10.003-18.074,13.605
	c2.326-4.639,4.465-8.903,6.605-13.17c-0.223-0.246-0.443-0.492-0.664-0.737c-7.189,5.897-14.906,10.604-24.779,10.966
	c1.508-1.044,3.014-2.088,4.936-3.419c-6.053,0.559-11.131,1.132-16.227,1.412c-1.063,0.059-2.184-0.972-2.945-2.15
	c-2.16,0.248-4.32,0.496-6.482,0.743c-0.082,0.2-0.168,0.398-0.252,0.6c2.73,0.917,5.469,1.82,8.193,2.753
	c8.145,2.787,16.316,5.492,24.412,8.411c5.732,2.066,9.934,6.172,13.344,11.083c8.543,12.296,15.014,25.738,20.021,39.73
	c6.055,16.914,11.039,34.212,16.48,51.345C424.152,472.34,424.261,472.913,424.498,473.855z M289.825,187.014
	c-0.303,0.037-0.606,0.073-0.909,0.11c1.229,10.855,3.319,21.525,7.705,32.472c-1.572-1.24-2.553-1.954-3.468-2.744
	c-9.025-7.807-14.832-17.782-19.136-28.715c-7.956-20.208-9.368-41.281-8.05-62.692c0.077-1.249,0.163-2.497,0.245-3.746
	c-0.297-0.045-0.593-0.091-0.89-0.136c-10.617,18.47-19.444,37.817-28.338,57.62c8.235-0.131,16.054-1.662,23.281,2.246
	c-0.826,0.412-1.624,0.425-2.421,0.411c-6.105-0.107-12.213-0.149-18.314-0.366c-2.771-0.099-4.233,0.996-5.273,3.604
	c-3.513,8.813-7.286,17.525-10.924,26.29c-0.304,0.734-0.34,1.579-0.6,2.86c1.241-0.565,2.01-0.882,2.75-1.258
	c7.196-3.66,14.743-6.169,22.82-6.899c7.254-0.655,13.677,1.225,18.68,6.705c4.684,5.13,8.404,10.893,9.999,17.769
	c2.781,11.997,2.395,24.073,0.196,36.065c-0.754,4.113-2.249,8.229-4.145,11.97c-7.618,15.032-28.842,17.254-38.798,3.73
	c-11.827-16.063-11.619-33.667-4.588-51.608c0.831-2.122,2.341-3.979,3.536-5.958c-7.753,3.224-14.26,7.616-16.69,16.914
	c-2.561-2.791-4.791-5.221-7.021-7.652c-0.259,0.152-0.519,0.305-0.777,0.455c0,1.859-0.088,3.723,0.014,5.576
	c1.17,21.579,2.492,43.15,3.478,64.738c0.258,5.643,2.715,9.689,6.75,13.178c6.141,5.309,13.269,8.924,20.782,11.726
	c24.363,9.087,49.698,13.139,75.586,13.981c20.258,0.66,40.122-2.309,59.733-7.134c12.523-3.08,24.762-6.941,35.963-13.605
	c7.668-4.563,12.523-10.03,13.133-19.976c1.291-21.078,3.26-42.104,2.813-63.256c-0.029-1.441-0.146-2.88-0.223-4.321
	c-0.252-0.097-0.504-0.195-0.756-0.293c-1.711,2.012-3.42,4.023-5.318,6.259c-3.365-8.503-8.781-14.281-17.779-17.389
	c0.475,1.075,0.553,1.458,0.773,1.719c11.289,13.268,9.439,41.573,1.313,54.101c-9.203,14.188-28.781,15.355-39.02,1.955
	c-3.422-4.48-5.369-9.566-6.418-15.024c-3.371-17.555-0.832-34.188,8.965-49.214c5.213-7.995,12.889-12.521,22.938-11.087
	c12.879,1.837,23.475,8.086,32.438,17.327c0.621,0.642,1.311,1.22,1.969,1.826c0.215-1.115,0.084-1.973-0.25-2.738
	c-5.492-12.595-10.961-25.198-16.549-37.749c-1.744-3.913-2.734-4.244-7.549-3.519c-0.834,7.356-0.803,14.956-3.994,21.948
	c-0.316-0.99-0.287-1.964-0.439-2.909c-0.936-5.787-1.91-11.567-2.877-17.35c-0.318-1.898-1.246-2.757-3.359-2.503
	c-4.092,0.491-8.211,0.771-12.322,1.059c-1.994,0.138-3.248,1.027-3.816,2.961c-3.486,11.864-9.818,21.948-19.037,29.88
	c3.223-21.03-0.898-41.788-5.26-62.529c-1.664,7.136-2.883,14.271-4.342,21.355c-2.506,12.168-6.152,23.966-12.26,34.867
	c-1.48,2.645-3.32,5.087-5.229,7.977c-3.09-3.554-5.693-6.549-8.298-9.543c-0.323,0.19-0.646,0.38-0.97,0.568
	c1.641,4.335,3.286,8.669,5.049,13.326c-7.371,0.724-13.873-0.358-18.301-6.125c-4.46-5.808-8.354-12.075-12.183-18.332
	C292.114,193.37,291.141,190.087,289.825,187.014z M482.925,677.964c0.193-2.55,0.295-4.772,0.543-6.98
	c0.67-5.945,2.385-7.947,8.336-8.682c12.025-1.484,24.07-2.831,36.131-3.967c2.939-0.276,3.686-1.236,3.68-4.081
	c-0.086-40.856-0.061-81.712-0.061-122.568c0-5.347,0-10.695,0-16.547c-1.477,0-2.686,0-3.893,0
	c-22.74-0.007-45.48-0.027-68.219-0.018c-13.494,0.009-26.988,0.027-40.48,0.156c-1.313,0.014-3.174,0.435-3.824,1.348
	c-2.156,3.021-5.014,6.213-5.439,9.609c-0.422,3.363,1.766,7.062,2.83,10.604c0.395,1.315,0.844,2.614,1.277,3.919
	c6.561,19.724,11.266,39.896,14.564,60.404c0.723,4.488-0.193,6.41-4.326,8.492c-2.664,1.342-5.445,2.615-8.32,3.357
	c-9.422,2.436-18.887,4.731-28.393,6.813c-2.611,0.573-4.027,1.569-4.104,4.266c-0.018,0.616-0.211,1.229-0.33,1.843
	c-3.367,17.146-6.16,34.439-12.908,50.729c-0.123,0.302-0.016,0.698-0.016,1.302C407.542,677.964,444.982,677.964,482.925,677.964z
	 M46.304,677.975c-0.368-3.254-1.011-6.328-1.018-9.402c-0.098-43.116-0.122-86.231-0.129-129.349
	c-0.001-8.809,5.172-14.134,13.892-14.167c30.993-0.114,61.986-0.171,92.979-0.148c2.185,0.002,4.54,0.445,6.522,1.336
	c6.476,2.909,9.301,7.986,9.27,15.219c-0.177,40.492-0.12,80.985-0.212,121.479c-0.012,4.907-0.436,9.813-0.683,15.009
	c32.637,0,65.905,0,99.442,0c-0.166-0.887-0.2-1.498-0.396-2.051c-6.085-17.146-9.64-34.903-12.591-52.793
	c-0.389-2.357-1.503-2.963-3.625-3.337c-11.455-2.019-22.844-4.353-33.551-9.119c-8.024-3.572-8.537-4.546-7.481-13.106
	c0.123-0.991,0.257-1.981,0.413-2.971c3.556-22.408,9.644-44.156,17.05-65.565c0.399-1.153,0.627-2.73,0.156-3.752
	c-1.295-2.808-3.112-5.369-4.512-8.136c-0.78-1.541-1.652-2.104-3.452-2.102c-58.237,0.134-116.475,0.193-174.712,0.278
	c-1.322,0.003-2.644,0.167-4.179,0.269c0,54.279,0,108.183,0,162.322c1.896,0.123,3.494,0.26,5.096,0.315
	C45.169,678.223,45.762,678.052,46.304,677.975z M552.593,515.393c0,47.549,0,94.846,0,142.243c1.266,0.218,2.229,0.428,3.201,0.546
	c10.789,1.313,21.582,2.6,32.373,3.915c6.953,0.849,9.883,4.15,9.939,11.148c0.012,1.463,0.002,2.925,0.002,4.471
	c1.541,0,2.809,0,3.9,0c0-54.249,0-108.178,0-162.323C585.292,515.393,568.978,515.393,552.593,515.393z M376.966,379.639
	c-0.596,0.182-1.189,0.361-1.787,0.543c0.34,7.052-0.277,14.311,1.189,21.118c5.895,27.353,12.197,54.626,18.863,81.802
	c2.604,10.617,6.561,20.901,9.9,31.337c0.285,0.034,0.57,0.067,0.855,0.101c1.703-3.423,3.469-6.814,5.094-10.273
	c5.51-11.733,7.117-23.858,3.49-36.473c-2.314-8.045-4.449-16.145-6.996-24.112c-6.059-18.958-13.262-37.453-23.551-54.581
	C382.009,385.743,379.335,382.782,376.966,379.639z M260.278,380.219c-1.298,1.158-2.141,1.726-2.74,2.483
	c-1.389,1.762-2.822,3.522-3.956,5.448c-15.762,26.747-25.743,55.688-32.427,85.864c-1.815,8.2-0.648,16.179,2.266,23.925
	c1.757,4.673,3.783,9.245,5.725,13.847c0.348,0.823,0.875,1.57,1.815,3.226c4.107-12.098,8.726-23.107,11.553-34.561
	c6.047-24.497,11.08-49.243,16.716-73.845C261.182,398.084,261.125,389.591,260.278,380.219z M285.049,370.631
	c2.094,9.048,4.18,18.258,6.446,27.423c0.158,0.638,1.696,1.401,2.528,1.334c16.087-1.334,32.174-1.216,48.256-0.068
	c2.334,0.166,3.043-0.888,3.457-2.854c1.008-4.76,2.17-9.486,3.191-14.243c0.881-4.094,1.658-8.209,2.506-12.444
	c-2.887-0.879-5.336-2.021-7.877-2.292c-2.889-0.308-5.994-0.333-8.762,0.42c-3.555,0.968-6.885,2.786-10.275,4.319
	c-5.999,2.711-11.631,1.276-16.689-2.072c-5.276-3.492-10.652-3.671-16.366-1.977C289.476,368.767,287.575,369.653,285.049,370.631z
	 M335.699,633.069c0,1.783,0.318,3.706-0.07,5.472c-0.723,3.271,0.867,6.234,0.592,9.581c-0.779,9.438-0.707,18.958-0.662,28.443
	c0.021,4.131,2.551,6.404,6.641,6.589c3.361,0.151,6.74,0.068,10.107-0.02c6.146-0.162,6.689-0.646,8.938-6.418
	c5.045-12.953,8.604-26.312,10.748-40.027c0.447-2.861,0.064-5.854,0.064-9.175C359.857,629.379,347.837,631.216,335.699,633.069z
	 M263.941,626.669c0.759,4.979,1.853,9.605,2.092,14.277c0.492,9.575,3.483,18.522,6.278,27.524
	c1.143,3.681,2.77,7.217,4.268,10.779c1.124,2.676,3.119,4.037,6.148,3.945c3.367-0.102,6.741,0.067,10.111,0.026
	c5.692-0.07,7.938-2.224,7.962-7.896c0.063-14.293,0.021-28.587,0.021-42.627C288.639,631.688,276.302,631.408,263.941,626.669z
	 M464.535,266.204c0.365,0.049,0.732,0.099,1.098,0.147c0.844-11.813,1.9-23.616,2.473-35.442
	c0.572-11.854,0.963-23.731,0.877-35.596c-0.09-11.986-0.441-24.002-1.449-35.94c-0.982-11.63-2.939-23.177-4.467-34.76
	c0.271-0.064,0.545-0.127,0.814-0.19c2.252,2.784,1.598,7.792,7.154,8.982c-0.166-3.172-0.314-5.985-0.463-8.797
	c0.307-0.188,0.611-0.378,0.918-0.567c1.418,1.742,3.24,3.292,4.182,5.264c2.963,6.188,5.762,12.466,8.305,18.837
	c2.301,5.756,4.182,11.68,6.48,18.191c0.998-30.692-31.393-96.677-52.588-108.63c4.801,7.251,10.1,14.758,14.869,22.589
	c4.826,7.929,9.307,16.098,11.65,25.042c-1.566-0.203-3.234-0.923-3.924-0.387c-0.965,0.752-1.201,2.438-1.748,3.725
	c-0.404,0.287-0.809,0.573-1.213,0.86c-1.342-1.943-2.686-3.888-4.029-5.831c-0.242,0.193-0.486,0.387-0.73,0.581
	c7.875,26.182,9.766,53.252,11.705,80.255C466.4,211.723,466.72,238.971,464.535,266.204z M325.179,624.219
	c-3.781,0-7.394,0.137-10.989-0.048c-2.438-0.125-3.327,0.8-3.445,3.156c-0.56,11.072-1.375,22.135-1.771,33.21
	c-0.203,5.686,0.284,11.395,0.468,17.367c5.938,0,11.466,0,16.949,0C328.589,668.766,327.835,634.246,325.179,624.219z
	 M171.528,295.964c-2.004-19.567-3.986-38.933-6.039-58.973c-9.285,8.609-12.008,19.005-10.844,30.521
	C155.863,279.564,160.819,289.622,171.528,295.964z M198.206,57.664c-24.493,18.866-55.058,82.826-52.432,109.828
	c0.25-0.389,0.538-0.662,0.618-0.986c4.392-17.94,11.715-34.689,20.621-50.798c1.681-3.041,4.185-5.89,4.917-9.142
	c1.866-8.294,5.252-15.868,9.608-23.008C186.85,74.847,192.568,66.382,198.206,57.664z M471.433,238.1
	c-2.256,19.458-4.494,38.782-6.717,57.953C483.181,286.683,487.664,253.273,471.433,238.1z M383.585,147.842
	c-0.248,0.114-0.496,0.227-0.744,0.34c-1.957,10.52-3.914,21.039-5.885,31.631c5.182-0.484,10.334-0.966,16.357-1.528
	C389.972,167.829,386.781,157.836,383.585,147.842z M216.674,191.781c-0.361-0.043-0.723-0.084-1.084-0.126
	c-3.865,11.397-7.555,22.829-6.7,35.397c3.326-3.063,6.188-6.01,9.388-8.521c1.772-1.391,2.176-2.632,1.725-4.739
	c-1.019-4.745-1.842-9.535-2.599-14.329C217.002,196.927,216.907,194.344,216.674,191.781z M531.091,672.362
	c-9.219,0-18.461,0-27.855,0c0,2.118,0,3.793,0,5.847c8.039,0,15.852-0.01,23.664,0.004
	C531.97,678.221,532.238,677.873,531.091,672.362z M578.044,672.341c-8.744,0-17.006,0-25.65,0c0.111,2.179,0.201,3.939,0.287,5.616
	c8.727,0,16.979,0,25.363,0C578.044,675.913,578.044,674.223,578.044,672.341z M135.852,428.398c-4.839-0.76-5.032-0.656-5.162,3.26
	c-0.123,3.735-0.147,7.475-0.172,11.209c-0.03,4.539,0.606,4.986,5.334,3.892C135.852,440.695,135.852,434.647,135.852,428.398z
	 M401.666,168.173c-0.217,0.058-0.436,0.113-0.654,0.168c0,2.285-0.043,4.57,0.01,6.854c0.102,4.468,0.768,4.96,5.943,4.219
	C405.167,175.598,403.416,171.886,401.666,168.173z"/>
<path fill="#FFFFFF" d="M289.825,187.014c1.315,3.072,2.289,6.355,4.016,9.177c3.83,6.257,7.723,12.524,12.183,18.332
	c4.429,5.767,10.931,6.849,18.302,6.125c-1.766-4.657-3.408-8.991-5.05-13.326c0.322-0.189,0.646-0.378,0.97-0.568
	c2.604,2.994,5.208,5.989,8.297,9.543c1.908-2.89,3.75-5.332,5.23-7.977c6.105-10.901,9.754-22.699,12.258-34.867
	c1.459-7.085,2.68-14.22,4.344-21.355c4.359,20.741,8.48,41.499,5.26,62.529c9.217-7.932,15.549-18.016,19.035-29.88
	c0.568-1.934,1.822-2.823,3.818-2.961c4.111-0.286,8.229-0.567,12.32-1.059c2.113-0.253,3.041,0.604,3.359,2.503
	c0.969,5.782,1.941,11.563,2.877,17.35c0.152,0.945,0.123,1.919,0.439,2.909c3.193-6.993,3.16-14.592,3.996-21.948
	c4.813-0.726,5.805-0.395,7.547,3.519c5.59,12.55,11.059,25.153,16.551,37.749c0.334,0.767,0.463,1.624,0.248,2.738
	c-0.658-0.606-1.346-1.186-1.969-1.826c-8.963-9.241-19.557-15.489-32.436-17.327c-10.051-1.434-17.727,3.092-22.938,11.087
	c-9.799,15.026-12.336,31.659-8.967,49.214c1.049,5.458,2.996,10.544,6.42,15.024c10.236,13.4,29.814,12.232,39.02-1.955
	c8.127-12.527,9.977-40.833-1.314-54.101c-0.221-0.261-0.299-0.645-0.773-1.719c9,3.107,14.414,8.886,17.779,17.389
	c1.898-2.234,3.609-4.247,5.32-6.259c0.252,0.098,0.504,0.196,0.754,0.293c0.076,1.441,0.193,2.88,0.225,4.321
	c0.445,21.15-1.521,42.178-2.814,63.256c-0.607,9.945-5.463,15.413-13.133,19.976c-11.199,6.664-23.438,10.525-35.961,13.605
	c-19.611,4.825-39.477,7.794-59.734,7.134c-25.889-0.844-51.224-4.896-75.586-13.981c-7.513-2.802-14.641-6.417-20.782-11.726
	c-4.035-3.488-6.492-7.535-6.75-13.178c-0.985-21.587-2.308-43.159-3.478-64.738c-0.102-1.854-0.014-3.717-0.014-5.576
	c0.259-0.15,0.518-0.303,0.777-0.455c2.229,2.432,4.46,4.861,7.021,7.652c2.431-9.298,8.938-13.689,16.69-16.914
	c-1.195,1.98-2.705,3.836-3.536,5.958c-7.03,17.942-7.238,35.546,4.588,51.608c9.957,13.522,31.18,11.302,38.798-3.73
	c1.896-3.74,3.391-7.855,4.145-11.97c2.198-11.993,2.584-24.069-0.196-36.065c-1.595-6.876-5.314-12.639-9.999-17.769
	c-5.003-5.48-11.426-7.36-18.68-6.705c-8.077,0.729-15.624,3.239-22.82,6.899c-0.74,0.376-1.509,0.691-2.75,1.258
	c0.26-1.281,0.296-2.126,0.6-2.86c3.638-8.765,7.411-17.477,10.924-26.29c1.04-2.61,2.501-3.703,5.273-3.604
	c6.101,0.217,12.208,0.259,18.314,0.366c0.797,0.015,1.595,0.001,2.421-0.411c-7.227-3.908-15.046-2.376-23.281-2.246
	c8.894-19.803,17.721-39.149,28.338-57.62c0.296,0.045,0.593,0.091,0.89,0.136c-0.082,1.249-0.168,2.497-0.245,3.746
	c-1.318,21.412,0.094,42.484,8.05,62.692c4.304,10.933,10.11,20.909,19.136,28.715c0.915,0.79,1.896,1.504,3.468,2.744
	c-4.386-10.946-6.477-21.616-7.705-32.472C289.219,187.088,289.522,187.05,289.825,187.014z"/>
<path fill="#FFFFFF" d="M376.966,379.639c2.369,3.144,5.043,6.104,7.061,9.46c10.289,17.128,17.492,35.623,23.551,54.581
	c2.547,7.969,4.682,16.067,6.996,24.112c3.627,12.613,2.02,24.738-3.49,36.473c-1.625,3.459-3.391,6.852-5.094,10.273
	c-0.285-0.032-0.57-0.065-0.855-0.101c-3.342-10.436-7.299-20.72-9.9-31.337c-6.666-27.176-12.969-54.449-18.863-81.802
	c-1.469-6.809-0.85-14.066-1.189-21.118C375.777,380.001,376.371,379.82,376.966,379.639z"/>
<path fill="#FFFFFF" d="M260.278,380.219c0.848,9.371,0.904,17.864-1.048,26.389c-5.637,24.603-10.669,49.348-16.716,73.845
	c-2.827,11.452-7.446,22.463-11.553,34.561c-0.939-1.654-1.467-2.401-1.815-3.226c-1.942-4.602-3.968-9.174-5.725-13.847
	c-2.914-7.746-4.081-15.725-2.266-23.925c6.684-30.176,16.665-59.117,32.427-85.864c1.134-1.926,2.567-3.688,3.956-5.448
	C258.137,381.944,258.98,381.378,260.278,380.219z"/>
<path fill="#FFFFFF" d="M285.049,370.631c2.525-0.978,4.427-1.863,6.416-2.454c5.714-1.694,11.09-1.517,16.366,1.977
	c5.058,3.35,10.689,4.783,16.688,2.072c3.393-1.533,6.723-3.353,10.277-4.319c2.768-0.753,5.873-0.728,8.76-0.42
	c2.543,0.271,4.99,1.413,7.879,2.292c-0.848,4.235-1.625,8.352-2.506,12.444c-1.023,4.757-2.186,9.483-3.191,14.243
	c-0.416,1.966-1.123,3.02-3.457,2.854c-16.084-1.146-32.169-1.266-48.257,0.068c-0.832,0.067-2.371-0.696-2.528-1.335
	C289.229,388.888,287.143,379.678,285.049,370.631z"/>
<path fill="#FFFFFF" d="M335.699,633.069c12.139-1.854,24.158-3.69,36.357-5.555c0,3.321,0.383,6.313-0.064,9.175
	c-2.146,13.717-5.705,27.074-10.748,40.027c-2.248,5.771-2.793,6.256-8.939,6.418c-3.367,0.088-6.746,0.171-10.107,0.02
	c-4.09-0.185-6.619-2.458-6.639-6.589c-0.045-9.485-0.119-19.006,0.66-28.443c0.277-3.347-1.313-6.31-0.59-9.581
	C336.017,636.775,335.699,634.853,335.699,633.069z"/>
<path fill="#FFFFFF" d="M263.941,626.669c12.36,4.739,24.697,5.021,36.88,6.03c0,14.04,0.041,28.334-0.021,42.627
	c-0.024,5.675-2.27,7.826-7.962,7.896c-3.37,0.041-6.744-0.128-10.111-0.026c-3.029,0.092-5.024-1.271-6.148-3.945
	c-1.498-3.563-3.125-7.1-4.268-10.779c-2.795-9.002-5.786-17.949-6.278-27.524C265.794,636.274,264.7,631.648,263.941,626.669z"/>
<path fill="#FFFFFF" d="M464.535,266.204c2.186-27.232,1.865-54.48-0.086-81.668c-1.939-27.003-3.83-54.073-11.705-80.255
	c0.244-0.193,0.488-0.387,0.73-0.581c1.344,1.943,2.688,3.888,4.029,5.831c0.404-0.287,0.809-0.573,1.213-0.86
	c0.547-1.285,0.783-2.973,1.748-3.725c0.689-0.536,2.355,0.184,3.924,0.387c-2.344-8.944-6.824-17.113-11.65-25.042
	c-4.77-7.831-10.068-15.338-14.869-22.589c21.195,11.953,53.586,77.938,52.588,108.63c-2.301-6.512-4.182-12.436-6.48-18.191
	c-2.543-6.371-5.342-12.649-8.305-18.837c-0.941-1.972-2.764-3.521-4.182-5.264c-0.307,0.189-0.611,0.379-0.918,0.567
	c0.146,2.813,0.297,5.625,0.463,8.797c-5.559-1.191-4.902-6.199-7.154-8.982c-0.27,0.063-0.543,0.126-0.814,0.19
	c1.527,11.583,3.484,23.13,4.467,34.76c1.008,11.938,1.359,23.954,1.449,35.94c0.086,11.864-0.305,23.742-0.877,35.596
	c-0.57,11.826-1.629,23.629-2.473,35.442C465.267,266.302,464.9,266.253,464.535,266.204z"/>
<path fill="#FFFFFF" d="M171.528,295.964c-10.708-6.342-15.665-16.399-16.882-28.451c-1.165-11.518,1.559-21.913,10.844-30.521
	C167.542,257.032,169.524,276.396,171.528,295.964z"/>
<path fill="#FFFFFF" d="M198.206,57.664c-5.637,8.718-11.355,17.184-16.669,25.896c-4.355,7.14-7.742,14.714-9.608,23.008
	c-0.732,3.251-3.236,6.101-4.917,9.142c-8.906,16.107-16.229,32.856-20.621,50.798c-0.08,0.324-0.368,0.598-0.618,0.986
	C143.148,140.49,173.713,76.53,198.206,57.664z"/>
<path fill="#FFFFFF" d="M471.433,238.1c16.229,15.173,11.748,48.583-6.717,57.953C466.939,276.883,469.177,257.559,471.433,238.1z"
	/>
<path fill="#FFFFFF" d="M383.585,147.842c3.193,9.994,6.387,19.987,9.729,30.442c-6.021,0.563-11.176,1.044-16.355,1.528
	c1.971-10.592,3.926-21.111,5.883-31.631C383.089,148.068,383.337,147.956,383.585,147.842z"/>
<path fill="#FFFFFF" d="M216.674,191.781c0.233,2.563,0.329,5.146,0.729,7.682c0.757,4.794,1.58,9.584,2.599,14.329
	c0.452,2.107,0.048,3.35-1.725,4.739c-3.2,2.512-6.062,5.458-9.388,8.521c-0.854-12.568,2.835-24,6.7-35.397
	C215.951,191.697,216.313,191.738,216.674,191.781z"/>
<path fill="#FFFFFF" d="M578.044,672.341c0,1.883,0,3.572,0,5.616c-8.385,0-16.637,0-25.363,0c-0.086-1.677-0.176-3.438-0.285-5.616
	C561.039,672.341,569.3,672.341,578.044,672.341z"/>
<path fill="#FFFFFF" d="M135.852,428.398c0,6.249,0,12.297,0,18.359c-4.728,1.096-5.364,0.647-5.334-3.892
	c0.025-3.734,0.049-7.474,0.172-11.209C130.82,427.742,131.013,427.639,135.852,428.398z"/>
<path fill="#FFFFFF" d="M401.666,168.173c1.75,3.714,3.502,7.426,5.299,11.24c-5.176,0.741-5.842,0.249-5.943-4.219
	c-0.053-2.283-0.01-4.568-0.01-6.854C401.23,168.286,401.449,168.229,401.666,168.173z"/>
<line fill="none" stroke="#000000" stroke-width="3" stroke-linecap="round" stroke-linejoin="round" stroke-miterlimit="10" x1="316.559" y1="317.834" x2="324.044" y2="317.834"/>
</svg>
