<?xml version="1.0" encoding="utf-8"?>
<!-- Generator: Adobe Illustrator 16.0.3, SVG Export Plug-In . SVG Version: 6.00 Build 0)  -->
<!DOCTYPE svg PUBLIC "-//W3C//DTD SVG 1.1//EN" "http://www.w3.org/Graphics/SVG/1.1/DTD/svg11.dtd">
<svg version="1.1" id="レイヤー_1" xmlns="http://www.w3.org/2000/svg" xmlns:xlink="http://www.w3.org/1999/xlink" x="0px"
	 y="0px" width="695.078px" height="623.002px" viewBox="0 0 695.078 623.002" enable-background="new 0 0 695.078 623.002"
	 xml:space="preserve">
<path fill-rule="evenodd" clip-rule="evenodd" d="M271.025,278.457c2.042-2.149,4.24-3.635,5.053-7.077
	c-9.416,4.342-18.508,7.483-29.166,6.165c4.125-2.806,7.295-5.825,9.817-10.788c-6.891,1.96-12.869,4.583-19.429,4.159
	c-0.661-1.544,1.989-1.495,1.365-2.947c-6.672-0.367-13.344-0.734-20.244-1.112c-1.721,4.743-1.756,8.41,2.476,12.689
	c19.087,19.302,29.956,43.306,37.55,68.955c2.366,7.99,4.178,16.145,6.327,24.549c9.789-0.152,19.612,0.295,29.323-0.437
	c3.057-9.056,5.924-11.462,15.193-10.434c4.611,0.512,8.989,0.058,13.473-0.198c1.646-0.094,3.252-0.017,4.674,0.962
	c1.153,0.793,2.296,0.656,3.547,0.157c4.571-1.823,9.324-1.71,13.957-0.587c2.172,0.526,3.871-0.602,5.85-0.573
	c4.28,0.063,8.541,0.361,12.855,0.03c5.979-0.46,9.062,2.271,10.51,8.258c0.176,0.727,0.406,1.439,0.688,2.431
	c1.656-0.084,3.32-0.169,5.285-0.27c-0.118-4.938,0.1-9.665,2.023-14.101c4.955-11.426,17.142-17.031,30.671-14.115
	c5.058,1.091,9.831,2.986,13.98,6.035c7.387,5.428,12.713,12.066,11.037,22.525c8.016,0.437,15.773,0.405,23.463-0.175
	c2.136-7.065,2.973-7.712,10.333-7.782c10.997-0.104,21.995-0.15,32.992-0.25c1.848-0.017,3.694-0.177,5.814-0.285
	c-0.128-3.25-1.364-5.986-2.099-8.814c-1.66-6.403-3.549-12.749-5.116-19.174c-0.572-2.347-1.542-3.188-4.017-3.179
	c-25.744,0.102-51.489,0.119-77.234,0.085c-17.497-0.021-34.993-0.13-52.489-0.266c-7.095-0.055-9.695-2.703-9.696-9.74
	c-0.002-58.617,0.016-117.234,0.032-175.851c0.001-1.124,0.024-2.252,0.121-3.371c0.486-5.591,2.712-7.884,8.311-7.958
	c11.996-0.158,23.996-0.166,35.993-0.174c75.235-0.058,150.471-0.1,225.706-0.142c1.609-0.001,3.243-0.137,4.786,0.51
	c0,65.424,0,130.761,0,196.651c-21.675,0-43.18,0-65.079,0c1.703,8.777,4.151,16.725,6.267,24.752
	c0.254,0.964,0.687,1.9,0.799,2.876c0.304,2.652,1.354,3.941,4.362,4.197c4.619,0.393,6.158,4.087,6.824,8.388
	c20.738,0,41.354,0.019,61.971-0.009c9.248-0.012,18.496-0.14,27.744-0.165c6.031-0.017,11.804,1.231,14.54,7.194
	c2.844,6.196,2.106,12.982,0.693,19.431c-0.662,3.021-3.798,4.112-6.882,4.221c-2.091,0.073-4.187,0.014-6.558,0.014
	c0,69.596,0,138.772,0,208.038c2.823,0.623,5.688,0.155,8.537,0.161c4.616,0.009,7.036,1.792,7.116,5.302
	c0.082,3.576-2.543,5.702-7.163,5.705c-45.993,0.02-91.986,0.035-137.98,0.038c-147.104,0.011-294.208,0.014-441.312,0.021
	c-21.247,0.002-42.494,0.031-63.741,0.012c-4.894-0.004-7.049-1.938-6.788-5.856c0.185-2.764,1.641-4.381,4.39-4.664
	c1.736-0.179,3.493-0.192,5.241-0.195c18.123-0.025,36.245-0.022,54.367-0.069c1.319-0.004,2.716,0.181,3.915-0.475
	c0.467-0.918-0.175-1.522-0.418-2.187c-2.415-6.587,0.439-12.804,7.175-14.853c1.882-0.571,2.58-1.382,2.925-3.145
	c1.208-6.171,5.471-9.201,11.221-10.646c6.592-1.658,13.355-1.939,20.074-2.108c10.716-0.27,21.445-0.071,32.177-0.414
	c0.853-2.061,0.515-3.599,0.518-5.063c0.034-17.122,0.054-34.245,0.016-51.367c-0.007-3.368,0.451-6.28,4.379-7.195
	c1.443-0.337,1.508-1.457,1.376-2.659c-0.225-2.059-1.777-1.701-3.106-1.702c-14.748-0.009-29.497,0.034-44.244-0.026
	c-7.73-0.032-15.217-1.175-21.673-5.907c-1.4-1.027-3.214-2.047-3.823-3.495c-1.993-4.746-5.875-6.748-10.216-8.807
	c-7.293-3.455-10.955-9.942-12.632-17.61c-1.792-8.194-2.042-16.592-3.193-25.056c-2.149-0.948-4.521-1.732-6.624-2.973
	c-6.151-3.63-9.347-9.392-10.184-16.237c-1.758-14.374-3.178-28.79-4.681-43.194c-2.138-20.489-4.251-40.982-6.315-61.479
	c-0.512-5.09-1.123-10.204-1.114-15.307c0.023-13.375,8.931-22.271,22.278-22.571c4.372-0.098,8.749,0.009,13.12-0.103
	c8.439-0.216,14.411,3.843,19.007,10.566c5.63,8.235,7.153,17.712,8.405,27.261c2.223,16.943,4.434,33.889,6.468,50.855
	c1.753,14.619,3.838,29.207,4.835,43.908c0.27,3.976,0.28,7.952-0.454,11.941c-2.36,12.825-10.34,19.832-23.451,20.318
	c-1.844,0.067-3.693,0.009-6.292,0.009c1.731,8.907-0.135,18.026,5.855,26.112c8.366-15.226,22.888-13.373,36.811-14.282
	c-2.691-4.697-5.031-9.286-6.372-14.328c-3.603-13.552-2.413-26.982,0.789-40.384c5.634-23.581,9.108-47.541,12.709-71.485
	c2.509-16.686,5.808-33.201,12.792-48.73c2.408-5.354,5.171-10.537,8.52-15.338c1.705-2.444,4.67-3.985,5.259-7.274
	c0.105-0.591,0.276-1.17,0.524-2.199c-9.277-0.546-18.174-1.932-27.075-5.227c0.86,5.396,3.54,9.313,7.379,13.199
	c-11.363-1.436-20.876-5.411-28.898-13.684c-5.659,6.873-12.465,11.845-21.919,13.753c4.008-4.17,4.826-8.8,4.202-14.141
	c-20.5-1.467-36.84-10.646-49.753-27.676c-1.777,6.225-1.597,11.744-0.531,17.717c-4.602-3.473-7.297-8.106-9.259-12.92
	c-2.782-6.828-6.224-12.807-11.402-18.336c-8.49-9.067-11.516-20.8-12.082-33.09c-0.154-3.36-0.023-6.733-0.023-10.438
	c-4.305,2.588-8.523,5.353-13.422,6.676c-5.049,1.364-10.059,1.589-15.663-0.481c5.13-2.906,9.74-5.772,13.32-9.984
	c8.249-9.704,11.438-21.093,12.869-33.602c4.046-35.35,18.827-65.718,44.346-90.651c26.16-25.559,57.95-39.125,93.897-43.855
	c13.683-1.8,27.513-2.404,41.113-1.255c40.833,3.45,78.011,16.143,107.801,45.962c8.638,8.646,16.682,17.947,26.604,25.254
	c6.269,4.617,12.773,8.702,21.792,9.516c-8.265,6.453-16.709,6.594-26.04,4.475c2.239,6.513,4.737,12.424,6.371,18.618
	c5.637,21.363,6.6,42.893,1.796,64.494c-2.069,9.306-6.615,17.431-14.262,23.586c4.012-7.072,5.034-14.657,4.061-22.697
	c-5.369,12.313-16.101,22.149-16.881,36.429c-0.928,16.979,4.015,31.421,19.523,41.043c-9.824,3.918-18.598,1.124-27.051-3.813
	C302.087,265.356,287.814,278.517,271.025,278.457z M276.09,611.864c41.718,0,82.979,0,124.24,0c0-65.43,0-130.458,0-195.552
	c-25.894,0-51.499,0-77.656,0c2.716,3.245,6.29,4.442,8.719,7.119c6.22,6.852,8.681,14.966,8.741,24.022
	c0.179,27.618-0.662,55.189-4.448,82.582c-1.243,8.992-2.166,18.15-6.035,26.541c-4.141,8.979-12.558,10.967-20.721,5.268
	c-2.586-1.807-4.182-4.544-6.721-6.697c-0.829,0.936-1.553,1.755-2.28,2.571c-5.725,6.425-13.018,6.449-18.68-0.043
	c-1.467-1.683-2.744-3.563-3.897-5.48c-4.862-8.087-8.267-16.79-10.433-25.953c-1.282-5.423-2.254-10.92-3.429-16.692
	c-6.554,1.131-13.033,0.847-19.503,0.856c-10.994,0.017-21.988-0.02-32.981-0.004c-1.166,0.002-2.61-0.437-3.042,1.342
	c-0.291,1.2-0.256,2.354,1.087,2.806c4.192,1.407,4.562,4.732,4.545,8.436c-0.08,16.989-0.1,33.979-0.097,50.969
	c0,1.307-0.49,2.746,1.183,4.635c6.648,0,13.892-0.137,21.128,0.037c7.974,0.191,15.994,0.197,23.786,2.288
	c6.139,1.646,10.653,4.89,10.899,11.937c0.042,1.207,0.783,1.656,1.638,2.237C278.421,599.358,279.725,604.58,276.09,611.864z
	 M626.716,145.686c-85.914,0-171.426,0-257.126,0c0,56.015,0,111.665,0,167.442c85.797,0,171.31,0,257.126,0
	C626.716,257.233,626.716,201.57,626.716,145.686z M207.449,144.818c23.813-5.398,36.319,3.697,38.308,18.866
	c-3.309-1.627-6.434-3.681-10.264-3.586c2.404,14.353,2.262,28.184-3.493,41.469c-3.014,6.958-7.486,12.913-15.886,12.812
	c-8.23-0.1-12.388-6.199-15.459-12.907c-4.002-8.743-4.801-18.026-3.916-27.492c0.302-3.229,0.847-6.436,1.334-10.046
	c-3.786,2.272-7.293,3.863-10.879,5.284c-1.436,0.569-2.731,1.125-2.731,3.067c-0.002,16.609,1.917,32.654,12.675,46.347
	c2.752,3.504,6.229,6.184,10.1,9.373c-8.478,1.155-15.642-0.968-22.862-4.355c0,0.929-0.083,1.531,0.012,2.105
	c1.446,8.61,4.943,16.442,9.15,24.003c0.666,1.197,1.753,1.579,2.992,1.994c22.395,7.499,45.289,8.447,68.414,4.82
	c10.478-1.644,20.409-5.134,27.905-13.235c5.233-5.653,8.406-12.107,6.205-20.129c-1.271-4.633-2.798-9.204-3.23-14.673
	c-1.317,1.976-2.211,3.433-3.221,4.804c-1.526,2.072-3.331,3.91-6.174,3.485c-2.865-0.427-3.967-2.769-4.84-5.185
	c-0.253-0.701-0.483-1.425-0.6-2.158c-2.525-15.781-1.375-31.132,5.806-45.644c4.083-8.252,10.654-8.888,16.8-1.889
	c0.12,0.136,0.426,0.108,1.063,0.249c0.726-9.628-1.045-18.763-4.082-28.957c-4.436,13.28-10.626,24.259-19.714,33.389
	c-9.048,9.09-19.471,16.041-32.249,19.81c1.464-5.026,2.063-9.698,2.301-14.427c0.771-15.364-4.752-29.135-10.781-42.785
	c-0.615-1.392-1.642-2.184-3.052-2.486c-3.898-0.836-7.809-1.616-11.711-2.432c-1.657-0.347-2.763,0.114-3.669,1.693
	C217.914,132.603,213.443,138.721,207.449,144.818z M284.872,462.13c-0.705,5.574-0.969,10.556-0.53,15.531
	c1.626,18.411,6.285,36.073,13.351,53.12c3.366,8.122,7.481,15.838,13.644,22.206c5.463,5.646,9.495,4.597,11.884-2.806
	c2.156-6.68,3.375-13.588,4.162-20.507c3.08-27.07,4.761-54.236,4.53-81.495c-0.136-16.065-8.576-26.566-24.261-30.258
	c-9.285-2.186-18.787-2.468-28.265-2.958c-2.742-0.143-4.754,0.667-6.546,2.71c-8.107,9.242-12.752,20.195-15.726,31.925
	c-1.364,5.382-2.434,10.862-2.875,16.618C264.829,467.484,274.742,466.433,284.872,462.13z M418.503,610.611
	c-4.302-3.208-4.621-7.189-4.617-11.427c0.022-29.985-0.054-59.971-0.071-89.956c-0.018-29.86-0.009-59.721,0.009-89.581
	c0.003-5.542,2.305-8.242,7.393-8.253c28.985-0.06,57.972-0.053,86.958-0.008c4.267,0.007,6.727,2.488,6.873,6.734
	c0.138,3.994,0.124,7.995,0.124,11.992c0,57.847-0.014,115.694,0.004,173.542c0,1.572-0.441,3.237,0.53,4.742
	c1.247,0.206,2.459,0.449,3.774-0.654c0-1.333,0-2.818,0-4.303c-0.012-63.845-0.021-127.689-0.039-191.534
	c-0.002-7.709-2.673-10.477-10.692-10.638c-7.117-0.143-14.24,0.037-21.36,0.043c-22.738,0.02-45.477-0.072-68.214,0.09
	c-7.785,0.056-9.804,2.346-9.809,9.942c-0.043,63.97-0.071,127.938-0.09,191.907C409.274,610.018,410.736,611.28,418.503,610.611z
	 M273.488,406.053c5.863,0,11.732,0.156,17.585-0.08c2.229-0.09,5.213,0.088,6.163-2.583c1.026-2.891-0.769-5.304-2.717-7.324
	c-2.27-2.355-5.046-4.071-7.918-5.595c-3.524-1.87-7.06-3.729-10.661-5.441c-12.156-5.782-24.091-12.107-37.06-15.965
	c-2.29-0.682-4.209-1.324-5.116-3.68c-0.466-1.208-1.373-1.802-2.639-1.565c-10.527,1.957-20.515,5.269-29.224,11.755
	c-1.063,0.791-1.86,1.665-1.336,3.144c3.022,8.543,6.869,16.434,16.161,19.837c3.038,1.113,6.112,2.183,9.247,2.966
	C241.571,405.415,257.5,406.232,273.488,406.053z M327.956,75.717c-23.333-39.162-89.967-73.222-123.413-63.639
	c20.491,4.425,39.756,10.791,52.586,29.073c-0.931-3.783-1.86-7.566-2.878-11.704c13.041,7.493,23.303,17.234,30.411,30.239
	c-0.567-7.148-3.604-13.288-7.071-19.278c21.259,16.497,30.672,38.705,31.628,65.04c2.406-15.349,0.378-30.077-5.814-44.301
	C315.6,74.313,325.758,88.627,330.5,107.37c0.61-8.637-1.837-15.538-3.744-22.61c1.855,3.085,3.71,6.17,5.565,9.255
	c-0.583-7.625-4.506-13.876-8.157-21.229C325.683,73.96,326.424,74.533,327.956,75.717z M134.854,227.193
	c-10.203-11.479-13.592-24.84-15.076-39.028c-3.718,1.518-6.909,2.82-10.26,4.188c0.2-3.401,1.736-6.264,2.895-9.251
	c1.986-5.123,5.447-9.531,7.049-14.845c1.489-4.939,1.147-5.587-4.062-6.596c-10.113-1.958-20.271,3.69-24.826,13.802
	c-7.255,16.108-1.072,36.216,14.278,45.959C113.755,227.073,123.327,229.786,134.854,227.193z M419.226,479.497
	c30.296,0,60.298,0,90.485,0c0-5.889,0-11.527,0-17.493c-30.332-0.053-60.333-0.358-90.485,0.145
	C419.226,468.154,419.226,473.607,419.226,479.497z M683.05,382.284c-1.699-1.58-3.602-2.223-5.707-2.516
	c-5.104-0.709-10.232-0.39-15.348-0.39c-112.966-0.006-225.932,0.021-338.897,0.039c-14.574,0.003-29.146,0.001-44.455,0.001
	c4.963,2.682,9.6,3.433,14.505,3.433c128.712-0.021,257.425-0.002,386.138-0.015C680.451,382.836,681.719,383.223,683.05,382.284z
	 M129.366,611.935c20.986,0,41.188,0,61.735,0c-2.351-4.222-1.844-8.21-0.494-12.38c-20.152,0-40.046,0-60.191,0
	C131.746,603.727,132.811,607.723,129.366,611.935z M419.779,489.162c0.746,0.037,1.359,0.097,1.972,0.096
	c25.113-0.051,50.227-0.087,75.34-0.173c10.1-0.035,10.737,0.512,10.733,10.808c-0.009,23.239-0.064,46.479-0.103,69.718
	c-0.009,5.372,0.088,10.747-0.072,16.115c-0.128,4.27-2.019,6.04-6.304,6.207c-2.714,0.105-5.435,0.02-8.152,0.02
	c2.984,0.878,5.966,0.874,8.948,0.879c6.479,0.01,7.651-1.17,7.664-7.588c0.065-32.235,0.146-64.47,0.205-96.705
	c0.002-1.34,0.266-2.729-0.451-4.076c-30.018,0-60.027,0-89.983,0C419.182,486.128,419.109,487.469,419.779,489.162z
	 M117.04,479.462c3.789-1.487,7.641-1.327,11.489-1.327c42.576-0.004,85.151-0.032,127.727-0.043
	c5.438-0.002,10.956-0.621,16.102,2.085c-2.917-4.835-7.507-5.685-12.489-5.682c-33.086,0.021-66.172,0.027-99.258,0.058
	c-10.862,0.01-21.724,0.053-32.586,0.124C123.724,474.706,119.575,475.211,117.04,479.462z M108.416,301.933
	c-1.904-4.292-4.821-6.343-8.497-7.545c-3.158-1.032-6.403-0.896-9.64-0.745c-9.831,0.458-16.426,6.103-18.24,15.667
	c-0.61,3.215-0.328,6.478,0,9.708c0.909,8.937,1.892,17.864,2.798,26.8c2.305,22.716,4.546,45.438,6.902,68.15
	c0.488,4.706,1.137,9.42,2.119,14.045c1.044,4.918,3.845,7.811,7.554,8.404c-5.084-3.709-6.237-9.038-6.777-14.614
	c-1.41-14.53-2.713-29.072-4.188-43.597c-2.182-21.477-4.535-42.936-6.688-64.415c-0.75-7.484,2.732-13.567,8.644-15.897
	c5.673-2.236,13.737,0.528,17.915,6.164c1.985,2.678,3.546,5.611,5.07,9.41c0.616-5.369-1.267-9.546-2.151-14.074
	C105.222,299.518,106.325,300.8,108.416,301.933z M251.728,599.771c-11.982,0-23.82,0-36.187,0
	c2.004,4.307,1.678,8.225-0.441,12.272c12.621,0,24.77,0,37.384,0C250.223,607.909,250.54,603.891,251.728,599.771z
	 M235.926,357.299c0.676-4.27-0.902-5.49-4.721-5.209c-17.695,1.305-32.973,8.21-46.34,19.619c-3.879,3.312-3.79,3.524-0.416,8.061
	C198.688,365.724,215.58,357.648,235.926,357.299z M507.57,434.84c2.321-0.93,1.813-2.364,1.845-3.457
	c0.101-3.367,0.104-6.739,0.048-10.107c-0.073-4.4-0.89-5.27-5.328-5.26c-24.963,0.056-49.926,0.1-74.888,0.29
	c-8.864,0.068-8.935,0.255-8.801,9.356c0.044,2.978-0.654,6.084,1.205,8.976c2.006-5.285,0.292-10.952,1.405-16.467
	c0.843-0.1,1.56-0.255,2.277-0.257c26.335-0.042,52.67-0.039,79.005-0.145c2.752-0.012,3.361,1.116,3.274,3.586
	C507.458,425.735,507.57,430.122,507.57,434.84z M253.188,417.741c-1.491,2.598-3.42,4.521-3.788,7.341
	c6.321-6.781,15.301-7.818,23.96-11.143c-17.979-2.854-43.187,3.551-49.186,12.311C233.156,421.028,242.395,417.416,253.188,417.741
	z M433.761,546.199c0-0.104,0.001-0.21,0.001-0.314c3.85,0,7.7,0.04,11.549-0.019c1.551-0.024,3.063-0.312,3.067-2.404
	c0.004-2.092-1.539-2.354-3.064-2.445c-7.568-0.457-15.143-0.443-22.717-0.149c-1.826,0.07-3.167,0.738-3.081,2.867
	c0.093,2.26,1.747,2.441,3.434,2.455C426.553,546.22,430.158,546.199,433.761,546.199z M433.522,572.679c0,0.016,0,0.032,0,0.049
	c3.732,0,7.464,0.007,11.195-0.003c1.655-0.005,3.503,0.001,3.759-2.137c0.29-2.415-1.798-2.973-3.443-3.011
	c-7.584-0.175-15.172-0.147-22.758-0.112c-1.656,0.008-2.888,0.801-2.848,2.724c0.039,1.892,1.094,2.541,2.9,2.51
	C426.058,572.632,429.792,572.679,433.522,572.679z M433.74,519.405c0-0.025,0-0.05,0-0.074c3.615,0,7.23,0.013,10.846-0.006
	c1.802-0.01,3.83-0.081,3.813-2.495c-0.016-2.345-2.18-2.574-3.841-2.604c-7.353-0.126-14.708-0.074-22.063-0.087
	c-1.96-0.003-3.04,0.879-2.997,2.937c0.043,2.049,1.325,2.368,3.023,2.345C426.26,519.368,430,519.405,433.74,519.405z
	 M433.798,586.15c3.609,0,7.218-0.012,10.827,0.005c1.871,0.009,3.729-0.208,3.715-2.588c-0.013-2.068-1.766-2.599-3.442-2.612
	c-7.467-0.059-14.934-0.053-22.399,0.022c-1.532,0.016-3.123,0.502-3.113,2.471c0.011,2.002,1.263,2.756,3.213,2.723
	C426.331,586.107,430.065,586.152,433.798,586.15z M433.994,527.605c0-0.014,0-0.028,0-0.042c-3.74,0-7.481-0.007-11.222,0.003
	c-1.704,0.004-3.37,0.066-3.218,2.5c0.125,2.002,1.154,2.816,3.153,2.797c7.356-0.075,14.713-0.071,22.07-0.091
	c1.921-0.005,3.663-0.434,3.614-2.766c-0.047-2.217-1.93-2.344-3.551-2.378C441.227,527.554,437.61,527.605,433.994,527.605z
	 M433.958,506.397c0-0.013,0-0.024,0-0.036c3.744,0,7.492,0.095,11.23-0.05c1.382-0.054,3.291-0.059,3.233-2.235
	c-0.053-2.014-1.446-2.74-3.308-2.749c-7.489-0.037-14.978-0.094-22.466-0.096c-1.575-0.001-3.004,0.313-3.069,2.412
	c-0.07,2.266,1.371,2.724,3.146,2.742C426.469,506.425,430.214,506.397,433.958,506.397z M176.854,278.048
	c16.23,6.318,32.378,11.879,49.55,15.477c-0.168-1.506-0.586-1.806-1.243-2.026c-14.784-4.947-29.559-9.923-44.346-14.86
	C179.528,276.209,178.104,275.726,176.854,278.048z M433.836,559.397c0-0.063,0-0.127,0-0.19c3.993,0,7.987,0.019,11.98-0.011
	c1.316-0.01,2.529-0.25,2.583-1.989c0.053-1.728-0.881-2.514-2.479-2.632c-7.977-0.59-15.958-0.527-23.938-0.118
	c-1.624,0.083-2.407,0.909-2.386,2.662c0.023,1.903,1.066,2.29,2.632,2.284C426.097,559.386,429.967,559.397,433.836,559.397z
	 M509.477,439.65c-0.002-0.313-0.003-0.625-0.004-0.937c-29.955,0-59.91,0-89.866,0c0.001,0.312,0.001,0.624,0.002,0.937
	C449.565,439.65,479.521,439.65,509.477,439.65z M430.076,362.671c-3.698-10.218-15.224-15.613-27.97-13.752
	c8.242,1.25,15.32,5.006,21.687,10.126c1.592,1.279,1.536-0.456,2.654-0.968C427.604,359.543,428.839,361.108,430.076,362.671z
	 M231.18,105.467c-1.585,4.236-2.918,7.799-4.331,11.575c3.181,0.405,5.966,0.759,9.127,1.161
	C234.369,113.936,232.897,110.028,231.18,105.467z M335.965,370.917c2.12-0.271,3.933,0.559,5.632-0.497
	c0.448-2.616,0.038-4.648-3.108-4.563C335.22,365.947,335.816,368.333,335.965,370.917z M300.133,185.999
	c0.822-3.745,1.652-7.489,2.466-11.236c0.485-2.236-0.712-2.781-2.765-2.767C299.809,176.774,300.112,181.377,300.133,185.999z
	 M367.28,370.884c0.038-2.671,0.111-5.081-3.139-5.042c-1.932,0.023-3.04,1.592-2.551,3.356
	C362.531,372.592,365.227,370.219,367.28,370.884z M303.809,370.759c2.012,0.108,3.786,0.455,5.646-0.421
	c-0.207-1.991,0.265-4.275-2.783-4.23C303.772,366.151,303.265,367.944,303.809,370.759z M319.492,370.604
	c1.75,0.365,3.296,0.654,4.873-0.157c0.151-1.925,1.027-4.348-2.037-4.491C319.422,365.82,319.043,367.955,319.492,370.604z
	 M349.599,370.863c1.897-0.16,3.629,0.542,5.036-0.61c0.173-2.384,0.206-4.527-2.813-4.192
	C349.042,366.368,349.035,368.359,349.599,370.863z"/>
<path fill-rule="evenodd" clip-rule="evenodd" d="M638.216,135.7c3.266,0,6.355-0.086,9.438,0.02
	c4.859,0.167,7.382,2.536,7.47,7.483c0.176,9.861,0.137,19.726,0.134,29.588c-0.016,49.699-0.044,99.397-0.092,149.096
	c-0.001,1.861-0.03,3.772-0.44,5.57c-0.734,3.229-2.678,5.227-6.261,5.326c-3.346,0.093-6.688,0.494-10.249-0.089
	C638.216,267.118,638.216,201.727,638.216,135.7z"/>
<path fill-rule="evenodd" clip-rule="evenodd" fill="none" d="M276.09,611.864c3.635-7.284,2.331-12.506-3.958-16.776
	c-0.855-0.581-1.597-1.03-1.638-2.237c-0.246-7.047-4.76-10.29-10.899-11.937c-7.792-2.091-15.812-2.097-23.786-2.288
	c-7.236-0.174-14.48-0.037-21.128-0.037c-1.672-1.889-1.182-3.328-1.183-4.635c-0.003-16.99,0.017-33.979,0.097-50.969
	c0.017-3.703-0.353-7.028-4.545-8.436c-1.343-0.451-1.378-1.605-1.087-2.806c0.431-1.778,1.876-1.34,3.042-1.342
	c10.994-0.016,21.988,0.021,32.981,0.004c6.47-0.01,12.949,0.274,19.503-0.856c1.175,5.772,2.146,11.27,3.429,16.692
	c2.166,9.163,5.571,17.866,10.433,25.953c1.153,1.917,2.43,3.798,3.897,5.48c5.662,6.492,12.955,6.468,18.68,0.043
	c0.727-0.816,1.451-1.636,2.28-2.571c2.54,2.153,4.135,4.891,6.721,6.697c8.164,5.699,16.581,3.711,20.721-5.268
	c3.869-8.391,4.792-17.549,6.035-26.541c3.786-27.393,4.627-54.964,4.448-82.582c-0.06-9.057-2.521-17.171-8.741-24.022
	c-2.429-2.677-6.003-3.874-8.719-7.119c26.157,0,51.763,0,77.656,0c0,65.094,0,130.122,0,195.552
	C359.069,611.864,317.808,611.864,276.09,611.864z"/>
<path fill-rule="evenodd" clip-rule="evenodd" fill="none" d="M626.716,145.686c0,55.884,0,111.547,0,167.442
	c-85.816,0-171.329,0-257.126,0c0-55.777,0-111.427,0-167.442C455.291,145.686,540.802,145.686,626.716,145.686z M483.226,299.706
	c0-0.008,0-0.016,0-0.024c31.732,0,63.464-0.068,95.194,0.088c3.846,0.019,4.833-1.134,4.826-4.847
	c-0.07-43.224,0.01-86.448,0.051-129.673c0.004-4.949,0.006-5.037-4.916-5.038c-63.713-0.021-127.426-0.02-191.139-0.005
	c-4.181,0.001-5.091,0.952-5.09,5.047c0.014,42.6,0.032,85.199,0.061,127.799c0.004,6.387,0.318,6.654,6.943,6.653
	C420.513,299.704,451.87,299.706,483.226,299.706z M586.65,161.239c0,46.633,0,92.397,0,138.598
	c7.76-1.237,15.107-2.521,22.493-3.536c3.527-0.485,4.822-2.073,4.73-5.67c-0.289-11.229-0.386-22.464-0.387-33.696
	c-0.005-27.839,0.093-55.679,0.106-83.518c0.001-1.233,0.705-2.853-1.215-3.5C603.914,167.069,595.453,164.21,586.65,161.239z"/>
<path fill-rule="evenodd" clip-rule="evenodd" fill="none" d="M207.449,144.818c5.995-6.097,10.465-12.215,14.251-18.814
	c0.906-1.579,2.012-2.04,3.669-1.693c3.902,0.816,7.813,1.596,11.711,2.432c1.41,0.302,2.437,1.095,3.052,2.486
	c6.029,13.649,11.552,27.421,10.781,42.785c-0.237,4.729-0.837,9.401-2.301,14.427c12.777-3.769,23.2-10.719,32.249-19.81
	c9.088-9.13,15.279-20.109,19.714-33.389c3.037,10.193,4.808,19.328,4.082,28.957c-0.636-0.141-0.943-0.113-1.063-0.249
	c-6.146-7-12.718-6.364-16.8,1.889c-7.181,14.512-8.332,29.863-5.806,45.644c0.117,0.733,0.347,1.457,0.6,2.158
	c0.874,2.416,1.975,4.757,4.84,5.185c2.843,0.425,4.647-1.413,6.174-3.485c1.01-1.371,1.903-2.828,3.221-4.804
	c0.432,5.469,1.959,10.04,3.23,14.673c2.201,8.022-0.972,14.476-6.205,20.129c-7.497,8.101-17.428,11.591-27.905,13.235
	c-23.125,3.627-46.019,2.679-68.414-4.82c-1.239-0.415-2.326-0.797-2.992-1.994c-4.208-7.561-7.705-15.393-9.15-24.003
	c-0.096-0.574-0.012-1.176-0.012-2.105c7.22,3.388,14.384,5.511,22.862,4.355c-3.871-3.189-7.348-5.868-10.1-9.373
	c-10.758-13.693-12.677-29.738-12.675-46.347c0-1.941,1.296-2.498,2.731-3.067c3.586-1.421,7.094-3.012,10.879-5.284
	c-0.487,3.61-1.033,6.816-1.334,10.046c-0.886,9.466-0.087,18.749,3.916,27.492c3.071,6.708,7.229,12.807,15.459,12.907
	c8.4,0.101,12.872-5.853,15.886-12.812c5.755-13.285,5.897-27.116,3.493-41.469c3.83-0.095,6.955,1.959,10.264,3.586
	C243.768,148.515,231.262,139.42,207.449,144.818z"/>
<path fill-rule="evenodd" clip-rule="evenodd" fill="none" d="M284.872,462.13c-10.13,4.303-20.043,5.354-30.631,4.087
	c0.441-5.756,1.511-11.236,2.875-16.618c2.973-11.729,7.619-22.683,15.726-31.925c1.792-2.043,3.804-2.853,6.546-2.71
	c9.479,0.49,18.98,0.772,28.265,2.958c15.685,3.691,24.125,14.192,24.261,30.258c0.23,27.259-1.45,54.425-4.53,81.495
	c-0.787,6.919-2.005,13.827-4.162,20.507c-2.39,7.402-6.421,8.451-11.884,2.806c-6.163-6.368-10.278-14.084-13.644-22.206
	c-7.066-17.047-11.725-34.709-13.351-53.12C283.902,472.686,284.167,467.705,284.872,462.13z"/>
<path fill-rule="evenodd" clip-rule="evenodd" fill="none" d="M418.503,610.611c-7.768,0.669-9.229-0.593-9.228-7.36
	c0.019-63.969,0.047-127.938,0.09-191.907c0.005-7.597,2.023-9.887,9.809-9.942c22.737-0.162,45.476-0.07,68.214-0.09
	c7.12-0.006,14.243-0.186,21.36-0.043c8.02,0.161,10.69,2.929,10.692,10.638c0.018,63.845,0.027,127.689,0.039,191.534
	c0,1.484,0,2.97,0,4.303c-1.315,1.104-2.527,0.86-3.774,0.654c-0.972-1.505-0.53-3.17-0.53-4.742
	c-0.018-57.848-0.004-115.695-0.004-173.542c0-3.997,0.014-7.998-0.124-11.992c-0.146-4.246-2.606-6.728-6.873-6.734
	c-28.986-0.045-57.973-0.052-86.958,0.008c-5.088,0.011-7.39,2.711-7.393,8.253c-0.018,29.86-0.026,59.721-0.009,89.581
	c0.018,29.985,0.094,59.971,0.071,89.956C413.882,603.421,414.202,607.403,418.503,610.611z"/>
<path fill-rule="evenodd" clip-rule="evenodd" fill="none" d="M273.488,406.053c-15.988,0.179-31.917-0.639-47.517-4.532
	c-3.134-0.783-6.208-1.853-9.247-2.966c-9.292-3.403-13.138-11.294-16.161-19.837c-0.524-1.479,0.273-2.353,1.336-3.144
	c8.708-6.486,18.696-9.798,29.224-11.755c1.267-0.236,2.173,0.357,2.639,1.565c0.907,2.355,2.827,2.998,5.116,3.68
	c12.969,3.857,24.904,10.183,37.06,15.965c3.602,1.713,7.137,3.571,10.661,5.441c2.872,1.523,5.648,3.239,7.918,5.595
	c1.948,2.021,3.744,4.434,2.717,7.324c-0.949,2.671-3.934,2.493-6.163,2.583C285.22,406.209,279.351,406.053,273.488,406.053z"/>
<path fill-rule="evenodd" clip-rule="evenodd" fill="none" d="M327.956,75.717c-1.532-1.184-2.273-1.757-3.791-2.931
	c3.65,7.353,7.574,13.604,8.157,21.229c-1.855-3.085-3.71-6.17-5.565-9.255c1.906,7.072,4.354,13.974,3.744,22.61
	c-4.743-18.743-14.9-33.056-27.096-46.222c6.192,14.224,8.22,28.952,5.814,44.301c-0.956-26.335-10.369-48.543-31.628-65.04
	c3.467,5.99,6.504,12.13,7.071,19.278c-7.108-13.005-17.37-22.747-30.411-30.239c1.018,4.138,1.948,7.921,2.878,11.704
	c-12.83-18.283-32.095-24.648-52.586-29.073C237.989,2.495,304.623,36.555,327.956,75.717z"/>
<path fill-rule="evenodd" clip-rule="evenodd" fill="none" d="M134.854,227.193c-11.527,2.592-21.099-0.12-30.001-5.771
	c-15.35-9.744-21.533-29.852-14.278-45.959c4.555-10.112,14.712-15.76,24.826-13.802c5.209,1.008,5.551,1.657,4.062,6.596
	c-1.602,5.313-5.063,9.722-7.049,14.845c-1.158,2.987-2.695,5.851-2.895,9.251c3.351-1.368,6.542-2.67,10.26-4.188
	C121.262,202.354,124.651,215.715,134.854,227.193z"/>
<path fill-rule="evenodd" clip-rule="evenodd" fill="none" d="M419.226,479.497c0-5.89,0-11.343,0-17.349
	c30.152-0.503,60.153-0.197,90.485-0.145c0,5.966,0,11.604,0,17.493C479.524,479.497,449.522,479.497,419.226,479.497z"/>
<path fill-rule="evenodd" clip-rule="evenodd" fill="none" d="M683.05,382.284c-1.331,0.939-2.6,0.553-3.764,0.553
	c-128.713,0.013-257.426-0.006-386.138,0.015c-4.906,0-9.542-0.751-14.505-3.433c15.309,0,29.881,0.002,44.455-0.001
	c112.966-0.019,225.932-0.045,338.897-0.039c5.115,0,10.244-0.319,15.348,0.39C679.449,380.061,681.351,380.704,683.05,382.284z"/>
<path fill-rule="evenodd" clip-rule="evenodd" fill="none" d="M129.366,611.935c3.444-4.212,2.38-8.208,1.05-12.38
	c20.145,0,40.039,0,60.191,0c-1.35,4.17-1.857,8.158,0.494,12.38C170.554,611.935,150.352,611.935,129.366,611.935z"/>
<path fill-rule="evenodd" clip-rule="evenodd" fill="none" d="M419.779,489.162c-0.67-1.692-0.597-3.033-0.203-4.7
	c29.956,0,59.966,0,89.983,0c0.717,1.347,0.453,2.736,0.451,4.076c-0.06,32.235-0.14,64.47-0.205,96.705
	c-0.013,6.418-1.186,7.598-7.664,7.588c-2.982-0.005-5.964-0.001-8.948-0.879c2.718,0,5.438,0.086,8.152-0.02
	c4.285-0.167,6.176-1.938,6.304-6.207c0.16-5.368,0.063-10.743,0.072-16.115c0.038-23.239,0.094-46.479,0.103-69.718
	c0.004-10.296-0.634-10.843-10.733-10.808c-25.113,0.086-50.227,0.122-75.34,0.173C421.138,489.258,420.525,489.199,419.779,489.162
	z"/>
<path fill-rule="evenodd" clip-rule="evenodd" fill="none" d="M117.04,479.462c2.535-4.251,6.685-4.757,10.984-4.785
	c10.862-0.071,21.724-0.114,32.586-0.124c33.086-0.03,66.172-0.036,99.258-0.058c4.982-0.003,9.572,0.847,12.489,5.682
	c-5.146-2.706-10.664-2.087-16.102-2.085c-42.576,0.011-85.151,0.039-127.727,0.043C124.68,478.135,120.829,477.975,117.04,479.462z
	"/>
<path fill-rule="evenodd" clip-rule="evenodd" fill="none" d="M108.416,301.933c-2.091-1.132-3.194-2.415-5.179-2.54
	c0.884,4.528,2.767,8.705,2.151,14.074c-1.524-3.799-3.085-6.732-5.07-9.41c-4.177-5.636-12.242-8.4-17.915-6.164
	c-5.911,2.331-9.394,8.413-8.644,15.897c2.153,21.479,4.506,42.938,6.688,64.415c1.475,14.524,2.779,29.066,4.188,43.597
	c0.541,5.576,1.693,10.905,6.777,14.614c-3.708-0.594-6.509-3.486-7.554-8.404c-0.982-4.625-1.631-9.339-2.119-14.045
	c-2.356-22.712-4.598-45.435-6.902-68.15c-0.906-8.936-1.889-17.863-2.798-26.8c-0.328-3.23-0.61-6.493,0-9.708
	c1.813-9.564,8.409-15.208,18.24-15.667c3.237-0.151,6.482-0.287,9.64,0.745C103.595,295.589,106.512,297.641,108.416,301.933z"/>
<path fill-rule="evenodd" clip-rule="evenodd" fill="none" d="M251.728,599.771c-1.188,4.12-1.505,8.138,0.756,12.272
	c-12.614,0-24.763,0-37.384,0c2.119-4.048,2.445-7.966,0.441-12.272C227.908,599.771,239.746,599.771,251.728,599.771z"/>
<path fill-rule="evenodd" clip-rule="evenodd" fill="none" d="M235.926,357.299c-20.346,0.349-37.238,8.425-51.477,22.471
	c-3.374-4.536-3.464-4.749,0.416-8.061c13.367-11.409,28.646-18.314,46.34-19.619C235.023,351.809,236.602,353.03,235.926,357.299z"
	/>
<path fill-rule="evenodd" clip-rule="evenodd" fill="none" d="M507.57,434.84c0-4.719-0.111-9.105,0.043-13.484
	c0.087-2.47-0.522-3.598-3.274-3.586c-26.335,0.105-52.67,0.103-79.005,0.145c-0.718,0.002-1.435,0.157-2.277,0.257
	c-1.113,5.515,0.601,11.182-1.405,16.467c-1.859-2.892-1.161-5.998-1.205-8.976c-0.134-9.102-0.063-9.288,8.801-9.356
	c24.962-0.19,49.925-0.234,74.888-0.29c4.438-0.01,5.255,0.859,5.328,5.26c0.056,3.368,0.053,6.74-0.048,10.107
	C509.382,432.476,509.891,433.911,507.57,434.84z"/>
<path fill-rule="evenodd" clip-rule="evenodd" fill="none" d="M253.188,417.741c-10.793-0.325-20.032,3.287-29.013,8.509
	c5.999-8.76,31.207-15.164,49.186-12.311c-8.659,3.324-17.639,4.361-23.96,11.143C249.768,422.262,251.697,420.338,253.188,417.741z
	"/>
<path fill-rule="evenodd" clip-rule="evenodd" fill="none" d="M433.761,546.199c-3.604,0-7.208,0.021-10.812-0.01
	c-1.687-0.014-3.341-0.195-3.434-2.455c-0.086-2.129,1.255-2.797,3.081-2.867c7.574-0.294,15.148-0.308,22.717,0.149
	c1.525,0.092,3.068,0.354,3.064,2.445c-0.004,2.093-1.517,2.38-3.067,2.404c-3.849,0.059-7.699,0.019-11.549,0.019
	C433.762,545.989,433.761,546.094,433.761,546.199z"/>
<path fill-rule="evenodd" clip-rule="evenodd" fill="none" d="M433.522,572.679c-3.73,0-7.464-0.047-11.194,0.02
	c-1.807,0.031-2.861-0.618-2.9-2.51c-0.04-1.923,1.191-2.716,2.848-2.724c7.586-0.035,15.174-0.063,22.758,0.112
	c1.646,0.038,3.733,0.596,3.443,3.011c-0.256,2.138-2.104,2.132-3.759,2.137c-3.731,0.01-7.463,0.003-11.195,0.003
	C433.522,572.711,433.522,572.695,433.522,572.679z"/>
<path fill-rule="evenodd" clip-rule="evenodd" fill="none" d="M433.74,519.405c-3.739,0-7.479-0.037-11.218,0.016
	c-1.698,0.023-2.98-0.296-3.023-2.345c-0.043-2.058,1.037-2.939,2.997-2.937c7.354,0.013,14.71-0.039,22.063,0.087
	c1.661,0.029,3.825,0.259,3.841,2.604c0.017,2.414-2.012,2.485-3.813,2.495c-3.615,0.019-7.23,0.006-10.846,0.006
	C433.74,519.355,433.74,519.379,433.74,519.405z"/>
<path fill-rule="evenodd" clip-rule="evenodd" fill="none" d="M433.798,586.151c-3.733,0.001-7.468-0.044-11.2,0.02
	c-1.95,0.033-3.202-0.721-3.213-2.723c-0.01-1.969,1.581-2.455,3.113-2.471c7.466-0.075,14.933-0.081,22.399-0.022
	c1.677,0.014,3.43,0.544,3.442,2.612c0.015,2.38-1.844,2.597-3.715,2.588C441.016,586.138,437.408,586.15,433.798,586.151z"/>
<path fill-rule="evenodd" clip-rule="evenodd" fill="none" d="M433.994,527.605c3.616,0,7.233-0.051,10.848,0.023
	c1.621,0.034,3.504,0.161,3.551,2.378c0.049,2.332-1.693,2.761-3.614,2.766c-7.357,0.02-14.714,0.016-22.07,0.091
	c-1.999,0.02-3.028-0.795-3.153-2.797c-0.152-2.434,1.514-2.496,3.218-2.5c3.74-0.01,7.481-0.003,11.222-0.003
	C433.994,527.577,433.994,527.591,433.994,527.605z"/>
<path fill-rule="evenodd" clip-rule="evenodd" fill="none" d="M433.958,506.397c-3.744,0-7.489,0.028-11.232-0.012
	c-1.775-0.019-3.217-0.477-3.146-2.742c0.065-2.1,1.494-2.413,3.069-2.412c7.488,0.002,14.977,0.059,22.466,0.096
	c1.861,0.009,3.255,0.735,3.308,2.749c0.058,2.177-1.852,2.182-3.233,2.235c-3.738,0.145-7.486,0.05-11.23,0.05
	C433.958,506.373,433.958,506.384,433.958,506.397z"/>
<path fill-rule="evenodd" clip-rule="evenodd" fill="none" d="M176.854,278.048c1.251-2.322,2.674-1.839,3.961-1.409
	c14.788,4.938,29.562,9.914,44.346,14.86c0.656,0.22,1.074,0.52,1.243,2.026C209.232,289.927,193.083,284.366,176.854,278.048z"/>
<path fill-rule="evenodd" clip-rule="evenodd" fill="none" d="M433.836,559.397c-3.869,0-7.739-0.011-11.608,0.006
	c-1.565,0.006-2.608-0.381-2.632-2.284c-0.021-1.753,0.762-2.579,2.386-2.662c7.98-0.409,15.962-0.472,23.938,0.118
	c1.599,0.118,2.532,0.904,2.479,2.632c-0.054,1.739-1.267,1.979-2.583,1.989c-3.993,0.029-7.987,0.011-11.98,0.011
	C433.836,559.27,433.836,559.333,433.836,559.397z"/>
<path fill-rule="evenodd" clip-rule="evenodd" fill="none" d="M509.477,439.65c-29.956,0-59.912,0-89.868,0
	c-0.001-0.313-0.001-0.625-0.002-0.937c29.956,0,59.911,0,89.866,0C509.474,439.025,509.475,439.337,509.477,439.65z"/>
<path fill-rule="evenodd" clip-rule="evenodd" fill="none" d="M430.076,362.671c-1.236-1.563-2.472-3.128-3.629-4.594
	c-1.118,0.512-1.063,2.247-2.654,0.968c-6.366-5.12-13.444-8.876-21.687-10.126C414.852,347.058,426.377,352.454,430.076,362.671z"
	/>
<path fill-rule="evenodd" clip-rule="evenodd" fill="none" d="M231.18,105.467c1.718,4.561,3.189,8.469,4.796,12.736
	c-3.161-0.402-5.946-0.756-9.127-1.161C228.262,113.266,229.595,109.703,231.18,105.467z"/>
<path fill-rule="evenodd" clip-rule="evenodd" fill="none" d="M335.965,370.917c-0.148-2.584-0.745-4.971,2.524-5.06
	c3.146-0.086,3.557,1.946,3.108,4.563C339.897,371.476,338.084,370.647,335.965,370.917z"/>
<path fill-rule="evenodd" clip-rule="evenodd" fill="none" d="M300.133,185.999c-0.021-4.622-0.324-9.225-0.299-14.003
	c2.053-0.014,3.25,0.531,2.765,2.767C301.785,178.51,300.955,182.254,300.133,185.999z"/>
<path fill-rule="evenodd" clip-rule="evenodd" fill="none" d="M367.28,370.884c-2.053-0.665-4.749,1.708-5.689-1.686
	c-0.489-1.765,0.619-3.333,2.551-3.356C367.391,365.803,367.318,368.213,367.28,370.884z"/>
<path fill-rule="evenodd" clip-rule="evenodd" fill="none" d="M303.809,370.759c-0.544-2.815-0.037-4.608,2.863-4.651
	c3.048-0.045,2.576,2.239,2.783,4.23C307.595,371.214,305.821,370.868,303.809,370.759z"/>
<path fill-rule="evenodd" clip-rule="evenodd" fill="none" d="M319.492,370.604c-0.449-2.649-0.07-4.784,2.836-4.648
	c3.064,0.144,2.188,2.566,2.037,4.491C322.788,371.258,321.242,370.969,319.492,370.604z"/>
<path fill-rule="evenodd" clip-rule="evenodd" fill="none" d="M349.599,370.863c-0.564-2.504-0.557-4.495,2.223-4.803
	c3.02-0.335,2.986,1.809,2.813,4.192C353.228,371.405,351.497,370.703,349.599,370.863z"/>
<path fill-rule="evenodd" clip-rule="evenodd" d="M483.226,299.706c-31.356,0-62.713-0.002-94.069,0.001
	c-6.625,0.001-6.939-0.267-6.943-6.653c-0.028-42.6-0.047-85.2-0.061-127.799c-0.001-4.095,0.909-5.046,5.09-5.047
	c63.713-0.015,127.426-0.016,191.139,0.005c4.922,0.001,4.92,0.089,4.916,5.038c-0.041,43.225-0.121,86.449-0.051,129.673
	c0.007,3.712-0.98,4.866-4.826,4.847c-31.73-0.157-63.462-0.088-95.194-0.088C483.226,299.689,483.226,299.698,483.226,299.706z
	 M511.691,180.492c-39.345,0-78.503,0-117.954,0c0,33.761,0,67.401,0,100.948c39.405,0,78.558,0,117.954,0
	C511.691,247.648,511.691,214.219,511.691,180.492z M539.061,261.966c10.973,0,21.496,0,31.962,0
	c0.642-1.708,0.528-3.135,0.065-4.532c-10.683,0-21.292,0-32.027,0C539.061,259.13,539.061,260.468,539.061,261.966z
	 M553.199,192.954c-5.739,0-11.011,0-16.372,0c-0.374,2.766-0.51,5.162,0.175,7.42c5.553,0,10.822,0,16.197,0
	C553.199,197.758,553.199,195.434,553.199,192.954z M536.794,214.557c5.62,0,10.923,0,16.235,0c0.441-2.527,0.432-4.712,0.172-6.996
	c-5.632,0-11.021,0-16.444,0C536.604,210.07,536.05,212.276,536.794,214.557z M536.953,186.055c5.323,0,10.627,0,16.164,0
	c0-2.384,0-4.66,0-7.03c-5.545,0-10.846,0-16.208,0C536.503,181.46,536.189,183.637,536.953,186.055z M553.152,221.966
	c-5.787,0-11.08,0-16.384,0c-0.252,2.51-0.261,4.707,0.211,6.964c5.519,0,10.802,0,16.173,0
	C553.152,226.479,553.152,224.29,553.152,221.966z M529.623,273.596c4.177,2.097,39.623,1.567,41.604-0.411
	C557.344,272.75,543.463,272.578,529.623,273.596z M553.277,243.677c-2.028,0-3.76,0.003-5.491-0.001
	c-5.391-0.013-5.868,0.69-4.124,6.297c3.146,0.163,6.336,0.442,9.47-0.195C553.837,247.781,553.65,245.951,553.277,243.677z
	 M522.874,200.37c2.798,0,5.112,0,7.565,0c0-2.564,0-4.854,0-7.32c-2.69-0.444-5.106-0.487-7.565,0.371
	C522.874,195.706,522.874,197.902,522.874,200.37z M539.298,289.57c4.755,0,9.335,0,14.015,0c0.563-1.47,0.411-2.743-0.302-4.094
	c-4.609,0-9.199,0-13.76,0C538.638,286.813,538.67,287.989,539.298,289.57z M523.005,214.315c2.486,0.452,4.99,0.71,7.5-0.16
	c0-2.221,0-4.283,0-6.56c-2.524,0-4.826,0-7.11,0C522.516,210.697,522.51,210.792,523.005,214.315z M530.086,179.222
	c-7.537-1.083-8.572-0.131-6.973,6.412C530.953,187.064,531.863,186.228,530.086,179.222z M530.221,228.934
	c0.556-2.646,0.369-4.819-0.315-7.006c-2.287,0-4.479,0-6.87,0c-0.068,1.043-0.19,1.891-0.166,2.734
	c0.038,1.355,0.171,2.708,0.292,4.462c1.572,0,2.926,0.021,4.28-0.007C528.294,229.098,529.145,229.007,530.221,228.934z
	 M535.965,243.999c-6.822-0.639-7.24-0.237-5.993,5.954c1.97-0.028,4.009,0.471,5.985-0.331
	C536.588,247.742,536.156,246.029,535.965,243.999z M557.591,179.505c3.76,2.255,11.5,2.13,14.02-0.208
	C566.827,179.367,562.686,178.762,557.591,179.505z M533.932,257.429c-4.522-0.563-5.134,0.223-3.706,4.774
	c1.256-0.129,2.621,0.508,3.964-0.558C534.498,260.341,534.494,259.015,533.932,257.429z M530.39,289.449
	c4.104,0.248,4.16,0.188,3.544-3.732C529.659,285.108,529.411,285.369,530.39,289.449z M570.125,209.114c-3.721,0-7.44,0-11.161,0
	C562.666,210.503,566.375,210.171,570.125,209.114z M559.196,223.976c3.733,1.389,7.499,1.329,11.271,0
	C566.709,223.976,562.953,223.976,559.196,223.976z"/>
<path fill-rule="evenodd" clip-rule="evenodd" d="M586.65,161.239c8.803,2.971,17.264,5.83,25.729,8.679
	c1.92,0.647,1.216,2.266,1.215,3.5c-0.014,27.838-0.111,55.678-0.106,83.518c0.001,11.232,0.098,22.468,0.387,33.696
	c0.092,3.597-1.203,5.186-4.73,5.67c-7.386,1.014-14.733,2.299-22.493,3.536C586.65,253.636,586.65,207.872,586.65,161.239z
	 M589.781,229.395c6.507,0,13.004,0,19.502,0c0.212-1.65,0.561-2.977-0.267-4.255c-6.484,0-12.91,0-19.294,0
	C589.168,226.691,589.129,227.993,589.781,229.395z M609.312,215.064c-6.582,0-13.182,0-19.742,0
	c-0.29,1.556-0.454,2.767,0.207,4.126c6.367,0,12.775,0,19.087,0C609.707,217.832,609.485,216.598,609.312,215.064z
	 M589.279,174.477c0.306,1.694-0.762,3.568,1.819,3.585c6.058,0.04,12.114,0.012,18.056,0.012c0.914-2.344,0.465-3.574-1.81-3.587
	C601.526,174.455,595.708,174.477,589.279,174.477z M609.555,267.031c-1.927-0.677-3.642-1.363-4.864,0.06
	c-0.893,1.038-0.658,2.729-0.03,3.917c0.695,1.315,2.276,1.045,3.383,0.702C610.491,270.952,609.072,268.799,609.555,267.031z
	 M606.717,279.33c-2.046-0.228-2.585,0.913-2.562,2.69c0.025,1.845,0.822,2.743,2.723,2.66c1.886-0.082,2.554-1.121,2.634-2.879
	C609.607,279.729,608.42,279.259,606.717,279.33z"/>
<path fill-rule="evenodd" clip-rule="evenodd" fill="none" d="M511.691,180.492c0,33.728,0,67.156,0,100.948
	c-39.396,0-78.549,0-117.954,0c0-33.547,0-67.187,0-100.948C433.188,180.492,472.346,180.492,511.691,180.492z M508.727,278.554
	c0-32.037,0-63.707,0-95.529c-37.675,0-75.072,0-112.604,0c0,31.992,0,63.667,0,95.529
	C433.659,278.554,470.98,278.554,508.727,278.554z"/>
<path fill-rule="evenodd" clip-rule="evenodd" fill="none" d="M539.061,261.966c0-1.498,0-2.835,0-4.532c10.735,0,21.345,0,32.027,0
	c0.463,1.396,0.576,2.823-0.065,4.532C560.557,261.966,550.034,261.966,539.061,261.966z"/>
<path fill-rule="evenodd" clip-rule="evenodd" fill="none" d="M553.199,192.954c0,2.479,0,4.804,0,7.42c-5.375,0-10.645,0-16.197,0
	c-0.685-2.258-0.549-4.654-0.175-7.42C542.188,192.954,547.459,192.954,553.199,192.954z"/>
<path fill-rule="evenodd" clip-rule="evenodd" fill="none" d="M536.794,214.557c-0.744-2.281-0.19-4.487-0.037-6.996
	c5.424,0,10.813,0,16.444,0c0.26,2.284,0.27,4.468-0.172,6.996C547.717,214.557,542.415,214.557,536.794,214.557z"/>
<path fill-rule="evenodd" clip-rule="evenodd" fill="none" d="M536.953,186.055c-0.764-2.418-0.449-4.595-0.044-7.03
	c5.362,0,10.663,0,16.208,0c0,2.37,0,4.646,0,7.03C547.58,186.055,542.276,186.055,536.953,186.055z"/>
<path fill-rule="evenodd" clip-rule="evenodd" fill="none" d="M553.152,221.966c0,2.324,0,4.513,0,6.964c-5.371,0-10.654,0-16.173,0
	c-0.472-2.258-0.463-4.454-0.211-6.964C542.072,221.966,547.365,221.966,553.152,221.966z"/>
<path fill-rule="evenodd" clip-rule="evenodd" fill="none" d="M529.623,273.596c13.841-1.018,27.722-0.846,41.604-0.411
	C569.246,275.163,533.799,275.692,529.623,273.596z"/>
<path fill-rule="evenodd" clip-rule="evenodd" fill="none" d="M553.277,243.677c0.373,2.274,0.561,4.104-0.146,6.101
	c-3.134,0.638-6.323,0.358-9.47,0.195c-1.744-5.607-1.267-6.311,4.124-6.297C549.517,243.68,551.249,243.677,553.277,243.677z"/>
<path fill-rule="evenodd" clip-rule="evenodd" fill="none" d="M522.874,200.37c0-2.467,0-4.664,0-6.949
	c2.459-0.857,4.875-0.815,7.565-0.371c0,2.465,0,4.756,0,7.32C527.986,200.37,525.671,200.37,522.874,200.37z"/>
<path fill-rule="evenodd" clip-rule="evenodd" fill="none" d="M539.298,289.57c-0.628-1.581-0.66-2.758-0.047-4.094
	c4.561,0,9.15,0,13.76,0c0.713,1.351,0.864,2.624,0.302,4.094C548.633,289.57,544.053,289.57,539.298,289.57z"/>
<path fill-rule="evenodd" clip-rule="evenodd" fill="none" d="M523.005,214.315c-0.495-3.524-0.489-3.619,0.39-6.719
	c2.284,0,4.586,0,7.11,0c0,2.277,0,4.338,0,6.56C527.996,215.026,525.492,214.767,523.005,214.315z"/>
<path fill-rule="evenodd" clip-rule="evenodd" fill="none" d="M530.086,179.222c1.776,7.005,0.866,7.842-6.973,6.412
	C521.514,179.091,522.549,178.139,530.086,179.222z"/>
<path fill-rule="evenodd" clip-rule="evenodd" fill="none" d="M530.221,228.934c-1.076,0.073-1.927,0.164-2.779,0.182
	c-1.354,0.028-2.708,0.007-4.28,0.007c-0.121-1.754-0.254-3.106-0.292-4.462c-0.024-0.843,0.098-1.69,0.166-2.734
	c2.391,0,4.583,0,6.87,0C530.59,224.115,530.777,226.288,530.221,228.934z"/>
<path fill-rule="evenodd" clip-rule="evenodd" fill="none" d="M535.965,243.999c0.19,2.03,0.623,3.743-0.008,5.623
	c-1.977,0.802-4.016,0.303-5.985,0.331C528.725,243.762,529.143,243.359,535.965,243.999z"/>
<path fill-rule="evenodd" clip-rule="evenodd" fill="none" d="M557.591,179.505c5.095-0.743,9.235-0.139,14.02-0.208
	C569.091,181.635,561.351,181.76,557.591,179.505z"/>
<path fill-rule="evenodd" clip-rule="evenodd" fill="none" d="M533.932,257.429c0.562,1.586,0.565,2.912,0.258,4.217
	c-1.343,1.065-2.708,0.429-3.964,0.558C528.798,257.652,529.41,256.866,533.932,257.429z"/>
<path fill-rule="evenodd" clip-rule="evenodd" fill="none" d="M530.39,289.449c-0.979-4.081-0.731-4.341,3.544-3.732
	C534.55,289.637,534.494,289.697,530.39,289.449z"/>
<path fill-rule="evenodd" clip-rule="evenodd" fill="none" d="M570.125,209.114c-3.75,1.057-7.46,1.389-11.161,0
	C562.685,209.114,566.405,209.114,570.125,209.114z"/>
<path fill-rule="evenodd" clip-rule="evenodd" fill="none" d="M559.196,223.976c3.757,0,7.514,0,11.271,0
	C566.695,225.305,562.929,225.365,559.196,223.976z"/>
<path fill-rule="evenodd" clip-rule="evenodd" fill="none" d="M589.781,229.395c-0.651-1.401-0.612-2.703-0.059-4.255
	c6.384,0,12.81,0,19.294,0c0.827,1.278,0.479,2.605,0.267,4.255C602.785,229.395,596.288,229.395,589.781,229.395z"/>
<path fill-rule="evenodd" clip-rule="evenodd" fill="none" d="M609.312,215.064c0.173,1.534,0.395,2.768-0.448,4.126
	c-6.312,0-12.72,0-19.087,0c-0.661-1.359-0.497-2.571-0.207-4.126C596.13,215.064,602.73,215.064,609.312,215.064z"/>
<path fill-rule="evenodd" clip-rule="evenodd" fill="none" d="M589.279,174.477c6.429,0,12.247-0.021,18.065,0.01
	c2.274,0.013,2.724,1.243,1.81,3.587c-5.941,0-11.998,0.027-18.056-0.012C588.517,178.045,589.584,176.171,589.279,174.477z"/>
<path fill-rule="evenodd" clip-rule="evenodd" fill="none" d="M609.555,267.031c-0.483,1.768,0.936,3.92-1.512,4.678
	c-1.106,0.343-2.688,0.613-3.383-0.702c-0.628-1.188-0.862-2.879,0.03-3.917C605.914,265.668,607.628,266.354,609.555,267.031z"/>
<path fill-rule="evenodd" clip-rule="evenodd" fill="none" d="M606.717,279.33c1.703-0.071,2.89,0.399,2.795,2.471
	c-0.08,1.758-0.748,2.797-2.634,2.879c-1.9,0.083-2.697-0.815-2.723-2.66C604.132,280.243,604.671,279.102,606.717,279.33z"/>
<path fill-rule="evenodd" clip-rule="evenodd" d="M508.727,278.554c-37.747,0-75.068,0-112.604,0c0-31.861,0-63.537,0-95.529
	c37.532,0,74.93,0,112.604,0C508.727,214.847,508.727,246.517,508.727,278.554z M402.685,272.313
	c-0.484-0.913-0.59-1.019-0.59-1.125c0.003-26.735,0.542-53.471-0.146-80.205c-0.072-2.831,1.397-2.671,3.629-1.69
	c0,26.543,0,53.082,0,79.779c3.731,0,6.973,0.025,10.214-0.019c0.727-0.009,2.032-0.141,2.089-0.416
	c0.956-4.68,5.878-5.78,8.354-9.336c-3.107-0.153-5.181-1.843-6.852-4.126c-2.921,3.179-4.394,3.063-6.279-0.508
	c-0.691-1.309-1.086-2.783-1.546-4.204c-0.925-2.858-0.071-5.805-0.127-8.872c-1.603,0.767-2.088,2.942-3.535,2.529
	c-3.853-25.931,4.3-45.82,28.68-57.47c-12.107,0-24.137,0-36.076,0c0,29.59,0,58.892,0,88.376c2.596,0,4.835,0,7.074,0
	c31.365,0.014,62.732,0.038,94.098,0.006c1.179,0,3.147,0.773,3.209-1.42c0.061-2.229-1.896-1.385-3.104-1.539
	c-0.861-0.11-1.746-0.061-2.621-0.058c-24.115,0.098-48.23,0.208-72.346,0.294C418.706,272.338,410.601,272.313,402.685,272.313z
	 M447.63,223.557c-4.062-0.141-7.856-1.359-10.668,1.852c-2.219,2.536-4.403,5.281-5.395,8.481
	c-3.085,9.956-1.526,16.476,6.772,20.862c11.777,6.224,23.722,5.862,35.493-0.067c3.021-1.521,5.445-3.932,6.76-7.241
	c0.778-1.959,1.366-3.788-1.587-4.502c3.04-2.94,3.238-7.819,0.48-10.124c-3.102-2.593-6.435-4.91-9.188-8.478
	c-0.347,2.579,2.065,3.956,1.303,6.107c-6.258,0.975-11.935-0.022-16.823-4.302c-4.638-4.06-8.162-8.897-10.388-15.147
	c-1.762,3.473-3.25,6.405-4.846,9.549C442.703,220.453,445.593,220.209,447.63,223.557z M504.359,244.744
	c-2.379-0.852-3.923-1.404-5.557-1.989c0.165,9.616-1.645,13.43-6.688,14.5c-0.846-0.592,0.109-2.126-1.62-2.464
	c-1.034,2.042-2.797,3.55-5.157,4.691c2.099,1.197,4.025,2.102,5.729,3.322c1.837,1.315,3.196,3.122,4.141,5.221
	c0.344,0.764,1.113,0.908,1.907,0.904c2.583-0.011,5.167-0.004,8.119-0.004c0-27.6,0-54.874,0-82.104
	c-5.204-0.765-28.757-0.661-31.28,0.139c0.844,0.157,1.588,0.201,2.266,0.435c16.985,5.851,30.266,28.102,27.294,45.928
	C502.912,236.933,502.355,240.442,504.359,244.744z M487.168,205.498c-0.813-1.562-1.288-3.71-3.878-3.627
	c-1.648,0.052-2.616,1.146-2.409,2.691c0.258,1.93,1.195,3.645,3.536,3.536C485.799,208.034,487.116,207.535,487.168,205.498z
	 M427.405,208.245c1.739-0.508,3-1.65,2.988-3.85c-0.008-1.629-0.856-2.68-2.481-2.574c-2.252,0.145-3.194,1.841-3.296,3.817
	C424.541,207.119,425.443,208.181,427.405,208.245z M450.749,268.578c-0.731-2.169-0.711-4.563-3.504-4.357
	c-2.536,0.187-3.475,1.918-3.298,4.413C446.155,269.026,448.224,269.179,450.749,268.578z M467.504,268.097
	c-0.075-2.151-0.736-4.056-3.247-3.972c-2.493,0.083-3.069,2.045-3.04,4.213C464.441,269.113,464.441,269.113,467.504,268.097z"/>
<path fill-rule="evenodd" clip-rule="evenodd" fill="none" d="M402.685,272.313c7.916,0,16.021,0.025,24.125-0.004
	c24.115-0.087,48.23-0.196,72.346-0.294c0.875-0.003,1.76-0.052,2.621,0.058c1.207,0.154,3.164-0.69,3.104,1.539
	c-0.062,2.193-2.03,1.419-3.209,1.42c-31.365,0.032-62.732,0.008-94.098-0.006c-2.239,0-4.479,0-7.074,0c0-29.484,0-58.786,0-88.376
	c11.939,0,23.969,0,36.076,0c-24.38,11.65-32.532,31.539-28.68,57.47c1.447,0.413,1.933-1.762,3.535-2.529
	c0.056,3.067-0.798,6.014,0.127,8.872c0.46,1.421,0.854,2.895,1.546,4.204c1.886,3.571,3.358,3.687,6.279,0.508
	c1.671,2.283,3.744,3.974,6.852,4.126c-2.476,3.556-7.397,4.656-8.354,9.336c-0.057,0.275-1.362,0.407-2.089,0.416
	c-3.241,0.044-6.482,0.019-10.214,0.019c0-26.697,0-53.235,0-79.779c-2.231-0.981-3.701-1.14-3.629,1.69
	c0.688,26.734,0.148,53.47,0.146,80.205C402.095,271.294,402.201,271.4,402.685,272.313z"/>
<path fill-rule="evenodd" clip-rule="evenodd" fill="none" d="M447.63,223.557c-2.037-3.348-4.928-3.104-8.086-3.011
	c1.596-3.145,3.084-6.077,4.846-9.549c2.226,6.25,5.75,11.087,10.388,15.147c4.889,4.279,10.565,5.276,16.823,4.302
	c0.763-2.151-1.649-3.528-1.303-6.107c2.754,3.568,6.087,5.885,9.188,8.478c2.758,2.305,2.56,7.184-0.48,10.124
	c2.953,0.715,2.365,2.543,1.587,4.502c-1.314,3.31-3.739,5.72-6.76,7.241c-11.771,5.93-23.716,6.292-35.493,0.067
	c-8.299-4.386-9.857-10.906-6.772-20.862c0.991-3.2,3.176-5.945,5.395-8.481C439.774,222.198,443.569,223.417,447.63,223.557z
	 M477.58,238.774c-0.005-4.841-1.975-6.849-6.752-6.882c-4.111-0.028-6.167,2.369-6.146,7.17c0.024,5.912,2.608,9.694,6.606,9.67
	C475,248.711,477.585,244.619,477.58,238.774z M446.207,239.537c0.121-2.879-0.184-5.519-3.36-6.796
	c-2.943-1.184-5.708-0.708-8.077,1.181c-2.54,2.025-1.684,4.627-0.65,7.128c0.188,0.457,0.303,0.948,0.427,1.429
	c0.855,3.296,2.005,6.359,6.244,6.113c2.87-0.166,4.832-2.941,5.292-7.188C446.149,240.784,446.167,240.159,446.207,239.537z"/>
<path fill-rule="evenodd" clip-rule="evenodd" fill="none" d="M504.359,244.744c-2.004-4.302-1.447-7.811-0.846-11.424
	c2.972-17.826-10.309-40.077-27.294-45.928c-0.678-0.234-1.422-0.278-2.266-0.435c2.523-0.799,26.076-0.903,31.28-0.139
	c0,27.231,0,54.504,0,82.104c-2.952,0-5.536-0.006-8.119,0.004c-0.794,0.004-1.563-0.14-1.907-0.904
	c-0.944-2.1-2.304-3.906-4.141-5.221c-1.704-1.22-3.631-2.125-5.729-3.322c2.36-1.141,4.123-2.648,5.157-4.691
	c1.729,0.338,0.774,1.872,1.62,2.464c5.043-1.069,6.853-4.883,6.688-14.5C500.436,243.34,501.98,243.892,504.359,244.744z"/>
<path fill-rule="evenodd" clip-rule="evenodd" fill="none" d="M487.168,205.498c-0.053,2.037-1.369,2.536-2.751,2.6
	c-2.341,0.109-3.278-1.606-3.536-3.536c-0.207-1.545,0.761-2.639,2.409-2.691C485.88,201.788,486.356,203.936,487.168,205.498z"/>
<path fill-rule="evenodd" clip-rule="evenodd" fill="none" d="M427.405,208.245c-1.962-0.064-2.864-1.126-2.789-2.607
	c0.102-1.976,1.044-3.672,3.296-3.817c1.625-0.105,2.474,0.945,2.481,2.574C430.405,206.595,429.144,207.737,427.405,208.245z"/>
<path fill-rule="evenodd" clip-rule="evenodd" fill="none" d="M450.749,268.578c-2.524,0.601-4.594,0.448-6.802,0.056
	c-0.177-2.495,0.762-4.226,3.298-4.413C450.038,264.016,450.017,266.409,450.749,268.578z"/>
<path fill-rule="evenodd" clip-rule="evenodd" fill="none" d="M467.504,268.097c-3.063,1.017-3.063,1.017-6.287,0.241
	c-0.029-2.168,0.547-4.13,3.04-4.213C466.768,264.041,467.429,265.945,467.504,268.097z"/>
<path fill-rule="evenodd" clip-rule="evenodd" d="M477.58,238.774c0.006,5.845-2.579,9.937-6.292,9.959
	c-3.998,0.023-6.582-3.758-6.606-9.67c-0.021-4.801,2.035-7.198,6.146-7.17C475.605,231.926,477.575,233.933,477.58,238.774z"/>
<path fill-rule="evenodd" clip-rule="evenodd" d="M446.207,239.537c-0.04,0.623-0.058,1.247-0.125,1.867
	c-0.46,4.247-2.422,7.022-5.292,7.188c-4.239,0.246-5.389-2.816-6.244-6.113c-0.124-0.481-0.238-0.972-0.427-1.429
	c-1.033-2.501-1.89-5.103,0.65-7.128c2.369-1.889,5.134-2.364,8.077-1.181C446.023,234.018,446.328,236.658,446.207,239.537z"/>
</svg>
