<?xml version="1.0" encoding="utf-8"?>
<!-- Generator: Adobe Illustrator 16.0.3, SVG Export Plug-In . SVG Version: 6.00 Build 0)  -->
<!DOCTYPE svg PUBLIC "-//W3C//DTD SVG 1.1//EN" "http://www.w3.org/Graphics/SVG/1.1/DTD/svg11.dtd">
<svg version="1.1" id="レイヤー_1" xmlns="http://www.w3.org/2000/svg" xmlns:xlink="http://www.w3.org/1999/xlink" x="0px"
	 y="0px" width="440.803px" height="648.961px" viewBox="0 0 440.803 648.961" enable-background="new 0 0 440.803 648.961"
	 xml:space="preserve">
<path fill-rule="evenodd" clip-rule="evenodd" fill="#FFFFFF" d="M396.559,428.947c0.626-4.068-1.231-6.936-3.737-9.447
	c-4.429-4.442-9.76-7.427-15.932-8.499c-9.594-1.667-18.458-0.317-25.238,7.538c-2.497,2.893-3.796,6.265-3.237,10.408
	C364.61,428.947,380.517,428.947,396.559,428.947z"/>
<path fill-rule="evenodd" clip-rule="evenodd" d="M396.559,430.697c-16.042,0-31.949,0-48.145,0
	c-0.559-4.144,0.74-7.516,3.237-10.408c6.78-7.855,15.645-9.205,25.238-7.538c6.172,1.072,11.503,4.057,15.932,8.499
	C395.328,423.762,397.185,426.629,396.559,430.697z"/>
<path fill-rule="evenodd" clip-rule="evenodd" fill="#FFFFFF" d="M214.251,208.682c2.352,0.807,3.727,1.279,5.505,1.889
	c-0.092-9.502-0.474-18.905,9.121-24.568c-1.303,3.73-2.639,7.449-3.9,11.192c-2.534,7.517-3.185,15.512-1.316,22.916
	c2.337,9.261,7.688,17.145,17.587,20.402c7.648,2.516,15.108-0.363,19.442-7.272c3.178-5.064,5.013-10.633,5.771-16.506
	c1.689-13.057,2.729-26.107-1.723-38.912c-3.42-9.837-11.582-15.433-20.084-13.594c-5.666,1.227-10.834,3.602-15.818,6.604
	c-5.614,3.38-8.814,8.696-12.287,13.861c-0.617,0.917-1.185,1.867-2.065,3.264c-0.278-0.864-0.507-1.248-0.51-1.634
	c-0.065-8.246-0.204-16.494-0.067-24.737c0.029-1.704,0.639-3.824,1.761-5.019c10.659-11.338,17.718-24.694,22.609-39.322
	c0.436-1.302,0.879-2.602,1.344-3.895c0.124-0.347,0.336-0.662,1.021-0.949c-0.359,2.925-0.622,5.865-1.1,8.771
	c-0.831,5.049-1.794,10.077-2.7,15.114c-0.022,0.123,0.02,0.292-0.049,0.366c-2.474,2.75-1.642,6.468-2.813,9.611
	c-1.22,3.273-2.001,6.715-3.306,9.95c-2.041,5.057-4.488,9.918-9.501,13.834c16.516-4.983,30.304-12.719,40.125-26.379
	c1.123-1.561,2.371-1.989,4.12-1.755c1.856,0.249,3.737,0.331,5.586,0.621c1.699,0.267,3.368,0.713,5.545,1.189
	c-2.784-3.956-6.831-4.826-10.233-5.942c4.017-10.226,7.966-20.279,12.001-30.555c1.025,4.64,2.405,9.291,3.032,14.042
	c1.6,12.125,3.169,24.27,4.146,36.455c0.57,7.126,0.802,14.443-2.521,21.304c5.376-3.355,8.904-8.176,11.928-13.544
	c-1.154,6.241-2.288,12.458-6.346,18.2c8.201-1.376,15.215-4.773,21.454-9.783c6.309-5.065,11.224-11.317,15.01-18.539
	c-1.662,7.909-3.988,15.517-9.379,22.599c13.455-4.624,20.741-14.28,25.446-26.444c1.043,0.438,1.584,0.688,2.143,0.892
	c0.429,0.156,0.878,0.252,1.889,0.536c-0.558-1.196-1.044-1.881-1.192-2.634c-0.294-1.494-0.791-3.102-0.509-4.524
	c0.7-3.537,1.79-6.995,2.867-11.022c0.38,1.212,0.735,2.032,0.891,2.89c2.355,13.089,3.598,26.244,1.962,39.524
	c-0.272,2.209-0.85,4.407-1.517,6.538c-3.126,9.987-6.548,19.886-9.446,29.937c-2.491,8.645-2.179,17.325-0.479,26.277
	c2.823,14.864-0.552,28.581-10.84,40.059c-2.021,2.256-4.814,3.988-7.536,5.422c-11.834,6.236-24.778,8.354-37.885,9.669
	c-17.132,1.719-34.183,0.858-51.152-1.938c-0.247-0.041-0.497-0.063-0.74-0.116c-9.352-2.02-9.419-2.053-9.849-11.439
	c-0.223-4.859-0.399-9.726-0.396-14.589c0.009-14.024-1.716-27.885-3.599-41.746C214.98,219.965,214.753,214.609,214.251,208.682z
	 M336.114,208.975c0.386,0.081,0.772,0.163,1.158,0.245c1.582-4.275,3.184-8.543,4.741-12.828
	c2.361-6.496,1.688-12.994-0.354-19.371c-1.757-5.484-7.386-7.141-11.924-3.55c-1.928,1.524-3.783,3.339-5.115,5.385
	c-10.335,15.872-12.543,33.372-9.719,51.704c0.418,2.718,1.83,5.461,3.395,7.781c2.362,3.501,5.139,3.399,7.286-0.294
	c1.603-2.757,2.912-5.858,3.553-8.971c2.266-10.989,4.464-22.01,3.65-33.362c-0.187-2.601,0.121-5.237,0.203-7.858
	c0.369-0.007,0.738-0.015,1.108-0.022C338.319,194.439,335.935,201.866,336.114,208.975z"/>
<path fill-rule="evenodd" clip-rule="evenodd" fill="#FFFFFF" d="M237.066,368.533c0.366,3.688,0.73,7.376,1.169,11.811
	c-3.744-0.539-7.211-1.038-11.133-1.603c2.68-18.894,9.411-35.669,20.007-51.776c2.175,1.717,4.241,3.049,5.942,4.748
	c5.234,5.229,8.696,11.604,10.915,18.579c4.997,15.709,9.798,31.479,14.678,47.224c1.332,4.295,2.592,8.615,4.029,12.874
	c0.619,1.834,1.607,3.543,2.713,5.918c0.628-1.432,0.941-2.146,1.396-3.18c4.472,2.109,8.817,4.158,13.942,6.575
	c-2.174-1.925-3.783-3.352-5.916-5.241c4.24-2.102,7.847-3.776,11.852-3.487c6.851,0.493,12.305,4.054,16.58,9.163
	c2.663,3.182,1.585,5.225-2.395,6.504c-1.832,0.59-3.972,1.36-5.118,2.752c-5.38,6.532-12.543,9.305-20.565,10.345
	c-6.222,0.807-12.426,0.684-18.633-0.627c-8.254-1.743-13.683-6.919-17.666-13.912c-6.854-12.03-11.024-25.133-15.041-38.288
	c-1.887-6.176-3.772-12.354-5.658-18.53C237.798,368.432,237.432,368.482,237.066,368.533z"/>
<path fill-rule="evenodd" clip-rule="evenodd" fill="#FFFFFF" d="M207.415,376.016c-3.764,0.511-5.112-1.781-6.415-4.103
	c-4.645-8.282-11.32-14.402-20.352-17.266c-6.491-2.058-13.316-3.078-20.009-4.475c-2.168-0.453-4.393-0.632-7.192-1.019
	c0.3-7.523,0.589-14.8,0.879-22.095c4.17-1.111,7.692-0.354,11.197,0.204c3.058,0.486,6.152,0.906,9.124,1.736
	c4.339,1.211,8.284,0.042,12.313-1.288c7.656-2.527,15.276-5.211,23.05-7.313c5.413-1.464,11.058-1.646,16.914-0.055
	C215.534,337.271,210.817,356.386,207.415,376.016z"/>
<path fill-rule="evenodd" clip-rule="evenodd" fill="#FFFFFF" d="M156.96,246.33c-4.745,1.022-8.932,0.55-13.091-0.33
	c-22.358-4.729-31.536-23.401-29.798-39.769c1.395-13.152,11.271-23.348,24.042-25.005c4.61-0.598,8.983,0.269,13.073,2.337
	c0.901,0.455,1.879,1.748,1.935,2.707c0.22,3.827,0.091,7.675,0.091,12.331c-6.517-6.306-13.316-7.981-20.646-3.798
	c-6.001,3.425-9.02,8.958-9.68,15.764c8.769-1.739,15.874,0.545,21.881,6.559c1.583,1.584,3.016,3.512,4.918,4.537
	c3.357,1.81,4.547,4.32,4.751,8.02c0.225,4.091,1.204,8.139,1.849,12.207C156.498,243.222,156.691,244.558,156.96,246.33z"/>
<path fill-rule="evenodd" clip-rule="evenodd" fill="#FFFFFF" d="M59.624,135.361c1.194-6.095,2.073-12.273,3.647-18.269
	c3.528-13.435,7.887-26.635,14.549-38.871c3.443-6.323,7.304-12.565,11.891-18.084c6.192-7.449,12.991-14.46,20.058-21.095
	c4.785-4.493,10.341-8.22,15.793-11.937c21.984-14.988,46.947-20.219,72.947-21.844c20.987-1.312,41.709,0.384,61.969,6.218
	c15.784,4.545,30.77,10.945,44.928,19.379c17.187,10.238,31.726,23.395,44.275,38.844c2.881,3.547,5.409,7.38,8.101,11.081
	c-0.246,0.222-0.491,0.443-0.737,0.666c-0.936-1.003-1.84-2.036-2.81-3.004c-4.94-4.926-9.832-9.903-14.866-14.732
	c-5.752-5.517-11.345-11.257-17.544-16.232c-6.119-4.91-12.823-9.114-19.421-13.398C286.839,23.979,269.863,17.208,251.817,13
	c-25.061-5.844-50.268-6.683-75.5-1.583c-19.773,3.996-38.233,11.454-55.118,22.66c-4.198,2.786-7.343,6.29-9.408,10.873
	c-0.535,1.188-1.455,2.285-2.419,3.186c-6.021,5.628-11.757,11.462-16.643,18.174c-6.48,8.903-12.498,18.099-17.621,27.808
	c-3.07,5.817-5.352,12.1-7.498,18.341c-2.473,7.193-4.401,14.574-6.585,21.866c-0.13,0.435-0.432,0.819-0.654,1.228
	C60.122,135.488,59.873,135.425,59.624,135.361z"/>
<path fill-rule="evenodd" clip-rule="evenodd" fill="#FFFFFF" d="M237.095,499.328c-1.37-5.656-2.737-11.313-4.113-16.968
	c-6.492-26.673-14.41-52.924-23.995-78.638c-3.519-9.44-7.992-18.533-12.193-27.709c-1.965-4.293-5.187-7.609-9.277-10.016
	c-2.713-1.596-5.356-2.812-8.795-1.738c-2.125,0.663-4.458,0.14-6.748-1.052c-8.11-4.217-17.061-5.416-26.009-6.286
	c-16.205-1.577-32.436-1.706-48.54,0.879c-6.369,1.022-12.735,2.688-18.786,4.918c-8.458,3.115-11.704,10.366-12.719,18.787
	c-1.459,12.106-0.602,24.231,0.44,36.283c1.129,13.041,3.083,26.012,4.666,39.015c0.103,0.846,0.1,1.705,0.146,2.558
	c-0.242,0.032-0.485,0.064-0.727,0.096c-1.347-8.204-2.826-16.389-4.011-24.616c-2.119-14.721-3.686-29.517-3.25-44.402
	c0.163-5.553,1.06-11.206,2.526-16.566c1.799-6.577,6.296-11.206,12.804-13.736c9.996-3.887,20.434-5.519,31.041-6.563
	c19.151-1.887,38.208-0.861,57.14,2.062c6.214,0.959,12.381,3.02,18.223,5.419c7.599,3.122,11.631,9.915,15.016,17.013
	c16.489,34.581,26.044,71.413,35.093,108.402c1.03,4.208,1.814,8.475,2.712,12.715C237.526,499.23,237.31,499.279,237.095,499.328z"
	/>
<path fill-rule="evenodd" clip-rule="evenodd" fill="#FFFFFF" d="M175.486,302.438c-0.354,3.092-2.215,4.833-4.242,6.164
	c-3.743,2.458-7.619,4.741-11.578,6.837c-4.178,2.212-8.643,3.897-12.75,6.224c-4.088,2.315-7.886,5.144-12.084,7.927
	c0-7.483,0-14.825,0-21.952c-4.687-1.254-9.176-2.455-13.665-3.656c0.058-0.283,0.117-0.565,0.175-0.848
	c6.922,0.629,13.845,1.259,20.767,1.889c0.095-0.323,0.19-0.646,0.285-0.969c-3.834-2.231-7.668-4.462-11.502-6.693
	c9.444,1.869,18.406,5.178,27.998,5.335c0.311-0.378,0.623-0.756,0.933-1.135c-1.539-0.917-3.078-1.833-4.616-2.75
	c0.203-0.262,0.405-0.524,0.608-0.785C161.794,301.798,168.426,302.705,175.486,302.438z"/>
<path fill-rule="evenodd" clip-rule="evenodd" fill="#FFFFFF" d="M320.93,539.662c0.359-6.072,0.859-12.14,1.033-18.217
	c0.14-4.89-0.998-5.741-5.82-4.901c-12.17,2.119-24.315,4.377-36.501,6.39c-4.916,0.813-9.911,1.147-14.875,1.654
	c-0.532,0.054-1.095-0.19-1.684-1.017c4.327-0.765,8.658-1.513,12.981-2.298c10.679-1.938,21.376-3.783,32.017-5.911
	c3.24-0.648,6.321-2.094,10.292-3.454c1.74,0.677,3.471,2.532,4.083,5.242C324.203,524.898,322.769,532.424,320.93,539.662z"/>
<path fill-rule="evenodd" clip-rule="evenodd" fill="#FFFFFF" d="M137.048,333.727c-0.596,5.174-1.102,9.565-1.638,14.22
	c-1.737,0-3.396,0-5.399,0C131.021,342.59,133.275,338.218,137.048,333.727z"/>
<path d="M438.732,627.802c-2.536-1.02-5.158-1.906-7.821-2.515c-4.231-0.97-8.524-1.672-12.629-2.456c0-55.506,0-110.799,0-166.394
	c1.71-0.103,2.923-0.219,4.137-0.238c2.874-0.044,5.755,0.075,8.621-0.084c5.117-0.283,8.522-3.884,8.616-9.004
	c0.047-2.623-0.024-5.249-0.068-7.872c-0.1-5.854-3.504-9.192-9.464-9.172c-28.239,0.096-84.719,0.328-84.719,0.328l-0.018-3.156
	c0,0,0.088-4.846-5.313-7.125c0-7.76,0-15.581,0-23.767c3.293,0,6.387,0.002,9.48,0c19.744-0.015,39.488-0.036,59.232-0.04
	c3.889,0,6.986-1.493,9.409-4.556c2.43-3.072,2.603-6.641,2.6-10.308c-0.033-51.488-0.053-102.978-0.075-154.466
	c-0.004-8.432-4.801-13.389-13.132-13.42c-10.622-0.041-21.244-0.016-31.867,0.052c-2.205,0.014-4.408,0.34-6.628,0.524
	c-0.392,3.39-0.767,6.633-1.142,9.879c-0.232,2.013-0.465,4.027-0.702,6.079c-0.003,0.026-0.006,0.05-0.009,0.076
	c1.713,0.086,2.932,0.191,4.152,0.202c6.479,0.061,12.958,0.083,19.438,0.146c7.143,0.069,9.776,2.623,9.76,9.718
	c-0.056,25.982-0.193,51.965-0.252,77.947c-0.029,12.493,0.052,24.986,0.076,37.479c0.003,1.499,0.018,3.001-0.063,4.497
	c-0.295,5.452-2.777,7.917-8.282,7.921c-22.486,0.014-44.973-0.049-67.46-0.067c-16.36-0.015-32.721-0.003-49.444-0.003
	c-0.433-1.294-0.777-2.348-1.138-3.396c-2.07-6.021-4.033-12.08-6.238-18.05c-5.659-15.314-16.425-25.049-32.323-28.881
	c-3.64-0.877-7.308-1.428-10.29-4.43c3.189,0.685,5.276-0.657,7.02-3.07c0.645-0.893,1.935-1.394,3.018-1.881
	c1.813-0.815,3.731-1.395,5.536-2.226c1.601-0.738,3.105-1.684,5.27-2.878c-1.219,3.905-2.175,6.966-3.17,10.152
	c12.88,1.409,24.354-2.551,35.406-8.474c-3.695,4.757-8.751,7.507-13.993,10.055c16.294-1.211,30.756-6.762,42.76-18.245
	c0.161,0.181,0.322,0.362,0.483,0.542c-1.348,3.248-2.694,6.496-4.042,9.744c0.206,0.146,0.411,0.292,0.616,0.438
	c2.62-2.751,5.24-5.502,7.861-8.253c-3.149,7.552-10.09,10.551-16.515,14.325c7.93-0.481,15.532-2.257,22.874-5.067
	c11.586-4.433,19.571-13.241,26.446-22.991c8.021-11.376,12.829-24.317,15.328-37.923c1.061-5.771,1.895-11.583,2.66-17.408
	c0.304-2.31,0.597-4.622,0.888-6.934c0.486-3.87,0.969-7.74,1.49-11.602c0.222-1.631,0.255-3.287,0.366-4.826
	c6.068,2.813,11.313,6.943,18.688,5.069c-0.623-1.413-1.176-2.505-1.599-3.646c-3.328-8.999-6.617-18.01-9.954-27.006
	c-0.904-2.438-0.297-4.475,0.924-6.716c5.677-10.426,8.601-21.744,7.937-33.503c-0.474-8.404-2.301-16.82-4.348-25.026
	c-3.324-13.334-7.493-26.505-15.485-37.896c-17.052-24.302-38.061-44.213-64.888-57.62C253.635-1.161,208.79-5.571,162.358,6.886
	c-25.668,6.887-47.944,20.009-65.839,39.714c-25.188,27.736-38.212,60.979-42.85,97.872c-0.882,7.021-2.397,14.099-4.712,20.771
	c-3.678,10.605-8.164,20.938-12.522,31.297c-2.837,6.742-6.055,13.326-9.336,20.492c10.06-1.688,18.797-5.686,27.116-11.76
	c0.264,1.663,0.548,2.847,0.627,4.045c0.411,6.217,0.763,12.438,1.149,18.658c0.782,12.601,5.021,24.113,10.923,35.138
	c4.405,8.228,10.294,15.343,16.489,22.202c4.583,5.075,10.554,8.298,16.939,11.901c-1.122-3.194-2-5.697-2.88-8.201
	c4.644,6.472,11.035,10.123,18.197,12.611c2.081,0.723,2.908,1.673,2.882,4.016c-0.135,12.62-0.076,25.242-0.051,37.864
	c0.009,4.678,0.054,4.734-4.729,4.965c-10.799,0.519-21.271,2.708-31.632,5.721c-15.193,4.416-22.992,15.771-23.547,30.689
	c-0.435,11.696,0.577,23.449,1.064,35.173c0.133,3.208,0.694,6.398,1.125,10.176c-2.852,0-5.312,0.003-7.772,0
	c-8.873-0.012-17.746-0.101-26.617-0.011c-6.698,0.067-9.894,3.294-10.05,9.876c-0.062,2.623-0.144,5.257,0.025,7.87
	c0.284,4.374,3.524,7.721,7.879,8.159c2.105,0.212,4.244,0.103,6.367,0.119c1.938,0.015,3.876,0.003,6.09,0.003
	c0,2.585,0,4.575,0,6.565c-0.003,13.623,0.008,27.245-0.014,40.867c-0.061,38.116-0.16,76.231-0.153,114.347
	c0,2.584-0.851,3.344-3.354,3.679c-7.792,1.045-15.546,2.378-23.296,3.706c-1.957,0.335-3.968,0.822-5.728,1.695
	c-1.548,0.768-2.779,2.173-4.15,3.296c1.425,1.088,2.725,2.438,4.309,3.192c1.777,0.848,3.779,1.354,5.738,1.666
	c9.614,1.537,19.2,3.532,28.881,4.311c23.902,1.923,47.851,3.278,71.782,4.843c8.475,0.554,16.961,0.931,25.426,1.604
	c10.195,0.813,20.354,2.273,30.56,2.685c11.464,0.463,22.966,0.195,34.448,0.013c16.727-0.268,33.457-0.578,50.174-1.177
	c15.95-0.571,31.895,0.24,47.865-1.009c33.866-2.65,67.804-4.367,101.681-6.887c10.18-0.756,20.27-2.813,30.368-4.466
	c2.553-0.417,5.056-1.411,7.436-2.469c0.963-0.428,1.973-1.667,2.13-2.668C440.898,629.396,439.63,628.164,438.732,627.802z
	 M290.931,396.288c0,4.562,0,8.822,0,13.359c-4.844-0.756-5.134-1.041-5.804-5.335c-0.361-2.317-0.767-4.627-1.235-7.442
	C286.21,396.679,288.345,396.501,290.931,396.288z M247.109,326.965c2.175,1.717,4.241,3.049,5.942,4.748
	c5.234,5.229,8.696,11.604,10.915,18.579c4.997,15.709,9.798,31.479,14.678,47.224c1.332,4.295,2.592,8.615,4.029,12.874
	c0.619,1.834,1.607,3.543,2.713,5.918c0.628-1.432,0.941-2.146,1.396-3.18c4.472,2.109,8.817,4.158,13.942,6.575
	c-2.174-1.925-3.783-3.352-5.916-5.241c4.24-2.102,7.847-3.776,11.852-3.487c6.851,0.493,12.305,4.054,16.58,9.163
	c2.663,3.182,1.585,5.225-2.395,6.504c-1.832,0.59-3.972,1.36-5.118,2.752c-5.38,6.532-12.543,9.305-20.565,10.345
	c-6.222,0.807-12.426,0.684-18.633-0.627c-8.254-1.743-13.683-6.919-17.666-13.912c-6.854-12.03-11.024-25.133-15.041-38.288
	c-1.887-6.176-3.772-12.354-5.658-18.53c-0.365,0.051-0.731,0.102-1.098,0.152c0.366,3.688,0.73,7.376,1.169,11.811
	c-3.744-0.539-7.211-1.038-11.133-1.603C229.782,359.848,236.513,343.072,247.109,326.965z M316.143,516.544
	c-12.17,2.119-24.315,4.377-36.501,6.39c-4.916,0.813-9.911,1.147-14.875,1.654c-0.532,0.054-1.095-0.19-1.684-1.017
	c4.327-0.765,8.658-1.513,12.981-2.298c10.679-1.938,21.376-3.783,32.017-5.911c3.24-0.648,6.321-2.094,10.292-3.454
	c1.74,0.677,3.471,2.532,4.083,5.242c1.746,7.748,0.313,15.273-1.526,22.512c0.359-6.072,0.859-12.14,1.033-18.217
	C322.103,516.556,320.965,515.704,316.143,516.544z M226.925,320.345c-11.392,16.927-16.108,36.041-19.51,55.671
	c-3.764,0.511-5.112-1.781-6.415-4.103c-4.645-8.282-11.32-14.402-20.352-17.266c-6.491-2.058-13.316-3.078-20.009-4.475
	c-2.168-0.453-4.393-0.632-7.192-1.019c0.3-7.523,0.589-14.8,0.879-22.095c4.17-1.111,7.692-0.354,11.197,0.204
	c3.058,0.486,6.152,0.906,9.124,1.736c4.339,1.211,8.284,0.042,12.313-1.288c7.656-2.527,15.276-5.211,23.05-7.313
	C215.424,318.936,221.069,318.753,226.925,320.345z M134.833,329.59c0-7.483,0-14.825,0-21.952
	c-4.687-1.254-9.176-2.455-13.665-3.656c0.058-0.283,0.117-0.565,0.175-0.848c6.922,0.629,13.845,1.259,20.767,1.889
	c0.095-0.323,0.19-0.646,0.285-0.969c-3.834-2.231-7.668-4.462-11.502-6.693c9.444,1.869,18.406,5.178,27.998,5.335
	c0.311-0.378,0.623-0.756,0.933-1.135c-1.539-0.917-3.078-1.833-4.616-2.75c0.203-0.262,0.405-0.524,0.608-0.785
	c5.979,3.773,12.611,4.68,19.671,4.414c-0.354,3.092-2.215,4.833-4.242,6.164c-3.743,2.458-7.619,4.741-11.578,6.837
	c-4.178,2.212-8.643,3.897-12.75,6.224C142.829,323.979,139.031,326.807,134.833,329.59z M137.048,333.727
	c-0.596,5.174-1.102,9.565-1.638,14.22c-1.737,0-3.396,0-5.399,0C131.021,342.59,133.275,338.218,137.048,333.727z M349.138,177.179
	c-0.272,2.209-0.85,4.407-1.517,6.538c-3.126,9.987-6.548,19.886-9.446,29.937c-2.491,8.645-2.179,17.325-0.479,26.277
	c2.823,14.864-0.552,28.581-10.84,40.059c-2.021,2.256-4.814,3.988-7.536,5.422c-11.834,6.236-24.778,8.354-37.885,9.669
	c-17.132,1.719-34.183,0.858-51.152-1.938c-0.247-0.041-0.497-0.063-0.74-0.116c-9.352-2.02-9.419-2.053-9.849-11.439
	c-0.223-4.859-0.399-9.726-0.396-14.589c0.009-14.024-1.716-27.885-3.599-41.746c-0.719-5.289-0.946-10.644-1.448-16.571
	c2.352,0.807,3.727,1.279,5.505,1.889c-0.092-9.502-0.474-18.905,9.121-24.568c-1.303,3.73-2.639,7.449-3.9,11.192
	c-2.534,7.517-3.185,15.512-1.316,22.916c2.337,9.261,7.688,17.145,17.587,20.402c7.648,2.516,15.108-0.363,19.442-7.272
	c3.178-5.064,5.013-10.633,5.771-16.506c1.689-13.057,2.729-26.107-1.723-38.912c-3.42-9.837-11.582-15.433-20.084-13.594
	c-5.666,1.227-10.834,3.602-15.818,6.604c-5.614,3.38-8.814,8.696-12.287,13.861c-0.617,0.917-1.185,1.867-2.065,3.264
	c-0.278-0.864-0.507-1.248-0.51-1.634c-0.065-8.246-0.204-16.494-0.067-24.737c0.029-1.704,0.639-3.824,1.761-5.019
	c10.659-11.338,17.718-24.694,22.609-39.322c0.436-1.302,0.879-2.602,1.344-3.895c0.124-0.347,0.336-0.662,1.021-0.949
	c-0.359,2.925-0.622,5.865-1.1,8.771c-0.831,5.049-1.794,10.077-2.7,15.114c-0.022,0.123,0.02,0.292-0.049,0.366
	c-2.474,2.75-1.642,6.468-2.813,9.611c-1.22,3.273-2.001,6.715-3.306,9.95c-2.041,5.057-4.488,9.918-9.501,13.834
	c16.516-4.983,30.304-12.719,40.125-26.379c1.123-1.561,2.371-1.989,4.12-1.755c1.856,0.249,3.737,0.331,5.586,0.621
	c1.699,0.267,3.368,0.713,5.545,1.189c-2.784-3.956-6.831-4.826-10.233-5.942c4.017-10.226,7.966-20.279,12.001-30.555
	c1.025,4.64,2.405,9.291,3.032,14.042c1.6,12.125,3.169,24.27,4.146,36.455c0.57,7.126,0.802,14.443-2.521,21.304
	c5.376-3.355,8.904-8.176,11.928-13.544c-1.154,6.241-2.288,12.458-6.346,18.2c8.201-1.376,15.215-4.773,21.454-9.783
	c6.309-5.065,11.224-11.317,15.01-18.539c-1.662,7.909-3.988,15.517-9.379,22.599c13.455-4.624,20.741-14.28,25.446-26.444
	c1.043,0.438,1.584,0.688,2.143,0.892c0.429,0.156,0.878,0.252,1.889,0.536c-0.558-1.196-1.044-1.881-1.192-2.634
	c-0.294-1.494-0.791-3.102-0.509-4.524c0.7-3.537,1.79-6.995,2.867-11.022c0.38,1.212,0.735,2.032,0.891,2.89
	C349.532,150.744,350.774,163.898,349.138,177.179z M109.372,48.135c-6.021,5.628-11.757,11.462-16.643,18.174
	c-6.48,8.903-12.498,18.099-17.621,27.808c-3.07,5.817-5.352,12.1-7.498,18.341c-2.473,7.193-4.401,14.574-6.585,21.866
	c-0.13,0.435-0.432,0.819-0.654,1.228c-0.249-0.064-0.498-0.127-0.747-0.19c1.194-6.095,2.073-12.273,3.647-18.269
	c3.528-13.435,7.887-26.635,14.549-38.871c3.443-6.323,7.304-12.565,11.891-18.084c6.192-7.449,12.991-14.46,20.058-21.095
	c4.785-4.493,10.341-8.22,15.793-11.937c21.984-14.988,46.947-20.219,72.947-21.844c20.987-1.312,41.709,0.384,61.969,6.218
	c15.784,4.545,30.77,10.945,44.928,19.379c17.187,10.238,31.726,23.395,44.275,38.844c2.881,3.547,5.409,7.38,8.101,11.081
	c-0.246,0.222-0.491,0.443-0.737,0.666c-0.936-1.003-1.84-2.036-2.81-3.004c-4.94-4.926-9.832-9.903-14.866-14.732
	c-5.752-5.517-11.345-11.257-17.544-16.232c-6.119-4.91-12.823-9.114-19.421-13.398C286.839,23.979,269.863,17.208,251.817,13
	c-25.061-5.844-50.268-6.683-75.5-1.583c-19.773,3.996-38.233,11.454-55.118,22.66c-4.198,2.786-7.343,6.29-9.408,10.873
	C111.256,46.138,110.336,47.234,109.372,48.135z M114.071,206.231c1.395-13.152,11.271-23.348,24.042-25.005
	c4.61-0.598,8.983,0.269,13.073,2.337c0.901,0.455,1.879,1.748,1.935,2.707c0.22,3.827,0.091,7.675,0.091,12.331
	c-6.517-6.306-13.316-7.981-20.646-3.798c-6.001,3.425-9.02,8.958-9.68,15.764c8.769-1.739,15.874,0.545,21.881,6.559
	c1.583,1.584,3.016,3.512,4.918,4.537c3.357,1.81,4.547,4.32,4.751,8.02c0.225,4.091,1.204,8.139,1.849,12.207
	c0.212,1.333,0.406,2.67,0.675,4.441c-4.745,1.022-8.932,0.55-13.091-0.33C121.511,241.271,112.333,222.599,114.071,206.231z
	 M184.035,604.356c-14.921,1.418-29.842,2.844-44.743,4.455c-4.332,0.469-8.611,1.49-12.88,2.417
	c-1.688,0.366-3.534,0.828-4.871,1.829c-3.643,2.727-7.742,3.038-12.047,3.26c-16.718,0.858-33.426,1.897-50.138,2.858
	c-0.975,0.056-1.955,0.008-2.917,0.008c0-54.328,0-108.283,0-162.652c3.158-0.177,5.972-0.335,9.134-0.514
	c1.14,6.627,1.982,13.048,3.379,19.347c3.568,16.085,7.015,32.212,11.191,48.143c5.391,20.563,19.116,32.572,39.736,37.432
	c18.966,4.471,38.209,6.103,57.575,7.002c3.351,0.156,6.701,0.344,10.37,0.533c0.102,1.596,0.25,2.934,0.264,4.271
	c0.085,8.997,0.161,17.995,0.199,26.993C188.305,604.079,188.253,603.955,184.035,604.356z M196.794,376.014
	c-1.965-4.293-5.187-7.609-9.277-10.016c-2.713-1.596-5.356-2.812-8.795-1.738c-2.125,0.663-4.458,0.14-6.748-1.052
	c-8.11-4.217-17.061-5.416-26.009-6.286c-16.205-1.577-32.436-1.706-48.54,0.879c-6.369,1.022-12.735,2.688-18.786,4.918
	c-8.458,3.115-11.704,10.366-12.719,18.787c-1.459,12.106-0.602,24.231,0.44,36.283c1.129,13.041,3.083,26.012,4.666,39.015
	c0.103,0.846,0.1,1.705,0.146,2.558c-0.242,0.032-0.485,0.064-0.727,0.096c-1.347-8.204-2.826-16.389-4.011-24.616
	c-2.119-14.721-3.686-29.517-3.25-44.402c0.163-5.553,1.06-11.206,2.526-16.566c1.799-6.577,6.296-11.206,12.804-13.736
	c9.996-3.887,20.434-5.519,31.041-6.563c19.151-1.887,38.208-0.861,57.14,2.062c6.214,0.959,12.381,3.02,18.223,5.419
	c7.599,3.122,11.631,9.915,15.016,17.013c16.489,34.581,26.044,71.413,35.093,108.402c1.03,4.208,1.814,8.475,2.712,12.715
	c-0.215,0.048-0.431,0.097-0.646,0.146c-1.37-5.656-2.737-11.313-4.113-16.968c-6.492-26.673-14.41-52.924-23.995-78.638
	C205.468,394.282,200.995,385.189,196.794,376.014z M398.476,620.416c-2.079-0.119-4.386-0.258-6.691-0.382
	c-31.682-1.696-63.366-3.34-95.04-5.155c-3.564-0.204-7.304-0.833-10.561-2.211c-7.063-2.985-14.509-3.762-21.929-4.528
	c-14.783-1.526-29.608-2.654-44.416-3.951c-0.856-0.075-1.708-0.187-2.814-0.308c0-4.822,0-9.51,0-14.655
	c0.754,0.687,1.304,1.2,1.868,1.696c4.108,3.613,8.091,7.387,12.377,10.776c2.742,2.168,6.216,2.482,9.669,2.142
	c5.686-0.562,8.465-3.489,7.938-9.176c-0.517-5.585-1.599-11.122-2.509-16.666c-0.725-4.414-1.563-8.809-2.415-13.563
	c2.234-0.447,4.114-0.823,6.487-1.298c1.05,7.274,1.973,14.18,3.065,21.059c0.743,4.679,1.337,9.437,2.682,13.955
	c2.688,9.035,11.388,11.279,18.011,4.553c2.918-2.964,5.312-6.662,7.172-10.408c5.475-11.018,8.713-22.854,11.627-34.751
	c0.492-2.012,1.237-2.922,3.222-3.373c5.354-1.22,10.669-2.612,15.979-4.012c9.552-2.516,14.437-8.83,14.986-18.614
	c0.035-0.624,0.104-1.245,0.155-1.868c0.971-11.954,0.036-14.626-8.161-23.204c1.706-3.25,3.452-6.521,5.147-9.818
	c1.947-3.786,1.803-7.183-1.045-10.726c-7.426-9.241-14.579-18.702-21.837-28.079c-0.285-0.369-0.514-0.781-0.989-1.511
	c32.769,0,65.171,0,98.021,0C398.476,510.972,398.476,565.498,398.476,620.416z"/>
<path fill="#FFFFFF" d="M362.734,230.092c-0.766,5.825-1.6,11.637-2.66,17.408c-2.499,13.606-7.307,26.546-15.328,37.923
	c-6.875,9.75-14.86,18.558-26.446,22.991c-7.342,2.81-14.944,4.586-22.874,5.067c6.425-3.774,13.365-6.773,16.515-14.325
	c-2.621,2.751-5.241,5.502-7.861,8.253c-0.205-0.146-0.41-0.292-0.616-0.438c1.348-3.248,2.694-6.496,4.042-9.744
	c-0.161-0.181-0.322-0.362-0.483-0.542c-12.004,11.483-26.466,17.033-42.76,18.245c5.242-2.548,10.298-5.298,13.993-10.055
	c-11.053,5.923-22.526,9.883-35.406,8.474c0.995-3.186,1.951-6.247,3.17-10.152c-2.164,1.194-3.669,2.141-5.27,2.878
	c-1.805,0.831-3.724,1.411-5.536,2.226c-1.083,0.487-2.373,0.988-3.018,1.881c-1.744,2.414-3.831,3.755-7.02,3.07
	c2.982,3.002,6.65,3.553,10.29,4.43c15.898,3.833,26.664,13.567,32.323,28.881c2.205,5.97,4.168,12.029,6.238,18.05
	c0.36,1.048,0.705,2.102,1.138,3.396c16.724,0,33.084-0.012,49.444,0.003c22.487,0.019,44.974,0.081,67.46,0.067
	c5.505-0.004,7.987-2.469,8.282-7.921c0.081-1.496,0.066-2.998,0.063-4.497c-0.024-12.493-0.105-24.986-0.076-37.479
	c0.059-25.982,0.196-51.965,0.252-77.947c0.017-7.096-2.617-9.649-9.76-9.718c-6.479-0.063-12.959-0.085-19.438-0.146
	c-1.221-0.011-2.439-0.116-4.152-0.202c0.003-0.026,0.006-0.05,0.009-0.076H362.734L362.734,230.092z"/>
<path fill-rule="evenodd" clip-rule="evenodd" d="M336.114,208.975c-0.179-7.109,2.205-14.536-2.017-21.142
	c-0.37,0.007-0.739,0.015-1.108,0.022c-0.082,2.621-0.39,5.257-0.203,7.858c0.813,11.352-1.385,22.374-3.65,33.362
	c-0.641,3.112-1.95,6.214-3.553,8.971c-2.147,3.694-4.924,3.796-7.286,0.294c-1.564-2.319-2.977-5.063-3.395-7.781
	c-2.824-18.333-0.616-35.832,9.719-51.704c1.332-2.045,3.188-3.86,5.115-5.385c4.538-3.591,10.167-1.934,11.924,3.55
	c2.042,6.376,2.715,12.875,0.354,19.371c-1.558,4.284-3.159,8.552-4.741,12.828C336.886,209.138,336.5,209.056,336.114,208.975z"/>
<line fill-rule="evenodd" clip-rule="evenodd" fill="none" stroke="#000000" stroke-width="2" stroke-linecap="round" stroke-linejoin="round" stroke-miterlimit="10" x1="285.761" y1="276.864" x2="288.762" y2="276.864"/>
</svg>
