<?xml version="1.0" encoding="utf-8"?>
<!-- Generator: Adobe Illustrator 16.0.3, SVG Export Plug-In . SVG Version: 6.00 Build 0)  -->
<!DOCTYPE svg PUBLIC "-//W3C//DTD SVG 1.1//EN" "http://www.w3.org/Graphics/SVG/1.1/DTD/svg11.dtd">
<svg version="1.1" id="レイヤー_1" xmlns="http://www.w3.org/2000/svg" xmlns:xlink="http://www.w3.org/1999/xlink" x="0px"
	 y="0px" width="632.997px" height="646.039px" viewBox="0 0 632.997 646.039" enable-background="new 0 0 632.997 646.039"
	 xml:space="preserve">
<path d="M454.319,508.505c2.82,0.313,5.355,0.747,7.902,0.854c13.205,0.553,26.395,1.272,39.418,3.679
	c3.297,0.609,6.539,1.521,10.146,2.376c2.27-3.252,2.305-7.148,3.434-11.25c-3.408-0.985-6.482-1.863-9.551-2.77
	c-5.527-1.631-10.932-3.492-15.408-7.364c-4.574-3.956-7-9.034-7.967-14.876c-1.375-8.323-0.936-16.608,0.107-24.971
	c2.953-23.678,7.027-47.151,12.211-70.431c2.381-10.697,4.848-21.386,7.678-31.971c2.844-10.632,10.379-17.078,20.379-20.822
	c5.953-2.229,11.957-4.385,18.064-6.13c8.438-2.414,17.02-3.551,25.742-1.19c7.213,1.951,12.049,7.909,12.293,16.919
	c0.186,6.824-0.305,13.752-1.326,20.507c-3.533,23.319-7.273,46.61-11.242,69.858c-3.271,19.169-6.943,38.271-10.527,57.385
	c-0.666,3.545-1.781,7.004-2.629,10.517c-1.104,4.577-4.018,7.011-8.643,7.523c-0.611,0.066-1.211,0.261-1.813,0.41
	c-0.115,0.027-0.213,0.126-0.611,0.374c-0.402,2.331-0.732,4.918-1.309,7.448c-1.133,4.985-2.105,10.036-3.672,14.891
	c-4.291,13.3-14.104,20.742-27.041,24.655c-6.162,1.862-12.531,2.313-18.895,2.427c-12.74,0.225-25.486,0.186-38.229,0.281
	c-1.582,0.012-3.164,0.179-4.98,0.288c0,10.661,0,20.979,0,31.582c1.068,0.229,1.992,0.518,2.938,0.62
	c12.391,1.358,24.813,2.48,37.166,4.111c7.031,0.927,14.02,2.413,20.908,4.127c6.639,1.651,7.824,3.829,7.014,10.563
	c-0.061,0.483-0.146,0.966-0.271,1.779c7.887,3.346,9.115,10.088,8.453,17.713c18.477,1.031,36.717,1.945,54.943,3.097
	c18.029,1.14,36.119,1.829,53.979,4.643c0.006,0.556,0.01,1.108,0.014,1.663c-3.469,0.566-6.918,1.402-10.408,1.653
	c-15.059,1.082-30.119,2.164-45.195,2.925c-24.045,1.216-48.098,2.309-72.154,3.191c-13.707,0.503-27.43,0.574-41.146,0.684
	c-30.473,0.242-60.943,0.468-91.416,0.541c-26.855,0.064-53.715-0.004-80.57-0.172c-22.68-0.143-45.359-0.493-68.039-0.786
	c-15.817-0.203-31.636-0.304-47.447-0.738c-18.33-0.505-36.653-1.289-54.976-2.021c-12.223-0.488-24.446-0.991-36.658-1.688
	c-10.334-0.59-20.657-1.416-30.976-2.252c-2.321-0.188-4.603-0.855-7.667-1.452c2.818-2.904,6.096-2.307,8.864-2.896
	c2.872-0.613,5.859-0.69,8.562-0.979c0-35.281,0-70.079,0-105.259c-2.218-0.365-4.138-0.802-6.082-0.976
	c-4.113-0.367-6.276-2.094-6.642-6.155c-0.291-3.219-0.295-6.511,0.02-9.727c0.469-4.805,3.828-7.785,9.179-8.168
	c5.089-0.364,10.204-0.395,15.31-0.521c5.334-0.134,10.669-0.211,16.377-0.319c0.126-1.933,0.226-3.5,0.33-5.065
	c0.26-3.951,1.649-5.775,5.615-6.116c5.446-0.47,10.931-0.559,16.402-0.653c2.323-0.04,4.051-0.563,5.134-2.861
	c2.29-4.859,4.784-9.622,7.137-14.453c1.69-3.468,3.289-6.981,5.051-10.735c-5.029-0.332-9.833-0.649-14.637-0.965
	c-0.124-0.008-0.249,0.022-0.374,0.022c-8.788,0-12.494-2.687-15.223-10.926c-4.077-12.306-8.298-24.564-12.254-36.908
	c-3.578-11.167-6.823-22.439-10.325-33.631c-4.021-12.854-8.223-25.647-12.224-38.507c-1.481-4.76-2.8-9.586-3.862-14.454
	c-1.439-6.601,1.526-10.404,8.218-10.821c17.558-1.092,35.117-2.162,52.68-3.171c8.956-0.516,17.917-1.059,26.882-1.259
	c9.495-0.215,11.317,2.883,13.33,8.823c4.167,12.293,7.966,24.712,11.863,37.097c5.171,16.438,10.379,32.866,15.412,49.35
	c4.954,16.224,9.763,32.493,14.521,48.774c1.691,5.788-1.237,9.655-7.367,9.543c-7.608-0.14-15.207-0.737-22.812-1.061
	c-4.117-0.175-8.241-0.175-12.361-0.28c-1.477-0.037-2.638,0.248-3.306,1.821c-3.215,7.575-6.505,15.119-9.748,22.683
	c-0.136,0.315-0.072,0.72-0.137,1.527c1.372,0.089,2.68,0.232,3.989,0.252c9.866,0.138,19.733,0.235,29.599,0.394
	c1.238,0.019,2.501,0.199,3.703,0.504c3.485,0.88,4.75,2.527,4.88,6.088c0.054,1.468,0.154,2.934,0.26,4.925
	c4.595,0,8.917,0.084,13.229-0.075c0.799-0.03,1.766-0.893,2.312-1.626c9.709-13.036,32.816-18.169,49.618-9.907
	c1.009,0.497,2.024,0.979,3.032,1.479c4.826,2.388,9.338,5.138,11.608,10.484c0.292-0.157,0.583-0.314,0.875-0.474
	c-0.826-2.261-1.264-4.783-2.573-6.718c-1.797-2.654-1.652-5.146-0.607-7.795c4.36-11.056,12.129-18.933,23.135-23.173
	c9.18-3.537,18.532-6.782,28.041-9.259c7.584-1.974,10.76-6.904,12.42-13.763c2.551-10.523,2.146-21.07,0.355-31.627
	c-1.17-6.905-2.148-13.807-1.797-20.853c0.32-6.396,1.877-12.309,5.75-17.525c1.541-2.079,2.883-4.304,4.807-7.202
	c-5.016-0.74-9.254-1.43-13.51-1.986c-23.625-3.096-47.438-4.955-70.708-10.423c-6.924-1.627-13.728-3.764-20.633-5.481
	c-1.868-0.465-3.958-0.596-5.855-0.298c-11.765,1.85-22.059-0.761-30.462-9.544c-2.678-2.799-5.462-5.501-8.028-8.398
	c-1.304-1.474-2.511-3.161-3.282-4.957c-2.669-6.224-0.78-12.211,6.461-13.985c0.589-0.145,1.144-0.434,1.957-0.749
	c-0.608-1.241-1.114-2.354-1.688-3.431c-4.047-7.596-5.013-15.636-3.254-23.985c1.358-6.444,6.498-8.619,12.161-5.242
	c2.405,1.435,4.416,3.181,7.762,2.615c1.654-0.28,3.867,1.436,5.493,2.684c1.445,1.11,2.614,2.709,3.572,4.294
	c1.311,2.167,3.153,3.098,5.455,4.058c2.523,1.053,4.914,3.023,6.676,5.16c2.929,3.55,5.594,7.394,7.832,11.412
	c1.89,3.396,4.057,5.406,8.152,5.188c2.453-0.132,4.936,0.406,7.411,0.555c1.058,0.063,2.129-0.102,4.006-0.21
	c-1.219-1.49-1.98-2.391-2.708-3.317c-4.726-6.025-8.594-12.384-10.833-19.907c-3.764-12.649-6.503-25.37-6.393-38.617
	c0.005-0.593-0.223-1.188-0.455-2.343c-7.038,1.417-14.012,2.642-21.681,1.282c0.96-1.369,1.601-2.532,2.472-3.486
	c9.198-10.063,16.457-21.367,21.357-34.081c2.372-6.155,4.224-12.518,6.13-18.839c0.401-1.331,0.493-3.142-0.094-4.32
	c-3.742-7.514-4.172-15.607-4.567-23.73c-0.029-0.606-0.081-1.212-0.432-1.835c-4.405,12.837-6.438,25.894-3.146,39.895
	c-3.015-1.416-4.346-3.497-5.436-5.707c-2.787-5.652-4.534-11.648-5.234-17.898c-1.507-13.447-0.057-26.703,3.522-39.666
	c2.416-8.748,4.989-17.533,8.512-25.87c3.521-8.335,8.128-16.237,12.616-24.127c2.748-4.831,5.906-9.484,9.349-13.849
	c4.441-5.628,9.11-11.123,14.124-16.241c6.077-6.203,12.382-12.23,19.033-17.804c4.813-4.034,10.413-7.118,15.553-10.777
	c9.865-7.021,20.787-12.141,31.884-16.628c8.723-3.524,18.041-5.67,27.209-7.977c19.91-5.01,40.189-5.917,60.613-4.828
	C448.6,1.221,463.364,4.24,477.887,8.56c14.414,4.289,28.148,10.223,41.188,17.68c5.066,2.899,9.797,6.407,14.592,9.765
	c7.256,5.081,13.809,11.008,19.887,17.418c3.752,3.957,7.213,8.206,10.604,12.484c7.068,8.922,13.08,18.527,18.17,28.718
	c5.986,11.989,10.635,24.453,13.986,37.437c3.566,13.803,6.721,27.679,8.23,41.866c1.406,13.198,0.834,26.414,0.357,39.654
	c-0.303,8.437,0.453,16.938,1.148,25.377c0.656,7.955,1.744,15.88,2.857,23.788c0.814,5.803,1.988,11.556,2.969,17.336
	c0.156,0.932,0.121,1.896,0.199,3.274c-8.436-2.048-12.504-8.885-18.375-14.315c-0.725,1.96-1.447,3.854-2.127,5.764
	c-2.729,7.647-5.695,15.18-10.15,22.033c-6.877,10.582-16.416,17.282-28.811,19.834c-0.455,0.094-0.945,0.012-1.822-0.605
	c1.133-0.975,2.191-2.052,3.408-2.903c5.514-3.868,8.48-7.729,11.012-14.778c-2.297,0.711-3.381,2.363-4.57,3.809
	c-5.857,7.129-12.805,13.061-20.783,17.583c-9.766,5.536-20.459,8.582-31.537,10.258c-0.318,0.048-0.68-0.199-1.557-0.479
	c2.59-2.082,4.945-3.977,7.303-5.872c-0.359-0.479-0.719-0.961-1.078-1.44c-1.088,0.527-2.215,0.988-3.256,1.596
	c-6.027,3.502-12.484,5.713-19.443,6.226c-2.781,0.205-5.705,0.606-8.848-1.713c4.885-1.913,8.979-4.229,11.432-8.754
	c-14.74,11.171-30.922,16.756-49.625,13.887c3.957-2.399,7.996-4.153,11.119-6.938c3.188-2.839,5.471-6.69,7.605-10.536
	c-5.523,3.607-10.846,7.585-16.625,10.72c-5.781,3.137-12.02,5.43-18.527,8.3c1.008,0.843,1.996,1.817,3.125,2.59
	c4.154,2.838,7.885,6.067,10.879,10.183c3.662,5.034,4.953,10.907,5.996,16.777c2.328,13.107,2.352,26.348,1.295,39.584
	c-0.875,10.961-2.492,21.813-5.205,32.489c-0.262,1.021-0.146,2.277,0.205,3.281c1.32,3.771,2.758,7.504,4.252,11.212
	c4.17,10.347,7.607,20.895,8.955,32.021c0.893,7.37,1.094,14.707-1.443,21.868C454.561,505.927,454.561,506.935,454.319,508.505z
	 M404.334,213.331c-0.119,1.562-0.215,2.286-0.225,3.013c-0.143,11.4-1.324,22.699-3.746,33.831
	c-1.672,7.683-4.77,14.767-10.898,20.051c-6.535,5.632-14.414,4.896-19.107-2.144c-2.457-3.684-4.615-7.856-5.668-12.115
	c-1.426-5.765-2.125-11.811-2.313-17.76c-0.414-13.277,0.971-26.479,3.961-39.399c0.848-3.665,3.371-7.253,5.955-10.13
	c3.953-4.399,9.461-4.249,14.643-2.623c4.383,1.375,8.65,3.275,12.744,5.379c13.037,6.702,23.961,15.762,31.074,28.883
	c0.262,0.482,0.764,0.834,1.252,1.351c2.836-8.105,2.338-9.583-4.438-13.78c-0.531-0.329-1.057-0.669-1.568-1.026
	c-14.443-10.086-24.664-23.56-31.52-39.648c-2.393-5.613-4.352-11.41-6.633-17.457c-3.451-0.617-7.063-1.264-10.902-1.948
	c-4.615,14.416-7.576,28.971-17.377,40.896c0-4.945,0-9.479,0-14.011c-0.504,0.567-0.77,1.214-0.928,1.888
	c-1.291,5.468-2.52,10.949-3.85,16.408c-1.061,4.352-1.805,4.896-6.16,4.79c-2.248-0.055-4.521,0.001-6.734-0.33
	c-4.563-0.683-9.16-1.321-13.617-2.469c-7.209-1.854-12.064-6.896-15.756-13.049c-2.283-3.802-4.125-7.868-6.397-12.264
	c0,2.231-0.077,4.045,0.013,5.85c0.396,7.849,1.18,15.695,1.187,23.543c0.01,12.854-0.221,25.718-0.854,38.553
	c-0.338,6.842-1.602,13.67-4.452,20.03c-1.302,2.904-3.077,6.071-6.47,6.094c-3.433,0.023-5.393-3.093-6.319-6.131
	c-1.594-5.23-3.207-10.531-3.985-15.921c-1.916-13.282-1.243-26.678-0.982-40.042c0.027-1.378,0.162-2.754,0.3-4.993
	c-2.606,2.766-4.449,4.965-6.556,6.876c-1.653,1.5-2.255,3.166-2.057,5.3c0.635,6.837,0.631,13.799,1.986,20.486
	c2.078,10.257,0.887,19.581-5.138,28.2c-0.213,0.305-0.348,0.663-0.537,0.986c-2.989,5.084-3.58,10.561-2.686,16.285
	c1.423,9.112,7.097,15.183,14.397,20.063c8.734,5.84,18.573,9.182,28.506,12.143c16.327,4.865,32.987,7.771,50.071,8.514
	c17.033,0.741,33.902,0.163,50.645-3.286c2.979-0.613,4.582-1.848,5.148-4.904c1.75-9.432,3.863-18.797,5.52-28.244
	c2.238-12.769,4.215-25.584,6.234-38.391c0.682-4.313,1.18-8.657,1.715-12.993c0.229-1.844,0.156-3.556-2.645-3.266
	c0,1.409,0,2.701,0,4.471c-1.334-0.213-2.498-0.143-3.398-0.595c-2.104-1.057-4.18-2.225-6.09-3.596
	C414.731,221.14,409.877,217.451,404.334,213.331z M404.362,377.402c0.383-0.075,0.764-0.151,1.146-0.229
	c0.561,1.587,1.338,3.136,1.633,4.771c0.461,2.573,0.848,5.205,0.83,7.81c-0.072,11.613-0.432,23.225-0.4,34.836
	c0.01,3.596-0.773,6.67-3.113,9.307c-6.875,7.743-13.715,15.522-20.734,23.134c-4.09,4.435-8.947,7.889-14.441,10.531
	c-4.035,1.941-8.029,4.134-11.615,6.789c-2.416,1.789-4.5,4.348-5.994,6.98c-1.811,3.192-0.418,6.171,2.986,7.622
	c1.238,0.528,2.635,0.787,3.984,0.936c6.852,0.749,13.5-0.42,19.855-2.836c17.4-6.615,32.799-16.291,45.445-30.148
	c6.654-7.293,11.314-15.426,12.387-25.436c0.98-9.167,2.342-18.295,3.281-27.466c1.402-13.701,1.672-27.434-0.498-41.08
	c-1.156-7.272-4.457-13.467-10.799-17.693c-3.402-2.269-3.436-2.327-6.67,0.389c-1.42,1.19-2.801,2.492-3.92,3.959
	c-3.633,4.76-7.242,9.544-10.658,14.461c-3.346,4.814-6.088,9.979-8.063,15.839c1.57,1.041,3.041,2.016,4.84,3.207
	C404.055,380.776,404.208,379.09,404.362,377.402z M212.946,322.446c-0.256,0.257-0.512,0.512-0.769,0.768
	c-2.173-1.771-4.238-3.701-6.556-5.258c-1.826-1.229-3.881-2.32-5.99-2.838c-1.209-0.297-3.254,0.271-3.96,1.189
	c-0.708,0.919-0.565,2.87-0.153,4.164c0.386,1.212,1.517,2.255,2.489,3.198c3.222,3.129,6.545,6.153,9.785,9.268
	c6.156,5.917,13.515,8.402,21.923,7.31c5.623-0.732,11.126-0.788,16.711,0.342c8.444,1.707,16.903,3.432,25.429,4.621
	c16.688,2.328,33.416,4.389,50.149,6.362c7.168,0.847,14.404,1.108,21.59,1.825c2.766,0.275,4.266-0.841,5.043-3.286
	c0.945-2.967,1.596-6.057,2.813-8.904c1.99-4.66,4.336-9.17,6.531-13.74c-3.488-2.012-100.905-10.262-109.573-9.278
	c-0.265,0.795-0.541,1.62-0.916,2.746c-3.629-2.635-5.823-5.946-8.113-9.212c-3.51-5.003-7.087-9.964-10.821-14.799
	c-0.688-0.891-2.258-1.103-3.42-1.626c-0.434,1.223-1.418,2.557-1.196,3.646c0.644,3.151,1.732,6.22,2.73,9.292
	c0.462,1.424,1.119,2.782,1.687,4.171c-0.277,0.125-0.555,0.248-0.833,0.373c-3.074-2.266-4.987-5.452-6.192-9.002
	c-1.242-3.657-1.892-7.521-3.189-11.153c-0.858-2.404-2.14-4.771-3.713-6.775c-1.54-1.963-3.515-1.366-3.964,1.136
	c-0.345,1.922-0.418,4.055,0.044,5.931c1.37,5.565,3.069,11.053,4.628,16.571c0.212,0.75,0.359,1.519,0.744,3.172
	c-1.441-1.234-2.274-1.77-2.878-2.493c-5.547-6.661-8.457-14.342-8.73-23.011c-0.028-0.87,0.343-2.006-0.077-2.557
	c-0.903-1.188-2.086-2.702-3.364-2.935c-2.029-0.369-2.165,1.679-2.143,3.158c0.033,2.238,0.142,4.498,0.491,6.705
	c1.107,7.021,4.211,13.301,7.523,19.482C208.756,314.835,210.864,318.635,212.946,322.446z M294.947,627.124
	c13.295,0,26.896,0,40.849,0c-0.564-7.846,1.797-13.784,8.646-17.254c-0.137-0.855-0.246-1.459-0.322-2.065
	c-0.703-5.582,1.094-8.465,6.506-10.136c2.496-0.771,5.035-1.523,7.611-1.891c13.559-1.926,27.129-3.771,40.707-5.546
	c4.543-0.594,9.119-0.897,13.988-1.365c0-10.754,0-21.144,0-31.816c-1.859-0.102-3.453-0.261-5.047-0.261
	c-7.617-0.008-15.234,0.035-22.852,0.048c-5.492,0.009-11.021,0.258-16.119-2.416c-0.279-0.146-0.701-0.02-1.18-0.02
	c0,1.319-0.105,2.549,0.02,3.755c0.246,2.355,0.691,4.691,0.926,7.048c0.482,4.862,0.557,9.699-0.752,14.494
	c-1.955,7.172-8.434,10.486-15.113,7.166c-3.641-1.809-7.094-4.224-10.148-6.911c-3.451-3.033-6.344-6.695-9.52-10.05
	c-0.777-0.823-1.707-1.506-2.955-2.591c-0.449,1.911-0.664,3.132-1.027,4.306c-0.887,2.855-1.551,5.829-2.834,8.503
	c-2.848,5.934-8.896,7.238-13.904,3.141c-1.523-1.248-3.01-2.689-4.068-4.33c-2.565-3.975-5.03-8.032-7.232-12.217
	c-2.152-4.092-3.928-8.383-6.04-12.955c-0.129,0.736-0.211,0.98-0.208,1.226c0.149,19.308,0.337,38.614,0.437,57.922
	C295.34,617.616,295.079,622.328,294.947,627.124z M405.731,9.558C313.63,10.894,247.027,85.414,238.61,153.021
	c0.857-1.841,1.436-2.897,1.855-4.015c4.797-12.775,11.069-24.854,17.515-36.837c3.602-6.695,7.357-13.344,11.562-19.669
	c4.15-6.245,9.073-12.075,15.398-16.18c3.706-2.403,6.621-5.228,8.911-8.826c6.567-10.324,15.566-18.149,25.577-24.902
	c11.109-7.492,22.932-13.637,35.311-18.8C371.186,16.933,388.137,12.034,405.731,9.558z M528.659,42.966
	c0.879,0.967,1.748,1.94,2.635,2.898c3.473,3.758,6.938,7.524,10.432,11.263c14,14.969,22.711,32.671,27.07,52.585
	c1.057,4.829,2.23,9.45,6.613,12.507c0.754,0.526,1.287,1.565,1.613,2.478c2.219,6.21,4.896,12.323,6.389,18.709
	c2.182,9.342,3.811,18.843,5.104,28.354c2.572,18.919,4.633,37.898,4.182,57.052c-0.008,0.251,0.252,0.508,0.387,0.763
	c0.291-0.013,0.582-0.024,0.873-0.036c0.908-10.021,2.236-20.024,2.643-30.065c0.887-21.938-1.295-43.578-7.02-64.867
	c-6.531-24.292-16.621-46.734-32.605-66.355C548.885,58.326,539.465,49.927,528.659,42.966z M385.053,372.723
	c7.004-11.403,13.701-22.305,20.467-33.317c-0.729,0.124-1.523,0.091-2.154,0.395c-7.068,3.396-14.24,6.456-21.928,8.254
	c-3.371,0.787-4.844,0.417-6.039-2.888c-0.455-1.261-0.496-2.684-0.643-4.039c-0.234-2.179-0.398-4.364-0.605-6.687
	c-4.877,2.324-14.877,24.024-14.422,31.046C368.184,367.902,376.756,370.352,385.053,372.723z M490.409,610.295
	c-1.27-0.457-1.721-0.753-2.18-0.767c-14.316-0.423-28.633-0.83-42.949-1.188c-0.859-0.021-1.729,0.394-2.594,0.604
	c-0.113,0.225-0.227,0.448-0.342,0.672c7.375,3.537,9.41,9.918,9.275,17.619c10.59-0.356,20.707,0.576,31.199,0.248
	C482.61,620.419,483.983,614.504,490.409,610.295z M370.508,609.931c2.252,2.704,4.811,4.806,6.033,7.511
	c1.262,2.794,1.223,6.175,1.834,9.772c9.926,0,20.189,0,30.605,0c0.188-2.544,0.064-4.968,0.619-7.225
	c0.521-2.126,1.461-4.3,2.764-6.043c1.338-1.79,3.34-3.084,5.051-4.595c-0.061-0.284-0.117-0.566-0.174-0.85
	C401.698,608.422,386.143,608.002,370.508,609.931z M59.268,508.386c-0.048,0.411-0.097,0.82-0.145,1.231
	c1.205,0.116,2.41,0.326,3.615,0.333c20.974,0.113,41.949,0.257,62.923,0.286c35.849,0.05,71.699,0.039,107.548,0.025
	c21.861-0.009,43.722-0.065,65.583-0.122c1.249-0.003,2.497-0.198,3.745-0.304c0.01-0.378,0.021-0.757,0.031-1.136
	c-1.236-0.257-2.469-0.711-3.71-0.738c-9.719-0.227-19.441-0.521-29.162-0.511c-31.851,0.037-63.7,0.224-95.55,0.293
	c-14.107,0.031-28.214-0.135-42.322-0.106c-16.36,0.031-32.72,0.143-49.08,0.289C74.919,507.996,67.093,508.229,59.268,508.386z
	 M274.295,182.559c6.82-6.445,14.576-8.557,24.232-5.231c-4.625-11.62-5.095-22.971-4.846-34.288
	c-5.124-1.422-7.919-0.652-9.455,2.745C278.962,157.424,275.301,169.522,274.295,182.559z M150.246,317.77
	c2.052,5.563,4.152,10.865,5.975,16.261c8.904,26.358,17.729,52.742,26.597,79.111c0.78,2.319,1.671,4.603,2.51,6.9
	c0.384-1.115,0.258-2.077-0.003-3c-4.371-15.481-8.563-31.018-13.196-46.419c-4.886-16.246-10.166-32.374-15.338-48.533
	C155.373,317.656,154.419,317.154,150.246,317.77z M487.04,277.115c9.129-5.572,13.43-13.826,13.617-24.173
	c0.139-7.653-1.25-14.915-7.896-20.153C491.538,247.711,490.473,262.536,487.04,277.115z M333.752,560.202
	c4.146,6.022,14.207,15.268,19.789,18.318c0.871,0.476,1.789,0.893,2.729,1.21c2.826,0.956,4.596,0.217,4.822-2.677
	c0.35-4.405,0.092-8.858,0.092-14.031C351.432,566.142,342.989,562.412,333.752,560.202z M386.45,142.71
	c-1.092-6.029-2.076-11.463-3.061-16.897c-0.141,0.016-0.277,0.029-0.418,0.044c-1.328,4.992-2.654,9.985-4.078,15.333
	C381.442,141.702,383.59,142.135,386.45,142.71z M294.282,135.733c0-3.398,0-6.278,0-9.159c-0.146-0.043-0.291-0.086-0.437-0.13
	c-1.459,2.729-2.917,5.459-4.584,8.577C291.189,135.294,292.364,135.461,294.282,135.733z"/>
<path d="M196.065,232.342c-2.651-0.424-5.33-0.723-7.947-1.297c-7.668-1.684-15.321-3.438-22.959-5.252
	c-2.077-0.494-3.782-0.193-5.669,0.894c-13.594,7.827-28.131,12.545-43.856,13.925c-13.854,1.217-27.403,0.262-40.784-3.445
	c-26.376-7.307-46.055-23.176-59.763-46.695c-7.374-12.652-12.158-26.279-14.362-40.692c-0.897-5.865-0.902-12.005-0.343-17.928
	c1.009-10.675,2.989-21.202,6.828-31.332c9.374-24.732,24.91-44.356,48.215-57.122c11.182-6.125,23.368-9.74,36.214-11.21
	c18.781-2.147,36.903,0.394,54.379,7.099c12.582,4.826,23.674,12.274,33.231,21.895c6.271,6.313,11.832,13.177,16.338,20.855
	c7.785,13.265,13.084,27.326,14.726,42.784c1.568,14.761,0.467,29.158-4.081,43.262c-4.333,13.438-10.708,25.81-20.03,36.506
	c-1.983,2.274-2.04,4.277-0.614,6.73c2.569,4.421,5.057,8.892,7.519,13.373c1.234,2.247,2.337,4.565,3.5,6.853
	C196.427,231.809,196.246,232.075,196.065,232.342z"/>
<path fill="#FFFFFF" d="M404.334,213.331c5.543,4.12,10.396,7.81,15.346,11.363c1.908,1.371,3.984,2.539,6.088,3.596
	c0.902,0.452,2.066,0.381,3.398,0.595c0-1.771,0-3.063,0-4.471c2.801-0.29,2.873,1.421,2.645,3.266
	c-0.535,4.335-1.031,8.68-1.715,12.993c-2.02,12.807-3.996,25.622-6.232,38.391c-1.656,9.446-3.771,18.813-5.521,28.244
	c-0.566,3.057-2.17,4.291-5.146,4.904c-16.742,3.449-33.611,4.026-50.645,3.286c-17.086-0.743-33.746-3.647-50.072-8.514
	c-9.935-2.961-19.772-6.303-28.506-12.143c-7.301-4.881-12.974-10.951-14.397-20.063c-0.894-5.725-0.303-11.201,2.686-16.285
	c0.189-0.323,0.324-0.682,0.537-0.986c6.024-8.619,7.215-17.943,5.138-28.2c-1.355-6.688-1.351-13.65-1.986-20.486
	c-0.198-2.134,0.404-3.8,2.057-5.3c2.106-1.912,3.95-4.11,6.556-6.876c-0.138,2.239-0.273,3.615-0.3,4.993
	c-0.261,13.363-0.933,26.76,0.982,40.042c0.778,5.391,2.391,10.69,3.985,15.921c0.926,3.039,2.886,6.155,6.319,6.131
	c3.393-0.022,5.168-3.188,6.47-6.094c2.852-6.36,4.114-13.189,4.452-20.03c0.635-12.834,0.864-25.7,0.854-38.553
	c-0.006-7.848-0.791-15.694-1.187-23.543c-0.09-1.804-0.013-3.618-0.013-5.85c2.271,4.396,4.114,8.462,6.397,12.264
	c3.692,6.153,8.546,11.195,15.755,13.049c4.459,1.147,9.055,1.786,13.619,2.469c2.213,0.331,4.484,0.275,6.732,0.33
	c4.357,0.105,5.102-0.438,6.162-4.79c1.33-5.458,2.559-10.94,3.85-16.409c0.158-0.672,0.424-1.319,0.926-1.887
	c0,4.533,0,9.065,0,14.01c9.803-11.924,12.762-26.479,17.379-40.896c3.838,0.686,7.451,1.332,10.9,1.948
	c2.281,6.047,4.24,11.844,6.633,17.457c6.855,16.089,17.076,29.563,31.521,39.648c0.512,0.357,1.035,0.698,1.566,1.026
	c6.775,4.197,7.273,5.675,4.438,13.78c-0.486-0.517-0.988-0.868-1.25-1.351c-7.115-13.121-18.037-22.181-31.074-28.883
	c-4.094-2.104-8.361-4.004-12.746-5.379c-5.182-1.626-10.688-1.776-14.641,2.623c-2.586,2.877-5.107,6.466-5.955,10.13
	c-2.992,12.92-4.375,26.122-3.961,39.399c0.186,5.949,0.885,11.995,2.311,17.76c1.055,4.258,3.211,8.432,5.668,12.115
	c4.693,7.037,12.574,7.774,19.107,2.144c6.131-5.284,9.229-12.368,10.898-20.051c2.422-11.131,3.604-22.431,3.748-33.831
	C404.122,215.617,404.215,214.892,404.334,213.331z"/>
<path fill="#FFFFFF" d="M404.362,377.402c-0.152,1.688-0.307,3.374-0.518,5.681c-1.799-1.191-3.27-2.166-4.84-3.207
	c1.975-5.86,4.717-11.023,8.063-15.839c3.416-4.917,7.025-9.701,10.658-14.461c1.119-1.467,2.5-2.769,3.92-3.959
	c3.234-2.716,3.268-2.656,6.67-0.389c6.342,4.228,9.643,10.421,10.799,17.693c2.17,13.646,1.9,27.379,0.498,41.08
	c-0.939,9.171-2.301,18.299-3.281,27.466c-1.07,10.01-5.73,18.143-12.387,25.436c-12.646,13.857-28.045,23.533-45.445,30.148
	c-6.355,2.416-13.004,3.585-19.855,2.836c-1.35-0.147-2.746-0.406-3.984-0.936c-3.404-1.452-4.797-4.43-2.986-7.622
	c1.494-2.634,3.578-5.191,5.994-6.98c3.586-2.655,7.58-4.848,11.615-6.789c5.494-2.645,10.354-6.098,14.441-10.531
	c7.021-7.61,13.859-15.391,20.734-23.134c2.34-2.637,3.123-5.711,3.113-9.307c-0.029-11.611,0.326-23.224,0.4-34.836
	c0.018-2.604-0.369-5.235-0.83-7.81c-0.295-1.635-1.072-3.184-1.633-4.771C405.125,377.25,404.745,377.326,404.362,377.402z"/>
<path fill="#FFFFFF" d="M212.946,322.446c-2.082-3.812-4.19-7.61-6.241-11.438c-3.312-6.182-6.416-12.461-7.523-19.482
	c-0.349-2.207-0.458-4.466-0.491-6.705c-0.022-1.479,0.113-3.527,2.143-3.158c1.277,0.232,2.461,1.748,3.364,2.935
	c0.42,0.551,0.049,1.688,0.077,2.557c0.273,8.669,3.183,16.35,8.73,23.011c0.604,0.725,1.437,1.259,2.878,2.494
	c-0.385-1.654-0.531-2.423-0.744-3.173c-1.559-5.52-3.258-11.006-4.628-16.571c-0.462-1.876-0.389-4.007-0.044-5.931
	c0.449-2.501,2.424-3.099,3.964-1.136c1.573,2.006,2.855,4.371,3.713,6.775c1.297,3.634,1.947,7.496,3.189,11.153
	c1.205,3.55,3.118,6.736,6.192,9.002c0.278-0.125,0.556-0.247,0.833-0.372c-0.568-1.39-1.225-2.748-1.687-4.172
	c-0.999-3.072-2.086-6.141-2.73-9.292c-0.222-1.089,0.763-2.423,1.196-3.646c1.163,0.523,2.732,0.735,3.42,1.626
	c3.734,4.835,7.312,9.796,10.821,14.799c2.291,3.267,4.484,6.577,8.113,9.212c0.375-1.126,0.65-1.951,0.916-2.746
	c8.667-0.982,106.083,7.268,109.572,9.278c-2.193,4.57-4.539,9.08-6.529,13.74c-1.217,2.849-1.867,5.938-2.813,8.905
	c-0.779,2.444-2.279,3.562-5.043,3.285c-7.186-0.717-14.422-0.979-21.592-1.824c-16.734-1.976-33.46-4.035-50.148-6.363
	c-8.526-1.189-16.985-2.914-25.429-4.621c-5.584-1.13-11.088-1.074-16.711-0.342c-8.408,1.094-15.767-1.393-21.923-7.31
	c-3.239-3.112-6.563-6.139-9.785-9.268c-0.972-0.943-2.103-1.986-2.489-3.198c-0.412-1.294-0.555-3.245,0.153-4.164
	c0.707-0.919,2.751-1.485,3.96-1.189c2.109,0.518,4.165,1.609,5.99,2.838c2.317,1.557,4.382,3.487,6.556,5.258
	C212.434,322.957,212.69,322.702,212.946,322.446z"/>
<path fill="#FFFFFF" d="M405.731,9.558c-17.594,2.478-34.545,7.375-50.994,14.235c-12.379,5.163-24.199,11.308-35.309,18.8
	c-10.011,6.753-19.01,14.579-25.578,24.902c-2.29,3.599-5.206,6.422-8.911,8.826c-6.325,4.104-11.248,9.935-15.398,16.18
	c-4.205,6.325-7.96,12.974-11.562,19.669c-6.446,11.981-12.718,24.062-17.515,36.837c-0.419,1.117-0.998,2.173-1.855,4.015
	C247.027,85.414,313.63,10.894,405.731,9.558z"/>
<path fill="#FFFFFF" d="M528.659,42.966c10.807,6.961,20.229,15.359,28.313,25.284c15.986,19.621,26.074,42.064,32.605,66.355
	c5.727,21.29,7.906,42.93,7.021,64.867c-0.406,10.041-1.734,20.044-2.645,30.065c-0.291,0.012-0.582,0.023-0.871,0.037
	c-0.135-0.256-0.395-0.513-0.389-0.764c0.451-19.152-1.607-38.133-4.18-57.052c-1.295-9.511-2.924-19.012-5.104-28.354
	c-1.492-6.386-4.17-12.5-6.391-18.709c-0.324-0.912-0.857-1.951-1.611-2.478c-4.385-3.058-5.559-7.678-6.613-12.507
	c-4.361-19.914-13.072-37.616-27.07-52.585c-3.494-3.738-6.959-7.504-10.432-11.263C530.407,44.906,529.538,43.933,528.659,42.966z"
	/>
<path fill="#FFFFFF" d="M385.053,372.723c-8.297-2.371-16.869-4.82-25.322-7.236c-0.457-7.021,9.543-28.722,14.42-31.046
	c0.207,2.321,0.371,4.507,0.605,6.687c0.146,1.355,0.188,2.778,0.643,4.039c1.195,3.305,2.668,3.675,6.039,2.888
	c7.688-1.798,14.859-4.857,21.928-8.254c0.631-0.304,1.426-0.271,2.156-0.395C398.754,350.418,392.057,361.319,385.053,372.723z"/>
<path fill="#FFFFFF" d="M59.268,508.386c7.826-0.157,15.651-0.39,23.478-0.458c16.359-0.146,32.72-0.258,49.08-0.289
	c14.107-0.027,28.215,0.139,42.322,0.106c31.85-0.069,63.7-0.256,95.55-0.293c9.72-0.011,19.442,0.284,29.161,0.511
	c1.241,0.027,2.474,0.481,3.71,0.738c-0.011,0.379-0.021,0.757-0.031,1.136c-1.248,0.104-2.496,0.301-3.745,0.304
	c-21.861,0.057-43.722,0.113-65.583,0.122c-35.849,0.014-71.699,0.023-107.548-0.025c-20.974-0.028-41.949-0.173-62.923-0.286
	c-1.206-0.007-2.41-0.217-3.615-0.333C59.171,509.206,59.219,508.797,59.268,508.386z"/>
<path fill="#FFFFFF" d="M274.295,182.559c1.006-13.036,4.667-25.135,9.931-36.774c1.536-3.396,4.331-4.167,9.455-2.745
	c-0.249,11.316,0.222,22.668,4.846,34.288C288.871,174.001,281.115,176.113,274.295,182.559z"/>
<path fill="#FFFFFF" d="M150.246,317.77c4.173-0.615,5.126-0.112,6.545,4.32c5.172,16.159,10.452,32.287,15.338,48.533
	c4.633,15.401,8.825,30.938,13.196,46.419c0.261,0.923,0.387,1.885,0.003,3c-0.839-2.299-1.729-4.581-2.51-6.9
	c-8.868-26.369-17.693-52.753-26.597-79.111C154.398,328.635,152.298,323.332,150.246,317.77z"/>
<path fill="#FFFFFF" d="M487.04,277.115c3.434-14.579,4.498-29.403,5.723-44.326c6.645,5.238,8.033,12.5,7.895,20.153
	C500.467,263.289,496.167,271.543,487.04,277.115z"/>
<path fill="#FFFFFF" d="M333.752,560.202c9.234,2.21,17.68,5.938,27.434,2.82c0,5.173,0.256,9.626-0.092,14.031
	c-0.229,2.894-1.996,3.633-4.824,2.677c-0.938-0.317-1.857-0.734-2.729-1.21C347.959,575.47,337.899,566.226,333.752,560.202z"/>
<path fill="#FFFFFF" d="M386.45,142.71c-2.857-0.576-5.008-1.008-7.557-1.521c1.424-5.347,2.75-10.34,4.078-15.333
	c0.141-0.015,0.277-0.028,0.418-0.044C384.374,131.247,385.358,136.682,386.45,142.71z"/>
<path fill="#FFFFFF" d="M294.282,135.733c-1.918-0.271-3.093-0.438-5.021-0.713c1.667-3.118,3.125-5.847,4.584-8.577
	c0.146,0.044,0.291,0.087,0.437,0.13C294.282,129.455,294.282,132.334,294.282,135.733z"/>
<line fill="none" stroke="#000000" stroke-width="2" stroke-linecap="round" stroke-linejoin="round" stroke-miterlimit="10" x1="325.344" y1="291.234" x2="328.499" y2="291.573"/>
<g>
	<path fill="#FFFFFF" d="M15.645,139.637c0-9.287,6.047-14.83,14.974-14.83c3.239,0,5.831,0.684,7.739,1.799
		c1.152,0.684,1.8,1.368,1.8,2.52c0,1.476-1.188,2.664-2.736,2.664c-0.864,0-1.332-0.216-1.872-0.612
		c-1.44-1.116-3.167-2.016-5.615-2.016c-5.075,0-8.963,3.816-8.963,10.475c0,5.183,3.06,8.351,8.135,8.351
		c3.42,0,6.443-1.332,7.271-4.607c0.216-0.792,0-1.224-1.08-1.224c-2.088,0-4.967,0.36-6.299,0.36c-1.404,0-2.196-0.828-2.196-2.304
		c0-1.583,0.792-2.412,2.196-2.412c1.044,0,3.815,0.144,5.723,0.144c1.62-0.036,3.276-0.108,4.32-0.108
		c1.8,0,2.879,1.332,2.879,2.987c0,1.08-0.18,2.088-0.72,3.708c-1.656,5.04-5.471,7.955-12.203,7.955
		C21.332,152.488,15.645,147.952,15.645,139.637z"/>
	<path fill="#FFFFFF" d="M44.66,143.525c0-6.155,3.996-9.827,9.683-9.827c5.435,0,9.323,3.312,9.323,9.215
		c0,6.371-3.996,9.575-9.791,9.575C48.44,152.488,44.66,149.176,44.66,143.525z M58.771,142.913c0-3.456-1.944-5.292-4.427-5.292
		c-2.772,0-4.788,2.196-4.788,5.903c0,3.456,1.836,5.003,4.319,5.003C56.719,148.528,58.771,146.801,58.771,142.913z"/>
	<path fill="#FFFFFF" d="M66.62,143.525c0-6.155,3.996-9.827,9.683-9.827c5.435,0,9.323,3.312,9.323,9.215
		c0,6.371-3.996,9.575-9.791,9.575C70.399,152.488,66.62,149.176,66.62,143.525z M80.73,142.913c0-3.456-1.944-5.292-4.427-5.292
		c-2.772,0-4.788,2.196-4.788,5.903c0,3.456,1.836,5.003,4.319,5.003C78.678,148.528,80.73,146.801,80.73,142.913z"/>
	<path fill="#FFFFFF" d="M106.829,150.04c0,1.548-0.72,2.268-2.52,2.268c-1.512,0-2.268-0.54-2.448-1.656
		c-1.656,1.439-3.708,1.835-5.58,1.835c-4.535,0-7.703-3.06-7.703-8.819c0-6.695,4.392-9.971,9.755-9.971
		c1.62,0,2.844,0.468,3.815,1.224c0-4.139-0.072-6.659-0.072-7.487c0-1.62,0.72-2.34,2.556-2.34c1.872,0,2.592,0.72,2.592,2.34
		c0,1.152-0.504,5.435-0.54,12.814C106.649,145.18,106.829,148.852,106.829,150.04z M101.934,146.549
		c0.072-1.692,0.144-3.852,0.18-6.299v-0.972c-0.792-1.26-1.872-1.656-3.563-1.656c-2.88,0-5.076,1.836-5.076,6.083
		c0,3.167,1.368,4.823,4.032,4.823C98.766,148.528,100.422,148.168,101.934,146.549z"/>
	<path fill="#FFFFFF" d="M122.887,150.04c0-1.188,0.324-5.147,0.36-9.791c0.072-7.379,0.072-11.663,0.072-12.814
		c0-1.62,0.72-2.34,2.556-2.34c1.836,0,2.556,0.72,2.556,2.34c0,1.152-0.54,5.435-0.612,12.814
		c-0.072,4.715,0.072,8.603,0.072,9.791c0,1.548-0.72,2.268-2.52,2.268C123.606,152.308,122.887,151.588,122.887,150.04z"/>
	<path fill="#FFFFFF" d="M150.28,150.004c0,1.583-0.72,2.304-2.556,2.304c-1.8,0-2.52-0.72-2.52-2.304V149.5
		c-1.692,1.872-3.708,2.987-6.479,2.987c-3.708,0-5.435-2.268-5.435-6.443c0-5.328,0.036-8.747,0.036-9.935
		c0-1.512,0.72-2.231,2.484-2.231c1.872,0,2.592,0.72,2.592,2.231c0,1.188-0.54,5.184-0.54,9.107
		c0.036,2.592,0.504,3.312,2.375,3.312c1.512,0,3.636-1.08,5.147-4.031c0.072-4.32-0.036-7.199-0.036-8.387
		c0-1.512,0.72-2.231,2.52-2.231c1.764,0,2.483,0.72,2.483,2.231c0,1.188-0.252,4.176-0.324,7.523
		C149.956,146.332,150.28,148.816,150.28,150.004z"/>
	<path fill="#FFFFFF" d="M169.504,145.684c1.188,0,2.34,0.864,2.34,2.16c0,0.72-0.216,1.26-1.008,2.016
		c-1.656,1.656-4.103,2.627-7.595,2.627c-5.075,0-8.783-3.131-8.783-8.819c0-6.443,4.392-9.971,10.223-9.971
		c2.195,0,4.247,0.612,5.615,1.836c0.684,0.54,1.008,1.08,1.008,1.908c0,1.296-1.188,2.196-2.232,2.196
		c-0.576,0-1.008-0.072-1.583-0.612c-0.756-0.828-1.764-1.404-3.06-1.404c-3.06,0-5.076,2.124-5.076,5.939
		c0,3.492,1.8,4.967,4.067,4.967c2.016,0,3.384-0.9,4.464-2.088C168.424,145.901,168.856,145.684,169.504,145.684z"/>
	<path fill="#FFFFFF" d="M175.337,150.04c0-1.188,0.324-5.147,0.36-9.791c0.072-7.379,0.072-11.663,0.072-12.814
		c0-1.62,0.684-2.34,2.52-2.34c1.872,0,2.591,0.72,2.591,2.34c0,1.152-0.54,5.435-0.648,12.814
		c-0.036,4.715,0.072,8.603,0.072,9.791c0,1.512-0.72,2.268-2.484,2.268C176.021,152.308,175.337,151.552,175.337,150.04z
		 M186.892,150.724c-1.656-1.62-3.348-3.456-5.111-5.255s-1.728-4.175-0.144-5.759c1.584-1.548,3.348-3.383,4.68-4.679
		c0.828-0.756,1.476-1.296,2.556-1.296c1.476,0,2.735,1.08,2.735,2.375c0,0.648-0.18,1.332-1.08,1.944
		c-1.512,1.08-3.276,2.34-5.04,3.636c-0.468,0.36-0.576,1.043,0.072,1.583c1.728,1.512,3.527,2.952,5.651,4.536
		c0.972,0.72,1.152,1.224,1.152,2.052c0,1.08-1.188,2.339-2.592,2.339C188.583,152.199,187.936,151.768,186.892,150.724z"/>
</g>
</svg>
