<?xml version="1.0" encoding="utf-8"?>
<!-- Generator: Adobe Illustrator 16.0.3, SVG Export Plug-In . SVG Version: 6.00 Build 0)  -->
<!DOCTYPE svg PUBLIC "-//W3C//DTD SVG 1.1//EN" "http://www.w3.org/Graphics/SVG/1.1/DTD/svg11.dtd">
<svg version="1.1" id="レイヤー_1" xmlns="http://www.w3.org/2000/svg" xmlns:xlink="http://www.w3.org/1999/xlink" x="0px"
	 y="0px" width="767.904px" height="698.613px" viewBox="0 0 767.904 698.613" enable-background="new 0 0 767.904 698.613"
	 xml:space="preserve">
<path fill-rule="evenodd" clip-rule="evenodd" d="M741.262,226.919c-11.903,1.117-22.352-2.858-32.016-9.425
	c-10.382-7.053-17.487-17.003-24.084-27.376c-0.701-1.103-0.941-2.579-1.123-3.918c-5.275-38.792-20.656-73.39-44.026-104.481
	c-17.309-23.028-38.433-41.936-63.731-55.974c-27.558-15.291-57.146-23.48-88.546-25.402c-18.841-1.154-37.43,0.679-55.109,4.47
	c-0.031-0.112-0.062-0.216-0.092-0.326c-3.604,0.574-7.263,0.64-10.745,1.821c-0.182,0.062-0.35,0.08-0.508,0.074
	c-0.666,0.179-1.438,0.386-2.513,0.674c-0.238,0.187-0.532,0.304-0.852,0.302c-0.239-0.001-0.48-0.012-0.718-0.046
	c-2.529,1.054-5.314,2.093-7.997,2.231c-0.039,0.083-0.08,0.149-0.134,0.171c-0.563,0.231-1.162,0.375-1.752,0.533
	c-24.859,6.605-47.301,18-67.383,34.05c-26.015,20.792-45.518,46.703-60.738,76.182c-9.498,18.396-16.179,37.7-21.658,57.573
	c-2.404,8.72-1.856,18.188-7.016,26.23c-4.103,6.394-7.843,13.168-14.353,17.348c-11.757,7.55-24.283,7.777-37.674,2.281
	c14.686,16.395,32.211,20.423,52.095,15.182c1.007,7.162,0.943,14.636,3.3,21.246c2.357,6.611,0.929,11.689-1.362,17.688
	c-7.11,18.624-8.59,37.551-0.565,56.41c2.854,6.708,6.564,12.875,12.753,17.828c-4.044-13.002-2.676-28.328,2.031-32.82
	c7.54,17.69,18.609,32.546,33.921,44.383c14.385,11.121,42.61,22.957,51.42,20.719c-5.928-5.791-11.995-11.433-14.793-20.189
	c11.643,5.65,23.341,8.884,36.469,10.486c-1.311-1.434-1.991-2.121-2.604-2.864c-0.566-0.686-1.06-1.43-2.098-2.85
	c30.104,10.539,60.283,12.792,91.026,10.564c0.247,1.048,0.4,1.749,0.578,2.445c1.764,6.882,1.274,9.101-5.18,11.026
	c-11.965,3.571-18.998,11.856-24.217,22.447c-5.15,10.454-11.147,20.349-18.699,29.32c-6.485,7.703-12.497,15.806-18.926,23.996
	c-4.667-4.742-9.784-9.823-14.727-15.068c-0.928-0.984-1.673-2.642-1.627-3.957c0.231-6.572,0.789-13.132,1.164-19.699
	c0.382-6.702,0.898-13.407,0.961-20.115c0.058-6.142-3.706-8.194-8.683-4.697c-2.778,1.953-4.977,4.739-7.401,7.185
	c-1.227,1.237-2.438,2.329-4.109,0.716c-3.827-3.693-8.338-6.922-11.307-11.213c-6.444-9.316-15.177-10.409-25.124-8.608
	c-3.911,0.708-6.631,2.703-7.14,7.015c-0.125,1.061-0.654,2.169-1.276,3.059c-4.043,5.78-4.525,12.42-3.166,18.805
	c2.958,13.901,9.868,26.113,18.319,37.391c3.762,5.021,8.338,9.116,15.037,10.339c3.577,0.653,7.087,1.576,9.466,5.471
	c6.946,11.374,14.163,22.612,21.86,33.487c5.822,8.226,12.743,15.58,21.997,20.266c5.019,2.541,4.745,2.568,3.681,8.455
	c-1.802,9.962-3.348,19.973-4.849,29.986c-1.07,7.141-1.234,14.438-5.935,20.611c-1.995,2.621-3.413,5.759-4.673,8.834
	c-0.804,1.964-1.861,4.878-1.01,6.258c2.132,3.454,0.387,5.574-1.71,7.384c-1.907,1.646-4.35,2.849-6.749,3.718
	c-12.789,4.634-25.708,8.918-38.453,13.67c-18.254,6.809-28.803,20.153-30.317,39.488c-0.8,10.211,0.652,20.599,1.087,30.906h318.71
	c12.312-5.886,15.894-17.399,18.808-29.297c7.964-32.499,15.604-65.08,23.879-97.501c11.394-44.645,23.25-89.17,34.91-133.747
	c4.643-17.752,0.579-25.146-17.135-29.746c-7.706-2.001-15.636-3.384-23.55-4.28c-13.438-1.521-22.284,4.148-26.081,17.123
	c-6.733,23.005-13.106,46.119-19.314,69.272c-10.409,38.827-20.738,77.677-30.75,116.607c-3.53,13.725-6.339,27.658-8.887,41.604
	c-1.674,9.162-1.068,18.4,2.908,27.556h-27.221c1.011-1.375,1.904-2.614,2.82-3.836c9.737-12.982,12.078-27.565,9.384-43.245
	c-0.317-1.845-0.931-3.709-0.832-5.533c0.098-1.822,0.402-4.07,1.525-5.309c2.263-2.497,2.297-4.805,1.492-7.874
	c-6.23-23.756-12.296-47.556-18.381-71.35c-0.511-1.998,0.398-3.241,2.35-3.989c2.979-1.142,5.868-2.521,8.825-3.725
	c2.122-0.864,2.993-1.982,2.425-4.554c-4.781-21.66-8.866-43.488-14.25-64.993c-3.817-15.255-8.822-30.271-14.254-45.042
	c-3.469-9.436-7.591-19.155-16.253-25.189c-4.084-2.844-9.525-3.7-14.267-5.661c-1.115-0.463-1.952-1.696-2.79-2.683
	c-0.364-0.43-0.506-1.12-0.581-1.713c-1.158-9.13-1.188-9.258,7.652-11.793c10.946-3.14,21.609-6.904,32.304-13.518
	c-1.576,3.065-2.693,5.24-4.352,8.465c4.649-2.757,8.378-4.969,12.807-7.596c-2.904,8.623-8.026,14.905-14.336,21.329
	c15.925,0.005,30.061-4.458,43.721-11.072c13.889-6.726,25.234-16.637,36.059-28.744c-0.566,10.46-5.213,17.822-11.613,24.347
	c8.174-0.525,23.247-10.143,33.364-21.048c9.271-9.99,16.217-21.42,21.418-34.191c5.097,9.524,2.024,25.707-6.246,35.248
	c12.854-5.426,20.889-15.51,25.91-28.104c4.97-12.463,5.757-25.469,2.873-39.295c19.54,4.569,36.288,0.085,50.811-12.773
	c-5.919,3.019-11.479,1.942-16.958-1.156c-6.54-3.698-11.647-8.788-16.003-15.974c16.414,2.795,30.454-0.63,42.137-11.651
	c3.378-3.188,6.501-6.747,7.782-11.426C747.874,225.886,744.597,226.606,741.262,226.919z M398.931,504.978
	c-1.317,3.86-3.728,6.628-7.232,8.412c-2.677,1.362-5.011,1.096-7.01-1.729c-7.659-10.83-15.589-21.469-23.209-32.325
	c-2.22-3.162-3.815-6.777-5.564-10.252c-0.978-1.942-1.875-3.07-4.529-3.281c-5.871-0.467-10.718-3.822-14.157-8.33
	c-5.05-6.624-9.558-13.688-13.955-20.774c-2.485-4.006-4.363-8.401-6.349-12.697c-0.562-1.215-0.54-2.7-0.786-4.062
	c0.478-0.239,0.957-0.479,1.435-0.719c4.835,5.682,9.671,11.363,14.507,17.045c0.374-0.251,0.749-0.502,1.122-0.754
	c-1.074-1.976-1.993-4.058-3.252-5.908c-3.088-4.536-6.34-8.961-9.51-13.441c-0.792-1.119-1.905-2.195-2.185-3.445
	c-0.365-1.626-0.046-3.404-0.021-5.117c1.466,0.6,3.377,0.805,4.322,1.868c4.057,4.564,7.824,9.384,11.707,14.104
	c1,1.215,2.034,2.402,3.051,3.603c0.373-0.177,0.747-0.354,1.119-0.531c-0.726-1.63-1.19-3.452-2.223-4.854
	c-4.296-5.826-8.85-11.464-13.099-17.322c-0.922-1.271-0.975-3.173-1.428-4.783c1.9,0.36,4.517,0.053,5.579,1.192
	c5.513,5.919,10.633,12.204,15.878,18.371c0.686,0.806,1.298,1.673,2.404,2.211c-2.027-9.256-10.004-14.951-14.108-23.111
	c2.329-1.967,4.297-0.588,5.681,0.76c5.523,5.386,11.11,10.75,16.128,16.592c3.159,3.677,5.349,8.187,8.167,12.627
	c0.527-1.023,1.443-2.522,2.098-4.128c1.364-3.348,2.202-6.979,3.996-10.062c1.443-2.479,3.975-4.325,6.025-6.452
	c0.45,0.26,0.9,0.519,1.351,0.779c0,1.15,0.056,2.306-0.01,3.453c-0.403,7.088-0.714,14.185-1.303,21.258
	c-0.35,4.203-0.734,8.485-1.866,12.518c-1.135,4.039-0.361,6.984,2.489,9.927c6.823,7.046,13.562,14.18,20.108,21.482
	c1.766,1.969,3.197,4.523,3.953,7.057C400.289,490.978,401.344,497.906,398.931,504.978z M423.713,439.205
	c-3.576,12.869-7.198,25.906-10.961,39.45c-3.569-4.686-6.741-8.848-10.001-13.127C409.604,456.923,416.679,448.039,423.713,439.205
	z M399.276,620.661c-13.15,4.309-26.339,8.51-39.424,13.009c-17.1,5.879-27.512,17.874-31.578,35.449
	c-0.163,0.706-0.48,1.377-0.992,1.925c2.363-16.183,6.91-31.054,23.241-39.035c15.578-7.613,45.025-15.312,60.764-15.14
	C407.283,618.13,403.267,619.355,399.276,620.661z M439.426,597.156c14.263-6.528,28.524-13.057,43.131-19.743v24.991
	c-14.531-1.213-28.655-2.392-42.78-3.57C439.659,598.275,439.543,597.715,439.426,597.156z M511.653,625.081
	c1.42,8.93,2.426,17.826-3.091,25.901c-0.726,1.062-1.791,2.229-2.942,2.604c-4.405,1.433-8.91,2.562-13.099,3.726
	c-4.679-0.236-8.522-1.09-10.258-5.91c-3.416-9.489-6.247-19.041-2.259-29.013c1.397-3.492,3.685-6.619,5.341-10.022
	c0.942-1.935,1.958-4.071,2.032-6.149c0.277-7.774,0.026-15.565,0.261-23.342c0.317-10.509,0.912-21.01,1.36-31.515
	c0.111-2.607,2.089-2.569,3.755-2.501c6.916,0.281,13.825,0.721,20.737,1.104c0.37,0.021,0.739,0.08,1.11,0.086
	c5.789,0.091,5.941,0.115,5.027,5.661c-1.502,9.115-3.125,18.212-4.876,27.282c-1.729,8.949-4.291,17.789-5.288,26.809
	C508.917,614.752,510.843,619.978,511.653,625.081z M518.871,606.082c0.532-3.489,1.072-7.102,1.64-10.71
	c0.153-0.974,0.324-1.954,0.602-2.897c0.368-1.25,0.851-2.466,1.283-3.697c1.238,0.613,2.729,0.965,3.675,1.881
	c6.838,6.629,13.573,13.365,20.314,20.092c0.461,0.459,0.719,1.121,1.353,2.143C537.779,610.542,528.561,608.367,518.871,606.082z
	 M511.557,396.401c4.446-2.309,7.447-0.72,10.43,3.954c10.784,16.896,16.023,35.886,21.118,54.937
	c2.932,10.959,5.927,21.913,8.407,32.979c2.442,10.894,4.278,21.925,6.352,32.901c0.087,0.458-0.116,0.972-0.216,1.69
	c-25.669-5.353-51.321-9.951-78.196-6.439c4.652-24.751,9.202-48.964,13.753-73.175c-0.311-0.099-0.622-0.198-0.934-0.297
	c-0.957,3.094-2.105,6.144-2.84,9.29c-3.466,14.868-6.873,29.751-10.189,44.652c-1.788,8.041-3.361,16.131-5.009,24.202
	c-1.309,6.405-0.395,9.259,5.397,11.6c4.93,1.993,5.89,4.711,5.667,9.82c-0.268,6.144-2.83,10.267-7.072,14.148
	c-14.98,13.709-31.19,25.811-48.19,36.844c-6.303,4.091-13.408,6.252-21.091,6.114c-5.956-0.105-11.916-0.021-18.278-0.021
	c0.137-1.408-0.077-2.639,0.395-3.488c2.257-4.067,4.813-7.97,7.028-12.058c1.206-2.225,2.399-4.625,2.816-7.078
	c2.478-14.611,4.389-29.325,7.128-43.884c5.284-28.078,10.658-56.148,16.664-84.078c3.115-14.485,8.004-28.534,16.444-40.999
	c0.913-1.347,2.473-2.257,3.732-3.37c0.871,1.246,1.857,2.427,2.593,3.748c3.11,5.593,8.048,8.594,14.206,8.79
	c6.34,0.201,12.607-0.961,18.345-4.02C490.523,407.565,500.99,401.886,511.557,396.401z M564.691,295.486
	c-1.162,6.649-2.168,12.368-3.16,18.088c-1.211,6.982-2.45,13.958-3.594,20.95c-0.53,3.239-2.452,5.183-5.02,7.124
	c-16.29,12.316-34.958,19.572-54.307,25.001c-10.835,3.04-22.068,5.083-33.261,6.31c-11.992,1.314-24.168,1.804-36.225,1.43
	c-11.488-0.357-23.095-1.464-34.345-3.743c-13.95-2.828-27.776-6.742-39.897-14.779c-8.851-5.867-12.42-14.889-14.377-24.824
	c-1.325-6.725-2.787-13.423-4.17-20.135c-0.17-0.824-0.24-1.669-0.458-3.248c3.499,1.586,6.496,2.944,9.361,4.243
	c-2.168-4.607-4.648-9.343-6.646-14.275c-1.82-4.493-3.434-9.127-4.515-13.842c-0.542-2.362,0.146-5.07,0.554-7.577
	c1.566-9.643,3.442-19.242,10.114-26.915c2.096-2.411,4.859-4.243,7.317-6.339c0.342,0.256,0.683,0.511,1.024,0.768
	c-0.109,2.437,0.21,4.988-0.401,7.291c-2.736,10.314-1.334,20.628-0.104,30.886c1.465,12.226,6.112,23.483,13.359,33.293
	c3.426,4.638,8.349,8.704,13.446,11.44c7.201,3.866,15.406-0.299,19.408-8.253c3.608-7.173,4.042-14.901,4.318-22.633
	c0.413-11.585-1.802-22.854-5.704-33.67c-4.089-11.334-9.693-21.876-19.662-29.368c-8.067-6.062-17.036-7.64-26.674-4.907
	c-12.019,3.41-18.872,12.444-24.117,22.98c-2.264,4.547-4.068,9.323-6.081,13.996c-0.328-0.064-0.656-0.127-0.984-0.191
	c-2.33-41.215,9.315-79.555,24.9-117.425c5.825,21.958,14.556,42.252,29.844,59.158c15.4,17.029,33.407,30.01,56.889,36.338
	c-4.287-3.599-7.853-6.331-11.104-9.395c-3.22-3.033-7.22-5.544-8.539-11.304c3.782,2.336,6.838,4.422,10.069,6.184
	c13.396,7.302,27.749,11.541,42.909,13.118c0.857,0.089,1.687,0.43,2.544,0.565c4.984,0.789,9.578,1.611,12.801-4.306
	c1.734-3.186,5.594-5.214,8.495-7.765c0.208,0.221,0.416,0.441,0.624,0.662c-0.664,3.09-1.409,6.167-1.979,9.274
	c-3.474,18.903-1.647,37.2,6.463,54.729c3.766,8.138,9.09,14.833,17.353,18.954c6.678,3.333,16.999,1.7,22.149-2.528
	c11.428-9.379,14.319-22.376,15.505-35.947c0.835-9.568,0.508-19.193-2.404-28.555c-0.985-3.167-1.205-6.57-2.178-9.741
	c-0.766-2.492-2.152-4.791-2.667-7.922c3.031,2.357,6.112,4.654,9.085,7.083c6.508,5.32,11.082,12.25,13.625,20.014
	c1.25,3.817,0.206,8.708-0.793,12.875c-2.545,10.611-5.649,21.089-8.542,31.659C557.396,299.098,560.463,297.58,564.691,295.486z
	 M377.98,45.688c-13.686,25.418-13.479,52.789-15.298,79.329C352.917,98.198,360.869,64.553,377.98,45.688z M473.895,148.206
	c-0.084-1.003-0.013-2.02-0.013-3.03c0.374-0.144,0.749-0.287,1.124-0.43c1.301,1.932,2.615,3.854,3.9,5.797
	c3.174,4.798,6.333,9.607,9.501,14.409c1.346,2.04,2.523,4.225,4.097,6.073c2.165,2.544,4.524,4.949,6.993,7.204
	c4.378,3.999,8.632,8.211,13.419,11.668c9.235,6.668,18.654,13.112,28.291,19.184c6.329,3.986,13.224,7.067,19.766,10.729
	c3.323,1.86,3.6,4.994,2.521,9.271c-2.878-2.388-5.331-4.598-7.959-6.575c-12.357-9.295-25.679-16.187-41.683-15.831
	c-18.421,0.409-32.745,10.43-36.928,29.183c-0.258,1.153-1.002,2.198-1.519,3.293c-0.474-0.071-0.947-0.141-1.421-0.211
	c-0.285-5.418-0.874-10.842-0.789-16.255c0.147-9.392,0.84-18.772,1.067-28.163c0.297-12.231,0.433-24.467,0.48-36.702
	C474.756,154.616,474.162,151.412,473.895,148.206z M709.566,264.126c-6.232-2.768-11.366-7.68-15.175-13.436
	c-6.799-10.276-12.883-21.038-19.021-31.738c-3.41-5.945-6.329-12.175-9.457-18.282c-0.311-0.604-0.543-1.247-0.811-1.872
	c0.306-0.176,0.612-0.352,0.919-0.527c3.487,5.504,7.078,10.945,10.439,16.525c6.566,10.9,12.689,22.083,19.619,32.745
	C699.979,253.542,705.12,258.734,709.566,264.126z M694.134,223.439c-5.302-3.706-10.1-8.144-15.042-12.35
	c-3.125-2.661-4.557-6.281-4.732-10.281c-1.243-28.095-11.773-53.254-24.966-77.416c-16.633-30.46-38.395-56.658-67.128-76.516
	C547.792,23.052,510.01,9.23,467.554,10.205c-0.492,0.011-0.983,0.044-1.698,0.078c0.245,0.696,0.447,1.273,0.685,1.947
	c-7.148-2.403-12.04-2.274-24.245,0.731c11.605,0.833,21.153,4.883,29.662,12.831c-6.008-2.047-11.276-4.407-16.798-5.573
	c-5.904-1.248-12.039-1.473-18.089-1.955c-5.279-0.419-9.153,3.08-13.147,5.603c-9.938,6.278-18.305,14.27-24.107,24.678
	c-0.284,0.51-0.655,0.972-0.985,1.457c-0.356-0.123-0.714-0.247-1.07-0.371c1.352-4.986,2.702-9.974,4.233-15.622
	c-2.525,2.771-4.722,5.183-6.919,7.594c2.277-10.075,8.258-17.208,17.215-22.088c-10.152,2.272-19.819,5.729-29.077,10.406
	c-33.729,17.036-57.905,43.868-76.876,75.75c-12.44,20.905-21.577,43.381-26.96,67.12c-3.188,14.063-5.354,28.417-6.995,42.753
	c-1.301,11.361-1.681,22.907-1.425,34.347c0.324,14.491,1.67,28.967,6.574,42.815c0.816,2.303,1.852,4.528,2.117,7.366
	c-2.247-2.611-4.637-5.111-6.713-7.851c-7.391-9.752-10.948-21.139-13.428-32.885c-3.156-14.947-3.129-30.01-1.711-45.201
	c1.952-20.915,6.506-41.213,13.697-60.874c8.737-23.885,21.005-45.923,36.142-66.371c11.296-15.26,24.285-28.865,39.414-40.353
	c20.37-15.468,42.878-26.488,67.953-31.951c5.09-1.109,10.463-1.143,15.408-2.649c15.804-4.815,32.009-6.511,48.346-5.978
	c57.636,1.883,106.645,23.149,145.283,66.503c29.006,32.546,46.383,70.756,54.002,113.582c0.651,3.655,2.497,7.259,4.437,10.498
	c7.303,12.2,16.573,22.637,29.443,29.122c5.608,2.826,11.8,4.496,17.156,6.48C716.61,234.735,704.842,230.921,694.134,223.439z"/>
<path fill-rule="evenodd" clip-rule="evenodd" d="M0,561.379c69.975-0.006,139.949-0.002,209.923-0.02
	c55.23-0.014,110.459-0.054,165.689-0.081c4.855-0.002,9.711,0,15.217,0c-1.383,6.923-0.96,13.719-4.405,19.631
	c-4.225,7.248-7.41,14.829-8.721,23.534c-110.922,0-221.853,0-333.459,0c0,31.645,0,62.907,0,94.169c-11.748,0-23.497,0-35.245,0
	c0.064-22.527,0.135-45.055,0.189-67.582c0.021-8.682,0.003-17.364,0.003-26.156c-3.348,0-6.27,0-9.192,0
	C0,590.376,0,575.877,0,561.379z"/>
<path fill-rule="evenodd" clip-rule="evenodd" d="M767.904,604.125c-8.781,0.176-17.562,0.481-26.343,0.504
	c-22.57,0.059-45.14-0.002-67.709-0.037c-1.845-0.003-3.689-0.174-6.233-0.303c3.754-14.385,7.424-28.446,11.198-42.909
	c29.727,0,59.406,0,89.087,0C767.904,575.627,767.904,589.876,767.904,604.125z"/>
<path d="M239.936,555.385c-0.021-5.273-0.024-5.193-5.35-5.356c-2.083-0.064-4.97,0.161-6.057-1.042
	c-2.223-2.461-4.832-2.318-7.466-2.583c-19.634-1.971-39.26-4.047-58.918-5.75c-11.034-0.955-22.12-1.397-33.192-1.802
	c-4.351-0.158-8.736,0.337-13.092,0.69c-2.054,0.168-2.961-0.612-3.229-2.581c-1.476-10.879-2.995-21.752-4.571-33.149
	c1.478,0,2.461-0.087,3.424,0.013c28.778,2.991,57.641,2.597,86.504,2.149c6.738-0.104,7.993-1.32,7.44-8.05
	c-1.751-21.288-3.587-42.567-5.49-63.842c-2.637-29.486-5.67-58.942-7.856-88.462c-0.602-8.129-3.644-12.442-11.112-15.44
	c-38.905-15.621-77.642-31.663-116.469-47.478c-1.484-0.604-3.455-0.894-4.947-0.461c-13.218,3.837-26.401,7.802-39.544,11.891
	c-3.514,1.094-5.453,3.473-5.208,7.594c0.651,10.992,0.984,22.001,1.514,33.001c1.429,29.647,2.956,59.29,4.323,88.94
	c0.935,20.274,1.657,40.558,2.495,60.836c0.226,5.467,1.722,7.198,7.219,8.071c6.642,1.056,13.304,1.985,19.965,2.917
	c7.848,1.1,15.704,2.145,23.978,3.271c1.039,13.168,2.057,26.077,3.11,39.416c-9.006,0-17.147,0-25.444,0
	c-0.239,2.674-0.447,4.996-0.707,7.892c-5.598,0-11.081,0-16.503,0c-0.369,1.903-0.625,3.225-0.873,4.509
	c-8.327,0.954-8.673,1.339-7.204,7.86c71.016,0,142.021,0,213.262,0C239.936,557.111,239.938,556.249,239.936,555.385z"/>
<path fill-rule="evenodd" clip-rule="evenodd" d="M66.875,303.873c-0.206-3.26-0.042-6.543-0.042-10.637
	c39.626,15.681,78.646,31.122,117.813,46.621c1.405-4.462-2.093-4.74-4.362-5.669c-37.897-15.51-75.821-30.958-113.742-46.41
	c-1.176-0.479-2.394-0.852-4.062-1.44c1.078,17.152,2.154,33.585,3.135,50.022c2.359,39.536,4.691,79.072,6.987,118.611
	c0.336,5.782,0.23,5.707,5.873,6.595c32.807,5.161,65.607,10.361,98.408,15.553c6.368,1.008,12.732,2.038,19.098,3.058
	c0.24-0.407,0.481-0.814,0.722-1.222c-0.971-0.794-1.846-2.09-2.931-2.298c-6.616-1.27-13.281-2.284-19.927-3.397
	c-30.526-5.114-61.049-10.245-91.579-15.34c-6.306-1.052-6.31-0.993-6.657-7.537c-0.073-1.371-0.238-2.738-0.328-4.109
	c-0.364-5.569-0.716-11.142-1.121-17.478"/>
<path fill-rule="evenodd" clip-rule="evenodd" d="M299.417,558.65c1.176-7.441,16.099-16.835,27.634-17.657
	c13.94-0.995,32.471,8.093,35.38,17.657C341.44,558.65,320.556,558.65,299.417,558.65z M321.487,545.251
	c3.796,3.954,13.128,3.782,16.426,0C332.542,545.251,327.219,545.251,321.487,545.251z"/>
<path fill-rule="evenodd" clip-rule="evenodd" fill="#FFFFFF" d="M319.891,264.586c-2.33-41.215,9.315-79.555,24.9-117.425
	c5.825,21.958,14.556,42.252,29.844,59.158c15.4,17.029,33.407,30.01,56.889,36.338c-4.287-3.599-7.853-6.331-11.104-9.395
	c-3.22-3.033-7.22-5.544-8.539-11.304c3.782,2.336,6.838,4.422,10.069,6.184c13.396,7.302,27.749,11.541,42.909,13.118
	c0.857,0.089,1.687,0.43,2.544,0.565c4.984,0.789,9.578,1.611,12.801-4.306c1.734-3.186,5.594-5.214,8.495-7.765
	c0.208,0.221,0.416,0.441,0.624,0.662c-0.664,3.09-1.409,6.167-1.979,9.274c-3.474,18.903-1.647,37.2,6.463,54.729
	c3.766,8.138,9.09,14.833,17.353,18.954c6.678,3.333,16.999,1.7,22.149-2.528c11.428-9.379,14.319-22.376,15.505-35.947
	c0.835-9.568,0.508-19.193-2.404-28.555c-0.985-3.167-1.205-6.57-2.178-9.741c-0.766-2.492-2.152-4.791-2.667-7.922
	c3.031,2.357,6.112,4.654,9.085,7.083c6.508,5.32,11.082,12.25,13.625,20.014c1.25,3.817,0.206,8.708-0.793,12.875
	c-2.545,10.611-5.649,21.089-8.542,31.659c2.455-1.215,5.522-2.733,9.751-4.827c-1.162,6.649-2.168,12.368-3.16,18.088
	c-1.211,6.982-2.45,13.958-3.594,20.95c-0.53,3.239-2.452,5.183-5.02,7.124c-16.29,12.316-34.958,19.572-54.307,25.001
	c-10.835,3.04-22.068,5.083-33.261,6.31c-11.992,1.314-24.168,1.804-36.225,1.43c-11.488-0.357-23.095-1.464-34.345-3.743
	c-13.95-2.828-27.776-6.742-39.897-14.779c-8.851-5.867-12.42-14.889-14.377-24.824c-1.325-6.725-2.787-13.423-4.17-20.135
	c-0.17-0.824-0.24-1.669-0.458-3.248c3.499,1.586,6.496,2.944,9.361,4.243c-2.168-4.607-4.648-9.343-6.646-14.275
	c-1.82-4.493-3.434-9.127-4.515-13.842c-0.542-2.362,0.146-5.07,0.554-7.577c1.566-9.643,3.442-19.242,10.114-26.915
	c2.096-2.411,4.859-4.243,7.317-6.339c0.342,0.256,0.683,0.511,1.024,0.768c-0.109,2.437,0.21,4.988-0.401,7.291
	c-2.736,10.314-1.334,20.628-0.104,30.886c1.465,12.226,6.112,23.483,13.359,33.293c3.426,4.638,8.349,8.704,13.446,11.44
	c7.201,3.866,15.406-0.299,19.408-8.253c3.608-7.173,4.042-14.901,4.318-22.633c0.413-11.585-1.802-22.854-5.704-33.67
	c-4.089-11.334-9.693-21.876-19.662-29.368c-8.067-6.062-17.036-7.64-26.674-4.907c-12.019,3.41-18.872,12.444-24.117,22.98
	c-2.264,4.547-4.068,9.323-6.081,13.996C320.547,264.714,320.219,264.65,319.891,264.586z"/>
<path fill-rule="evenodd" clip-rule="evenodd" fill="#FFFFFF" d="M479.451,516.422c4.652-24.751,9.202-48.964,13.753-73.175
	c-0.311-0.099-0.622-0.198-0.934-0.297c-0.957,3.094-2.105,6.144-2.84,9.29c-3.466,14.868-6.873,29.751-10.189,44.652
	c-1.788,8.041-3.361,16.131-5.009,24.202c-1.309,6.405-0.395,9.259,5.397,11.6c4.93,1.993,5.89,4.711,5.667,9.82
	c-0.268,6.144-2.83,10.267-7.072,14.148c-14.98,13.709-31.19,25.811-48.19,36.844c-6.303,4.091-13.408,6.252-21.091,6.114
	c-5.956-0.105-11.916-0.021-18.278-0.021c0.137-1.408-0.077-2.639,0.395-3.488c2.257-4.067,4.813-7.97,7.028-12.058
	c1.206-2.225,2.399-4.625,2.816-7.078c2.478-14.611,4.389-29.325,7.128-43.884c5.284-28.078,10.658-56.148,16.664-84.078
	c3.115-14.485,8.004-28.534,16.444-40.999c0.913-1.347,2.473-2.257,3.732-3.37c0.871,1.246,1.857,2.427,2.593,3.748
	c3.11,5.593,8.048,8.594,14.206,8.79c6.34,0.201,12.607-0.961,18.345-4.02c10.507-5.6,20.974-11.278,31.54-16.764
	c4.446-2.309,7.447-0.72,10.43,3.954c10.784,16.896,16.023,35.886,21.118,54.937c2.932,10.959,5.927,21.913,8.407,32.979
	c2.442,10.894,4.278,21.925,6.352,32.901c0.087,0.458-0.116,0.972-0.216,1.69C531.979,517.509,506.326,512.911,479.451,516.422z"/>
<path fill-rule="evenodd" clip-rule="evenodd" fill="#FFFFFF" d="M729.076,232.145c-12.466,2.591-24.234-1.223-34.942-8.706
	c-5.302-3.706-10.1-8.144-15.042-12.35c-3.125-2.661-4.557-6.281-4.732-10.281c-1.243-28.095-11.773-53.254-24.966-77.416
	c-16.633-30.46-38.395-56.658-67.128-76.516C547.792,23.052,510.01,9.23,467.554,10.205c-0.492,0.011-0.983,0.044-1.698,0.078
	c0.245,0.696,0.447,1.273,0.685,1.947c-7.148-2.403-12.04-2.274-24.245,0.731c11.605,0.833,21.153,4.883,29.662,12.831
	c-6.008-2.047-11.276-4.407-16.798-5.573c-5.904-1.248-12.039-1.473-18.089-1.955c-5.279-0.419-9.153,3.08-13.147,5.603
	c-9.938,6.278-18.305,14.27-24.107,24.678c-0.284,0.51-0.655,0.972-0.985,1.457c-0.356-0.123-0.714-0.247-1.07-0.371
	c1.352-4.986,2.702-9.974,4.233-15.622c-2.525,2.771-4.722,5.183-6.919,7.594c2.277-10.075,8.258-17.208,17.215-22.088
	c-10.152,2.272-19.819,5.729-29.077,10.406c-33.729,17.036-57.905,43.868-76.876,75.75c-12.44,20.905-21.577,43.381-26.96,67.12
	c-3.188,14.063-5.354,28.417-6.995,42.753c-1.301,11.361-1.681,22.907-1.425,34.347c0.324,14.491,1.67,28.967,6.574,42.815
	c0.816,2.303,1.852,4.528,2.117,7.366c-2.247-2.611-4.637-5.111-6.713-7.851c-7.391-9.752-10.948-21.139-13.428-32.885
	c-3.156-14.947-3.129-30.01-1.711-45.201c1.952-20.915,6.506-41.213,13.697-60.874c8.737-23.885,21.005-45.923,36.142-66.371
	c11.296-15.26,24.285-28.865,39.414-40.353c20.37-15.468,42.878-26.488,67.953-31.951c5.09-1.109,10.463-1.143,15.408-2.649
	c15.804-4.815,32.009-6.511,48.346-5.978c57.636,1.883,106.645,23.149,145.283,66.503c29.006,32.546,46.383,70.756,54.002,113.582
	c0.651,3.655,2.497,7.259,4.437,10.498c7.303,12.2,16.573,22.637,29.443,29.122C717.528,228.49,723.72,230.16,729.076,232.145z"/>
<path fill-rule="evenodd" clip-rule="evenodd" fill="#FFFFFF" d="M317.574,419.22c4.835,5.682,9.671,11.363,14.507,17.045
	c0.374-0.251,0.749-0.502,1.122-0.754c-1.074-1.976-1.993-4.058-3.252-5.908c-3.088-4.536-6.34-8.961-9.51-13.441
	c-0.792-1.119-1.905-2.195-2.185-3.445c-0.365-1.626-0.046-3.404-0.021-5.117c1.466,0.6,3.377,0.805,4.322,1.868
	c4.057,4.564,7.824,9.384,11.707,14.104c1,1.215,2.034,2.402,3.051,3.603c0.373-0.177,0.747-0.354,1.119-0.531
	c-0.726-1.63-1.19-3.452-2.223-4.854c-4.296-5.826-8.85-11.464-13.099-17.322c-0.922-1.271-0.975-3.173-1.428-4.783
	c1.9,0.36,4.517,0.053,5.579,1.192c5.513,5.919,10.633,12.204,15.878,18.371c0.686,0.806,1.298,1.673,2.404,2.211
	c-2.027-9.256-10.004-14.951-14.108-23.111c2.329-1.967,4.297-0.588,5.681,0.76c5.523,5.386,11.11,10.75,16.128,16.592
	c3.159,3.677,5.349,8.187,8.167,12.627c0.527-1.023,1.443-2.522,2.098-4.128c1.364-3.348,2.202-6.979,3.996-10.062
	c1.443-2.479,3.975-4.325,6.025-6.452c0.45,0.26,0.9,0.519,1.351,0.779c0,1.15,0.056,2.306-0.01,3.453
	c-0.403,7.088-0.714,14.185-1.303,21.258c-0.35,4.203-0.734,8.485-1.866,12.518c-1.135,4.039-0.361,6.984,2.489,9.927
	c6.823,7.046,13.562,14.18,20.108,21.482c1.766,1.969,3.197,4.523,3.953,7.057c2.035,6.822,3.09,13.75,0.677,20.822
	c-1.317,3.86-3.728,6.628-7.232,8.412c-2.677,1.362-5.011,1.096-7.01-1.729c-7.659-10.83-15.589-21.469-23.209-32.325
	c-2.22-3.162-3.815-6.777-5.564-10.252c-0.978-1.942-1.875-3.07-4.529-3.281c-5.871-0.467-10.718-3.822-14.157-8.33
	c-5.05-6.624-9.558-13.688-13.955-20.774c-2.485-4.006-4.363-8.401-6.349-12.697c-0.562-1.215-0.54-2.7-0.786-4.062
	C316.618,419.7,317.096,419.459,317.574,419.22z"/>
<path fill-rule="evenodd" clip-rule="evenodd" fill="#FFFFFF" d="M492.521,657.311c-4.679-0.236-8.522-1.09-10.258-5.91
	c-3.416-9.489-6.247-19.041-2.259-29.013c1.397-3.492,3.685-6.619,5.341-10.022c0.942-1.935,1.958-4.071,2.032-6.149
	c0.277-7.774,0.026-15.565,0.261-23.342c0.317-10.509,0.912-21.01,1.36-31.515c0.111-2.607,2.089-2.569,3.755-2.501
	c6.916,0.281,13.825,0.721,20.737,1.104c0.37,0.021,0.739,0.08,1.11,0.086c5.789,0.091,5.941,0.115,5.027,5.661
	c-1.502,9.115-3.125,18.212-4.876,27.282c-1.729,8.949-4.291,17.789-5.288,26.809c-0.548,4.952,1.378,10.178,2.188,15.28
	c1.42,8.93,2.426,17.826-3.091,25.901c-0.726,1.062-1.791,2.229-2.942,2.604C501.215,655.018,496.71,656.147,492.521,657.311z"/>
<path fill-rule="evenodd" clip-rule="evenodd" fill="#FFFFFF" d="M475.006,144.746c1.301,1.932,2.615,3.854,3.9,5.797
	c3.174,4.798,6.333,9.607,9.501,14.409c1.346,2.04,2.523,4.225,4.097,6.073c2.165,2.544,4.524,4.949,6.993,7.204
	c4.378,3.999,8.632,8.211,13.419,11.668c9.235,6.668,18.654,13.112,28.291,19.184c6.329,3.986,13.224,7.067,19.766,10.729
	c3.323,1.86,3.6,4.994,2.521,9.271c-2.878-2.388-5.331-4.598-7.959-6.575c-12.357-9.295-25.679-16.187-41.683-15.831
	c-18.421,0.409-32.745,10.43-36.928,29.183c-0.258,1.153-1.002,2.198-1.519,3.293c-0.474-0.071-0.947-0.141-1.421-0.211
	c-0.285-5.418-0.874-10.842-0.789-16.255c0.147-9.392,0.84-18.772,1.067-28.163c0.297-12.231,0.433-24.467,0.48-36.702
	c0.013-3.203-0.581-6.407-0.849-9.613c-0.084-1.003-0.013-2.02-0.013-3.03C474.256,145.032,474.631,144.889,475.006,144.746z"/>
<path fill-rule="evenodd" clip-rule="evenodd" fill="#FFFFFF" d="M482.557,577.413c0,8.799,0,16.815,0,24.991
	c-14.531-1.213-28.655-2.392-42.78-3.57c-0.117-0.559-0.233-1.118-0.351-1.678C453.688,590.627,467.95,584.099,482.557,577.413z"/>
<path fill-rule="evenodd" clip-rule="evenodd" fill="#FFFFFF" d="M411.288,616.869c-4.005,1.262-8.021,2.486-12.012,3.792
	c-13.15,4.309-26.339,8.51-39.424,13.009c-17.1,5.879-27.512,17.874-31.578,35.449c-0.163,0.706-0.48,1.377-0.992,1.925
	c2.363-16.183,6.91-31.054,23.241-39.035C366.102,624.395,395.549,616.697,411.288,616.869z"/>
<path fill-rule="evenodd" clip-rule="evenodd" fill="#FFFFFF" d="M362.682,125.017c-9.765-26.819-1.813-60.464,15.298-79.329
	C364.294,71.106,364.501,98.477,362.682,125.017z"/>
<path fill-rule="evenodd" clip-rule="evenodd" fill="#FFFFFF" d="M547.737,612.892c-9.958-2.35-19.177-4.525-28.866-6.811
	c0.532-3.489,1.072-7.102,1.64-10.71c0.153-0.974,0.324-1.954,0.602-2.897c0.368-1.25,0.851-2.466,1.283-3.697
	c1.238,0.613,2.729,0.965,3.675,1.881c6.838,6.629,13.573,13.365,20.314,20.092C546.846,611.208,547.104,611.871,547.737,612.892z"
	/>
<path fill-rule="evenodd" clip-rule="evenodd" fill="#FFFFFF" d="M423.713,439.205c-3.576,12.869-7.198,25.906-10.961,39.45
	c-3.569-4.686-6.741-8.848-10.001-13.127C409.604,456.923,416.679,448.039,423.713,439.205z"/>
<path fill-rule="evenodd" clip-rule="evenodd" fill="#FFFFFF" d="M709.566,264.126c-6.232-2.768-11.366-7.68-15.175-13.436
	c-6.799-10.276-12.883-21.038-19.021-31.738c-3.41-5.945-6.329-12.175-9.457-18.282c-0.311-0.604-0.543-1.247-0.811-1.872
	c0.306-0.176,0.612-0.352,0.919-0.527c3.487,5.504,7.078,10.945,10.439,16.525c6.566,10.9,12.689,22.083,19.619,32.745
	C699.979,253.542,705.12,258.734,709.566,264.126z"/>
<path fill-rule="evenodd" clip-rule="evenodd" d="M562.764,561.442c10.162,0,19.598,0,29.414,0c-0.25,1.583-0.38,2.916-0.678,4.212
	c-2.775,12.04-5.533,24.085-8.451,36.092c-0.277,1.139-2.156,2.992-2.374,2.871c-2.313-1.293-6.194,1.972-7.33-2.369
	C569.843,588.866,566.396,575.469,562.764,561.442z"/>
<path fill-rule="evenodd" clip-rule="evenodd" fill="#FFFFFF" d="M74.162,428.795c0.405,6.336,0.757,11.908,1.121,17.478
	c0.09,1.371,0.255,2.738,0.328,4.109c0.348,6.544,0.351,6.485,6.657,7.537c30.529,5.095,61.052,10.226,91.579,15.34
	c6.646,1.113,13.311,2.128,19.927,3.397c1.084,0.208,1.959,1.504,2.931,2.298c-0.24,0.407-0.481,0.814-0.722,1.222
	c-6.366-1.02-12.73-2.05-19.098-3.058c-32.801-5.191-65.602-10.392-98.408-15.553c-5.642-0.888-5.537-0.813-5.873-6.595
	c-2.296-39.539-4.628-79.075-6.987-118.611c-0.981-16.438-2.057-32.871-3.135-50.022c1.667,0.588,2.886,0.961,4.062,1.44
	c37.921,15.452,75.845,30.9,113.742,46.41c2.27,0.929,5.768,1.207,4.362,5.669c-39.167-15.499-78.187-30.94-117.813-46.621
	c0,4.094-0.164,7.377,0.042,10.637c0.064,1.024,0.066,2.108,0.066,3.202"/>
<path fill-rule="evenodd" clip-rule="evenodd" fill="#FFFFFF" d="M321.487,545.251c5.732,0,11.055,0,16.426,0
	C334.616,549.034,325.284,549.206,321.487,545.251z"/>
<path fill-rule="evenodd" clip-rule="evenodd" d="M151.894,459.231c-4.648-0.887-6.101-3.179-6.101-9.591
	c1.663,0.109,3.316,0.217,5.137,0.336C151.254,453.082,151.571,456.125,151.894,459.231z"/>
</svg>
