<?xml version="1.0" encoding="utf-8"?>
<!-- Generator: Adobe Illustrator 16.0.3, SVG Export Plug-In . SVG Version: 6.00 Build 0)  -->
<!DOCTYPE svg PUBLIC "-//W3C//DTD SVG 1.1//EN" "http://www.w3.org/Graphics/SVG/1.1/DTD/svg11.dtd">
<svg version="1.1" id="レイヤー_1" xmlns="http://www.w3.org/2000/svg" xmlns:xlink="http://www.w3.org/1999/xlink" x="0px"
	 y="0px" width="530.079px" height="530.078px" viewBox="0 0 530.079 530.078" enable-background="new 0 0 530.079 530.078"
	 xml:space="preserve">
<circle cx="265.039" cy="265.04" r="261.616"/>
<g>
	<path fill="#FFFFFF" d="M175.833,262.127H133.12c-9.492,0-16.95-7.458-16.95-16.95V101.442c0-9.492,7.458-16.95,16.95-16.95h42.714
		c56.725,0,82.715,30.284,82.715,79.325v14.916C258.548,228.001,236.175,262.127,175.833,262.127z M226.909,165.174
		c0-37.064-16.498-54.014-50.624-54.014H151.2c-2.712,0-4.972,2.26-4.972,4.972v113.451c0,2.712,2.26,4.972,4.972,4.972h25.085
		c34.578,0,50.624-18.532,50.624-56.273V165.174z"/>
	<path fill="#FFFFFF" d="M410.42,264.613c-13.107,0-16.724-1.808-21.244-9.266l-77.969-129.949c-0.678-1.13-1.131-1.582-1.582-1.582
		c-0.452,0-0.904,0.678-0.904,2.26l1.809,127.237c0,6.102-5.877,11.3-14.916,11.3c-9.04,0-14.916-4.972-14.916-11.074V95.34
		c0-11.074,7.458-13.786,18.531-13.786c12.883,0,17.629,1.582,22.6,9.944l75.258,126.785c0.678,1.13,1.131,1.582,1.582,1.582
		c0.452,0,0.904-0.678,0.904-2.26l-1.809-124.525c0-6.102,6.103-11.074,14.916-11.074c9.04,0,15.143,5.198,15.143,11.3v158.424
		C427.822,262.353,420.816,264.613,410.42,264.613z"/>
	<path fill="#FFFFFF" d="M193.461,467.969h-8.362c-49.494,0-73.449-38.646-73.449-87.688v-13.56
		c0-46.781,26.894-83.845,73.449-83.845h8.362c45.652,0,67.799,31.188,71.642,60.793v1.13c0,5.876-6.328,10.622-15.368,10.622
		c-9.718,0-15.594-5.424-16.724-11.752c-2.712-17.176-14.012-33.899-39.098-33.899h-8.588c-28.25,0-43.166,21.47-43.166,56.951
		v13.56c0,35.482,12.656,60.793,43.166,60.793h8.588c23.052,0,35.934-15.594,38.872-35.48c0.904-6.328,7.232-11.752,16.95-11.752
		c9.04,0,15.594,4.972,15.594,10.848v0.904C261.713,434.973,241.373,467.969,193.461,467.969z"/>
	<path fill="#FFFFFF" d="M410.645,464.127H303.747c-9.491,0-16.95-7.459-16.95-16.949V295.307c0-6.102,6.103-11.3,15.143-11.3
		c9.039,0,15.142,5.198,15.142,11.3v136.277c0,2.711,2.26,4.971,4.972,4.971h88.592c5.424,0,10.17,5.424,10.17,13.787
		C420.814,458.703,416.068,464.127,410.645,464.127z"/>
</g>
</svg>
