<svg xmlns="http://www.w3.org/2000/svg" xml:space="preserve" width="654.81" height="654.809"><circle cx="327.405" cy="327.405" r="327.405" fill="#FFF"/><path d="M595.585 167.008c-.502-6.143-2.254-12.234-3.914-18.214-1.055-3.796-3.973-6.524-7.893-7.328-5.725-1.172-11.535-2.535-17.326-2.62-11.402-.169-16.15 3.136-19.846 13.984-2.77 8.128-5.23 16.513-6.459 24.982A1059 1059 0 0 0 533.549 234c-1.068 11.786-1.939 23.697.391 35.522.236 1.197-.156 2.833-.857 3.853-7.223 10.506-12.039 22.153-16.201 34.085-7.275 20.852-12.131 42.277-14.217 64.27-1.348 14.217-1.82 28.496 1.383 42.551 2.752 12.086 7.916 22.449 21.723 25.793.135 9.434.006 18.906-1.971 28.232-.432 2.043-1.813 3.885-3.09 6.5-5.51-10.703-14.215-15.113-24.586-16.447-8.908-1.145-17.902-1.623-26.859-2.381-1.305-.111-2.619-.135-3.615-.182 0-6.221.438-11.986-.078-17.664-2.061-22.729-10.873-42.936-23.607-61.625-1.305-1.914-2.289-4.146-2.961-6.371-6.279-20.814-12.297-41.708-18.711-62.479-5.684-18.407-14.564-35.038-28.615-48.577-.729-.702-1.207-1.661-1.541-2.134l18.787-13.313c-1.041 4.675-1.365 9.115-6.467 11.899 11.432-2.66 20.24-8.484 28.113-16.002q.42.36.84.717l-3.949 11.355c4.723-2.774 9.41-5.815 13.324-9.647 2.301-2.253 4.635-3.952 7.508-5.234 11.137-4.969 18.453-13.816 24.191-24.205 1.207-2.184 2.324-4.416 3.482-6.625l1.113.507c.789 9.744-1.781 18.565-7.842 26.76 5.6-1.964 9.938-5.354 13.723-9.556 10.455-11.609 13.748-25.76 14.455-40.819.082-1.755.012-3.517.012-5.276 5.838 7.732 7.873 22.612-.563 35.318 3.043-2.455 6.191-4.921 8.457-8.029 6.676-9.155 7.402-19.707 5.975-30.486-1.459-11.02-5.939-21.11-10.119-31.296-1.975-4.813-3.588-9.815-4.869-14.857-1.01-3.974-1.186-8.152-1.855-12.22-4.205-25.538-12.74-49.239-28.965-69.848-9.33-11.852-20.102-21.353-32.263-28.603a325 325 0 0 0-26.431-7.775c14.448 4.378 27.772 11.268 39.477 21.467 1.371 1.194 2.66 2.481 3.986 3.726l-.338.361c-3.801-2.715-7.486-5.61-11.422-8.114-17.318-11.024-36.395-16.825-56.727-18.878-20.223-2.042-40.254-1.138-59.875 4.366-22.834 6.406-43.146 17.357-58.976 35.376-12.509 14.239-20.56 30.657-21.385 49.955-.335 7.839-.055 15.703-.313 23.554-3.746-15.108-2.768-30.173.304-45.283-9.594 16.573-15.726 34.372-19.868 53.079 0-4.021-.344-8.078.055-12.059 3.064-30.637 17.841-55.295 39.662-76.119C283.747 19.79 311.05 8.968 341.33 5.137c14.318-1.813 28.68-2.046 42.924-.209A328 328 0 0 0 348.618.7a210 210 0 0 0-4.981.476c-28.599 3.109-54.422 13.359-77.503 30.517-2.505 1.862-5.313 3.512-7.302 5.841-6.471 7.576-13.01 15.146-18.825 23.22-11.609 16.123-19.815 33.788-22.376 53.753-1.269 9.899-1.27 19.703 1.843 29.301 1.679 5.177 5.023 10.268 7.992 12.289-2.219-6.656-1.99-13.055.278-20.328.542 1.889.854 2.924 1.137 3.967 2.261 8.361 5.988 15.977 12.422 21.87 2.335 2.139 2.778 4.297 2.215 6.957-2.068 9.766-4.062 19.552-6.399 29.254-2.51 10.422-5.994 20.645-7.922 31.162-2.132 11.63-.566 22.983 7.033 32.746 2.797 3.593 6.004 6.788 9.96 9.099-5.504-8.871-8.464-19.426-6.82-26.065 7.187 17.706 16.68 32.484 37.888 35.218-7.432-9.078-9.274-13.193-8.627-18.753l10.714 9.136.596-.683c-1.767-3.919-2.833-7.939-2.16-13.023 6.439 7.463 12.611 14.062 21.2 18.016-.619-4.561-1.057-8.829 1.06-12.946 3.078 3.263 5.684 6.64 8.903 9.262 3.193 2.6 7.007 4.439 10.547 6.612l.612-.585c-1.907-3.949-2.567-7.96-.925-12.605 6.07 7.654 11.583 1.739 17.601-.421-.916 4.539-3.199 7.666-7.021 9.78 7.209-.984 13.307-4.118 18.498-8.954 3.885 4.329 3.672 4.961.041 8.704-4.861 5.011-9.805 10.036-13.971 15.608-8.057 10.775-14.775 22.319-16.682 36.005-.411 2.95-.691 5.919-1.016 8.737-.517.202-.751.377-.978.37-11.989-.461-23.979-.919-35.965-1.461-.713-.032-1.668-.587-2.049-1.189-6.814-10.751-17.06-15.279-29.27-16.281-14.636-1.201-29.898 8.101-31.952 23.178-.217.113-.435.32-.656.324-5.499.076-10.998.164-16.497.176-2.25.004-5.04 1.588-6.251-1.953-.083-.246-.899-.307-1.383-.342-10.154-.748-11.224-.334-18.534 7.104-.175.178-.384.336-.52.539-3.351 5.063-8.162 6.016-13.964 5.982-37.887-.221-75.776-.148-113.665-.18-.67-.002-1.339-.102-2.259-.178.31-.836.419-1.316.65-1.729 5.728-10.273 13.869-18.598 21.937-26.965.573-.594 2.054-.65 3.019-.466 3.189.606 6.3 1.715 9.505 2.119 5.025.632 10.222 1.714 15.132 1.041 7.886-1.083 15.595-3.454 23.383-5.259 12.537-2.907 25.093-5.729 37.607-8.729 4.788-1.147 5.834-2.935 5.328-7.84-.102-.994-.177-1.994-.338-2.979-4.198-25.517-8.502-51.016-12.589-76.551-6.554-40.955-12.994-81.928-19.391-122.907-.581-3.723-2.194-6.523-5.149-8.747a1649 1649 0 0 1-11.388-8.665 330 330 0 0 0-10.648 9.856c4.466 3.001 8.929 6.009 13.46 8.909 4.321 2.766 6.56 6.578 7.326 11.598 4.222 27.667 8.466 55.331 12.856 82.972 3.508 22.086 7.24 44.137 10.864 66.205 1.296 7.891 2.63 15.775 3.827 23.681.755 4.986-.264 6.408-5.185 7.116-13.971 2.01-27.958 3.911-41.939 5.855-3.25.277-4.563-1.665-5.01-4.428a2123 2123 0 0 1-3.708-23.687c-5.405-35.947-10.847-71.888-16.157-107.85a9064 9064 0 0 1-5.53-38.128 327 327 0 0 0-3.433 4.433c3.588 24.642 7.18 49.284 10.811 73.92 5.355 36.344 10.896 72.661 16.329 108.994.22 1.473.352 2.999.224 4.474-.213 2.453-1.781 3.753-4.171 4.058-2.321.298-3.518-1.104-4.067-3.057-.64-2.278-1.173-4.604-1.527-6.942-6.145-40.649-12.377-81.287-18.341-121.962-2.386-16.272-4.734-32.55-7.072-48.83-21.834 31.091-38.393 66.149-48.388 103.883l.308 2.152c1.146 8.039 2.188 16.095 3.417 24.121.737 4.81 2.333 6.155 7.086 6.593 2.076.191 4.149.402 6.333.616 0 1.147.069 2.008-.01 2.854-1.489 15.926-3.266 31.832-4.401 47.783-.712 10.003-3.516 19.962-1.13 30.476-1.193.447-2.445.9-3.685 1.387-3.602 1.412-7.278 2.666-10.776 4.301-3.709 1.734-5.391 4.313-4.316 7.721.521 1.653.313 2.761-.28 3.634q.316 2.172.659 4.333 1.418-.822 2.85-1.621c1.097-.611 2.693-1.217 3.751-.875 11.909 3.861 24.229 4.945 36.602 5.49 17.274.76 34.514.254 51.57-2.877 4.406-.807 8.73-2.146 13.018-3.479 1.875-.582 3.701-1.566 5.31-2.707 4.054-2.873 4.229-5.623.227-8.643-2.337-1.762-5.147-3.148-7.958-3.99-15.812-4.74-32.104-6.145-48.519-6.484-7-.145-14.001-.164-21.002-.229-4.776-.045-7.056-2.107-7.28-6.955-.109-2.359.12-4.748.342-7.109q2.259-24.075 4.598-48.14c.179-1.841.577-3.661.873-5.491l.81.252-3.75 42.549c-.472 5.353-1.14 10.697-1.365 16.06-.246 5.857 1.573 7.355 7.421 7.4 30.88.234 61.759.566 92.64.807 8.125.063 16.252-.086 24.379-.135 1.453-.008 2.906 0 4.656.715-2.992 3.057-6.031 6.068-8.962 9.184a227 227 0 0 0-7.756 8.639c-3.23 3.801-2.313 8.277-1.465 12.516.464 2.318 2.79 3.006 5.083 3.018 6.376.035 12.752.074 19.128.086 29.755.053 59.51.098 89.265.145 1.125.002 2.251.031 3.375-.012 4.577-.172 6.313-1.783 6.644-6.32.133-1.826.022-3.668.022-5.77 3.671 0 6.766-.061 9.854.041.825.027 1.839.328 2.416.875 2.784 2.635 1.354 5.828.881 8.824-.386 2.449-1.292 4.662-4.308 4.857a70 70 0 0 1-4.494.166c-76.267.076-152.533.15-228.799.209-12.705.01-25.41-.021-38.114-.043a329 329 0 0 0 2.342 11.125c4.939-.01 9.878-.008 14.817-.008 36.129-.006 72.259-.002 108.388-.002v.051q65.633-.001 131.266.004c1.375 0 2.87-.293 4.094.148 1.491.535 3.392 1.408 3.972 2.664.925 2.002-.333 4.037-2.302 4.922-1.52.684-3.352.928-5.046.932-39.004.072-78.009.088-117.013.105-45.328.021-90.656.034-135.985.048a327 327 0 0 0 3.346 11.859c.969-1.265 2.278-2.273 3.971-2.956 3.507-1.414 5.284-.281 5.367 3.498.184 8.373.3 16.75.296 25.125l-.001 1.761a326 326 0 0 0 11.094 24.575q.018-20.391.038-40.781c.002-2.371.089-4.756.359-7.109.48-4.193 2.872-6.588 7.045-6.885 3.86-.273 7.741-.326 11.613-.33 54.894-.072 109.789-.119 164.683-.166 1.249 0 2.505.014 3.744.15 4.899.543 7.454 2.971 8.031 7.822.324 2.723.517 5.479.521 8.219.034 22.258.018 44.516.001 66.771-.029 38.387-.018 76.775-.148 115.162-.026 7.523 2.071 7.809-8.14 7.002-.206-.018-.394-.266-1.022-.713v-4.867c.024-35.887-.304-71.779.27-107.658.194-12.168-2.782-23.168-7.252-34.096-1.974-4.824-5.511-7.195-10.742-7.178-13.88.047-27.765-.152-41.637.193-3.307.084-7.271 1.074-9.716 3.109-6.409 5.336-12.179 11.445-18.138 17.314-3.122 3.074-4.114 6.92-4.103 11.268.074 29.141.115 58.281.156 87.421a327.4 327.4 0 0 0 56.79 34.472c2.005-2.566 5.066-4.148 8.57-4.104 6.152.078 11.455 5.492 11.343 11.578-.007.395-.039.783-.087 1.166a324 324 0 0 0 14.496 5.344c0-2.771-.003-5.556-.003-8.395h9.235c0 2.41-.016 4.631.003 6.85q.018 2.283.028 4.566c2.1.649 4.21 1.274 6.328 1.883q-.07-95.831-.113-191.662c-.001-2.998-.262-6.072.31-8.971.452-2.291 1.732-4.561 3.134-6.482 1.337-1.832 3.548-2.311 5.759-1.357 2.075.893 2.235 2.76 2.234 4.729-.006 19.246.019 38.49.026 57.736.007 16.623.001 33.244.001 49.865h-.173q.002 49.562-.003 99.122 1.618.404 3.241.791c.01-3.994-.03-7.988-.167-11.978-.103-2.969.564-4.65 3.265-6.268 10.317-6.18 15.702-14.863 10.491-28.188a110.4 110.4 0 0 0-8.454-17.076c-3.793-6.234-6.815-12.396-5.235-19.955.275-1.318.053-2.742.053-4.119-.005-43.641-.017-87.281-.001-130.922 0-1.734-.427-4.068.493-5.098 3.838-4.297 7.378-9.295 14.226-9.086 6.239.191 12.518.615 18.721.154 13.198-.98 16.673-5.25 16.051-18.572-.149-3.184-.282-6.371-.423-9.568 10.007 2.898 19.586 5.648 29.137 8.488.725.215 1.449.961 1.848 1.648 3.051 5.285.963 11.375-4.67 13.621-1.854.738-3.805 1.229-5.7 1.861-6.39 2.137-12.898 3.982-19.138 6.494-12.92 5.203-24.496 12.398-33.044 23.781-3.252 4.328-4.836 9.051-3.754 14.389.421 2.078.027 3.537-1.334 5.09-4.408 5.029-5.86 11.004-4.709 17.48.806 4.537 1.817 9.09 3.288 13.449 6.166 18.275 14.967 35.414 22.96 52.912 6.222 13.619 11.854 27.514 17.521 41.379 2.638 6.451 2.086 13-.978 19.266-2.468 5.047-5.042 10.041-7.563 15.061-3.241 6.459.394 12.521 7.647 12.135 2.979-.158 6.229-1.182 8.741-2.779 4.297-2.734 8.097-6.24 12.126-9.395.99-.777 2.064-1.447 3.1-2.164q.416.371.834.742c-1.012 1.922-1.988 3.863-3.043 5.76-3.372 6.074-1.1 9.996 5.859 10.021.865.004 1.746-.123 2.598-.303 2.852-.605 4.094.715 4.371 2.754-2.449 1.531-4.973 2.402-6.432 4.158-2.646 3.189-2.482 9.159-.498 13.699a332 332 0 0 0 28.98-1.452c.86-2.316 1.139-4.86.912-7.577-.377-4.541-2.951-7.248-7.494-8.025-.184-.031-.318-.357-1.084-1.27 2.08-.639 3.795-1.43 5.586-1.678 20.047-2.787 40.096-5.594 60.174-8.156 6.045-.77 12.246-1.525 18.266-1.008 7.434.637 14.847 1.52 22.253 2.468a326.5 326.5 0 0 0 42.818-22.399 11.5 11.5 0 0 0-1.54-.41c-1.838-.346-3.697-.697-5.559-.789-13.357-.658-26.719-1.244-40.076-1.873-1.568-.074-3.131-.264-4.773-.404-.113-1.688-.191-2.924-.279-4.158-.916-12.84-1.828-25.678-2.756-38.516-.223-3.072-1.031-5.863-3.5-8.02-.629-.547-1.041-1.672-1.061-2.541-.182-8.248-.232-16.5-.383-24.748-.035-2.029.695-2.771 2.826-2.904 14.469-.898 28.945-1.725 43.379-3.031 8.572-.775 17.1-2.213 25.592-3.676 7.113-1.225 10.67-5.074 11.906-12.145.365-2.09.637-4.209.734-6.324.104-2.277 1.008-3.66 2.873-5.195 3.111-2.559 6.426-5.514 8.076-9.039 2.172-4.645 3.316-9.936 4.006-15.068 1.045-7.789 1.365-15.678 1.889-23.529.152-2.266.707-3.48 3.359-3.836 5.434-.732 9.525-3.799 11.695-8.885 2.006-4.699 3.979-9.463 5.371-14.367 9.402-33.115 15.318-66.971 20.363-100.947 4.492-30.254 8.18-60.636 11.734-91.02 2.218-18.99 3.324-38.125 1.763-57.244"/><path fill="#FFF" d="M321.085 255.093c-8.201.552-16.46 1.106-24.652.727-13.197-.611-23.072-7.615-30.337-18.234-5.982-8.744-9.214-18.504-8.963-29.268.053-2.266.711-3.87 3.002-4.553.473-.141.912-.406 1.358-.63 9.194-4.61 11.562-9.064 9.105-19.085-1.598-6.522-4.044-12.839-6.165-19.229-.819-2.468-1.79-4.887-2.457-7.576 6.071 3.716 11.526 8.41 18.658 10.417-1.436-4.997-2.999-9.654-4.08-14.42-1.095-4.83-1.712-9.768-2.539-14.659l.949-.293 4.75 8.384.572-.269c0-7.17.04-14.34-.021-21.51-.023-2.696 1.287-3.259 3.797-3.83 5.032-1.144 7.507.997 10.129 4.969 8.962 13.575 20.79 23.856 36.255 29.564.586.216 1.154.48 1.734.709 3.287 1.293 4.502 3.411 4.17 7.173-1.084 12.217-1.842 24.482-6.816 35.913-1.967 4.52-4.531 8.777-7.219 13.907l7.861-5.006c-1.445 15.234-3.086 29.945 4.354 44.408-4.943.912-9.164 2.102-13.445 2.391"/><path d="M323.192 177.4c1.754-2.516 3.387-5.13 5.309-7.51 1.232-1.526.898-2.608-.119-3.952-6.736-8.891-15.257-15.43-25.748-19.234-2.545-.923-5.346-1.334-8.063-1.552-5.277-.421-6.443.544-6.198 5.744.21 4.461 1.081 8.895 1.71 13.333 1.244 8.774 2.204 17.605 3.908 26.291.974 4.962 2.956 9.78 4.966 14.455.657 1.526 2.779 3.201 4.337 3.311 1.208.084 2.91-1.961 3.791-3.423 1.004-1.665 1.603-3.69 1.922-5.634 1.92-11.706 1.526-23.41-.367-35.082-.292-1.799-.841-3.557-1.271-5.333l.756-.675c3.424 2.163 6.858 4.31 10.268 6.496 2.283 1.463 3.326 3.589 3.418 6.3.069 2.074.368 4.139.565 6.208z"/><path fill="#FFF" d="m282.882 102.201.559-.027 5.625 15.412-8.083.748zM337.063 251.479c-1.734-7.263-1.375-14.055.945-20.735 1.35 6.438 2.697 12.876 4.125 19.692zM386.927 149.574c4.199-.096 7.688 1.61 10.461 4.696 11.244 12.509 11.66 39.141-11.416 48.785-.428.179-.951.128-1.168.154zM54.688 305.563a2356 2356 0 0 0-4.626-26.528c-.279-1.556-.513-3.055-2.892-3.083-4.384-.051-4.477-.134-4.873 4.397-1.81 20.749-3.638 41.496-5.413 62.248-.174 2.033-.023 4.096-.023 6.145l1.113.234c5.347-11.9 14.823-20.674 23.32-30.377-4.828-3.415-5.79-8.166-6.606-13.036"/><path fill="#FFF" d="M54.688 305.563a2356 2356 0 0 0-4.626-26.528c-.279-1.556-.513-3.055-2.892-3.083-4.384-.051-4.477-.134-4.873 4.397-1.81 20.749-3.638 41.496-5.413 62.248-.174 2.033-.023 4.096-.023 6.145l1.113.234c5.347-11.9 14.823-20.674 23.32-30.377-4.828-3.415-5.79-8.166-6.606-13.036"/><path fill="#FFF" d="M54.688 305.563a2356 2356 0 0 0-4.626-26.528c-.279-1.556-.513-3.055-2.892-3.083-4.384-.051-4.477-.134-4.873 4.397-1.81 20.749-3.638 41.496-5.413 62.248-.174 2.033-.023 4.096-.023 6.145l1.113.234c5.347-11.9 14.823-20.674 23.32-30.377-4.828-3.415-5.79-8.166-6.606-13.036"/><path fill="#FFF" d="M54.688 305.563a2356 2356 0 0 0-4.626-26.528c-.279-1.556-.513-3.055-2.892-3.083-4.384-.051-4.477-.134-4.873 4.397-1.81 20.749-3.638 41.496-5.413 62.248-.174 2.033-.023 4.096-.023 6.145l1.113.234c5.347-11.9 14.823-20.674 23.32-30.377-4.828-3.415-5.79-8.166-6.606-13.036"/><path fill="none" d="M180.171 373.819c-2.763-.047-4.824-.512-5.242-3.615-4.454 1.877-11.386 2.146-15.873.691l-.792-7.457-9.325 10.561c14.967 1.488 109.846 3.197 112.682 1.68-2.802-.141-4.84-.297-6.881-.34-24.856-.534-49.711-1.089-74.569-1.52"/><path fill="#FFF" d="m37.973 348.977-1.113-.234c0-2.049-.15-4.111.023-6.145 1.774-20.752 3.603-41.499 5.413-62.248.396-4.531.488-4.448 4.873-4.397 2.379.028 2.613 1.526 2.892 3.083a2356 2356 0 0 1 4.626 26.528c.816 4.869 1.778 9.62 6.606 13.036-8.497 9.703-17.973 18.477-23.32 30.377M195.435 609.817c-5.401.047-10.844-5.352-10.917-10.826-.082-6.201 4.79-11.26 11.014-11.436 6.181-.176 11.134 4.705 11.257 11.09.113 5.852-5.238 11.117-11.354 11.172M205.116 569.575c-6.736.055-13.474-.027-20.21-.018-12.35.018-24.701.074-37.051.086-3.9.002-3.988-.043-3.949-3.984.031-3.086-.754-7.041.825-8.98 1.257-1.543 5.538-.742 8.479-.768 7.734-.07 15.469-.023 23.204-.023v-.219c9.73 0 19.462.061 29.192-.041 2.626-.027 3.989.645 3.729 3.561-.177 1.975.072 3.986.066 5.982-.01 3.82-.478 4.372-4.285 4.404M208.953 521.245c.03 3.873-.315 4.234-4.308 4.248-7.866.025-15.732-.039-23.598-.045-10.364-.004-20.727.029-31.089.01-1.841-.004-3.681-.182-5.836-.295 0-5.656-.021-11 .009-16.344.013-2.244 1.708-2.088 3.214-2.09 7.866-.014 15.732-.01 23.599-.018 11.237-.008 22.475.053 33.71-.082 3.083-.037 4.19 1.111 4.094 4.133-.112 3.488.178 6.987.205 10.483M208.716 537.53c.041.328-2.817 1.445-4.343 1.469-9.375.141-18.754.07-28.131.07v.035c-9.503 0-19.007.045-28.509-.059-1.146-.012-3.23-.773-3.262-1.285-.144-2.34 1.845-2.178 3.469-2.176 18.881.023 37.762.041 56.643.123 1.599.008 3.831-.624 4.133 1.823M202.858 494.944c-19.746-.002-39.493-.012-59.239.154-3.042.027-6.076.961-8.884 1.436 1.379-2.449 3.895-3.926 7.441-3.904 8.124.051 16.248.012 24.372.004 13.874-.012 27.747-.016 41.62-.051 3.383-.01 6.459.537 8.854 4.566-4.904-2.932-9.584-2.205-14.164-2.205M251.697 583.76l1.168-.404c2.42 4.824 5.11 9.537 7.18 14.508 1.817 4.363 3.013 8.949 1.891 13.873-1.318 5.779-4.987 9.5-10.238 12.932zM352.382 274.51l2.193 1.301c1.613-2.711.992-5.218-.016-7.69-.611-1.499-1.545-2.893-1.973-4.434-.256-.922-.203-2.474.379-2.993 3.037-2.704 6.217-5.25 9.375-7.818q.484-1.054.969-2.107l.553.868q-.76.621-1.521 1.239l-2.818 6.134.254.452c2.654-2.251 5.477-4.338 7.92-6.801 2.43-2.452 4.482-5.28 6.49-7.691l20.123 23.614c-1.67-.289-2.613-.388-3.523-.621-8.748-2.239-16.52-.081-23.682 5.104-8 5.79-13.51 13.645-18.061 22.173-1.838 3.442-4.031 5.332-7.979 5.684-3.311.296-6.555 1.316-10.787 2.22 6.047-11.226 12.596-20.981 22.104-28.634M253.383 327.584c7.459.765 14.438 2.702 20.719 6.959 1.147.777 2.717 1.186 4.125 1.283 12.084.84 24.175 1.566 36.263 2.34.479.029.949.182 1.582.311l2.648 15.773c-4.188-.438-8.098-.77-11.986-1.268-6.194-.791-12.412-1.498-18.546-2.637-2.858-.531-5.704-1.695-8.275-3.092-7.451-4.041-14.441-9.143-22.918-10.846-5.547-1.113-11.254-1.432-17.114-2.133 3.517-3.948 7.368-7.319 13.502-6.69M216.071 343.042l3.104-.022-.733 2.563-3.364-.075zM215.19 347.682l3.104-.019-.732 2.56-3.365-.074zM216.604 359.473l-4.209-.074 1.243-2.463 3.883-.019zM217.032 361.547l-.917 2.557-4.209-.074 1.242-2.461zM216.921 354.866l-3.364-.074.993-2.467 3.104-.022zM211.071 343.042l3.105-.022-.733 2.563-3.365-.075zM208.791 347.682l3.104-.019-.733 2.56-3.365-.074zM210.528 352.303l-.733 2.563-3.364-.074.993-2.467zM204.083 359.399l1.243-2.463 3.883-.019-.917 2.556zM207.844 361.547l-.917 2.557-4.21-.074 1.243-2.461zM204.023 343.042l3.105-.022-.733 2.563-3.365-.075zM201.743 347.682l3.104-.019-.733 2.56-3.365-.074zM195.615 359.399l1.243-2.463 3.884-.019-.918 2.556zM197.888 361.547l-.917 2.557-4.209-.074 1.242-2.461zM198.469 354.792l.993-2.467 3.104-.022-.733 2.563zM196.328 343.042l4.037-.022-.953 2.563-4.375-.075zM193.362 347.682l4.037-.019-.953 2.56-4.376-.074zM194.433 352.303l-.953 2.563-4.376-.074 1.292-2.467zM185.394 359.399l1.616-2.463 5.051-.019-1.193 2.556zM188.35 361.547l-1.193 2.557-5.474-.074 1.616-2.461zM184.32 342.428l5.712-.021-1.348 2.562-6.191-.074zM180.124 347.069l5.712-.02-1.349 2.561-6.191-.074zM175.927 351.711l5.712-.021-1.348 2.562-6.191-.074zM171.136 356.323l7.146-.02-1.687 2.557-7.745-.074zM165.886 360.956l7.146-.022-1.687 2.557-7.745-.074zM148.939 373.999l9.325-10.561.792 7.457c4.487 1.455 11.419 1.186 15.873-.691.418 3.104 2.479 3.568 5.242 3.615 24.858.432 49.713.986 74.569 1.52 2.041.043 4.079.199 6.881.34-2.835 1.517-97.714-.192-112.682-1.68M296.404 400.188c-.218 5.213-2.438 7.898-7.567 8.633-4.617.66-9.328.658-14.159.959-.365-4.596-.157-7.629 3.265-10.875 4.424-4.197 7.419-9.906 11.005-14.98 1.951-2.76 3.184-3.152 5.805-1.27.847.607 1.623 1.93 1.656 2.949.158 4.857.197 9.729-.005 14.584"/><path fill="#FFF" d="M296.489 378.247c-3.096-1.34-6.244-2.566-9.287-4.012-4.566-2.172-9.169-3.428-14.381-3.277-6.429.186-12.099-2.721-17.343-6.287-1.961-1.334-3.82-2.818-5.719-4.244-3.828-2.875-8.108-4.344-12.918-4.264-2.702.045-5.404.008-8.106.008 5.917-6.736 13.124-9.334 21.271-9.738-9.061-2.223-16.693 1.037-23.768 6.607-.894-4.684 1.359-9.717 5.883-11.674 3.699-1.602 7.845-2.795 11.842-2.957 7.175-.289 14.188 1.334 20.602 4.721 4.96 2.619 9.729 5.6 14.61 8.369 1.071.609 2.219 1.285 3.402 1.463a3966 3966 0 0 0 37.422 5.449c4.452.627 8.946.975 13.397 1.611 1.535.219 3 .93 4.906 1.549 7.715-14.188 15.42-28.604 23.369-42.885 5.705-10.254 11.584-20.422 17.736-30.411 1.484-2.409 4.125-4.386 6.658-5.804 4.24-2.375 8.574-.5 10.322 4.044 2.604 6.77 2.605 13.649.709 20.603-4.48 16.436-11.418 31.956-17.512 47.802-4.271 11.109-11.449 20.096-18.604 29.25-4.318 5.529-9.74 7.691-16.691 7.205-16.837-1.179-32.487-6.498-47.8-13.128M326.03 612.819c-4.417 3.266-8.429 7.098-12.962 10.178-3.135 2.131-6.737 3.768-10.358 4.893-1.459.455-4.16-.557-5.114-1.805-.771-1.008-.176-3.553.515-5.104 3.391-7.619 7.25-15.039 10.412-22.748.951-2.316.738-5.469.126-8.014-3.292-13.676-9.297-26.33-15.129-39.053-8.326-18.164-16.67-36.322-24.609-54.656-2.459-5.68-3.979-11.844-5.296-17.922-1.678-7.742.088-12.838 5.675-17.574 1.313 2.832 3.251 5.207 3.441 7.715 1.266 16.709 9.748 30.221 18.628 43.613 11.801 17.801 24.441 35.1 33.78 54.398 3.74 7.732 6.59 15.896 9.793 23.887.41 1.023.93 2.301.662 3.252-1.958 6.913-3.154 14.198-9.564 18.94M416.425 526.143c-.043 6.125-.125 12.248-.125 18.373.002 3.254-.016 6.154-2.982 8.719-1.555 1.344-1.955 4.512-2.113 6.906-.717 10.844-1.158 21.707-1.709 32.563-.156 3.092-.35 6.184-.543 9.596l-38.938 2.467c1.531-1.729 2.723-2.938 3.76-4.268 4.064-5.217 4.91-10.785 1.66-16.742-.121-.221-.221-.453-.363-.658-7.893-11.314-10.992-24.443-14.527-37.477-2.537-9.357-5.891-18.492-8.895-27.771 21.277 1.355 42.764 2.723 64.775 4.123 0 1.259.01 2.714 0 4.169"/><path fill="#FFF" d="M442.464 486.514c-13.959 13.383-30.051 18.029-48.461 10.465-5.148-2.117-9.256-2.473-14.559.148-11.732 5.803-23.477 5.264-34.131-3.195-3.227-2.561-6.639-3.193-10.779-3.004-6.313.289-12.671-.412-19.617-.721.905.689 1.417 1.369 2.057 1.525 16.203 3.949 24.632 16.17 30.488 30.162 4.752 11.359 8.014 23.371 11.498 35.223 2.625 8.928 5.77 17.541 10.818 25.404 1.006 1.566 1.82 3.291 2.486 5.033 1.393 3.654 1.123 7.107-1.707 10.09-2.152 2.266-4.396 4.451-6.406 6.836-1.756 2.084-3.732 4.203-4.709 6.664-.998 2.51-2.539 3.365-4.867 3.943-4.6 1.146-9.211 2.318-13.693 3.846-4.115 1.404-7.238 3.898-7.318 8.885-.014.848-1.086 2.396-1.643 2.385a13.7 13.7 0 0 1-5.266-1.203c-.381-.176-.344-2.486.227-3.314 7.016-10.172 10.35-21.83 13.635-33.492.391-1.389.139-3.219-.439-4.58a315 315 0 0 0-26.853-50.154c-10.088-15.338-20.276-30.617-29.96-46.209-3.248-5.229-5.778-11.145-7.41-17.084-3.153-11.475 3.121-19.764 11.785-25.637.895-.605 3.048-.283 4.089.408 5.807 3.852 11.769 7.57 17.078 12.045 8.975 7.564 17.267 15.939 26.273 23.463 12.813 10.699 27.488 13.283 43.229 7.729 6.92-2.441 13.484-5.893 20.207-8.893 1.1-.488 2.184-1.006 3.275-1.51q.17.366.338.736c-4.387 3.203-8.773 6.406-13.232 9.664 24.473 9.596 43.588-.324 61.15-16.121l.625.654c-2.72 3.288-5.15 6.876-8.208 9.809"/><path d="M205.538 558.45H147.47c-1.721 7.525-1.04 8.449 5.972 8.434 15.097-.037 30.193-.08 45.29-.117 7.891-.02 7.412 1.945 7.21-7.586-.005-.212-.224-.417-.404-.731"/></svg>