<?xml version="1.0" encoding="utf-8"?>
<!-- Generator: Adobe Illustrator 16.0.3, SVG Export Plug-In . SVG Version: 6.00 Build 0)  -->
<!DOCTYPE svg PUBLIC "-//W3C//DTD SVG 1.1//EN" "http://www.w3.org/Graphics/SVG/1.1/DTD/svg11.dtd">
<svg version="1.1" id="レイヤー_1" xmlns="http://www.w3.org/2000/svg" xmlns:xlink="http://www.w3.org/1999/xlink" x="0px"
	 y="0px" width="732.836px" height="584.281px" viewBox="0 0 732.836 584.281" enable-background="new 0 0 732.836 584.281"
	 xml:space="preserve">
<path fill-rule="evenodd" clip-rule="evenodd" d="M327.65,234.652c-7.149-3.665-12.021-8.314-14.641-15.12
	c0,3.906-0.043,7.813,0.008,11.718c0.172,13.289-0.704,26.504-4.468,39.292c-3.812,12.942-11.103,23.36-23.666,29.423
	c-4.224,2.038-8.663,3.023-13.593,3.377c4.939-5.725,6.029-12.606,7.622-19.444c-7.654,8.458-17.259,13.123-28.085,15.633
	c2.129-4.896,4.145-9.528,6.338-14.568c-4.168,0.708-7.696,1.228-11.191,1.914c-9.15,1.796-18.352,1.578-27.489,0.299
	c-10.622-1.486-21.174-3.463-31.756-5.235c-0.738-0.124-1.468-0.3-2.196-0.478c-1.854-0.45-2.797,0.531-3.378,2.114
	c-0.641,1.749,0.392,2.448,1.781,3.079c5.111,2.317,10.093,4.952,15.311,6.989c7.612,2.973,12.383,8.107,14.004,16.176
	c2.997,14.917,6.852,29.647,8.135,44.915c0.939,11.178,3.409,21.941,8.403,32.38c8.121,16.972,14.789,34.637,22.151,51.975
	c2.487,5.857,5.064,11.688,7.893,17.385c1.833,3.694,1.236,6.713-1.406,9.583c-4.734,5.142-10.728,8.214-17.398,9.718
	c-4.222,0.952-8.64,1.149-12.987,1.382c-1.713,0.093-2.382,0.546-2.742,2.192c-5.112,23.406-10.29,46.797-15.432,70.196
	c-1.125,5.12-2.182,10.255-3.245,15.389c-0.296,1.437-0.5,2.893-0.862,5.026c9.823,0,19.278,0,28.733,0
	c0.028,0.381,0.056,0.763,0.085,1.145c-3.833,0.673-7.648,1.479-11.503,1.985c-5.635,0.743-11.287,1.44-16.954,1.839
	c-4.699,0.33-9.432,0.176-14.148,0.28c-6.333,0.14-12.666,0.375-19,0.473c-7.714,0.12-15.432,0.06-23.145,0.229
	c-5.452,0.12-10.904,0.792-16.345,0.683c-8.818-0.178-17.628-0.785-26.44-1.229c-10.045-0.507-20.087-1.116-30.137-1.524
	c-7.787-0.317-15.585-0.341-23.375-0.608c-2.44-0.083-4.868-0.534-7.306-1.314c31.465-4.084,63.044-6.171,95.313-6.407
	c-1.258-2.696-2.304-4.911-3.329-7.136c-8.784-19.058-13.182-39.232-15.329-59.988c-0.681-6.585-1.542-13.151-2.153-19.741
	c-0.178-1.924-0.829-2.344-2.73-2.519c-5.449-0.501-10.938-1.05-16.263-2.245c-3.825-0.858-7.657-2.355-9.684-6.387
	c-0.338-0.674-1.61-0.895-2.467-1.287c-4.286-1.962-8.797-3.548-12.806-5.967c-4.018-2.424-4.458-5.063-2.049-9.216
	c5.005-8.634,10.231-17.139,15.368-25.696c4.75-7.913,9.054-16.145,14.392-23.638c4.179-5.867,5.952-11.981,6.735-18.995
	c1.757-15.746,4.111-31.43,6.41-47.112c1.704-11.627,4.211-23.065,8.929-33.929c1.356-3.123,3.256-5.455,6.28-7.104
	c5.119-2.793,10.096-5.844,15.73-9.137c-13.682-1.77-24.284-8.371-32.837-18.527c-0.214,0.134-0.428,0.268-0.643,0.403
	c0.967,3.125,1.935,6.252,3.149,10.177c-2.184-0.594-4.066-0.882-5.763-1.604c-9.916-4.223-18.229-10.765-25.887-18.212
	c-0.709-0.69-1.3-1.501-2.224-2.046c1.439,6.811,4.915,12.43,10.308,17.778c-23.025-4.397-36.275-18.837-44.729-38.907
	c0.019,7.846,1.437,15.233,6.095,22.593c-5.32-2.697-9.97-5.003-13.79-8.771c-10.808-10.662-16.297-23.75-17.597-38.683
	c-0.54-6.2-0.613-12.441-0.92-19.134c-7.202,1.895-14.468,4.019-22.737,2.546c1.574-2.073,2.849-3.704,4.073-5.373
	c5.167-7.039,10.526-13.947,15.401-21.183c3.262-4.842,6.366-9.936,8.545-15.32c1.982-4.9,3.021-10.286,3.777-15.559
	c2.276-15.876,6.18-31.301,11.624-46.377C48.93,73.95,57.422,60.65,68.622,48.91c8.81-9.234,17.559-18.416,28.452-25.331
	c8.458-5.37,17.418-9.64,26.687-13.302C141.722,3.182,160.486,0.051,179.706,0c15.14-0.04,30.02,2.33,44.706,6.124
	c20.443,5.282,39.251,13.918,56.067,26.698c23.842,18.12,41.997,40.466,51.022,69.502c1.333,4.289,2.986,8.479,4.305,12.772
	c3.516,11.457,2.921,23.215,2.372,34.959c-0.5,10.689-3.299,20.87-6.457,31.033c-1.503,4.834-2.336,9.984-2.685,15.045
	c-0.737,10.702-0.966,21.438-1.376,32.162C327.589,230.151,327.65,232.012,327.65,234.652z M234.095,137.757
	c-0.883,1.471-1.337,2.253-1.817,3.021c-2.572,4.115-5.027,8.309-7.77,12.307c-1.714,2.5-1.899,2.351,0.924,3.937
	c0.629,0.353,1.168,0.865,2.416,1.808c-2.407-0.242-3.886-0.489-5.368-0.503c-0.912-0.009-2.144,0.025-2.693,0.576
	c-6.179,6.219-14.125,9.806-21.347,14.46c-1.462,0.942-3.191,1.469-5.002,2.278c2.876-6.397,5.478-12.183,8.024-17.846
	c-7.975,0-15.339-0.069-22.698,0.06c-1.409,0.025-3.043,0.508-4.165,1.333c-6.211,4.571-13.081,7.739-20.341,10.19
	c-0.821,0.277-2.056,1.105-2.073,1.707c-0.16,5.527-0.094,11.062-0.094,16.603c0.273-0.056,0.552-0.036,0.729-0.162
	c13.096-9.295,27.965-10.567,43.298-9.38c4.4,0.341,7.865,2.916,9.538,6.962c1.311,3.166,2.194,6.681,2.389,10.091
	c0.239,4.198-0.247,8.47-0.752,12.671c-0.975,8.11-2.713,16.042-7.445,22.931c-4.051,5.898-8.943,10.731-16.344,12.237
	c-9.697,1.973-19.645-4.208-21.005-13.363c-1.988-13.377,1.236-25.49,9.344-36.311c0.452-0.604,0.813-1.276,1.216-1.916
	c-0.177-0.227-0.354-0.453-0.532-0.679c-4.183,1.855-8.534,3.413-12.494,5.66c-3.1,1.759-5.763,4.315-8.503,6.654
	c-0.5,0.427-0.608,1.519-0.604,2.302c0.086,18.479,0.265,36.958,0.265,55.437c0,2.305,0.82,3.479,2.78,4.233
	c6.166,2.373,12.254,4.969,18.498,7.116c21.491,7.389,43.557,10.801,66.28,8.664c10.429-0.981,20.824-2.494,29.999-8.143
	c7.44-4.581,14.472-13.273,9.929-24.347c-0.421-1.024-0.417-2.217-0.779-3.273c-1.492-4.361-0.469-8.29,1.723-12.16
	c2.152-3.802,4.124-7.71,6.069-11.624c1.182-2.378,2.163-4.854,3.37-7.597c-1.219,0.13-1.854,0.342-2.428,0.236
	c-2.857-0.528-4.027,0.746-4.731,3.478c-2.14,8.304-6.77,15.231-12.655,21.349c-2.505,2.604-4.896,5.426-7.792,7.521
	c-5.735,4.148-12.059,1.203-12.931-5.757c-0.201-1.607-0.416-3.266-0.236-4.857c1.712-15.174,8.203-27.931,19.879-37.814
	c6.282-5.317,13.573-6.497,21.421-3.78c0.916,0.317,1.879,0.499,3.619,0.95c0.441-6.296,0.854-12.229,1.277-18.162
	c0.134-1.884-1.097-2.243-2.584-2.446c-2.589-0.355-5.292-0.439-7.71-1.3c-1.722-0.612-2.323-0.215-3.354,0.983
	c-3.083,3.585-6.108,7.276-9.584,10.457c-5.948,5.444-13.035,8.958-20.833,11.013c8.262-5.376,9.481-14.721,13.11-22.777
	c-9.696,11.873-21.914,19.643-36.539,23.481c0.974-2.486,2.334-5.025,2.973-7.735C233.83,172.122,233.971,155.389,234.095,137.757z
	 M151.334,327.559c2.045-1.943,4.875-3.583,3.732-6.994c-2.377-7.096-4.653-14.236-7.348-21.213
	c-1.938-5.021-2.171-4.698-7.406-3.747c-6.511,1.182-10.53,4.766-12.139,11.142c-0.275,1.089-0.704,2.144-0.919,3.242
	c-2.427,12.368-5.147,24.689-7.153,37.127c-2.582,16.008-4.709,32.096-6.792,48.18c-1.181,9.124-1.916,18.307-2.78,27.47
	c-0.363,3.851-0.679,7.717-0.723,11.579c-0.016,1.378,0.458,3.112,1.355,4.089c3.625,3.948,7.35,7.836,11.342,11.405
	c2.624,2.345,6.05,1.016,6.946-2.383c0.604-2.292,0.85-4.682,1.518-6.951c0.518-1.76,1.441-3.399,2.185-5.093
	c0.307,0.112,0.614,0.225,0.921,0.337c-0.155,1.206-0.259,2.422-0.478,3.616c-0.229,1.247-0.568,2.474-0.958,4.13
	c4.824-2.319,6.761-5.729,6.405-10.06c-0.53-6.448-1.803-12.979-1.254-19.344c1.63-18.908,3.793-37.778,6.156-56.611
	c1.271-10.128,3.349-20.157,5.15-30.215c0.197-1.102,0.969-2.1,1.474-3.146c0.205,0.062,0.409,0.124,0.614,0.187
	C151.233,325.39,151.284,326.474,151.334,327.559z M103.137,235.529c-0.535-9.23-1.129-18.172-1.547-27.121
	c-0.353-7.551-7.481-12.893-14.75-10.902c-0.424,0.116-0.886,0.099-1.895,0.2c6.631-4.824,9.862-4.471,16.388,1.606
	c0.194-5.246,0.393-10.176,0.554-15.107c0.104-3.172-0.208-3.604-3.466-3.871c-6.954-0.567-12.354,2.202-16.351,7.865
	c-3.917,5.552-4.876,11.915-5.089,18.476C76.527,220.669,86.625,233.854,103.137,235.529z M174.338,482.417
	c-0.351-0.058-0.702-0.114-1.053-0.172c-0.141,0.444-0.303,0.883-0.418,1.334c-4.117,16.154-6.148,32.635-7.12,49.221
	c-0.576,9.832-0.242,19.717-0.299,29.578c-0.007,1.22-0.222,2.65,1.716,2.648c4.817-0.002,9.635,0,14.803,0
	c-1.118-3.805-2.219-7.102-3.053-10.464c-4.399-17.728-4.531-35.827-4.573-53.929C174.326,494.56,174.338,488.488,174.338,482.417z
	 M162.34,298.36c2.924,5.579,5.578,10.785,8.396,15.9c0.599,1.089,1.779,2.612,2.722,2.636c6.847,0.164,13.702,0.021,20.554-0.082
	c2.343-0.034,2.256-1.362,1.427-2.998c-1.352-2.669-2.687-5.347-4.025-8.021c-3.376-6.746-2.053-6.198-9.73-3.94
	c-0.755,0.222-1.657-0.052-2.491-0.095c0.579-0.693,1.028-1.74,1.762-2.008c1.817-0.662,3.764-0.967,5.896-1.472
	c-1.44-3.041-3.057-5.013-6.133-6.01c-5.545-1.799-11.027-3.873-16.346-6.255c-2.538-1.136-4.523-2.453-6.415,0.704
	c-0.316,0.529-1.162,0.741-1.857,1.156c0.436,0.606,0.83,0.967,0.995,1.413c1.836,4.969,5.151,7.721,10.635,8.277
	c2.303,0.232,5.083,0.96,6.821,4.255C170.251,300.601,166.592,299.564,162.34,298.36z M288.307,44.53
	c2.174,2.817,4.387,5.604,6.516,8.455c7.789,10.424,15.134,21.103,18.968,33.755c0.211,0.697,0.608,1.352,0.995,1.979
	c6.01,9.727,12.558,19.169,15.826,30.33c0.202,0.687,0.602,1.315,0.909,1.971C326.682,90.134,312.239,64.643,288.307,44.53z
	 M209.843,121.113c-0.284-0.058-0.567-0.116-0.851-0.175c-7.381,11.958-15.427,23.37-26.541,32.573
	c6.38,0.458,12.586,0.392,18.79,0.5c1.765,0.031,2.095-1.027,2.381-2.253c1.246-5.326,2.552-10.641,3.644-15.999
	C208.254,130.903,208.994,125.997,209.843,121.113z M294.788,171.306c-0.496-8.17-0.978-16.112-1.502-24.737
	c-3.251,8.378-6.179,15.92-9.082,23.401C287.454,170.38,290.825,170.806,294.788,171.306z M196.315,298.447
	c4.487,6.876,8.976,13.752,13.463,20.629c-0.473-3.659-1.84-7.054-2.208-10.553C206.861,301.759,201.879,299.982,196.315,298.447z"
	/>
<path fill-rule="evenodd" clip-rule="evenodd" d="M448.484,41.754c5.419-4.375,10.665-8.988,16.29-13.081
	c18.052-13.133,38.335-21,60.153-25.376c15.279-3.065,30.643-3.584,46.106-2.735c12.29,0.675,24.156,3.606,35.816,7.359
	c15.524,4.997,29.9,12.367,43.069,21.952c4.11,2.992,7.819,6.611,11.37,10.275c5.3,5.468,10.33,11.198,15.412,16.874
	c8.476,9.466,13.692,20.752,18.114,32.498c5.731,15.225,9.049,31.021,12.145,46.952c1.843,9.484,5.057,18.816,8.652,27.817
	c4.34,10.866,9.724,21.315,14.696,31.926c0.557,1.188,1.377,2.252,2.527,4.1c-6.325-0.499-11.288-3.672-17.014-4.472
	c-0.486,5.605-0.702,11.08-1.479,16.473c-2.211,15.341-8.354,28.723-20.606,38.704c-2.552,2.079-5.728,3.393-8.932,4.913
	c3.464-6.683,3.994-13.897,4.555-21.187c-8.411,19.942-22.179,33.608-43.835,38.275c4.686-4.678,7.096-10.561,9.834-16.924
	c-5.794,4.576-10.967,8.942-16.436,12.901c-5.542,4.011-11.404,7.552-18.453,8.747c1.17-3.151,2.265-6.1,3.544-9.546
	c-5.533,3.969-10.235,8.064-15.583,10.976c-5.418,2.949-11.474,4.727-17.376,7.067c0.396,0.241,1.023,0.661,1.685,1.016
	c4.616,2.479,9.22,4.982,13.867,7.398c2.834,1.474,4.734,3.802,5.678,6.701c2.656,8.16,6.017,16.236,7.435,24.625
	c3.386,20.042,5.895,40.234,8.576,60.391c0.638,4.792,1.896,9.003,4.729,13.119c5.302,7.699,9.868,15.904,14.736,23.901
	c5.127,8.424,10.25,16.848,15.368,25.275c0.519,0.854,1.018,1.721,1.471,2.609c1.881,3.685,1.689,6.252-1.846,8.404
	c-4.21,2.562-8.883,4.397-13.455,6.31c-1.291,0.539-2.231,0.951-3.144,2.18c-1.198,1.613-2.972,2.995-4.782,3.922
	c-5.663,2.897-11.889,3.648-18.132,4.208c-4.407,0.395-4.316,0.42-4.854,4.98c-1.343,11.41-2.296,22.895-4.286,34.194
	c-2.819,16.006-7.07,31.667-14.641,46.222c-0.512,0.984-0.899,2.032-1.291,2.928c32.169,1.965,64.217,3.923,96.264,5.881
	c-4.289,2.323-12.684,3.15-17.098,3.171c-8.532,0.04-17.063,0.482-25.594,0.759c-1.485,0.049-2.972,0.096-4.458,0.161
	c-11.438,0.506-22.872,1.271-34.316,1.461c-14.271,0.236-28.551,0.132-42.823-0.08c-9.398-0.14-18.794-0.686-28.186-1.127
	c-8.424-0.396-16.854-0.754-25.259-1.417c-3.863-0.305-7.671-1.298-11.505-1.979c0.029-0.425,0.059-0.849,0.088-1.273
	c9.188,0,18.376,0,28.063,0c-1.123-5.799-2.028-10.797-3.066-15.768c-4.082-19.554-8.146-39.113-12.354-58.64
	c-1.21-5.611-3.026-11.09-4.26-16.696c-0.452-2.054-1.299-2.213-3.053-2.077c-9.976,0.771-19.08-1.748-27.172-7.654
	c-1.593-1.163-3.056-2.595-4.291-4.133c-1.578-1.965-2.153-4.391-0.923-6.693c8.318-15.573,13.522-32.451,20.5-48.581
	c4.457-10.306,9.668-20.289,14.015-30.638c1.901-4.528,2.812-9.557,3.602-14.45c1.709-10.594,2.778-21.295,4.628-31.861
	c1.504-8.596,3.771-17.058,5.687-25.581c1.367-6.079,5.106-10.149,10.679-12.675c5.796-2.627,11.548-5.362,17.429-7.783
	c1.698-0.7,2.614-1.288,2.05-3.146c-0.561-1.849-1.706-2.531-3.691-2.101c-5.489,1.188-10.961,2.623-16.521,3.29
	c-10.873,1.303-21.785,2.685-32.711,2.995c-7.114,0.202-14.282-1.428-21.784-2.278c0.76,4.674,3.398,8.868,5.741,13.857
	c-11.431-2.015-20.438-7.217-27.966-15.54c-0.203,5.529,3.289,14.774,7.206,19.158c-7.669-0.269-14.352-2.725-20.371-6.989
	c-10.588-7.504-16.054-18.39-18.445-30.625c-1.69-8.648-2.079-17.604-2.41-26.446c-0.198-5.307,0.843-10.66,1.298-15.994
	c0.078-0.917,0.011-1.845-0.379-2.97c-3.186,7.468-9.096,11.704-16.862,15.342c0-2.365-0.077-4.15,0.013-5.928
	c0.671-13.405-0.821-26.694-2.467-39.938c-0.59-4.75-2.535-9.329-3.833-13.994c-3.577-12.861-4.702-26.013-4.531-39.303
	c0.138-10.734,3.116-20.896,6.374-31.005c4.818-14.958,11.384-29.028,20.563-41.855c4.549-6.355,9.859-11.914,16.029-16.667
	c0.763-0.587,1.743-0.895,2.622-1.332c-22.021,24.823-38.121,52.316-39.069,86.657c0.513-0.533,0.883-1.153,1.081-1.824
	c1.513-5.136,3.056-10.264,4.466-15.428c1.691-6.191,5.102-11.429,9.414-15.963c2.679-2.817,4.322-5.767,5.396-9.508
	c2.766-9.64,8.65-17.675,14.729-25.418c12.186-15.521,26.981-28.315,42.933-39.823c1.026-0.74,2.029-1.513,3.044-2.27
	c-4.34,1.14-8.299,2.888-12.279,4.586c-8.309,3.543-16.062,7.998-23.04,13.771C450.547,40.933,449.45,41.264,448.484,41.754z
	 M510.73,140.491c1.12,18.967-0.154,38.167,6.614,56.699c-19.445-7.005-20.387-7.57-36.087-22.722
	c2.231,7.501,3.761,15.35,10.484,20.892c-3.85-1.151-7.629-2.387-11.008-4.324c-6.934-3.974-12.411-9.584-16.838-16.245
	c-0.593-0.892-1.793-2.111-2.575-2.019c-3.186,0.379-6.339,1.129-9.456,1.929c-0.762,0.195-1.938,1.125-1.911,1.671
	c0.245,5.301,0.705,10.593,1.126,16.171c1.391-0.497,2.2-0.782,3.006-1.075c7.656-2.775,14.263-1.538,20.239,4.354
	c7.824,7.714,12.537,17.088,15.411,27.428c1.495,5.375,2.269,10.978,1.371,16.656c-1.169,7.384-6.009,10.25-12.95,7.464
	c-1.244-0.5-2.555-1.213-3.431-2.189c-3.907-4.357-8.24-8.486-11.33-13.383c-3.472-5.502-5.774-11.742-8.579-17.649
	c-1.428,0.078-3.323,0.181-5.447,0.297c2.4,4.819,4.646,9.389,6.946,13.933c6.741,13.316,5.902,9.779,2.813,22.582
	c-0.059,0.242-0.142,0.48-0.19,0.725c-0.874,4.347-0.227,8.399,2.099,12.233c4.191,6.913,10.521,10.917,18.044,13.103
	c16.543,4.808,33.426,5.343,50.444,3.495c12.703-1.378,25.073-4.316,37.103-8.556c6.216-2.19,12.235-4.937,18.354-7.407
	c1.562-0.631,2.233-1.574,2.236-3.396c0.031-16.96,0.104-33.921,0.327-50.878c0.052-3.941-0.466-6.888-3.916-9.84
	c-4.853-4.152-9.804-7.501-16.775-9.165c7.822,7.535,8.964,17.046,10.383,26.375c0.46,3.026,0.334,6.25-0.132,9.29
	c-2.233,14.569-18.024,21.178-29.992,12.58c-5.317-3.82-8.97-9.046-11.209-15.148c-3.924-10.696-3.23-21.686-1.039-32.528
	c2.024-10.018,9.036-14.813,19.302-14.184c0.993,0.061,1.993,0.041,2.989,0.078c9.417,0.352,18.244,2.644,26.175,7.921
	c1.01,0.672,2.102,1.223,3.654,2.117c-0.259-5.822-0.411-11.143-0.829-16.444c-0.058-0.732-1.333-1.571-2.22-2.003
	c-4.806-2.345-10.281-3.804-14.353-7.043c-5.253-4.177-10.74-5.281-16.998-4.944c-2.367,0.126-4.748-0.03-7.121,0.026
	c-0.914,0.022-1.821,0.277-3.327,0.523c2.754,6.197,5.289,11.902,8.132,18.299c-3.154-1.69-5.845-2.93-8.324-4.502
	c-4.841-3.069-10.068-5.789-14.181-9.667c-3.414-3.22-6.352-4.732-10.705-2.855c-0.22,0.094-0.585-0.149-1.592-0.439
	c2.178-1.208,3.819-2.119,5.331-2.957C517.387,150.594,514.058,145.543,510.73,140.491z M604.723,435.899
	c0.262-0.055,0.525-0.108,0.788-0.164c2.092,3.303,2.431,7.144,3.179,10.878c0.329,1.644,0.513,3.586,2.693,4.08
	c2.078,0.471,3.889,0.168,5.461-1.495c2.571-2.723,5.147-5.465,7.953-7.937c3.201-2.821,4.158-6.09,3.79-10.316
	c-0.833-9.544-3.158-18.854-3.295-28.547c-0.243-17.131-3.048-34.052-6.23-50.87c-2.621-13.854-5.518-27.654-8.183-41.5
	c-1.61-8.367-6.011-13.654-14.827-14.959c-3.623-0.536-3.746-0.909-5.258,2.583c-2.823,6.522-5.242,13.115-6.632,20.193
	c-0.765,3.897-0.437,6.688,2.021,9.47c0.09,0.101,0.391,0.013,0.632,0.013c0.135-1.022,0.27-2.027,0.403-3.032
	c1.124,0.832,1.781,1.753,1.963,2.761c1.523,8.471,3.26,16.919,4.36,25.448c2.123,16.466,4.065,32.961,5.685,49.482
	c0.699,7.138,2.646,14.235,1.168,21.546c-0.69,3.411-0.889,6.929-1.191,10.408c-0.364,4.185,2.418,8.391,6.222,9.359
	C605.187,440.792,604.955,438.346,604.723,435.899z M652.625,197.998c-1.104-0.249-1.569-0.346-2.03-0.459
	c-7.206-1.779-13.3,3.065-13.599,10.569c-0.283,7.096-0.825,14.183-1.307,21.269c-0.142,2.082-0.468,4.15-0.717,6.287
	c0.686,0.078,1.06,0.217,1.386,0.144c21.05-4.729,29.772-23.004,22.122-42.497c-1.662-4.234-4.421-7.85-8.308-10.399
	c-3.343-2.192-6.979-3.337-11.027-2.515c-2.1,0.426-3.176,1.398-2.904,3.883c0.352,3.214,0.149,6.486,0.241,9.732
	c0.05,1.752,0.218,3.502,0.363,5.722C641.899,193.276,647.006,192.67,652.625,197.998z M556.356,565.231
	c4.708,0,9.174-0.036,13.638,0.016c2.068,0.023,2.787-0.862,2.796-2.927c0.026-6.104,0.394-12.21,0.337-18.313
	c-0.189-20.556-3.166-40.76-8.01-60.708c-0.115-0.475-0.557-0.871-0.846-1.305c-0.642,2.287-0.646,4.396-0.641,6.506
	c0.022,8.609,0.269,17.225,0.025,25.827c-0.46,16.346-1.166,32.688-6.767,48.332C556.649,563.333,556.59,564.071,556.356,565.231z
	 M541.607,317.205c7.586,0,14.393-0.086,21.196,0.039c3.069,0.057,4.602-1.44,5.899-4.031c4.289-8.56,8.788-17.013,13.176-25.45
	c-0.526-0.255-1.88-0.547-2.683-1.374c-1.854-1.912-3.372-0.958-5.33-0.164c-5.41,2.194-10.868,4.364-16.477,5.946
	c-3.491,0.984-4.951,3.188-6.324,5.958c2.551,1.837,6.568,0.412,7.86,4.453c-2.914-0.651-5.264-1.307-7.657-1.638
	c-0.801-0.111-2.196,0.366-2.503,0.981C546.397,306.68,544.229,311.535,541.607,317.205z M534.981,123.133
	c-0.388,0.087-0.775,0.174-1.163,0.261c2.376,9.758,4.729,19.522,7.189,29.258c0.147,0.581,1.19,1.366,1.782,1.338
	c4.777-0.229,9.546-0.629,14.952-1.023C547.637,144.532,541.072,134.01,534.981,123.133z M449.215,170.753c4.239,0,7.781,0,11.967,0
	c-5.938-8.53-9.258-17.604-11.967-26.886C449.215,152.807,449.215,161.747,449.215,170.753z M528.499,317.228
	c0.23,0.116,0.462,0.233,0.692,0.349c3.926-6.332,7.851-12.666,11.776-18.998c-2.617,0.497-4.718,1.286-6.634,2.394
	c-0.992,0.574-2.098,1.585-2.396,2.618C530.64,308.092,529.62,312.675,528.499,317.228z"/>
<path fill-rule="evenodd" clip-rule="evenodd" d="M475.341,568.832c4.77,0.343,9.546,0.687,14.942,1.074
	c-2.365,1.848-6.074,2.735-10.241,2.726c-25.64-0.059-51.279-0.132-76.919-0.204c-3.223-0.009-6.451,0.064-9.669-0.08
	c-4.188-0.189-6.257-1.947-6.443-6.219c-0.331-7.599-0.344-15.215-0.323-22.824c0.047-17.731,0.191-35.462,0.302-53.193
	c0.006-0.998,0.03-1.998,0.097-2.994c0.269-4.013,2.093-6.381,6.112-6.724c5.818-0.498,11.681-0.633,17.525-0.659
	c19.209-0.082,38.419-0.047,57.628-0.051c5.461-0.001,8.049,2.552,8.046,7.988c-0.018,24.845-0.028,49.69-0.123,74.535
	C476.267,564.402,475.671,566.595,475.341,568.832z"/>
<path fill-rule="evenodd" clip-rule="evenodd" d="M367.051,567.532c4.763,0.377,9.115,0.723,13.467,1.067
	c0.042,0.585,0.084,1.172,0.125,1.758c-2.74,0.517-5.475,1.459-8.221,1.483c-33.846,0.321-67.692,0.581-101.539,0.641
	c-4.52,0.008-9.042-1.168-13.563-1.795c0.027-0.686,0.055-1.37,0.081-2.055c6.089-0.514,12.177-1.027,17.818-1.502
	c0-20.985-0.004-41.979,0.005-62.976c0.003-3.927-0.016-7.858,0.119-11.782c0.208-6.142,3.704-10.092,9.858-10.15
	c23.76-0.228,47.525-0.343,71.285-0.156c7.626,0.06,11.222,3.785,11.313,11.442c0.272,22.785,0.227,45.574,0.229,68.362
	C368.029,563.597,367.448,565.324,367.051,567.532z"/>
<path fill-rule="evenodd" clip-rule="evenodd" fill="#FFFFFF" d="M448.484,41.754c0.966-0.49,2.063-0.822,2.878-1.497
	c6.979-5.773,14.731-10.228,23.04-13.771c3.98-1.698,7.939-3.446,12.279-4.586c-1.015,0.757-2.018,1.53-3.044,2.27
	c-15.951,11.507-30.747,24.301-42.933,39.823c-6.078,7.743-11.963,15.779-14.729,25.418c-1.073,3.741-2.717,6.69-5.396,9.508
	c-4.313,4.535-7.723,9.772-9.414,15.963c-1.41,5.165-2.953,10.292-4.466,15.428c-0.198,0.671-0.568,1.292-1.081,1.824
	c0.948-34.341,17.049-61.833,39.069-86.657C445.954,44.237,447.218,42.996,448.484,41.754z"/>
<path fill-rule="evenodd" clip-rule="evenodd" fill="#FFFFFF" d="M234.095,137.757c-0.125,17.632-0.266,34.365-4.132,50.775
	c-0.639,2.709-1.999,5.249-2.973,7.735c14.625-3.838,26.842-11.609,36.539-23.481c-3.629,8.056-4.848,17.401-13.11,22.777
	c7.798-2.054,14.885-5.569,20.833-11.013c3.476-3.181,6.501-6.872,9.584-10.457c1.03-1.198,1.632-1.596,3.354-0.983
	c2.419,0.861,5.121,0.945,7.71,1.3c1.487,0.204,2.718,0.562,2.584,2.446c-0.423,5.933-0.836,11.866-1.277,18.162
	c-1.74-0.451-2.703-0.633-3.619-0.95c-7.849-2.716-15.14-1.537-21.421,3.78c-11.676,9.883-18.167,22.64-19.879,37.814
	c-0.18,1.591,0.036,3.25,0.236,4.857c0.872,6.96,7.196,9.905,12.931,5.757c2.896-2.095,5.287-4.917,7.792-7.521
	c5.885-6.118,10.515-13.045,12.655-21.349c0.705-2.731,1.874-4.006,4.731-3.478c0.575,0.106,1.209-0.105,2.428-0.236
	c-1.208,2.743-2.188,5.219-3.37,7.597c-1.945,3.914-3.917,7.822-6.069,11.624c-2.192,3.87-3.215,7.798-1.723,12.16
	c0.361,1.057,0.357,2.249,0.779,3.273c4.542,11.074-2.489,19.766-9.929,24.347c-9.174,5.648-19.569,7.161-29.999,8.143
	c-22.723,2.138-44.79-1.274-66.28-8.664c-6.243-2.146-12.332-4.743-18.498-7.116c-1.96-0.754-2.78-1.928-2.78-4.233
	c0-18.479-0.179-36.958-0.265-55.437c-0.004-0.783,0.104-1.875,0.604-2.302c2.74-2.339,5.403-4.896,8.503-6.654
	c3.96-2.247,8.311-3.805,12.494-5.66c0.177,0.227,0.354,0.453,0.532,0.679c-0.403,0.64-0.764,1.312-1.216,1.916
	c-8.108,10.821-11.332,22.934-9.344,36.311c1.36,9.155,11.309,15.335,21.005,13.363c7.401-1.506,12.293-6.339,16.344-12.237
	c4.732-6.889,6.47-14.82,7.445-22.931c0.505-4.201,0.991-8.473,0.752-12.671c-0.195-3.411-1.079-6.926-2.389-10.091
	c-1.673-4.046-5.138-6.621-9.538-6.962c-15.333-1.188-30.202,0.085-43.298,9.38c-0.176,0.125-0.456,0.105-0.729,0.162
	c0-5.542-0.066-11.076,0.094-16.603c0.018-0.602,1.252-1.43,2.073-1.707c7.26-2.451,14.13-5.619,20.341-10.19
	c1.122-0.825,2.756-1.309,4.165-1.333c7.359-0.129,14.723-0.06,22.698-0.06c-2.546,5.663-5.147,11.449-8.024,17.846
	c1.811-0.809,3.541-1.336,5.002-2.278c7.222-4.654,15.167-8.241,21.347-14.46c0.549-0.551,1.781-0.585,2.693-0.576
	c1.482,0.014,2.961,0.261,5.368,0.503c-1.248-0.943-1.787-1.455-2.416-1.808c-2.824-1.586-2.639-1.437-0.924-3.937
	c2.743-3.998,5.198-8.192,7.77-12.307C232.758,140.011,233.212,139.228,234.095,137.757z"/>
<path fill-rule="evenodd" clip-rule="evenodd" fill="#FFFFFF" d="M151.334,327.559c-0.05-1.085-0.101-2.169-0.151-3.253
	c-0.205-0.063-0.409-0.125-0.614-0.187c-0.505,1.046-1.277,2.044-1.474,3.146c-1.801,10.058-3.879,20.087-5.15,30.215
	c-2.363,18.833-4.526,37.703-6.156,56.611c-0.549,6.365,0.724,12.896,1.254,19.344c0.356,4.331-1.581,7.74-6.405,10.06
	c0.39-1.656,0.729-2.883,0.958-4.13c0.219-1.194,0.323-2.41,0.478-3.616c-0.307-0.112-0.614-0.225-0.921-0.337
	c-0.744,1.693-1.667,3.333-2.185,5.093c-0.668,2.27-0.915,4.659-1.518,6.951c-0.896,3.398-4.322,4.728-6.946,2.383
	c-3.992-3.569-7.717-7.457-11.342-11.405c-0.897-0.977-1.371-2.711-1.355-4.089c0.044-3.862,0.36-7.729,0.723-11.579
	c0.864-9.163,1.599-18.346,2.78-27.47c2.082-16.084,4.209-32.172,6.792-48.18c2.006-12.438,4.726-24.759,7.153-37.127
	c0.215-1.099,0.645-2.153,0.919-3.242c1.609-6.376,5.628-9.96,12.139-11.142c5.234-0.951,5.467-1.273,7.406,3.747
	c2.695,6.977,4.97,14.117,7.348,21.213C156.209,323.976,153.379,325.616,151.334,327.559z"/>
<path fill-rule="evenodd" clip-rule="evenodd" fill="#FFFFFF" d="M103.137,235.529c-16.512-1.675-26.609-14.86-26.155-28.853
	c0.213-6.561,1.172-12.924,5.089-18.476c3.996-5.663,9.397-8.433,16.351-7.865c3.258,0.266,3.57,0.698,3.466,3.871
	c-0.161,4.932-0.359,9.861-0.554,15.107c-6.525-6.077-9.756-6.431-16.388-1.606c1.009-0.102,1.47-0.084,1.895-0.2
	c7.269-1.991,14.397,3.351,14.75,10.902C102.008,217.357,102.602,226.299,103.137,235.529z"/>
<path fill-rule="evenodd" clip-rule="evenodd" fill="#FFFFFF" d="M162.34,298.36c4.251,1.204,7.911,2.241,12.21,3.459
	c-1.737-3.295-4.518-4.022-6.821-4.255c-5.484-0.557-8.798-3.309-10.635-8.277c-0.165-0.446-0.559-0.806-0.995-1.413
	c0.695-0.415,1.541-0.627,1.857-1.156c1.892-3.157,3.877-1.84,6.415-0.704c5.318,2.382,10.8,4.457,16.346,6.255
	c3.076,0.997,4.693,2.969,6.133,6.01c-2.133,0.505-4.08,0.81-5.896,1.472c-0.734,0.268-1.183,1.314-1.762,2.008
	c0.834,0.043,1.736,0.316,2.491,0.095c7.678-2.258,6.354-2.806,9.73,3.94c1.338,2.675,2.673,5.353,4.025,8.021
	c0.829,1.636,0.916,2.964-1.427,2.998c-6.852,0.103-13.707,0.246-20.554,0.082c-0.943-0.023-2.123-1.547-2.722-2.636
	C167.918,309.145,165.265,303.939,162.34,298.36z"/>
<path fill-rule="evenodd" clip-rule="evenodd" fill="#FFFFFF" d="M288.307,44.53c23.932,20.113,38.375,45.604,43.214,76.49
	c-0.308-0.655-0.708-1.284-0.909-1.971c-3.268-11.161-9.816-20.604-15.826-30.33c-0.387-0.627-0.784-1.282-0.995-1.979
	c-3.834-12.652-11.179-23.331-18.968-33.755C292.693,50.135,290.481,47.347,288.307,44.53z"/>
<path fill-rule="evenodd" clip-rule="evenodd" fill="#FFFFFF" d="M209.843,121.113c-0.849,4.884-1.588,9.79-2.577,14.646
	c-1.091,5.358-2.397,10.673-3.644,15.999c-0.287,1.226-0.617,2.284-2.381,2.253c-6.204-0.108-12.41-0.042-18.79-0.5
	c11.114-9.203,19.16-20.615,26.541-32.573C209.276,120.997,209.559,121.055,209.843,121.113z"/>
<path fill-rule="evenodd" clip-rule="evenodd" fill="#FFFFFF" d="M294.788,171.306c-3.963-0.5-7.334-0.926-10.583-1.336
	c2.903-7.481,5.83-15.023,9.082-23.401C293.81,155.194,294.292,163.136,294.788,171.306z"/>
<path fill-rule="evenodd" clip-rule="evenodd" fill="#FFFFFF" d="M196.315,298.447c5.564,1.535,10.546,3.313,11.256,10.076
	c0.368,3.499,1.734,6.894,2.208,10.553C205.291,312.199,200.802,305.323,196.315,298.447z"/>
<path fill-rule="evenodd" clip-rule="evenodd" fill="#FFFFFF" d="M510.73,140.491c3.328,5.052,6.657,10.103,10.067,15.279
	c-1.512,0.838-3.153,1.749-5.331,2.957c1.007,0.291,1.372,0.534,1.592,0.439c4.354-1.877,7.291-0.365,10.705,2.855
	c4.112,3.878,9.34,6.598,14.181,9.667c2.479,1.573,5.17,2.813,8.324,4.502c-2.843-6.397-5.378-12.102-8.132-18.299
	c1.506-0.247,2.413-0.501,3.327-0.523c2.373-0.057,4.754,0.1,7.121-0.026c6.258-0.337,11.745,0.768,16.998,4.944
	c4.071,3.239,9.547,4.698,14.353,7.043c0.887,0.432,2.162,1.271,2.22,2.003c0.418,5.301,0.57,10.622,0.829,16.444
	c-1.553-0.894-2.645-1.444-3.654-2.117c-7.931-5.277-16.758-7.569-26.175-7.921c-0.996-0.037-1.996-0.018-2.989-0.078
	c-10.266-0.629-17.277,4.166-19.302,14.184c-2.191,10.842-2.885,21.833,1.039,32.528c2.239,6.102,5.892,11.328,11.209,15.148
	c11.968,8.598,27.759,1.989,29.992-12.58c0.466-3.041,0.592-6.264,0.132-9.29c-1.419-9.329-2.561-18.839-10.383-26.375
	c6.972,1.664,11.923,5.012,16.775,9.165c3.45,2.952,3.968,5.899,3.916,9.84c-0.223,16.958-0.296,33.918-0.327,50.878
	c-0.003,1.822-0.675,2.765-2.236,3.396c-6.118,2.47-12.138,5.217-18.354,7.407c-12.029,4.24-24.399,7.178-37.103,8.556
	c-17.019,1.848-33.901,1.313-50.444-3.495c-7.522-2.185-13.853-6.19-18.044-13.103c-2.325-3.834-2.973-7.887-2.099-12.233
	c0.049-0.245,0.132-0.483,0.19-0.725c3.09-12.802,3.929-9.266-2.813-22.582c-2.301-4.543-4.546-9.114-6.946-13.933
	c2.124-0.116,4.02-0.22,5.447-0.297c2.805,5.908,5.107,12.147,8.579,17.649c3.09,4.897,7.423,9.026,11.33,13.383
	c0.876,0.976,2.187,1.689,3.431,2.189c6.941,2.786,11.781-0.08,12.95-7.464c0.897-5.678,0.124-11.281-1.371-16.656
	c-2.874-10.34-7.587-19.714-15.411-27.428c-5.977-5.892-12.583-7.13-20.239-4.354c-0.806,0.292-1.615,0.578-3.006,1.075
	c-0.421-5.578-0.881-10.87-1.126-16.171c-0.026-0.545,1.149-1.476,1.911-1.671c3.117-0.8,6.271-1.55,9.456-1.929
	c0.782-0.092,1.982,1.126,2.575,2.019c4.427,6.661,9.904,12.271,16.838,16.245c3.379,1.937,7.158,3.172,11.008,4.324
	c-6.724-5.542-8.253-13.391-10.484-20.892c15.7,15.152,16.642,15.717,36.087,22.722C510.576,178.658,511.85,159.458,510.73,140.491z
	"/>
<path fill-rule="evenodd" clip-rule="evenodd" fill="#FFFFFF" d="M604.723,435.899c0.231,2.447,0.464,4.894,0.701,7.401
	c-3.804-0.969-6.586-5.175-6.222-9.359c0.303-3.479,0.501-6.997,1.191-10.408c1.479-7.311-0.469-14.408-1.168-21.546
	c-1.619-16.521-3.562-33.017-5.685-49.482c-1.101-8.529-2.837-16.978-4.36-25.448c-0.182-1.008-0.839-1.929-1.963-2.761
	c-0.134,1.005-0.269,2.01-0.403,3.032c-0.241,0-0.542,0.088-0.632-0.013c-2.457-2.782-2.785-5.572-2.021-9.47
	c1.39-7.078,3.809-13.671,6.632-20.193c1.512-3.492,1.635-3.119,5.258-2.583c8.816,1.305,13.217,6.592,14.827,14.959
	c2.665,13.846,5.562,27.646,8.183,41.5c3.183,16.818,5.987,33.739,6.23,50.87c0.137,9.692,2.462,19.003,3.295,28.547
	c0.368,4.227-0.589,7.495-3.79,10.316c-2.806,2.472-5.382,5.214-7.953,7.937c-1.572,1.663-3.383,1.966-5.461,1.495
	c-2.181-0.494-2.364-2.437-2.693-4.08c-0.748-3.734-1.087-7.575-3.179-10.878C605.249,435.791,604.985,435.844,604.723,435.899z"/>
<path fill-rule="evenodd" clip-rule="evenodd" fill="#FFFFFF" d="M652.625,197.998c-5.618-5.328-10.726-4.722-15.779,1.736
	c-0.146-2.219-0.313-3.969-0.363-5.722c-0.092-3.246,0.11-6.518-0.241-9.732c-0.271-2.485,0.805-3.457,2.904-3.883
	c4.048-0.823,7.685,0.323,11.027,2.515c3.887,2.549,6.646,6.165,8.308,10.399c7.65,19.492-1.072,37.768-22.122,42.497
	c-0.326,0.073-0.7-0.066-1.386-0.144c0.249-2.136,0.575-4.205,0.717-6.287c0.481-7.086,1.023-14.173,1.307-21.269
	c0.299-7.504,6.393-12.348,13.599-10.569C651.055,197.652,651.521,197.749,652.625,197.998z"/>
<path fill-rule="evenodd" clip-rule="evenodd" fill="#FFFFFF" d="M541.607,317.205c2.622-5.67,4.79-10.524,7.158-15.278
	c0.307-0.615,1.702-1.093,2.503-0.981c2.394,0.331,4.743,0.986,7.657,1.638c-1.292-4.041-5.31-2.616-7.86-4.453
	c1.373-2.771,2.833-4.974,6.324-5.958c5.608-1.582,11.066-3.751,16.477-5.946c1.958-0.794,3.477-1.748,5.33,0.164
	c0.803,0.827,2.156,1.118,2.683,1.374c-4.388,8.437-8.887,16.89-13.176,25.45c-1.298,2.591-2.83,4.088-5.899,4.031
	C556,317.119,549.193,317.205,541.607,317.205z"/>
<path fill-rule="evenodd" clip-rule="evenodd" fill="#FFFFFF" d="M534.981,123.133c6.091,10.877,12.656,21.399,22.761,29.833
	c-5.406,0.394-10.175,0.795-14.952,1.023c-0.592,0.028-1.635-0.757-1.782-1.338c-2.461-9.736-4.813-19.5-7.189-29.258
	C534.206,123.307,534.593,123.22,534.981,123.133z"/>
<path fill-rule="evenodd" clip-rule="evenodd" fill="#FFFFFF" d="M449.215,170.753c0-9.007,0-17.946,0-26.886
	c2.709,9.282,6.028,18.356,11.967,26.886C456.997,170.753,453.455,170.753,449.215,170.753z"/>
<path fill-rule="evenodd" clip-rule="evenodd" fill="#FFFFFF" d="M528.499,317.228c1.121-4.553,2.142-9.136,3.439-13.638
	c0.298-1.033,1.403-2.044,2.396-2.618c1.916-1.107,4.017-1.896,6.634-2.394c-3.926,6.332-7.851,12.666-11.776,18.998
	C528.96,317.461,528.729,317.344,528.499,317.228z"/>
<rect x="290.783" y="500.974" fill-rule="evenodd" clip-rule="evenodd" fill="none" width="86.667" height="80.667"/>
<text transform="matrix(1 0 0 1 290.7832 520.3345)"><tspan x="0" y="0" fill="#FFFFFF" font-family="'SjKoburinaGoStdN-W9-90ms-RKSJ-H'" font-size="22">もし～</tspan><tspan x="0" y="26.399" fill="#FFFFFF" font-family="'SjKoburinaGoStdN-W9-90ms-RKSJ-H'" font-size="22">ならば</tspan></text>
<rect x="392.701" y="503.614" fill-rule="evenodd" clip-rule="evenodd" fill="none" width="86.668" height="80.667"/>
<text transform="matrix(1 0 0 1 392.7007 521.2134)"><tspan x="0" y="0" fill="#FFFFFF" font-family="'SjKoburinaGoStdN-W9-90ms-RKSJ-H'" font-size="20">そうで</tspan><tspan x="0" y="24" fill="#FFFFFF" font-family="'SjKoburinaGoStdN-W9-90ms-RKSJ-H'" font-size="20">なければ</tspan></text>
<line fill-rule="evenodd" clip-rule="evenodd" fill="none" stroke="#000000" stroke-width="2" stroke-linecap="round" stroke-linejoin="round" stroke-miterlimit="10" x1="219.367" y1="266.616" x2="222.709" y2="266.616"/>
<line fill-rule="evenodd" clip-rule="evenodd" fill="none" stroke="#000000" stroke-width="2" stroke-linecap="round" stroke-linejoin="round" stroke-miterlimit="10" x1="509.367" y1="266.616" x2="512.709" y2="266.616"/>
</svg>
