<svg xmlns="http://www.w3.org/2000/svg" xml:space="preserve" width="732.836" height="584.281" viewBox="0 0 732.836 584.281"><path fill-rule="evenodd" d="M327.65 234.652c-7.149-3.665-12.021-8.314-14.641-15.12 0 3.906-.043 7.813.008 11.718.172 13.289-.704 26.504-4.468 39.292-3.812 12.942-11.103 23.36-23.666 29.423-4.224 2.038-8.663 3.023-13.593 3.377 4.939-5.725 6.029-12.606 7.622-19.444-7.654 8.458-17.259 13.123-28.085 15.633l6.338-14.568c-4.168.708-7.696 1.228-11.191 1.914-9.15 1.796-18.352 1.578-27.489.299-10.622-1.486-21.174-3.463-31.756-5.235-.738-.124-1.468-.3-2.196-.478-1.854-.45-2.797.531-3.378 2.114-.641 1.749.392 2.448 1.781 3.079 5.111 2.317 10.093 4.952 15.311 6.989 7.612 2.973 12.383 8.107 14.004 16.176 2.997 14.917 6.852 29.647 8.135 44.915.939 11.178 3.409 21.941 8.403 32.38 8.121 16.972 14.789 34.637 22.151 51.975 2.487 5.857 5.064 11.688 7.893 17.385 1.833 3.694 1.236 6.713-1.406 9.583-4.734 5.142-10.728 8.214-17.398 9.718-4.222.952-8.64 1.149-12.987 1.382-1.713.093-2.382.546-2.742 2.192-5.112 23.406-10.29 46.797-15.432 70.196-1.125 5.12-2.182 10.255-3.245 15.389-.296 1.437-.5 2.893-.862 5.026h28.733l.085 1.145c-3.833.673-7.648 1.479-11.503 1.985-5.635.743-11.287 1.44-16.954 1.839-4.699.33-9.432.176-14.148.28-6.333.14-12.666.375-19 .473-7.714.12-15.432.06-23.145.229-5.452.12-10.904.792-16.345.683-8.818-.178-17.628-.785-26.44-1.229-10.045-.507-20.087-1.116-30.137-1.524-7.787-.317-15.585-.341-23.375-.608-2.44-.083-4.868-.534-7.306-1.314 31.465-4.084 63.044-6.171 95.313-6.407-1.258-2.696-2.304-4.911-3.329-7.136-8.784-19.058-13.182-39.232-15.329-59.988-.681-6.585-1.542-13.151-2.153-19.741-.178-1.924-.829-2.344-2.73-2.519-5.449-.501-10.938-1.05-16.263-2.245-3.825-.858-7.657-2.355-9.684-6.387-.338-.674-1.61-.895-2.467-1.287-4.286-1.962-8.797-3.548-12.806-5.967-4.018-2.424-4.458-5.063-2.049-9.216 5.005-8.634 10.231-17.139 15.368-25.696 4.75-7.913 9.054-16.145 14.392-23.638 4.179-5.867 5.952-11.981 6.735-18.995 1.757-15.746 4.111-31.43 6.41-47.112 1.704-11.627 4.211-23.065 8.929-33.929 1.356-3.123 3.256-5.455 6.28-7.104 5.119-2.793 10.096-5.844 15.73-9.137-13.682-1.77-24.284-8.371-32.837-18.527l-.643.403 3.149 10.177c-2.184-.594-4.066-.882-5.763-1.604-9.916-4.223-18.229-10.765-25.887-18.212-.709-.69-1.3-1.501-2.224-2.046 1.439 6.811 4.915 12.43 10.308 17.778-23.025-4.397-36.275-18.837-44.729-38.907.019 7.846 1.437 15.233 6.095 22.593-5.32-2.697-9.97-5.003-13.79-8.771-10.808-10.662-16.297-23.75-17.597-38.683-.54-6.2-.613-12.441-.92-19.134-7.202 1.895-14.468 4.019-22.737 2.546 1.574-2.073 2.849-3.704 4.073-5.373 5.167-7.039 10.526-13.947 15.401-21.183 3.262-4.842 6.366-9.936 8.545-15.32 1.982-4.9 3.021-10.286 3.777-15.559 2.276-15.876 6.18-31.301 11.624-46.377C48.93 73.95 57.422 60.65 68.622 48.91c8.81-9.234 17.559-18.416 28.452-25.331 8.458-5.37 17.418-9.64 26.687-13.302C141.722 3.182 160.486.051 179.706 0c15.14-.04 30.02 2.33 44.706 6.124 20.443 5.282 39.251 13.918 56.067 26.698 23.842 18.12 41.997 40.466 51.022 69.502 1.333 4.289 2.986 8.479 4.305 12.772 3.516 11.457 2.921 23.215 2.372 34.959-.5 10.689-3.299 20.87-6.457 31.033-1.503 4.834-2.336 9.984-2.685 15.045-.737 10.702-.966 21.438-1.376 32.162-.071 1.856-.01 3.717-.01 6.357m-93.555-96.895c-.883 1.471-1.337 2.253-1.817 3.021-2.572 4.115-5.027 8.309-7.77 12.307-1.714 2.5-1.899 2.351.924 3.937.629.353 1.168.865 2.416 1.808-2.407-.242-3.886-.489-5.368-.503-.912-.009-2.144.025-2.693.576-6.179 6.219-14.125 9.806-21.347 14.46-1.462.942-3.191 1.469-5.002 2.278l8.024-17.846c-7.975 0-15.339-.069-22.698.06-1.409.025-3.043.508-4.165 1.333-6.211 4.571-13.081 7.739-20.341 10.19-.821.277-2.056 1.105-2.073 1.707-.16 5.527-.094 11.062-.094 16.603.273-.056.552-.036.729-.162 13.096-9.295 27.965-10.567 43.298-9.38 4.4.341 7.865 2.916 9.538 6.962 1.311 3.166 2.194 6.681 2.389 10.091.239 4.198-.247 8.47-.752 12.671-.975 8.11-2.713 16.042-7.445 22.931-4.051 5.898-8.943 10.731-16.344 12.237-9.697 1.973-19.645-4.208-21.005-13.363-1.988-13.377 1.236-25.49 9.344-36.311.452-.604.813-1.276 1.216-1.916l-.532-.679c-4.183 1.855-8.534 3.413-12.494 5.66-3.1 1.759-5.763 4.315-8.503 6.654-.5.427-.608 1.519-.604 2.302.086 18.479.265 36.958.265 55.437 0 2.305.82 3.479 2.78 4.233 6.166 2.373 12.254 4.969 18.498 7.116 21.491 7.389 43.557 10.801 66.28 8.664 10.429-.981 20.824-2.494 29.999-8.143 7.44-4.581 14.472-13.273 9.929-24.347-.421-1.024-.417-2.217-.779-3.273-1.492-4.361-.469-8.29 1.723-12.16 2.152-3.802 4.124-7.71 6.069-11.624 1.182-2.378 2.163-4.854 3.37-7.597-1.219.13-1.854.342-2.428.236-2.857-.528-4.027.746-4.731 3.478-2.14 8.304-6.77 15.231-12.655 21.349-2.505 2.604-4.896 5.426-7.792 7.521-5.735 4.148-12.059 1.203-12.931-5.757-.201-1.607-.416-3.266-.236-4.857 1.712-15.174 8.203-27.931 19.879-37.814 6.282-5.317 13.573-6.497 21.421-3.78.916.317 1.879.499 3.619.95.441-6.296.854-12.229 1.277-18.162.134-1.884-1.097-2.243-2.584-2.446-2.589-.355-5.292-.439-7.71-1.3-1.722-.612-2.323-.215-3.354.983-3.083 3.585-6.108 7.276-9.584 10.457-5.948 5.444-13.035 8.958-20.833 11.013 8.262-5.376 9.481-14.721 13.11-22.777-9.696 11.873-21.914 19.643-36.539 23.481.974-2.486 2.334-5.025 2.973-7.735 3.868-16.409 4.009-33.142 4.133-50.774m-82.761 189.802c2.045-1.943 4.875-3.583 3.732-6.994-2.377-7.096-4.653-14.236-7.348-21.213-1.938-5.021-2.171-4.698-7.406-3.747-6.511 1.182-10.53 4.766-12.139 11.142-.275 1.089-.704 2.144-.919 3.242-2.427 12.368-5.147 24.689-7.153 37.127-2.582 16.008-4.709 32.096-6.792 48.18-1.181 9.124-1.916 18.307-2.78 27.47-.363 3.851-.679 7.717-.723 11.579-.016 1.378.458 3.112 1.355 4.089 3.625 3.948 7.35 7.836 11.342 11.405 2.624 2.345 6.05 1.016 6.946-2.383.604-2.292.85-4.682 1.518-6.951.518-1.76 1.441-3.399 2.185-5.093l.921.337c-.155 1.206-.259 2.422-.478 3.616-.229 1.247-.568 2.474-.958 4.13 4.824-2.319 6.761-5.729 6.405-10.06-.53-6.448-1.803-12.979-1.254-19.344 1.63-18.908 3.793-37.778 6.156-56.611 1.271-10.128 3.349-20.157 5.15-30.215.197-1.102.969-2.1 1.474-3.146l.614.187zm-48.197-92.03c-.535-9.23-1.129-18.172-1.547-27.121-.353-7.551-7.481-12.893-14.75-10.902-.424.116-.886.099-1.895.2 6.631-4.824 9.862-4.471 16.388 1.606.194-5.246.393-10.176.554-15.107.104-3.172-.208-3.604-3.466-3.871-6.954-.567-12.354 2.202-16.351 7.865-3.917 5.552-4.876 11.915-5.089 18.476-.454 13.994 9.644 27.179 26.156 28.854m71.201 246.888-1.053-.172c-.141.444-.303.883-.418 1.334-4.117 16.154-6.148 32.635-7.12 49.221-.576 9.832-.242 19.717-.299 29.578-.007 1.22-.222 2.65 1.716 2.648 4.817-.002 9.635 0 14.803 0-1.118-3.805-2.219-7.102-3.053-10.464-4.399-17.728-4.531-35.827-4.573-53.929-.015-6.073-.003-12.145-.003-18.216M162.34 298.36c2.924 5.579 5.578 10.785 8.396 15.9.599 1.089 1.779 2.612 2.722 2.636 6.847.164 13.702.021 20.554-.082 2.343-.034 2.256-1.362 1.427-2.998-1.352-2.669-2.687-5.347-4.025-8.021-3.376-6.746-2.053-6.198-9.73-3.94-.755.222-1.657-.052-2.491-.095.579-.693 1.028-1.74 1.762-2.008 1.817-.662 3.764-.967 5.896-1.472-1.44-3.041-3.057-5.013-6.133-6.01-5.545-1.799-11.027-3.873-16.346-6.255-2.538-1.136-4.523-2.453-6.415.704-.316.529-1.162.741-1.857 1.156.436.606.83.967.995 1.413 1.836 4.969 5.151 7.721 10.635 8.277 2.303.232 5.083.96 6.821 4.255zM288.307 44.53c2.174 2.817 4.387 5.604 6.516 8.455 7.789 10.424 15.134 21.103 18.968 33.755.211.697.608 1.352.995 1.979 6.01 9.727 12.558 19.169 15.826 30.33.202.687.602 1.315.909 1.971-4.839-30.886-19.282-56.377-43.214-76.49m-78.464 76.583-.851-.175c-7.381 11.958-15.427 23.37-26.541 32.573 6.38.458 12.586.392 18.79.5 1.765.031 2.095-1.027 2.381-2.253 1.246-5.326 2.552-10.641 3.644-15.999.988-4.856 1.728-9.762 2.577-14.646m84.945 50.193-1.502-24.737-9.082 23.401zm-98.473 127.141 13.463 20.629c-.473-3.659-1.84-7.054-2.208-10.553-.709-6.764-5.691-8.541-11.255-10.076M448.484 41.754c5.419-4.375 10.665-8.988 16.29-13.081 18.052-13.133 38.335-21 60.153-25.376C540.206.232 555.57-.287 571.033.562c12.29.675 24.156 3.606 35.816 7.359 15.524 4.997 29.9 12.367 43.069 21.952 4.11 2.992 7.819 6.611 11.37 10.275 5.3 5.468 10.33 11.198 15.412 16.874 8.476 9.466 13.692 20.752 18.114 32.498 5.731 15.225 9.049 31.021 12.145 46.952 1.843 9.484 5.057 18.816 8.652 27.817 4.34 10.866 9.724 21.315 14.696 31.926.557 1.188 1.377 2.252 2.527 4.1-6.325-.499-11.288-3.672-17.014-4.472-.486 5.605-.702 11.08-1.479 16.473-2.211 15.341-8.354 28.723-20.606 38.704-2.552 2.079-5.728 3.393-8.932 4.913 3.464-6.683 3.994-13.897 4.555-21.187-8.411 19.942-22.179 33.608-43.835 38.275 4.686-4.678 7.096-10.561 9.834-16.924-5.794 4.576-10.967 8.942-16.436 12.901-5.542 4.011-11.404 7.552-18.453 8.747l3.544-9.546c-5.533 3.969-10.235 8.064-15.583 10.976-5.418 2.949-11.474 4.727-17.376 7.067.396.241 1.023.661 1.685 1.016 4.616 2.479 9.22 4.982 13.867 7.398 2.834 1.474 4.734 3.802 5.678 6.701 2.656 8.16 6.017 16.236 7.435 24.625 3.386 20.042 5.895 40.234 8.576 60.391.638 4.792 1.896 9.003 4.729 13.119 5.302 7.699 9.868 15.904 14.736 23.901q7.69 12.635 15.368 25.275a40 40 0 0 1 1.471 2.609c1.881 3.685 1.689 6.252-1.846 8.404-4.21 2.562-8.883 4.397-13.455 6.31-1.291.539-2.231.951-3.144 2.18-1.198 1.613-2.972 2.995-4.782 3.922-5.663 2.897-11.889 3.648-18.132 4.208-4.407.395-4.316.42-4.854 4.98-1.343 11.41-2.296 22.895-4.286 34.194-2.819 16.006-7.07 31.667-14.641 46.222-.512.984-.899 2.032-1.291 2.928l96.264 5.881c-4.289 2.323-12.684 3.15-17.098 3.171-8.532.04-17.063.482-25.594.759-1.485.049-2.972.096-4.458.161-11.438.506-22.872 1.271-34.316 1.461-14.271.236-28.551.132-42.823-.08-9.398-.14-18.794-.686-28.186-1.127-8.424-.396-16.854-.754-25.259-1.417-3.863-.305-7.671-1.298-11.505-1.979l.088-1.273h28.063c-1.123-5.799-2.028-10.797-3.066-15.768-4.082-19.554-8.146-39.113-12.354-58.64-1.21-5.611-3.026-11.09-4.26-16.696-.452-2.054-1.299-2.213-3.053-2.077-9.976.771-19.08-1.748-27.172-7.654-1.593-1.163-3.056-2.595-4.291-4.133-1.578-1.965-2.153-4.391-.923-6.693 8.318-15.573 13.522-32.451 20.5-48.581 4.457-10.306 9.668-20.289 14.015-30.638 1.901-4.528 2.812-9.557 3.602-14.45 1.709-10.594 2.778-21.295 4.628-31.861 1.504-8.596 3.771-17.058 5.687-25.581 1.367-6.079 5.106-10.149 10.679-12.675 5.796-2.627 11.548-5.362 17.429-7.783 1.698-.7 2.614-1.288 2.05-3.146-.561-1.849-1.706-2.531-3.691-2.101-5.489 1.188-10.961 2.623-16.521 3.29-10.873 1.303-21.785 2.685-32.711 2.995-7.114.202-14.282-1.428-21.784-2.278.76 4.674 3.398 8.868 5.741 13.857-11.431-2.015-20.438-7.217-27.966-15.54-.203 5.529 3.289 14.774 7.206 19.158-7.669-.269-14.352-2.725-20.371-6.989-10.588-7.504-16.054-18.39-18.445-30.625-1.69-8.648-2.079-17.604-2.41-26.446-.198-5.307.843-10.66 1.298-15.994a6.9 6.9 0 0 0-.379-2.97c-3.186 7.468-9.096 11.704-16.862 15.342 0-2.365-.077-4.15.013-5.928.671-13.405-.821-26.694-2.467-39.938-.59-4.75-2.535-9.329-3.833-13.994-3.577-12.861-4.702-26.013-4.531-39.303.138-10.734 3.116-20.896 6.374-31.005 4.818-14.958 11.384-29.028 20.563-41.855 4.549-6.355 9.859-11.914 16.029-16.667.763-.587 1.743-.895 2.622-1.332-22.021 24.823-38.121 52.316-39.069 86.657a4.45 4.45 0 0 0 1.081-1.824c1.513-5.136 3.056-10.264 4.466-15.428 1.691-6.191 5.102-11.429 9.414-15.963 2.679-2.817 4.322-5.767 5.396-9.508 2.766-9.64 8.65-17.675 14.729-25.418 12.186-15.521 26.981-28.315 42.933-39.823 1.026-.74 2.029-1.513 3.044-2.27-4.34 1.14-8.299 2.888-12.279 4.586-8.309 3.543-16.062 7.998-23.04 13.771-.817.67-1.914 1.001-2.88 1.491m62.246 98.737c1.12 18.967-.154 38.167 6.614 56.699-19.445-7.005-20.387-7.57-36.087-22.722 2.231 7.501 3.761 15.35 10.484 20.892-3.85-1.151-7.629-2.387-11.008-4.324-6.934-3.974-12.411-9.584-16.838-16.245-.593-.892-1.793-2.111-2.575-2.019-3.186.379-6.339 1.129-9.456 1.929-.762.195-1.938 1.125-1.911 1.671.245 5.301.705 10.593 1.126 16.171 1.391-.497 2.2-.782 3.006-1.075 7.656-2.775 14.263-1.538 20.239 4.354 7.824 7.714 12.537 17.088 15.411 27.428 1.495 5.375 2.269 10.978 1.371 16.656-1.169 7.384-6.009 10.25-12.95 7.464-1.244-.5-2.555-1.213-3.431-2.189-3.907-4.357-8.24-8.486-11.33-13.383-3.472-5.502-5.774-11.742-8.579-17.649l-5.447.297c2.4 4.819 4.646 9.389 6.946 13.933 6.741 13.316 5.902 9.779 2.813 22.582-.059.242-.142.48-.19.725-.874 4.347-.227 8.399 2.099 12.233 4.191 6.913 10.521 10.917 18.044 13.103 16.543 4.808 33.426 5.343 50.444 3.495 12.703-1.378 25.073-4.316 37.103-8.556 6.216-2.19 12.235-4.937 18.354-7.407 1.562-.631 2.233-1.574 2.236-3.396.031-16.96.104-33.921.327-50.878.052-3.941-.466-6.888-3.916-9.84-4.853-4.152-9.804-7.501-16.775-9.165 7.822 7.535 8.964 17.046 10.383 26.375.46 3.026.334 6.25-.132 9.29-2.233 14.569-18.024 21.178-29.992 12.58-5.317-3.82-8.97-9.046-11.209-15.148-3.924-10.696-3.23-21.686-1.039-32.528 2.024-10.018 9.036-14.813 19.302-14.184.993.061 1.993.041 2.989.078 9.417.352 18.244 2.644 26.175 7.921 1.01.672 2.102 1.223 3.654 2.117-.259-5.822-.411-11.143-.829-16.444-.058-.732-1.333-1.571-2.22-2.003-4.806-2.345-10.281-3.804-14.353-7.043-5.253-4.177-10.74-5.281-16.998-4.944-2.367.126-4.748-.03-7.121.026-.914.022-1.821.277-3.327.523l8.132 18.299c-3.154-1.69-5.845-2.93-8.324-4.502-4.841-3.069-10.068-5.789-14.181-9.667-3.414-3.22-6.352-4.732-10.705-2.855-.22.094-.585-.149-1.592-.439l5.331-2.957zm93.993 295.408.788-.164c2.092 3.303 2.431 7.144 3.179 10.878.329 1.644.513 3.586 2.693 4.08 2.078.471 3.889.168 5.461-1.495 2.571-2.723 5.147-5.465 7.953-7.937 3.201-2.821 4.158-6.09 3.79-10.316-.833-9.544-3.158-18.854-3.295-28.547-.243-17.131-3.048-34.052-6.23-50.87-2.621-13.854-5.518-27.654-8.183-41.5-1.61-8.367-6.011-13.654-14.827-14.959-3.623-.536-3.746-.909-5.258 2.583-2.823 6.522-5.242 13.115-6.632 20.193-.765 3.897-.437 6.688 2.021 9.47.09.101.391.013.632.013l.403-3.032q1.688 1.248 1.963 2.761c1.523 8.471 3.26 16.919 4.36 25.448 2.123 16.466 4.065 32.961 5.685 49.482.699 7.138 2.646 14.235 1.168 21.546-.69 3.411-.889 6.929-1.191 10.408-.364 4.185 2.418 8.391 6.222 9.359zm47.902-237.901c-1.104-.249-1.569-.346-2.03-.459-7.206-1.779-13.3 3.065-13.599 10.569-.283 7.096-.825 14.183-1.307 21.269-.142 2.082-.468 4.15-.717 6.287.686.078 1.06.217 1.386.144 21.05-4.729 29.772-23.004 22.122-42.497-1.662-4.234-4.421-7.85-8.308-10.399-3.343-2.192-6.979-3.337-11.027-2.515-2.1.426-3.176 1.398-2.904 3.883.352 3.214.149 6.486.241 9.732.05 1.752.218 3.502.363 5.722 5.054-6.458 10.161-7.064 15.78-1.736m-96.269 367.233c4.708 0 9.174-.036 13.638.016 2.068.023 2.787-.862 2.796-2.927.026-6.104.394-12.21.337-18.313-.189-20.556-3.166-40.76-8.01-60.708-.115-.475-.557-.871-.846-1.305-.642 2.287-.646 4.396-.641 6.506.022 8.609.269 17.225.025 25.827-.46 16.346-1.166 32.688-6.767 48.332-.239.674-.298 1.412-.532 2.572m-14.749-248.026c7.586 0 14.393-.086 21.196.039 3.069.057 4.602-1.44 5.899-4.031 4.289-8.56 8.788-17.013 13.176-25.45-.526-.255-1.88-.547-2.683-1.374-1.854-1.912-3.372-.958-5.33-.164-5.41 2.194-10.868 4.364-16.477 5.946-3.491.984-4.951 3.188-6.324 5.958 2.551 1.837 6.568.412 7.86 4.453-2.914-.651-5.264-1.307-7.657-1.638-.801-.111-2.196.366-2.503.981-2.367 4.755-4.535 9.61-7.157 15.28m-6.626-194.072-1.163.261c2.376 9.758 4.729 19.522 7.189 29.258.147.581 1.19 1.366 1.782 1.338 4.777-.229 9.546-.629 14.952-1.023-10.104-8.435-16.669-18.957-22.76-29.834m-85.766 47.62h11.967c-5.938-8.53-9.258-17.604-11.967-26.886zm79.284 146.475.692.349 11.776-18.998c-2.617.497-4.718 1.286-6.634 2.394-.992.574-2.098 1.585-2.396 2.618-1.297 4.501-2.317 9.084-3.438 13.637m-53.158 251.604 14.942 1.074c-2.365 1.848-6.074 2.735-10.241 2.726-25.64-.059-51.279-.132-76.919-.204-3.223-.009-6.451.064-9.669-.08-4.188-.189-6.257-1.947-6.443-6.219-.331-7.599-.344-15.215-.323-22.824.047-17.731.191-35.462.302-53.193.006-.998.03-1.998.097-2.994.269-4.013 2.093-6.381 6.112-6.724 5.818-.498 11.681-.633 17.525-.659 19.209-.082 38.419-.047 57.628-.051 5.461-.001 8.049 2.552 8.046 7.988-.018 24.845-.028 49.69-.123 74.535-.008 2.195-.604 4.388-.934 6.625m-108.29-1.3 13.467 1.067.125 1.758c-2.74.517-5.475 1.459-8.221 1.483-33.846.321-67.692.581-101.539.641-4.52.008-9.042-1.168-13.563-1.795l.081-2.055 17.818-1.502c0-20.985-.004-41.979.005-62.976.003-3.927-.016-7.858.119-11.782.208-6.142 3.704-10.092 9.858-10.15 23.76-.228 47.525-.343 71.285-.156 7.626.06 11.222 3.785 11.313 11.442.272 22.785.227 45.574.229 68.362.001 1.728-.58 3.455-.977 5.663" clip-rule="evenodd"/><path fill="#fff" fill-rule="evenodd" d="M448.484 41.754c.966-.49 2.063-.822 2.878-1.497 6.979-5.773 14.731-10.228 23.04-13.771 3.98-1.698 7.939-3.446 12.279-4.586-1.015.757-2.018 1.53-3.044 2.27-15.951 11.507-30.747 24.301-42.933 39.823-6.078 7.743-11.963 15.779-14.729 25.418-1.073 3.741-2.717 6.69-5.396 9.508-4.313 4.535-7.723 9.772-9.414 15.963-1.41 5.165-2.953 10.292-4.466 15.428a4.45 4.45 0 0 1-1.081 1.824c.948-34.341 17.049-61.833 39.069-86.657q1.9-1.86 3.797-3.723m-214.389 96.003c-.125 17.632-.266 34.365-4.132 50.775-.639 2.709-1.999 5.249-2.973 7.735 14.625-3.838 26.842-11.609 36.539-23.481-3.629 8.056-4.848 17.401-13.11 22.777 7.798-2.054 14.885-5.569 20.833-11.013 3.476-3.181 6.501-6.872 9.584-10.457 1.03-1.198 1.632-1.596 3.354-.983 2.419.861 5.121.945 7.71 1.3 1.487.204 2.718.562 2.584 2.446-.423 5.933-.836 11.866-1.277 18.162-1.74-.451-2.703-.633-3.619-.95-7.849-2.716-15.14-1.537-21.421 3.78-11.676 9.883-18.167 22.64-19.879 37.814-.18 1.591.036 3.25.236 4.857.872 6.96 7.196 9.905 12.931 5.757 2.896-2.095 5.287-4.917 7.792-7.521 5.885-6.118 10.515-13.045 12.655-21.349.705-2.731 1.874-4.006 4.731-3.478.575.106 1.209-.105 2.428-.236-1.208 2.743-2.188 5.219-3.37 7.597-1.945 3.914-3.917 7.822-6.069 11.624-2.192 3.87-3.215 7.798-1.723 12.16.361 1.057.357 2.249.779 3.273 4.542 11.074-2.489 19.766-9.929 24.347-9.174 5.648-19.569 7.161-29.999 8.143-22.723 2.138-44.79-1.274-66.28-8.664-6.243-2.146-12.332-4.743-18.498-7.116-1.96-.754-2.78-1.928-2.78-4.233 0-18.479-.179-36.958-.265-55.437-.004-.783.104-1.875.604-2.302 2.74-2.339 5.403-4.896 8.503-6.654 3.96-2.247 8.311-3.805 12.494-5.66l.532.679c-.403.64-.764 1.312-1.216 1.916-8.108 10.821-11.332 22.934-9.344 36.311 1.36 9.155 11.309 15.335 21.005 13.363 7.401-1.506 12.293-6.339 16.344-12.237 4.732-6.889 6.47-14.82 7.445-22.931.505-4.201.991-8.473.752-12.671-.195-3.411-1.079-6.926-2.389-10.091-1.673-4.046-5.138-6.621-9.538-6.962-15.333-1.188-30.202.085-43.298 9.38-.176.125-.456.105-.729.162 0-5.542-.066-11.076.094-16.603.018-.602 1.252-1.43 2.073-1.707 7.26-2.451 14.13-5.619 20.341-10.19 1.122-.825 2.756-1.309 4.165-1.333 7.359-.129 14.723-.06 22.698-.06l-8.024 17.846c1.811-.809 3.541-1.336 5.002-2.278 7.222-4.654 15.167-8.241 21.347-14.46.549-.551 1.781-.585 2.693-.576 1.482.014 2.961.261 5.368.503-1.248-.943-1.787-1.455-2.416-1.808-2.824-1.586-2.639-1.437-.924-3.937 2.743-3.998 5.198-8.192 7.77-12.307.479-.768.933-1.551 1.816-3.022m-82.761 189.802-.151-3.253-.614-.187c-.505 1.046-1.277 2.044-1.474 3.146-1.801 10.058-3.879 20.087-5.15 30.215-2.363 18.833-4.526 37.703-6.156 56.611-.549 6.365.724 12.896 1.254 19.344.356 4.331-1.581 7.74-6.405 10.06.39-1.656.729-2.883.958-4.13.219-1.194.323-2.41.478-3.616l-.921-.337c-.744 1.693-1.667 3.333-2.185 5.093-.668 2.27-.915 4.659-1.518 6.951-.896 3.398-4.322 4.728-6.946 2.383-3.992-3.569-7.717-7.457-11.342-11.405-.897-.977-1.371-2.711-1.355-4.089.044-3.862.36-7.729.723-11.579.864-9.163 1.599-18.346 2.78-27.47 2.082-16.084 4.209-32.172 6.792-48.18 2.006-12.438 4.726-24.759 7.153-37.127.215-1.099.645-2.153.919-3.242 1.609-6.376 5.628-9.96 12.139-11.142 5.234-.951 5.467-1.273 7.406 3.747 2.695 6.977 4.97 14.117 7.348 21.213 1.142 3.411-1.688 5.051-3.733 6.994m-48.197-92.03c-16.512-1.675-26.609-14.86-26.155-28.853.213-6.561 1.172-12.924 5.089-18.476 3.996-5.663 9.397-8.433 16.351-7.865 3.258.266 3.57.698 3.466 3.871-.161 4.932-.359 9.861-.554 15.107-6.525-6.077-9.756-6.431-16.388-1.606 1.009-.102 1.47-.084 1.895-.2 7.269-1.991 14.397 3.351 14.75 10.902.417 8.948 1.011 17.89 1.546 27.12m59.203 62.831 12.21 3.459c-1.737-3.295-4.518-4.022-6.821-4.255-5.484-.557-8.798-3.309-10.635-8.277-.165-.446-.559-.806-.995-1.413.695-.415 1.541-.627 1.857-1.156 1.892-3.157 3.877-1.84 6.415-.704 5.318 2.382 10.8 4.457 16.346 6.255 3.076.997 4.693 2.969 6.133 6.01-2.133.505-4.08.81-5.896 1.472-.734.268-1.183 1.314-1.762 2.008.834.043 1.736.316 2.491.095 7.678-2.258 6.354-2.806 9.73 3.94 1.338 2.675 2.673 5.353 4.025 8.021.829 1.636.916 2.964-1.427 2.998-6.852.103-13.707.246-20.554.082-.943-.023-2.123-1.547-2.722-2.636-2.817-5.114-5.47-10.32-8.395-15.899M288.307 44.53c23.932 20.113 38.375 45.604 43.214 76.49-.308-.655-.708-1.284-.909-1.971-3.268-11.161-9.816-20.604-15.826-30.33-.387-.627-.784-1.282-.995-1.979-3.834-12.652-11.179-23.331-18.968-33.755-2.13-2.85-4.342-5.638-6.516-8.455" clip-rule="evenodd"/><path fill="#fff" fill-rule="evenodd" d="M209.843 121.113c-.849 4.884-1.588 9.79-2.577 14.646-1.091 5.358-2.397 10.673-3.644 15.999-.287 1.226-.617 2.284-2.381 2.253-6.204-.108-12.41-.042-18.79-.5 11.114-9.203 19.16-20.615 26.541-32.573zm84.945 50.193-10.583-1.336 9.082-23.401zm-98.473 127.141c5.564 1.535 10.546 3.313 11.256 10.076.368 3.499 1.734 6.894 2.208 10.553zM510.73 140.491l10.067 15.279-5.331 2.957c1.007.291 1.372.534 1.592.439 4.354-1.877 7.291-.365 10.705 2.855 4.112 3.878 9.34 6.598 14.181 9.667 2.479 1.573 5.17 2.813 8.324 4.502l-8.132-18.299c1.506-.247 2.413-.501 3.327-.523 2.373-.057 4.754.1 7.121-.026 6.258-.337 11.745.768 16.998 4.944 4.071 3.239 9.547 4.698 14.353 7.043.887.432 2.162 1.271 2.22 2.003.418 5.301.57 10.622.829 16.444-1.553-.894-2.645-1.444-3.654-2.117-7.931-5.277-16.758-7.569-26.175-7.921-.996-.037-1.996-.018-2.989-.078-10.266-.629-17.277 4.166-19.302 14.184-2.191 10.842-2.885 21.833 1.039 32.528 2.239 6.102 5.892 11.328 11.209 15.148 11.968 8.598 27.759 1.989 29.992-12.58.466-3.041.592-6.264.132-9.29-1.419-9.329-2.561-18.839-10.383-26.375 6.972 1.664 11.923 5.012 16.775 9.165 3.45 2.952 3.968 5.899 3.916 9.84-.223 16.958-.296 33.918-.327 50.878-.003 1.822-.675 2.765-2.236 3.396-6.118 2.47-12.138 5.217-18.354 7.407-12.029 4.24-24.399 7.178-37.103 8.556-17.019 1.848-33.901 1.313-50.444-3.495-7.522-2.185-13.853-6.19-18.044-13.103-2.325-3.834-2.973-7.887-2.099-12.233.049-.245.132-.483.19-.725 3.09-12.802 3.929-9.266-2.813-22.582-2.301-4.543-4.546-9.114-6.946-13.933l5.447-.297c2.805 5.908 5.107 12.147 8.579 17.649 3.09 4.897 7.423 9.026 11.33 13.383.876.976 2.187 1.689 3.431 2.189 6.941 2.786 11.781-.08 12.95-7.464.897-5.678.124-11.281-1.371-16.656-2.874-10.34-7.587-19.714-15.411-27.428-5.977-5.892-12.583-7.13-20.239-4.354-.806.292-1.615.578-3.006 1.075-.421-5.578-.881-10.87-1.126-16.171-.026-.545 1.149-1.476 1.911-1.671 3.117-.8 6.271-1.55 9.456-1.929.782-.092 1.982 1.126 2.575 2.019 4.427 6.661 9.904 12.271 16.838 16.245 3.379 1.937 7.158 3.172 11.008 4.324-6.724-5.542-8.253-13.391-10.484-20.892 15.7 15.152 16.642 15.717 36.087 22.722-6.767-18.532-5.493-37.732-6.613-56.699m93.993 295.408.701 7.401c-3.804-.969-6.586-5.175-6.222-9.359.303-3.479.501-6.997 1.191-10.408 1.479-7.311-.469-14.408-1.168-21.546-1.619-16.521-3.562-33.017-5.685-49.482-1.101-8.529-2.837-16.978-4.36-25.448-.182-1.008-.839-1.929-1.963-2.761-.134 1.005-.269 2.01-.403 3.032-.241 0-.542.088-.632-.013-2.457-2.782-2.785-5.572-2.021-9.47 1.39-7.078 3.809-13.671 6.632-20.193 1.512-3.492 1.635-3.119 5.258-2.583 8.816 1.305 13.217 6.592 14.827 14.959 2.665 13.846 5.562 27.646 8.183 41.5 3.183 16.818 5.987 33.739 6.23 50.87.137 9.692 2.462 19.003 3.295 28.547.368 4.227-.589 7.495-3.79 10.316-2.806 2.472-5.382 5.214-7.953 7.937-1.572 1.663-3.383 1.966-5.461 1.495-2.181-.494-2.364-2.437-2.693-4.08-.748-3.734-1.087-7.575-3.179-10.878q-.393.083-.787.164m47.902-237.901c-5.618-5.328-10.726-4.722-15.779 1.736-.146-2.219-.313-3.969-.363-5.722-.092-3.246.11-6.518-.241-9.732-.271-2.485.805-3.457 2.904-3.883 4.048-.823 7.685.323 11.027 2.515 3.887 2.549 6.646 6.165 8.308 10.399 7.65 19.492-1.072 37.768-22.122 42.497-.326.073-.7-.066-1.386-.144.249-2.136.575-4.205.717-6.287.481-7.086 1.023-14.173 1.307-21.269.299-7.504 6.393-12.348 13.599-10.569.459.113.925.21 2.029.459M541.607 317.205c2.622-5.67 4.79-10.524 7.158-15.278.307-.615 1.702-1.093 2.503-.981 2.394.331 4.743.986 7.657 1.638-1.292-4.041-5.31-2.616-7.86-4.453 1.373-2.771 2.833-4.974 6.324-5.958 5.608-1.582 11.066-3.751 16.477-5.946 1.958-.794 3.477-1.748 5.33.164.803.827 2.156 1.118 2.683 1.374-4.388 8.437-8.887 16.89-13.176 25.45-1.298 2.591-2.83 4.088-5.899 4.031-6.804-.127-13.611-.041-21.197-.041" clip-rule="evenodd"/><path fill="#fff" fill-rule="evenodd" d="M534.981 123.133c6.091 10.877 12.656 21.399 22.761 29.833-5.406.394-10.175.795-14.952 1.023-.592.028-1.635-.757-1.782-1.338-2.461-9.736-4.813-19.5-7.189-29.258zm-85.766 47.62v-26.886c2.709 9.282 6.028 18.356 11.967 26.886zm79.284 146.475c1.121-4.553 2.142-9.136 3.439-13.638.298-1.033 1.403-2.044 2.396-2.618 1.916-1.107 4.017-1.896 6.634-2.394l-11.776 18.998q-.348-.173-.693-.348" clip-rule="evenodd"/><path fill="none" d="M290.783 500.974h86.667v80.667h-86.667z" clip-rule="evenodd"/><text transform="translate(290.783 520.335)"><tspan x="0" y="0" fill="#fff" font-family="'SjKoburinaGoStdN-W9-90ms-RKSJ-H'" font-size="22">もし～</tspan><tspan x="0" y="26.399" fill="#fff" font-family="'SjKoburinaGoStdN-W9-90ms-RKSJ-H'" font-size="22">ならば</tspan></text><path fill="none" d="M392.701 503.614h86.668v80.667h-86.668z" clip-rule="evenodd"/><text transform="translate(392.7 521.213)"><tspan x="0" y="0" fill="#fff" font-family="'SjKoburinaGoStdN-W9-90ms-RKSJ-H'" font-size="20">そうで</tspan><tspan x="0" y="24" fill="#fff" font-family="'SjKoburinaGoStdN-W9-90ms-RKSJ-H'" font-size="20">なければ</tspan></text><path fill="none" stroke="#000" stroke-linecap="round" stroke-linejoin="round" stroke-miterlimit="10" stroke-width="2" d="M219.367 266.616h3.342m286.658 0h3.342" clip-rule="evenodd"/></svg>