<?xml version="1.0" encoding="utf-8"?>
<!-- Generator: Adobe Illustrator 16.0.3, SVG Export Plug-In . SVG Version: 6.00 Build 0)  -->
<!DOCTYPE svg PUBLIC "-//W3C//DTD SVG 1.1//EN" "http://www.w3.org/Graphics/SVG/1.1/DTD/svg11.dtd">
<svg version="1.1" id="レイヤー_1" xmlns="http://www.w3.org/2000/svg" xmlns:xlink="http://www.w3.org/1999/xlink" x="0px"
	 y="0px" width="662.529px" height="685.629px" viewBox="0 0 662.529 685.629" enable-background="new 0 0 662.529 685.629"
	 xml:space="preserve">
<path d="M477.885,364.814c-0.503,2.162-0.938,3.578-1.153,5.026c-3.604,24.219-7.193,48.438-10.754,72.662
	c-4.335,29.501-8.751,58.99-12.862,88.521c-0.857,6.157-1.919,12.461-0.6,19.073c2.365,0.912,4.602,1.773,7.147,2.757
	c3.66-31.658,6.944-62.747,10.924-93.746c3.996-31.129,8.685-62.169,13.12-93.617C481.635,365.25,480.056,365.067,477.885,364.814z"
	/>
<path d="M650.391,354.277c0.115-0.629,0.23-1.259,0.346-1.889c-1.978-0.852-3.888-2.001-5.95-2.463
	c-1.904-0.427-3.977-0.161-5.971-0.118c-45.8,0.993-91.383,5.11-136.947,9.483c-1.854,0.179-3.685,0.616-6.323,1.07
	c3.168,2.474,5.619,4.174,7.814,6.158c2.67,2.412,5.594,3.235,9.161,2.813c8.593-1.02,17.215-1.774,25.815-2.718
	c28.783-3.155,57.563-6.348,86.343-9.522C633.249,356.147,641.82,355.215,650.391,354.277z"/>
<path d="M662.339,574.057c-0.416-7.478-4.282-13.044-11.578-15.314c-6.962-2.165-14.086-3.882-21.223-5.396
	c-10.578-2.244-21.237-4.109-31.847-6.203c-1.643-0.324-3.214-1.008-4.817-1.526c1.942-1.384,3.668-1.87,5.396-2.34
	c10.928-2.968,21.828-6.033,32.793-8.854c5.052-1.301,7.525-4.462,8.308-9.41c0.989-6.252,2.296-12.457,3.147-18.728
	c5.317-39.118,10.633-78.237,15.75-117.384c1.469-11.222,2.598-22.51,3.3-33.804c0.514-8.248-3.563-12.823-11.734-13.979
	c-4.429-0.625-8.978-0.877-13.448-0.688c-18.143,0.767-36.309,1.357-54.406,2.778c-31.871,2.504-63.699,5.556-95.541,8.42
	c-2.741,0.247-5.452,0.822-8.691,1.324c0-12.601,0-24.796,0-37.521c9.257,4.794,17.676,10.496,27.97,12.852
	c-0.297-0.921-0.359-1.42-0.598-1.813c-3.949-6.517-8.582-12.718-11.713-19.604c-3.627-7.976-6.345-16.438-8.695-24.899
	c-2.031-7.314-1.751-14.517,2.342-21.655c3.268-5.696,5.91-12.13,7.091-18.558c2.131-11.589,4.087-23.412,4.132-35.145
	c0.163-43.459-12.859-83.063-37.88-118.473c-24.842-35.156-58.489-59.034-98.949-72.942C326.295,3.112,290.067-2.216,252.738,0.85
	c-27.735,2.276-54.204,8.59-78.622,22.262c-34.412,19.268-62.318,44.896-78.86,81.47c-3.223,7.124-6.145,14.384-9.294,21.543
	c-12.276,27.903-19.54,57.305-25.709,86.992c-4.388,21.116-12.174,40.844-23.471,59.086c-9.49,15.322-21.04,29.142-33.519,42.159
	c-1.17,1.22-2.179,2.594-3.263,3.897c19.148,0.563,35.43-6.375,51.026-16.303c0,3.577,0.052,6.533-0.008,9.485
	c-0.453,22.18,2.568,43.638,14.252,62.993c13.876,22.984,33.302,38.286,60.562,42.192c4.893,0.703,9.749,0.729,14.989-0.815
	c-10.979-4.154-15.813-11.029-15.026-21.359c13.869,16.362,31.293,24.729,52.111,24.953c5.081,4.684,9.917,9.142,14.877,13.711
	c-0.74,0.869-1.348,1.647-2.027,2.357c-0.448,0.467-0.998,0.839-1.633,1.361c-5.659-3.996-12.119-5.617-18.751-6.452
	c-5.444-0.688-10.982-1.403-16.432-1.138c-17.125,0.833-34.313,1.407-51.313,3.45c-15.165,1.821-30.149,5.282-45.138,8.382
	c-6.611,1.367-12.374,4.792-17.325,9.501c-8.765,8.339-11.646,18.89-10.984,30.479c0.569,9.968,1.408,19.963,2.912,29.827
	c4.695,30.791,9.767,61.523,14.675,92.283c0.278,1.742,0.4,3.51,0.598,5.294c-2.038,0.723-3.607,1.244-5.151,1.831
	c-7.264,2.761-9.879,6.512-9.91,14.37c-0.015,3.665-0.008,7.34,0.222,10.993c0.546,8.649,4.568,13.091,13.075,14.425
	c30.115,4.725,60.242,9.371,90.355,14.104c35.545,5.588,71.122,10.987,106.601,16.965c17.466,2.943,34.889,4.625,52.634,4.467
	c42.158-0.375,84.321-0.221,126.481-0.037c8.447,0.037,16.304-1.231,24.306-4.216c60.232-22.463,120.604-44.562,180.921-66.805
	c9.063-3.341,18.063-6.849,27.097-10.271c4.762-1.804,8.002-4.966,8.208-10.25C662.462,587.385,662.709,580.696,662.339,574.057z
	 M234.022,410.69c-0.387-0.058-0.774-0.112-1.161-0.169c-0.913-2.891-1.826-5.779-3.133-9.921c3.015,1.219,4.999,2.021,7.675,3.103
	C236.159,406.273,235.091,408.481,234.022,410.69z M448.185,516.513c-25.813,6.849-51.634,13.701-77.67,20.609
	c-5.471-4.564-11.271-8.813-16.279-13.846c-2.303-2.313-3.274-6.087-4.463-9.339c-2.797-7.655-5.359-15.395-8.022-23.099
	c-4.9-14.173-10.48-28.084-17.916-41.115c-8.132-14.254-18.37-26.576-34.023-33.247c-0.399-0.17-0.686-0.601-0.891-0.787
	c14.521,0.685,29.091,1.375,43.939,2.076c-1.441,6.451-6.669,9.262-12.315,11.839c23.721,3.416,43.588-4.952,61.404-19.938
	c1.854,9.993-2.295,16.685-13.608,22.446c6.424,3.574,19.119,2.422,31.489-2.899c10.217-4.396,19.001-10.75,26.059-20.354
	c1.771,19.942-7.03,37.878-24.167,49.716c1.445,0.279,2.424,0.624,3.406,0.635c14.581,0.137,26.83-5.819,37.745-14.875
	c6.725-5.58,12.07-12.385,16.075-20.2c0.813-1.589,1.819-3.08,2.736-4.616c0.327,0.091,0.652,0.182,0.979,0.273
	C457.86,451.878,453.057,483.961,448.185,516.513z"/>
<path d="M561.428,331.118c-0.592-1.94-1.405-3.847-1.733-5.832c-1.229-7.445-4.354-10.575-11.978-11.758
	c-2.398-0.373-4.782-0.854-7.173-1.284c-0.071-0.363-0.144-0.727-0.215-1.09c1.219-0.653,2.376-1.495,3.671-1.913
	c1.873-0.604,3.854-0.869,5.773-1.34c4.063-0.997,6.881-3.408,7.709-7.581c0.706-3.561,1.022-7.198,1.56-10.795
	c0.324-2.17,0.736-4.326,1.108-6.489c0.493-0.068,0.987-0.139,1.481-0.208c0.643,1.172,1.531,2.276,1.869,3.53
	c0.604,2.241,0.88,4.572,1.281,6.868c1.189,6.808,3.306,12.965,10.702,15.508c0.406,0.14,0.669,0.701,1.395,1.506
	c-1.271,0.621-2.301,1.404-3.444,1.638c-5.864,1.196-8.121,3.597-8.666,9.579c-0.182,1.989-0.155,4.002-0.427,5.978
	c-0.165,1.204-0.716,2.354-1.094,3.529C562.643,331.015,562.035,331.067,561.428,331.118z M561.098,315.147
	c1.663-2.081,3.291-4.118,4.861-6.083c-1.351-2.294-2.578-4.381-3.801-6.457c-2.034,2.709-4.001,5.328-5.992,7.979
	C557.752,312.053,559.414,313.589,561.098,315.147z"/>
<path d="M547.854,270.281c-0.473-1.455-1.024-2.89-1.396-4.369c-0.646-2.578-0.986-5.248-1.813-7.762
	c-1.265-3.839-4.037-5.948-8.152-6.284c-1.7-0.139-3.377-0.558-5.064-0.849c-0.089-0.438-0.177-0.877-0.265-1.315
	c1.29-0.696,2.505-1.669,3.883-2.043c6.278-1.705,9.488-5.78,9.896-12.191c0.188-2.984,0.266-5.983,0.626-8.948
	c0.2-1.648,0.881-3.238,1.345-4.854c0.431-0.03,0.861-0.063,1.292-0.094c0.526,1.053,1.317,2.056,1.531,3.168
	c0.623,3.266,1.03,6.573,1.493,9.868c0.839,5.958,3.727,10.218,9.727,12.021c1.556,0.468,3.037,1.183,5.447,2.138
	c-4.588,3.266-10.944,2.345-13.023,7.682c-1.722,4.419-2.988,9.014-4.457,13.531C548.565,270.078,548.21,270.179,547.854,270.281z
	 M548.337,254.944c2.099-2.503,3.766-4.491,5.423-6.467c-1.892-2.104-3.729-4.146-5.612-6.241c-1.729,2.336-3.27,4.413-4.865,6.57
	C545.015,250.911,546.571,252.8,548.337,254.944z"/>
<path d="M531.226,291.44c-2.4,1.407-5.578,2.291-6.98,4.372c-1.337,1.982-0.822,5.214-1.122,7.896
	c-0.516,0.1-1.032,0.197-1.548,0.296c-0.576-1.122-1.473-2.188-1.673-3.374c-0.768-4.514-2.811-7.333-7.863-7.146
	c-0.962,0.035-1.957-0.804-3.969-1.698c2.122-1.139,3.276-2.148,4.573-2.383c4.275-0.771,5.438-3.815,6.049-7.467
	c0.308-1.844,0.796-3.658,1.766-5.568C524.428,281.441,522.633,290.331,531.226,291.44z"/>
<path fill="#FFFFFF" d="M218.424,269.844c0.31-5.96,0.62-11.921,0.942-18.105c25.465-13.248,47.313-30.651,64.445-53.636
	c10.38-0.349,20.069,1.496,29.273,4.824c10.684,28.855,12.023,31.444,19.428,36.64c1.454-6.544,2.829-12.729,4.204-18.916
	c3.085,9.528,1.635,19.279,1.424,29.113c19.234,5.802,34.606,0.02,47.14-15.979c-0.836,7.594-4.334,14.552-10.423,21.463
	c8.394-2.024,16.176-7.501,23.297-18.645c5.421-8.485,9.438-17.866,14.385-27.437c5.646-1.572,15.504-1.668,22.963,0.213
	c7.262,20.782,11.781,42.132,6.885,65.224c-2.046-5.259-3.602-9.981-5.69-14.454c-2.723-5.825-6.517-10.801-12.555-13.744
	c-9.391-4.578-20.277-2.497-26.459,5.913c-3.208,4.364-5.851,9.326-7.828,14.378c-7.729,19.738-10.942,40.173-7.296,61.239
	c0.83,4.795,2.957,9.57,5.4,13.834c3.993,6.969,10.177,7.648,16.289,2.313c4.869-4.251,8.029-9.704,10.511-15.612
	c5.898-14.042,7.89-28.851,8.66-43.892c0.176-3.438,0.025-6.896,0.568-10.377c3.93,9.121,5.513,18.528,4.535,28.875
	c3.089-3.971,6.178-7.941,9.268-11.912c0.163,0.042,0.326,0.083,0.489,0.125c-1.388,4.854-2.695,9.731-4.184,14.554
	c-1.569,5.093-3.206,10.169-5.006,15.184c-1.94,5.408-1.975,10.683-0.021,16.117c1.573,4.383,2.688,8.929,4.084,13.377
	c2.607,8.311,0.715,15.777-4.154,22.697c-6.545,9.303-15.534,15.542-25.881,19.744c-22.416,9.104-45.745,14.313-69.951,15.242
	c-35.125,1.351-69.023-4.435-101.558-17.872c-1.526-0.631-3.005-1.376-4.872-2.236c-1.468-7.403-2.947-14.861-4.542-22.909
	c5.63,2.7,10.427,5.271,15.435,7.325c4.837,1.984,9.892,3.432,16.201,2.113c-2.932-1.899-5.18-3.194-7.251-4.728
	c-9.917-7.338-15.279-17.905-19.847-28.872c-6.333-15.204-9.236-36.673-7.792-55.136c2.739,4.679,5.223,8.922,7.707,13.164
	c0.337-0.063,0.675-0.122,1.013-0.185c-0.284-5.449,1.01-10.461,3.923-14.926c2.795-4.285,5.788-8.44,9.209-13.399
	c-1.354,9.594-2.993,18.021-3.637,26.525c-0.896,11.829,1.061,23.391,6.904,33.818c2.631,4.695,6.082,9.35,10.228,12.7
	c11.049,8.935,25.762,6.866,35.192-4.205c5.88-6.903,8.905-15.116,11.103-23.768c3.245-12.782,3.032-25.762,2.439-38.761
	c-0.241-5.309-0.676-10.626-1.4-15.887c-1.062-7.687-4.935-14.041-10.124-19.669c-3.552-3.852-7.977-5.946-13.136-6.502
	c-13.081-1.404-24.689,2.666-35.319,9.891c-8.066,5.48-14.859,12.317-20.293,20.46c-1.094,1.64-2.239,3.246-3.361,4.867
	C219.065,269.96,218.744,269.903,218.424,269.844z"/>
<path fill="#FFFFFF" d="M245.438,358.697c-1.209-4.464-2.654-8.794-5.828-13.374C238.58,351.226,240.389,355.267,245.438,358.697z"
	/>
<path fill="#FFFFFF" d="M425.813,358.786c-0.965-5.551-4.802-10.999-8.546-12.128C419.752,350.998,421.128,355.791,425.813,358.786z
	"/>
<path fill="#FFFFFF" d="M419.234,359.531c-0.326-4.894-3.063-8.617-6.229-12.133C413.694,352.093,415.428,356.281,419.234,359.531z"
	/>
<path fill="#FFFFFF" d="M345.338,377.471c-3.729,3.138-3.871,4.915-0.579,7.302C348.604,381.439,348.728,379.875,345.338,377.471z"
	/>
<path fill="#FFFFFF" d="M256.214,358.976c0.362-0.239,0.724-0.479,1.085-0.72c-2.479-3.734-4.958-7.47-7.438-11.203
	c-0.372,0.245-0.745,0.492-1.117,0.738C249.844,352.44,252.875,355.81,256.214,358.976z"/>
<path fill="#FFFFFF" d="M424.035,345.271c-0.445,0.272-0.892,0.548-1.336,0.82c1.656,4.264,3.188,8.6,6.74,11.756
	c0.375-0.209,0.749-0.418,1.124-0.627C428.387,353.237,426.211,349.253,424.035,345.271z"/>
<path fill="#FFFFFF" d="M410.546,348.872c-0.363,0.141-0.727,0.279-1.09,0.419c0.103,4.575,1.767,7.375,6.598,9.379
	C414.218,355.404,412.382,352.137,410.546,348.872z"/>
<path fill="#FFFFFF" d="M237.567,356.978c0.463-0.203,0.925-0.406,1.388-0.609c-0.693-3.714-2.263-6.946-5.075-9.497
	c-0.417,0.22-0.835,0.438-1.253,0.657C234.274,350.678,235.921,353.829,237.567,356.978z"/>
<path fill="#FFFFFF" d="M249.538,359.584c0.392-0.262,0.784-0.521,1.177-0.782c-1.134-3.814-2.831-7.245-7.231-8.861
	C245.502,353.155,247.52,356.37,249.538,359.584z"/>
<path fill="#FFFFFF" d="M545.443,555.696c-0.779,7.746-1.459,14.506-2.173,21.604c-6.742,2.93-13.604,5.89-20.448,8.894
	c-3.507,1.54-6.991,3.131-10.465,4.746c-4.744,2.207-6.94,5.979-6.84,11.188c0.064,3.33-0.057,6.666,0.033,9.996
	c0.169,6.267,1.979,8.495,8.135,10.217c1.271,0.354,2.564,0.628,5.118,1.246c-3.406,1.441-5.711,2.551-8.104,3.408
	c-26.18,9.39-52.37,18.741-78.562,28.098c-8.469,3.024-16.941,6.034-25.417,9.045c-15.097,5.36-30.479,6.316-46.292,3.752
	c-45.374-7.361-90.794-14.44-136.185-21.696c-30.425-4.863-60.822-9.907-91.252-14.741c-18.421-2.926-36.882-5.599-55.323-8.4
	c-1.281-0.194-2.543-0.519-3.888-1.528c3.401-0.733,6.808-1.443,10.204-2.203c23.728-5.308,47.475-10.533,71.172-15.978
	c12.142-2.789,24.173-6.062,36.304-8.902c2.1-0.492,4.643-0.465,6.648,0.253c7.044,2.519,13.867,5.655,20.914,8.166
	c10.968,3.907,22.058,7.472,33.075,11.247c1.381,0.473,2.607,1.382,3.941,2.015c2.479,1.177,4.954,2.372,7.492,3.407
	c1.193,0.486,2.53,0.619,4.53,1.079c0,2.289,0.065,4.479-0.022,6.662c-0.06,1.484-0.463,2.96-0.488,4.442
	c-0.128,7.433,1.312,9.479,8.707,10.947c24.669,4.9,49.372,9.628,74.061,14.438c6.414,1.251,12.519,0.35,18.6-1.988
	c40.106-15.419,80.25-30.742,120.381-46.097c0.312-0.119,0.615-0.255,0.926-0.377c11.111-4.354,12.39-6.375,11.546-18.271
	c-0.334-4.709-2.027-6.988-6.625-8.18c-3.859-1.001-7.813-1.646-12.242-2.558c-0.554-4.714-4.308-5.895-8.447-6.532
	c-8.395-1.297-16.768-2.765-25.192-3.815c-7.229-0.903-14.508-1.553-21.784-1.854c-3.031-0.125-6.112,0.944-9.795,1.577
	c0.29-7.868-4.484-13.576-9.524-19.108c-5.209-5.718-12.706-6.73-19.598-9.663c19.157-5.893,38.69-10.218,58.823-15.86
	c-0.548,5.938-0.967,10.822-1.461,15.701c-0.302,2.98-0.82,5.94-1.063,8.924c-0.503,6.212,2.4,10.588,7.797,13.295
	c8.563,4.298,17.641,6.034,27.16,4.464c19.88-3.278,39.738-6.681,59.606-10.031C541.187,556.426,542.947,556.122,545.443,555.696z"
	/>
<path fill="#FFFFFF" d="M275.027,586.418c-4.414,3.661-7.428,6.163-10.442,8.664c0.251,0.437,0.502,0.872,0.753,1.309
	c3.49-1.63,7.131-3.004,10.442-4.94c8.402-4.913,16.446-4.563,24.278,1.085c5.415,3.906,9.248,9.095,11.623,15.301
	c2.537,6.631-0.496,11.652-7.639,11.472c-4.688-0.119-9.429-1.682-13.958-3.168c-3.116-1.022-5.968-2.93-8.832-4.618
	c-2.905-1.714-5.451-1.579-8.362,0.239c-5.617,3.509-7.418,3.202-12.52-0.796c-1.123-0.881-2.494-1.688-3.866-1.968
	c-11.473-2.341-22.441-6.07-33.044-11.058c-6.593-3.101-13.565-5.394-20.167-8.479c-7.059-3.298-14.358-6.556-18.838-13.396
	c-1.753-2.676-3.192-5.857-3.717-8.985c-2.022-12.048-1.633-24.218-1.13-36.378c0.44-10.643,0.667-21.295,1.094-31.938
	c0.133-3.316,0.517-6.633,0.967-9.925c0.356-2.608,0.143-4.725-3.183-5.192c2.571-17.986,12.144-31.846,24.22-44.94
	c9.342,6.146,19.452,9.73,30.171,11.396c2.165,5.413,3.049,10.651,2.102,17.209c-0.945-1.78-1.415-2.666-2.02-3.806
	c-0.573,29.651-1.141,59.032-1.71,88.517c-1.336,0.863-2.702,1.746-4.401,2.844c15.904,4.331,27.999,13.519,39.321,23.997
	C268.949,581.434,271.932,583.787,275.027,586.418z"/>
<path fill="#FFFFFF" d="M353.199,553c-1.279,3.597-2.308,6.174-3.115,8.816c-2.503,8.177-0.31,16.393,6.112,21.014
	c2.051,1.477,4.633,2.212,8.023,3.771c-15.737,5.321-30.447,10.295-45.049,15.23c-1.907-2.948-3.688-5.732-5.501-8.497
	c-2.891-4.412-7.305-6.635-12.091-8.262c-3.302-1.123-6.583-2.47-9.988-3.082c-3.696-0.664-7.525-0.595-12.102-0.898
	c-1.123-1.055-2.923-2.743-5.152-4.835C300.119,566.871,326.433,560.899,353.199,553z"/>
<path fill="#FFFFFF" d="M66.66,534.813c-6.496,2.101-12.57,4.065-19.376,6.267c-1.167-3.719-2.754-7.06-3.218-10.55
	c-1.924-14.466-3.757-28.954-5.105-43.481c-0.607-6.548-0.794-13.171,1.149-19.769c1.937-6.574,5.949-11.337,11.762-13.993
	c6.09-2.782,12.777-4.258,19.557-5.528c-0.515,0.592-0.931,1.334-1.561,1.754c-8.505,5.667-10.646,14.317-9.931,23.551
	c1.125,14.541,3.117,29.016,4.732,43.519C65.308,522.326,65.924,528.074,66.66,534.813z"/>
<path fill="#FFFFFF" d="M247.726,421.091c1.715,0.93,3.421,1.875,5.146,2.782c5.362,2.819,11.011,4.594,17.11,4.923
	c6.138,0.331,12.267,0.818,18.399,1.245c7.98,0.557,11.333,3.174,13.447,10.771c1.156,4.155,2.145,8.362,3.041,12.582
	c0.289,1.361,0.046,2.837,0.046,4.463c-15.331,0.876-30.175,1.725-45.626,2.608c-2.898-12.981-5.229-26.597-12.377-38.635
	C247.184,421.585,247.455,421.338,247.726,421.091z"/>
<path fill="#FFFFFF" d="M477.885,364.814c2.171,0.253,3.75,0.437,5.822,0.678c-4.438,31.448-9.124,62.488-13.12,93.617
	c-3.979,30.999-7.264,62.088-10.924,93.746c-2.547-0.982-4.782-1.845-7.147-2.757c-1.319-6.612-0.259-12.916,0.6-19.073
	c4.111-29.531,8.527-59.021,12.862-88.521c3.561-24.225,7.15-48.443,10.754-72.662C476.946,368.392,477.382,366.976,477.885,364.814
	z"/>
<path fill="#FFFFFF" d="M650.391,354.277c-8.569,0.938-17.142,1.87-25.712,2.814c-28.779,3.176-57.56,6.367-86.343,9.522
	c-8.602,0.942-17.224,1.698-25.815,2.718c-3.567,0.424-6.491-0.399-9.161-2.813c-2.195-1.984-4.646-3.686-7.814-6.158
	c2.64-0.454,4.469-0.893,6.323-1.07c45.564-4.373,91.147-8.489,136.947-9.483c1.994-0.043,4.065-0.309,5.971,0.118
	c2.063,0.462,3.974,1.611,5.95,2.463C650.621,353.018,650.506,353.648,650.391,354.277z"/>
<path fill="#FFFFFF" d="M597.283,439.768c-3.56,0.77-7.09,1.527-10.619,2.297c-2.769,0.604-5.543,1.172-8.294,1.843
	c-6.311,1.538-8.188,3.344-8.942,9.697c-1.415,11.909-2.73,23.837-3.786,35.783c-2.855,32.363-5.554,64.742-8.326,97.113
	c-0.068,0.799-0.287,1.582-0.541,2.935c-1.733-0.567-3.204-1.05-4.796-1.57c0-3.474-0.206-6.618,0.032-9.729
	c2.492-32.563,4.97-65.126,7.646-97.673c0.914-11.119,2.468-22.186,3.548-33.292c0.521-5.365,3.068-8.576,8.43-9.591
	c6.052-1.144,12.044-2.648,18.127-3.556C594.089,433.384,595.734,434.881,597.283,439.768z"/>
<path fill="#FFFFFF" d="M649.831,567.847c-0.208,3.163-1.751,4.884-4.393,5.739c-0.474,0.152-0.959,0.317-1.383,0.571
	c-11.38,6.811-23.317,8.646-36.313,5.197c-6.371-1.691-13.13-1.925-20.406-2.912c0.542-4.103,1.115-7.812,1.5-11.54
	c0.373-3.605,0.553-7.233,0.813-10.809C599.144,553.846,645.457,564.418,649.831,567.847z"/>
<path fill="#FFFFFF" d="M488.734,206.526c-10.666-75.524-46.21-134.932-112.654-174.778c20.022,2.754,64.926,40.944,82.594,70.119
	C478.12,133.976,489.668,168.41,488.734,206.526z"/>
<path fill="#FFFFFF" d="M408.947,569.932c-2.58,2.284-5.227,2.133-7.817,1.469c-5.302-1.355-10.547-2.93-15.834-4.347
	c-9.746-2.612-10.689-2.196-16.032,6.561c-0.507,0.83-1.229,1.528-2.123,2.618c-1.668-0.323-3.5-0.424-5.137-1.042
	c-5.179-1.958-6.542-4.789-5.158-10.137c2.415-9.332,10.675-16.543,20.606-17.882c9.685-1.307,17.642,2.091,24.017,9.281
	C404.949,560.381,408.423,564.408,408.947,569.932z"/>
<path fill="#FFFFFF" d="M369.419,545.271c-2.738,1.512-5.031,2.778-7.968,4.398c-2.907-2.972-5.763-5.875-8.604-8.793
	c-6.251-6.421-12.27-13.091-18.83-19.177c-3.646-3.382-4.556-7.484-5.271-11.866c-2.112-12.94-3.998-25.921-6.263-38.835
	c-0.995-5.672-2.695-11.222-3.299-17.222c0.693,0.944,1.579,1.803,2.049,2.85c3.526,7.858,6.979,15.754,10.44,23.644
	c1.601,3.646,3.37,7.232,4.704,10.974c2.287,6.412,4.166,12.97,6.438,19.388c5.351,15.113,5.418,15.077,17.749,25.373
	c2.55,2.128,4.977,4.406,7.384,6.696C368.512,543.235,368.765,544.095,369.419,545.271z"/>
<path fill="#FFFFFF" d="M150.001,303.379c1.727,19.813,3.423,39.278,5.116,58.698c-11.242-0.582-22.489-13.241-23.31-28.481
	C131.041,319.351,139.509,305.318,150.001,303.379z"/>
<path fill="#FFFFFF" d="M302.361,629.933c3.637,0.269,7.309,0.303,10.901,0.852c10.369,1.586,20.719,3.313,31.052,5.123
	c4.217,0.739,8.161,0.815,12.084-1.41c1.543-0.875,3.725-0.546,5.547-1.022c4.473-1.172,8.905-2.494,13.135-3.692
	c0.629-1.792,1.063-3.025,1.573-4.479c7.261,1.121,13.457-0.591,18.182-7.031c9.197,1.201,15.247-0.374,20.068-5.509
	c6.069,1.16,11.045-2.543,16.734-3.9c0.677-1.546,1.316-3.013,1.938-4.433c11.483,1.773,13.375-1.104,21.138-4.612
	c0.422-1.225,0.896-2.599,1.51-4.386c7.337,3.605,13.947,1.468,20.567-2.683c0.367-1.5,0.79-3.226,1.321-5.394
	c4.31,0.717,8.512,1.416,12.714,2.114c0.137,0.33,0.272,0.659,0.41,0.989c-2.202,1.142-4.317,2.511-6.62,3.389
	c-15.404,5.875-30.828,11.699-46.284,17.437c-23.417,8.692-46.906,17.188-70.274,26.012c-7.065,2.668-13.877,3.601-21.422,1.961
	c-14.148-3.075-28.462-5.396-42.707-8.031c-0.622-0.115-1.239-0.25-1.86-0.376C302.165,630.543,302.263,630.238,302.361,629.933z"/>
<path fill="#FFFFFF" d="M311.214,194.705c-7.113-1.102-14.382-2.227-21.112-3.268c6.171-12.305,12.586-25.093,18.937-37.752
	C309.758,167.26,310.494,181.149,311.214,194.705z"/>
<path fill="#FFFFFF" d="M433.084,202.094c-6.637,0-12.703,0-18.854,0c1.647-12.375,3.262-24.485,4.967-37.29
	C425.086,177.156,428.699,189.86,433.084,202.094z"/>
<path fill="#FFFFFF" d="M516.92,598.887c8.521-3.809,17.039-7.614,26.17-11.694c-0.289,10.11,6.138,14.608,13.131,19.141
	c-13.011-1.956-26.021-3.911-39.03-5.867C517.1,599.939,517.01,599.414,516.92,598.887z"/>
<path fill="#FFFFFF" d="M364.551,598.765c-1.544-0.428-3.571-0.989-6.737-1.867c19.047-7.725,37.653-12.676,56.853-15.575
	C398.113,587.084,381.562,592.845,364.551,598.765z"/>
<path fill="#FFFFFF" d="M176.163,486.467c-6.096,35.767-9.431,71.78-11.887,108.664C161.857,586.044,171.58,497.113,176.163,486.467
	z"/>
<path fill="#FFFFFF" d="M349.916,618.617c6.997-4.926,14.346-6.073,21.967-1.886C366.867,621.98,358.523,622.776,349.916,618.617z"
	/>
<path fill="#FFFFFF" d="M341.859,617.535c-3.128-0.604-6.984-1.349-11.15-2.151c7.091-6.121,12.362-6.906,21.781-3.304
	C349.161,613.788,346.068,615.375,341.859,617.535z"/>
<path fill="#FFFFFF" d="M401.059,599.334c3.35,0.916,6.487,1.775,9.999,2.736c-6.646,6.052-13.4,4.995-20.981,1.496
	C394.087,602.02,397.658,600.644,401.059,599.334z"/>
<path fill="#FFFFFF" d="M413.3,586.709c7.178-3.216,13.848-7.021,20.965-1.837C428.083,589.611,421.106,590.552,413.3,586.709z"/>
<path fill="#FFFFFF" d="M432.297,590.535c6.608-3.563,12.735-8.472,20.539-2.975C446.689,592.129,440.062,593.991,432.297,590.535z"
	/>
<path fill="#FFFFFF" d="M369.937,610.697c9.12-5.285,9.255-5.3,19.852-2.097C384.771,613.962,379.167,614.553,369.937,610.697z"/>
<path fill="#FFFFFF" d="M430.662,595.877c-6.549,3.595-13.197,5.853-20.83,1.814C416.626,594.029,423.138,590.515,430.662,595.877z"
	/>
<path fill="#FFFFFF" d="M474.893,580.609c-6.286,4.03-12.367,6.147-19.276,1.995C461.659,579.063,467.647,576.415,474.893,580.609z"
	/>
<path fill="#FFFFFF" d="M358.271,627.427c-5.491,3.659-10.716,6.833-17.089,2.612C348.104,624.508,350.597,624.104,358.271,627.427z
	"/>
<path fill="#FFFFFF" d="M393.189,593.517c6.312-3.745,12.422-5.969,18.814-1.604C406.457,596.049,400.144,596.255,393.189,593.517z"
	/>
<path fill="#FFFFFF" d="M352.519,607.266c6.256-2.765,11.795-6.181,18.287-1.949C363.521,610.392,361.536,610.639,352.519,607.266z"
	/>
<path fill="#FFFFFF" d="M355.662,601.58c-3.72,1.586-7.069,3.016-10.683,4.556c-2.16-0.713-4.503-1.483-6.845-2.255
	C343.488,600.482,348.806,597.351,355.662,601.58z"/>
<path fill="#FFFFFF" d="M455.546,577.773c-5.303,5.44-11.368,4.074-17.648,2.055C444.941,575.01,447.34,574.74,455.546,577.773z"/>
<path fill="#FFFFFF" d="M373.771,600.551c5.475-3.299,10.836-5.45,17.328-2.644C385.834,601.727,380.633,604.558,373.771,600.551z"
	/>
<path fill="#FFFFFF" d="M322.682,627.763c-2.28-0.41-4.492-0.809-7.096-1.275c4.164-5.106,8.563-7.352,14.938-4.402
	C327.952,623.946,325.542,625.692,322.682,627.763z"/>
<path fill="#FFFFFF" d="M418.694,576.737c5.346-5.104,10.738-2.8,16.162-1.481C429.555,579.85,428.873,579.914,418.694,576.737z"/>
<path fill="#FFFFFF" d="M343.768,624.967c-2.899,1.656-5.282,3.019-8.12,4.64c-2.165-0.442-4.716-0.963-7.888-1.611
	C332.699,624.05,337.227,621.268,343.768,624.967z"/>
<path fill="#FFFFFF" d="M372.348,583.8c2.681-3.162,4.552-5.37,6.773-7.993c2.371,0.596,4.97,1.25,7.568,1.903
	c0.032,0.407,0.064,0.814,0.099,1.224C382.315,580.44,377.843,581.948,372.348,583.8z"/>
<path fill="#FFFFFF" d="M334.484,608.407c-2.658,1.277-5.316,2.555-8.195,3.938c-0.692-1.711-1.296-3.203-1.991-4.922
	c3.441-3.024,6.788,0.189,10.145-0.186C334.456,607.628,334.47,608.017,334.484,608.407z"/>
<path fill="#FFFFFF" d="M279.703,625.713c1.481-0.663,2.963-1.326,4.284-1.917c2.936,1.767,5.611,3.377,9.056,5.448
	c-4.982-0.942-9.154-1.731-13.327-2.521C279.712,626.385,279.707,626.05,279.703,625.713z"/>
<path fill="#FFFFFF" d="M561.098,315.147c-1.684-1.559-3.346-3.094-4.932-4.562c1.991-2.65,3.958-5.271,5.992-7.979
	c1.223,2.076,2.45,4.163,3.801,6.457C564.389,311.029,562.761,313.066,561.098,315.147z"/>
<path fill="#FFFFFF" d="M548.337,254.944c-1.766-2.145-3.322-4.033-5.056-6.138c1.597-2.157,3.136-4.234,4.866-6.57
	c1.884,2.095,3.721,4.138,5.611,6.241C552.103,250.453,550.436,252.441,548.337,254.944z"/>
<path d="M245.438,358.697c-5.049-3.43-6.858-7.471-5.828-13.374C242.785,349.903,244.229,354.233,245.438,358.697z"/>
<path d="M425.813,358.786c-4.687-2.995-6.063-7.788-8.546-12.128C421.013,347.787,424.85,353.235,425.813,358.786z"/>
<path d="M419.234,359.531c-3.808-3.25-5.54-7.438-6.229-12.133C416.171,350.914,418.908,354.637,419.234,359.531z"/>
<path d="M345.338,377.471c3.39,2.403,3.268,3.968-0.579,7.302C341.467,382.386,341.608,380.609,345.338,377.471z"/>
<path d="M256.214,358.976c-3.339-3.166-6.37-6.536-7.469-11.185c0.373-0.246,0.745-0.493,1.117-0.738
	c2.479,3.733,4.958,7.469,7.438,11.203C256.938,358.497,256.576,358.737,256.214,358.976z"/>
<path d="M424.035,345.271c2.176,3.981,4.352,7.966,6.528,11.949c-0.375,0.209-0.749,0.418-1.124,0.627
	c-3.553-3.156-5.085-7.492-6.74-11.756C423.145,345.819,423.59,345.544,424.035,345.271z"/>
<path d="M410.546,348.872c1.836,3.267,3.672,6.532,5.508,9.798c-4.831-2.004-6.495-4.804-6.598-9.379
	C409.819,349.151,410.183,349.011,410.546,348.872z"/>
<path d="M237.567,356.978c-1.646-3.149-3.293-6.3-4.939-9.449c0.417-0.219,0.835-0.438,1.253-0.657
	c2.812,2.551,4.381,5.783,5.075,9.497C238.493,356.572,238.03,356.775,237.567,356.978z"/>
<path d="M249.538,359.584c-2.018-3.215-4.036-6.43-6.054-9.645c4.4,1.616,6.097,5.047,7.231,8.86
	C250.322,359.062,249.93,359.323,249.538,359.584z"/>
</svg>
