<svg xmlns="http://www.w3.org/2000/svg" xml:space="preserve" width="946.935" height="979.366" viewBox="-160.033 -97.319 946.935 979.366"><path d="M-55.621 791.136c4.994.878 9.975 1.832 14.982 2.623 69.276 10.936 138.558 21.833 207.834 32.771 63.833 10.077 127.677 20.086 191.48 30.347 21.592 3.474 42.541 1.442 63.016-5.857 51.307-18.294 102.572-36.7 153.846-55.085 1.785-.642 3.482-1.522 6.277-2.759-4.355-1.233-7.568-1.967-10.656-3.058-5.23-1.846-8.225-5.461-8.211-11.241.01-5.331.07-10.669-.125-15.995-.299-8.161 3.363-13.648 10.75-16.87 12.98-5.661 25.887-11.502 38.957-16.947 3.393-1.413 4.705-3.047 4.891-6.815.424-8.581 1.549-17.13 2.461-26.439-6.553 1.266-12.363 2.465-18.203 3.501-19.188 3.405-38.344 7.061-57.613 9.92-5.367.796-11.104-.763-16.654-1.357-8.027-.86-16.043-1.828-24.064-2.75l-.236 1.498c2.412.631 4.967.952 7.193 1.983 2.152.998 5.275 2.435 5.672 4.195 1.004 4.463 4.119 4.482 7.322 5.107 4.41.858 8.838 1.687 13.178 2.832 4.869 1.286 7.732 4.671 8.008 9.693.254 4.642.27 9.34-.156 13.964-.563 6.088-4.926 9.138-10.17 11.167-25.172 9.734-50.32 19.53-75.527 29.176-34.074 13.039-68.254 25.81-102.26 39.025-10.139 3.94-20.127 5.087-30.797 2.958-33.986-6.78-68.033-13.251-102.035-19.949-5.176-1.021-11.192-1.674-12.575-8.116-1.598-7.445-2.248-14.995 5.077-20.461.822-.613.97-2.13 1.431-3.227-1.02-.38-2.073-1.155-3.054-1.072-8.04.683-15.528-.063-21.877-5.976-1.328-1.235-4.168-.71-6.191-1.364-8.035-2.604-16.089-5.175-24.009-8.103-8.118-3.001-16.313-5.946-24.055-9.766-7.208-3.555-13.799-2.227-20.638.335-4.193 1.57-8.308 3.482-12.627 4.558-20.97 5.221-41.997 10.216-63.008 15.268-1.402.337-2.851.481-4.933.825.815-2.423 1.427-4.252 2.047-6.078 6.796-19.991 13.421-40.044 20.457-59.951 4.154-11.752 9.685-23.052 13.317-34.946 7.191-23.546 13.375-47.396 20.216-71.052 3.561-12.309 8.722-24.254 11.189-36.753 2.776-14.059 12.562-23.514 19.802-35.291-2.996-2.104-6.089-3.933-8.775-6.234-6.182-5.294-12.106-10.886-18.278-16.19-1.238-1.063-3.095-1.942-4.688-1.979-27.54-.626-50.247-11.606-68.747-31.749-1.213-1.32-2.409-2.657-3.781-4.171-1.871 13.584 6.1 24.833 21.588 31.988-7.458 0-15.058.943-22.35-.156-40.787-6.148-68.863-30.037-88.139-65.229-14.082-25.709-17.84-53.819-17.413-82.706.075-5.079.011-10.162.011-15.717-22.229 14.408-45.602 24.365-73.567 24.796 1.406-2.003 2.005-3.039 2.776-3.928 11.121-12.83 22.626-25.347 33.319-38.521 16.376-20.181 29.296-42.65 38.157-66.976 6.29-17.268 10.002-35.486 14.664-53.333 5.256-20.123 9.681-40.482 15.604-60.402 4.738-15.934 10.623-31.591 17.005-46.952 7.977-19.199 15.474-38.849 25.854-56.75C11.141-9.65 45.854-39.861 86.927-63.124c36.249-20.53 75.473-30.066 116.702-33.164 53.369-4.009 105.177 3.79 155.343 21.406C416.29-54.753 464.214-20.775 498.849 29.567c42.699 62.063 61.516 130.546 50.299 206.072-2.078 13.99-5.914 27.524-13.252 39.568-5.961 9.782-5.352 19.695-3.168 29.854 4.631 21.549 13.307 41.43 25.896 59.556 1.486 2.141 3.244 4.095 5.813 7.307-15.908-4.187-28.465-12.138-41.557-19.225v53.713c61.342-8.264 122.322-11.955 183.271-15.899 16.619-1.076 33.301-1.29 49.959-1.657a69 69 0 0 1 13.92 1.107c10.748 1.985 16.209 8.289 15.609 19.2-.729 13.293-2.033 26.586-3.775 39.788-8.107 61.447-16.424 122.866-24.744 184.285-.893 6.601-2.375 13.116-3.416 19.698-1.047 6.615-4.467 10.805-11.123 12.547-17.721 4.641-35.389 9.48-53.076 14.246-1.09.294-2.168.635-3.42 2.165 7.754 1.763 15.488 3.627 23.27 5.269 18.535 3.91 37.094 7.717 55.643 11.563 13.521 2.805 21.492 12.076 21.85 25.927.203 7.824-.232 15.663-.17 23.493.072 8.795-4.051 14.381-12.213 17.433-35.576 13.304-71.057 26.865-106.689 40.016-65.329 24.105-130.776 47.889-196.069 72.091-7.818 2.897-15.465 4.291-23.762 4.268-61.5-.175-123.002-.443-184.498.082-24.113.206-47.774-2.104-71.506-6.063-56.205-9.373-112.523-18.073-168.813-26.942-38.842-6.121-77.71-12.071-116.567-18.098-13.283-2.062-18.893-8.242-19.515-21.671-.208-4.493-.219-8.996-.257-13.496-.108-12.616 3.485-17.748 15.353-22.02 6.632-2.387 6.61-2.384 5.482-9.457-7.373-46.234-15.088-92.42-21.901-138.737-2.243-15.248-3.429-30.895-2.805-46.266.921-22.695 13.792-38.529 35.141-44.937 19.526-5.858 39.867-9.281 60.038-12.646 26.325-4.392 52.937-6.285 79.665-6.141 15.741.086 31.295 1.367 46.295 6.587 1.408.49 2.774 1.11 4.134 1.729 3.051 1.388 3.143 3.107 1.175 5.811-7.432 10.206-12.331 21.663-15.874 33.715-2.299 7.819-4.41 15.693-6.604 23.543-4.921 17.606-9.381 35.359-14.882 52.783-6.306 19.971-13.638 39.614-20.333 59.465-5.902 17.498-11.483 35.104-17.335 52.62-1.422 4.256-3.886 8.214-4.927 12.536-1.683 6.991-6.304 9.082-12.745 10.408-24.099 4.963-48.095 10.426-72.129 15.699q-.081.341-.158.68m371.275-546.737-1.684.264c-2.68-3.104-5.635-6.013-7.988-9.346-8.309-11.758-12.622-25.277-16.39-38.954-.819-2.973-2.12-4.78-5.04-5.317-10.786-1.983-21.584-3.906-32.374-5.867-4.032-.733-6.72.793-9.271 4.09-22.366 28.889-49.997 51.63-82.146 68.798-5.245 2.802-7.803 5.845-7.512 11.765.318 6.477.072 12.979.072 19.914l2.413-3.79c12.388-19.472 28.432-34.73 50.141-43.437 11.39-4.567 23.363-6.726 35.276-3.992 17.603 4.038 26.104 17.971 29.436 33.926 4.82 23.079 4.633 46.714 1.271 70.102-2.319 16.128-6.86 31.593-17.696 44.466-13.234 15.722-33.153 18.977-49.455 6.628-6.396-4.845-11.826-11.908-15.621-19.063-10.99-20.719-11.875-43.048-7.75-65.742 1.157-6.369 2.687-12.673 4.046-19.006-10.085 11.6-20.742 22.778-19.502 39.871l-1.418.153-11.093-19.541c-.196 1.174-.417 1.918-.433 2.667-.502 23.612.691 47.073 8.797 69.529 6.661 18.456 14.846 36.147 31.161 48.451 3.082 2.323 6.547 4.139 10.788 6.783-17.869 1.984-31.369-6.332-46.042-14.688 2.169 10.788 4.203 20.367 5.97 29.995.588 3.205 2.3 4.727 5.176 5.954 42.597 18.184 87.166 26.606 133.338 26.938 39.658.284 77.898-7.27 114.576-22.22 16.518-6.731 30.623-16.905 39.703-32.845 4.561-8.006 6.125-16.523 3.553-25.528-2.285-8.007-5.297-15.858-6.889-23.994-1.08-5.521-1.404-11.702-.057-17.083 3.074-12.254 7.436-24.182 11.166-36.275 1.117-3.622 1.881-7.354 2.928-11.509l-14.748 19.302c2.432-15.367-.758-29.298-5.756-43.655-.729.971-1.066 1.211-1.072 1.461-.033 1.163.057 2.328.047 3.492-.242 25.309-2.684 50.246-12.367 73.981-3.568 8.751-8.25 16.772-15.459 23.019-8.572 7.425-17.441 6.304-22.928-3.568-3.43-6.169-6.193-12.987-7.758-19.854-3.799-16.66-2.389-33.56.316-50.207 3.139-19.312 8.107-38.241 19.156-54.758 12.82-19.159 38.381-19.699 51.891-.979 4.498 6.236 7.234 13.775 10.52 20.841 1.334 2.869 1.977 6.058 3.09 9.596.512-.961.74-1.229.805-1.532 6.646-31.122.678-60.931-9.607-90.236-.449-1.284-2.58-2.737-3.988-2.801-8.293-.375-16.604-.374-24.91-.476-4.563-.055-6.828 2.062-8.338 6.615-5.828 17.567-14.244 33.75-27.539 47.003-6.709 6.688-16.385 12.44-22.383 13.328 8.191-8.667 13.338-18.868 15.936-31.65-1.496 1.661-2.234 2.492-2.986 3.313-10.488 11.462-21.658 22.078-38.285 22.95-7.584.396-15.244-.729-22.873-1.122-3.545-.184-4.457-1.609-4.275-5.397.508-10.624.355-21.286.242-31.931-.023-2.197-1.006-4.385-1.549-6.577l-.789.275q-2.926 13.734-5.843 27.47m71.623 242.064c-12.703 10.978-26.113 19.776-41.543 25.053-15.496 5.299-31.238 7.939-47.484 4.385 11.273-4.475 16.814-9.679 17.941-16.833-21.324-1.028-42.704-2.061-63.967-3.087.072.102.203.494.451.592 28.539 11.24 43.604 35.607 57.897 60.36 4.936 8.55 7.775 18.358 11.186 27.731 5.281 14.52 9.938 29.271 15.436 43.704 3.158 8.293 6.449 16.885 11.58 23.964 3.775 5.213 10.945 7.832 16.004 12.288 3.729 3.283 7.723 3.082 11.643 2.27 7.629-1.585 15.094-3.95 22.662-5.851 19.982-5.016 39.984-9.946 59.975-14.929 5.82-1.45 11.617-3.001 17.445-4.42 3.279-.798 4.801-2.465 5.264-6.115 1.65-13.016 3.785-25.97 5.74-38.945.891-5.91 1.801-11.818 2.682-17.73 2.176-14.637 4.387-29.27 6.494-43.917 1.609-11.183 3.082-22.386 4.617-33.58q-.642-.266-1.283-.527c-7.971 16.67-18.553 31.256-33.9 41.666-15.371 10.423-31.949 17.285-51.381 14.865 29.152-15.021 32.162-42.585 34.74-70.528-10.188 12.692-22.641 22.178-37.479 28.377-14.695 6.139-29.736 9.698-46.648 4.889 17.658-8.489 22.162-15.431 21.928-33.682M170.866 691.846l2.654-116.926.912-.096.885 7.455c1.02-1.856 1.485-2.491 1.74-3.202 3.309-9.207 2.685-18.571 1.457-28.061-.507-3.925-2.452-5.212-5.899-6.083-8.858-2.236-17.654-4.729-26.426-7.293-4.303-1.256-8.495-2.891-13.561-4.638-12.716 11.856-22.276 27.113-23.278 46.084-1.079 20.425-.924 40.935-.708 61.4.197 18.635.92 37.275 1.964 55.883.521 9.267 1.489 18.785 6.834 26.787 2.579 3.861 5.896 8.249 9.916 9.956 18.8 7.979 37.993 15.028 56.977 22.584 6.703 2.668 13.046 6.325 19.87 8.567 3.438 1.129 8.312 1.422 11.262-.211 7.044-3.897 13.079-3.787 19.299 1.063 1.7 1.327 3.744 2.237 5.359 3.647 7.21 6.292 15.787 8.308 25.023 7.974 11.869-.43 17.104-9.684 12.474-20.423-4.021-9.324-10.533-15.819-19.032-20.926-12.461-7.484-24.83-9.99-37.928-1.373-1.89 1.243-5.077.513-7.665.695l-.348-1.61c2.446-1.848 4.893-3.694 7.938-5.995-6.212-4.728-12.076-9.791-18.522-13.951-8.796-5.676-17.977-10.77-27.138-15.852-1.728-.958-4.142-.654-6.228-1.004-1.148-.192-2.273-.53-3.408-.804.857-.955 1.594-2.079 2.612-2.811.747-.528 1.865-.547 2.965-.836m57.637 27.248.334 2.146q3.762.225 7.522.452c11.214.688 22.438 1.969 31.365 9.479 4.63 3.894 7.878 9.393 12.075 13.859 1.429 1.521 4.271 3.411 5.757 2.932 31.648-10.234 63.199-20.775 94.758-31.291 1.43-.478 2.752-1.277 4.428-2.07-8.402-6.415-14.102-6.146-23.256-.052-1.92 1.278-5.498 2.396-7.068 1.471-6.809-4.01-12.928-8.95-12.775-18.086.061-3.615.01-7.231.01-11.702zM-56.443 541.655l-.461-1.069c-7.655 2.378-15.253 4.965-22.979 7.089-14.958 4.114-23.542 17.563-24.173 31.978-1.032 23.571 3.428 46.648 6.191 69.868.874 7.347 2.779 14.592 4.607 21.783.353 1.388 2.892 3.519 3.838 3.249 7.502-2.133 14.941-4.565 22.202-7.411 1.436-.563 2.939-3.353 2.838-5.019-.422-6.948-1.455-13.859-2.247-20.786-2.445-21.378-5.446-42.714-7.111-64.151-.993-12.785 2.25-24.78 14.1-32.542 1.202-.789 2.137-1.984 3.195-2.989m464.396 164.557c3.574-1.163 6.82-2.459 10.184-3.261 6.117-1.456 12.34-3.83 18.455-3.649 12.891.379 25.756 2.018 38.6 3.422 7.547.825 15.033 2.192 22.547 3.315-4.797-5.352-10.514-8.521-17.303-9.949-1.465-.311-3.355-1.951-3.73-3.336-.676-2.492-.656-5.285-.393-7.898.916-9.095 2.078-18.165 3.107-27.249.191-1.696.195-3.414.314-5.655-29.621 7.023-58.424 13.854-87.371 20.719 3.596 4.778 8.174 9.263 10.725 14.696 2.597 5.534 3.199 12.006 4.865 18.845M192.999 503.25c9.273 16.546 13.265 34.206 16.572 52.021.846 4.558 1.96 6.31 6.969 5.345 6.828-1.315 13.819-2.051 20.772-2.394 10.954-.541 21.934-.528 32.902-.789 6.206-.146 7.334-1.511 5.982-7.669-1.28-5.834-3.281-11.545-4.126-17.431-1.149-8.016-5.868-12.5-13.081-14.545-3.762-1.065-7.854-.969-11.797-1.396-12.987-1.407-26.354-.379-38.75-5.604-5.269-2.22-10.302-5.007-15.443-7.538m304.862 188.322c.238-2.256.457-4.531.725-6.803 6.672-56.383 13.053-112.803 20.148-169.132 3.621-28.732 8.49-57.309 12.906-85.938.543-3.513.295-5.62-3.967-6.133-4.113-.495-5.391 1.441-5.859 4.889-.607 4.451-1.273 8.896-1.932 13.34-7.176 48.591-14.492 97.16-21.486 145.777-4.313 29.986-8.168 60.04-12.166 90.071-1.293 9.722 1.477 13.08 11.631 13.929m272.396-283.167.492-1.738c-2.221-1.434-4.279-3.575-6.701-4.131-3.5-.804-7.268-.65-10.914-.571-64.336 1.41-128.369 7.283-192.398 13.187-3.965.365-7.893 1.151-12.584 1.854 16.094 13.707 16.094 13.706 35.658 11.985 1.99-.175 3.988-.301 5.975-.519 53.303-5.853 106.605-11.704 159.904-17.582 6.865-.759 13.711-1.654 20.568-2.485M636.314 744.187c.18-1.134.361-1.933.43-2.742 2.432-29.378 4.684-58.771 7.318-88.132 2.994-33.344 6.172-66.673 9.6-99.974 1.314-12.78 3.523-14.696 15.953-17.41 8.094-1.769 16.191-3.508 24.256-5.253-.756-5.916-4.568-9.304-10.191-8.603-5.938.739-11.84 1.9-17.684 3.206-19.607 4.383-19.957 4.401-22.055 24.531-2.83 27.161-5.246 54.371-7.455 81.591-2.814 34.693-5.295 69.414-7.803 104.132-.506 6.998.141 7.501 7.631 8.654m43.346-18.349c8.939 1.235 17.543 1.58 25.674 3.715 20.381 5.351 39.361 3.117 57.504-7.719 3.271-1.953 6.576-4.003 5.945-7.563-.361-2.053-4.182-3.503-6.467-5.193-.244-.181-.643-.149-.967-.22-20.344-4.325-40.678-8.689-61.035-12.948-5.641-1.181-11.348-2.043-17.238-3.089zM538.843 201.679c2.572-56.052-14.113-106.858-43.178-153.81C466.235.329 424.272-32.98 373.167-55.246c98.7 57.663 151.221 144.978 165.676 256.925M366.078 781.543c-1.152 2.379-1.625 5.477-3.174 6.168-5.441 2.43-11.279 5.577-16.918 5.482-4.982-.084-8.531 1.926-12.709 3.195-2.771.843-5.828 1.35-8.693 1.138-4.129-.305-8.178-1.557-12.297-2.128-16.644-2.309-33.344-4.235-49.933-6.87-8.104-1.286-16.747-2.448-23.766-6.229-5.386-2.902-8.14-1.748-12.656 1.205 2.297.523 3.859.939 5.444 1.233 30.784 5.703 61.65 11.005 92.313 17.296 10.723 2.199 20.217.732 30.133-3.016 31.936-12.073 64.041-23.696 96.047-35.585q35.356-13.148 70.621-26.536c3.313-1.257 6.404-3.091 9.598-4.658l-.227-1.553c-6.383-1.065-12.766-2.132-19.973-3.336 1.629 10.093-5.955 11.539-11.832 12.845-6.002 1.334-12.529.295-19.152.295.133 7.995-7.639 8.271-13.146 10.003-5.879 1.85-12.359 1.776-19.109 2.608-.461.959-.98 4.267-2.49 4.805-7.697 2.745-14.988 7.647-22.799 5.874-9.627 7.378-18.947 12.146-30.555 6.949-2.052 8.291-12.595 12.677-24.727 10.815M54.946 335.474c-14.46 1.516-27.204 22.798-26.074 44.225 1.02 19.354 15.525 38.969 33.466 40.308zM297.47 553.421l-1.254.604c.97 4.646 2.059 9.271 2.889 13.942 3.658 20.579 7.205 41.179 10.877 61.757 1.537 8.63 2.586 17.416 9.588 23.979 7.395 6.933 14.479 14.19 21.773 21.23 1.012.976 2.445 1.513 3.33 2.042l9.672-7.313c-1.48-1.201-2.531-2.277-3.779-3.029-8.375-5.044-13.531-12.446-16.725-21.588-5.244-15.017-10.764-29.936-16.254-44.863-3.668-9.978-7.236-20.004-11.334-29.808-2.445-5.852-5.824-11.316-8.783-16.953m50.553 142.132c1.643 2.996 2.74 6.535 5.057 8.861 3.559 3.578 7.607 1.819 11.262-.693 1.367-.94 2.822-1.759 4.273-2.568 5.906-3.299 9.17-2.727 14.516 1.377 2.688 2.063 5.945 3.799 9.211 4.595 6.24 1.521 9.76-2.141 8.814-8.448-2.689-17.949-19.469-28.732-36.791-23.646-12.219 3.588-14.832 7.017-16.342 20.522m-62.72-514.72-3.133-59.389-27.314 54.55zm154.798-43.573-.811.363-7.092 53.775H459.7zm176.625 603.572-38.344 17.148.436 2.126 57.15 8.53.498-1.198c-10.756-5.382-20.642-11.433-19.74-26.606m-276.949-.245-.096 1.714c3.822.413 8.084 2.141 11.396 1.028 23.449-7.869 46.705-16.32 70.002-24.581-2.936-2.049-6.309-3.597-10.564-2.173-18.602 6.227-37.232 12.357-55.832 18.594-5.012 1.679-9.939 3.605-14.906 5.418m20.465 29.415c-11.789-6.717-22.799-4.672-33.371 2.448 11.599 5.601 22.662 4.78 33.371-2.448m-61.387-2.525c5.93 1.208 10.773 2.255 15.648 3.146 1.252.229 2.82.392 3.859-.15 4.664-2.431 9.188-5.128 13.445-7.548-11.366-7.109-21.792-2.8-32.952 4.552m146.16-35.238c11.336 5.244 21.141 2.029 31.717-5.108-6.15-1.151-11.525-3.57-16.273-2.674-5.391 1.017-10.219 5.004-15.444 7.782m-1 7.31c-12.785-5.247-22.371-4.145-30.789 3.176 10.633 5.574 20.522 2.489 30.789-3.176m-26.051-12.711c11.662 5.224 23.865 3.804 30.617-2.806-10.63-7.772-20.376-1.941-30.617 2.806m-2.783 22.16c-10.596-5.687-20.398-3.784-29.963 2.124 10.414 4.799 20.49 6.308 29.963-2.124m-29.877 9.673c-10.49-7.197-20.162-3.119-30.217 2.641 15.473 4.823 21.444 4.213 30.217-2.641m121.504-40.77c-10.875-4.646-23-2.913-28.146 3.442 9.847 5.448 18.925 2.581 28.146-3.442m-192.281 70.675c9.773 6.183 17.592 1.792 25.576-3.796-9.611-5.442-17.682-2.652-25.576 3.796m102.66-54.521c-9.961-6.133-19.248-2.91-28.41 2.466 10.033 4.044 19.615 3.597 28.41-2.466m-86.111 21.926c10.195 6.283 18.865 2.438 27.541-2.34-9.854-6.661-18.391-1.506-27.541 2.34m148.291-42.292c-12.695-4.082-21.861-2.742-26.271 3.434 9.023 2.785 18.239 4.605 26.271-3.434m-142.725 34.145c-9.645-6.128-18.152-1.678-26.869 2.333 9.963 8.189 18.199.738 26.869-2.333m50.826-5.003c-9.898-4.231-18.164-1.023-26.242 3.563 9.602 6.347 17.723 1.722 26.242-3.563M278.08 783.253c11.519 3.059 12.801 2.697 22.404-6.053-9.058-5.143-15.861-.512-22.404 6.053m147.443-70.736c11.189 4.62 18.852 3.931 24.125-2.175-8.291-2.051-16.684-5.205-24.125 2.175m-129.511 73.01c10.984 3.246 15.722 2.277 22.613-4.406-8.204-4.315-13.622-3.318-22.613 4.406m-2.241-21.788c4.539-2.287 8.621-4.345 12.703-6.4-5.457-1.106-10.448-5.104-15.558-1.501zM170.21 474.5l-1.217 1.253 4.259 13.571 1.706.162c1.398-3.22 4.476-6.938 3.71-9.515-.728-2.444-5.478-3.694-8.458-5.471"/><path d="M665.246 345.825c-2.332.899-3.789 1.765-5.344 2.011-8.479 1.342-11.936 4.97-12.643 13.606-.246 2.982-.287 5.989-.678 8.951-.219 1.668-.961 3.268-1.467 4.897l-2 .353c-.938-2.517-2.453-4.978-2.701-7.56-.691-7.172-3.475-13.055-10.105-16.048-3.621-1.634-7.918-1.765-11.906-2.589-1.992-.411-3.979-.857-5.967-1.288l-.17-1.771c3.879-1.206 7.689-2.734 11.646-3.558 12.24-2.544 12.85-8.548 14.684-17.826.928-4.684.654-9.594 1.27-14.356.174-1.34 1.566-2.523 2.4-3.778.982 1.183 2.486 2.224 2.848 3.571 1.029 3.839 1.596 7.802 2.34 11.717 1.762 9.275 4.516 17.823 14.885 21.053.837.262 1.445 1.265 2.908 2.615m-16.1-1.803-5.359-9.711-9.021 11.818 7.424 6.799zm-49.934-84.686c1.25-.88 2.402-2.321 3.762-2.551 12.373-2.081 16.324-10.169 16.652-22.332.105-3.809.23-7.643.785-11.398.201-1.366 1.682-2.543 2.578-3.807.926 1.212 2.393 2.311 2.68 3.658.938 4.38 1.635 8.832 2.074 13.291.986 10.007 5.779 16.728 15.807 19.262 1.281.323 2.508.882 3.73 1.4.42.179.752.567 1.73 1.338-5.881 4.065-14.855 2.798-17.881 10.335-2.602 6.48-4.432 13.271-7.041 21.269-1.113-2.693-2.078-4.426-2.545-6.281-1.014-4.022-1.445-8.215-2.711-12.146-2.051-6.364-6.393-9.069-13.182-9.239-2.039-.052-4.063-.737-6.094-1.134zm32.721-1.894c-2.609-2.915-5.438-6.07-8.256-9.218l-7.213 9.563 7.428 8.977zm-46.912 39.485c4.127 7.863 2.561 19.854 15.813 21.104l-.902 1.494c-1.268.369-2.512.889-3.807 1.081-6.432.957-7.361 2.185-7.418 8.763-.021 2.418-.82 4.829-1.266 7.243l-1.986.172c-1.734-4.228-2.48-9.471-5.484-12.388-2.836-2.752-8.047-3.057-12.215-4.438l-.061-1.35c1.654-.888 3.227-2.032 4.982-2.616 6.398-2.128 8.373-4.563 9.137-11.362.279-2.479.939-4.915 1.428-7.37q.89-.165 1.779-.333"/><path fill="#fff" d="m315.654 244.399 5.838-27.472.791-.275c.541 2.192 1.523 4.38 1.549 6.577.113 10.645.266 21.307-.244 31.931-.18 3.788.73 5.215 4.275 5.397 7.629.394 15.291 1.52 22.873 1.122 16.629-.872 27.799-11.488 38.287-22.95.75-.821 1.488-1.652 2.986-3.313-2.598 12.782-7.744 22.983-15.938 31.649 6-.887 15.676-6.641 22.385-13.327 13.295-13.253 21.711-29.436 27.539-47.003 1.51-4.555 3.775-6.67 8.338-6.615 8.307.102 16.617.101 24.91.476 1.408.063 3.539 1.517 3.988 2.801 10.285 29.307 16.256 59.114 9.607 90.235-.064.305-.293.572-.805 1.533-1.113-3.538-1.756-6.727-3.09-9.596-3.283-7.064-6.021-14.604-10.52-20.841-13.51-18.723-39.068-18.183-51.891.979-11.049 16.517-16.02 35.446-19.156 54.757-2.705 16.648-4.115 33.548-.316 50.208 1.563 6.867 4.328 13.687 7.758 19.854 5.486 9.872 14.355 10.993 22.928 3.568 7.209-6.245 11.891-14.268 15.459-23.019 9.686-23.736 12.125-48.674 12.367-73.981.01-1.164-.08-2.329-.047-3.492.006-.25.344-.49 1.072-1.461 4.998 14.357 8.188 28.288 5.756 43.655 4.768-6.238 9.535-12.479 14.748-19.302-1.047 4.154-1.811 7.886-2.928 11.509-3.73 12.095-8.092 24.021-11.166 36.275-1.35 5.381-1.023 11.562.057 17.083 1.592 8.136 4.604 15.987 6.889 23.994 2.572 9.005 1.008 17.522-3.553 25.528-9.08 15.938-23.188 26.111-39.703 32.845-36.678 14.95-74.918 22.504-114.576 22.22-46.172-.33-90.742-8.754-133.338-26.938-2.876-1.229-4.588-2.749-5.176-5.954-1.767-9.628-3.801-19.207-5.97-29.995 14.673 8.354 28.173 16.672 46.042 14.687-4.241-2.645-7.706-4.46-10.788-6.782-16.315-12.304-24.5-29.995-31.161-48.451-8.105-22.456-9.299-45.917-8.797-69.529.016-.749.236-1.493.433-2.667 3.871 6.82 7.481 13.181 11.093 19.541q.709-.078 1.418-.153c-1.24-17.093 9.417-28.271 19.502-39.871-1.359 6.333-2.889 12.637-4.046 19.006-4.125 22.694-3.24 45.023 7.75 65.742 3.795 7.153 9.226 14.218 15.621 19.063 16.302 12.349 36.221 9.094 49.455-6.628 10.836-12.873 15.377-28.338 17.696-44.466 3.362-23.388 3.55-47.021-1.271-70.102-3.332-15.955-11.833-29.888-29.436-33.926-11.913-2.732-23.887-.575-35.276 3.992-21.709 8.705-37.753 23.965-50.141 43.437l-2.413 3.79c0-6.936.246-13.438-.072-19.914-.291-5.92 2.267-8.963 7.512-11.765 32.149-17.168 59.78-39.909 82.146-68.798 2.552-3.297 5.239-4.823 9.271-4.09 10.79 1.961 21.588 3.884 32.374 5.867 2.92.537 4.221 2.346 5.04 5.317 3.768 13.677 8.081 27.196 16.39 38.954 2.354 3.333 5.311 6.242 7.988 9.346z"/><path fill="#fff" d="M182.417 397.333c-1.331 6.247 2.975 15.217 8.632 17.978.105-4.877-5.816-17.21-8.632-17.978m264.977 17.907 1.449-.823c-.605-6.199-7.768-16.397-13.014-17.375zm-15.873-17.542-2.539 1.319 9.48 18.079 2.459-1.278zm-103.145 50.489c2.035 1.782 3.199 2.805 4.363 3.826 1.496-2.268 3.275-4.416 4.289-6.88.254-.623-1.941-2.252-3.014-3.419zm-121.582-32.556 1.513-.991-10.914-16.638-1.688 1.107c1.949 6.656 6.462 11.627 11.089 16.522m226.668.237 1.469-.843-8.33-14.56c-1.521 5.944 1.106 10.743 6.861 15.403m12.684-20.368-2.303 1.283 9.605 17.383 2.238-1.248a36600 36600 0 0 0-9.54-17.418m-256.417 4.606-1.901 1.271 9.714 15.037 2.119-1.418zm-9.518 12.528 2.443-1.208-7.398-14.021-2.343 1.217zm-9.345 279.212c-1.101.288-2.218.308-2.964.843-1.019.73-1.755 1.854-2.612 2.811 1.135.272 2.26.61 3.408.804 2.086.35 4.5.046 6.228 1.004 9.161 5.082 18.342 10.176 27.138 15.852 6.446 4.16 12.311 9.225 18.522 13.951l-7.938 5.995.348 1.61c2.588-.184 5.775.548 7.665-.695 13.098-8.617 25.467-6.111 37.928 1.373 8.499 5.104 15.011 11.602 19.032 20.926 4.631 10.739-.604 19.993-12.474 20.423-9.236.334-17.813-1.682-25.023-7.974-1.615-1.41-3.659-2.32-5.359-3.647-6.22-4.851-12.255-4.961-19.299-1.063-2.95 1.633-7.824 1.34-11.262.211-6.824-2.242-13.167-5.899-19.87-8.567-18.983-7.556-38.177-14.604-56.977-22.584-4.02-1.707-7.337-6.095-9.916-9.956-5.345-8.002-6.313-17.521-6.834-26.787-1.044-18.606-1.767-37.248-1.964-55.883-.216-20.467-.371-40.977.708-61.4 1.002-18.971 10.563-34.228 23.278-46.084 5.065 1.747 9.258 3.382 13.561 4.638 8.771 2.563 17.567 5.057 26.426 7.293 3.447.871 5.393 2.158 5.899 6.083 1.228 9.488 1.852 18.854-1.457 28.061-.255.711-.721 1.346-1.74 3.202l-.885-7.455-.912.096z"/><path fill="#fff" d="m228.503 719.094 113.149-32.863c0 4.47.049 8.087-.012 11.702-.15 9.136 5.969 14.076 12.777 18.086 1.568.925 5.146-.192 7.068-1.471 9.154-6.095 14.852-6.363 23.256.052-1.676.793-2.998 1.594-4.43 2.07-31.559 10.516-63.107 21.057-94.757 31.291-1.485.479-4.328-1.41-5.757-2.932-4.197-4.468-7.445-9.967-12.075-13.859-8.928-7.51-20.151-8.791-31.365-9.479q-3.761-.228-7.522-.452zM-56.443 541.655c-1.058 1.005-1.992 2.2-3.193 2.987-11.851 7.762-15.093 19.757-14.1 32.542 1.665 21.438 4.666 42.772 7.111 64.151.792 6.927 1.824 13.838 2.247 20.785.101 1.667-1.402 4.456-2.838 5.02-7.261 2.846-14.699 5.278-22.202 7.411-.946.27-3.485-1.861-3.838-3.249-1.829-7.191-3.733-14.438-4.607-21.783-2.764-23.22-7.224-46.297-6.191-69.868.631-14.415 9.215-27.862 24.173-31.978 7.725-2.124 15.323-4.711 22.979-7.09zm464.396 164.557c-1.666-6.84-2.268-13.312-4.865-18.847-2.551-5.435-7.129-9.918-10.725-14.697l87.371-20.718c-.119 2.241-.123 3.959-.314 5.655-1.029 9.084-2.191 18.154-3.107 27.249-.264 2.613-.283 5.406.393 7.898.375 1.385 2.268 3.025 3.73 3.336 6.789 1.43 12.506 4.599 17.303 9.949-7.514-1.124-15-2.49-22.547-3.315-12.844-1.404-25.709-3.043-38.6-3.422-6.115-.181-12.338 2.193-18.455 3.649-3.364.804-6.61 2.1-10.184 3.263M192.999 503.25c5.141 2.531 10.174 5.318 15.444 7.54 12.396 5.227 25.763 4.197 38.75 5.604 3.943.427 8.035.329 11.797 1.396 7.213 2.044 11.932 6.529 13.081 14.544.845 5.887 2.846 11.598 4.126 17.432 1.352 6.158.224 7.521-5.982 7.669-10.969.261-21.948.248-32.902.789-6.953.343-13.944 1.077-20.772 2.394-5.009.965-6.123-.787-6.969-5.345-3.308-17.816-7.3-35.478-16.573-52.023"/><path fill="#fff" d="M497.861 691.572c-10.154-.849-12.926-4.207-11.629-13.928 3.996-30.031 7.852-60.085 12.164-90.071 6.994-48.616 14.311-97.188 21.486-145.777.656-4.444 1.324-8.889 1.932-13.339.471-3.447 1.746-5.385 5.859-4.89 4.262.513 4.51 2.62 3.967 6.133-4.416 28.63-9.285 57.205-12.906 85.938-7.098 56.329-13.477 112.749-20.148 169.132-.268 2.271-.487 4.546-.725 6.802m272.396-283.167c-6.855.831-13.703 1.727-20.566 2.483-53.301 5.878-106.604 11.729-159.906 17.582-1.986.218-3.982.344-5.973.519-19.566 1.721-19.566 1.722-35.66-11.985 4.691-.701 8.619-1.487 12.584-1.854 64.029-5.902 128.063-11.775 192.398-13.187 3.646-.079 7.414-.231 10.914.571 2.422.556 4.48 2.697 6.701 4.131zM636.314 744.187c-7.49-1.153-8.137-1.656-7.631-8.652 2.508-34.718 4.986-69.438 7.803-104.132 2.209-27.22 4.625-54.43 7.455-81.591 2.098-20.13 2.445-20.148 22.055-24.531 5.844-1.306 11.746-2.467 17.684-3.206 5.623-.7 9.438 2.687 10.191 8.603-8.064 1.745-16.162 3.484-24.256 5.253-12.43 2.714-14.639 4.63-15.953 17.41-3.428 33.301-6.605 66.63-9.6 99.974-2.637 29.359-4.889 58.754-7.318 88.132-.069.808-.25 1.606-.43 2.74m43.346-18.349 3.416-33.017c5.893 1.046 11.6 1.908 17.238 3.088 20.357 4.259 40.691 8.624 61.035 12.949.324.069.723.039.967.219 2.285 1.691 6.104 3.143 6.467 5.194.631 3.559-2.676 5.607-5.945 7.562-18.143 10.837-37.123 13.069-57.504 7.72-8.131-2.136-16.733-2.479-25.674-3.715M538.843 201.679C524.388 89.732 471.867 2.417 373.167-55.245 424.273-32.978 466.236.33 495.666 47.87c29.064 46.951 45.75 97.758 43.177 153.809M366.078 781.543c12.133 1.862 22.676-2.522 24.727-10.813 11.607 5.195 20.928.429 30.557-6.949 7.811 1.773 15.102-3.129 22.799-5.874 1.508-.538 2.029-3.846 2.49-4.805 6.748-.832 13.23-.76 19.107-2.608 5.51-1.731 13.279-2.008 13.146-10.003 6.625 0 13.152 1.039 19.154-.295 5.875-1.306 13.459-2.752 11.832-12.845 7.205 1.204 13.59 2.271 19.973 3.336l.227 1.553c-3.193 1.567-6.287 3.401-9.6 4.658a11041 11041 0 0 1-70.619 26.536c-32.006 11.889-64.111 23.512-96.049 35.585-9.916 3.748-19.41 5.215-30.131 3.016-30.664-6.291-61.53-11.593-92.314-17.296-1.585-.294-3.147-.71-5.444-1.233 4.517-2.953 7.271-4.107 12.656-1.205 7.019 3.782 15.662 4.943 23.766 6.229 16.589 2.635 33.289 4.563 49.932 6.87 4.121.571 8.17 1.823 12.297 2.128 2.865.212 5.922-.295 8.693-1.138 4.18-1.271 7.729-3.279 12.709-3.195 5.639.095 11.477-3.054 16.92-5.482 1.547-.695 2.019-3.792 3.172-6.17M54.946 335.474l7.392 84.531c-17.941-1.339-32.446-20.954-33.466-40.308-1.129-21.425 11.614-42.707 26.074-44.223M297.47 553.421c2.959 5.638 6.338 11.102 8.783 16.953 4.098 9.804 7.666 19.83 11.334 29.808 5.49 14.929 11.01 29.848 16.254 44.863 3.191 9.142 8.35 16.544 16.725 21.588 1.248.752 2.299 1.828 3.779 3.029l-9.672 7.313c-.885-.529-2.318-1.066-3.33-2.042-7.295-7.04-14.381-14.299-21.773-21.23-7.002-6.563-8.051-15.349-9.588-23.979-3.672-20.578-7.219-41.178-10.877-61.757-.83-4.671-1.919-9.297-2.889-13.942zm50.553 142.132c1.51-13.506 4.123-16.936 16.342-20.522 17.322-5.088 34.102 5.695 36.791 23.646.943 6.309-2.574 9.969-8.814 8.448-3.266-.796-6.523-2.532-9.211-4.595-5.346-4.104-8.607-4.676-14.516-1.377-1.451.811-2.906 1.628-4.273 2.568-3.652 2.514-7.703 4.271-11.262.693-2.317-2.325-3.414-5.864-5.057-8.861m-62.72-514.72-30.447-4.839 27.314-54.55zm154.798-43.573 19.6 54.14h-27.5l7.092-53.775zm176.625 603.572c-.9 15.174 8.984 21.226 19.74 26.606l-.498 1.198-57.15-8.53-.436-2.126zm-276.949-.245c4.967-1.813 9.895-3.738 14.906-5.419 18.598-6.234 37.23-12.366 55.832-18.593 4.256-1.424 7.629.124 10.563 2.173-23.297 8.261-46.551 16.711-70.002 24.581-3.311 1.111-7.572-.616-11.395-1.028z"/><path fill="#fff" d="M360.242 770.002c-10.709 7.229-21.771 8.049-33.371 2.448 10.572-7.12 21.582-9.164 33.371-2.448m-61.387-2.525c11.16-7.354 21.586-11.661 32.953-4.554-4.256 2.42-8.781 5.116-13.443 7.548-1.041.542-2.607.38-3.861.149-4.876-.888-9.721-1.935-15.649-3.143m146.16-35.238c5.227-2.777 10.055-6.765 15.441-7.783 4.75-.896 10.123 1.522 16.273 2.675-10.575 7.137-20.378 10.352-31.714 5.108m-1 7.31c-10.268 5.665-20.154 8.75-30.789 3.176 8.418-7.32 18.002-8.423 30.789-3.176m-26.051-12.711c10.24-4.747 19.986-10.577 30.617-2.806-6.751 6.609-18.955 8.029-30.617 2.806m-2.783 22.159c-9.473 8.435-19.549 6.925-29.963 2.124 9.563-5.908 19.367-7.81 29.963-2.124m-29.877 9.674c-8.771 6.854-14.744 7.465-30.217 2.641 10.055-5.76 19.727-9.839 30.217-2.641m121.504-40.77c-9.221 6.022-18.299 8.889-28.146 3.442 5.146-6.355 17.271-8.088 28.146-3.442m-192.281 70.675c7.895-6.447 15.965-9.237 25.574-3.796-7.982 5.588-15.799 9.978-25.574 3.796m102.658-54.521c-8.793 6.063-18.375 6.51-28.408 2.466 9.162-5.376 18.449-8.598 28.408-2.466m-86.109 21.926c9.15-3.846 17.688-9.001 27.541-2.34-8.676 4.779-17.346 8.623-27.541 2.34m148.291-42.292c-8.031 8.039-17.248 6.219-26.271 3.433 4.409-6.175 13.575-7.515 26.271-3.433m-142.725 34.145c-8.67 3.07-16.906 10.521-26.869 2.332 8.715-4.009 17.225-8.46 26.869-2.332m50.826-5.004c-8.52 5.286-16.641 9.911-26.242 3.563 8.078-4.587 16.344-7.795 26.242-3.563M278.08 783.253c6.543-6.564 13.346-11.195 22.404-6.053-9.603 8.751-10.885 9.111-22.404 6.053m147.441-70.742c7.443-7.374 15.836-4.222 24.127-2.169-5.273 6.106-12.934 6.795-24.127 2.169m-129.509 73.016c8.991-7.724 14.409-8.721 22.612-4.406-6.892 6.683-11.628 7.652-22.612 4.406m-2.241-21.788-2.854-7.901c5.109-3.604 10.102.395 15.559 1.501-4.084 2.055-8.166 4.113-12.705 6.4m355.375-419.717-6.957 8.906-7.426-6.799 9.021-11.818c1.696 3.067 3.452 6.254 5.362 9.711m-17.213-86.58-8.041 9.32-7.428-8.977 7.213-9.563c2.819 3.15 5.645 6.305 8.256 9.22"/><path d="M182.417 397.333c2.816.769 8.737 13.102 8.632 17.978-5.657-2.761-9.963-11.73-8.632-17.978m264.977 17.907-11.564-18.198c5.246.978 12.408 11.176 13.016 17.375zm-15.873-17.542 9.4 18.12-2.459 1.278-9.48-18.079zm-103.145 50.489 5.641-6.473c1.07 1.167 3.268 2.796 3.012 3.419-1.014 2.464-2.791 4.612-4.287 6.88zm-121.582-32.556c-4.627-4.896-9.14-9.865-11.089-16.521l1.688-1.107 10.914 16.638zm226.668.237c-5.756-4.659-8.383-9.459-6.861-15.401l8.33 14.56q-.735.419-1.469.841m12.684-20.368 9.543 17.418-2.24 1.248-9.605-17.383zm-256.417 4.606 9.932 14.89-2.119 1.418-9.714-15.037zm-9.518 12.528-7.298-14.014 2.343-1.217 7.398 14.021q-1.22.607-2.443 1.21"/></svg>