<?xml version="1.0" encoding="utf-8"?>
<!-- Generator: Adobe Illustrator 16.0.3, SVG Export Plug-In . SVG Version: 6.00 Build 0)  -->
<!DOCTYPE svg PUBLIC "-//W3C//DTD SVG 1.1//EN" "http://www.w3.org/Graphics/SVG/1.1/DTD/svg11.dtd">
<svg version="1.1" id="レイヤー_1" xmlns="http://www.w3.org/2000/svg" xmlns:xlink="http://www.w3.org/1999/xlink" x="0px"
	 y="0px" width="946.935px" height="979.366px" viewBox="-160.033 -97.319 946.935 979.366"
	 enable-background="new -160.033 -97.319 946.935 979.366" xml:space="preserve">
<path d="M-55.621,791.136c4.994,0.878,9.975,1.832,14.982,2.623c69.276,10.936,138.558,21.833,207.834,32.771
	c63.833,10.077,127.677,20.086,191.48,30.347c21.592,3.474,42.541,1.442,63.016-5.857c51.307-18.294,102.572-36.7,153.846-55.085
	c1.785-0.642,3.482-1.522,6.277-2.759c-4.355-1.233-7.568-1.967-10.656-3.058c-5.23-1.846-8.225-5.461-8.211-11.241
	c0.01-5.331,0.07-10.669-0.125-15.995c-0.299-8.161,3.363-13.648,10.75-16.87c12.98-5.661,25.887-11.502,38.957-16.947
	c3.393-1.413,4.705-3.047,4.891-6.815c0.424-8.581,1.549-17.13,2.461-26.439c-6.553,1.266-12.363,2.465-18.203,3.501
	c-19.188,3.405-38.344,7.061-57.613,9.92c-5.367,0.796-11.104-0.763-16.654-1.357c-8.027-0.86-16.043-1.828-24.064-2.75
	l-0.236,1.498c2.412,0.631,4.967,0.952,7.193,1.983c2.152,0.998,5.275,2.435,5.672,4.195c1.004,4.463,4.119,4.482,7.322,5.107
	c4.41,0.858,8.838,1.687,13.178,2.832c4.869,1.286,7.732,4.671,8.008,9.693c0.254,4.642,0.27,9.34-0.156,13.964
	c-0.563,6.088-4.926,9.138-10.17,11.167c-25.172,9.734-50.32,19.53-75.527,29.176c-34.074,13.039-68.254,25.81-102.26,39.025
	c-10.139,3.94-20.127,5.087-30.797,2.958c-33.986-6.78-68.033-13.251-102.035-19.949c-5.176-1.021-11.192-1.674-12.575-8.116
	c-1.598-7.445-2.248-14.995,5.077-20.461c0.822-0.613,0.97-2.13,1.431-3.227c-1.02-0.38-2.073-1.155-3.054-1.072
	c-8.04,0.683-15.528-0.063-21.877-5.976c-1.328-1.235-4.168-0.71-6.191-1.364c-8.035-2.604-16.089-5.175-24.009-8.103
	c-8.118-3.001-16.313-5.946-24.055-9.766c-7.208-3.555-13.799-2.227-20.638,0.335c-4.193,1.57-8.308,3.482-12.627,4.558
	c-20.97,5.221-41.997,10.216-63.008,15.268c-1.402,0.337-2.851,0.481-4.933,0.825c0.815-2.423,1.427-4.252,2.047-6.078
	c6.796-19.991,13.421-40.044,20.457-59.951c4.154-11.752,9.685-23.052,13.317-34.946c7.191-23.546,13.375-47.396,20.216-71.052
	c3.561-12.309,8.722-24.254,11.189-36.753c2.776-14.059,12.562-23.514,19.802-35.291c-2.996-2.104-6.089-3.933-8.775-6.234
	c-6.182-5.294-12.106-10.886-18.278-16.19c-1.238-1.063-3.095-1.942-4.688-1.979c-27.54-0.626-50.247-11.606-68.747-31.749
	c-1.213-1.32-2.409-2.657-3.781-4.171c-1.871,13.584,6.1,24.833,21.588,31.988c-7.458,0-15.058,0.943-22.35-0.156
	c-40.787-6.148-68.863-30.037-88.139-65.229c-14.082-25.709-17.84-53.819-17.413-82.706c0.075-5.079,0.011-10.162,0.011-15.717
	c-22.229,14.408-45.602,24.365-73.567,24.796c1.406-2.003,2.005-3.039,2.776-3.928c11.121-12.83,22.626-25.347,33.319-38.521
	c16.376-20.181,29.296-42.65,38.157-66.976c6.29-17.268,10.002-35.486,14.664-53.333c5.256-20.123,9.681-40.482,15.604-60.402
	c4.738-15.934,10.623-31.591,17.005-46.952c7.977-19.199,15.474-38.849,25.854-56.75C11.141-9.65,45.854-39.861,86.927-63.124
	C123.176-83.654,162.4-93.19,203.629-96.288c53.369-4.009,105.177,3.79,155.343,21.406
	c57.318,20.129,105.242,54.107,139.877,104.449c42.699,62.063,61.516,130.546,50.299,206.072
	c-2.078,13.99-5.914,27.524-13.252,39.568c-5.961,9.782-5.352,19.695-3.168,29.854c4.631,21.549,13.307,41.43,25.896,59.556
	c1.486,2.141,3.244,4.095,5.813,7.307c-15.908-4.187-28.465-12.138-41.557-19.225v53.713
	c61.342-8.264,122.322-11.955,183.271-15.899c16.619-1.076,33.301-1.29,49.959-1.657c4.666-0.103,9.328,0.269,13.92,1.107
	c10.748,1.985,16.209,8.289,15.609,19.2c-0.729,13.293-2.033,26.586-3.775,39.788c-8.107,61.447-16.424,122.866-24.744,184.285
	c-0.893,6.601-2.375,13.116-3.416,19.698c-1.047,6.615-4.467,10.805-11.123,12.547c-17.721,4.641-35.389,9.48-53.076,14.246
	c-1.09,0.294-2.168,0.635-3.42,2.165c7.754,1.763,15.488,3.627,23.27,5.269c18.535,3.91,37.094,7.717,55.643,11.563
	c13.521,2.805,21.492,12.076,21.85,25.927c0.203,7.824-0.232,15.663-0.17,23.493c0.072,8.795-4.051,14.381-12.213,17.433
	c-35.576,13.304-71.057,26.865-106.689,40.016C602.447,829.698,537,853.482,471.707,877.684c-7.818,2.897-15.465,4.291-23.762,4.268
	c-61.5-0.175-123.002-0.443-184.498,0.082c-24.113,0.206-47.774-2.104-71.506-6.063c-56.205-9.373-112.523-18.073-168.813-26.942
	c-38.842-6.121-77.71-12.071-116.567-18.098c-13.283-2.062-18.893-8.242-19.515-21.671c-0.208-4.493-0.219-8.996-0.257-13.496
	c-0.108-12.616,3.485-17.748,15.353-22.02c6.632-2.387,6.61-2.384,5.482-9.457c-7.373-46.234-15.088-92.42-21.901-138.737
	c-2.243-15.248-3.429-30.895-2.805-46.266c0.921-22.695,13.792-38.529,35.141-44.937c19.526-5.858,39.867-9.281,60.038-12.646
	c26.325-4.392,52.937-6.285,79.665-6.141c15.741,0.086,31.295,1.367,46.295,6.587c1.408,0.49,2.774,1.11,4.134,1.729
	c3.051,1.388,3.143,3.107,1.175,5.811c-7.432,10.206-12.331,21.663-15.874,33.715c-2.299,7.819-4.41,15.693-6.604,23.543
	c-4.921,17.606-9.381,35.359-14.882,52.783c-6.306,19.971-13.638,39.614-20.333,59.465c-5.902,17.498-11.483,35.104-17.335,52.62
	c-1.422,4.256-3.886,8.214-4.927,12.536c-1.683,6.991-6.304,9.082-12.745,10.408c-24.099,4.963-48.095,10.426-72.129,15.699
	C-55.517,790.684-55.57,790.91-55.621,791.136 M315.654,244.399l-1.684,0.264c-2.68-3.104-5.635-6.013-7.988-9.346
	c-8.309-11.758-12.622-25.277-16.39-38.954c-0.819-2.973-2.12-4.78-5.04-5.317c-10.786-1.983-21.584-3.906-32.374-5.867
	c-4.032-0.733-6.72,0.793-9.271,4.09c-22.366,28.889-49.997,51.63-82.146,68.798c-5.245,2.802-7.803,5.845-7.512,11.765
	c0.318,6.477,0.072,12.979,0.072,19.914l2.413-3.79c12.388-19.472,28.432-34.73,50.141-43.437
	c11.39-4.567,23.363-6.726,35.276-3.992c17.603,4.038,26.104,17.971,29.436,33.926c4.82,23.079,4.633,46.714,1.271,70.102
	c-2.319,16.128-6.86,31.593-17.696,44.466c-13.234,15.722-33.153,18.977-49.455,6.628c-6.396-4.845-11.826-11.908-15.621-19.063
	c-10.99-20.719-11.875-43.048-7.75-65.742c1.157-6.369,2.687-12.673,4.046-19.006c-10.085,11.6-20.742,22.778-19.502,39.871
	l-1.418,0.153l-11.093-19.541c-0.196,1.174-0.417,1.918-0.433,2.667c-0.502,23.612,0.691,47.073,8.797,69.529
	c6.661,18.456,14.846,36.147,31.161,48.451c3.082,2.323,6.547,4.139,10.788,6.783c-17.869,1.984-31.369-6.332-46.042-14.688
	c2.169,10.788,4.203,20.367,5.97,29.995c0.588,3.205,2.3,4.727,5.176,5.954c42.597,18.184,87.166,26.606,133.338,26.938
	c39.658,0.284,77.898-7.27,114.576-22.22c16.518-6.731,30.623-16.905,39.703-32.845c4.561-8.006,6.125-16.523,3.553-25.528
	c-2.285-8.007-5.297-15.858-6.889-23.994c-1.08-5.521-1.404-11.702-0.057-17.083c3.074-12.254,7.436-24.182,11.166-36.275
	c1.117-3.622,1.881-7.354,2.928-11.509c-5.213,6.822-9.98,13.063-14.748,19.302c2.432-15.367-0.758-29.298-5.756-43.655
	c-0.729,0.971-1.066,1.211-1.072,1.461c-0.033,1.163,0.057,2.328,0.047,3.492c-0.242,25.309-2.684,50.246-12.367,73.981
	c-3.568,8.751-8.25,16.772-15.459,23.019c-8.572,7.425-17.441,6.304-22.928-3.568c-3.43-6.169-6.193-12.987-7.758-19.854
	c-3.799-16.66-2.389-33.56,0.316-50.207c3.139-19.312,8.107-38.241,19.156-54.758c12.82-19.159,38.381-19.699,51.891-0.979
	c4.498,6.236,7.234,13.775,10.52,20.841c1.334,2.869,1.977,6.058,3.09,9.596c0.512-0.961,0.74-1.229,0.805-1.532
	c6.646-31.122,0.678-60.931-9.607-90.236c-0.449-1.284-2.58-2.737-3.988-2.801c-8.293-0.375-16.604-0.374-24.91-0.476
	c-4.563-0.055-6.828,2.062-8.338,6.615c-5.828,17.567-14.244,33.75-27.539,47.003c-6.709,6.688-16.385,12.44-22.383,13.328
	c8.191-8.667,13.338-18.868,15.936-31.65c-1.496,1.661-2.234,2.492-2.986,3.313c-10.488,11.462-21.658,22.078-38.285,22.95
	c-7.584,0.396-15.244-0.729-22.873-1.122c-3.545-0.184-4.457-1.609-4.275-5.397c0.508-10.624,0.355-21.286,0.242-31.931
	c-0.023-2.197-1.006-4.385-1.549-6.577l-0.789,0.275C319.546,226.085,317.599,235.242,315.654,244.399 M387.277,486.463
	c-12.703,10.978-26.113,19.776-41.543,25.053c-15.496,5.299-31.238,7.939-47.484,4.385c11.273-4.475,16.814-9.679,17.941-16.833
	c-21.324-1.028-42.704-2.061-63.967-3.087c0.072,0.102,0.203,0.494,0.451,0.592c28.539,11.24,43.604,35.607,57.897,60.36
	c4.936,8.55,7.775,18.358,11.186,27.731c5.281,14.52,9.938,29.271,15.436,43.704c3.158,8.293,6.449,16.885,11.58,23.964
	c3.775,5.213,10.945,7.832,16.004,12.288c3.729,3.283,7.723,3.082,11.643,2.27c7.629-1.585,15.094-3.95,22.662-5.851
	c19.982-5.016,39.984-9.946,59.975-14.929c5.82-1.45,11.617-3.001,17.445-4.42c3.279-0.798,4.801-2.465,5.264-6.115
	c1.65-13.016,3.785-25.97,5.74-38.945c0.891-5.91,1.801-11.818,2.682-17.73c2.176-14.637,4.387-29.27,6.494-43.917
	c1.609-11.183,3.082-22.386,4.617-33.58c-0.428-0.177-0.855-0.353-1.283-0.527c-7.971,16.67-18.553,31.256-33.9,41.666
	c-15.371,10.423-31.949,17.285-51.381,14.865c29.152-15.021,32.162-42.585,34.74-70.528c-10.188,12.692-22.641,22.178-37.479,28.377
	c-14.695,6.139-29.736,9.698-46.648,4.889C383.007,511.656,387.511,504.714,387.277,486.463 M170.866,691.846l2.654-116.926
	l0.912-0.096l0.885,7.455c1.02-1.856,1.485-2.491,1.74-3.202c3.309-9.207,2.685-18.571,1.457-28.061
	c-0.507-3.925-2.452-5.212-5.899-6.083c-8.858-2.236-17.654-4.729-26.426-7.293c-4.303-1.256-8.495-2.891-13.561-4.638
	c-12.716,11.856-22.276,27.113-23.278,46.084c-1.079,20.425-0.924,40.935-0.708,61.4c0.197,18.635,0.92,37.275,1.964,55.883
	c0.521,9.267,1.489,18.785,6.834,26.787c2.579,3.861,5.896,8.249,9.916,9.956c18.8,7.979,37.993,15.028,56.977,22.584
	c6.703,2.668,13.046,6.325,19.87,8.567c3.438,1.129,8.312,1.422,11.262-0.211c7.044-3.897,13.079-3.787,19.299,1.063
	c1.7,1.327,3.744,2.237,5.359,3.647c7.21,6.292,15.787,8.308,25.023,7.974c11.869-0.43,17.104-9.684,12.474-20.423
	c-4.021-9.324-10.533-15.819-19.032-20.926c-12.461-7.484-24.83-9.99-37.928-1.373c-1.89,1.243-5.077,0.513-7.665,0.695l-0.348-1.61
	c2.446-1.848,4.893-3.694,7.938-5.995c-6.212-4.728-12.076-9.791-18.522-13.951c-8.796-5.676-17.977-10.77-27.138-15.852
	c-1.728-0.958-4.142-0.654-6.228-1.004c-1.148-0.192-2.273-0.53-3.408-0.804c0.857-0.955,1.594-2.079,2.612-2.811
	C168.648,692.154,169.766,692.135,170.866,691.846 M228.503,719.094l0.334,2.146c2.508,0.149,5.016,0.301,7.522,0.452
	c11.214,0.688,22.438,1.969,31.365,9.479c4.63,3.894,7.878,9.393,12.075,13.859c1.429,1.521,4.271,3.411,5.757,2.932
	c31.648-10.234,63.199-20.775,94.758-31.291c1.43-0.478,2.752-1.277,4.428-2.07c-8.402-6.415-14.102-6.146-23.256-0.052
	c-1.92,1.278-5.498,2.396-7.068,1.471c-6.809-4.01-12.928-8.95-12.775-18.086c0.061-3.615,0.01-7.231,0.01-11.702L228.503,719.094z
	 M-56.443,541.655l-0.461-1.069c-7.655,2.378-15.253,4.965-22.979,7.089c-14.958,4.114-23.542,17.563-24.173,31.978
	c-1.032,23.571,3.428,46.648,6.191,69.868c0.874,7.347,2.779,14.592,4.607,21.783c0.353,1.388,2.892,3.519,3.838,3.249
	c7.502-2.133,14.941-4.565,22.202-7.411c1.436-0.563,2.939-3.353,2.838-5.019c-0.422-6.948-1.455-13.859-2.247-20.786
	c-2.445-21.378-5.446-42.714-7.111-64.151c-0.993-12.785,2.25-24.78,14.1-32.542C-58.436,543.855-57.501,542.66-56.443,541.655
	 M407.953,706.212c3.574-1.163,6.82-2.459,10.184-3.261c6.117-1.456,12.34-3.83,18.455-3.649c12.891,0.379,25.756,2.018,38.6,3.422
	c7.547,0.825,15.033,2.192,22.547,3.315c-4.797-5.352-10.514-8.521-17.303-9.949c-1.465-0.311-3.355-1.951-3.73-3.336
	c-0.676-2.492-0.656-5.285-0.393-7.898c0.916-9.095,2.078-18.165,3.107-27.249c0.191-1.696,0.195-3.414,0.314-5.655
	c-29.621,7.023-58.424,13.854-87.371,20.719c3.596,4.778,8.174,9.263,10.725,14.696
	C405.685,692.901,406.287,699.373,407.953,706.212 M192.999,503.25c9.273,16.546,13.265,34.206,16.572,52.021
	c0.846,4.558,1.96,6.31,6.969,5.345c6.828-1.315,13.819-2.051,20.772-2.394c10.954-0.541,21.934-0.528,32.902-0.789
	c6.206-0.146,7.334-1.511,5.982-7.669c-1.28-5.834-3.281-11.545-4.126-17.431c-1.149-8.016-5.868-12.5-13.081-14.545
	c-3.762-1.065-7.854-0.969-11.797-1.396c-12.987-1.407-26.354-0.379-38.75-5.604C203.173,508.568,198.14,505.781,192.999,503.25
	 M497.861,691.572c0.238-2.256,0.457-4.531,0.725-6.803c6.672-56.383,13.053-112.803,20.148-169.132
	c3.621-28.732,8.49-57.309,12.906-85.938c0.543-3.513,0.295-5.62-3.967-6.133c-4.113-0.495-5.391,1.441-5.859,4.889
	c-0.607,4.451-1.273,8.896-1.932,13.34c-7.176,48.591-14.492,97.16-21.486,145.777c-4.313,29.986-8.168,60.04-12.166,90.071
	C484.937,687.365,487.707,690.723,497.861,691.572 M770.257,408.405l0.492-1.738c-2.221-1.434-4.279-3.575-6.701-4.131
	c-3.5-0.804-7.268-0.65-10.914-0.571c-64.336,1.41-128.369,7.283-192.398,13.187c-3.965,0.365-7.893,1.151-12.584,1.854
	c16.094,13.707,16.094,13.706,35.658,11.985c1.99-0.175,3.988-0.301,5.975-0.519c53.303-5.853,106.605-11.704,159.904-17.582
	C756.554,410.131,763.4,409.236,770.257,408.405 M636.314,744.187c0.18-1.134,0.361-1.933,0.43-2.742
	c2.432-29.378,4.684-58.771,7.318-88.132c2.994-33.344,6.172-66.673,9.6-99.974c1.314-12.78,3.523-14.696,15.953-17.41
	c8.094-1.769,16.191-3.508,24.256-5.253c-0.756-5.916-4.568-9.304-10.191-8.603c-5.938,0.739-11.84,1.9-17.684,3.206
	c-19.607,4.383-19.957,4.401-22.055,24.531c-2.83,27.161-5.246,54.371-7.455,81.591c-2.814,34.693-5.295,69.414-7.803,104.132
	C628.177,742.531,628.824,743.034,636.314,744.187 M679.66,725.838c8.939,1.235,17.543,1.58,25.674,3.715
	c20.381,5.351,39.361,3.117,57.504-7.719c3.271-1.953,6.576-4.003,5.945-7.563c-0.361-2.053-4.182-3.503-6.467-5.193
	c-0.244-0.181-0.643-0.149-0.967-0.22c-20.344-4.325-40.678-8.689-61.035-12.948c-5.641-1.181-11.348-2.043-17.238-3.089
	L679.66,725.838z M538.843,201.679c2.572-56.052-14.113-106.858-43.178-153.81c-29.43-47.54-71.393-80.849-122.498-103.115
	C471.867,2.417,524.388,89.732,538.843,201.679 M366.078,781.543c-1.152,2.379-1.625,5.477-3.174,6.168
	c-5.441,2.43-11.279,5.577-16.918,5.482c-4.982-0.084-8.531,1.926-12.709,3.195c-2.771,0.843-5.828,1.35-8.693,1.138
	c-4.129-0.305-8.178-1.557-12.297-2.128c-16.644-2.309-33.344-4.235-49.933-6.87c-8.104-1.286-16.747-2.448-23.766-6.229
	c-5.386-2.902-8.14-1.748-12.656,1.205c2.297,0.523,3.859,0.939,5.444,1.233c30.784,5.703,61.65,11.005,92.313,17.296
	c10.723,2.199,20.217,0.732,30.133-3.016c31.936-12.073,64.041-23.696,96.047-35.585c23.57-8.766,47.111-17.61,70.621-26.536
	c3.313-1.257,6.404-3.091,9.598-4.658l-0.227-1.553c-6.383-1.065-12.766-2.132-19.973-3.336
	c1.629,10.093-5.955,11.539-11.832,12.845c-6.002,1.334-12.529,0.295-19.152,0.295c0.133,7.995-7.639,8.271-13.146,10.003
	c-5.879,1.85-12.359,1.776-19.109,2.608c-0.461,0.959-0.98,4.267-2.49,4.805c-7.697,2.745-14.988,7.647-22.799,5.874
	c-9.627,7.378-18.947,12.146-30.555,6.949C388.753,779.019,378.21,783.405,366.078,781.543 M54.946,335.474
	c-14.46,1.516-27.204,22.798-26.074,44.225c1.02,19.354,15.525,38.969,33.466,40.308L54.946,335.474z M297.47,553.421l-1.254,0.604
	c0.97,4.646,2.059,9.271,2.889,13.942c3.658,20.579,7.205,41.179,10.877,61.757c1.537,8.63,2.586,17.416,9.588,23.979
	c7.395,6.933,14.479,14.19,21.773,21.23c1.012,0.976,2.445,1.513,3.33,2.042l9.672-7.313c-1.48-1.201-2.531-2.277-3.779-3.029
	c-8.375-5.044-13.531-12.446-16.725-21.588c-5.244-15.017-10.764-29.936-16.254-44.863c-3.668-9.978-7.236-20.004-11.334-29.808
	C303.808,564.522,300.429,559.058,297.47,553.421 M348.023,695.553c1.643,2.996,2.74,6.535,5.057,8.861
	c3.559,3.578,7.607,1.819,11.262-0.693c1.367-0.94,2.822-1.759,4.273-2.568c5.906-3.299,9.17-2.727,14.516,1.377
	c2.688,2.063,5.945,3.799,9.211,4.595c6.24,1.521,9.76-2.141,8.814-8.448c-2.689-17.949-19.469-28.732-36.791-23.646
	C352.146,678.619,349.533,682.048,348.023,695.553 M285.303,180.833l-3.133-59.389l-27.314,54.55L285.303,180.833z M440.101,137.26
	l-0.811,0.363l-7.092,53.775h27.502L440.101,137.26z M616.726,740.832l-38.344,17.148c0.145,0.709,0.291,1.418,0.436,2.126
	l57.15,8.53l0.498-1.198C625.71,762.056,615.824,756.005,616.726,740.832 M339.777,740.587l-0.096,1.714
	c3.822,0.413,8.084,2.141,11.396,1.028c23.449-7.869,46.705-16.32,70.002-24.581c-2.936-2.049-6.309-3.597-10.564-2.173
	c-18.602,6.227-37.232,12.357-55.832,18.594C349.671,736.848,344.744,738.774,339.777,740.587 M360.242,770.002
	c-11.789-6.717-22.799-4.672-33.371,2.448C338.47,778.051,349.533,777.23,360.242,770.002 M298.855,767.477
	c5.93,1.208,10.773,2.255,15.648,3.146c1.252,0.229,2.82,0.392,3.859-0.15c4.664-2.431,9.188-5.128,13.445-7.548
	C320.441,755.816,310.015,760.125,298.855,767.477 M445.015,732.239c11.336,5.244,21.141,2.029,31.717-5.108
	c-6.15-1.151-11.525-3.57-16.273-2.674C455.068,725.474,450.24,729.461,445.015,732.239 M444.015,739.549
	c-12.785-5.247-22.371-4.145-30.789,3.176C423.859,748.299,433.748,745.214,444.015,739.549 M417.964,726.838
	c11.662,5.224,23.865,3.804,30.617-2.806C437.951,716.26,428.205,722.091,417.964,726.838 M415.181,748.998
	c-10.596-5.687-20.398-3.784-29.963,2.124C395.632,755.921,405.708,757.43,415.181,748.998 M385.304,758.671
	c-10.49-7.197-20.162-3.119-30.217,2.641C370.56,766.135,376.531,765.525,385.304,758.671 M506.808,717.901
	c-10.875-4.646-23-2.913-28.146,3.442C488.509,726.791,497.587,723.924,506.808,717.901 M314.527,788.576
	c9.773,6.183,17.592,1.792,25.576-3.796C330.492,779.338,322.421,782.128,314.527,788.576 M417.187,734.055
	c-9.961-6.133-19.248-2.91-28.41,2.466C398.81,740.565,408.392,740.118,417.187,734.055 M331.076,755.981
	c10.195,6.283,18.865,2.438,27.541-2.34C348.763,746.98,340.226,752.135,331.076,755.981 M479.367,713.689
	c-12.695-4.082-21.861-2.742-26.271,3.434C462.119,719.908,471.335,721.728,479.367,713.689 M336.642,747.834
	c-9.645-6.128-18.152-1.678-26.869,2.333C319.736,758.356,327.972,750.905,336.642,747.834 M387.468,742.831
	c-9.898-4.231-18.164-1.023-26.242,3.563C370.828,752.741,378.949,748.116,387.468,742.831 M278.08,783.253
	c11.519,3.059,12.801,2.697,22.404-6.053C291.426,772.057,284.623,776.688,278.08,783.253 M425.523,712.517
	c11.189,4.62,18.852,3.931,24.125-2.175C441.357,708.291,432.964,705.137,425.523,712.517 M296.012,785.527
	c10.984,3.246,15.722,2.277,22.613-4.406C310.421,776.806,305.003,777.803,296.012,785.527 M293.771,763.739
	c4.539-2.287,8.621-4.345,12.703-6.4c-5.457-1.106-10.448-5.104-15.558-1.501L293.771,763.739z M170.21,474.5l-1.217,1.253
	l4.259,13.571l1.706,0.162c1.398-3.22,4.476-6.938,3.71-9.515C177.94,477.527,173.19,476.277,170.21,474.5"/>
<path d="M665.246,345.825c-2.332,0.899-3.789,1.765-5.344,2.011c-8.479,1.342-11.936,4.97-12.643,13.606
	c-0.246,2.982-0.287,5.989-0.678,8.951c-0.219,1.668-0.961,3.268-1.467,4.897l-2,0.353c-0.938-2.517-2.453-4.978-2.701-7.56
	c-0.691-7.172-3.475-13.055-10.105-16.048c-3.621-1.634-7.918-1.765-11.906-2.589c-1.992-0.411-3.979-0.857-5.967-1.288l-0.17-1.771
	c3.879-1.206,7.689-2.734,11.646-3.558c12.24-2.544,12.85-8.548,14.684-17.826c0.928-4.684,0.654-9.594,1.27-14.356
	c0.174-1.34,1.566-2.523,2.4-3.778c0.982,1.183,2.486,2.224,2.848,3.571c1.029,3.839,1.596,7.802,2.34,11.717
	c1.762,9.275,4.516,17.823,14.885,21.053C663.175,343.472,663.783,344.475,665.246,345.825 M649.146,344.022l-5.359-9.711
	l-9.021,11.818l7.424,6.799L649.146,344.022z M599.212,259.336c1.25-0.88,2.402-2.321,3.762-2.551
	c12.373-2.081,16.324-10.169,16.652-22.332c0.105-3.809,0.23-7.643,0.785-11.398c0.201-1.366,1.682-2.543,2.578-3.807
	c0.926,1.212,2.393,2.311,2.68,3.658c0.938,4.38,1.635,8.832,2.074,13.291c0.986,10.007,5.779,16.728,15.807,19.262
	c1.281,0.323,2.508,0.882,3.73,1.4c0.42,0.179,0.752,0.567,1.73,1.338c-5.881,4.065-14.855,2.798-17.881,10.335
	c-2.602,6.48-4.432,13.271-7.041,21.269c-1.113-2.693-2.078-4.426-2.545-6.281c-1.014-4.022-1.445-8.215-2.711-12.146
	c-2.051-6.364-6.393-9.069-13.182-9.239c-2.039-0.052-4.063-0.737-6.094-1.134L599.212,259.336z M631.933,257.442
	c-2.609-2.915-5.438-6.07-8.256-9.218l-7.213,9.563l7.428,8.977C626.843,263.343,629.527,260.23,631.933,257.442 M585.021,296.927
	c4.127,7.863,2.561,19.854,15.813,21.104l-0.902,1.494c-1.268,0.369-2.512,0.889-3.807,1.081c-6.432,0.957-7.361,2.185-7.418,8.763
	c-0.021,2.418-0.82,4.829-1.266,7.243l-1.986,0.172c-1.734-4.228-2.48-9.471-5.484-12.388c-2.836-2.752-8.047-3.057-12.215-4.438
	l-0.061-1.35c1.654-0.888,3.227-2.032,4.982-2.616c6.398-2.128,8.373-4.563,9.137-11.362c0.279-2.479,0.939-4.915,1.428-7.37
	C583.835,297.15,584.429,297.039,585.021,296.927"/>
<path fill="#FFFFFF" d="M315.654,244.399l5.838-27.472l0.791-0.275c0.541,2.192,1.523,4.38,1.549,6.577
	c0.113,10.645,0.266,21.307-0.244,31.931c-0.18,3.788,0.73,5.215,4.275,5.397c7.629,0.394,15.291,1.52,22.873,1.122
	c16.629-0.872,27.799-11.488,38.287-22.95c0.75-0.821,1.488-1.652,2.986-3.313c-2.598,12.782-7.744,22.983-15.938,31.649
	c6-0.887,15.676-6.641,22.385-13.327c13.295-13.253,21.711-29.436,27.539-47.003c1.51-4.555,3.775-6.67,8.338-6.615
	c8.307,0.102,16.617,0.101,24.91,0.476c1.408,0.063,3.539,1.517,3.988,2.801c10.285,29.307,16.256,59.114,9.607,90.235
	c-0.064,0.305-0.293,0.572-0.805,1.533c-1.113-3.538-1.756-6.727-3.09-9.596c-3.283-7.064-6.021-14.604-10.52-20.841
	c-13.51-18.723-39.068-18.183-51.891,0.979c-11.049,16.517-16.02,35.446-19.156,54.757c-2.705,16.648-4.115,33.548-0.316,50.208
	c1.563,6.867,4.328,13.687,7.758,19.854c5.486,9.872,14.355,10.993,22.928,3.568c7.209-6.245,11.891-14.268,15.459-23.019
	c9.686-23.736,12.125-48.674,12.367-73.981c0.01-1.164-0.08-2.329-0.047-3.492c0.006-0.25,0.344-0.49,1.072-1.461
	c4.998,14.357,8.188,28.288,5.756,43.655c4.768-6.238,9.535-12.479,14.748-19.302c-1.047,4.154-1.811,7.886-2.928,11.509
	c-3.73,12.095-8.092,24.021-11.166,36.275c-1.35,5.381-1.023,11.562,0.057,17.083c1.592,8.136,4.604,15.987,6.889,23.994
	c2.572,9.005,1.008,17.522-3.553,25.528c-9.08,15.938-23.188,26.111-39.703,32.845c-36.678,14.95-74.918,22.504-114.576,22.22
	c-46.172-0.33-90.742-8.754-133.338-26.938c-2.876-1.229-4.588-2.749-5.176-5.954c-1.767-9.628-3.801-19.207-5.97-29.995
	c14.673,8.354,28.173,16.672,46.042,14.687c-4.241-2.645-7.706-4.46-10.788-6.782c-16.315-12.304-24.5-29.995-31.161-48.451
	c-8.105-22.456-9.299-45.917-8.797-69.529c0.016-0.749,0.236-1.493,0.433-2.667c3.871,6.82,7.481,13.181,11.093,19.541
	c0.473-0.052,0.945-0.103,1.418-0.153c-1.24-17.093,9.417-28.271,19.502-39.871c-1.359,6.333-2.889,12.637-4.046,19.006
	c-4.125,22.694-3.24,45.023,7.75,65.742c3.795,7.153,9.226,14.218,15.621,19.063c16.302,12.349,36.221,9.094,49.455-6.628
	c10.836-12.873,15.377-28.338,17.696-44.466c3.362-23.388,3.55-47.021-1.271-70.102c-3.332-15.955-11.833-29.888-29.436-33.926
	c-11.913-2.732-23.887-0.575-35.276,3.992c-21.709,8.705-37.753,23.965-50.141,43.437l-2.413,3.79
	c0-6.936,0.246-13.438-0.072-19.914c-0.291-5.92,2.267-8.963,7.512-11.765c32.149-17.168,59.78-39.909,82.146-68.798
	c2.552-3.297,5.239-4.823,9.271-4.09c10.79,1.961,21.588,3.884,32.374,5.867c2.92,0.537,4.221,2.346,5.04,5.317
	c3.768,13.677,8.081,27.196,16.39,38.954c2.354,3.333,5.311,6.242,7.988,9.346L315.654,244.399z"/>
<path fill="#FFFFFF" d="M182.417,397.333c-1.331,6.247,2.975,15.217,8.632,17.978C191.154,410.434,185.233,398.101,182.417,397.333
	 M447.394,415.24l1.449-0.823c-0.605-6.199-7.768-16.397-13.014-17.375L447.394,415.24z M431.521,397.698l-2.539,1.319l9.48,18.079
	l2.459-1.278L431.521,397.698z M328.376,448.187c2.035,1.782,3.199,2.805,4.363,3.826c1.496-2.268,3.275-4.416,4.289-6.88
	c0.254-0.623-1.941-2.252-3.014-3.419L328.376,448.187z M206.794,415.631l1.513-0.991l-10.914-16.638l-1.688,1.107
	C197.654,405.765,202.167,410.736,206.794,415.631 M433.462,415.868l1.469-0.843c-2.777-4.853-5.553-9.706-8.33-14.56
	C425.08,406.409,427.707,411.208,433.462,415.868 M446.146,395.5l-2.303,1.283l9.605,17.383l2.238-1.248
	C452.507,407.111,449.328,401.305,446.146,395.5 M189.729,400.106l-1.901,1.271l9.714,15.037l2.119-1.418L189.729,400.106z
	 M180.211,412.634l2.443-1.208l-7.398-14.021l-2.343,1.217L180.211,412.634z M170.866,691.846c-1.101,0.288-2.218,0.308-2.964,0.843
	c-1.019,0.73-1.755,1.854-2.612,2.811c1.135,0.272,2.26,0.61,3.408,0.804c2.086,0.35,4.5,0.046,6.228,1.004
	c9.161,5.082,18.342,10.176,27.138,15.852c6.446,4.16,12.311,9.225,18.522,13.951l-7.938,5.995l0.348,1.61
	c2.588-0.184,5.775,0.548,7.665-0.695c13.098-8.617,25.467-6.111,37.928,1.373c8.499,5.104,15.011,11.602,19.032,20.926
	c4.631,10.739-0.604,19.993-12.474,20.423c-9.236,0.334-17.813-1.682-25.023-7.974c-1.615-1.41-3.659-2.32-5.359-3.647
	c-6.22-4.851-12.255-4.961-19.299-1.063c-2.95,1.633-7.824,1.34-11.262,0.211c-6.824-2.242-13.167-5.899-19.87-8.567
	c-18.983-7.556-38.177-14.604-56.977-22.584c-4.02-1.707-7.337-6.095-9.916-9.956c-5.345-8.002-6.313-17.521-6.834-26.787
	c-1.044-18.606-1.767-37.248-1.964-55.883c-0.216-20.467-0.371-40.977,0.708-61.4c1.002-18.971,10.563-34.228,23.278-46.084
	c5.065,1.747,9.258,3.382,13.561,4.638c8.771,2.563,17.567,5.057,26.426,7.293c3.447,0.871,5.393,2.158,5.899,6.083
	c1.228,9.488,1.852,18.854-1.457,28.061c-0.255,0.711-0.721,1.346-1.74,3.202l-0.885-7.455l-0.912,0.096L170.866,691.846z"/>
<path fill="#FFFFFF" d="M228.503,719.094l113.149-32.863c0,4.47,0.049,8.087-0.012,11.702c-0.15,9.136,5.969,14.076,12.777,18.086
	c1.568,0.925,5.146-0.192,7.068-1.471c9.154-6.095,14.852-6.363,23.256,0.052c-1.676,0.793-2.998,1.594-4.43,2.07
	c-31.559,10.516-63.107,21.057-94.757,31.291c-1.485,0.479-4.328-1.41-5.757-2.932c-4.197-4.468-7.445-9.967-12.075-13.859
	c-8.928-7.51-20.151-8.791-31.365-9.479c-2.507-0.152-5.015-0.303-7.522-0.452L228.503,719.094z M-56.443,541.655
	c-1.058,1.005-1.992,2.2-3.193,2.987c-11.851,7.762-15.093,19.757-14.1,32.542c1.665,21.438,4.666,42.772,7.111,64.151
	c0.792,6.927,1.824,13.838,2.247,20.785c0.101,1.667-1.402,4.456-2.838,5.02c-7.261,2.846-14.699,5.278-22.202,7.411
	c-0.946,0.27-3.485-1.861-3.838-3.249c-1.829-7.191-3.733-14.438-4.607-21.783c-2.764-23.22-7.224-46.297-6.191-69.868
	c0.631-14.415,9.215-27.862,24.173-31.978c7.725-2.124,15.323-4.711,22.979-7.09L-56.443,541.655z M407.953,706.212
	c-1.666-6.84-2.268-13.312-4.865-18.847c-2.551-5.435-7.129-9.918-10.725-14.697l87.371-20.718
	c-0.119,2.241-0.123,3.959-0.314,5.655c-1.029,9.084-2.191,18.154-3.107,27.249c-0.264,2.613-0.283,5.406,0.393,7.898
	c0.375,1.385,2.268,3.025,3.73,3.336c6.789,1.43,12.506,4.599,17.303,9.949c-7.514-1.124-15-2.49-22.547-3.315
	c-12.844-1.404-25.709-3.043-38.6-3.422c-6.115-0.181-12.338,2.193-18.455,3.649C414.773,703.753,411.527,705.049,407.953,706.212
	 M192.999,503.25c5.141,2.531,10.174,5.318,15.444,7.54c12.396,5.227,25.763,4.197,38.75,5.604
	c3.943,0.427,8.035,0.329,11.797,1.396c7.213,2.044,11.932,6.529,13.081,14.544c0.845,5.887,2.846,11.598,4.126,17.432
	c1.352,6.158,0.224,7.521-5.982,7.669c-10.969,0.261-21.948,0.248-32.902,0.789c-6.953,0.343-13.944,1.077-20.772,2.394
	c-5.009,0.965-6.123-0.787-6.969-5.345C206.264,537.457,202.272,519.795,192.999,503.25"/>
<path fill="#FFFFFF" d="M497.861,691.572c-10.154-0.849-12.926-4.207-11.629-13.928c3.996-30.031,7.852-60.085,12.164-90.071
	c6.994-48.616,14.311-97.188,21.486-145.777c0.656-4.444,1.324-8.889,1.932-13.339c0.471-3.447,1.746-5.385,5.859-4.89
	c4.262,0.513,4.51,2.62,3.967,6.133c-4.416,28.63-9.285,57.205-12.906,85.938c-7.098,56.329-13.477,112.749-20.148,169.132
	C498.318,687.041,498.099,689.316,497.861,691.572 M770.257,408.405c-6.855,0.831-13.703,1.727-20.566,2.483
	c-53.301,5.878-106.604,11.729-159.906,17.582c-1.986,0.218-3.982,0.344-5.973,0.519c-19.566,1.721-19.566,1.722-35.66-11.985
	c4.691-0.701,8.619-1.487,12.584-1.854c64.029-5.902,128.063-11.775,192.398-13.187c3.646-0.079,7.414-0.231,10.914,0.571
	c2.422,0.556,4.48,2.697,6.701,4.131L770.257,408.405z M636.314,744.187c-7.49-1.153-8.137-1.656-7.631-8.652
	c2.508-34.718,4.986-69.438,7.803-104.132c2.209-27.22,4.625-54.43,7.455-81.591c2.098-20.13,2.445-20.148,22.055-24.531
	c5.844-1.306,11.746-2.467,17.684-3.206c5.623-0.7,9.438,2.687,10.191,8.603c-8.064,1.745-16.162,3.484-24.256,5.253
	c-12.43,2.714-14.639,4.63-15.953,17.41c-3.428,33.301-6.605,66.63-9.6,99.974c-2.637,29.359-4.889,58.754-7.318,88.132
	C636.675,742.255,636.494,743.053,636.314,744.187 M679.66,725.838l3.416-33.017c5.893,1.046,11.6,1.908,17.238,3.088
	c20.357,4.259,40.691,8.624,61.035,12.949c0.324,0.069,0.723,0.039,0.967,0.219c2.285,1.691,6.104,3.143,6.467,5.194
	c0.631,3.559-2.676,5.607-5.945,7.562c-18.143,10.837-37.123,13.069-57.504,7.72C697.203,727.417,688.601,727.074,679.66,725.838
	 M538.843,201.679C524.388,89.732,471.867,2.417,373.167-55.245C424.273-32.978,466.236,0.33,495.666,47.87
	C524.73,94.821,541.416,145.628,538.843,201.679 M366.078,781.543c12.133,1.862,22.676-2.522,24.727-10.813
	c11.607,5.195,20.928,0.429,30.557-6.949c7.811,1.773,15.102-3.129,22.799-5.874c1.508-0.538,2.029-3.846,2.49-4.805
	c6.748-0.832,13.23-0.76,19.107-2.608c5.51-1.731,13.279-2.008,13.146-10.003c6.625,0,13.152,1.039,19.154-0.295
	c5.875-1.306,13.459-2.752,11.832-12.845c7.205,1.204,13.59,2.271,19.973,3.336l0.227,1.553c-3.193,1.567-6.287,3.401-9.6,4.658
	c-23.51,8.926-47.049,17.771-70.619,26.536c-32.006,11.889-64.111,23.512-96.049,35.585c-9.916,3.748-19.41,5.215-30.131,3.016
	c-30.664-6.291-61.53-11.593-92.314-17.296c-1.585-0.294-3.147-0.71-5.444-1.233c4.517-2.953,7.271-4.107,12.656-1.205
	c7.019,3.782,15.662,4.943,23.766,6.229c16.589,2.635,33.289,4.563,49.932,6.87c4.121,0.571,8.17,1.823,12.297,2.128
	c2.865,0.212,5.922-0.295,8.693-1.138c4.18-1.271,7.729-3.279,12.709-3.195c5.639,0.095,11.477-3.054,16.92-5.482
	C364.453,787.018,364.925,783.921,366.078,781.543 M54.946,335.474l7.392,84.531c-17.941-1.339-32.446-20.954-33.466-40.308
	C27.743,358.272,40.486,336.99,54.946,335.474 M297.47,553.421c2.959,5.638,6.338,11.102,8.783,16.953
	c4.098,9.804,7.666,19.83,11.334,29.808c5.49,14.929,11.01,29.848,16.254,44.863c3.191,9.142,8.35,16.544,16.725,21.588
	c1.248,0.752,2.299,1.828,3.779,3.029l-9.672,7.313c-0.885-0.529-2.318-1.066-3.33-2.042c-7.295-7.04-14.381-14.299-21.773-21.23
	c-7.002-6.563-8.051-15.349-9.588-23.979c-3.672-20.578-7.219-41.178-10.877-61.757c-0.83-4.671-1.919-9.297-2.889-13.942
	L297.47,553.421z M348.023,695.553c1.51-13.506,4.123-16.936,16.342-20.522c17.322-5.088,34.102,5.695,36.791,23.646
	c0.943,6.309-2.574,9.969-8.814,8.448c-3.266-0.796-6.523-2.532-9.211-4.595c-5.346-4.104-8.607-4.676-14.516-1.377
	c-1.451,0.811-2.906,1.628-4.273,2.568c-3.652,2.514-7.703,4.271-11.262,0.693C350.763,702.089,349.666,698.55,348.023,695.553
	 M285.303,180.833l-30.447-4.839l27.314-54.55L285.303,180.833z M440.101,137.26l19.6,54.14h-27.5l7.092-53.775L440.101,137.26z
	 M616.726,740.832c-0.9,15.174,8.984,21.226,19.74,26.606l-0.498,1.198l-57.15-8.53c-0.145-0.708-0.291-1.417-0.436-2.126
	L616.726,740.832z M339.777,740.587c4.967-1.813,9.895-3.738,14.906-5.419c18.598-6.234,37.23-12.366,55.832-18.593
	c4.256-1.424,7.629,0.124,10.563,2.173c-23.297,8.261-46.551,16.711-70.002,24.581c-3.311,1.111-7.572-0.616-11.395-1.028
	C339.714,741.729,339.746,741.158,339.777,740.587"/>
<path fill="#FFFFFF" d="M360.242,770.002c-10.709,7.229-21.771,8.049-33.371,2.448C337.443,765.33,348.453,763.286,360.242,770.002
	 M298.855,767.477c11.16-7.354,21.586-11.661,32.953-4.554c-4.256,2.42-8.781,5.116-13.443,7.548
	c-1.041,0.542-2.607,0.38-3.861,0.149C309.628,769.732,304.783,768.685,298.855,767.477 M445.015,732.239
	c5.227-2.777,10.055-6.765,15.441-7.783c4.75-0.896,10.123,1.522,16.273,2.675C466.154,734.268,456.351,737.483,445.015,732.239
	 M444.015,739.549c-10.268,5.665-20.154,8.75-30.789,3.176C421.644,735.405,431.228,734.302,444.015,739.549 M417.964,726.838
	c10.24-4.747,19.986-10.577,30.617-2.806C441.83,730.641,429.626,732.061,417.964,726.838 M415.181,748.997
	c-9.473,8.435-19.549,6.925-29.963,2.124C394.781,745.213,404.585,743.311,415.181,748.997 M385.304,758.671
	c-8.771,6.854-14.744,7.465-30.217,2.641C365.142,755.552,374.814,751.473,385.304,758.671 M506.808,717.901
	c-9.221,6.022-18.299,8.889-28.146,3.442C483.808,714.988,495.933,713.255,506.808,717.901 M314.527,788.576
	c7.895-6.447,15.965-9.237,25.574-3.796C332.119,790.368,324.302,794.758,314.527,788.576 M417.185,734.055
	c-8.793,6.063-18.375,6.51-28.408,2.466C397.939,731.145,407.226,727.923,417.185,734.055 M331.076,755.981
	c9.15-3.846,17.688-9.001,27.541-2.34C349.941,758.42,341.271,762.264,331.076,755.981 M479.367,713.689
	c-8.031,8.039-17.248,6.219-26.271,3.433C457.505,710.947,466.671,709.607,479.367,713.689 M336.642,747.834
	c-8.67,3.07-16.906,10.521-26.869,2.332C318.488,746.157,326.998,741.706,336.642,747.834 M387.468,742.83
	c-8.52,5.286-16.641,9.911-26.242,3.563C369.304,741.806,377.57,738.598,387.468,742.83 M278.08,783.253
	c6.543-6.564,13.346-11.195,22.404-6.053C290.881,785.951,289.599,786.311,278.08,783.253 M425.521,712.511
	c7.443-7.374,15.836-4.222,24.127-2.169C444.375,716.448,436.714,717.137,425.521,712.511 M296.012,785.527
	c8.991-7.724,14.409-8.721,22.612-4.406C311.732,787.804,306.996,788.773,296.012,785.527 M293.771,763.739l-2.854-7.901
	c5.109-3.604,10.102,0.395,15.559,1.501C302.392,759.394,298.31,761.452,293.771,763.739 M649.146,344.022l-6.957,8.906
	l-7.426-6.799l9.021-11.818C645.48,337.378,647.236,340.565,649.146,344.022 M631.933,257.442l-8.041,9.32l-7.428-8.977l7.213-9.563
	C626.496,251.372,629.322,254.527,631.933,257.442"/>
<path d="M182.417,397.333c2.816,0.769,8.737,13.102,8.632,17.978C185.392,412.55,181.086,403.581,182.417,397.333 M447.394,415.24
	l-11.564-18.198c5.246,0.978,12.408,11.176,13.016,17.375L447.394,415.24z M431.521,397.698l9.4,18.12l-2.459,1.278l-9.48-18.079
	L431.521,397.698z M328.376,448.187l5.641-6.473c1.07,1.167,3.268,2.796,3.012,3.419c-1.014,2.464-2.791,4.612-4.287,6.88
	L328.376,448.187z M206.794,415.631c-4.627-4.896-9.14-9.865-11.089-16.521l1.688-1.107l10.914,16.638L206.794,415.631z
	 M433.462,415.868c-5.756-4.659-8.383-9.459-6.861-15.401c2.777,4.854,5.553,9.707,8.33,14.56
	C434.441,415.306,433.951,415.587,433.462,415.868 M446.146,395.5l9.543,17.418l-2.24,1.248l-9.605-17.383L446.146,395.5z
	 M189.729,400.106l9.932,14.89l-2.119,1.418l-9.714-15.037L189.729,400.106z M180.211,412.634l-7.298-14.014l2.343-1.217
	l7.398,14.021C181.84,411.829,181.026,412.232,180.211,412.634"/>
</svg>
