<?xml version="1.0" encoding="utf-8"?>
<!-- Generator: Adobe Illustrator 16.0.3, SVG Export Plug-In . SVG Version: 6.00 Build 0)  -->
<!DOCTYPE svg PUBLIC "-//W3C//DTD SVG 1.1//EN" "http://www.w3.org/Graphics/SVG/1.1/DTD/svg11.dtd">
<svg version="1.1" id="レイヤー_1" xmlns="http://www.w3.org/2000/svg" xmlns:xlink="http://www.w3.org/1999/xlink" x="0px"
	 y="0px" width="647.145px" height="672.943px" viewBox="0 0 647.145 672.943" enable-background="new 0 0 647.145 672.943"
	 xml:space="preserve">
<path fill-rule="evenodd" clip-rule="evenodd" d="M596.24,51.923c-2.362,12.379-4.307,21.969-5.884,31.619
	c-0.188,1.145,1.497,3.646,2.544,3.785c16.884,2.244,33.825,4.073,50.688,6.463c1.483,0.211,3.877,3.984,3.521,5.584
	c-2.572,11.566-5.81,22.981-8.713,34.476c-4.58,18.131-8.961,36.314-13.628,54.424c-2.708,10.51-5.94,20.886-8.7,31.384
	c-3.026,11.508-5.609,23.133-8.699,34.624c-3.582,13.318-7.688,26.498-11.215,39.83c-2.077,7.85-3.239,15.939-5.251,23.809
	c-1.631,6.381-4.115,12.54-5.836,18.901c-1.061,3.924-1.122,8.113-2.111,12.063c-3.201,12.78-6.59,25.515-9.972,38.25
	c-2.846,10.718-5.75,21.421-8.689,32.112c-2.887,10.496-6.046,20.92-8.729,31.467c-3.058,12.011-5.493,24.181-8.62,36.172
	c-3.075,11.795-6.887,23.397-9.982,35.188c-2.71,10.321-4.656,20.844-7.349,31.171c-2.144,8.218-5.151,16.21-7.319,24.422
	c-1.927,7.296-3.016,14.81-4.857,22.131c-2.246,8.925-5.051,17.708-7.325,26.625c-3.166,12.41-6.58,24.793-8.896,37.369
	c-1.576,8.563-5.215,10.676-15.144,8.16c-11.774-2.985-23.815-4.904-35.676-7.578c-13.001-2.931-25.879-6.405-38.896-9.255
	c-11.854-2.595-23.855-4.52-35.733-7.018c-11.45-2.408-22.79-5.336-34.247-7.709c-5.851-1.212-11.892-1.482-17.77-2.587
	c-7.479-1.404-14.861-3.312-22.318-4.843c-15.25-3.133-30.555-6.012-45.777-9.277c-10.463-2.245-20.797-5.09-31.243-7.426
	c-6.319-1.413-12.777-2.204-19.109-3.568c-8.894-1.914-17.698-4.242-26.599-6.114c-5.01-1.055-10.199-1.268-15.194-2.371
	c-5.578-1.232-10.967-3.331-16.551-4.528c-6.749-1.448-13.637-2.228-20.425-3.508c-10.994-2.073-21.959-4.305-32.931-6.495
	c-8.868-1.771-17.684-3.858-26.606-5.285c-7.283-1.165-8.63-4.564-6-10.846c4.965-11.857,8.727-24.222,12.646-36.484
	c0.042-0.129-4.48-2.027-6.985-2.606c-12.439-2.876-24.909-5.621-37.384-8.343c-7.308-1.594-14.735-2.719-21.941-4.672
	c-7.014-1.902-9.099-6.957-5.803-13.54c7.374-14.731,15.396-29.149,22.38-44.058c6.403-13.669,11.74-27.836,17.642-41.742
	c3.7-8.717,7.776-17.279,11.321-26.056c3.735-9.246,7.097-18.646,10.518-28.015c4.821-13.205,9.575-26.436,14.303-39.674
	c3.21-8.986,6.215-18.046,9.517-26.998c3.448-9.348,7.357-18.529,10.661-27.925c2.781-7.911,4.892-16.056,7.465-24.043
	c3.11-9.657,6.483-19.229,9.584-28.889c4.623-14.399,9.152-28.829,13.639-43.271c6.798-21.883,13.813-43.704,20.197-65.708
	c5.903-20.347,10.974-40.934,16.644-61.35c4.147-14.935,8.829-29.721,12.953-44.662c1.81-6.556,7.058-5.604,11.253-5.244
	c19.138,1.648,38.254,3.623,57.332,5.878c16.547,1.957,33.01,4.633,49.55,6.662c32.77,4.019,65.543,8.028,98.363,11.606
	c17.062,1.859,34.253,2.514,51.333,4.232c13.864,1.395,27.637,3.67,41.475,5.357c9.627,1.173,19.326,1.774,28.937,3.059
	c11.916,1.594,23.745,3.853,35.665,5.416c12.014,1.575,24.149,2.296,36.106,4.182C591.562,47.161,594.3,50.562,596.24,51.923z"/>
<path fill-rule="evenodd" clip-rule="evenodd" fill="#FFFFFF" d="M215.546,556.996c-8.658-1.71-17.315-3.42-25.973-5.128
	c-10.546-2.081-21.126-4.003-31.63-6.283c-13.395-2.908-26.726-6.107-40.086-9.177c-11.926-2.741-23.843-5.524-35.784-8.199
	c-15.044-3.369-30.115-6.624-45.164-9.975c-7.9-1.759-15.795-3.551-23.639-5.542c-0.7-0.178-1.693-2.281-1.381-2.911
	c7.574-15.284,15.945-30.205,22.856-45.776c9.438-21.266,17.948-42.951,26.549-64.578c6.716-16.888,13.033-33.937,19.399-50.961
	c5.289-14.143,10.388-28.355,15.576-42.535c6.121-16.728,12.604-33.332,18.271-50.21c5.738-17.088,10.593-34.471,15.981-51.679
	c3.887-12.415,8.185-24.701,11.988-37.141c3.971-12.988,7.504-26.111,11.35-39.139c2.651-8.982,5.718-17.846,8.227-26.865
	c4.001-14.383,7.56-28.89,11.563-43.272c2.744-9.854,5.974-19.572,8.89-29.379c1.552-5.221,2.796-10.536,4.43-15.73
	c0.303-0.965,1.867-2.29,2.735-2.21c14.975,1.382,29.95,2.802,44.887,4.543c11.611,1.354,23.145,3.373,34.758,4.713
	c15.74,1.816,31.548,3.054,47.281,4.932c16.293,1.945,32.498,4.645,48.8,6.502c25.034,2.854,50.125,5.2,75.177,7.907
	c10.676,1.154,21.293,2.849,31.97,3.992c14.542,1.558,29.138,2.619,43.667,4.273c13.799,1.572,27.558,3.52,41.302,5.518
	c8.621,1.253,17.194,2.845,25.751,4.486c0.689,0.133,1.69,1.967,1.515,2.791c-3.671,17.21-7.378,34.414-11.313,51.565
	c-4.342,18.926-8.965,37.788-13.38,56.698c-4.028,17.257-7.937,34.542-11.911,51.813c-4.812,20.908-9.617,41.817-14.463,62.718
	c-3.862,16.662-7.479,33.39-11.748,49.948c-5.242,20.333-11.142,40.496-16.571,60.782c-2.389,8.922-4.077,18.032-6.508,26.941
	c-4.881,17.892-10.003,35.718-15.125,53.543c-3.037,10.573-6.308,21.08-9.398,31.639c-7.214,24.636-14.317,49.304-21.605,73.918
	c-2.346,7.927-5.051,15.753-7.808,23.549c-0.317,0.897-2.176,2.017-3.071,1.831c-19.596-4.047-39.15-8.288-58.723-12.444
	c-30.546-6.487-61.075-13.05-91.657-19.364c-19.679-4.064-39.459-7.638-59.146-11.662c-5.673-1.159-11.182-3.122-16.765-4.717
	C215.594,556.813,215.57,556.904,215.546,556.996z"/>
<path fill-rule="evenodd" clip-rule="evenodd" d="M353.55,124.056c-15.981-1.272-30.246,6.937-34.483,21.86
	c-2.732,9.62-8.306,6.269-13.801,5.292c-12.735-2.262-25.424-4.773-38.155-7.056c-4.021-0.721-5.1-2.616-4.163-6.61
	c4.07-17.338,12.583-31.942,26.977-42.516c11.906-8.747,25.176-14.96,40.084-16.551c11.846-1.264,23.997-3.818,35.576-2.353
	c13.135,1.662,26.594,5.529,38.438,11.405c14.961,7.421,26.379,19.792,31.031,36.549c3.537,12.743,4.397,25.843-2.356,38.004
	c-4.957,8.928-9.133,19.094-16.377,25.748c-9.58,8.798-21.447,15.383-33.017,21.656c-10.975,5.95-22.899,10.126-34.283,15.351
	c-11.354,5.21-22.556,10.749-33.814,16.164c-0.835,0.401-1.587,0.974-2.377,1.466c0.958,0.66,1.854,1.772,2.882,1.911
	c13.606,1.829,27.24,3.454,40.848,5.269c11.271,1.504,22.532,3.083,33.765,4.836c7.815,1.22,15.654,2.507,23.27,4.554
	c0.993,0.267,1.551,5.459,0.895,8.005c-3.38,13.104-7.03,26.149-11.168,39.027c-0.463,1.441-4.792,2.719-7.022,2.328
	c-10.307-1.805-20.444-4.579-30.755-6.357c-21.61-3.727-43.291-7.043-64.942-10.534c-16.283-2.625-32.571-5.215-48.844-7.899
	c-10.776-1.777-21.551-3.583-32.259-5.714c-1.052-0.209-2.604-3.063-2.279-4.233c3.105-11.194,6.28-22.392,10.147-33.337
	c0.853-2.412,4.383-4.044,6.919-5.662c7.299-4.652,14.602-9.321,22.13-13.585c7.002-3.967,14.331-7.356,21.453-11.119
	c11.098-5.863,22.034-12.04,33.236-17.692c13.272-6.696,26.994-12.53,40.072-19.572c11.053-5.952,21.828-12.724,23.599-27.112
	C376.268,133.466,368.229,125.224,353.55,124.056z"/>
<path fill-rule="evenodd" clip-rule="evenodd" d="M445.729,364.305c-2.799,9.13-5.484,17.304-7.789,25.583
	c-2.142,7.692-3.595,15.582-5.861,23.233c-3.021,10.201-6.713,20.202-9.795,30.386c-4.059,13.408-7.675,26.949-11.721,40.36
	c-3.681,12.199-7.812,24.264-11.5,36.462c-2.766,9.146-5.016,18.448-7.762,27.6c-1.043,3.477-1.69,6.409-7.644,4.916
	c-21.056-5.278-42.394-9.439-63.644-13.929c-13.704-2.895-27.433-5.677-41.17-8.411c-14.988-2.984-30.001-5.842-44.999-8.779
	c-14.395-2.819-28.807-5.556-43.165-8.552c-9.277-1.936-18.427-4.48-27.713-6.364c-7.812-1.584-15.761-2.479-23.606-3.915
	c-8.972-1.643-17.957-3.313-26.777-5.589c-1.302-0.336-2.552-4.154-2.363-6.228c0.304-3.337,1.939-6.538,2.715-9.864
	c0.114-0.488-1.314-1.806-2.184-1.984c-12.004-2.468-24.007-4.956-36.069-7.111c-6.648-1.188-9.562-7.299-5.691-12.799
	c11.226-15.95,23.202-31.438,33.431-48.004c7.045-11.409,11.727-24.285,17.368-36.551c4.961-10.786,10.035-21.531,14.617-32.48
	c6.678-15.961,12.774-32.168,19.656-48.038c0.817-1.883,5.174-3.535,7.608-3.207c19.119,2.577,38.188,5.545,57.233,8.637
	c10.803,1.754,21.505,4.13,32.302,5.93c11.694,1.949,23.493,3.285,35.162,5.365c21.496,3.831,42.89,8.24,64.404,11.96
	c13.371,2.312,26.927,3.547,40.324,5.727c14.206,2.313,28.324,5.167,42.475,7.815c0.547,0.103,1.337,0.409,1.504,0.825
	C438.712,346.385,442.273,355.501,445.729,364.305z"/>
<path fill-rule="evenodd" clip-rule="evenodd" fill="#FFFFFF" d="M162.446,299.219c12.924,2.205,24.233,4.185,35.561,6.05
	c8.832,1.454,17.691,2.733,26.53,4.144c11.083,1.769,22.163,3.554,33.233,5.398c19.926,3.319,39.833,6.756,59.768,10.012
	c15.152,2.476,30.38,4.504,45.494,7.178c14.798,2.618,29.48,5.872,44.242,8.7c5.552,1.063,11.243,1.456,16.739,2.723
	c1.505,0.347,3.877,3.139,3.584,4.153c-5.516,19.118-10.379,38.513-17.399,57.085c-9.736,25.757-20.739,51.063-32.034,76.187
	c-4.771,10.608-12.479,19.887-17.347,30.463c-4.022,8.739-10.292,7.845-17.047,6.495c-19.492-3.895-38.862-8.402-58.38-12.152
	c-23.336-4.484-46.813-8.229-70.152-12.696c-12.433-2.38-24.657-5.834-37.058-8.402c-24.355-5.043-48.776-9.763-73.152-14.707
	c-8.974-1.819-17.901-3.871-26.815-5.964c-0.254-0.06-0.545-2.123-0.101-2.685c20.357-25.741,37.564-53.358,50.233-83.711
	c8.765-20.996,17.598-41.965,26.356-62.965c1.592-3.818,2.783-7.813,4.539-11.547C160.046,301.264,161.77,299.983,162.446,299.219z"
	/>
<path fill-rule="evenodd" clip-rule="evenodd" d="M174.552,372.912c4.862-11.367,9.317-22.946,14.999-33.888
	c0.914-1.759,7.3-0.678,11.155-0.91c-0.09,1.733,0.251,3.631-0.334,5.175c-8.337,21.963-16.678,43.927-25.362,65.753
	c-1.333,3.349-4.218,8.366-6.684,8.548c-7.45,0.547-10.085-4.289-9.676-11.797c0.52-9.526-0.031-19.113-0.172-28.672
	c-0.009-0.629-0.455-1.252-0.698-1.877c-0.389,0.563-0.9,1.077-1.15,1.696c-4.171,10.331-8.508,20.601-12.394,31.039
	c-3.151,8.467-8.83,1.124-13.064,2.477c0.255-2.395-0.004-4.992,0.848-7.15c5.259-13.312,10.784-26.52,16.191-39.774
	c4.148-10.168,8.205-20.374,12.47-30.494c0.34-0.807,2.249-1.738,2.988-1.455c3.157,1.204,8.694,2.688,8.795,4.348
	c0.749,12.34,0.406,24.746,0.406,37.131C173.432,373.011,173.992,372.962,174.552,372.912z"/>
<path fill-rule="evenodd" clip-rule="evenodd" d="M228.163,408.077c0-5.864,0.043-11.73-0.04-17.594
	c-0.015-1.011-0.568-2.014-0.872-3.02c-0.444,0.866-0.993,1.695-1.316,2.604c-3.681,10.359-7.443,20.692-10.949,31.112
	c-2.992,8.892-8.67,1.369-12.94,2.324c0.112-2.107-0.3-4.413,0.415-6.29c8.901-23.369,17.942-46.685,27.043-69.976
	c0.537-1.373,2.32-3.611,2.795-3.438c3.289,1.191,8.897,2.611,9.129,4.521c1.36,11.194,1.44,22.543,1.982,33.84
	c0.048,1.004,0.313,1.997,0.478,2.996c0.511-0.914,1.133-1.783,1.515-2.748c4.197-10.597,7.961-21.399,12.934-31.615
	c0.782-1.606,6.995-0.647,10.686-0.534c0.192,0.006,0.884,3.446,0.334,4.908c-9.127,24.229-18.378,48.411-27.77,72.538
	c-0.504,1.298-3.508,2.992-3.618,2.876c-2.671-2.844-9.612,1.921-9.656-5.304c-0.036-5.733-0.007-11.468-0.007-17.201
	C228.259,408.077,228.211,408.077,228.163,408.077z"/>
<path fill-rule="evenodd" clip-rule="evenodd" d="M303.266,422.23c2.426-8.239,5.94-20.661,9.761-32.988
	c2.786-8.987,5.851-17.897,9.152-26.706c0.392-1.045,3.032-1.485,4.7-1.728c1.105-0.161,2.384,0.91,3.501,0.771
	c4.281-0.534,5.084,1.269,3.891,4.983c-5.1,15.884-10.165,31.779-15.173,47.691c-0.734,2.332-1.744,4.861-1.459,7.155
	c0.335,2.696,1.944,5.235,3,7.844c2.24-1.242,5.766-1.965,6.511-3.811c4.438-10.985,8.346-22.192,12.211-33.4
	c2.952-8.561,5.26-17.365,8.699-25.714c0.505-1.225,5.806-1.069,8.663-0.473c1.361,0.283,3.45,3.481,3.077,4.713
	c-5.411,17.861-11.286,35.581-16.837,53.4c-3.611,11.59-14.737,21.311-25.347,21.737
	C308.208,446.084,303.198,436.904,303.266,422.23z"/>
<path fill-rule="evenodd" clip-rule="evenodd" d="M348.387,430.349c2.351-8.229,5.71-20.163,9.177-32.065
	c2.63-9.027,5.231-18.071,8.271-26.963c0.494-1.446,3.201-2.138,4.886-3.179c1.529,3.313,11.115-3.876,7.724,6.505
	c-5.668,17.351-10.56,34.97-15.178,52.633c-0.716,2.736,1.758,6.308,2.757,9.492c2.776-1.932,7.021-3.275,8.068-5.897
	c4.122-10.328,7.281-21.044,10.716-31.642c2.372-7.322,5.008-14.595,6.758-22.069c1.052-4.492,3.509-4.163,6.607-3.479
	c3.99,0.882,8.588,0.688,6.203,7.592c-5.617,16.257-9.961,32.979-16.122,49.013c-2.74,7.129-7.606,14.291-13.444,19.074
	c-3.846,3.149-11.569,3.795-16.804,2.505C349.799,449.846,347.88,442.177,348.387,430.349z"/>
<path fill-rule="evenodd" clip-rule="evenodd" d="M278.14,352.1c13.262,2.167,25.534,4.126,37.769,6.298
	c0.663,0.117,1.735,2.471,1.396,2.999c-4.471,6.955-8.631,14.214-13.911,20.523c-9.951,11.891-20.597,23.198-30.885,34.811
	c-0.665,0.751-0.743,2.021-1.094,3.052c0.881,0.232,1.751,0.533,2.646,0.688c6.67,1.148,13.357,2.204,20,3.494
	c0.655,0.126,1.064,1.62,1.529,2.51c0.073,0.141-0.183,0.439-0.259,0.674c-4.595,14.175-4.528,13.918-20.526,9.75
	c-7.998-2.084-16.243-3.571-24.468-4.313c-5.885-0.529-5.437-3.488-3.132-6.422c5.994-7.626,12.512-14.846,18.914-22.146
	c9.042-10.311,18.188-20.53,27.174-30.891c0.331-0.382-0.394-2.544-0.929-2.68c-5.818-1.472-11.703-2.684-17.556-4.024
	c-0.777-0.179-2.157-0.886-2.122-1c1.348-4.412,2.788-8.799,4.37-13.134C277.172,351.968,278.425,352.061,278.14,352.1z"/>
<path fill-rule="evenodd" clip-rule="evenodd" d="M191.296,422.11c-9.529,0.082-12.081-2.986-9.089-10.929
	c8.641-22.932,17.387-45.835,26.974-68.375c0.784-1.845,8.26-0.843,12.626-1.163c0.122,1.814,0.862,3.866,0.271,5.408
	c-9.181,23.981-18.504,47.908-27.92,71.798C193.573,420.333,191.939,421.402,191.296,422.11z"/>
</svg>
