<svg xmlns="http://www.w3.org/2000/svg" xml:space="preserve" width="647.145" height="672.943" viewBox="0 0 647.145 672.943"><path fill-rule="evenodd" d="M596.24 51.923c-2.362 12.379-4.307 21.969-5.884 31.619-.188 1.145 1.497 3.646 2.544 3.785 16.884 2.244 33.825 4.073 50.688 6.463 1.483.211 3.877 3.984 3.521 5.584-2.572 11.566-5.81 22.981-8.713 34.476-4.58 18.131-8.961 36.314-13.628 54.424-2.708 10.51-5.94 20.886-8.7 31.384-3.026 11.508-5.609 23.133-8.699 34.624-3.582 13.318-7.688 26.498-11.215 39.83-2.077 7.85-3.239 15.939-5.251 23.809-1.631 6.381-4.115 12.54-5.836 18.901-1.061 3.924-1.122 8.113-2.111 12.063-3.201 12.78-6.59 25.515-9.972 38.25a3810 3810 0 0 1-8.689 32.112c-2.887 10.496-6.046 20.92-8.729 31.467-3.058 12.011-5.493 24.181-8.62 36.172-3.075 11.795-6.887 23.397-9.982 35.188-2.71 10.321-4.656 20.844-7.349 31.171-2.144 8.218-5.151 16.21-7.319 24.422-1.927 7.296-3.016 14.81-4.857 22.131-2.246 8.925-5.051 17.708-7.325 26.625-3.166 12.41-6.58 24.793-8.896 37.369-1.576 8.563-5.215 10.676-15.144 8.16-11.774-2.985-23.815-4.904-35.676-7.578-13.001-2.931-25.879-6.405-38.896-9.255-11.854-2.595-23.855-4.52-35.733-7.018-11.45-2.408-22.79-5.336-34.247-7.709-5.851-1.212-11.892-1.482-17.77-2.587-7.479-1.404-14.861-3.312-22.318-4.843-15.25-3.133-30.555-6.012-45.777-9.277-10.463-2.245-20.797-5.09-31.243-7.426-6.319-1.413-12.777-2.204-19.109-3.568-8.894-1.914-17.698-4.242-26.599-6.114-5.01-1.055-10.199-1.268-15.194-2.371-5.578-1.232-10.967-3.331-16.551-4.528-6.749-1.448-13.637-2.228-20.425-3.508-10.994-2.073-21.959-4.305-32.931-6.495-8.868-1.771-17.684-3.858-26.606-5.285-7.283-1.165-8.63-4.564-6-10.846 4.965-11.857 8.727-24.222 12.646-36.484.042-.129-4.48-2.027-6.985-2.606-12.439-2.876-24.909-5.621-37.384-8.343-7.308-1.594-14.735-2.719-21.941-4.672-7.014-1.902-9.099-6.957-5.803-13.54 7.374-14.731 15.396-29.149 22.38-44.058 6.403-13.669 11.74-27.836 17.642-41.742 3.7-8.717 7.776-17.279 11.321-26.056 3.735-9.246 7.097-18.646 10.518-28.015a6008 6008 0 0 0 14.303-39.674c3.21-8.986 6.215-18.046 9.517-26.998 3.448-9.348 7.357-18.529 10.661-27.925 2.781-7.911 4.892-16.056 7.465-24.043 3.11-9.657 6.483-19.229 9.584-28.889 4.623-14.399 9.152-28.829 13.639-43.271 6.798-21.883 13.813-43.704 20.197-65.708 5.903-20.347 10.974-40.934 16.644-61.35 4.147-14.935 8.829-29.721 12.953-44.662 1.81-6.556 7.058-5.604 11.253-5.244a1815 1815 0 0 1 57.332 5.878c16.547 1.957 33.01 4.633 49.55 6.662 32.77 4.019 65.543 8.028 98.363 11.606 17.062 1.859 34.253 2.514 51.333 4.232 13.864 1.395 27.637 3.67 41.475 5.357 9.627 1.173 19.326 1.774 28.937 3.059 11.916 1.594 23.745 3.853 35.665 5.416 12.014 1.575 24.149 2.296 36.106 4.182 3.192.505 5.93 3.906 7.87 5.267" clip-rule="evenodd"/><path fill="#fff" fill-rule="evenodd" d="M215.546 556.996q-12.986-2.566-25.973-5.128c-10.546-2.081-21.126-4.003-31.63-6.283-13.395-2.908-26.726-6.107-40.086-9.177-11.926-2.741-23.843-5.524-35.784-8.199-15.044-3.369-30.115-6.624-45.164-9.975-7.9-1.759-15.795-3.551-23.639-5.542-.7-.178-1.693-2.281-1.381-2.911 7.574-15.284 15.945-30.205 22.856-45.776 9.438-21.266 17.948-42.951 26.549-64.578 6.716-16.888 13.033-33.937 19.399-50.961 5.289-14.143 10.388-28.355 15.576-42.535 6.121-16.728 12.604-33.332 18.271-50.21 5.738-17.088 10.593-34.471 15.981-51.679 3.887-12.415 8.185-24.701 11.988-37.141 3.971-12.988 7.504-26.111 11.35-39.139 2.651-8.982 5.718-17.846 8.227-26.865 4.001-14.383 7.56-28.89 11.563-43.272 2.744-9.854 5.974-19.572 8.89-29.379 1.552-5.221 2.796-10.536 4.43-15.73.303-.965 1.867-2.29 2.735-2.21 14.975 1.382 29.95 2.802 44.887 4.543 11.611 1.354 23.145 3.373 34.758 4.713 15.74 1.816 31.548 3.054 47.281 4.932 16.293 1.945 32.498 4.645 48.8 6.502 25.034 2.854 50.125 5.2 75.177 7.907 10.676 1.154 21.293 2.849 31.97 3.992 14.542 1.558 29.138 2.619 43.667 4.273 13.799 1.572 27.558 3.52 41.302 5.518 8.621 1.253 17.194 2.845 25.751 4.486.689.133 1.69 1.967 1.515 2.791-3.671 17.21-7.378 34.414-11.313 51.565-4.342 18.926-8.965 37.788-13.38 56.698-4.028 17.257-7.937 34.542-11.911 51.813-4.812 20.908-9.617 41.817-14.463 62.718-3.862 16.662-7.479 33.39-11.748 49.948-5.242 20.333-11.142 40.496-16.571 60.782-2.389 8.922-4.077 18.032-6.508 26.941-4.881 17.892-10.003 35.718-15.125 53.543-3.037 10.573-6.308 21.08-9.398 31.639-7.214 24.636-14.317 49.304-21.605 73.918-2.346 7.927-5.051 15.753-7.808 23.549-.317.897-2.176 2.017-3.071 1.831-19.596-4.047-39.15-8.288-58.723-12.444-30.546-6.487-61.075-13.05-91.657-19.364-19.679-4.064-39.459-7.638-59.146-11.662-5.673-1.159-11.182-3.122-16.765-4.717q-.038.137-.074.275" clip-rule="evenodd"/><path fill-rule="evenodd" d="M353.55 124.056c-15.981-1.272-30.246 6.937-34.483 21.86-2.732 9.62-8.306 6.269-13.801 5.292-12.735-2.262-25.424-4.773-38.155-7.056-4.021-.721-5.1-2.616-4.163-6.61 4.07-17.338 12.583-31.942 26.977-42.516 11.906-8.747 25.176-14.96 40.084-16.551 11.846-1.264 23.997-3.818 35.576-2.353 13.135 1.662 26.594 5.529 38.438 11.405 14.961 7.421 26.379 19.792 31.031 36.549 3.537 12.743 4.397 25.843-2.356 38.004-4.957 8.928-9.133 19.094-16.377 25.748-9.58 8.798-21.447 15.383-33.017 21.656-10.975 5.95-22.899 10.126-34.283 15.351-11.354 5.21-22.556 10.749-33.814 16.164-.835.401-1.587.974-2.377 1.466.958.66 1.854 1.772 2.882 1.911 13.606 1.829 27.24 3.454 40.848 5.269 11.271 1.504 22.532 3.083 33.765 4.836 7.815 1.22 15.654 2.507 23.27 4.554.993.267 1.551 5.459.895 8.005-3.38 13.104-7.03 26.149-11.168 39.027-.463 1.441-4.792 2.719-7.022 2.328-10.307-1.805-20.444-4.579-30.755-6.357-21.61-3.727-43.291-7.043-64.942-10.534-16.283-2.625-32.571-5.215-48.844-7.899-10.776-1.777-21.551-3.583-32.259-5.714-1.052-.209-2.604-3.063-2.279-4.233 3.105-11.194 6.28-22.392 10.147-33.337.853-2.412 4.383-4.044 6.919-5.662 7.299-4.652 14.602-9.321 22.13-13.585 7.002-3.967 14.331-7.356 21.453-11.119 11.098-5.863 22.034-12.04 33.236-17.692 13.272-6.696 26.994-12.53 40.072-19.572 11.053-5.952 21.828-12.724 23.599-27.112 1.491-12.113-6.548-20.355-21.227-21.523m92.179 240.249c-2.799 9.13-5.484 17.304-7.789 25.583-2.142 7.692-3.595 15.582-5.861 23.233-3.021 10.201-6.713 20.202-9.795 30.386-4.059 13.408-7.675 26.949-11.721 40.36-3.681 12.199-7.812 24.264-11.5 36.462-2.766 9.146-5.016 18.448-7.762 27.6-1.043 3.477-1.69 6.409-7.644 4.916-21.056-5.278-42.394-9.439-63.644-13.929-13.704-2.895-27.433-5.677-41.17-8.411-14.988-2.984-30.001-5.842-44.999-8.779-14.395-2.819-28.807-5.556-43.165-8.552-9.277-1.936-18.427-4.48-27.713-6.364-7.812-1.584-15.761-2.479-23.606-3.915-8.972-1.643-17.957-3.313-26.777-5.589-1.302-.336-2.552-4.154-2.363-6.228.304-3.337 1.939-6.538 2.715-9.864.114-.488-1.314-1.806-2.184-1.984-12.004-2.468-24.007-4.956-36.069-7.111-6.648-1.188-9.562-7.299-5.691-12.799 11.226-15.95 23.202-31.438 33.431-48.004 7.045-11.409 11.727-24.285 17.368-36.551 4.961-10.786 10.035-21.531 14.617-32.48 6.678-15.961 12.774-32.168 19.656-48.038.817-1.883 5.174-3.535 7.608-3.207 19.119 2.577 38.188 5.545 57.233 8.637 10.803 1.754 21.505 4.13 32.302 5.93 11.694 1.949 23.493 3.285 35.162 5.365 21.496 3.831 42.89 8.24 64.404 11.96 13.371 2.312 26.927 3.547 40.324 5.727 14.206 2.313 28.324 5.167 42.475 7.815.547.103 1.337.409 1.504.825 3.637 9.086 7.198 18.202 10.654 27.006" clip-rule="evenodd"/><path fill="#fff" fill-rule="evenodd" d="M162.446 299.219c12.924 2.205 24.233 4.185 35.561 6.05 8.832 1.454 17.691 2.733 26.53 4.144a4964 4964 0 0 1 33.233 5.398c19.926 3.319 39.833 6.756 59.768 10.012 15.152 2.476 30.38 4.504 45.494 7.178 14.798 2.618 29.48 5.872 44.242 8.7 5.552 1.063 11.243 1.456 16.739 2.723 1.505.347 3.877 3.139 3.584 4.153-5.516 19.118-10.379 38.513-17.399 57.085-9.736 25.757-20.739 51.063-32.034 76.187-4.771 10.608-12.479 19.887-17.347 30.463-4.022 8.739-10.292 7.845-17.047 6.495-19.492-3.895-38.862-8.402-58.38-12.152-23.336-4.484-46.813-8.229-70.152-12.696-12.433-2.38-24.657-5.834-37.058-8.402-24.355-5.043-48.776-9.763-73.152-14.707-8.974-1.819-17.901-3.871-26.815-5.964-.254-.06-.545-2.123-.101-2.685 20.357-25.741 37.564-53.358 50.233-83.711 8.765-20.996 17.598-41.965 26.356-62.965 1.592-3.818 2.783-7.813 4.539-11.547.806-1.714 2.53-2.995 3.206-3.759" clip-rule="evenodd"/><path fill-rule="evenodd" d="M174.552 372.912c4.862-11.367 9.317-22.946 14.999-33.888.914-1.759 7.3-.678 11.155-.91-.09 1.733.251 3.631-.334 5.175-8.337 21.963-16.678 43.927-25.362 65.753-1.333 3.349-4.218 8.366-6.684 8.548-7.45.547-10.085-4.289-9.676-11.797.52-9.526-.031-19.113-.172-28.672-.009-.629-.455-1.252-.698-1.877-.389.563-.9 1.077-1.15 1.696-4.171 10.331-8.508 20.601-12.394 31.039-3.151 8.467-8.83 1.124-13.064 2.477.255-2.395-.004-4.992.848-7.15 5.259-13.312 10.784-26.52 16.191-39.774 4.148-10.168 8.205-20.374 12.47-30.494.34-.807 2.249-1.738 2.988-1.455 3.157 1.204 8.694 2.688 8.795 4.348.749 12.34.406 24.746.406 37.131zm53.611 35.165c0-5.864.043-11.73-.04-17.594-.015-1.011-.568-2.014-.872-3.02-.444.866-.993 1.695-1.316 2.604-3.681 10.359-7.443 20.692-10.949 31.112-2.992 8.892-8.67 1.369-12.94 2.324.112-2.107-.3-4.413.415-6.29 8.901-23.369 17.942-46.685 27.043-69.976.537-1.373 2.32-3.611 2.795-3.438 3.289 1.191 8.897 2.611 9.129 4.521 1.36 11.194 1.44 22.543 1.982 33.84.048 1.004.313 1.997.478 2.996.511-.914 1.133-1.783 1.515-2.748 4.197-10.597 7.961-21.399 12.934-31.615.782-1.606 6.995-.647 10.686-.534.192.006.884 3.446.334 4.908a7082 7082 0 0 1-27.77 72.538c-.504 1.298-3.508 2.992-3.618 2.876-2.671-2.844-9.612 1.921-9.656-5.304-.036-5.733-.007-11.468-.007-17.201zm75.103 14.153c2.426-8.239 5.94-20.661 9.761-32.988a488 488 0 0 1 9.152-26.706c.392-1.045 3.032-1.485 4.7-1.728 1.105-.161 2.384.91 3.501.771 4.281-.534 5.084 1.269 3.891 4.983a8682 8682 0 0 0-15.173 47.691c-.734 2.332-1.744 4.861-1.459 7.155.335 2.696 1.944 5.235 3 7.844 2.24-1.242 5.766-1.965 6.511-3.811 4.438-10.985 8.346-22.192 12.211-33.4 2.952-8.561 5.26-17.365 8.699-25.714.505-1.225 5.806-1.069 8.663-.473 1.361.283 3.45 3.481 3.077 4.713-5.411 17.861-11.286 35.581-16.837 53.4-3.611 11.59-14.737 21.311-25.347 21.737-9.408.38-14.418-8.8-14.35-23.474m45.121 8.119c2.351-8.229 5.71-20.163 9.177-32.065 2.63-9.027 5.231-18.071 8.271-26.963.494-1.446 3.201-2.138 4.886-3.179 1.529 3.313 11.115-3.876 7.724 6.505-5.668 17.351-10.56 34.97-15.178 52.633-.716 2.736 1.758 6.308 2.757 9.492 2.776-1.932 7.021-3.275 8.068-5.897 4.122-10.328 7.281-21.044 10.716-31.642 2.372-7.322 5.008-14.595 6.758-22.069 1.052-4.492 3.509-4.163 6.607-3.479 3.99.882 8.588.688 6.203 7.592-5.617 16.257-9.961 32.979-16.122 49.013-2.74 7.129-7.606 14.291-13.444 19.074-3.846 3.149-11.569 3.795-16.804 2.505-8.207-2.023-10.126-9.692-9.619-21.52M278.14 352.1c13.262 2.167 25.534 4.126 37.769 6.298.663.117 1.735 2.471 1.396 2.999-4.471 6.955-8.631 14.214-13.911 20.523-9.951 11.891-20.597 23.198-30.885 34.811-.665.751-.743 2.021-1.094 3.052.881.232 1.751.533 2.646.688 6.67 1.148 13.357 2.204 20 3.494.655.126 1.064 1.62 1.529 2.51.073.141-.183.439-.259.674-4.595 14.175-4.528 13.918-20.526 9.75-7.998-2.084-16.243-3.571-24.468-4.313-5.885-.529-5.437-3.488-3.132-6.422 5.994-7.626 12.512-14.846 18.914-22.146 9.042-10.311 18.188-20.53 27.174-30.891.331-.382-.394-2.544-.929-2.68-5.818-1.472-11.703-2.684-17.556-4.024-.777-.179-2.157-.886-2.122-1 1.348-4.412 2.788-8.799 4.37-13.134.116-.321 1.369-.228 1.084-.189m-86.844 70.01c-9.529.082-12.081-2.986-9.089-10.929 8.641-22.932 17.387-45.835 26.974-68.375.784-1.845 8.26-.843 12.626-1.163.122 1.814.862 3.866.271 5.408a7850 7850 0 0 1-27.92 71.798c-.585 1.484-2.219 2.553-2.862 3.261" clip-rule="evenodd"/></svg>