<?xml version="1.0" encoding="utf-8"?>
<!-- Generator: Adobe Illustrator 16.0.3, SVG Export Plug-In . SVG Version: 6.00 Build 0)  -->
<!DOCTYPE svg PUBLIC "-//W3C//DTD SVG 1.1//EN" "http://www.w3.org/Graphics/SVG/1.1/DTD/svg11.dtd">
<svg version="1.1" id="レイヤー_1" xmlns="http://www.w3.org/2000/svg" xmlns:xlink="http://www.w3.org/1999/xlink" x="0px"
	 y="0px" width="654.809px" height="654.809px" viewBox="0 0 654.809 654.809" enable-background="new 0 0 654.809 654.809"
	 xml:space="preserve">
<g>
	<g>
		<defs>
			<circle id="SVGID_1_" cx="327.405" cy="327.405" r="327.405"/>
		</defs>
		<use xlink:href="#SVGID_1_"  overflow="visible" fill="#FFFFFF"/>
		<clipPath id="SVGID_2_">
			<use xlink:href="#SVGID_1_"  overflow="visible"/>
		</clipPath>
		<g clip-path="url(#SVGID_2_)">
			<path d="M453.947,563.327c-3.604,1.229-6.36,2.17-9.21,3.14c-5.609-0.872-10.907-2.334-14.116-7.431
				c-28.178,19.877-60.021,29.402-93.123,36.212c-0.938,2.64-1.787,5.028-2.645,7.44c-9.51,6.26-18.075,4.736-26.32-2.831
				c-7.644,1.006-15.38,2.026-23.51,3.096c1.425,5.586,2.281,10.743-3.37,14.621c-6.362,2.382-9.917-2.104-13.338-6.646
				c-2.77,3.075-5.339,5.927-7.43,8.251c-5.801,2.119-8.96-0.268-11.845-4.917c0-2.595,0-5.805,0-9.888
				c-3.62,0-6.833-0.025-10.047,0.005c-28.952,0.284-57.562-2.788-86.11-7.584c-21.692-3.643-42.851-8.955-63.494-16.351
				c-15.814-5.668-30.943-12.895-43.962-23.705c-5.507-4.578-10.178-10.158-15.661-15.718c-5.302,1.47-10.729,5.506-17.306,3.444
				c-3.953-2.075-5.721-5.23-4.323-10.812c1.748-1.515,4.184-3.632,6.585-5.72c-8.555-7.67-8.963-9.294-3.885-16.243
				c6.344-2.194,12.235,0.67,18.65,2.09c2.983-3.53,5.68-7.216,8.866-10.414c12.253-12.289,27.05-20.818,42.862-27.476
				c21.154-8.899,43-15.596,65.909-18.388c2.569-0.313,5.052-1.338,8.127-2.182c2.41-20.896,7.017-41.597,12.93-61.934
				c5.931-20.393,12.467-40.653,23.125-59.389c-5.14-2.754-9.986-5.356-15.441-8.279c0,3.121,0,5.916,0,9.527
				c-18.74-0.897-33.831-8.554-48.905-21.407c1.136,4.717,1.819,7.553,2.498,10.376c-9.724,1.751-18.237-3.074-39.943-22.963
				c-0.394,2.779-0.736,5.204-1.17,8.274c-13.103-10.575-19.73-24.15-23.374-39.462c-3.653-15.342-2.342-30.587,0.896-45.833
				c2.454-11.568,5.82-22.813,10.76-33.554c6.35-13.807,9.001-28.619,11.983-43.347c8.271-40.85,28.946-73.625,63.951-96.63
				c19.639-12.904,41.251-20.981,64.632-24.729c18.41-2.952,36.865-2.758,55.143-1.184c23.718,2.039,46.063,9.98,66.667,21.946
				c28.084,16.31,50.807,38.535,68.322,65.79c12.313,19.164,19.067,40.397,17.665,63.388c-1.343,21.958-10.347,40.375-28.327,54.128
				c-2.565,0.2-5.146,0.405-7.875,0.623c-0.496,0.784-1.229,1.539-1.482,2.424c-0.62,2.179-1.434,4.419-1.438,6.637
				c-0.026,11.483-0.525,22.903,1.132,34.445c1.381,9.618,1.448,19.533-0.904,29.412c-3.62,15.202-12.13,25.985-26.13,32.493
				c-9.582,4.457-19.527,7.604-30.038,6.841c-3.117-1.755-6.528-2.942-3.853-8.031c-9.106,1.466-15.817,8.008-25.047,5.723
				c-1.1-1.411-2.485-3.192-4.204-5.396c-2.435,1.159-4.974,2.366-8.405,4.001c2.818,4.002,5.263,7.354,7.581,10.787
				c5.138,7.625,10.375,15.185,15.267,22.963c4.946,7.86,12.382,12.838,20.234,16.843c8.144,4.157,17.291,3.809,26.027,1.667
				c8.348-2.049,16.65-3.541,25.275-3.151c12.501,0.569,22.999,4.851,30.035,15.701c6.423-0.332,12.789-0.583,19.151-1.016
				c6.46-0.441,12.913-1.061,20.468-1.69c2.568,1.69,6.116,4.026,9.713,6.396c37.2,1.874,56.304,1.364,64.006-1.909
				c0.661-9.743-4.021-18.765-4.318-29.167c-4.896,0.356-9.086,0.612-13.262,0.983c-1.949,0.175-3.866,0.648-5.813,0.846
				c-13.038,1.317-26.101,2.404-39.105,3.956c-9.662,1.151-18.076-1.658-26.083-6.614c-2.57-8.849,0.896-17.134,2.157-25.393
				c3.245-21.302,7.463-42.458,11.44-63.645c3.682-19.578,7.63-39.104,11.31-58.68c2.235-11.882,4.079-23.839,6.345-35.715
				c0.593-3.105,2.101-6.032,3.159-8.976c9.574-2.042,18.464-0.827,27.244-0.29c9.777,0.596,19.477,2.348,29.238,3.279
				c10.455,0.998,20.961,1.469,31.419,2.457c10.092,0.956,20.144,2.313,30.225,3.411c2.618,0.284,5.277,0.151,7.903,0.387
				c5.518,0.491,11.022,1.098,16.813,1.688c2.235,3.188,4.262,6.077,6.309,9.001c-9.949,54.63-19.836,108.899-29.82,163.685
				c-3.456,1.298-6.363,2.764-9.439,3.441c-3.125,0.688-6.428,0.595-10.762,0.932c4.361,13.386,9.256,25.685,14.353,38.804
				c12.799,0.102,25.601-0.026,38.389,0.375c12.65,0.398,25.58-1.759,38.439,3.274c0,7.021,0,13.84,0,21.123
				c-2.433,5.096-9.28,1.572-13.541,7.659c0,0.724,0.005,3.615,0,6.503c-0.041,36.943-0.094,73.886-0.112,110.831
				c-0.003,4.605,0.411,9.274-3.729,13.548c-2.829,0.77-6.251,1.702-9.897,2.69c-2.627-0.883-5.399-1.807-7.539-2.521
				c-4.384-4.009-4.148-8.649-4.145-13.289c0.029-34.631,0.02-69.27,0.02-103.904c0-3.233,0-6.469,0-10.614
				c-15.86,2.564-30.495,6.771-45.327,10.02c-14.591,3.198-29.138,6.605-44.02,9.994c0,47.678,0,94.459,0,140.768
				c-9.192,7.649-15.758,7.759-25.481,0.499c0-46.393,0-93.172,0-140.404c-9.159-1.829-18.006-0.609-26.763-0.871
				c-8.538-0.252-17.087-0.057-26.643-0.057c-0.254,11.982-0.134,23.679,0.227,35.631c6.271,2.535,10.481,6.383,10.703,11.54
				c-0.693,6.633-1.23,11.786-1.843,17.663c-1.908,1.279-4.313,2.892-7.308,4.898c-0.444,4.373-2.162,9.495-1.099,13.954
				C457.041,554.627,455.049,558.391,453.947,563.327z M129.854,480.945c8.076,2.829,15.854,5.557,23.833,8.355
				c0-8.681,0-16.75,0-25.88c-7.299,1.47-13.916,2.959-20.589,4.115c-24.452,4.239-47.362,12.747-68.667,25.341
				c-11.028,6.521-21.708,13.729-27.941,25.636c-0.859,1.646-1.919,3.186-2.843,4.701c-13.47-5.673-13.47-5.673-18.084-4.621
				c4.743,3.001,9.292,5.882,15.026,9.512c-5.827,3.118-10.258,5.487-15.745,8.419c8.335,2.196,13.021-4.574,19.512-5.051
				c4.62,10.466,12.666,17.478,21.587,23.895c14.875,10.696,31.716,17.241,48.846,22.73c31.888,10.216,64.885,15.381,98.188,17.826
				c16.722,1.229,33.61,0.216,50.479,0.216c1.952-1.287,4.022-2.652,6.856-4.52c1.29,7.994-5.377,13.22-4.419,20.909
				c6.964-4.662,5.231-14.209,11.584-18.506c5.789,4.146,4.089,12.653,10.577,16.796c2.017-7.402-5.257-12.201-3.889-18.939
				c0.696-0.39,1.515-0.845,2.687-1.497c2.084,1.438,4.192,2.895,6.288,4.342c9.254-0.313,18.421,0.208,26.875-3.286
				c0-12.979,0-25.427,0-37.871c-14.392-6.334-29.187-7.874-44.568-8.748c2.779,6.962,12.448,8.955,10.714,17.854
				c-4.94,0.782-6.753-2.97-9.396-5.183c-13.729-11.483-28.806-19.789-47.372-18.208c-7.75,0.661-15.413,2.704-23.013,4.541
				c-2.86,0.692-5.451,2.19-8.822,0.178c3.051-8.266,12.198-6.807,18.622-11.283c-10.992-4.956-20.965-9.728-31.732-12.321
				c-10.777-2.594-21.607-5.677-32.572-6.564c-10.885-0.882-21.969,0.703-32.967,1.205c0.848-2.888,2.223-4.956,3.964-5.335
				c5.417-1.172,10.955-2.146,16.481-2.386c8.805-0.38,17.638-0.101,27.092-0.101c-1.995-6.94-7.05-10.285-11.787-13.354
				c-5.074-3.277-10.906-5.389-16.732-8.16C128.56,484.139,129.017,483.01,129.854,480.945z M218.293,240.445
				c1.355-5.697,1.968-10.97,3.917-15.689c1.841-4.462,4.586-8.804,7.853-12.354c3.465-3.768,7.664-7.209,12.186-9.55
				c4.244-2.196,9.282-3.557,14.059-3.851c5.02-0.313,10.145,1.075,15.477,1.751c1.212-4.104,2.208-7.46,3.399-11.487
				c-5.607-1.822-10.782-3.503-16.29-5.289c-14.331,16.031-32.102,26.292-50.875,34.164c-1.524,28.585,2.077,54.68,21.101,76.406
				c-1.27,1.094-2.006,1.731-2.957,2.55c-5.814-1.212-11.726-2.449-18.458-3.853c1.651,5.532,3.015,10.106,4.383,14.688
				c3.19,1.299,5.826,2.652,8.621,3.461c10.967,3.176,21.852,6.836,33.013,9.105c21.75,4.431,43.745,4.883,65.587,0.6
				c10.909-2.143,21.622-5.458,30.969-11.82c6.566-4.466,12.934-9.526,14.572-17.858c0.934-4.761,1.333-9.898,0.596-14.65
				c-1.401-9.028,0.665-17.43,2.857-25.937c0.65-2.521,1.386-5.081,1.503-7.648c0.045-0.951-1.563-1.98-2.941-3.59
				c-3.837,12.547-2.331,26.324-14.945,34.202c-2.391-0.193-4.961-0.402-6.762-0.549c-4.598-3.017-6.198-6.876-7.05-11.198
				c-2.91-14.75,0.297-28.577,6.826-41.709c1.52-3.053,4.317-5.879,7.213-7.762c6.967-4.525,14.228-2.307,18.207,5.042
				c1.145,2.11,2.023,4.366,3.563,7.735c4.867-11.792,4.364-22.111,0.832-32.775c-7.54,1.464-14.849,2.881-21.621,4.194
				c-4.267,3.307-7.868,6.849-12.127,9.19c-4.309,2.371-8.684,6.171-14.563,3.614c-0.254-6.63,5.755-11.458,4.962-18.619
				c-1.731,1.583-3.001,2.639-4.152,3.81c-7.594,7.729-16.895,12.363-27.317,14.756c-3.978,0.915-8.484,2.688-11.389-2.507
				c1.331-3.113,2.66-6.219,4.889-11.438c-5.44,4.724-9.048,7.855-12.863,11.168c2.914,4.58,8.359,8.187,5.483,14.563
				c-1.217,0.816-2.279,1.528-3.218,2.157c0,7.784,0.909,15.5-0.186,22.917c-2.458,16.647-8.524,24.771-19.886,26.504
				c-10.982-0.762-15.955-7.992-17.054-16.767c-2.173-17.337,0.016-33.818,16.566-45.128c-9.567-1.577-16.709,1.867-22.66,8.143
				c-4.36,4.597-7.169,10.115-8.423,16.384c-0.81,4.05-1.734,8.079-2.915,13.531C224.627,245.904,221.999,243.638,218.293,240.445z
				 M221.784,339.481c-4.831-0.216-8.136-0.173-11.389-0.563c-3.209-0.392-6.364-1.224-9.389-1.828
				c-11.903,11.344-19.374,35.289-16.514,52.604c3.846,5.902,9.281,8.584,16.84,8.31c-1.964-9.546-10.298-15.735-10.759-25.435
				c1.148-0.705,2.197-1.35,3.114-1.909c4.813,2.099,5.945,6.482,7.722,10.223c6.986,14.709,16.15,27.758,28.255,38.734
				c8.129,7.374,16.925,13.802,27.775,16.011c8.583,1.752,17.46,2.065,26.893,3.095c1.625-2.564,3.048-4.805,3.542-5.588
				c6.507-1.875,11.172-3.346,15.905-4.555c5.983-1.526,11.991-3.807,18.05-4.014c7.706-0.263,13.094-3.5,17.641-9.117
				c1.409-1.74,2.813-3.482,4.672-5.784c3.51,1.257,6.839,2.409,10.136,3.642c3.487,1.308,6.744,1.926,9.101-2.001
				c-13.685-11.875-27.493-14.322-42.825-6.098c-3.517,1.883-7.087,2.01-11.171,1.313c-7.394-1.265-14.974-1.398-22.458-2.176
				c-14.693-1.523-26.833-7.519-35.887-19.67c-8.449-11.336-16.052-23.142-22.739-35.587
				C226.469,345.683,223.957,342.648,221.784,339.481z M336.694,504.205c0,16.984,0,33.646,0,50.696
				c10.346,4.595,20.424,9.175,30.59,13.546c6.995,3.003,13.939,3.252,21.027-1.811c9.823-13.519,15.118-29.66,18.656-46.268
				c1.754-8.231,2.11-17.311-7.105-22.604c-10.379-0.525-14.301,1.041-20.649,8.495c-2.116,2.485-3.852,5.294-5.962,7.779
				c-1.641,1.933-3.594,3.596-5.984,5.945C356.956,514.663,346.948,509.498,336.694,504.205z M293.264,453.866
				c4.465,0.588,8.588,1.523,12.734,1.62c32.206,0.731,64.408,0.415,96.638,1.702c40.118,1.604,80.336,0.753,120.515,0.928
				c2.181,0.012,4.356-0.274,7.018-0.458c0-2.632,0.043-4.562-0.012-6.495c-0.059-2.191-0.201-4.383-0.313-6.696
				c-79.214-1.354-157.697-3.549-236.579-2.531C293.264,445.837,293.264,449.062,293.264,453.866z M588.547,416.603
				c-3.472,3.908-8.23,5.335-13.732,5.795c-6.798,0.573-13.479,2.404-20.269,3.256c-8.112,1.018-16.27,2.031-24.43,2.225
				c-16.463,0.397-32.938,0.241-49.405,0.308c-3.235,0.013-6.473,0.005-8.75,0.005c-5.889-5.48-1.415-9.678,0.07-14.313
				c-6.314-2.145-4.854,5.422-8.438,6.035c-14.102,2.641-28.19,5.388-42.312,7.953c-15.154,2.758-30.314,4.9-45.873,4.284
				c-16.115-0.639-32.276-0.156-48.417-0.108c-3.192,0.013-6.383,0.255-9.576,0.393c1.692,1.525,3.307,1.503,4.919,1.529
				c38.808,0.604,77.617,1.308,116.427,1.795c26.68,0.332,53.365,0.285,80.044,0.572c11.841,0.127,23.57,0.132,35.013-3.781
				c4.271-1.462,8.981-1.618,13.472-2.479c18.364-3.521,36.724-7.089,55.085-10.638c-0.019-0.305-0.038-0.609-0.061-0.916
				C611.249,417.886,600.182,417.259,588.547,416.603z M486.538,189.269c-3.307,0-6.098,0-9.855,0
				c-11.323,60.451-22.405,120.985-33.043,181.933c3.027,1.338,5.61,2.478,9.262,4.096
				C464.17,312.967,475.297,251.431,486.538,189.269z M405.837,551.485c5.021,3.882,10.245,6.793,18.299,4.231
				c2.515-3.365,5.789-7.392,8.665-11.683c7.931-11.836,11.731-25.342,15.296-38.91c1.373-5.21,1.521-10.345-1.844-14.761
				c-6.435-5.038-11.875-2.507-16.889,1.944c-5.317,4.718-10.424,9.663-15.352,14.26
				C417.081,522.667,409.517,536.603,405.837,551.485z M538.17,457.365c39.152-8.828,78.406-17.683,117.902-26.586
				c0-3.984,0-7.106,0-11.228c-37.652,7.611-74.658,15.069-111.643,22.638c-2.467,0.503-4.761,1.872-7.539,2.999
				C536.671,449.263,535.31,453.035,538.17,457.365z M516.569,477.859c-0.642,21.104-1.461,41.125-1.797,61.152
				c-0.318,18.768-0.155,37.544-0.113,56.315c0.005,2.808,0.511,5.615,0.797,8.536c4.134,0,7.22,0,10.42,0
				c0-42.398,0-84.075,0-126.005C522.539,477.859,519.712,477.859,516.569,477.859z M430.783,466.4
				c-18.864-2.7-64.743-3.598-73.274-1.602c18.227,9.926,36.77,20.023,56.71,30.887c6.322-2.096,10.008-9.969,16.564-13.252
				C430.783,476.681,430.783,471.503,430.783,466.4z M318.442,596.991c4.857,1.562,4.857,1.562,9.783,0.07
				c0-40.821,0-81.645,0-122.768c-3.296-0.858-6.283-1.642-9.783-2.558C318.442,514.022,318.442,555.502,318.442,596.991z
				 M640.448,567.754c0-38.729,0-76.101,0-114.352c-3.6,1.938-6.402,3.445-9.155,4.926c0,36.403-0.008,72.25,0.043,108.094
				c0,0.528,0.657,1.06,1.399,2.185C634.853,568.369,637.293,568.104,640.448,567.754z M516.765,238.424
				c-1.646,7.913-3.148,14.526-4.379,21.189c-2.481,13.455-4.807,26.938-7.216,40.404c-1.491,8.337-3.12,16.654-4.48,25.013
				c-0.38,2.345-1.085,5.349,3.349,5.955c0.729-2.185,1.705-4.275,2.119-6.477c1.5-8.008,2.752-16.063,4.218-24.077
				c3.223-17.622,6.469-35.239,9.853-52.833c0.398-2.068,1.701-3.962,2.313-5.328c11.813,0,22.657,0.012,33.504,0
				c10.357-0.016,20.735,3.516,33.329,0.146c-3.046-1.366-4.079-2.179-5.17-2.266c-9.46-0.74-18.926-1.375-28.398-1.996
				c-8.813-0.577-17.624-1.337-26.446-1.541C525.594,236.533,521.803,237.656,516.765,238.424z M365.563,511.267
				c3.146-3.964,5.803-8.148,9.284-11.466c3.685-3.507,8.155-6.187,12.587-9.452c-7.328-3.632-14.328-7.097-21.385-10.587
				c-10.583,2.93-18.835,8.481-23.763,19.499C350.072,503.275,357.542,507.128,365.563,511.267z M270.068,334.022
				c-8.157,4.659-14.961,2.622-21.665-0.313c-3.279-1.436-6.455-3.108-9.705-4.616c-1.572-0.729-3.21-1.315-6.139-2.498
				c4.536,9.601,8.359,17.696,12.557,26.578c10.663-0.05,21.948,0.273,34.193-0.649
				C276.042,345.985,273.321,340.535,270.068,334.022z M527.702,354.275c-1.604,2.071-2.564,3.321-3.36,4.35
				c4.148,18.521,8.144,36.555,10.242,55.853c-3.329,0.622-5.75,1.347-8.201,1.484c-15.372,0.893-30.754,1.619-46.128,2.517
				c-1.234,0.069-2.428,1.01-3.642,1.544c21.494,2.896,42.535,1.174,63.743-0.123c0.563-1.622,1.529-2.928,1.314-3.999
				C537.572,395.541,533.891,375.079,527.702,354.275z M310.394,506.784c-10.944,9.41-17.518,19.301-19.777,32.428
				c6.803,2.016,12.828,3.798,19.533,5.78c0.104-2.364,0.233-3.943,0.237-5.523C310.403,529.06,310.394,518.652,310.394,506.784z
				 M336.324,563.472c0,6.614-0.024,12.794,0.02,18.97c0.011,1.248,0.281,2.492,0.425,3.668c8.973,0.521,26.517-3.772,34.893-8.54
				C359.928,572.891,348.432,568.305,336.324,563.472z M373.326,187.11c-0.138-8.532-1.021-11.847-5.775-21.938
				c-1.518,4.535-2.784,8.469-4.156,12.369c-1.436,4.091-4.67,7.508-5.27,12.875C363.808,189.18,368.666,188.126,373.326,187.11z
				 M275.643,183.394c3.907-7.623,5.197-18.172,3.483-26.052c-4.79,7.168-9.395,14.063-14.384,21.529
				C268.664,180.498,271.906,181.844,275.643,183.394z M304.678,377.292c0.168,7.337,2.502,14.225,4.741,21.818
				c5.147-0.939,9.862-1.803,15.186-2.773C317.547,389.594,311.243,383.566,304.678,377.292z M438.895,557.868
				c5.854,0.652,5.854,0.652,10.068-1.913c-0.429-6.671,0.852-13.673-0.742-22.187C443.337,541.982,438.373,548.455,438.895,557.868
				z M381.146,405.703c-0.657-5.935-0.657-5.937-3.555-7.423c-5.995-3.076-11.711-2.521-17.545,1.33
				C365.718,406.081,372.382,408.119,381.146,405.703z"/>
			<path fill="#FFFFFF" d="M129.854,480.945c-0.837,2.065-1.294,3.194-1.928,4.757c5.827,2.771,11.659,4.882,16.732,8.16
				c4.736,3.067,9.792,6.412,11.787,13.354c-9.454,0-18.287-0.279-27.092,0.101c-5.526,0.238-11.064,1.214-16.481,2.386
				c-1.742,0.378-3.117,2.447-3.964,5.334c10.998-0.501,22.082-2.086,32.967-1.205c10.965,0.89,21.795,3.973,32.572,6.565
				c10.767,2.595,20.74,7.365,31.732,12.321c-6.423,4.478-15.57,3.019-18.622,11.282c3.371,2.015,5.962,0.517,8.822-0.177
				c7.6-1.837,15.263-3.88,23.013-4.541c18.566-1.581,33.643,6.725,47.372,18.208c2.643,2.213,4.456,5.964,9.396,5.183
				c1.733-8.897-7.935-10.892-10.714-17.854c15.381,0.874,30.177,2.414,44.567,8.748c0,12.444,0,24.892,0,37.871
				c-8.452,3.494-17.622,2.973-26.875,3.286c-2.096-1.447-4.204-2.902-6.288-4.342c-1.172,0.652-1.991,1.107-2.687,1.497
				c-1.368,6.738,5.906,11.536,3.889,18.939c-6.488-4.143-4.788-12.649-10.577-16.796c-6.353,4.297-4.62,13.844-11.584,18.506
				c-0.958-7.689,5.709-12.915,4.419-20.909c-2.833,1.866-4.904,3.231-6.856,4.52c-16.869,0-33.757,1.014-50.479-0.216
				c-33.303-2.445-66.3-7.61-98.188-17.826c-17.13-5.489-33.972-12.034-48.846-22.73c-8.921-6.417-16.967-13.429-21.587-23.895
				c-6.49,0.477-11.176,7.247-19.512,5.051c5.487-2.932,9.918-5.301,15.745-8.419c-5.735-3.63-10.284-6.511-15.026-9.512
				c4.615-1.053,4.615-1.053,18.084,4.62c0.924-1.516,1.984-3.055,2.843-4.7c6.234-11.905,16.913-19.113,27.941-25.637
				c21.305-12.593,44.215-21.101,68.667-25.34c6.674-1.157,13.291-2.646,20.589-4.116c0,9.131,0,17.2,0,25.881
				C145.709,486.499,137.931,483.774,129.854,480.945z"/>
			<path fill="#FFFFFF" d="M218.293,240.445c3.705,3.194,6.333,5.459,9.982,8.606c1.18-5.452,2.104-9.48,2.915-13.531
				c1.254-6.269,4.063-11.787,8.423-16.384c5.951-6.275,13.093-9.72,22.66-8.143c-16.55,11.31-18.739,27.791-16.566,45.128
				c1.1,8.773,6.072,16.005,17.054,16.767c11.361-1.732,17.427-9.856,19.886-26.504c1.095-7.418,0.186-15.134,0.186-22.917
				c0.939-0.629,2-1.341,3.218-2.157c2.875-6.376-2.569-9.982-5.483-14.563c3.814-3.313,7.422-6.444,12.863-11.168
				c-2.229,5.22-3.559,8.325-4.889,11.438c2.904,5.195,7.411,3.422,11.389,2.507c10.423-2.394,19.725-7.028,27.317-14.756
				c1.151-1.171,2.421-2.228,4.152-3.81c0.793,7.161-5.216,11.989-4.963,18.619c5.881,2.558,10.256-1.243,14.563-3.614
				c4.259-2.343,7.86-5.885,12.127-9.19c6.772-1.313,14.081-2.73,21.621-4.194c3.532,10.664,4.035,20.983-0.832,32.775
				c-1.54-3.369-2.42-5.625-3.564-7.735c-3.979-7.349-11.239-9.567-18.207-5.042c-2.895,1.883-5.692,4.709-7.212,7.762
				c-6.529,13.132-9.736,26.959-6.826,41.709c0.852,4.321,2.452,8.182,7.05,11.198c1.801,0.146,4.371,0.355,6.762,0.549
				c12.614-7.878,11.108-21.655,14.945-34.202c1.38,1.608,2.986,2.639,2.941,3.59c-0.118,2.568-0.853,5.127-1.503,7.648
				c-2.192,8.506-4.26,16.907-2.857,25.937c0.737,4.752,0.338,9.89-0.596,14.65c-1.64,8.333-8.006,13.394-14.572,17.858
				c-9.347,6.362-20.06,9.679-30.969,11.82c-21.844,4.284-43.838,3.832-65.587-0.6c-11.161-2.271-22.046-5.931-33.013-9.105
				c-2.794-0.809-5.431-2.162-8.621-3.461c-1.368-4.582-2.731-9.156-4.383-14.688c6.732,1.403,12.645,2.641,18.458,3.853
				c0.951-0.817,1.687-1.456,2.957-2.55c-19.024-21.727-22.625-47.821-21.101-76.406c18.773-7.872,36.544-18.133,50.875-34.164
				c5.508,1.786,10.682,3.467,16.29,5.289c-1.192,4.027-2.187,7.385-3.399,11.487c-5.332-0.676-10.457-2.065-15.477-1.751
				c-4.777,0.294-9.815,1.654-14.059,3.851c-4.522,2.341-8.721,5.783-12.186,9.55c-3.267,3.55-6.012,7.892-7.853,12.354
				C220.261,229.475,219.649,234.747,218.293,240.445z"/>
			<path fill="#FFFFFF" d="M221.784,339.481c2.173,3.167,4.685,6.202,6.514,9.604c6.687,12.445,14.29,24.251,22.739,35.587
				c9.054,12.152,21.194,18.146,35.887,19.67c7.484,0.776,15.065,0.911,22.458,2.176c4.084,0.696,7.654,0.569,11.171-1.313
				c15.332-8.226,29.142-5.777,42.825,6.098c-2.354,3.927-5.612,3.309-9.101,2.001c-3.296-1.23-6.626-2.385-10.136-3.642
				c-1.857,2.302-3.263,4.044-4.672,5.784c-4.547,5.617-9.936,8.854-17.641,9.117c-6.059,0.207-12.065,2.486-18.05,4.014
				c-4.733,1.209-9.398,2.68-15.905,4.555c-0.495,0.783-1.917,3.022-3.542,5.588c-9.433-1.028-18.31-1.343-26.893-3.094
				c-10.85-2.209-19.646-8.638-27.775-16.011c-12.105-10.979-21.269-24.026-28.255-38.735c-1.777-3.739-2.909-8.124-7.722-10.223
				c-0.917,0.561-1.966,1.204-3.114,1.909c0.46,9.698,8.794,15.889,10.759,25.435c-7.56,0.274-12.995-2.406-16.84-8.31
				c-2.86-17.313,4.611-41.26,16.514-52.604c3.025,0.604,6.179,1.438,9.389,1.828C213.648,339.308,216.953,339.265,221.784,339.481z
				"/>
			<path fill="#FFFFFF" d="M336.694,504.205c10.254,5.293,20.262,10.458,30.571,15.781c2.392-2.351,4.345-4.014,5.984-5.944
				c2.11-2.486,3.846-5.295,5.962-7.78c6.349-7.454,10.271-9.021,20.649-8.495c9.217,5.294,8.859,14.372,7.105,22.604
				c-3.538,16.606-8.833,32.749-18.656,46.268c-7.088,5.063-14.032,4.813-21.027,1.811c-10.166-4.371-20.244-8.951-30.59-13.546
				C336.694,537.853,336.694,521.191,336.694,504.205z"/>
			<path fill="#FFFFFF" d="M293.264,453.866c0-4.806,0-8.029,0-11.932c78.881-1.018,157.365,1.179,236.579,2.531
				c0.111,2.313,0.255,4.505,0.313,6.696c0.055,1.935,0.012,3.863,0.012,6.495c-2.66,0.184-4.837,0.47-7.018,0.458
				c-40.179-0.175-80.396,0.677-120.515-0.928c-32.229-1.287-64.432-0.971-96.638-1.702
				C301.854,455.391,297.729,454.454,293.264,453.866z"/>
			<path fill="#FFFFFF" d="M588.547,416.603c11.635,0.656,22.701,1.283,33.769,1.913c0.021,0.306,0.042,0.611,0.061,0.916
				c-18.361,3.549-36.721,7.115-55.085,10.638c-4.489,0.86-9.2,1.018-13.472,2.479c-11.441,3.913-23.172,3.907-35.013,3.78
				c-26.679-0.286-53.364-0.239-80.044-0.571c-38.811-0.487-77.619-1.191-116.427-1.795c-1.612-0.026-3.227-0.005-4.919-1.529
				c3.193-0.138,6.384-0.38,9.576-0.394c16.14-0.047,32.301-0.528,48.417,0.109c15.559,0.616,30.719-1.527,45.873-4.284
				c14.12-2.565,28.21-5.313,42.312-7.953c3.585-0.613,2.123-8.18,8.438-6.035c-1.485,4.636-5.959,8.831-0.07,14.313
				c2.277,0,5.515,0.008,8.75-0.005c16.467-0.065,32.942,0.091,49.405-0.309c8.16-0.191,16.316-1.206,24.43-2.224
				c6.789-0.852,13.471-2.683,20.268-3.256C580.316,421.938,585.076,420.511,588.547,416.603z"/>
			<path fill="#FFFFFF" d="M486.538,189.269c-11.24,62.162-22.367,123.697-33.638,186.028c-3.65-1.618-6.233-2.758-9.262-4.096
				c10.638-60.947,21.72-121.481,33.043-181.933C480.44,189.269,483.231,189.269,486.538,189.269z"/>
			<path fill="#FFFFFF" d="M405.837,551.485c3.68-14.882,11.243-28.817,8.177-44.917c4.928-4.597,10.033-9.542,15.352-14.26
				c5.014-4.451,10.454-6.982,16.889-1.944c3.363,4.416,3.217,9.551,1.844,14.761c-3.563,13.568-7.365,27.074-15.296,38.91
				c-2.876,4.291-6.15,8.316-8.665,11.683C416.083,558.278,410.859,555.365,405.837,551.485z"/>
			<path fill="#FFFFFF" d="M538.17,457.365c-2.86-4.33-1.499-8.104-1.278-12.177c2.778-1.127,5.072-2.496,7.539-2.999
				c36.983-7.567,73.989-15.025,111.643-22.638c0,4.12,0,7.242,0,11.228C616.577,439.684,577.323,448.537,538.17,457.365z"/>
			<path fill="#FFFFFF" d="M516.569,477.859c3.144,0,5.97,0,9.307,0c0,41.93,0,83.605,0,126.005c-3.2,0-6.286,0-10.42,0
				c-0.286-2.921-0.792-5.729-0.797-8.536c-0.042-18.771-0.205-37.549,0.113-56.315
				C515.108,518.984,515.928,498.963,516.569,477.859z"/>
			<path fill="#FFFFFF" d="M318.442,596.991c0-41.489,0-82.971,0-125.254c3.5,0.916,6.487,1.698,9.783,2.558
				c0,41.123,0,81.945,0,122.768C323.301,598.553,323.301,598.553,318.442,596.991z"/>
			<path fill="#FFFFFF" d="M640.448,567.754c-3.154,0.35-5.596,0.615-7.713,0.853c-0.742-1.125-1.399-1.655-1.399-2.185
				c-0.051-35.844-0.043-71.689-0.043-108.094c2.753-1.479,5.557-2.988,9.155-4.926
				C640.448,491.655,640.448,529.025,640.448,567.754z"/>
			<path fill="#FFFFFF" d="M516.765,238.424c5.038-0.768,8.829-1.892,12.592-1.806c8.822,0.202,17.635,0.962,26.446,1.541
				c9.474,0.62,18.938,1.255,28.398,1.995c1.091,0.088,2.124,0.899,5.17,2.266c-12.594,3.368-22.972-0.162-33.329-0.146
				c-10.847,0.013-21.691,0-33.504,0c-0.61,1.365-1.913,3.26-2.313,5.328c-3.384,17.593-6.63,35.21-9.853,52.833
				c-1.466,8.016-2.718,16.069-4.218,24.077c-0.414,2.2-1.39,4.292-2.119,6.477c-4.434-0.606-3.729-3.61-3.349-5.954
				c1.36-8.359,2.989-16.677,4.48-25.014c2.409-13.466,4.733-26.949,7.216-40.403C513.616,252.95,515.119,246.337,516.765,238.424z"
				/>
			<path fill="#FFFFFF" d="M365.563,511.267c-8.021-4.139-15.491-7.992-23.275-12.006c4.928-11.018,13.18-16.569,23.763-19.499
				c7.057,3.49,14.057,6.955,21.385,10.587c-4.432,3.267-8.902,5.945-12.587,9.452C371.366,503.117,368.708,507.303,365.563,511.267
				z"/>
			<path fill="#FFFFFF" d="M270.068,334.022c3.253,6.515,5.975,11.963,9.241,18.501c-12.245,0.924-23.53,0.601-34.193,0.649
				c-4.198-8.882-8.021-16.979-12.557-26.578c2.929,1.183,4.566,1.771,6.139,2.498c3.25,1.508,6.426,3.182,9.705,4.616
				C255.106,336.644,261.911,338.681,270.068,334.022z"/>
			<path fill="#FFFFFF" d="M527.702,354.275c6.188,20.806,9.87,41.268,13.97,61.624c0.215,1.071-0.751,2.377-1.314,3.999
				c-21.208,1.297-42.249,3.018-63.743,0.123c1.214-0.534,2.405-1.475,3.642-1.544c15.374-0.896,30.756-1.624,46.128-2.517
				c2.451-0.139,4.872-0.862,8.201-1.484c-2.1-19.298-6.094-37.331-10.242-55.853C525.137,357.596,526.099,356.346,527.702,354.275z
				"/>
			<path fill="#FFFFFF" d="M310.394,506.784c0,11.866,0.01,22.274-0.007,32.685c-0.004,1.58-0.133,3.159-0.237,5.523
				c-6.705-1.982-12.729-3.766-19.533-5.78C292.876,526.085,299.449,516.196,310.394,506.784z"/>
			<path fill="#FFFFFF" d="M336.324,563.472c12.107,4.833,23.604,9.419,35.336,14.098c-8.376,4.768-25.92,9.063-34.893,8.54
				c-0.144-1.176-0.413-2.42-0.425-3.668C336.299,576.266,336.324,570.086,336.324,563.472z"/>
			<path fill="#FFFFFF" d="M373.326,187.11c-4.66,1.018-9.519,2.07-15.201,3.307c0.6-5.367,3.834-8.784,5.27-12.875
				c1.372-3.899,2.64-7.833,4.156-12.369C372.304,175.262,373.188,178.576,373.326,187.11z"/>
			<path fill="#FFFFFF" d="M275.643,183.394c-3.736-1.55-6.979-2.896-10.901-4.522c4.989-7.468,9.594-14.361,14.384-21.529
				C280.839,165.221,279.549,175.771,275.643,183.394z"/>
			<path fill="#FFFFFF" d="M304.678,377.292c6.564,6.272,12.869,12.302,19.925,19.045c-5.321,0.972-10.036,1.834-15.185,2.773
				C307.18,391.517,304.847,384.629,304.678,377.292z"/>
			<path fill="#FFFFFF" d="M438.895,557.868c-0.521-9.413,4.442-15.888,9.326-24.1c1.593,8.514,0.313,15.516,0.742,22.188
				C444.749,558.522,444.749,558.522,438.895,557.868z"/>
			<path fill="#FFFFFF" d="M381.146,405.703c-8.764,2.416-15.428,0.378-21.1-6.093c5.834-3.851,11.55-4.406,17.545-1.33
				C380.488,399.768,380.488,399.77,381.146,405.703z"/>
		</g>
	</g>
</g>
<line fill="none" stroke="#000000" stroke-width="4" stroke-miterlimit="10" x1="302.904" y1="299.405" x2="313.404" y2="299.405"/>
</svg>
