<svg xmlns="http://www.w3.org/2000/svg" xml:space="preserve" viewBox="-3 -2 984 984"><path fill="#FFF" d="M-3 490a492 492 0 1 1 984 0 492 492 0 0 1-984 0z"/><path fill="#040000" d="m699 936 14-7h-44a837 837 0 0 1-51-3l4-3c4-3 3-4-11-25l-12-18V657l3-32 1-23 1-5 9 1h357l8-43a70413 70413 0 0 0-437 1l-36 13c-42 13-42 13-43 17l-2 3v-13l30-11 48-17a53882 53882 0 0 0 370-1h71v-3a1404 1404 0 0 1-39-4l-17-5-15-3-8-1c-3 0-4 0-3-2 0-3-2-8-8-21l-15-35 21-5c32-6 34-7 37-12l2-15a1202 1202 0 0 1 6-47c1-8 2-9 6-9s7-3 7-8c1-8 1-9 7-9 2 0 5 0 6-2-11-42-27-81-48-118l-1 6-2 14a3362 3362 0 0 0-10 75l-4 28-5 36c-4 26-5 29-6 30l-10 4-25 6-40 11-62 17a2498 2498 0 0 0 6-55l2-14 7-50 6-42 2-11 4-31 4-22 13-7a9990 9990 0 0 0 87-46l-13-17a4130 4130 0 0 0-43 25l-28 16a870 870 0 0 1-30 20l-5 30-3 19a583 583 0 0 0-10 70l-2 10-2 15a1572 1572 0 0 1-13 97c-1 7 0 8 9 11l6 3 10-2 69-13c2-1 2-1 3 2l10 22 10 19h-13c-26 0-40 1-50 3-14 3-19 5-25 11l-4 5-56 1 1-7v-7l3-1 5-2 1-14c0-10-1-13-2-14-2-2-10-2-19 0h-8l-1-8c-1-7-1-7-3-7a258 258 0 0 1-24 5l-1 10c0 8 0 10 2 10l37-8c9-2 12-2 12 1a532 532 0 0 0-91 20 634 634 0 0 0-69 16c-12 4-14 4-14 3 0-3 4-5 19-9l16-4-1-7c-1-10-2-11-4-7l-2 7c0 3-1 4-3 5l-2 2c1 1-10 4-17 5-11 2-12 2-11 7l-1 6-14 6a912 912 0 0 0-58 25c0 5 3 11 5 13 1 0 2 2 2 5l3 6c2 2 2 2 15 1h13l1 24-2 35-6-3c-11-9-33-24-42-29l-11-5 1-6c0-7 0-7-8-10a617 617 0 0 1-47-18l2-11 2-10h4a210 210 0 0 0 84-28c13-7 14-7 18-6 5 0 17-1 22-4 5-2 9-6 15-16l7-8 5 3c6 4 10 4 15 1 4-2 8-10 7-13-2-3-1-4 7-4s14-2 17-6c5-7 1-13-12-20s-22-9-40-9c-37 0-51 6-67 29l-7 8c-5 2-19 3-38 4h-21l1-4 1-14c0-9 0-13-2-19-3-9-13-29-21-42-9-16-16-31-16-33l1-5 1-4 4 3c6 3 12 5 23 7 10 2 20 3 22 1 1 0 1-2-3-4-5-5-9-10-11-18-3-7-3-7-1-7s4 2 6 4c7 8 15 13 43 27l9 6c1 0-2 4-5 6s-5 5-3 6h10c7-1 10-1 16-4 9-5 19-15 24-23 7-13 8-35 1-57l-2-7 2-6c4-11 3-13-1-15-5-2-5-2-3-10l2-6 7-2c31-11 48-27 56-53 4-12 5-17 4-30 0-16-4-27-12-44-7-14-11-21-23-33-8-9-8-9 6-3 18 7 36 6 49-3 9-6 14-14 14-23 0-5-2-8-3-5-7 19-19 27-40 27-11 0-23-4-39-14a400 400 0 0 0-30-17l13-1c14 1 14 0 21-3 9-4 16-10 19-16 3-5 3-6 3-13 0-8 0-9-3-15-3-7-7-10-12-11-3-1-3-1 0 2 6 7 8 21 5 29-6 12-23 19-41 18-11-1-20-4-40-12-40-15-93-24-123-18-36 6-61 20-85 49-7 8-39 57-48 72-9 17-16 33-19 47-4 13-4 14-3 26 0 11 1 15 3 21l10 29c4 14 9 25 16 34 11 13 15 16 33 25 15 8 21 10 27 9 3 0 3 0-2-4-9-5-17-15-20-23l-1-6c0-2 1 0 4 4 7 11 26 25 40 30 6 2 20 4 30 4 5 0 7 0 6 1l-9 10a249 249 0 0 0-57 106l-10 44c-4 15-8 30-10 32l-15 1h-15l-1-6c-1-11-5-25-9-36-5-14-5-13-19-37-11-18-19-37-23-49a401 401 0 0 1-10-46c0-2-4-5-9-8l-8-5 6-2c8-3 13-6 17-11 12-15 19-42 17-70-1-17-5-26-19-42-8-9-16-15-27-20-5-2-7-2-17-2-9 0-12 0-16 2s-7 4-9 7l-1 2-1 3a1236 1236 0 0 0-4 162c3 46 9 76 21 109 20 57 19 57 23 82 2 20 3 25 6 29 2 4 5 5 10 6l4 2-1 13a634 634 0 0 1-2 41c0 17 2 22 10 31 10 10 22 14 37 13l7-1 3 5 6 7 4 4 30-1h29l3 10c4 12 7 17 12 17l12 1h10l-1 13v13h-6l-7 3c-1 1-2 7-2 34v10l-6 1c-8 0-7 0-23 4a208 208 0 0 0-70 29l18 14a315 315 0 0 1 90-12c1 0 2 2 2 6 0 5 2 11 4 11 3 0 1 2-2 3-5 2-11 9-13 16-2 6-1 11 4 17 3 3 3 3 0 3h-14l15 8h416zm-87-8c1 0 2 0 1 1h-2l1-1zm165-392c11-6 25-8 58-8l25 1c0 2-3 3-21 4a198 198 0 0 0-69 11c-3 0 2-6 7-8zM518 712c7-9 7-12 6-28-3-27-3-37-2-60l1-24 8-1 20-1 12 1v45a26611 26611 0 0 0 1 194c-1 1-2-2-4-7a550 550 0 0 0-22-58l-10-25-5-12-5-13-3-7 3-4zm-91-84h-3c-1-1-1-1 1-1l2 1zm122-123c-1 1-2 1-6-4l-5-6 5-1 5 3c3 3 3 5 1 8zm-79-12c9-13 17-20 28-23 7-2 13-2 14-1l-1 1c-2 0-16 11-24 19-8 7-9 8-12 8l-6 1c-3 0-3 0 1-5zm-68 15 62-2 17-1 9-10c9-9 22-19 29-23 5-3 14-4 27-4l10 1 11 5 11 7-4 3c-3 4-8 4-21 1-10-1-15-1-18 2l-5 9-16 24c-6 6-12 7-23 7-9 0-10 0-17 3-26 12-53 21-69 23-28 4-45 0-58-13l-7-7 4-4c5-6 14-13 24-19 10-5 13-6 14-3l20 1zm-37-99c0 2-5-1-10-5-5-6-5-6 4 0l6 5zm-20-188c-4-2-3-3 5-3 8 1 13 0 19-2l5-1c0 1 0 1 0 0 1-2 15-9 17-9l2-1 10-7 1-1h2c2 0 2 0 1-1-2-1-2-1 0-2l12-11a122 122 0 0 0 36-78c0-4 0-5 1-4l1 7-2 15c-7 38-33 71-71 90a71 71 0 0 0-12 6l-4 2c-4 2-20 2-23 0zm-24-35c-11 1-8-2 9-9a145 145 0 0 0 72-54l-1 4c-6 12-24 32-39 42-13 9-30 15-41 17zm75 191a167 167 0 0 1-30-94c2 19 6 33 11 42l1 4v-33a235 235 0 0 1 6-64v44c-1 36 0 46 1 57 2 19 3 23 8 34l3 10zm101-38 1 13v4a680 680 0 0 0-1-17zm0-99-8 16c-9 15-10 19-10 27l1 10c1 4 5 7 10 10l4 3-6 12c-7 16-14 23-27 29-11 5-16 6-28 6-11 0-20-1-33-6l-8-2-1-15c-2-28-2-92 1-100l10-4c9-2 22-8 30-13 9-6 10-6 19-5 5 1 12 3 17 6 9 4 12 4 13 0 1-3-2-8-8-11l-14-3h-9l4-5c8-8 12-14 15-21l4-7h1a972 972 0 0 0 20 55l6 11-3 7zM409 56c19 4 40 12 55 21 34 19 50 33 68 57 21 28 29 64 21 91l-13 21 3-9c5-15 5-30 0-49-3-12-9-26-16-37l-11-13 4 10c9 18 14 32 13 43 0 10-1 11-2 3-1-15-7-27-22-48a229 229 0 0 0-63-57l-1 5a115 115 0 0 1-97 99c-6 1-4-2 5-4a128 128 0 0 0 76-59c8-13 11-22 13-32 1-11 0-13-7-17a119 119 0 0 0-40-16l-5-1-6-1-5-1c1-1 0-1 0 0-1 1-2 1-5-1h-2l1 1-4 1-5-1 15-4h2l5-2 7-1c2-1 10-1 16 1zM183 235c0-11 2-25 7-37a530 530 0 0 1 24-43l-6 19c-8 21-18 49-21 62-4 14-4 14-4-1zm46 98c-1 1-7-4-12-10-9-9-13-21-13-36l2-20v10c0 9 1 12 3 19a181 181 0 0 0 20 37zm17-220h-1l-5 10-7 17-1 3v2l-1 1h1l-2 1v2l-6 17a15942 15942 0 0 0-22 63c-4 6-8 26-9 41-1 14-1 15-2 12-1-2-2-6-2-16 0-15 0-12 11-51l7-20 3-7 7-21 4-15 3-11c2-9 31-53 42-63 15-13 24-18 45-25 15-5 24-6 41-5l26 2c11 1 16 3 10 3-11 1-16 2-32 8l-15 4 9-5 8-3 8-2c7-1 6-3-1-3l-15 2c-15 1-28 3-36 6a126 126 0 0 0-24 12l-18 14-5 4v1l-21 22zm70 145-1 12-3 11c-1 6-1 7-4 7-4 0-13-3-20-7-10-6-16-14-20-26-2-5-3-7-2-16 0-12 2-17 8-24 5-5 9-8 15-11 7-2 18-3 25 0 2 1 7 3 10 6 5 3 6 4 5 7l-6 19c-1 1-4-1-7-3-11-8-21-9-30-1-4 4-6 9-3 12 1 1 2 1 5-2 4-4 7-5 13-5 4 0 5 1 10 6l6 6-1 9zm3 65c-1-8-2-26-1-33 2-13 2-12 3 6 0 14 1 20 2 26 3 10 7 17 14 27 7 11 11 16 17 20 3 3 4 3 2 3-15-5-33-29-37-49zm-1 84c7-3 15-3 22 0l13 9 15 10 7 3 7 15 9 21c2 8 3 18 2 21s-1 3-5-7c-9-20-22-45-27-50l-4-4a608 608 0 0 0 30 70c-12-4-26-3-45 3-6 1-11 3-12 2l-1-4v-4l-1-4-3-7v-1l-1-2v-1l-3-7-1-2v-1l-2-7c-4-11-6-21-6-33-1-16 0-17 6-20zm-13-25c2-2 7-3 7-1v1h3l-5 1-7 1 2-2zm-19 73 6-15-1 8c-2 10-1 28 4 59 1 11 2 11 7 6s17-10 19-10h2l4-1h3l-9 6c-8 5-17 12-17 15 0 2 4 3 12 4l9 2c1 2-2 2-13 2-18-1-20-3-24-24-2-13-3-44-2-52zm1 188a288 288 0 0 1 68-40c-1-1-34 5-52 8a136 136 0 0 1 40-17h1l1-1 2-1v1l2-2v-3h-1v-1l-1-1h-1v-1h-2v-2l-2-2v-1c-5-2-15-6-19-6-2 0-5-2-4-3l9-1 12-3c5-3 11-5 14-4l11 1c10 0 9 0 7 13l-1 13-2 5-1 2h7c8 0 8 0 10 2s3 3 5 3l11 3 16 6c10 4 11 6 7 7-6 1-16 7-30 18l-15 12-3 2-2 1c-1-1-1 0-2 1 0 2-9 7-13 7-2 0-4-2-4-3 1-1 2-2 4-1 3 0 3 0 1-1l-5-1-1-1h-3l-2-1-1-1h-23l11-12c12-12 27-25 38-30 8-4 7-5-3-2s-26 10-44 19l-39 19-6 3 5-4zM81 231c0-2 5-5 9-6 5-1 19 0 26 2 16 6 35 26 40 41 4 14 3 41-3 57-2 8-8 19-12 24-4 4-12 8-18 8h-9c-4 0-5 0-4-2l4-3c6-4 10-12 13-26 4-18 3-60-2-76-2-7-5-11-11-14-6-4-11-4-24-4l-9-1zm46 217a230 230 0 0 1-17-68c0-3-1-5-3-6-2-2-8-4-13-4-6 0-10-1-10-2l12-1c12 1 14 1 21 4 10 4 17 9 19 12l4 22c6 30 11 43 31 77 14 23 19 38 24 64 1 6 2 12 1 22 0 14-2 21-6 30-3 6-3 6-4 4l1-4-1-32c-1-14-6-30-15-47-4-8-10-18-24-36-8-11-14-21-20-35zm53 247c-5 0-15-2-18-4-5-4-6-6-5-27a667 667 0 0 0 4-43l16-4c6-3 15-13 18-19l2-5h12l12 1c0 5 3-6 6-18 1-6 8-25 10-28h2a406 406 0 0 0-7 28l-7 16c-8 16-11 30-11 50 0 12 1 19 4 28 0 1-2 2-7 3-14 5-22 10-25 18-2 4-2 4-6 4zm76-15-9 2c-10 0-35 6-41 8-8 3-12 6-15 12l-3 5v-9c4-13 10-16 37-23 34-8 76-11 113-7 57 6 76 14 85 33l2 13c0 7 0 8-3 12-3 6-8 10-11 10-4 0-8 4-14 19l-10 19c-9 22-20 40-28 48l-10 9c-6 4-7 5-11 5h-4v-15l-1-22c-1-8 0-7-11-8l-5-1v-14l1-14h11l14-1c4-1 6-5 9-16l2-9h25c27 0 27 0 34-8 8-8 7-21-1-28l-12-7c-22-9-54-14-96-14l-48 1zm40 178c0-16 0-18 2-21 2-2 3-3 7-3 6-1 9 0 10 3 1 2 2 8 2 21v18h-22l1-18zm89 70h-59l2-5c3-6 4-9 3-15-2-6-5-10-11-14l-6-4 4-1c3-2 5-5 5-12v-5h4c4 0 4 0 6 4s4 7 13 14c3 2 6 6 9 11 6 12 13 19 23 23 6 2 8 4 7 4zm50-35c-7 2-16 16-14 23l4 7 4 5h-40l3-3c4-2 6-7 4-12l-5-6c-7-6-8-9-8-22v-12l14 3c19 4 42 12 42 15l-4 2zm31 35 3-6c4-7 5-11 1-19-3-6-8-9-17-11l-7-2 3-4c4-4 3-9-3-14-5-5-23-15-39-21l-10-5 10-9a11987 11987 0 0 0 57-50l8 12 16 21 16 19 12 15 9 11c7 8 11 16 14 28l6 16c2 4 3 4 10 6l8 2v5c0 5-1 5-3 6l-15 1-18-1h-5v-30c0-29 0-31-2-33-2-3-7-3-11 0-3 2-3 3-4 9-2 12-3 24-3 39v15h-7a702 702 0 0 0-29 0z"/><path fill="#040000" stroke="#FFF" stroke-miterlimit="10" d="m894 682 1-6 1-15c1-9 1-9-3-16-1-3-5-8-7-9-13-12-43-12-63-2-16 8-36 32-36 43 0 5 1 4-21 7-8 0-18 2-22 3l-21 3c-14 2-18 4-22 11-3 7-3 17-3 116l1 97 2 3c4 4 8 6 14 6h5l1 1h1v1l8-5h-2c-14 0-15 0-19-2l-4-6c-2-5-2-200-1-205 2-5 4-8 8-9a411 411 0 0 1 58-9c5 1 5 1 8 5l3 5v75l-1 114c68-50 123-116 158-193H785l-3-4-2-3 38-1a1524 1524 0 0 1 122 2l3-5c-4-1-11-2-25-2h-24zm-17-43-13 1-11 1-10 5c-11 5-19 12-27 24l-6 8-6 1c-9 2-9 2-9-3s4-13 11-21c9-10 20-17 32-20 9-3 26-2 34 1l5 3zm-22-335 9-3 17-7 2-7 2-22 3-15c0-2-4-1-18 5l-15 5-8 47 8-3zm45-69 5-1 3-2-7-11-1 14zm-25 76-16 5-15 6-1 8-2 13-1 6 11-3 17-5 6-2 1-10a1343 1343 0 0 1 0-18z"/><path fill="#040000" d="M771 704a901 901 0 0 0-55 6c-5 1-6 3-6 11v96l1 92 3 1h33l24-16V704zm-45 34 33-5h4v9l-1 11c-1 1-35 5-37 4v-9l1-10zm20 118c-1-1-2 3-3 10l-3 13c-1 4-4 5-7 3-8-6-9-26-1-32 4-4 9-4 12 0l2 5v1zm-17-36 1-6c2-2 8-2 10 0 1 3 0 12-2 14-5 5-10 0-9-8zm29 7c-2 5-3 5-6 2-2-2-2-3-2-8v-8c1-3 4-2 6 0 2 3 3 9 2 14zm-8-32-18 1h-6l-1-3v-5c0-2 1-3 5-3l29-3 4 1v5c1 6 1 6-13 7z"/><path fill="#040000" stroke="#FFF" stroke-miterlimit="10" d="m922 529-6-2h-15c-5 1-2 2 7 3l19 1c5 1 1-1-5-2zM787 364a669 669 0 0 1 41-15l1-4a379 379 0 0 1 7-44 900 900 0 0 1 9-62l-4 2-48 25-1 6a582 582 0 0 1-8 51 2062 2062 0 0 1-6 44l9-3zm106-72c-3 1-3 2-4 4l-1 11-1 8 6-2 5-1 1-9 1-11c1-2-1-3-7 0zm-1-9 5-2 5-2 5-24c0-2-1-2-7-1-4 0-4 0-7 24l-1 5zM595 506l-2-1-12 2c-11 1-11 1-11 4l1 9c1 8 0 8 13 5l10-2c2-1 3-2 3-9 0-6-1-8-2-8zm263-267-2 12c-1 3 0 3 6 0l16-7c12-5 14-6 13-7l2-21c1-4 0-4-6 0l-16 8-12 6-1 9zM375 53l-1-1-2 1h3zm402 365-5 2c-2 1-6 35-5 35l7-1 8-1v-4l1-15c2-20 3-19-6-16zM460 243c-7-5-12-7-28-8-13-2-15-2-18-4-5-4-6-4-6 0 0 3 3 13 6 16l8 4c9 1 8 0 8 9 0 11 2 17 8 23s11 8 12 5l4-9 5-13 2-5 4 1c5 0 5-1 2-9-2-6-4-8-7-10zm153 275c12-2 12-2 12-4l-1-8-1-7h-5l-10 2-7 1v18l12-2zm17-3a459 459 0 0 1 22-7v-14h-5l-6 1-8 1h-5v10c0 9 0 9 2 9zm163-98c-1 5-3 27-2 30 1 4 1 4 3 3 4-1 4-1 8-31l1-4h-5c-4 0-4 0-5 2zm20-6-4 4c-1 8-4 30-3 31l5-1 4-1 1-7 3-25c1-2 0-2-6-1zm-32-11c-7 3-8 4-8 7 0 2 1 3 9 1 6-1 8-3 8-7 0-3-1-4-9-1zm95 4c-2 0-2 1-3 8l-2 10c-1 2 0 2 5 2l6-2 1-10c1-10 1-9-7-8zm-57-14-4 1-8 2c-7 2-8 3-8 10 0 4-2 4 13-1l10-3v-5c0-4-1-4-3-4zm50-40-31 9-1 8a11134 11134 0 0 1-9 70l11-3 16-5 5-2 3-16 7-41 2-19c1-2 1-2-3-1z"/></svg>