<?xml version="1.0" encoding="utf-8"?>
<!-- Generator: Adobe Illustrator 16.0.3, SVG Export Plug-In . SVG Version: 6.00 Build 0)  -->
<!DOCTYPE svg PUBLIC "-//W3C//DTD SVG 1.1//EN" "http://www.w3.org/Graphics/SVG/1.1/DTD/svg11.dtd">
<svg version="1.1" id="レイヤー_1" xmlns="http://www.w3.org/2000/svg" xmlns:xlink="http://www.w3.org/1999/xlink" x="0px"
	 y="0px" width="505.362px" height="643.781px" viewBox="0 0 505.362 643.781" enable-background="new 0 0 505.362 643.781"
	 xml:space="preserve">
<path fill-rule="evenodd" clip-rule="evenodd" d="M159.472,109.694c1.017-5.346,1.814-10.494,2.994-15.553
	c3.08-13.208,9.132-25.041,17.044-35.984c2.046-2.83,3.993-5.732,5.93-8.64c1.877-2.817,3.971-5.28,6.86-7.265
	c2.514-1.727,4.248-4.542,6.547-6.634c15.171-13.804,33.12-22.559,52.538-28.544c19.801-6.103,40.148-8.211,60.703-6.502
	c24.406,2.03,47.097,9.36,67.234,23.905c19.763,14.276,33.43,32.958,41.87,55.673c3.879,10.438,6.862,21.091,8.305,32.157
	c0.173,1.33,0.507,2.857,1.314,3.848c3.144,3.86,6.19,7.891,9.857,11.214c7.058,6.395,17.05,4.738,23.33-0.465
	c0.558-0.461,1.07-0.976,2.294-2.098c-0.765,6.229-2.249,11.179-6.185,15.141c-4.138,4.167-9.283,5.029-15.643,4.025
	c0.818,1.724,1.278,2.905,1.909,3.988c5.203,8.926,8.235,18.446,7.69,28.875c-0.43,8.213-3.209,15.35-10.129,20.375
	c-0.701,0.509-1.453,0.958-2.218,1.369c-0.395,0.212-0.866,0.279-1.898,0.592c5.497-8.601,6.35-17.395,3.927-26.543
	c-1.39-5.246-3-10.453-6.774-14.545c-0.327,0.082-0.654,0.163-0.981,0.245c0.406,3.09,0.885,6.172,1.205,9.27
	c1.536,14.862,1.145,29.463-6.231,43.03c-4.078,7.501-10.341,12.559-19.551,15.479c6.828-7.118,8.089-14.792,4.947-23.403
	c-3.487,7.812-7.075,15.468-13.049,21.748c-6.021,6.328-13.455,10.176-21.965,13.405c2.859-3.924,5.11-7.668,5.91-13.074
	c-6.105,6.406-11.774,12.053-19.634,15.708c0.676-2.304,1.188-4.045,1.736-5.918c-5.647,2.58-10.97,5.446-16.597,7.462
	c-5.786,2.075-11.991,2.089-18.453,2.003c2.234-1.852,3.425-3.933,3.601-7.183c-4.721,3.085-8.84,6.267-14.084,7.442
	c0.731-2.025,1.322-3.663,2.183-6.047c-3.806,1.452-6.766,2.582-9.648,3.681c-0.753,5.402-0.049,6.893,4.65,8.94
	c3.08,1.342,6.284,2.403,9.454,3.533c0.562,0.2,1.315,0.344,1.823,0.133c3.783-1.56,7.309-0.075,10.451,1.454
	c8.383,4.079,14.908,10.059,16.925,19.686c0.893,4.256,1.464,8.579,2.21,12.866c0.314,1.813,0.701,3.614,1.087,5.58
	c1.376,0.086,2.469,0.204,3.563,0.213c3.124,0.027,6.249,0.043,9.373,0.007c16.126-0.192,32.201,0.732,48.233,2.356
	c4.199,0.425,8.43,1.137,12.48,2.296c8.331,2.383,13.597,8.042,16.021,16.342c0.383,1.313,0.66,2.655,1.136,4.589
	c5.421,0.445,10.511,2.533,15.034,5.992c4.538,3.47,8.265,7.576,10.57,13.304c4.11,0,8.205,0.022,12.3-0.006
	c5.844-0.04,6.632,0.586,7.691,6.254c0.045,0.243,0.189,0.474,0.211,0.717c0.871,9.633-1.553,11.062-8.732,11.034
	c-0.595-0.002-1.19,0.161-1.95,0.271c0,82.184,0,164.215,0,246.48c2.972,0.862,5.743,1.541,8.422,2.484
	c2.1,0.739,4.229,1.583,6.083,2.783c2.496,1.615,2.602,3.504,0.385,5.5c-1.368,1.232-2.978,2.416-4.69,3.007
	c-7.423,2.56-14.828,5.254-22.413,7.235c-17.399,4.546-35.103,7.595-52.952,9.794c-11.511,1.419-23.008,2.956-34.531,4.261
	c-6.568,0.744-13.17,1.249-19.769,1.649c-16.813,1.019-33.622,2.185-50.451,2.781c-13.231,0.47-26.492,0.303-39.737,0.19
	c-16.613-0.141-33.234-0.251-49.833-0.869c-14.465-0.538-28.917-1.605-43.352-2.726c-14.429-1.119-28.859-2.348-43.237-3.983
	c-13.752-1.565-27.44-3.69-41.151-5.615c-23.129-3.245-45.854-8.459-68.387-14.484c-8.784-2.349-17.39-5.379-26.022-8.262
	c-2.792-0.932-5.525-2.232-7.256-5.407c4.448-4.735,10.835-3.235,16.242-5.559c-3.407-5.394-2.187-11.454-2.192-17.327
	c-0.068-72.359-0.061-144.72-0.088-217.079c-0.001-1.469-0.18-2.937-0.286-4.564c-1.063-0.216-1.877-0.434-2.705-0.542
	c-4.023-0.529-5.733-2.301-5.934-6.351c-0.1-1.994-0.106-4-0.04-5.997c0.113-3.383,1.943-5.383,5.287-5.585
	c6.208-0.375,12.42-0.751,18.637-0.892c10.24-0.231,20.488-0.504,30.724-0.304c5.282,0.103,10.542-0.374,15.818-0.109
	c5.225,0.262,10.458,0.407,15.689,0.511c4.837,0.096,9.676,0.099,14.515,0.089c3.052-0.008,4.847-1.43,5.875-4.289
	c1.176-3.272,2.461-6.506,3.687-9.725c3.559,0,6.77,0.008,9.981-0.001c2.981-0.009,5.963-0.02,8.944-0.056
	c4.219-0.052,8.439-0.232,12.654-0.134c1.292,0.03,2.567,0.797,3.952,1.26c1.426-0.469,2.957-0.974,4.754-1.565
	c0-6.961,0-13.899,0-20.969c-0.445-0.174-0.885-0.477-1.339-0.502c-9.731-0.535-19.458-1.221-29.197-1.498
	c-10.734-0.306-21.481-0.13-32.219-0.365c-5.475-0.12-11.016-0.25-16.382-1.199c-3.438-0.607-7.612-1.099-9.229-5.262
	c-0.651-1.676-1.3-3.496-1.312-5.255c-0.101-15.121-0.055-30.242-0.053-45.363c0.005-34.245-0.035-68.489,0.045-102.732
	c0.021-8.667,0.623-17.333,0.59-25.997c-0.026-7.09,6.821-11.261,13.071-10.951c6.354,0.313,12.691,0.966,19.035,1.47
	c8.834,0.702,17.669,1.408,26.503,2.107c8.958,0.709,17.913,1.456,26.875,2.089C154.474,109.848,157.067,109.694,159.472,109.694z
	 M280.802,415.908c0.497,1.487,1.049,2.96,1.481,4.465c2.56,8.902,7.851,14.239,17.596,15.21
	c15.208,1.516,30.402,1.991,45.651,1.226c0.337-0.017,0.664-0.265,0.996-0.405c-4.352-0.666-8.577-0.761-12.797-0.958
	c-11.725-0.545-23.451-1.047-35.167-1.737c-7.06-0.416-11.233-4.79-13.944-10.919c-1.702-3.848-2.258-7.896-2.229-12.062
	c0.188-27.284,2.038-54.428,7.64-81.187c1.141-5.452,3.123-10.793,5.285-15.948c2.375-5.664,7.048-8.997,13.078-10.142
	c3.92-0.745,7.89-1.359,11.865-1.67c25.446-1.988,50.943-1.999,76.426-1.254c12.093,0.354,24.186,1.467,36.22,2.776
	c9.621,1.047,14.912,6.501,16.709,16.009c1.754,9.276,1.735,18.644,1.087,28.009c-0.813,11.712-1.625,23.429-2.731,35.115
	c-1.024,10.825-2.701,21.571-5.968,31.987c-2.195,6.998-6.696,12.075-13.765,14.21c-5.233,1.579-10.665,2.565-16.062,3.515
	c-5.745,1.011-11.552,1.668-17.332,2.479c1.206,0.613,2.417,0.848,3.575,0.691c9.022-1.222,18.099-2.189,27.035-3.882
	c9.401-1.78,15.39-7.874,18.361-16.876c1.171-3.549,2.232-7.164,2.953-10.825c3.772-19.174,5.169-38.597,5.862-58.089
	c0.323-9.131,0.366-18.239-1.404-27.259c-1.522-7.76-5.55-13.585-13.093-16.525c-2.076-0.81-4.31-1.302-6.515-1.681
	c-13.576-2.328-27.292-3.41-41.035-3.52c-16.985-0.135-33.983,0.08-50.964,0.585c-11.852,0.353-23.687,1.391-35.52,2.254
	c-2.721,0.199-5.443,0.781-8.096,1.46c-6.688,1.711-11.915,5.509-14.254,12.111c-2.201,6.21-4.147,12.587-5.386,19.049
	c-4.096,21.372-6.172,42.981-6.661,64.743c-0.241,10.771,0.009,12.428,3.706,19.694c-0.346,0.448-0.706,0.915-1.12,1.448
	c0.606,1.203,1.106,2.473,1.853,3.575c0.465,0.686,1.301,1.12,2.445,2.056c1.297-1.296,2.884-2.469,3.874-4.021
	c0.609-0.956,0.306-2.493,0.412-3.769L280.802,415.908z M93.229,370.653c-1.05-0.708-2.099-1.416-3.771-2.544
	c1.457,4.098-1.28,8.036,1.485,10.822c-0.595,1.114-1.329,2.023-1.562,3.046c-0.271,1.192-0.128,2.484-0.127,3.732
	c0.037,48.593,0.086,97.187,0.117,145.779c0.018,28.821,0,57.644,0.025,86.466c0.001,1.697,0.234,3.395,0.358,5.072
	c2.008,0,3.624-0.078,5.229,0.014c5.921,0.341,7.443-0.97,7.493-6.862c0.063-7.49,0.007-14.981,0.01-22.473
	c0.018-50.96,0.045-101.919,0.054-152.879c0.003-18.363-0.019-36.727-0.076-55.09c-0.006-1.848,0.338-4.411-0.679-5.372
	c-1.501-1.417-1.156-2.756-1.648-4.05c-1.025-1.858-2.05-3.718-3.324-6.029c-0.849-0.396-2.186-1.107-3.525,0.319L93.229,370.653z
	 M195.446,602.209c0-2.883,0.005-5.729-0.001-8.576c-0.006-2.75,1.446-4.418,3.946-5.268c0.941-0.32,1.911-0.592,2.889-0.767
	c10.305-1.847,20.59-3.819,30.928-5.464c15.146-2.409,30.324-4.641,45.685-5.245c2.701-0.106,5.395-0.428,8.289-0.666
	c0.104-1.734,0.244-3.087,0.255-4.44c0.038-4.497,0.169-9-0.002-13.49c-0.158-4.16,0.166-7.864,5.225-8.852
	c0-18.059,0-35.736,0-53.828c-2.216-0.159-4.129-0.296-6.227-0.445c-0.411,1.392-0.812,2.424-1.017,3.494
	c-0.82,4.282-1.445,8.606-2.415,12.854c-0.549,2.406-1.364,4.832-2.523,7c-2.271,4.243-7.301,5.918-12.324,4.45
	c-4.983-1.458-6.895-4.238-6.82-9.72c0.069-4.993,0.108-9.989,0.023-14.981c-0.028-1.69-0.474-3.375-0.719-4.996
	c-2.175,0-3.927,0-5.806,0c0.683,6.563,1.221,12.726,3.856,18.542c1.639,3.613,0.164,7.659-3.058,9.929
	c-5.39,3.798-13.088,2.724-17.148-2.485c-1.065-1.367-2.029-2.876-2.721-4.457c-3.299-7.534-6.604-15.071-9.651-22.708
	c-0.968-2.427-2.29-3.396-4.843-3.744c-7.41-1.009-14.819-2.119-22.146-3.6c-5.865-1.185-7.209-3.043-7.423-9.011
	c-0.155-4.341-0.03-8.691-0.03-13.065c-9.785-3.75-17.016-10.308-23.375-18.014c-4.537-5.497-4.85-7.088-1.352-13.396
	c4.69-8.459,10.9-15.812,17.419-22.883c2.267-2.458,4.862-4.686,7.588-6.624c1.833-1.306,3.073-2.644,3.73-4.843
	c2.997-10.04,9.984-16.104,19.717-19.332c2.129-0.706,4.259-1.424,6.338-2.264c2.204-0.892,3.535-2.483,3.599-5.181
	c-40.108,0-80.019,0-119.868,0c-1.025,4.528-1.216,229.517-0.213,233.763c0.772,0.068,1.613,0.202,2.455,0.21
	c6.371,0.052,12.742,0.106,19.113,0.109c17.867,0.004,35.735-0.127,53.601,0.043C185.478,604.307,190.325,603.732,195.446,602.209z
	 M160.715,127.555c-1.273-0.146-2.494-0.327-3.72-0.421c-9.583-0.736-19.165-1.489-28.752-2.172
	c-8.839-0.63-17.686-1.151-26.525-1.775c-7.125-0.502-9.523,3.196-9.636,9.374c-0.009,0.5-0.009,1-0.009,1.499
	c0.013,44.231,0.024,88.463,0.049,132.694c0.001,1.621,0.035,3.254,0.231,4.86c0.594,4.867,3.571,7.607,8.417,7.808
	c4.367,0.18,8.735,0.346,13.105,0.459c15.36,0.394,30.719,0.809,46.081,1.13c23.981,0.5,47.963,0.933,71.945,1.377
	c1.093,0.021,2.19-0.135,3.179-0.201c2.113-4.632,4.021-9.097,6.17-13.439c2.032-4.104,4.852-7.729,9.063-9.683
	c4.616-2.141,9.445-3.848,14.254-5.532c1.339-0.468,3.148-0.676,4.387-0.157c5.299,2.221,10.027,0.068,14.802-1.604
	c1.007-0.353,2.272-1.502,2.432-2.45c0.44-2.627,0.361-5.342,0.514-8.61c-22.397,2.469-44.149,4.677-65.667-1.308
	c-0.188-0.053-0.458,0.133-0.671,0.245c-0.088,0.047-0.124,0.192-0.314,0.51c0.27,0.787,0.592,1.726,1.168,3.408
	c-2.705-1.836-4.727-3.209-7.192-4.883c0.287,4.503,2.4,7.143,6.021,8.996c-8.591,1.351-21.359-2.782-27.671-8.756
	c-5.626-5.325-9.917-11.522-12.517-18.855c-0.313-0.885-0.833-1.697-1.257-2.542c-0.267,0.145-0.534,0.289-0.801,0.434
	c0.271,8.841,3.559,16.572,9.359,23.79c-1.242-0.139-2.1-0.098-2.868-0.342c-8.151-2.586-15.37-6.541-20.297-13.875
	c-0.82-1.221-1.686-2.726-2.907-3.304c-4.466-2.116-6.633-5.905-8.1-10.252c-2.274-6.741-1.563-13.516,0.098-20.249
	c0.772-3.129,1.709-6.218,2.738-9.924c-6.769,0.765-13.174,0.915-18.385-3.678c-5.061-4.461-7.884-10.121-8.764-17.712
	c0.807,1.223,1.161,1.703,1.458,2.216c2.537,4.384,6.235,6.921,11.31,7.719c5.588,0.878,10.591-0.422,15.436-3.098
	c8.061-4.452,12.353-11.651,15.106-20.298C166.26,142.987,163.592,135.297,160.715,127.555z M480.718,603.454
	c0.146-2.153,0.335-3.616,0.33-5.08c-0.102-29.048-0.271-58.098-0.326-87.146c-0.027-14.1,0.165-28.199,0.233-42.3
	c0.021-4.068-0.823-5.111-4.644-5.117c-19.983-0.037-39.966,0.002-59.948,0.052c-0.892,0.002-1.782,0.37-2.826,0.602
	c2.264,5.183,1.768,10.179,1.4,15.16c-0.251,3.405-2.149,5.545-5.351,6.444c-2.397,0.673-4.849,1.19-7.305,1.613
	c-5.14,0.884-10.299,1.66-15.64,2.512c0,31.202,0,62.239,0,93.511c1.538,0.361,2.843,0.692,4.159,0.973
	c4.391,0.937,8.833,1.674,13.167,2.827c4.677,1.245,5.631,2.694,5.713,7.435c0.042,2.47,0.007,4.94,0.007,7.957
	c4.313,0.334,8.125,0.856,11.94,0.887c16.822,0.134,33.646,0.146,50.47,0.146C474.803,603.929,477.507,603.639,480.718,603.454z
	 M451.08,395.987c-0.348,1.561-0.59,2.764-0.885,3.952c-1.205,4.846-2.301,9.723-3.668,14.523
	c-3.141,11.023-10.544,17.645-21.651,19.945c-6.472,1.341-13.057,2.132-19.59,3.175c-1.273,0.204-2.545,0.43-3.787,0.64
	c0.76,3.558,2.08,6.635,1.866,9.602c-0.221,3.059-1.936,6.01-3.049,9.156c-0.025-0.03,0.095,0.227,0.294,0.333
	c5.881,3.146,11.843,4.813,18.829,4.6c18.476-0.567,36.979-0.173,55.472-0.161c1.719,0.001,3.438,0,5.607,0
	c0.202-2.143,0.497-3.826,0.501-5.511c0.051-18.242,0.068-36.484,0.05-54.727c-0.001-1.703-0.31-3.404-0.533-5.709
	C470.548,395.444,460.899,395.679,451.08,395.987z M198.688,147.232c0,2.495-0.039,4.464,0.007,6.429
	c0.139,5.994,0.452,11.987,0.426,17.979c-0.025,5.837-2.375,8.866-7.909,10.916c-0.702,0.26-1.402,0.568-2.131,0.708
	c-2.515,0.482-3.461,2.076-3.585,4.513c-0.378,7.433,0.119,14.778,2.714,21.796c2.755,7.449,7.052,13.93,14.231,17.728
	c4.823,2.551,9.936,4.744,15.151,6.327c9.623,2.922,19.614,3.663,29.646,3.689c0.401,0.001,0.803-0.181,1.881-0.441
	c-1.851-1.179-3.099-1.946-4.318-2.756c-5.538-3.673-8.665-8.861-9.593-15.402c-0.833-5.867-0.779-11.767,0.547-17.515
	c1.793-7.774,4.014-15.45,6.039-23.172c0.253-0.967,0.43-1.955,0.643-2.933c-1.769,1.25-2.903,2.711-3.906,4.26
	c-1.558,2.407-2.909,4.953-4.551,7.298c-6.847,9.774-10.712,20.172-7.079,32.704c-2.551-3.635-3.978-7.234-4.582-11.225
	c-0.746-4.926-0.11-9.725,1.134-14.468c0.44-1.68,0.095-2.967-0.646-4.561c-1.622-3.486-3.291-7.111-3.955-10.854
	c-2.744-15.457-3.217-30.766,5.031-45.198c-2.376-1.471-4.941-2.161-7.302-0.433c-3.48,2.548-6.699,5.453-10.168,8.322
	c1.526,3.705,2.934,7.121,4.386,10.646C206.641,151.255,202.766,149.384,198.688,147.232z M254.319,260.009
	c-1.879,1.116-3.412,1.884-4.788,2.87c-4.81,3.444-7.083,8.619-9.113,13.883c-3.905,10.128-7.574,20.348-11.577,30.437
	c-2.984,7.525-6.642,14.745-11.125,21.865c-0.423-0.971-0.691-1.587-0.969-2.225c-1.309,0.091-2.526,0.175-3.744,0.259
	c-0.001-0.098-0.003-0.196-0.005-0.293c1.338-0.53,2.676-1.061,4.25-1.685c-1.853-3.299-4.583-5.098-7.562-6.826
	c-0.833,0.694-1.561,1.301-2.286,1.906c-0.939-0.399-1.716-0.81-2.541-1.065c-3.623-1.121-7.314,0.243-8.791,3.705
	c-1.2,2.813-2.744,4.387-5.969,4.686c-2.719,0.252-3.216,1.511-2.768,4.101c3.667,1.617,7.347,2.87,10.633,4.794
	c3.317,1.942,6.195,4.618,9.357,6.844c2.443,1.721,4.906,3.486,7.57,4.806c9.296,4.605,13.644,3.353,19.793-4.919
	c8.531-11.476,15.079-24.098,21.69-36.697c0.775-1.477,1.761-2.842,2.648-4.259c-2.095,7.517-1.48,8.991,5.429,11.43
	c0.109-1.952,0.384-3.775,0.284-5.579c-0.792-14.287-3.99-28.145-7.715-41.891C256.483,264.169,255.363,262.34,254.319,260.009z
	 M272.604,257.995c6.091,15.068,8.277,31.279,9.791,48.082c0.932-0.753,1.329-1.033,1.679-1.364
	c5.639-5.334,11.946-8.651,20.104-8.082c3.905,0.273,7.891-0.819,11.854-1.093c5.845-0.403,11.702-0.626,18.205-0.96
	c2.635-11.837,4.571-24.201,0.929-36.183c-7.322-2.478-13.907-4.758-20.527-6.933c-7.856-2.582-15.728-2.333-23.533,0.239
	C285.1,253.681,279.13,255.77,272.604,257.995z M373.859,581.637c0-30.338,0-60.094,0-90.038
	c-9.519,0.634-18.787,1.252-28.466,1.897c0.479,28.567-0.304,56.572,0.343,84.583C355.367,579.297,364.362,580.436,373.859,581.637z
	 M343.012,577.969c0-28.426,0-56.17,0-84.227c-9.91,3.035-19.806,2.531-29.932,3.164c0,17.592,0,34.883,0,52.504
	c4.264,1.143,4.707,4.402,4.577,8.188c-0.176,5.11-0.043,10.233-0.001,15.351c0.009,1.066,0.197,2.132,0.331,3.488
	C326.472,576.956,334.636,577.456,343.012,577.969z M216.928,42.711c0.492-0.702,0.958-1.423,1.479-2.103
	c4.772-6.243,10.966-10.918,17.317-15.351C249.21,15.843,263.953,9.14,280.229,6.45c23.538-3.89,46.577-1.533,68.984,6.703
	c12.9,4.741,24.696,11.361,34.997,20.561c9.893,8.833,17.665,19.212,23.237,31.246c0.419,0.905,0.921,1.775,1.433,2.633
	c8.569,14.352,13.923,29.93,16.346,46.354c1.134,7.689,6.297,10.931,11.808,14.449c-1.827-2.935-3.869-5.712-6.142-8.286
	c-1.798-2.037-2.85-4.25-3.369-6.931c-1.163-6.001-2.394-12.004-3.97-17.906c-4.785-17.92-12.212-34.545-24.185-48.964
	c-11.959-14.403-26.481-25.285-43.652-32.698c-24.406-10.537-49.91-12.809-76.041-9.969C261.1,5.661,243.489,11.1,226.891,19.655
	c-9.682,4.991-18.919,10.743-26.849,18.306c-7.701,7.344-14.703,15.284-20.485,24.291c-7.772,12.106-14.031,24.774-16.106,39.208
	c-1.698,11.809-1.543,23.434,3.156,34.641c2.369,5.649,5.594,10.724,10.244,14.806c-0.257-0.957-0.628-1.843-1.154-2.625
	c-6.728-9.992-8.647-21.135-7.885-32.911c1.271-19.634,8.954-36.955,19.315-53.295c0.485-0.766,1.243-1.358,1.924-2.086
	c1.961,3.008,2.871,3.222,5.538,1.732c3.454-1.93,5.306-5.183,7.191-8.439c1.301-2.249,2.692-4.445,4.042-6.666
	c-8.278,19.659-11.934,33.979-9.641,41.982c0.607-3.381,1.041-6.035,1.566-8.67c2.063-10.35,6.952-18.86,16.067-24.626
	c0.585-0.37,1.157-0.967,1.431-1.592c1.962-4.471,5.276-7.845,8.773-11.092c0.912-0.847,1.735-1.792,3.079-3.192
	C222.664,39.244,220.184,41.546,216.928,42.711z M88.326,354.105c36.882,0,73.342,0,110.623,0c-1.979-2.985-3.692-5.254-5.066-7.713
	c-2.387-4.273-5.746-5.888-10.732-5.761c-13.596,0.347-27.205,0.222-40.809,0.254c-16.712,0.039-33.425,0.04-50.137,0.087
	c-1.299,0.004-2.596,0.245-3.878,0.374C88.326,345.767,88.326,349.73,88.326,354.105z M82.939,364.61
	c-0.092,1.513-0.225,2.729-0.231,3.946c-0.045,8.621-0.088,17.242-0.088,25.863c-0.005,71.344-0.003,142.688,0.008,214.031
	c0,2.873,0.025,5.751,0.197,8.616c0.186,3.091,1.348,4.325,5.035,5.392c0-1.461-0.001-2.799,0-4.137
	c0.034-30.109,0.135-60.218,0.086-90.327c-0.084-51.975-0.279-103.949-0.358-155.925C87.583,368.764,86.857,366.184,82.939,364.61z
	 M77.331,106.64c-7.028,1.384-8.484,3.076-8.459,9.975c0.03,8.369,0.295,16.738,0.305,25.107
	c0.057,47.353,0.067,94.707,0.096,142.06c0.001,1.874,0.048,3.748,0.059,5.622c0.019,3.339,1.906,5.34,4.833,6.401
	c1.385,0.501,2.919,0.74,4.398,0.805c7.487,0.328,14.981,0.513,22.468,0.834c23.213,0.996,46.417,2.228,69.637,2.987
	c17.479,0.571,34.976,0.571,52.465,0.776c1.603,0.019,3.209-0.312,4.814-0.48c-0.015-0.397-0.029-0.796-0.044-1.193
	c-1.528-0.048-3.056-0.113-4.584-0.143c-17.611-0.343-35.227-0.522-52.832-1.057c-26.473-0.803-52.938-1.847-79.406-2.811
	c-3.368-0.123-6.745-0.25-10.094-0.609c-3.867-0.413-5.891-2.37-6.282-6.229c-0.326-3.218-0.31-6.479-0.311-9.722
	c-0.003-54.849,0.027-109.697-0.001-164.546C74.393,111.412,74.676,108.676,77.331,106.64z M259.423,476.323
	c-0.392-0.236-0.589-0.439-0.815-0.479c-8.821-1.581-17.641-3.163-26.472-4.689c-0.831-0.143-1.8-0.113-2.579,0.176
	c-5.712,2.12-11.471,4.145-17.05,6.576c-3.106,1.354-5.703,3.851-9.424,4.292c0.97,0.666,1.933,1.082,2.934,1.214
	c19.183,2.541,38.344,5.266,57.565,7.473c10.037,1.152,20.178,1.43,30.276,2.012c12.977,0.75,25.958,1.401,38.953,0.344
	c5.064-0.412,10.172-1.233,13.719-5.123c3.077-3.375,6.021-7.14,7.953-11.236c5.22-11.06,9.959-22.35,14.719-33.621
	c4.69-11.108,5.501-22.755,4.017-34.587c-0.542-4.323-2.777-7.829-6.851-10.771c1.341,3.317,3.041,5.945,3.429,8.755
	c1.651,11.971,1.958,23.979-2.468,35.502c-3.4,8.854-7.259,17.532-10.981,26.261c-1.322,3.1-2.795,6.138-4.286,9.162
	c-4.171,8.459-10.517,13.839-20.353,14.21c-1.872,0.07-3.747,0.351-5.611,0.275c-18.601-0.755-37.201-1.532-55.797-2.39
	c-3.337-0.154-6.655-0.702-9.817-1.051C260.114,484.348,259.776,480.429,259.423,476.323z M86.162,341.041
	c-1.282-0.112-2.254-0.275-3.224-0.27c-22.706,0.149-45.413,0.272-68.118,0.505c-7.525,0.077-7.878,0.6-7.459,8.156
	c0.007,0.125,0.009,0.25,0.019,0.374c0.292,3.854,0.935,4.494,4.817,4.499c23.085,0.024,46.17,0.033,69.255,0.03
	c1.459,0,2.919-0.137,4.71-0.228C86.162,349.559,86.162,345.385,86.162,341.041z M384.1,583.369c0-31.166,0-61.793,0-92.932
	c-3.021,0.413-5.645,0.772-8.179,1.119c0,30.482,0,60.407,0,90.647C378.713,582.603,381.237,582.962,384.1,583.369z
	 M189.968,458.332c-1.654-1.294-3.479-2.422-4.925-3.915c-2.932-3.03-6.036-6.002-8.385-9.461
	c-3.82-5.625-3.706-11.658,0.505-17.076c5.403-6.952,11.153-13.635,16.753-20.434c0.289,0.116,0.578,0.231,0.866,0.348
	c-0.181,8.795-1.911,17.672,0.694,27.141c1.593-5.879,2.806-10.96,4.365-15.933c1.527-4.871,3.117-9.764,5.21-14.406
	c2.146-4.758,4.722-9.361,7.508-13.779c2.714-4.304,5.933-8.288,8.93-12.413c-0.2-0.226-0.4-0.452-0.6-0.679
	c-2.938,1.295-5.88,2.583-8.815,3.887c-7.304,3.245-11.943,8.813-14.268,16.394c-0.183,0.597-0.314,1.242-0.643,1.753
	c-0.643,0.996-1.231,2.156-2.15,2.824c-11.659,8.479-20.169,19.565-26.926,32.143c-0.924,1.719-0.892,3.25,0.115,4.925
	C173.369,448.234,180.453,454.639,189.968,458.332z M454.335,370.006c-1.334,4.11-2.826,21.061-2.013,23.889
	c9.373-0.07,18.876,0.424,28.597-0.285c0.077-1.763,0.18-2.989,0.176-4.215c-0.01-4.61-0.057-9.222-0.086-13.833
	c-0.033-5.146-0.242-5.376-5.557-5.435c-5.98-0.066-11.962-0.084-17.943-0.119C456.415,370,455.321,370.006,454.335,370.006z
	 M455.711,341.135c-0.272,4.684-0.514,8.823-0.752,12.901c6.315,1.12,38.721,0.63,42.041-0.725c0-2.264,0.054-4.719-0.012-7.17
	c-0.122-4.482-0.474-4.822-4.911-5.113c-0.62-0.04-1.245-0.016-1.867-0.013c-9.338,0.038-18.676,0.081-28.014,0.117
	C460.109,341.142,458.022,341.135,455.711,341.135z M213.287,603.718c26.48,0.368,52.957,0.466,79.966,0.313
	c-0.324-3.188-0.577-5.681-0.817-8.043C275.726,594.269,220.657,599.422,213.287,603.718z M216.063,408.621
	c4.051-13.507,12.326-24.734,19.365-36.622c-2.494,15.695-2.708,22.952-0.461,26.631c0.083-1.767,0.13-3.385,0.24-4.999
	c0.504-7.391,1.867-14.61,4.383-21.594c1.458-4.045,3.347-7.862,6.794-10.586c1.695-1.338,3.678-2.311,5.859-3.65
	c-9.03-6.085-6.844-14.979-6.212-23.554c-0.59,0.528-0.983,1.029-1.097,1.586c-0.596,2.932-1.478,5.862-1.598,8.821
	c-0.261,6.443-2.853,11.773-6.753,16.713c-3.171,4.015-6.167,8.174-9.136,12.345C220.046,384.111,217.483,396.143,216.063,408.621z
	 M169.441,229.125c-4.778-7.575-5.841-15.932-6.053-24.516c-0.289-11.68,2.248-22.804,6.487-33.609
	c1.732-4.414,3.47-8.827,5.061-13.292c0.632-1.773,1.665-3.801-0.989-5.527c-1.407,2.715-2.813,5.305-4.108,7.948
	c-5.591,11.424-11.884,22.527-14.529,35.209c-1.383,6.632-1.911,13.083,0.482,19.536c0.405,1.093,0.994,2.118,1.498,3.174
	c0.257-0.043,0.515-0.086,0.772-0.13c-1.041-8.462,0.117-16.576,3.312-24.375c0.18,1.773-0.006,3.497-0.199,5.22
	c-0.948,8.479,0.071,16.689,3.37,24.586C165.559,225.779,166.862,227.971,169.441,229.125z M233.751,470.051
	c12.642,2.735,25.199,4.859,38.153,4.359c22.052-0.851,35.388-1.792,38.002-3.483c-1.063-0.167-1.904-0.343-2.753-0.428
	c-9.681-0.981-19.346-2.229-29.051-2.841c-9.693-0.61-19.429-0.793-29.144-0.745C243.798,466.938,238.675,468.01,233.751,470.051z
	 M296.639,612.955c4.466,0,8.517,0,12.852,0c0.22-2.481,0.552-4.697,0.583-6.917c0.069-4.864,0.03-9.731-0.051-14.596
	c-0.062-3.744-1.514-5.474-5.176-6.11c-1.459-0.255-2.999-0.317-4.473-0.171c-3.779,0.376-5.619,2.341-5.395,6.124
	C295.409,598.492,296.069,605.686,296.639,612.955z M249.747,138.76c-14.504-8.898-23.813-21.31-28.703-37.23
	c-0.808,7.038-0.703,13.903,0.57,20.66c1,0.432,1.664,0.771,2.361,1.013c11.585,4.025,17.879,11.97,17.82,25.044
	c-0.015,3.286-0.002,6.572-0.002,10.753C245.085,152.067,248.678,146.135,249.747,138.76z M296.21,555.361
	c5.447,0,10.688,0,16.249,0c0,8.141,0,15.876,0,23.795c2.843,0.108,2.776-1.991,2.797-3.785c0.073-6.487,0.068-12.978,0.026-19.466
	c-0.007-0.948-0.381-1.894-0.636-3.079c-8.207,0-16.218,0-24.713,0c0,8.271-0.048,16.214,0.084,24.153
	c0.012,0.683,1.103,1.646,1.894,1.946c1.202,0.456,2.581,0.444,4.299,0.689C296.21,571.344,296.21,563.541,296.21,555.361z
	 M257.221,118.8c-0.327,0.023-0.655,0.047-0.982,0.069c-0.309,1.452-0.67,2.894-0.918,4.357
	c-2.983,17.585-8.831,33.983-19.138,48.756c-3.544,5.08-6.205,10.829-8.839,16.473c-1.928,4.131-3.051,8.613-2.871,13.327
	c0.704-1.022,1.047-2.161,1.5-3.255c1.33-3.221,2.413-6.589,4.123-9.597c2.959-5.208,6.442-10.115,9.478-15.282
	c3.661-6.233,7.776-12.328,10.449-18.983c4.099-10.213,5.804-21.159,7.454-32.033C257.662,121.396,257.317,120.08,257.221,118.8z
	 M218.474,321.886c3.229-3.652,8.034-14.543,8.083-17.914c-6.666,0-13.332,0-20.351,0c0.054,4.437-1.018,8.552,0.406,12.591
	C211.294,315.987,211.294,315.987,218.474,321.886z M342.831,604.034c0-2.875,0-5.259,0-7.991c-9.992,0-19.628,0-29.609,0
	c-0.122,2.778-0.232,5.297-0.353,7.991C323.086,604.034,332.87,604.034,342.831,604.034z M310.233,550.135
	c0-2.863,0.104-5.453-0.058-8.026c-0.057-0.897-0.542-2.037-1.221-2.582c-3.919-3.148-8.397-5.127-13.649-6.377
	c0,5.82,0,11.109,0,16.763C300.307,550.76,305.028,551.063,310.233,550.135z M359.578,294.121c0.355-9.544-3.38-27.873-9.732-29.845
	c1.801,10.094,0.118,20.004-1.118,29.845C352.715,294.121,356.037,294.121,359.578,294.121z M192.069,337.604
	c0.067-0.313,0.134-0.625,0.201-0.938c-0.754-0.236-1.507-0.67-2.263-0.677c-7.741-0.074-15.485,0.053-23.222-0.151
	c-4.836-0.127-9.804-0.123-14.457-1.243c-7.993-1.923-15.756-4.786-23.677-7.038c-3.801-1.08-7.743-1.668-11.682-2.491
	c-2.663,4.203-3.216,8.49-3.992,13.146c6.376,0,12.539,0,18.703,0c0.013-0.104,0.026-0.207,0.04-0.312
	c-5.387-0.537-10.774-1.074-16.117-1.607c0.083-5.364,0.439-6.809,2.379-9.586c2.796,0.723,5.695,1.395,8.549,2.224
	c7.427,2.158,14.912,4.161,22.216,6.682c3.468,1.196,6.815,2.285,10.511,2.27c10.122-0.042,20.243,0.004,30.365-0.007
	C190.438,337.874,191.254,337.699,192.069,337.604z M346.303,596.364c-1.729,4.682-0.515,7.046,3.82,7.267
	c5.959,0.302,11.937,0.266,17.907,0.303c1.923,0.012,3.848-0.207,5.842-0.324c0.067-1.081,0.163-1.694,0.126-2.299
	c-0.037-0.594-0.209-1.181-0.43-2.34C364.456,598.1,355.328,597.227,346.303,596.364z M211.856,124.695
	c-4.237-5.739-7.833-10.609-11.438-15.492c-0.9,9.104,2.307,24.979,6.25,30.227C208.568,134.037,210.398,128.837,211.856,124.695z
	 M310.489,635.592c4.714-3.331,5.996-7.534,4.327-12.553c-1.735-5.213-5.822-8.226-11.207-8.259
	c-6.359-0.04-10.818,2.844-12.523,8.097c-1.586,4.888-0.212,9.156,3.856,11.983c-2.369-8.054-1.187-12.671,4.034-15.75
	c3.283-1.938,8.693-1.447,11.201,1.014C314.033,623.905,314.292,628.997,310.489,635.592z M302.684,170.084
	c-0.282,1.199-0.597,2.39-0.842,3.596c-1.709,8.431-3.16,16.924-5.166,25.284c-2.55,10.625-7.455,20.073-15.462,27.723
	c-1.114,1.065-2.216,2.145-3.324,3.218c1.864-0.371,3.426-1.106,4.728-2.163c5.727-4.647,9.98-10.439,12.79-17.249
	C300.715,197.629,302.579,184.094,302.684,170.084z M204.239,626.358c4.443-3.353,5.752-8.665,3.632-12.981
	c-2.654-5.401-8.053-8.473-14.063-8.001c-4.737,0.373-8.533,3.534-9.683,8.063c-1.267,4.993,0.334,9.446,4.312,11.992
	c-2.628-8.149-1.822-12.414,2.952-15.617c3.318-2.226,8.241-1.861,11.521,0.854C207.292,614.294,207.693,618.171,204.239,626.358z
	 M416.621,625.832c4.529-3.634,6-8.521,4.354-13.031c-1.898-5.203-6.32-7.722-12.904-7.351c-4.935,0.279-9.292,3.975-10.669,9.049
	c-1.135,4.183-0.339,7.213,2.35,8.951c-1.439-6.855-0.081-11.264,4.244-13.768c4.224-2.445,8.62-2.072,12.128,1.03
	C419.737,613.908,420.003,618.437,416.621,625.832z M258.343,236.765c-7.892-5.115-12.421-12.639-15.901-20.985
	c-0.18,8.369,1.561,12.916,5.341,17.912C250.668,237.506,254.196,237.735,258.343,236.765z M351.65,490.052
	c0.594,0.028,1.192,0.121,1.781,0.075c10.2-0.797,20.434-1.313,30.586-2.517c8.027-0.952,15.966-2.7,23.917-4.229
	c1.446-0.277,2.77-1.199,4.148-1.823c-0.103-0.279-0.205-0.56-0.308-0.838C392.199,486.724,371.735,486.462,351.65,490.052z
	 M320.662,474.984c8.188,1.176,10.474,0.22,14.17-6.808c3.942-7.493,7.524-15.178,11.162-22.828
	c0.811-1.705,1.193-3.614,1.772-5.429c-0.895,0.144-1.261,0.485-1.457,0.907c-2.362,5.081-4.649,10.199-7.058,15.259
	c-2.142,4.499-4.478,8.906-6.6,13.414c-1.271,2.703-3.027,4.372-6.205,4.481C324.51,474.049,322.59,474.634,320.662,474.984z
	 M184.189,332.387c-1.277-2.086-2.642-1.942-4.158-1.909c-3.056,0.067-6.118-0.12-8.958-0.196c-1.688-4.604-4.707-5.467-8.438-2.686
	c1.376,2.038,3.678,1.719,5.558,2.241c0,0.813,0,1.598,0,2.55C173.436,332.387,178.491,332.387,184.189,332.387z M286.379,235.553
	c-1.209-2.238-2.217-4.104-3.272-6.055c-3.807,1.524-7.2,2.882-11.156,4.466C276.753,235.938,280.852,236.368,286.379,235.553z"/>
<path fill-rule="evenodd" clip-rule="evenodd" fill="#FFFFFF" d="M160.715,127.555c2.877,7.742,5.544,15.432,11.271,21.394
	c-2.753,8.647-7.045,15.846-15.106,20.298c-4.844,2.675-9.848,3.976-15.436,3.098c-5.075-0.797-8.773-3.334-11.31-7.719
	c-0.297-0.513-0.651-0.994-1.458-2.216c0.88,7.592,3.703,13.251,8.764,17.712c5.211,4.592,11.617,4.443,18.385,3.678
	c-1.029,3.706-1.966,6.794-2.738,9.924c-1.661,6.733-2.372,13.508-0.098,20.249c1.467,4.348,3.634,8.137,8.1,10.252
	c1.221,0.579,2.087,2.083,2.907,3.304c4.927,7.335,12.146,11.29,20.297,13.875c0.768,0.244,1.626,0.203,2.868,0.342
	c-5.8-7.218-9.088-14.949-9.359-23.79c0.267-0.145,0.534-0.289,0.801-0.434c0.424,0.846,0.943,1.658,1.257,2.542
	c2.6,7.333,6.89,13.531,12.517,18.855c6.313,5.974,19.08,10.107,27.671,8.756c-3.621-1.853-5.734-4.493-6.021-8.996
	c2.465,1.674,4.487,3.047,7.192,4.883c-0.577-1.682-0.898-2.621-1.168-3.408c0.19-0.318,0.227-0.463,0.314-0.51
	c0.213-0.111,0.482-0.297,0.671-0.245c21.518,5.985,43.27,3.777,65.667,1.308c-0.152,3.268-0.073,5.983-0.514,8.61
	c-0.159,0.948-1.425,2.098-2.432,2.45c-4.774,1.672-9.503,3.825-14.802,1.604c-1.238-0.519-3.048-0.311-4.387,0.157
	c-4.81,1.684-9.639,3.391-14.254,5.532c-4.212,1.954-7.031,5.58-9.063,9.683c-2.15,4.342-4.057,8.807-6.17,13.439
	c-0.989,0.066-2.086,0.222-3.179,0.201c-23.982-0.444-47.964-0.876-71.945-1.377c-15.362-0.321-30.721-0.736-46.081-1.13
	c-4.37-0.113-8.738-0.279-13.105-0.459c-4.846-0.2-7.823-2.94-8.417-7.808c-0.196-1.606-0.23-3.24-0.231-4.86
	c-0.025-44.231-0.036-88.462-0.049-132.694c0-0.5,0-1,0.009-1.499c0.113-6.178,2.511-9.876,9.636-9.374
	c8.839,0.624,17.686,1.146,26.525,1.775c9.587,0.683,19.169,1.436,28.752,2.172C158.222,127.229,159.442,127.409,160.715,127.555z"
	/>
<path fill-rule="evenodd" clip-rule="evenodd" fill="#FFFFFF" d="M480.718,603.454c-3.211,0.185-5.915,0.475-8.619,0.475
	c-16.823,0-33.647-0.013-50.47-0.146c-3.815-0.03-7.628-0.553-11.94-0.887c0-3.017,0.035-5.487-0.007-7.957
	c-0.082-4.74-1.036-6.189-5.713-7.435c-4.334-1.153-8.776-1.891-13.167-2.827c-1.316-0.28-2.621-0.611-4.159-0.973
	c0-31.271,0-62.309,0-93.511c5.341-0.852,10.5-1.628,15.64-2.512c2.456-0.423,4.907-0.94,7.305-1.613
	c3.201-0.899,5.1-3.039,5.351-6.444c0.367-4.981,0.863-9.978-1.4-15.16c1.044-0.231,1.935-0.6,2.826-0.602
	c19.982-0.05,39.965-0.089,59.948-0.052c3.82,0.006,4.664,1.049,4.644,5.117c-0.068,14.101-0.261,28.2-0.233,42.3
	c0.055,29.049,0.225,58.099,0.326,87.146C481.053,599.838,480.864,601.301,480.718,603.454z"/>
<path fill-rule="evenodd" clip-rule="evenodd" fill="#FFFFFF" d="M451.08,395.987c9.819-0.309,19.468-0.543,29.456-0.182
	c0.224,2.305,0.532,4.006,0.533,5.709c0.019,18.242,0.001,36.484-0.05,54.727c-0.004,1.685-0.299,3.368-0.501,5.511
	c-2.17,0-3.889,0.001-5.607,0c-18.492-0.012-36.996-0.406-55.472,0.161c-6.986,0.214-12.948-1.454-18.829-4.6
	c-0.199-0.106-0.319-0.363-0.294-0.333c1.113-3.146,2.828-6.098,3.049-9.156c0.214-2.967-1.106-6.044-1.866-9.602
	c1.242-0.21,2.514-0.436,3.787-0.64c6.533-1.043,13.118-1.834,19.59-3.175c11.107-2.301,18.511-8.922,21.651-19.945
	c1.367-4.801,2.463-9.678,3.668-14.523C450.49,398.751,450.732,397.548,451.08,395.987z"/>
<path fill-rule="evenodd" clip-rule="evenodd" fill="#FFFFFF" d="M93.286,370.605c1.34-1.427,2.676-0.716,3.525-0.319
	c1.274,2.312,2.299,4.171,3.324,6.029c0.492,1.294,0.147,2.633,1.648,4.05c1.017,0.961,0.673,3.524,0.679,5.372
	c0.057,18.363,0.079,36.727,0.076,55.09c-0.009,50.96-0.036,101.919-0.054,152.879c-0.003,7.491,0.053,14.982-0.01,22.473
	c-0.05,5.893-1.572,7.203-7.493,6.862c-1.605-0.092-3.22-0.014-5.229-0.014c-0.124-1.678-0.357-3.375-0.358-5.072
	c-0.025-28.822-0.008-57.645-0.025-86.466c-0.03-48.593-0.08-97.187-0.117-145.779c-0.001-1.248-0.144-2.54,0.127-3.732
	c0.233-1.022,0.967-1.932,1.562-3.046c-2.765-2.786-0.028-6.725-1.485-10.822c1.672,1.128,2.722,1.836,3.771,2.544L93.286,370.605z"
	/>
<path fill-rule="evenodd" clip-rule="evenodd" fill="#FFFFFF" d="M198.688,147.232c4.078,2.152,7.953,4.023,12.111,4.357
	c-1.452-3.525-2.86-6.942-4.386-10.646c3.47-2.869,6.688-5.774,10.168-8.322c2.36-1.728,4.925-1.038,7.302,0.433
	c-8.248,14.433-7.774,29.742-5.031,45.198c0.664,3.744,2.333,7.368,3.955,10.854c0.741,1.593,1.086,2.88,0.646,4.561
	c-1.245,4.743-1.88,9.542-1.134,14.468c0.604,3.991,2.031,7.59,4.582,11.225c-3.634-12.532,0.232-22.93,7.079-32.704
	c1.642-2.345,2.994-4.891,4.551-7.298c1.003-1.548,2.138-3.01,3.906-4.26c-0.212,0.978-0.39,1.965-0.643,2.933
	c-2.025,7.722-4.246,15.397-6.039,23.172c-1.326,5.749-1.38,11.648-0.547,17.515c0.928,6.541,4.055,11.729,9.593,15.402
	c1.22,0.81,2.468,1.577,4.318,2.756c-1.079,0.26-1.48,0.442-1.881,0.441c-10.033-0.026-20.024-0.767-29.646-3.689
	c-5.216-1.583-10.328-3.775-15.151-6.327c-7.179-3.798-11.476-10.279-14.231-17.728c-2.596-7.018-3.092-14.363-2.714-21.796
	c0.124-2.437,1.07-4.031,3.585-4.513c0.729-0.14,1.429-0.448,2.131-0.708c5.535-2.049,7.884-5.078,7.909-10.916
	c0.026-5.993-0.287-11.986-0.426-17.979C198.649,151.696,198.688,149.727,198.688,147.232z"/>
<path fill-rule="evenodd" clip-rule="evenodd" fill="#FFFFFF" d="M254.319,260.009c1.044,2.332,2.164,4.16,2.703,6.146
	c3.725,13.747,6.923,27.604,7.715,41.891c0.1,1.803-0.175,3.626-0.284,5.579c-6.909-2.439-7.523-3.913-5.429-11.43
	c-0.888,1.417-1.873,2.783-2.648,4.259c-6.611,12.599-13.159,25.221-21.69,36.697c-6.149,8.271-10.498,9.524-19.793,4.919
	c-2.664-1.319-5.127-3.085-7.57-4.806c-3.162-2.226-6.04-4.901-9.357-6.844c-3.286-1.924-6.966-3.177-10.633-4.794
	c-0.448-2.59,0.049-3.849,2.768-4.101c3.225-0.299,4.769-1.872,5.969-4.686c1.477-3.461,5.168-4.826,8.791-3.705
	c0.825,0.255,1.602,0.666,2.541,1.065c0.725-0.605,1.453-1.211,2.286-1.906c2.979,1.728,5.709,3.526,7.562,6.826
	c-1.575,0.624-2.913,1.154-4.25,1.685c0.002,0.097,0.004,0.195,0.005,0.293c1.218-0.084,2.436-0.168,3.744-0.259
	c0.278,0.638,0.546,1.254,0.969,2.225c4.483-7.12,8.141-14.34,11.125-21.865c4.002-10.089,7.672-20.309,11.577-30.437
	c2.03-5.265,4.303-10.439,9.113-13.883C250.908,261.893,252.44,261.125,254.319,260.009z"/>
<path fill-rule="evenodd" clip-rule="evenodd" fill="#FFFFFF" d="M272.604,257.995c6.526-2.225,12.496-4.314,18.501-6.293
	c7.806-2.573,15.677-2.821,23.533-0.239c6.62,2.175,13.205,4.455,20.527,6.933c3.643,11.982,1.706,24.346-0.929,36.183
	c-6.503,0.334-12.36,0.557-18.205,0.96c-3.963,0.274-7.948,1.367-11.854,1.093c-8.158-0.569-14.466,2.748-20.104,8.082
	c-0.35,0.331-0.747,0.61-1.679,1.364C280.881,289.273,278.694,273.063,272.604,257.995z"/>
<path fill-rule="evenodd" clip-rule="evenodd" fill="#FFFFFF" d="M373.859,581.637c-9.497-1.201-18.492-2.34-28.123-3.558
	c-0.646-28.011,0.137-56.016-0.343-84.583c9.679-0.646,18.947-1.264,28.466-1.897C373.859,521.543,373.859,551.299,373.859,581.637z
	"/>
<path fill-rule="evenodd" clip-rule="evenodd" fill="#FFFFFF" d="M280.872,415.849c-0.106,1.275,0.197,2.813-0.412,3.769
	c-0.99,1.553-2.577,2.726-3.874,4.021c-1.145-0.936-1.98-1.37-2.445-2.056c-0.746-1.103-1.246-2.372-1.853-3.575
	c0.414-0.533,0.774-1,1.12-1.448c-3.697-7.267-3.947-8.924-3.706-19.694c0.489-21.762,2.565-43.371,6.661-64.743
	c1.238-6.462,3.185-12.839,5.386-19.049c2.339-6.602,7.566-10.4,14.254-12.111c2.652-0.679,5.375-1.262,8.096-1.46
	c11.833-0.863,23.668-1.901,35.52-2.254c16.98-0.505,33.979-0.721,50.964-0.585c13.743,0.11,27.459,1.192,41.035,3.52
	c2.205,0.379,4.438,0.872,6.515,1.681c7.543,2.94,11.57,8.765,13.093,16.525c1.771,9.02,1.728,18.128,1.404,27.259
	c-0.693,19.492-2.09,38.915-5.862,58.089c-0.721,3.661-1.782,7.276-2.953,10.825c-2.972,9.002-8.96,15.096-18.361,16.876
	c-8.937,1.692-18.013,2.66-27.035,3.882c-1.158,0.156-2.369-0.078-3.575-0.691c5.78-0.811,11.587-1.468,17.332-2.479
	c5.396-0.949,10.828-1.936,16.062-3.515c7.068-2.135,11.569-7.212,13.765-14.21c3.267-10.416,4.943-21.162,5.968-31.987
	c1.106-11.687,1.919-23.403,2.731-35.115c0.648-9.365,0.667-18.733-1.087-28.009c-1.797-9.507-7.088-14.961-16.709-16.009
	c-12.034-1.309-24.127-2.422-36.22-2.776c-25.482-0.745-50.979-0.734-76.426,1.254c-3.976,0.311-7.945,0.925-11.865,1.67
	c-6.03,1.145-10.703,4.478-13.078,10.142c-2.162,5.155-4.145,10.496-5.285,15.948c-5.602,26.759-7.451,53.902-7.64,81.187
	c-0.029,4.166,0.526,8.214,2.229,12.062c2.711,6.129,6.885,10.503,13.944,10.919c11.716,0.69,23.442,1.192,35.167,1.737
	c4.22,0.197,8.445,0.292,12.797,0.958c-0.332,0.141-0.659,0.389-0.996,0.405c-15.249,0.766-30.443,0.29-45.651-1.226
	c-9.745-0.971-15.036-6.308-17.596-15.21c-0.433-1.505-0.984-2.978-1.481-4.465c-0.693-30.243,2.201-60.224,6.596-90.113
	c-0.545,1.253-0.953,2.527-1.137,3.832c-1.084,7.648-2.229,15.29-3.142,22.959c-2.167,18.216-2.939,36.521-3.049,54.852
	C280.053,410.239,280.591,413.044,280.872,415.849z"/>
<path fill-rule="evenodd" clip-rule="evenodd" fill="#FFFFFF" d="M216.928,42.711c3.255-1.165,5.736-3.467,10.168-3.287
	c-1.344,1.401-2.167,2.345-3.079,3.192c-3.497,3.247-6.811,6.622-8.773,11.092c-0.274,0.625-0.845,1.223-1.431,1.592
	c-9.115,5.766-14.004,14.276-16.067,24.626c-0.525,2.635-0.958,5.289-1.566,8.67c-2.292-8.003,1.363-22.323,9.641-41.982
	c-1.351,2.22-2.741,4.417-4.042,6.666c-1.885,3.257-3.737,6.51-7.191,8.439c-2.667,1.49-3.577,1.276-5.538-1.732
	c-0.682,0.729-1.439,1.321-1.924,2.086c-10.362,16.34-18.045,33.662-19.315,53.295c-0.762,11.776,1.158,22.919,7.885,32.911
	c0.526,0.782,0.897,1.668,1.154,2.625c-4.649-4.082-7.875-9.156-10.244-14.806c-4.7-11.208-4.854-22.833-3.156-34.641
	c2.075-14.434,8.334-27.101,16.106-39.208c5.783-9.007,12.785-16.947,20.485-24.291c7.93-7.563,17.167-13.315,26.849-18.306
	C243.489,11.1,261.1,5.661,279.675,3.642c26.131-2.839,51.635-0.568,76.041,9.969c17.171,7.413,31.693,18.295,43.652,32.698
	c11.973,14.418,19.399,31.043,24.185,48.964c1.576,5.902,2.807,11.905,3.97,17.906c0.52,2.682,1.571,4.894,3.369,6.931
	c2.272,2.574,4.314,5.351,6.142,8.286c-5.511-3.518-10.674-6.759-11.808-14.449c-2.423-16.425-7.776-32.003-16.346-46.354
	c-0.512-0.858-1.014-1.728-1.433-2.633c-5.572-12.034-13.345-22.413-23.237-31.246c-10.301-9.199-22.097-15.819-34.997-20.561
	c-22.407-8.236-45.446-10.593-68.984-6.703c-16.275,2.689-31.018,9.393-44.505,18.807c-6.351,4.433-12.545,9.108-17.317,15.351
	C217.887,41.288,217.42,42.009,216.928,42.711z"/>
<path fill-rule="evenodd" clip-rule="evenodd" fill="#FFFFFF" d="M88.326,354.105c0-4.375,0-8.339,0-12.759
	c1.282-0.129,2.579-0.37,3.878-0.374c16.712-0.047,33.424-0.048,50.137-0.087c13.604-0.032,27.213,0.093,40.809-0.254
	c4.987-0.127,8.345,1.487,10.732,5.761c1.374,2.459,3.088,4.728,5.066,7.713C161.668,354.105,125.208,354.105,88.326,354.105z"/>
<path fill-rule="evenodd" clip-rule="evenodd" fill="#FFFFFF" d="M82.939,364.61c3.918,1.573,4.644,4.153,4.648,7.46
	c0.08,51.976,0.274,103.95,0.358,155.925c0.049,30.109-0.052,60.218-0.086,90.327c-0.001,1.338,0,2.676,0,4.137
	c-3.687-1.066-4.849-2.301-5.035-5.392c-0.172-2.865-0.197-5.743-0.197-8.616c-0.011-71.344-0.013-142.688-0.008-214.031
	c0-8.621,0.043-17.242,0.088-25.863C82.714,367.34,82.847,366.123,82.939,364.61z"/>
<path fill-rule="evenodd" clip-rule="evenodd" fill="#FFFFFF" d="M77.331,106.64c-2.655,2.036-2.938,4.772-2.937,7.778
	c0.028,54.849-0.002,109.698,0.001,164.546c0,3.243-0.015,6.504,0.311,9.722c0.391,3.859,2.415,5.815,6.282,6.229
	c3.349,0.358,6.726,0.486,10.094,0.609c26.468,0.963,52.933,2.007,79.406,2.811c17.605,0.535,35.221,0.714,52.832,1.057
	c1.528,0.03,3.056,0.095,4.584,0.143c0.015,0.397,0.029,0.796,0.044,1.193c-1.604,0.168-3.211,0.5-4.814,0.48
	c-17.489-0.206-34.986-0.205-52.465-0.776c-23.22-0.759-46.424-1.991-69.637-2.987c-7.487-0.322-14.981-0.506-22.468-0.834
	c-1.479-0.065-3.013-0.303-4.398-0.805c-2.927-1.061-4.814-3.062-4.833-6.401c-0.011-1.874-0.058-3.748-0.059-5.622
	c-0.029-47.353-0.04-94.707-0.096-142.06c-0.01-8.369-0.275-16.738-0.305-25.107C68.847,109.716,70.303,108.024,77.331,106.64z"/>
<path fill-rule="evenodd" clip-rule="evenodd" fill="#FFFFFF" d="M259.423,476.323c0.354,4.105,0.691,8.024,1.06,12.304
	c3.162,0.349,6.48,0.896,9.817,1.051c18.596,0.857,37.196,1.635,55.797,2.39c1.864,0.075,3.739-0.205,5.611-0.275
	c9.836-0.371,16.182-5.751,20.353-14.21c1.491-3.024,2.964-6.063,4.286-9.162c3.723-8.729,7.581-17.407,10.981-26.261
	c4.426-11.522,4.119-23.531,2.468-35.502c-0.388-2.81-2.088-5.438-3.429-8.755c4.073,2.941,6.309,6.447,6.851,10.771
	c1.484,11.832,0.674,23.479-4.017,34.587c-4.76,11.271-9.499,22.562-14.719,33.621c-1.933,4.097-4.876,7.861-7.953,11.236
	c-3.547,3.89-8.654,4.711-13.719,5.123c-12.995,1.058-25.977,0.406-38.953-0.344c-10.099-0.582-20.239-0.859-30.276-2.012
	c-19.221-2.207-38.382-4.932-57.565-7.473c-1.001-0.132-1.964-0.548-2.934-1.214c3.721-0.441,6.317-2.938,9.424-4.292
	c5.58-2.432,11.338-4.456,17.05-6.576c0.779-0.289,1.749-0.318,2.579-0.176c8.831,1.526,17.651,3.108,26.472,4.689
	C258.834,475.884,259.031,476.087,259.423,476.323z"/>
<path fill-rule="evenodd" clip-rule="evenodd" fill="#FFFFFF" d="M86.162,341.041c0,4.344,0,8.518,0,13.067
	c-1.791,0.091-3.251,0.228-4.71,0.228c-23.085,0.003-46.17-0.006-69.255-0.03c-3.882-0.005-4.525-0.645-4.817-4.499
	c-0.01-0.124-0.011-0.249-0.019-0.374c-0.419-7.557-0.066-8.079,7.459-8.156c22.706-0.232,45.412-0.355,68.118-0.505
	C83.908,340.766,84.88,340.929,86.162,341.041z"/>
<path fill-rule="evenodd" clip-rule="evenodd" fill="#FFFFFF" d="M384.1,583.369c-2.862-0.407-5.387-0.767-8.179-1.165
	c0-30.24,0-60.165,0-90.647c2.534-0.347,5.157-0.706,8.179-1.119C384.1,521.576,384.1,552.203,384.1,583.369z"/>
<path fill-rule="evenodd" clip-rule="evenodd" fill="#FFFFFF" d="M189.968,458.332c-9.515-3.693-16.599-10.098-21.765-18.683
	c-1.007-1.675-1.039-3.206-0.115-4.925c6.756-12.577,15.267-23.663,26.926-32.143c0.919-0.668,1.507-1.828,2.15-2.824
	c0.329-0.511,0.46-1.156,0.643-1.753c2.325-7.581,6.963-13.148,14.268-16.394c2.935-1.304,5.877-2.592,8.815-3.887
	c0.2,0.227,0.4,0.453,0.6,0.679c-2.997,4.125-6.216,8.109-8.93,12.413c-2.787,4.418-5.362,9.021-7.508,13.779
	c-2.094,4.643-3.684,9.535-5.21,14.406c-1.559,4.973-2.771,10.054-4.365,15.933c-2.605-9.469-0.875-18.346-0.694-27.141
	c-0.289-0.116-0.577-0.231-0.866-0.348c-5.6,6.799-11.35,13.481-16.753,20.434c-4.211,5.418-4.325,11.451-0.505,17.076
	c2.35,3.459,5.453,6.431,8.385,9.461C186.489,455.91,188.314,457.038,189.968,458.332z"/>
<path fill-rule="evenodd" clip-rule="evenodd" fill="#FFFFFF" d="M454.335,370.006c0.986,0,2.08-0.006,3.174,0.002
	c5.981,0.035,11.963,0.053,17.943,0.119c5.314,0.059,5.523,0.289,5.557,5.435c0.029,4.611,0.076,9.223,0.086,13.833
	c0.004,1.226-0.099,2.452-0.176,4.215c-9.721,0.709-19.224,0.215-28.597,0.285C451.509,391.066,453.001,374.116,454.335,370.006z"/>
<path fill-rule="evenodd" clip-rule="evenodd" fill="#FFFFFF" d="M455.711,341.135c2.312,0,4.398,0.007,6.485-0.002
	c9.338-0.036,18.676-0.079,28.014-0.117c0.622-0.003,1.247-0.027,1.867,0.013c4.438,0.291,4.789,0.631,4.911,5.113
	c0.065,2.451,0.012,4.906,0.012,7.17c-3.32,1.354-35.726,1.845-42.041,0.725C455.197,349.958,455.438,345.818,455.711,341.135z"/>
<path fill-rule="evenodd" clip-rule="evenodd" fill="#FFFFFF" d="M216.063,408.621c1.42-12.479,3.983-24.51,11.384-34.909
	c2.968-4.171,5.965-8.33,9.136-12.345c3.9-4.939,6.492-10.27,6.753-16.713c0.12-2.959,1.002-5.89,1.598-8.821
	c0.113-0.557,0.507-1.058,1.097-1.586c-0.632,8.575-2.818,17.469,6.212,23.554c-2.181,1.34-4.164,2.313-5.859,3.65
	c-3.448,2.724-5.336,6.541-6.794,10.586c-2.516,6.983-3.878,14.203-4.383,21.594c-0.11,1.614-0.157,3.232-0.24,4.999
	c-2.246-3.679-2.032-10.936,0.461-26.631C228.389,383.887,220.114,395.114,216.063,408.621z"/>
<path fill-rule="evenodd" clip-rule="evenodd" fill="#FFFFFF" d="M169.441,229.125c-2.579-1.154-3.882-3.346-4.897-5.776
	c-3.299-7.897-4.318-16.107-3.37-24.586c0.193-1.724,0.379-3.447,0.199-5.22c-3.195,7.8-4.352,15.914-3.312,24.375
	c-0.257,0.043-0.515,0.086-0.772,0.13c-0.504-1.056-1.092-2.082-1.498-3.174c-2.393-6.453-1.866-12.903-0.482-19.536
	c2.645-12.682,8.938-23.785,14.529-35.209c1.294-2.644,2.701-5.233,4.108-7.948c2.654,1.727,1.622,3.754,0.989,5.527
	c-1.591,4.466-3.329,8.879-5.061,13.292c-4.24,10.805-6.776,21.929-6.487,33.609C163.6,213.193,164.663,221.55,169.441,229.125z"/>
<path fill-rule="evenodd" clip-rule="evenodd" fill="#FFFFFF" d="M233.751,470.051c4.924-2.041,10.047-3.112,15.208-3.138
	c9.715-0.048,19.45,0.135,29.144,0.745c9.705,0.611,19.37,1.859,29.051,2.841c0.849,0.085,1.689,0.261,2.753,0.428
	c-2.614,1.691-15.95,2.633-38.002,3.483C258.95,474.91,246.393,472.786,233.751,470.051z"/>
<path fill-rule="evenodd" clip-rule="evenodd" fill="#FFFFFF" d="M296.639,612.955c-0.569-7.27-1.229-14.463-1.659-21.67
	c-0.225-3.783,1.615-5.748,5.395-6.124c1.474-0.146,3.014-0.084,4.473,0.171c3.662,0.637,5.114,2.366,5.176,6.11
	c0.081,4.864,0.12,9.731,0.051,14.596c-0.031,2.22-0.363,4.436-0.583,6.917C305.155,612.955,301.104,612.955,296.639,612.955z"/>
<path fill-rule="evenodd" clip-rule="evenodd" fill="#FFFFFF" d="M249.747,138.76c-1.069,7.375-4.662,13.308-7.955,20.239
	c0-4.181-0.012-7.467,0.002-10.753c0.059-13.074-6.234-21.019-17.82-25.044c-0.697-0.242-1.362-0.581-2.361-1.013
	c-1.273-6.757-1.378-13.622-0.57-20.66C225.935,117.45,235.243,129.861,249.747,138.76z"/>
<path fill-rule="evenodd" clip-rule="evenodd" fill="#FFFFFF" d="M296.21,555.361c0,8.18,0,15.982,0,24.254
	c-1.718-0.245-3.097-0.233-4.299-0.689c-0.791-0.3-1.882-1.264-1.894-1.946c-0.132-7.939-0.084-15.882-0.084-24.153
	c8.495,0,16.506,0,24.713,0c0.255,1.186,0.629,2.131,0.636,3.079c0.042,6.488,0.047,12.979-0.026,19.466
	c-0.021,1.794,0.046,3.894-2.797,3.785c0-7.919,0-15.654,0-23.795C306.898,555.361,301.657,555.361,296.21,555.361z"/>
<path fill-rule="evenodd" clip-rule="evenodd" fill="#FFFFFF" d="M257.221,118.8c0.097,1.279,0.441,2.595,0.254,3.832
	c-1.649,10.874-3.354,21.819-7.454,32.033c-2.672,6.655-6.788,12.75-10.449,18.983c-3.035,5.167-6.518,10.074-9.478,15.282
	c-1.71,3.008-2.793,6.376-4.123,9.597c-0.453,1.094-0.796,2.233-1.5,3.255c-0.18-4.714,0.942-9.196,2.871-13.327
	c2.634-5.644,5.295-11.393,8.839-16.473c10.308-14.772,16.155-31.171,19.138-48.756c0.248-1.463,0.609-2.905,0.918-4.357
	C256.565,118.847,256.894,118.824,257.221,118.8z"/>
<path fill-rule="evenodd" clip-rule="evenodd" fill="#FFFFFF" d="M310.233,550.135c-5.205,0.928-9.927,0.625-14.928-0.223
	c0-5.653,0-10.942,0-16.763c5.252,1.25,9.73,3.229,13.649,6.377c0.679,0.545,1.164,1.685,1.221,2.582
	C310.338,544.682,310.233,547.271,310.233,550.135z"/>
<path fill-rule="evenodd" clip-rule="evenodd" fill="#FFFFFF" d="M359.578,294.121c-3.541,0-6.863,0-10.851,0
	c1.236-9.841,2.919-19.751,1.118-29.845C356.198,266.248,359.934,284.577,359.578,294.121z"/>
<path fill-rule="evenodd" clip-rule="evenodd" fill="#FFFFFF" d="M192.069,337.604c-0.815,0.095-1.63,0.27-2.445,0.271
	c-10.122,0.011-20.243-0.035-30.365,0.007c-3.696,0.016-7.042-1.073-10.511-2.27c-7.305-2.521-14.789-4.523-22.216-6.682
	c-2.854-0.829-5.752-1.501-8.549-2.224c-1.94,2.777-2.296,4.222-2.379,9.586c5.342,0.533,10.729,1.07,16.117,1.607
	c-0.013,0.104-0.026,0.207-0.04,0.312c-6.164,0-12.327,0-18.703,0c0.776-4.656,1.329-8.943,3.992-13.146
	c3.939,0.823,7.881,1.411,11.682,2.491c7.921,2.252,15.684,5.115,23.677,7.038c4.653,1.12,9.621,1.116,14.457,1.243
	c7.736,0.204,15.481,0.077,23.222,0.151c0.756,0.007,1.509,0.44,2.263,0.677C192.203,336.979,192.136,337.292,192.069,337.604z"/>
<path fill-rule="evenodd" clip-rule="evenodd" fill="#FFFFFF" d="M346.303,596.364c9.025,0.862,18.153,1.735,27.266,2.606
	c0.221,1.159,0.393,1.746,0.43,2.34c0.037,0.604-0.059,1.218-0.126,2.299c-1.994,0.117-3.919,0.336-5.842,0.324
	c-5.971-0.037-11.948-0.001-17.907-0.303C345.788,603.41,344.574,601.046,346.303,596.364z"/>
<path fill-rule="evenodd" clip-rule="evenodd" fill="#FFFFFF" d="M211.856,124.695c-1.458,4.142-3.289,9.342-5.187,14.735
	c-3.943-5.248-7.151-21.123-6.25-30.227C204.024,114.086,207.62,118.956,211.856,124.695z"/>
<path fill-rule="evenodd" clip-rule="evenodd" fill="#FFFFFF" d="M310.489,635.592c3.803-6.595,3.544-11.687-0.312-15.468
	c-2.508-2.461-7.918-2.951-11.201-1.014c-5.221,3.079-6.403,7.696-4.034,15.75c-4.068-2.827-5.442-7.096-3.856-11.983
	c1.705-5.253,6.164-8.137,12.523-8.097c5.385,0.033,9.472,3.046,11.207,8.259C316.485,628.058,315.203,632.261,310.489,635.592z"/>
<path fill-rule="evenodd" clip-rule="evenodd" fill="#FFFFFF" d="M302.684,170.084c-0.104,14.01-1.969,27.545-7.276,40.409
	c-2.81,6.81-7.063,12.602-12.79,17.249c-1.302,1.056-2.863,1.792-4.728,2.163c1.108-1.073,2.21-2.152,3.324-3.218
	c8.007-7.65,12.912-17.098,15.462-27.723c2.006-8.359,3.457-16.853,5.166-25.284C302.087,172.474,302.401,171.283,302.684,170.084z"
	/>
<path fill-rule="evenodd" clip-rule="evenodd" fill="#FFFFFF" d="M204.239,626.358c3.454-8.188,3.053-12.064-1.329-15.69
	c-3.28-2.715-8.203-3.079-11.521-0.854c-4.774,3.203-5.581,7.468-2.952,15.617c-3.978-2.546-5.579-6.999-4.312-11.992
	c1.149-4.529,4.946-7.69,9.683-8.063c6.01-0.472,11.409,2.6,14.063,8.001C209.991,617.693,208.682,623.006,204.239,626.358z"/>
<path fill-rule="evenodd" clip-rule="evenodd" fill="#FFFFFF" d="M416.621,625.832c3.382-7.396,3.116-11.924-0.497-15.119
	c-3.508-3.103-7.904-3.476-12.128-1.03c-4.325,2.504-5.684,6.912-4.244,13.768c-2.688-1.738-3.484-4.769-2.35-8.951
	c1.377-5.074,5.734-8.77,10.669-9.049c6.584-0.371,11.006,2.147,12.904,7.351C422.621,617.311,421.15,622.198,416.621,625.832z"/>
<path fill-rule="evenodd" clip-rule="evenodd" fill="#FFFFFF" d="M258.343,236.765c-4.146,0.971-7.674,0.742-10.561-3.073
	c-3.78-4.996-5.521-9.543-5.341-17.912C245.922,224.126,250.451,231.65,258.343,236.765z"/>
<path fill-rule="evenodd" clip-rule="evenodd" fill="#FFFFFF" d="M351.65,490.052c20.085-3.59,40.549-3.328,60.125-9.331
	c0.103,0.278,0.205,0.559,0.308,0.838c-1.379,0.624-2.702,1.546-4.148,1.823c-7.951,1.528-15.89,3.276-23.917,4.229
	c-10.152,1.204-20.386,1.72-30.586,2.517C352.843,490.173,352.244,490.08,351.65,490.052z"/>
<path fill-rule="evenodd" clip-rule="evenodd" fill="#FFFFFF" d="M320.662,474.984c1.928-0.351,3.848-0.936,5.785-1.003
	c3.178-0.109,4.934-1.778,6.205-4.481c2.122-4.508,4.458-8.915,6.6-13.414c2.408-5.06,4.695-10.178,7.058-15.259
	c0.196-0.422,0.563-0.764,1.457-0.907c-0.579,1.814-0.962,3.724-1.772,5.429c-3.638,7.65-7.22,15.335-11.162,22.828
	C331.136,475.204,328.85,476.16,320.662,474.984z"/>
<path fill-rule="evenodd" clip-rule="evenodd" fill="#FFFFFF" d="M184.189,332.387c-5.698,0-10.753,0-15.996,0
	c0-0.952,0-1.737,0-2.55c-1.88-0.522-4.181-0.203-5.558-2.241c3.731-2.781,6.75-1.918,8.438,2.686
	c2.839,0.076,5.901,0.264,8.958,0.196C181.547,330.444,182.912,330.301,184.189,332.387z"/>
<path fill-rule="evenodd" clip-rule="evenodd" fill="#FFFFFF" d="M286.379,235.553c-5.527,0.815-9.626,0.386-14.429-1.589
	c3.956-1.584,7.35-2.942,11.156-4.466C284.162,231.449,285.17,233.314,286.379,235.553z"/>
<path fill-rule="evenodd" clip-rule="evenodd" fill="#FFFFFF" d="M93.286,370.605l-0.058,0.048L93.286,370.605z"/>
<path fill-rule="evenodd" clip-rule="evenodd" d="M280.872,415.849c-0.281-2.805-0.819-5.609-0.802-8.411
	c0.109-18.331,0.882-36.636,3.049-54.852c0.913-7.669,2.058-15.311,3.142-22.959c0.184-1.305,0.592-2.579,1.137-3.832
	c-4.395,29.89-7.289,59.87-6.596,90.113L280.872,415.849z"/>
</svg>
