<?xml version="1.0" encoding="utf-8"?>
<!-- Generator: Adobe Illustrator 16.0.3, SVG Export Plug-In . SVG Version: 6.00 Build 0)  -->
<!DOCTYPE svg PUBLIC "-//W3C//DTD SVG 1.1//EN" "http://www.w3.org/Graphics/SVG/1.1/DTD/svg11.dtd">
<svg version="1.1" id="レイヤー_1" xmlns="http://www.w3.org/2000/svg" xmlns:xlink="http://www.w3.org/1999/xlink" x="0px"
	 y="0px" width="594.41px" height="917.247px" viewBox="0 0 594.41 917.247" enable-background="new 0 0 594.41 917.247"
	 xml:space="preserve">
<path fill-rule="evenodd" clip-rule="evenodd" d="M133.334,640.863c-7.693-1.051-15.139-1.903-22.524-3.118
	c-9.239-1.52-12.001-4.497-12.597-13.813c-0.361-5.641-0.317-11.332-0.063-16.982c0.339-7.542,2.856-11.121,10.341-12.691
	c10.573-2.219,21.313-3.691,32.021-5.207c6.751-0.956,13.573-1.408,21.296-3.329c-4.866-3.886-9.316-8.547-14.711-11.451
	c-6.04-3.251-8.597-8.666-9.96-14.192c-1.465-5.938-1.234-12.221,2.453-18.213c10.96-17.81,32.017-23.437,50.063-15.715
	c1.343,0.574,2.701,1.111,4.459,1.833c-0.587,2.159-1.216,4.478-2.064,7.6c-1.816-1.187-3.145-2.295-4.659-3.006
	c-15.21-7.132-37.897,0.081-42.977,15.053c-1.949,5.747-1.66,11.242,0.983,16.438c1.065,2.094,3.59,3.444,5.451,5.133
	c0.466-0.363,0.932-0.727,1.397-1.091c-0.122-2.048-0.243-4.096-0.391-6.563c13.7,21.294,28.024,40.876,57.594,39.056
	c0.044,12.133,0.479,24.479,5.501,36.86c-1.146-9.523-2.583-18.204-3.16-26.942c-1.13-17.12,2.065-33.86,5.358-50.55
	c4.111-20.83,10.271-40.942,20.08-59.903c8.799-17.006,19.795-31.892,36.266-42.338c3.196-2.027,5.369-5.672,7.999-8.584
	c0.33-0.366,0.479-1.039,0.862-1.192c6.945-2.776,5.102-8.514,4.239-13.531c-1.011-5.883-2.283-11.808-4.279-17.416
	c-3.247-9.124-10.533-11.291-18.647-5.92c-10.69,7.076-17.263,17.396-22.172,28.925c-3.452,8.109-6.601,16.35-10.175,24.403
	c-7.478,16.847-15.556,33.44-22.581,50.471c-4.11,9.965-6.653,20.574-9.931,30.884c-0.528,1.661-1.21,3.274-2.159,5.813
	c-0.818-1.497-1.34-2.01-1.346-2.527c-0.199-17.392,4.907-33.518,11.717-49.256c4.287-9.907,8.4-19.89,12.594-29.836
	c5.281-12.527,10.531-25.067,15.859-37.575c6.118-14.362,16.382-25.46,29.997-32.32c7.253-3.654,16.372-3.647,24.677-5.139
	c1.901-0.342,3.917-0.051,5.88-0.051c0.048-0.515,0.096-1.029,0.144-1.544c-1.522-0.162-3.058-0.545-4.563-0.451
	c-9.312,0.579-18.606,1.574-27.924,1.854c-22.529,0.675-44.615-1.532-65.301-11.489c-2.017-0.971-3.984-2.041-6.727-2.244
	c1.048,1.339,2.048,2.718,3.155,4.004c1.153,1.342,2.411,2.595,4.484,4.804c-15.689-1.08-25.951-9.139-34.927-19.5
	c-0.306,7.44,4.374,17.558,16.624,35.936c-8.806,2.556-19.449-1.277-37.873-12.777c2.955,4.408,5.91,8.816,8.789,13.11
	c-4.896,0.473-12.991-2.862-19.315-8.73c-10.396-9.646-16.864-21.722-20.881-35.208c-1.946-6.532-3.865-13.074-5.932-19.568
	c-8.139-25.579-4.115-50.707,2.694-75.746c0.524-1.928,1.167-3.848,1.432-5.814c0.615-4.576-3.836-7.713-8.12-6.134
	c-14.661,5.403-29.793,7.184-45.149,4.16c-5.548-1.093-11.078-3.412-14.317-7.967c7.97-3.334,16.556-5.456,23.407-10.123
	c11.439-7.793,19.388-17.856,17.746-33.672c-1.987-19.143,2.462-37.774,8.252-55.986c6.326-19.895,13.687-39.529,26.244-56.304
	C160.88,38.172,218.034,5.261,289.714,0.571C344.377-3.004,395.126,9.998,438.26,45.41c26.932,22.11,46.117,50.268,58.179,82.947
	c5.001,13.548,11.143,26.053,22.91,34.78c5.116,3.794,11.006,6.71,16.866,9.294c6.896,3.042,14.144,5.29,21.434,7.954
	c-4.118,6.261-10.806,9.667-18.596,10.618c-7.561,0.923-15.227,0.98-23.978,1.483c1.82,3.824,3.278,7.43,5.176,10.787
	c10.014,17.716,19.9,35.461,23.914,55.758c3.431,17.344,3.569,34.522-3.266,51.117c-5.655,13.733-15.432,23.362-30.072,28.237
	c0-6.279,0-12.012,0-17.744c-6.015,21.406-19.667,34.664-41.88,40.481c1.604-3.578,2.874-6.411,4.144-9.243
	c-0.296-0.17-0.592-0.34-0.888-0.509c-5.421,4.439-10.497,9.42-16.36,13.167c-5.922,3.783-12.625,6.344-20.168,10.016
	c3.234-7.671,5.786-13.722,8.425-19.979c-8.157,4.98-15.722,9.599-23.286,14.217c-0.348-0.387-0.695-0.773-1.044-1.16
	c1.049-2.442,2.097-4.884,3.146-7.326c-12.742,13.853-26.316,25.506-46.396,25.985c4.394-6.595,8.68-13.027,12.966-19.461
	c-0.489-0.411-0.979-0.823-1.467-1.235c-8.105,5.865-16.21,11.729-24.788,17.938c-0.275-2.521-0.567-5.183-0.876-8.006
	c-3.064,0.603-4.506,2.295-3.14,5.249c2.22,4.798,4.396,9.682,7.288,14.069c1.289,1.954,4.144,3.636,6.51,4
	c19.195,2.951,31.873,14.733,40.609,30.871c4.533,8.375,6.853,17.946,10.227,26.958c0.503,1.345,0.991,2.945,2.011,3.81
	c17.475,14.807,29.109,33.036,36.153,55.046c5.598,17.491,11.389,34.809,14.089,52.998c3.87,26.068,3.738,51.978-6.616,76.668
	c-2.991,7.132-9.051,12.954-13.532,19.494c-1.374,2.006-2.886,4.33-3.125,6.634c-1.49,14.387-2.458,28.827-4.017,43.205
	c-0.421,3.881-2.143,7.66-3.543,11.383c-0.884,2.353-0.534,3.606,1.887,4.637c2.586,1.101,5.036,2.585,7.404,4.121
	c6.921,4.489,10.899,10.386,9.973,19.188c-0.573,5.439-0.257,10.992-0.09,16.486c0.218,7.119-2.999,11.968-9.07,15.414
	c-18.204,10.334-38.035,15.912-58.307,20.256c-5.211,1.117-11.67,0.757-15.262,3.791c-3.206,2.709-2.942,9.284-4.75,13.944
	c-3.291,8.479-5.747,17.651-10.797,24.99c-7.599,11.044-11.963,10.289-18.595-1.558c-4.388-7.839-6.526-17.024-9.039-25.789
	c-1.271-4.434-2.708-6.711-7.769-5.542c-3.536,0.815-7.328,0.476-10.911,1.152c-1.294,0.244-3.297,1.936-3.309,2.985
	c-0.204,18.142-0.146,36.287-0.146,54.922c7.811,1.066,15.327,1.93,22.788,3.14c28.522,4.625,56.508,11.453,83.75,21.135
	c7.909,2.811,9.561,9.81,10.156,17.569c-3.433,0-7.003-0.19-10.548,0.031c-22.354,1.397-44.405-0.384-66.312-5.196
	c-10.143-2.228-20.574-3.145-32-4.82c0.823,3.788,1.458,6.71,2.159,9.937c-18.944,0-37.811,0-56.882,0
	c0.391-2.73,0.753-5.257,1.243-8.677c-8.481,0.917-16.246,1.456-23.908,2.657c-10.975,1.72-21.813,5.08-32.818,5.658
	c-18.259,0.959-36.604,0.261-54.903,0.261c1.613-13.052,3.417-15.501,15.917-18.716c25.665-6.602,51.367-13.063,77.135-19.251
	c6.414-1.54,13.134-1.796,19.706-2.691c2.104-0.286,4.188-0.729,6.537-1.145c0-19.234,0-38.165,0-57.697
	c-5.66-0.491-11.078-1.245-16.492-1.214c-1.233,0.007-2.996,2.534-3.588,4.226c-3.46,9.89-6.353,19.963-12.873,28.516
	c-4.854,6.367-14.168,6.301-17.476-1.003c-3.675-8.115-6.23-16.737-9.233-25.153c-0.332-0.93-0.447-1.948-0.574-2.938
	c-0.857-6.688-4.035-9.786-11.324-10.965c-24.862-4.02-49.266-9.913-72.403-20.453c-10.126-4.613-16.019-10.91-14.902-22.545
	c0.349-3.631,0.39-7.376-0.079-10.984c-1.477-11.365,4.504-18.089,13.997-22.147c4.675-1.998,5.291-4.067,4.139-8.901
	c-5.947-24.958-7.867-50.243-4.554-75.8c0.214-1.651,0.391-3.309,0.52-4.968C133.701,642.301,133.507,641.809,133.334,640.863z
	 M179.967,163.173c-2.012,2.946-3.524,4.838-4.693,6.923c-11.822,21.099-19.626,43.612-24.868,67.226
	c-2.589,11.655-1.71,22.355,3.031,33.044c6.813,15.358,13.542,30.752,20.35,46.112c3.134,7.067,4.147,14.182,2.185,21.875
	c-2.8,10.975,1.084,20.047,9.476,27.198c3.399,2.896,7.186,5.409,11.034,7.694c13.041,7.743,27.563,10.756,42.37,12.411
	c38.68,4.324,75.965-0.747,110.516-19.233c21.65-11.583,16.646-6.029,22.155-29.727c6.22-26.753,6.873-54.143,7.241-81.487
	c0.113-8.428,0.018-16.857,0.018-25.378c-26.152-4.961-48.834-15.765-67.748-34.038c-0.98-0.947-2.631-1.866-3.88-1.759
	c-6.604,0.565-13.209,1.271-19.749,2.331c-3.126,0.507-4.718,2.534-3.983,6.179c1.742,8.65,3.219,17.355,4.729,26.051
	c0.456,2.633,0.667,5.308,1.053,8.482c-16.96-7.898-28.502-20.211-38.826-34.391c1.192,8.19,2.66,16.274,5.021,24.09
	c2.38,7.884,5.645,15.5,8.707,23.73c-13.287-0.637-25.236-4.845-36.249-11.65C200.116,221.715,185.947,195.695,179.967,163.173z
	 M97.129,229.61c0.139-0.098,0.278-0.195,0.417-0.293c0.603-9.048,0.176-18.313,2.03-27.096
	c3.432-16.258,7.873-32.329,12.562-48.281c1.991-6.774,5.282-13.26,8.644-19.522c10.97-20.438,25.714-38.069,42.173-54.211
	c15.131-14.839,32.826-25.377,53.985-29.461c2.848-0.55,5.731-1.857,8.161-3.473c11.368-7.559,22.492-15.485,33.888-23.002
	c6.866-4.529,14.068-8.549,22.028-13.345c-1.961,0-2.936-0.142-3.856,0.022c-6.876,1.229-13.822,2.188-20.598,3.838
	C181.16,33.156,128.778,78.032,101.426,150.959c-7.607,20.283-10.848,41.573-7.691,63.358
	C94.481,219.471,95.978,224.516,97.129,229.61z M439.886,676.683c-10.675,3.257-20.9,6.479-31.199,9.45
	c-2.813,0.812-3.278,1.964-2.429,4.644c2.959,9.326,6.664,18.518,6.132,28.601c-0.176,3.35,1.945,3.999,4.722,4.389
	c3.453,0.483,6.911,1.195,10.241,2.218c3.772,1.159,5.692-0.092,6.264-3.828c1.72-11.266,3.485-22.523,5.109-33.803
	C439.314,684.26,439.554,680.116,439.886,676.683z M446.964,308.799c10.676-4.577,17.367-12.843,19.955-24.181
	c3.084-13.514,1.738-26.224-9.17-36.271c-3.582-3.3-7.82-5.257-12.645-4.687C445.732,265.665,446.343,287.048,446.964,308.799z
	 M373.221,407.483c-0.548-0.385-1.096-0.769-1.645-1.153c-1.927,0.393-3.947,0.537-5.765,1.223
	c-6.961,2.624-13.906,2.821-21.064,0.776c-6.401-1.828-12.872-3.463-19.385-4.839c-3.569-0.754-7.289-0.795-11.379-1.201
	c3.729,10.509,12.216,13.949,20.427,16.812c12.081,4.211,24.318,4.847,34.719-4.652
	C371.028,412.713,371.884,409.834,373.221,407.483z M174.5,641.28c-5.117,0-10.767,0.132-16.406-0.05
	c-3.378-0.109-4.363,1.337-4.124,4.476c0.405,5.305,0.274,10.669,0.957,15.932c1.073,8.289,4.184,15.727,9.754,21.414
	C167.992,668.965,171.23,655.187,174.5,641.28z M140.614,643.815c-1.65,27.923,5.895,54.566,9.803,81.827
	c9.808-2.225,10.075-2.516,10.804-10.871c0.115-1.326-0.081-2.731,0.292-3.973c1.274-4.242-0.136-7.37-2.911-10.729
	c-7.979-9.656-13.349-20.69-15.201-33.187C142.265,659.225,141.529,651.507,140.614,643.815z M369.097,811.555
	c-7.502,0.937-13.644,1.559-19.713,2.604c-1,0.172-2.607,2.462-2.364,3.337c2.21,7.945,4.622,15.846,7.348,23.629
	c0.54,1.542,2.749,3.58,4.05,3.485c1.446-0.105,3.41-2.152,3.975-3.766c2.911-8.311,5.554-16.722,7.992-25.184
	C370.74,814.429,369.497,812.734,369.097,811.555z M228.384,811.994c-0.377,1.058-1.544,2.619-1.28,3.882
	c1.59,7.604,3.324,15.191,5.45,22.659c0.509,1.785,2.538,4.082,4.147,4.331c1.471,0.228,4.158-1.628,4.859-3.208
	c3.079-6.94,5.786-14.063,8.199-21.262c0.335-0.999-1.524-3.835-2.697-4.053C241.37,813.285,235.566,812.829,228.384,811.994z
	 M277.205,147.267c1.639,16.251,3.152,31.268,4.584,45.466c7.518-2.072,14.073-3.879,19.941-5.496
	C294.131,174.851,286.115,161.787,277.205,147.267z M156.562,751.734c0.177-0.466,0.354-0.933,0.529-1.399
	c-2.138-1.499-4.404-2.848-6.377-4.54c-2.001-1.718-3.811-3.689-5.527-5.701c-4.259-4.988-5.902-5.064-10.976-0.448
	c-2.363,2.15-2.417,4.189,0.653,5.245C142.033,747.355,149.321,749.475,156.562,751.734z M427.394,750.848
	c7.977-2.369,16.78-3.396,25.377-8.858c-3.493-2.23-5.85-4.015-8.465-5.252c-0.893-0.422-2.799,0.144-3.619,0.918
	C436.198,741.89,431.902,746.331,427.394,750.848z M415.736,453.814c-5.094-10.584-9.662-20.079-14.231-29.573
	c-0.47,0.209-0.939,0.418-1.41,0.627c1.931,6.281,4.459,12.456,5.602,18.878C406.622,448.954,408.355,452.476,415.736,453.814z"/>
<path fill-rule="evenodd" clip-rule="evenodd" d="M29.395,202.94c0,4.328,0.005,7.791-0.001,11.254
	c-0.129,78.964-0.232,157.927-0.474,236.89c-0.012,3.791,1.067,4.792,4.771,4.783c59.979-0.14,119.959-0.149,179.938-0.188
	c1.629-0.001,3.257,0,6.092,0c-2.901,6.217-5.53,11.509-7.87,16.927c-6.384,14.782-12.758,29.571-18.865,44.469
	c-1.306,3.184-3.127,3.439-5.787,2.689c-3.823-1.077-7.628-2.219-11.892-3.465c4.639-12.427,9.318-24.962,14.353-38.447
	c-2.706,0-4.607,0-6.51,0c-50.483-0.004-100.966,0-151.449-0.016c-15.825-0.005-19.274-3.488-19.271-19.521
	c0.014-58.475,0.057-116.949,0.083-175.424c0.012-26.487,0.004-52.976,0.017-79.463c0.007-13.654,4.678-18.365,18.229-18.448
	c13.494-0.082,26.989-0.181,40.483-0.25c1.296-0.007,2.593,0.149,4.254,0.253c-0.566,6.004-1.105,11.715-1.694,17.957
	C59.123,202.94,44.699,202.94,29.395,202.94z"/>
<path fill-rule="evenodd" clip-rule="evenodd" d="M563.949,191.985c0,3.755,0.011,6.673-0.001,9.592
	c-0.228,56.963-0.505,113.926-0.667,170.89c-0.082,28.983,0.048,57.967,0.06,86.95c0.001,1.829-0.119,3.665-0.297,5.486
	c-0.786,8.043-5.684,12.858-13.712,12.886c-31.318,0.104-62.639,0.111-93.957-0.066c-1.93-0.011-4.306-1.501-5.692-3.019
	c-5.552-6.071-10.796-12.424-16.148-18.668c36.949,0,74.584,0,112.953,0c0-2.49-0.002-4.422,0-6.354
	c0.049-41.311,0.018-82.622,0.255-123.932c0.026-4.727,1.1-9.578,2.463-14.141c4.099-13.716,5.222-26.489,4.481-40.575
	c-0.204-3.888-1.883-8.508-2.622-12.344c-0.931-4.832-3.573-9.181-4.249-14.064c-0.694-5.011-0.143-10.083-0.231-15.118
	c-0.136-7.654,0.136-15.317-0.045-22.97c-0.068-2.88,0.862-4.409,3.429-5.79C554.445,198.337,558.623,195.369,563.949,191.985z"/>
<path fill-rule="evenodd" clip-rule="evenodd" d="M63.6,542.916c22.521,0,45.041,0,67.86,0c-0.604,5.228-1.942,10.147-1.504,14.905
	c0.43,4.675,2.663,9.185,4.267,14.282c-1.789,0.196-3.382,0.515-4.976,0.523c-33.127,0.192-66.254,0.388-99.382,0.4
	c-1.635,0.001-4.321-1.358-4.67-2.602c-0.58-2.073-0.437-5.136,0.771-6.773c3.54-4.806,7.759-9.11,11.702-13.62
	c5.697-6.515,11.269-13.146,17.162-19.477c1.426-1.53,3.899-2.937,5.901-2.949c27.299-0.187,54.599-0.118,81.899-0.09
	c0.265,0.001,0.529,0.314,0.896,0.547c-2.492,3.064-4.718,6.369-7.546,9.034c-1.346,1.268-3.835,1.828-5.811,1.84
	c-18.646,0.114-37.292-0.066-55.937,0.114c-3.64,0.035-7.269,1.261-10.902,1.937C63.42,541.631,63.51,542.273,63.6,542.916z"/>
<path fill-rule="evenodd" clip-rule="evenodd" d="M0,613.884c0-12.74,0-25.148,0-38.144c7.582,0,15.014-0.001,22.446,0
	c34.82,0.006,69.642,0,104.463,0.037c3.324,0.004,6.702-0.036,9.955,0.525c2.774,0.479,5.404,1.794,8.098,2.739
	c-0.032,0.55-0.064,1.099-0.097,1.648c-1.558,0.463-3.096,1.012-4.677,1.374c-12.284,2.821-24.624,5.416-36.849,8.475
	c-7.447,1.862-10.901,7.019-10.568,14.819c0.118,2.768-0.532,5.567-0.852,8.525C61.106,613.884,30.698,613.884,0,613.884z"/>
<path fill-rule="evenodd" clip-rule="evenodd" d="M521.38,613.83c-0.588-5.147-1.128-9.745-1.634-14.347
	c-0.848-7.716-6.35-10.868-12.872-12.54c-5.454-1.397-11.056-2.476-16.656-2.967c-5.263-0.461-6.584-3.395-6.849-8.093
	c37.113,0,73.951,0,111.041,0c0,12.724,0,25.136,0,37.946C570.119,613.83,545.941,613.83,521.38,613.83z"/>
<path fill-rule="evenodd" clip-rule="evenodd" d="M547.204,573.495c-8.992,0-17.986,0.113-26.973-0.096
	c-1.795-0.041-3.794-0.992-5.296-2.079c-4.98-3.603-9.636-7.664-14.69-11.151c-3.872-2.673-5.261-6.13-2.679-9.754
	c4.976-6.985,10.347-13.748,16.18-20.022c1.622-1.744,5.411-1.719,8.258-2.015c3.342-0.349,6.743-0.068,10.111-0.225
	c12.684-0.588,25.06,1.32,33.626,11.212c5.955,6.877,10.226,15.491,14.007,23.888c3.274,7.271,0.701,10.068-7.061,10.011
	c-8.494-0.063-16.988-0.014-25.483-0.014C547.204,573.332,547.204,573.413,547.204,573.495z"/>
<path fill-rule="evenodd" clip-rule="evenodd" d="M475.221,640.942c2.349-16.959,4.634-33.47,7.011-50.639
	c7.715,0.981,16.999,0.923,24.992,5.574c2.627,1.529,4.805,5.702,5.155,8.89c0.776,7.061,0.496,14.271,0.21,21.404
	c-0.245,6.111-3.167,9.591-9.117,10.863c-6.001,1.283-12.118,2.053-18.204,2.905C481.677,640.442,478.048,640.668,475.221,640.942z"
	/>
<path fill-rule="evenodd" clip-rule="evenodd" fill="#FFFFFF" d="M179.967,163.173c5.98,32.522,20.149,58.542,47.887,75.684
	c11.013,6.806,22.962,11.014,36.249,11.65c-3.063-8.23-6.327-15.847-8.707-23.73c-2.36-7.815-3.828-15.899-5.021-24.09
	c10.324,14.18,21.866,26.492,38.826,34.391c-0.386-3.175-0.597-5.85-1.053-8.482c-1.51-8.695-2.986-17.4-4.729-26.051
	c-0.734-3.645,0.857-5.672,3.983-6.179c6.54-1.06,13.146-1.766,19.749-2.331c1.249-0.107,2.899,0.812,3.88,1.759
	c18.914,18.273,41.596,29.077,67.748,34.038c0,8.521,0.096,16.95-0.018,25.378c-0.368,27.345-1.021,54.734-7.241,81.487
	c-5.51,23.697-0.505,18.144-22.155,29.727c-34.551,18.486-71.836,23.558-110.516,19.233c-14.808-1.655-29.329-4.668-42.37-12.411
	c-3.849-2.285-7.635-4.798-11.034-7.694c-8.392-7.151-12.275-16.224-9.476-27.198c1.963-7.693,0.949-14.808-2.185-21.875
	c-6.808-15.36-13.537-30.754-20.35-46.112c-4.741-10.688-5.62-21.389-3.031-33.044c5.242-23.613,13.046-46.127,24.868-67.226
	C176.442,168.011,177.955,166.119,179.967,163.173z M312.356,242.989c-2.534,4.612-6.246,9.009-7.449,14.01
	c-3.315,13.78-3.424,27.896,0.985,41.463c2.112,6.502,5.435,13.031,9.725,18.318c9.401,11.585,24.837,12.465,35.203,2.17
	c3.859-3.833,6.993-9.076,8.718-14.256c6.357-19.087,4.977-37.972-3.165-56.407c-3.525-7.985-8.992-13.791-17.209-16.928
	c-11.01-4.204-22.198-4.35-33.313-0.865c-12.296,3.854-17.421,14.749-15.215,27.069C297.569,251.73,303.659,244.715,312.356,242.989
	z M196.95,255.376c-1.563,4.754-3.815,8.927-4.203,13.267c-1.28,14.3,0.973,28.295,6.206,41.628
	c3.112,7.929,7.353,15.416,15.054,19.999c7.476,4.448,15.313,1.638,16.97-6.805c1.291-6.581,1.729-13.627,0.896-20.258
	c-1.219-9.689-3.74-19.235-6.036-28.763c-2.135-8.859-6.366-16.683-12.489-23.53c-7.143-7.986-22.225-11.36-32.124-7.507
	c-8.063,3.139-10.964,10.349-14.458,17.017c-6.266,11.96-1.967,30.711,8.58,39.085c0.192,0.152,0.611,0.019,0.94,0.019
	c-0.342-4.17-0.874-8.298-0.982-12.438c-0.271-10.325,2.311-19.726,9.228-27.733C188.265,255.033,192.702,254.205,196.95,255.376z
	 M168.835,208.784c8.156,0,16.363,0,24.863,0C188.518,200.111,175.118,200.575,168.835,208.784z"/>
<path fill-rule="evenodd" clip-rule="evenodd" fill="#FFFFFF" d="M97.129,229.61c-1.151-5.095-2.647-10.14-3.395-15.293
	c-3.156-21.785,0.084-43.075,7.691-63.358C128.778,78.032,181.16,33.156,256.563,14.787c6.775-1.65,13.722-2.609,20.598-3.838
	c0.921-0.164,1.896-0.022,3.856-0.022c-7.96,4.796-15.162,8.815-22.028,13.345c-11.396,7.517-22.52,15.443-33.888,23.002
	c-2.43,1.615-5.313,2.923-8.161,3.473c-21.159,4.084-38.854,14.622-53.985,29.461c-16.459,16.142-31.203,33.773-42.173,54.211
	c-3.361,6.263-6.652,12.748-8.644,19.522c-4.688,15.952-9.13,32.023-12.562,48.281c-1.854,8.783-1.428,18.048-2.03,27.096
	C97.407,229.415,97.268,229.513,97.129,229.61z"/>
<path fill-rule="evenodd" clip-rule="evenodd" fill="#FFFFFF" d="M446.964,308.799c-0.621-21.751-1.231-43.134-1.859-65.139
	c4.824-0.57,9.063,1.387,12.645,4.687c10.908,10.048,12.254,22.758,9.17,36.271C464.331,295.956,457.64,304.222,446.964,308.799z"/>
<path fill-rule="evenodd" clip-rule="evenodd" fill="#FFFFFF" d="M373.221,407.483c-1.337,2.351-2.192,5.229-4.092,6.965
	c-10.4,9.499-22.638,8.863-34.719,4.652c-8.211-2.862-16.697-6.303-20.427-16.812c4.09,0.406,7.81,0.447,11.379,1.201
	c6.513,1.376,12.983,3.011,19.385,4.839c7.158,2.045,14.104,1.848,21.064-0.776c1.817-0.686,3.838-0.83,5.765-1.223
	C372.125,406.715,372.673,407.099,373.221,407.483z"/>
<path fill-rule="evenodd" clip-rule="evenodd" fill="#FFFFFF" d="M369.097,811.555c0.4,1.18,1.644,2.874,1.287,4.106
	c-2.438,8.462-5.081,16.873-7.992,25.184c-0.564,1.613-2.528,3.66-3.975,3.766c-1.301,0.095-3.51-1.943-4.05-3.485
	c-2.726-7.783-5.138-15.684-7.348-23.629c-0.243-0.875,1.364-3.165,2.364-3.337C355.453,813.113,361.595,812.491,369.097,811.555z"
	/>
<path fill-rule="evenodd" clip-rule="evenodd" fill="#FFFFFF" d="M228.384,811.994c7.183,0.835,12.986,1.291,18.679,2.35
	c1.173,0.218,3.032,3.054,2.697,4.053c-2.413,7.199-5.12,14.321-8.199,21.262c-0.701,1.58-3.389,3.436-4.859,3.208
	c-1.609-0.249-3.639-2.546-4.147-4.331c-2.126-7.468-3.86-15.056-5.45-22.659C226.84,814.613,228.007,813.052,228.384,811.994z"/>
<path fill-rule="evenodd" clip-rule="evenodd" fill="#FFFFFF" d="M277.205,147.267c8.91,14.521,16.926,27.584,24.525,39.97
	c-5.868,1.617-12.424,3.424-19.941,5.496C280.357,178.534,278.844,163.518,277.205,147.267z"/>
<path fill-rule="evenodd" clip-rule="evenodd" fill="#FFFFFF" d="M156.562,751.734c-7.24-2.26-14.528-4.379-21.697-6.844
	c-3.07-1.056-3.017-3.095-0.653-5.245c5.073-4.616,6.717-4.54,10.976,0.448c1.717,2.012,3.526,3.983,5.527,5.701
	c1.973,1.692,4.239,3.041,6.377,4.54C156.915,750.802,156.738,751.269,156.562,751.734z"/>
<path fill-rule="evenodd" clip-rule="evenodd" fill="#FFFFFF" d="M427.394,750.848c4.509-4.517,8.805-8.958,13.293-13.192
	c0.82-0.774,2.727-1.34,3.619-0.918c2.615,1.237,4.972,3.021,8.465,5.252C444.174,747.452,435.37,748.479,427.394,750.848z"/>
<path fill-rule="evenodd" clip-rule="evenodd" fill="#FFFFFF" d="M415.736,453.814c-7.381-1.339-9.114-4.86-10.04-10.068
	c-1.143-6.422-3.671-12.597-5.602-18.878c0.471-0.209,0.94-0.418,1.41-0.627C406.074,433.735,410.643,443.23,415.736,453.814z"/>
<path fill-rule="evenodd" clip-rule="evenodd" d="M312.356,242.989c-8.697,1.726-14.787,8.741-21.721,14.574
	c-2.206-12.32,2.919-23.216,15.215-27.069c11.115-3.484,22.304-3.339,33.313,0.865c8.217,3.137,13.684,8.942,17.209,16.928
	c8.142,18.436,9.522,37.32,3.165,56.407c-1.725,5.18-4.858,10.423-8.718,14.256c-10.366,10.295-25.802,9.415-35.203-2.17
	c-4.29-5.287-7.612-11.816-9.725-18.318c-4.409-13.566-4.301-27.683-0.985-41.463C306.11,251.998,309.822,247.602,312.356,242.989z"
	/>
<path fill-rule="evenodd" clip-rule="evenodd" d="M196.95,255.376c-4.248-1.171-8.686-0.343-12.42,3.98
	c-6.917,8.008-9.499,17.408-9.228,27.733c0.108,4.14,0.641,8.268,0.982,12.438c-0.329,0-0.748,0.134-0.94-0.019
	c-10.547-8.374-14.846-27.125-8.58-39.085c3.494-6.668,6.396-13.878,14.458-17.017c9.899-3.854,24.981-0.479,32.124,7.507
	c6.123,6.848,10.354,14.671,12.489,23.53c2.296,9.527,4.817,19.073,6.036,28.763c0.834,6.631,0.396,13.677-0.896,20.258
	c-1.656,8.442-9.494,11.253-16.97,6.805c-7.701-4.583-11.941-12.07-15.054-19.999c-5.233-13.333-7.486-27.328-6.206-41.628
	C193.135,264.303,195.387,260.13,196.95,255.376z"/>
<path fill-rule="evenodd" clip-rule="evenodd" d="M168.835,208.784c6.283-8.209,19.683-8.673,24.863,0
	C185.198,208.784,176.991,208.784,168.835,208.784z"/>
<path fill="#FFFFFF" d="M196.034,536.508"/>
<path fill="#FFFFFF" d="M192.026,535.592c-1.816-1.187-3.145-2.295-4.66-3.006c-15.209-7.132-37.896,0.081-42.977,15.053
	c-1.949,5.747-1.66,11.242,0.984,16.438c1.064,2.094,3.59,3.444,5.451,5.133c0.465-0.363,0.932-0.727,1.396-1.091
	c-0.121-2.048-0.242-4.096-0.391-6.563c13.701,21.294,28.025,40.876,57.594,39.056c0.045,12.133,0.48,24.479,5.502,36.86
	c-1.146-9.523-2.584-18.204-3.16-26.942c-1.131-17.12,2.064-33.86,5.357-50.55c4.111-20.83,10.271-40.942,20.08-59.903
	c8.799-17.006,19.795-31.892,36.266-42.338c3.197-2.027,5.369-5.672,8-8.584c0.33-0.366,0.479-1.039,0.861-1.192
	c6.945-2.776,5.102-8.514,4.24-13.531c-1.012-5.883-2.283-11.808-4.279-17.416c-3.248-9.124-10.533-11.291-18.648-5.92
	c-10.689,7.076-17.262,17.396-22.172,28.925c-3.451,8.109-6.6,16.35-10.174,24.403c-7.479,16.847-15.557,33.44-22.582,50.471
	c-4.109,9.965-6.652,20.574-9.93,30.884c-0.529,1.661-1.211,3.274-2.16,5.813c-0.818-1.497-1.34-2.01-1.346-2.527
	c-0.037-3.291,0.115-6.536,0.433-9.742"/>
<line fill="none" stroke="#040000" stroke-width="4" stroke-linecap="round" stroke-linejoin="round" stroke-miterlimit="10" x1="263.897" y1="354.034" x2="267.437" y2="354.034"/>
</svg>
