<?xml version="1.0" encoding="utf-8"?>
<!-- Generator: Adobe Illustrator 16.0.3, SVG Export Plug-In . SVG Version: 6.00 Build 0)  -->
<!DOCTYPE svg PUBLIC "-//W3C//DTD SVG 1.1//EN" "http://www.w3.org/Graphics/SVG/1.1/DTD/svg11.dtd">
<svg version="1.1" id="レイヤー_1" xmlns="http://www.w3.org/2000/svg" xmlns:xlink="http://www.w3.org/1999/xlink" x="0px"
	 y="0px" width="446.195px" height="699.057px" viewBox="0 0 446.195 699.057" enable-background="new 0 0 446.195 699.057"
	 xml:space="preserve">
<path fill="#FFFFFF" d="M382.474,240.434c0,4.271,0,8.542,0,13.039c0.863-0.207,1.715-0.304,2.48-0.61
	c9.697-3.883,16.336-10.89,20.242-20.441c4.479-10.949,4.867-22.345,3.17-33.92c-2.484-16.948-10.432-31.655-18.779-46.221
	c-1.418-2.477-2.451-5.175-3.752-7.959c6.609-0.387,12.363-0.435,18.035-1.134c5.85-0.721,10.807-3.366,13.795-7.897
	c-6.268-2.375-12.398-4.659-18.5-7.017c-11.73-4.531-20.039-13.015-24.209-24.484c-9-24.742-21.727-47.043-41.199-64.854
	C300.314,8.342,259.83-2.364,215.629,0.427c-39.141,2.472-73.594,17.232-102.881,43.677c-10.433,9.42-20.454,19.436-27.543,31.4
	C78.458,86.891,73.529,99.5,68.958,111.996c-5.701,15.587-8.61,31.822-6.643,48.591c0.071,0.607,0.045,1.254-0.074,1.855
	c-1.675,8.38-6.846,14.53-13.771,18.743c-5.286,3.215-11.485,4.929-17.353,7.34c2.23,3.467,6.53,5.211,10.799,6.066
	c11.51,2.31,22.833,0.865,33.886-3.008c1.115-0.391,3.063-0.702,3.547-0.133c1.166,1.371,2.012,3.221,2.365,5.002
	c0.24,1.215-0.553,2.644-0.914,3.968c-5.103,18.776-7.912,37.548-2.101,56.824c3.717,12.33,6.863,24.795,14.846,35.286
	c5.158,6.78,11.683,11.391,20.468,13.076c-2.47-3.637-4.747-6.991-7.024-10.344c8.925,5.522,17.434,10.681,29.216,9.814
	c-8.003-8.085-11.654-17.358-14.12-28.18c7.32,8.578,15.121,14.579,26.647,15.449c-2.1-2.566-3.795-4.64-5.491-6.712
	c20.836,8.393,32.59,10.97,51.923,10.425c7.612-0.214,15.208-0.984,22.814-1.449c1.174-0.072,2.366,0.137,3.549,0.216
	c-0.024,0.437-0.048,0.871-0.072,1.308c-2.432,0-4.936-0.375-7.282,0.074c-5.477,1.051-11.453,1.431-16.197,3.99
	c-12.372,6.674-20.444,17.41-24.703,30.804c-2.987,9.392-5.212,19.034-8.432,28.338c-5.713,16.51-11.974,32.828-17.89,49.271
	c-1.412,3.923-2.366,8.01-3.577,12.183c-1.368-0.601-2.272-0.995-3.174-1.396c-14.281-6.325-33.418,1.952-38.319,16.576
	c-3.608,10.766,1.979,21.54,12.64,25.281c2.354,0.825,4.103,3.379,6.806,5.724c-4.117,0.39-6.991,0.543-9.828,0.953
	c-10.127,1.463-20.297,2.722-30.34,4.642c-5.947,1.138-7.836,4.021-8.135,10.04c-0.167,3.367-0.198,6.751-0.084,10.119
	c0.246,7.28,2.211,9.479,9.485,10.486c5.667,0.784,11.363,1.347,17.326,2.04c-0.141,1.458-0.2,2.685-0.385,3.893
	c-2.302,15.057-1.732,29.936,3.243,44.421c1.279,3.726,0.569,5.393-3.141,6.951c-7.182,3.021-11.468,8.226-10.346,16.694
	c0.342,2.581,0.299,5.263,0.054,7.861c-0.833,8.816,3.493,13.689,11.286,17.211c17.026,7.691,34.972,11.855,53.174,15.273
	c8.391,1.575,7.958,1.668,10.025,10.15c1.606,6.592,4.099,13.046,6.891,19.25c2.44,5.421,9.489,5.386,13.135,0.595
	c4.883-6.417,7.072-13.963,9.629-21.394c0.419-1.218,1.564-3.116,2.367-3.111c4.177,0.021,8.351,0.556,12.602,0.919
	c0,14.729,0,28.931,0,43.293c-6.646,0.906-13.166,1.268-19.422,2.746c-19.703,4.657-39.333,9.631-58.936,14.696
	c-8.507,2.199-10.285,4.789-10.968,13.815c13.845,0,27.726,0.513,41.545-0.194c8.128-0.416,16.133-2.928,24.241-4.194
	c5.739-0.896,11.557-1.288,17.826-1.956c-0.372,2.594-0.644,4.492-0.925,6.451c14.352,0,28.505,0,42.711,0
	c-0.544-2.428-1.034-4.612-1.675-7.469c8.754,1.323,16.688,2.104,24.429,3.779c16.189,3.503,32.484,4.78,48.994,3.785
	c2.777-0.167,5.572-0.023,8.383-0.023c-0.209-1.445-0.348-2.547-0.529-3.641c-0.742-4.441-2.816-8.022-7.209-9.58
	c-20.435-7.245-41.416-12.378-62.805-15.852c-5.597-0.908-11.236-1.556-17.096-2.354c0-13.95-0.043-27.558,0.109-41.163
	c0.008-0.78,1.521-2.044,2.489-2.219c2.815-0.51,5.757-0.343,8.562-0.885c3.178-0.614,4.313,0.595,5.195,3.561
	c2.021,6.795,3.631,13.943,7.031,20.043c4.872,8.74,8.152,9.438,13.961,1.034c3.729-5.396,5.516-12.159,7.98-18.385
	c1.451-3.664,1.484-8.722,4.062-10.886c2.783-2.337,7.79-2.01,11.817-2.886c14.947-3.252,29.564-7.419,42.984-15.059
	c4.555-2.595,6.918-6.252,6.768-11.585c-0.133-4.62-0.24-9.263,0.057-13.867c0.305-4.738-1.535-8.33-5.133-11.023
	c-3.061-2.291-6.398-4.211-10.006-6.549c4.588-10.935,6.133-22.627,6.4-34.561c0.018-0.827,1.219-1.642,1.898-2.438
	c3.611-4.229,8.42-7.931,10.57-12.806c3.066-6.954,5.123-14.663,5.963-22.232c2.283-20.555-1.309-40.636-7.262-60.25
	c-4.133-13.614-10.18-26.328-20.59-36.511c-0.926-0.905-1.633-2.252-1.963-3.519c-3.309-12.688-6.307-25.462-9.828-38.09
	c-2.371-8.5-4.443-17.322-8.443-25.075c-6.232-12.079-15.93-20.708-30.176-22.902c-1.779-0.274-3.939-1.496-4.905-2.954
	c-2.179-3.283-3.802-6.95-5.486-10.538c-1.038-2.213-0.006-3.486,2.3-3.949c0.228,2.132,0.439,4.135,0.643,6.031
	c6.438-4.662,12.521-9.069,18.605-13.477c0.361,0.302,0.725,0.604,1.086,0.905c-3.252,4.825-6.504,9.649-9.841,14.601
	c15.046-0.237,25.313-8.989,34.892-19.542c-0.779,1.846-1.559,3.691-2.338,5.537c0.244,0.308,0.486,0.613,0.729,0.921
	c5.697-3.476,11.396-6.951,17.564-10.714c-2.053,4.786-3.977,9.272-5.998,13.984c10.934-2.38,19.332-8.78,26.955-16.885
	c0.203,0.828,0.455,1.242,0.346,1.509c-0.781,1.918-1.637,3.807-2.732,6.307C367.691,266.51,377.98,256.629,382.474,240.434z"/>
<path fill="#FFFFFF" d="M56.91,134.883c-1.26-0.076-2.233-0.191-3.206-0.186c-10.12,0.054-20.24,0.133-30.36,0.196
	c-10.201,0.063-13.733,3.59-13.739,13.769c-0.013,20.363-0.012,40.728-0.021,61.09C9.565,253.228,9.53,296.704,9.53,340.18
	c0,11.731,2.666,14.376,14.336,14.379c37.858,0.013,75.717,0.011,113.575,0.015c1.451,0,2.903,0,4.992,0
	c-4.334,11.54-8.435,22.457-12.687,33.775c6.239,0,11.919,0,17.594,0c6.474-16.49,14.746-32.279,16.94-50.582
	c-47.447,0-94.712,0-141.92,0c0-63.199,0-125.979,0-189.283c11.268,0,22.183,0,33.231,0
	C56.048,143.774,56.456,139.569,56.91,134.883z"/>
<path fill="#FFFFFF" d="M321.408,338.158c1.107,4.087,2.514,7.749,3.014,11.529c0.521,3.946,2.262,4.976,6.068,4.954
	c27.111-0.148,54.227-0.058,81.34-0.104c6.334-0.011,10.031-3.467,10.668-9.675c0.127-1.241,0.225-2.492,0.225-3.739
	c0.021-31.357-0.021-62.716,0.051-94.075c0.078-33.227,0.271-66.454,0.391-99.682c0.008-2.261-0.186-4.523-0.303-7.177
	c-2.309,1.529-3.854,2.892-5.65,3.682c-5.436,2.394-7.824,5.963-7.32,12.295c0.908,11.4-0.758,22.922,2.33,34.262
	c3.934,14.443,3.598,28.896-1.246,43.184c-0.664,1.958-0.797,4.169-0.803,6.264c-0.086,31.233-0.109,62.467-0.146,93.7
	c-0.002,1.431,0,2.861,0,4.581C380.169,338.158,350.99,338.158,321.408,338.158z"/>
<path fill="#FFFFFF" d="M145.765,391.676c-9.776,0-19.26,0.006-28.744-0.001c-22.738-0.017-45.477,0.024-68.214-0.117
	c-3.797-0.023-6.648,0.96-9.075,4c-3.737,4.682-7.797,9.104-11.738,13.622c-2.709,3.104-5.673,6.022-8.063,9.354
	c-0.975,1.359-1.428,3.881-0.823,5.334c0.471,1.132,2.902,1.81,4.544,2.007c2.456,0.295,4.984-0.047,7.482-0.054
	c21.738-0.057,43.477-0.052,65.214-0.231c1.891-0.017,4.257-0.719,5.582-1.972c10.607-10.022,22.688-14.541,37.587-10.87
	c0.872-2.856,1.796-5.887,2.904-9.517c-31.917,0-63.214,0-94.511,0c-0.056-0.381-0.112-0.762-0.168-1.144
	c2.344-0.571,4.686-1.636,7.032-1.644c26.985-0.097,53.971-0.049,80.956-0.003C144.152,400.456,144.152,400.508,145.765,391.676z"/>
<path fill="#FFFFFF" d="M410.974,426.299c0-0.063,0-0.125,0-0.188c6.24,0,12.48-0.04,18.721,0.012
	c5.762,0.048,7.771-2.102,5.354-7.438c-2.896-6.396-6.221-12.88-10.688-18.213c-6.074-7.249-15.199-8.211-24.166-8.408
	c-3.021-0.066-6.064-0.072-9.061,0.243c-2.01,0.211-4.639,0.412-5.803,1.694c-4.316,4.757-8.355,9.809-12.055,15.063
	c-1.938,2.749-0.732,5.303,2.133,7.279c3.787,2.613,7.271,5.66,11.004,8.356c1.123,0.813,2.631,1.499,3.977,1.528
	C397.25,426.381,404.113,426.299,410.974,426.299z"/>
<path fill="#FFFFFF" d="M359.88,469.01c0.486,12.729-0.57,24.631-5.371,36.577c7.979-0.951,15.18-1.621,22.313-2.725
	c5.133-0.793,7.066-3.248,7.213-8.452c0.121-4.365-0.037-8.739-0.08-13.109c-0.045-4.424-2.213-7.543-6.4-8.626
	C371.916,471.217,366.144,470.28,359.88,469.01z"/>
<path d="M0,428.17c5.603-0.081,11.205-0.228,16.808-0.231c25.962-0.023,51.925-0.008,77.888-0.006c1.225,0,2.449,0,4.434,0
	c-5.345,9.675-5.402,19.04-0.592,28.733c-33.228,0-65.882,0-98.537,0C0,447.168,0,437.669,0,428.17z"/>
<path d="M446.195,456.666c-15.482,0.042-30.965,0.066-46.447,0.135c-10.49,0.046-20.98,0.155-31.471,0.232
	c-1.857,0.015-3.713,0.002-5.557,0.002c-1.832-9.717-3.602-19.112-5.457-28.957c2.068-0.094,4.133-0.266,6.193-0.267
	c26.352-0.022,52.701-0.015,79.051-0.04c1.23-0.001,2.457-0.229,3.688-0.353C446.195,437.169,446.195,446.918,446.195,456.666z"/>
<path d="M56.91,134.883c-0.454,4.688-0.861,8.893-1.317,13.603c-11.048,0-21.963,0-33.231,0c0,63.305,0,126.084,0,189.283
	c47.208,0,94.473,0,141.92,0c-2.194,18.303-10.467,34.092-16.94,50.582c-5.674,0-11.355,0-17.594,0
	c4.251-11.318,8.352-22.235,12.687-33.775c-2.089,0-3.541,0-4.992,0c-37.858-0.004-75.716-0.002-113.575-0.015
	c-11.67-0.003-14.335-2.646-14.336-14.379c0-43.478,0.035-86.952,0.054-130.429c0.009-20.362,0.008-40.727,0.021-61.09
	c0.006-10.179,3.538-13.706,13.739-13.769c10.12-0.063,20.24-0.143,30.36-0.196C54.676,134.691,55.649,134.806,56.91,134.883z"/>
<path d="M321.408,338.158c29.582,0,58.762,0,88.615,0c0-1.719-0.002-3.149,0-4.581c0.037-31.232,0.061-62.466,0.146-93.7
	c0.006-2.095,0.139-4.306,0.803-6.264c4.844-14.287,5.18-28.74,1.246-43.184c-3.088-11.34-1.422-22.861-2.33-34.262
	c-0.504-6.332,1.887-9.902,7.32-12.295c1.797-0.791,3.344-2.152,5.65-3.682c0.117,2.653,0.311,4.916,0.303,7.177
	c-0.117,33.229-0.313,66.455-0.391,99.683c-0.072,31.357-0.029,62.717-0.051,94.074c0,1.247-0.098,2.498-0.225,3.739
	c-0.637,6.208-4.334,9.664-10.668,9.675c-27.113,0.046-54.229-0.046-81.34,0.104c-3.809,0.021-5.547-1.007-6.068-4.954
	C323.921,345.906,322.515,342.245,321.408,338.158z"/>
<path d="M145.765,391.676c-1.613,8.832-1.613,8.78-10.036,8.768c-26.985-0.046-53.971-0.094-80.956,0.003
	c-2.346,0.008-4.688,1.071-7.032,1.644c0.056,0.382,0.112,0.763,0.168,1.144c31.297,0,62.595,0,94.511,0
	c-1.107,3.63-2.032,6.659-2.904,9.517c-14.899-3.671-26.98,0.848-37.587,10.87c-1.325,1.253-3.691,1.955-5.582,1.972
	c-21.737,0.181-43.476,0.176-65.214,0.231c-2.498,0.007-5.026,0.349-7.482,0.054c-1.642-0.197-4.073-0.874-4.544-2.007
	c-0.604-1.452-0.152-3.975,0.823-5.334c2.39-3.332,5.354-6.25,8.063-9.354c3.941-4.519,8.001-8.94,11.738-13.622
	c2.426-3.04,5.278-4.023,9.075-4c22.737,0.143,45.476,0.102,68.214,0.117C126.504,391.681,135.989,391.676,145.765,391.676z"/>
<path d="M410.974,426.299c-6.859,0-13.725,0.082-20.584-0.07c-1.346-0.029-2.854-0.717-3.977-1.528
	c-3.732-2.696-7.217-5.743-11.004-8.357c-2.865-1.977-4.07-4.529-2.133-7.278c3.699-5.254,7.738-10.306,12.055-15.063
	c1.164-1.282,3.793-1.483,5.803-1.694c2.996-0.315,6.039-0.311,9.061-0.243c8.967,0.196,18.092,1.159,24.166,8.408
	c4.467,5.333,7.791,11.816,10.688,18.213c2.418,5.337,0.406,7.485-5.354,7.438c-6.24-0.052-12.48-0.012-18.721-0.012
	C410.974,426.174,410.974,426.235,410.974,426.299z"/>
<path d="M359.88,469.01c6.264,1.271,12.035,2.206,17.674,3.665c4.188,1.083,6.355,4.202,6.398,8.626
	c0.045,4.37,0.203,8.744,0.08,13.109c-0.145,5.204-2.08,7.659-7.213,8.452c-7.133,1.104-14.332,1.772-22.313,2.725
	C359.31,493.641,360.367,481.739,359.88,469.01z"/>
<path fill="#FFFFFF" d="M134.408,122.364c7.688,44.956,40.9,65.18,63.552,65.195c-5.758-11.331-9.164-23.146-10.539-35.626
	c7.523,10.651,16.201,19.896,28.864,25.815c-0.179-2.004-0.215-3.855-0.529-5.66c-1.157-6.642-2.29-13.294-3.67-19.892
	c-0.643-3.072,0.64-4.689,3.332-5.107c4.789-0.743,9.625-1.232,14.458-1.608c0.934-0.072,2.153,0.646,2.893,1.363
	c13.977,13.552,30.794,21.492,49.705,25.353c0.234,0.048,0.449,0.196,1.033,0.458c0,6.166,0.078,12.496-0.014,18.823
	c-0.293,20.252-0.723,40.546-5.328,60.361c-4.295,18.479,0.348,14.495-19.203,24.09c-32.775,16.084-67.293,18.96-102.395,8.181
	c-6.377-1.959-12.338-6.009-17.798-10.034c-6.624-4.883-9.41-11.999-7.312-20.243c1.504-5.908,0.712-11.35-1.689-16.765
	c-5.106-11.517-10.15-23.062-15.261-34.576c-3.507-7.901-4.115-15.813-2.225-24.419c3.891-17.716,9.749-34.597,18.594-50.428
	C131.762,126.063,132.892,124.618,134.408,122.364z M233.662,182.203c-1.886,3.442-4.658,6.745-5.561,10.497
	c-2.48,10.329-2.563,20.908,0.747,31.075c1.586,4.873,4.071,9.767,7.284,13.73c7.046,8.696,18.574,9.388,26.392,1.701
	c2.905-2.856,5.007-6.827,6.614-10.65c3.423-8.147,3.023-16.777,2.386-25.437c-0.536-7.296-2.965-13.966-6.339-20.204
	c-1.631-3.014-4.534-5.789-7.523-7.537c-9-5.259-18.785-5.617-28.611-2.68c-9.465,2.829-13.382,11.279-11.586,20.5
	C222.577,188.687,227.22,183.572,233.662,182.203z M147.131,191.467c-1.152,3.592-2.861,6.84-3.151,10.208
	c-0.914,10.604,0.781,20.982,4.639,30.88c2.277,5.843,5.406,11.338,10.936,14.856c5.834,3.713,11.725,1.553,13.311-5.108
	c0.826-3.474,1.492-7.305,0.89-10.737c-1.828-10.415-3.634-20.92-6.72-31.002c-3.283-10.724-10.794-17.842-22.424-19.474
	c-6.297-0.882-11.827,1.192-15.542,6.269c-4.309,5.889-7.722,12.41-6.663,20.12c0.929,6.766,3.299,12.916,9.485,17.956
	c-0.23-1.872-0.357-2.919-0.489-3.969c-1.134-9.05-0.458-17.73,5.147-25.419C139.368,192.183,142.865,190.104,147.131,191.467z
	 M144.465,156.54c-1.236-3.36-3.574-4.698-8.21-4.741c-4.9-0.045-8.819,2.021-9.925,4.741
	C132.088,156.54,138.096,156.54,144.465,156.54z"/>
<path fill="#FFFFFF" d="M160.843,502.49c-4.17-7.836-4.302-16.428-4.194-25.167c-17.493,1.983-28.01-8.114-37.217-20.435
	c-2.143-2.866-3.872-6.042-6.118-9.59c0.146,2.069,0.252,3.591,0.372,5.285c-3.223,0.847-4.504-1.278-5.42-3.421
	c-2.697-6.31-1.76-12.229,2.536-17.544c5.666-7.008,18.324-10.41,26.684-7.1c1.351,0.535,2.372,1.902,3.546,2.884
	c-0.905,0.903-1.722,1.924-2.739,2.673c-0.893,0.657-2.009,1.012-3.026,1.499c0.38,0.489,0.76,0.979,1.139,1.468
	c1.614-0.271,3.228-0.544,5.393-0.906c-0.257,2.328-0.491,4.445-0.725,6.563c0.2,0.099,0.4,0.194,0.601,0.292
	c0.697-1.327,1.568-2.592,2.066-3.989c4.854-13.634,9.665-27.28,14.449-40.938c7.422-21.186,14.728-42.411,22.267-63.556
	c2.454-6.883,6.316-13.031,11.662-18.119c1.531-1.457,3.172-2.838,4.924-4.013c6.222-4.174,11.972-2.59,14.138,4.488
	c1.811,5.917,2.636,12.148,3.641,18.282c0.164,0.997-0.712,2.659-1.608,3.237c-2.375,1.532-3.129,3.53-3.377,6.238
	c-1.089,11.894-2.342,23.771-3.664,35.642c-0.135,1.21-0.83,2.784-1.779,3.412c-21.297,14.079-32.784,34.742-39.54,58.598
	c-4.965,17.532-8.229,35.276-6.009,53.605C159.275,495.444,160.165,498.954,160.843,502.49z"/>
<path fill="#FFFFFF" d="M71.865,172.071c-0.925-6.217-2.272-12.405-2.689-18.655c-0.937-14.045,1.625-27.742,6.573-40.771
	c20.681-54.468,59.923-87.94,116.32-101.627c4.723-1.146,9.544-1.894,14.33-2.769c0.833-0.151,1.717-0.021,3.541-0.021
	c-2.907,1.726-5.113,2.916-7.196,4.293c-11.452,7.572-22.84,15.242-34.337,22.745c-1.934,1.262-4.214,2.277-6.468,2.72
	c-15.728,3.076-28.88,10.947-40.158,21.941c-12.654,12.334-23.805,25.954-32.258,41.573c-2.3,4.25-4.5,8.689-5.834,13.305
	c-3.497,12.099-6.906,24.255-9.52,36.564c-1.407,6.624-1.104,13.61-1.573,20.434C72.352,171.893,72.108,171.982,71.865,172.071z"/>
<path fill="#FFFFFF" d="M235.601,301.411c4.15,0.72,8.42,1.342,12.632,2.229c3.536,0.746,6.996,1.846,10.509,2.708
	c5.17,1.269,10.311,1.69,15.485-0.217c0.856-0.314,2.542,0.147,3.147,0.852c3.914,4.53,6.071,9.88,6.963,16.542
	c-6.441,0-12.641-0.033-18.838,0.011c-5.736,0.04-11.492-0.077-17.205,0.346c-3.164,0.234-4.53-1.111-5.506-3.7
	C240.527,314.166,238.197,308.178,235.601,301.411z"/>
<path fill="#FFFFFF" d="M334.693,231.423c-0.465-16.234-0.924-32.29-1.391-48.633c3.734-0.606,6.813,1.116,9.563,3.518
	c8.785,7.67,10.406,23.891,3.582,34.899C343.49,225.978,339.632,229.624,334.693,231.423z"/>
<path fill="#FFFFFF" d="M319.048,379.46c-3.529-1.786-7.104-3.496-10.551-5.43c-0.615-0.346-1.08-1.653-0.998-2.453
	c1.861-18.153-1.531-35.491-7.943-52.381c-0.063-0.167,0.133-0.432,0.416-1.263c12.326,18.916,13,41.003,20.041,61.06
	C319.693,379.148,319.371,379.305,319.048,379.46z"/>
<path d="M417.666,135.297c-6.268-2.375-12.398-4.659-18.5-7.018c-11.73-4.531-20.039-13.015-24.209-24.484
	c-9-24.74-21.727-47.042-41.199-64.854C300.314,8.347,259.83-2.359,215.629,0.432c-39.141,2.471-73.594,17.232-102.881,43.677
	c-10.432,9.42-20.454,19.436-27.543,31.401c-6.746,11.387-11.676,23.996-16.246,36.491c-5.701,15.589-8.61,31.822-6.643,48.592
	c0.072,0.606,0.046,1.254-0.074,1.854c-1.675,8.38-6.846,14.53-13.771,18.743c-5.286,3.215-11.485,4.928-17.353,7.34
	c2.23,3.467,6.53,5.211,10.799,6.067c11.51,2.308,22.833,0.865,33.886-3.008c1.115-0.391,3.064-0.701,3.547-0.134
	c1.165,1.37,2.012,3.222,2.365,5.002c0.24,1.216-0.554,2.644-0.914,3.969c-5.103,18.775-7.913,37.547-2.101,56.823
	c3.718,12.329,6.864,24.796,14.846,35.286c5.157,6.78,11.683,11.392,20.468,13.076c-2.47-3.637-4.747-6.99-7.024-10.344
	c8.924,5.522,17.434,10.681,29.216,9.814c-8.003-8.085-11.654-17.359-14.12-28.18c7.319,8.578,15.121,14.579,26.647,15.449
	c-2.099-2.566-3.795-4.639-5.491-6.712c20.836,8.393,32.59,10.97,51.923,10.425c7.612-0.215,15.208-0.985,22.814-1.449
	c1.174-0.071,2.366,0.138,3.549,0.216c-0.024,0.437-0.048,0.871-0.072,1.308c-2.432,0-4.936-0.375-7.282,0.075
	c-5.476,1.051-11.452,1.43-16.197,3.989c-12.372,6.675-20.444,17.409-24.703,30.805c-2.987,9.391-5.212,19.033-8.432,28.338
	c-5.713,16.509-11.974,32.829-17.89,49.27c-1.411,3.923-2.366,8.01-3.577,12.184c-1.367-0.602-2.272-0.996-3.174-1.396
	c-14.281-6.325-33.418,1.952-38.319,16.576c-3.608,10.766,1.979,21.54,12.64,25.281c2.354,0.827,4.102,3.379,6.806,5.724
	c-4.117,0.391-6.991,0.543-9.828,0.953c-10.127,1.463-20.298,2.722-30.34,4.643c-5.947,1.137-7.836,4.019-8.135,10.04
	c-0.167,3.366-0.198,6.751-0.084,10.118c0.246,7.28,2.211,9.479,9.485,10.486c5.667,0.784,11.364,1.347,17.326,2.04
	c-0.141,1.458-0.2,2.685-0.385,3.893c-2.302,15.058-1.733,29.936,3.243,44.422c1.279,3.724,0.569,5.391-3.141,6.95
	c-7.181,3.021-11.468,8.226-10.346,16.694c0.342,2.581,0.299,5.262,0.054,7.862c-0.833,8.815,3.493,13.688,11.286,17.21
	c17.027,7.691,34.972,11.855,53.174,15.273c8.391,1.575,7.959,1.668,10.025,10.15c1.606,6.592,4.099,13.046,6.891,19.25
	c2.441,5.421,9.489,5.386,13.135,0.595c4.883-6.417,7.072-13.963,9.629-21.394c0.419-1.216,1.565-3.116,2.367-3.111
	c4.177,0.022,8.352,0.556,12.602,0.919c0,14.73,0,28.931,0,43.293c-6.646,0.906-13.166,1.268-19.422,2.746
	c-19.703,4.657-39.333,9.631-58.936,14.697c-8.507,2.199-10.285,4.789-10.968,13.814c13.845,0,27.726,0.514,41.545-0.193
	c8.128-0.416,16.133-2.927,24.241-4.195c5.739-0.896,11.556-1.288,17.826-1.956c-0.372,2.594-0.644,4.492-0.925,6.451
	c14.352,0,28.505,0,42.711,0c-0.544-2.427-1.034-4.613-1.675-7.468c8.754,1.322,16.689,2.104,24.429,3.778
	c16.188,3.503,32.483,4.78,48.995,3.785c2.777-0.167,5.572-0.022,8.381-0.022c-0.209-1.447-0.346-2.548-0.529-3.642
	c-0.742-4.44-2.814-8.021-7.207-9.58c-20.436-7.246-41.416-12.378-62.806-15.852c-5.597-0.909-11.237-1.555-17.096-2.354
	c0-13.949-0.043-27.558,0.108-41.163c0.01-0.78,1.521-2.044,2.49-2.219c2.816-0.51,5.756-0.343,8.563-0.885
	c3.176-0.614,4.313,0.595,5.193,3.561c2.021,6.795,3.633,13.943,7.032,20.043c4.872,8.74,8.153,9.438,13.962,1.034
	c3.727-5.395,5.514-12.159,7.98-18.385c1.451-3.664,1.484-8.721,4.061-10.885c2.783-2.337,7.79-2.011,11.818-2.886
	c14.945-3.253,29.564-7.42,42.982-15.06c4.555-2.594,6.92-6.252,6.768-11.585c-0.131-4.62-0.24-9.262,0.057-13.867
	c0.307-4.738-1.533-8.33-5.131-11.022c-3.061-2.291-6.4-4.211-10.008-6.55c4.588-10.935,6.133-22.627,6.4-34.561
	c0.018-0.828,1.219-1.641,1.898-2.438c3.613-4.231,8.422-7.932,10.57-12.807c3.068-6.954,5.123-14.663,5.965-22.231
	c2.283-20.556-1.309-40.637-7.264-60.25c-4.131-13.615-10.178-26.329-20.588-36.512c-0.926-0.906-1.633-2.252-1.963-3.518
	c-3.309-12.689-6.307-25.462-9.828-38.091c-2.373-8.5-4.445-17.322-8.445-25.074c-6.232-12.079-15.928-20.708-30.174-22.903
	c-1.78-0.274-3.94-1.496-4.906-2.954c-2.178-3.284-3.801-6.95-5.486-10.538c-1.037-2.213-0.006-3.485,2.301-3.949
	c0.227,2.133,0.439,4.136,0.642,6.031c6.437-4.662,12.521-9.068,18.604-13.476c0.362,0.301,0.726,0.603,1.088,0.904
	c-3.252,4.825-6.504,9.649-9.842,14.601c15.045-0.236,25.314-8.988,34.893-19.542c-0.779,1.846-1.559,3.691-2.338,5.538
	c0.244,0.307,0.486,0.612,0.729,0.92c5.697-3.476,11.395-6.95,17.563-10.713c-2.051,4.786-3.975,9.272-5.996,13.983
	c10.934-2.381,19.332-8.78,26.953-16.885c0.203,0.828,0.455,1.242,0.346,1.509c-0.779,1.918-1.635,3.808-2.732,6.308
	c16.578-4.258,26.865-14.139,31.359-30.333c0,4.271,0,8.542,0,13.044c0.863-0.207,1.713-0.303,2.48-0.61
	c9.697-3.883,16.336-10.89,20.242-20.44c4.479-10.95,4.867-22.346,3.17-33.92c-2.484-16.95-10.43-31.657-18.779-46.222
	c-1.418-2.476-2.451-5.175-3.752-7.959c6.609-0.387,12.363-0.435,18.035-1.134C409.72,142.472,414.677,139.828,417.666,135.297z
	 M117.001,574.93c-5.519-1.735-11.073-3.365-16.539-5.252c-2.123-0.734-1.981-2.219-0.423-3.706
	c3.747-3.578,4.989-3.393,8.487,0.396c2.64,2.86,5.707,5.325,8.583,7.968C117.073,574.534,117.037,574.733,117.001,574.93z
	 M115.478,554.633c-0.704,0.226-1.416,0.428-2.826,0.853c-4.684-15.793-8.416-31.521-8.566-47.901
	c0.316-0.055,0.632-0.108,0.947-0.161c0.441,3.64,0.846,7.284,1.328,10.918c1.26,9.5,5.576,17.483,12.145,24.343
	C122.48,546.831,120.942,552.882,115.478,554.633z M126.205,518.349c-1.221,4.367-1.739,8.931-2.633,13.781
	c-8.422-7.111-8.63-16.468-8.489-26.393c5.395,0,10.557,0,15.817,0C129.346,509.828,127.423,513.991,126.205,518.349z
	 M213.212,334.384c-2.375,1.532-3.129,3.53-3.377,6.238c-1.089,11.894-2.342,23.772-3.664,35.642
	c-0.134,1.21-0.83,2.784-1.779,3.412c-21.297,14.079-32.785,34.743-39.54,58.598c-4.965,17.532-8.229,35.276-6.009,53.605
	c0.433,3.565,1.322,7.075,2,10.611c-4.171-7.836-4.302-16.427-4.196-25.167c-17.493,1.983-28.01-8.116-37.217-20.435
	c-2.143-2.866-3.872-6.042-6.118-9.59c0.146,2.069,0.253,3.591,0.372,5.284c-3.223,0.848-4.504-1.277-5.42-3.42
	c-2.696-6.31-1.759-12.23,2.536-17.544c5.666-7.008,18.324-10.411,26.684-7.1c1.351,0.535,2.372,1.903,3.546,2.884
	c-0.905,0.903-1.722,1.924-2.739,2.673c-0.893,0.657-2.009,1.012-3.026,1.499c0.38,0.489,0.76,0.979,1.139,1.467
	c1.614-0.271,3.228-0.543,5.393-0.905c-0.257,2.328-0.491,4.445-0.725,6.563c0.2,0.099,0.401,0.194,0.601,0.292
	c0.697-1.327,1.568-2.592,2.066-3.989c4.854-13.633,9.665-27.281,14.449-40.938c7.422-21.186,14.728-42.411,22.267-63.556
	c2.454-6.883,6.316-13.032,11.662-18.119c1.53-1.456,3.172-2.838,4.924-4.013c6.222-4.174,11.972-2.59,14.138,4.488
	c1.81,5.917,2.636,12.148,3.641,18.282C214.984,332.143,214.108,333.805,213.212,334.384z M330.316,563.895
	c0.445-0.433,1.686-0.562,2.26-0.262c1.941,1.016,3.75,2.288,5.611,3.462c0.012,0.559,0.021,1.116,0.033,1.676
	c-6.137,1.918-12.273,3.838-18.377,5.748C323.455,570.824,326.826,567.299,330.316,563.895z M329.371,527.569
	c-0.473,3.547-0.824,7.539-1.578,11.452c-0.918,4.777-2.199,9.482-3.275,14.229c-0.51,2.242-1.611,3.076-4.002,2.433
	c-3.129-0.842-6.359-1.298-9.516-2.053c-0.723-0.174-1.721-0.759-1.91-1.366c-1.801-5.809-3.455-11.665-5.156-17.526
	C312.365,532.361,320.605,530.04,329.371,527.569z M299.972,317.933c12.326,18.915,13,41.003,20.041,61.06
	c-0.32,0.155-0.643,0.313-0.965,0.467c-3.529-1.786-7.104-3.496-10.551-5.43c-0.615-0.346-1.08-1.653-0.998-2.453
	c1.863-18.153-1.531-35.491-7.943-52.381C299.494,319.029,299.689,318.764,299.972,317.933z M225.705,140.338
	c-4.388,1.211-9.308,2.569-14.884,4.107c-1.073-10.639-2.204-21.856-3.425-33.961C213.965,121.196,219.994,131.025,225.705,140.338z
	 M89.522,101.502c-2.3,4.25-4.5,8.689-5.834,13.305c-3.498,12.098-6.907,24.255-9.52,36.564c-1.406,6.624-1.104,13.611-1.573,20.434
	c-0.243,0.089-0.487,0.178-0.73,0.267c-0.926-6.217-2.272-12.405-2.69-18.654c-0.937-14.045,1.626-27.742,6.573-40.771
	c20.681-54.468,59.924-87.94,116.32-101.627c4.723-1.146,9.544-1.894,14.33-2.769c0.833-0.151,1.718-0.021,3.541-0.021
	c-2.907,1.726-5.113,2.916-7.196,4.293c-11.452,7.572-22.84,15.242-34.337,22.745c-1.934,1.262-4.214,2.278-6.468,2.72
	c-15.728,3.075-28.88,10.946-40.158,21.941C109.126,72.263,97.975,85.883,89.522,101.502z M274.227,306.13
	c0.856-0.314,2.542,0.148,3.147,0.852c3.914,4.531,6.071,9.881,6.963,16.542c-6.441,0-12.641-0.033-18.838,0.011
	c-5.736,0.04-11.492-0.077-17.205,0.346c-3.164,0.235-4.53-1.111-5.506-3.7c-2.261-6.014-4.59-12.001-7.188-18.769
	c4.15,0.72,8.42,1.342,12.632,2.228c3.536,0.746,6.996,1.846,10.509,2.708C263.912,307.615,269.05,308.037,274.227,306.13z
	 M283.496,191.479c-0.295,20.252-0.724,40.546-5.33,60.361c-4.295,18.479,0.349,14.495-19.201,24.09
	c-32.777,16.085-67.295,18.96-102.396,8.181c-6.378-1.959-12.339-6.009-17.798-10.034c-6.624-4.883-9.411-11.999-7.312-20.243
	c1.505-5.907,0.712-11.349-1.689-16.765c-5.107-11.516-10.15-23.062-15.261-34.576c-3.507-7.9-4.115-15.813-2.225-24.419
	c3.891-17.716,9.749-34.597,18.594-50.428c0.884-1.583,2.014-3.029,3.53-5.282c7.688,44.956,40.9,65.18,63.553,65.196
	c-5.758-11.33-9.164-23.146-10.539-35.626c7.524,10.65,16.201,19.895,28.864,25.815c-0.179-2.004-0.216-3.855-0.529-5.66
	c-1.156-6.642-2.289-13.294-3.67-19.892c-0.643-3.072,0.64-4.688,3.332-5.107c4.789-0.743,9.624-1.232,14.458-1.608
	c0.935-0.073,2.156,0.646,2.894,1.363c13.976,13.552,30.794,21.492,49.705,25.353c0.235,0.048,0.45,0.196,1.034,0.458
	C283.509,178.822,283.585,185.151,283.496,191.479z M346.447,221.207c-2.957,4.771-6.816,8.417-11.754,10.216
	c-0.463-16.234-0.922-32.29-1.391-48.633c3.734-0.606,6.813,1.117,9.563,3.518C351.65,193.977,353.271,210.198,346.447,221.207z"/>
<path fill="#FFFFFF" d="M225.705,140.338c-4.388,1.211-9.308,2.569-14.884,4.107c-1.073-10.639-2.204-21.855-3.425-33.961
	C213.965,121.196,219.994,131.025,225.705,140.338z"/>
<path fill="#FFFFFF" d="M117.001,574.93c-5.519-1.734-11.073-3.364-16.539-5.252c-2.123-0.734-1.98-2.22-0.423-3.706
	c3.748-3.577,4.99-3.393,8.487,0.396c2.64,2.859,5.707,5.325,8.583,7.967C117.073,574.533,117.037,574.732,117.001,574.93z"/>
<path fill="#FFFFFF" d="M338.22,568.771c-6.137,1.919-12.271,3.839-18.377,5.748c3.609-3.695,6.982-7.221,10.473-10.624
	c0.445-0.433,1.686-0.563,2.26-0.262c1.941,1.016,3.75,2.288,5.611,3.462C338.197,567.653,338.208,568.212,338.22,568.771z"/>
<path d="M233.662,182.203c-6.441,1.369-11.084,6.484-16.199,10.997c-1.795-9.221,2.121-17.67,11.585-20.5
	c9.826-2.938,19.613-2.579,28.611,2.68c2.99,1.748,5.895,4.522,7.524,7.537c3.374,6.238,5.803,12.907,6.339,20.204
	c0.639,8.659,1.037,17.289-2.386,25.437c-1.607,3.823-3.71,7.794-6.614,10.65c-7.816,7.687-19.346,6.995-26.393-1.701
	c-3.213-3.965-5.697-8.858-7.283-13.73c-3.311-10.167-3.229-20.747-0.747-31.075C229.003,188.948,231.776,185.646,233.662,182.203z"
	/>
<path d="M147.131,191.467c-4.266-1.362-7.763,0.717-10.581,4.58c-5.605,7.688-6.281,16.369-5.147,25.419
	c0.131,1.049,0.259,2.097,0.489,3.969c-6.187-5.04-8.556-11.19-9.485-17.956c-1.059-7.709,2.354-14.231,6.663-20.12
	c3.714-5.076,9.244-7.15,15.542-6.269c11.63,1.631,19.142,8.75,22.424,19.474c3.086,10.082,4.893,20.587,6.72,31.002
	c0.602,3.433-0.064,7.264-0.89,10.737c-1.586,6.662-7.477,8.821-13.311,5.108c-5.53-3.52-8.659-9.014-10.936-14.856
	c-3.857-9.897-5.552-20.275-4.639-30.879C144.27,198.306,145.979,195.058,147.131,191.467z"/>
<path d="M144.465,156.54c-6.37,0-12.377,0-18.136,0c1.106-2.721,5.025-4.787,9.925-4.741
	C140.892,151.842,143.229,153.179,144.465,156.54z"/>
<line fill="none" stroke="#000000" stroke-width="3" stroke-linecap="round" stroke-linejoin="round" stroke-miterlimit="10" x1="196.063" y1="267.725" x2="198.188" y2="267.725"/>
</svg>
