<?xml version="1.0" encoding="utf-8"?>
<!-- Generator: Adobe Illustrator 16.0.3, SVG Export Plug-In . SVG Version: 6.00 Build 0)  -->
<!DOCTYPE svg PUBLIC "-//W3C//DTD SVG 1.1//EN" "http://www.w3.org/Graphics/SVG/1.1/DTD/svg11.dtd">
<svg version="1.1" id="レイヤー_1" xmlns="http://www.w3.org/2000/svg" xmlns:xlink="http://www.w3.org/1999/xlink" x="0px"
	 y="0px" width="680.999px" height="1266.626px" viewBox="0 0 680.999 1266.626" enable-background="new 0 0 680.999 1266.626"
	 xml:space="preserve">
<path fill-rule="evenodd" clip-rule="evenodd" d="M295.246,742.885c-22.672-3.761-40.72-15.697-57.545-29.972
	c-0.459,0.351-0.919,0.701-1.379,1.053c2.547,4.956,5.095,9.913,8.379,16.305c-5.559-1.156-10.397-1.205-14.275-3.161
	c-9.155-4.617-17.834-10.173-26.747-15.278c-2.546-1.458-5.104-3.107-7.875-3.93c-17.728-5.257-31.023-16.805-42.079-30.807
	c-6.016-7.619-10.08-16.781-14.998-25.263c-0.646-1.113-1.138-2.315-2.14-3.374c-1.729,10.019,1.146,19.492,3.774,28.99
	c-0.383,0.213-0.767,0.425-1.15,0.638c-1.139-1.209-2.362-2.349-3.403-3.637c-15.838-19.586-22.917-42.314-23.35-67.175
	c-0.476-27.332,6.696-53.051,17.513-77.914c4.053-9.315,8.714-18.479,11.615-28.157c5.536-18.466,10.104-37.226,14.894-55.909
	c6.343-24.741,16.552-47.827,29.806-69.563c20.085-32.939,45.671-60.571,78.993-80.571c51.501-30.909,107.153-43.799,167.036-38.819
	c36.195,3.01,70.48,12.534,102.57,29.512c66.279,35.063,109.576,89.243,132.229,160.302c11.52,36.137,15.804,73.281,13.104,111.046
	c-1.955,27.368-12.77,51.545-29.78,72.953c-1.936,2.435-4.525,4.348-6.813,6.504c-0.386-0.279-0.772-0.558-1.159-0.836
	c2.084-11.58,4.167-23.16,6.251-34.74c-0.477-0.134-0.953-0.269-1.429-0.402c-2.685,5.044-5.107,10.252-8.118,15.093
	c-4.038,6.491-8.83,12.522-12.693,19.105c-1.734,2.956-2.813,6.775-2.797,10.195c0.068,14.493,0.951,28.983,0.988,43.476
	c0.051,20.344-3.637,39.983-15.201,57.121c-13.433,19.907-32.452,32.213-55.775,37.734c-3.622,0.857-7.487,0.683-11.56,0.333
	c5.487-5.241,12.721-8.481,16.255-17.279c-15.166,7.189-29.737,11.967-45.843,8.661c2.836-4.362,5.349-8.229,7.862-12.095
	c-0.443-0.501-0.886-1.002-1.328-1.503c-2.072,0.693-4.214,1.228-6.205,2.104c-16.204,7.128-32.808,8.153-49.797,3.362
	c-1.48-0.418-2.844-1.249-4.225-1.871c5.503-3.007,10.566-5.773,15.63-8.54c-0.24-0.665-0.481-1.33-0.723-1.995
	c-11.662,5.303-23.537,5.214-34.852,2.027c-2.256,6.002-4.425,11.606-6.419,17.272c-0.272,0.772,0.06,2.04,0.563,2.764
	c8.918,12.801,11.662,27.823,15.436,42.485c9.089,35.324,17.654,70.8,27.698,105.851c2.893,10.095,10.151,18.923,15.303,28.39
	c3.5,6.434,7.196,12.806,10.057,19.523c1.503,3.528,2.067,7.775,1.867,11.636c-0.341,6.559-5.211,9.175-11.043,10.389
	c-0.929,0.193-1.804,0.64-3.149,1.131c0.689,2.392,1.374,4.569,1.943,6.776c3.45,13.372,6.939,26.735,10.284,40.135
	c1.984,7.952-1.533,13.395-8.127,17.599c-13.038,8.312-26.98,14.471-41.908,18.46c-7.651,2.045-8.38,3.198-9.295,10.845
	c-3.878,32.393-5.244,65.161-14.371,96.778c-1.756,6.081-3.418,12.19-5,18.317c-1.675,6.488-1.214,7.042,5.531,7.733
	c23.535,2.409,47.168,4.139,70.567,7.493c15.082,2.162,29.875,6.511,44.684,10.321c4.433,1.14,9.722,3.392,9.599,8.836
	c-0.117,5.188-5.55,6.605-9.667,8.221c-17.241,6.765-35.48,9.166-53.672,11.197c-83.05,9.272-166.282,9.89-249.592,4.246
	c-28.268-1.915-56.543-4.104-84.146-11.073c-6.104-1.541-12.172-3.556-17.887-6.164c-2.5-1.141-5.648-4.341-5.622-6.571
	c0.028-2.271,3.174-5.476,5.693-6.563c7.15-3.086,14.513-6.028,22.084-7.729c29.019-6.52,58.571-9.145,88.193-11.069
	c8.108-0.526,16.206-1.203,25.232-1.881c-1.196-2.655-1.876-4.618-2.905-6.377c-8.733-14.93-16.211-30.408-17.707-47.896
	c-0.79-9.238-1.041-18.688-0.016-27.873c1.207-10.809,0.967-21.201-2.2-31.608c-2.083-6.849-4-13.776-5.447-20.781
	c-1.423-6.891-5.458-10.304-12.022-12.36c-31.956-10.013-61.142-25.402-87.479-46.13c-0.654-0.515-1.296-1.047-1.918-1.6
	c-6.678-5.941-6.707-7.076-3.224-15.473c20.943-50.489,53.558-92.614,92.833-129.998c3.621-3.446,7.125-7.023,10.869-10.329
	c6.917-6.106,10.375-14.067,12.871-22.68c5.656-19.514,11.305-39.032,17.223-58.468c3.92-12.871,9.867-24.745,18.976-34.849
	C294.123,744.95,294.446,744.187,295.246,742.885z M552.369,589.17c0,2.866,0.101,4.178-0.016,5.47
	c-0.977,10.921-1.154,21.999-3.209,32.717c-2.587,13.494-8.835,25.58-19.699,34.512c-7.873,6.473-16.998,8.356-26.718,4.501
	c-9.253-3.67-13.363-11.177-14.033-20.688c-0.337-4.799-0.351-9.677,0.088-14.464c1.793-19.58,7.898-37.469,18.999-54.033
	c12.711-18.97,39.841-22.973,56.35-7.118c1.333,1.28,2.159,3.089,3.221,4.651c0.573-0.447,1.146-0.896,1.719-1.344
	c-1.147-11.389-2.188-22.791-3.586-34.149c-0.166-1.348-2.081-2.839-3.533-3.602c-4.714-2.479-9.813-4.284-14.332-7.055
	c-3.61-2.215-5.364-1.352-7.637,1.766c-7.626,10.464-16.639,19.701-28.032,25.935c-5.707,3.123-12.363,4.581-18.696,6.426
	c-1.182,0.344-3.524-0.683-4.141-1.758c-0.604-1.057,0.057-3.082,0.629-4.494c0.477-1.175,1.745-2,2.461-3.11
	c2.772-4.302,5.465-8.655,8.188-12.989c-1.483-0.448-2.001-0.346-2.362-0.051c-21.207,17.258-44.951,18.215-69.976,10.896
	c-5.128-1.5-5.455-3.537-2.163-7.865c4.82-6.337,9.29-12.943,13.815-19.5c0.719-1.042,0.946-2.425,1.208-3.133
	c-12.047,8.315-24.111,16.642-36.515,25.202c0.969,1.567,2.352,4.46,4.326,6.867c4.878,5.945,4.618,11.281-0.185,17.352
	c-4.953,6.26-6.509,6.528-11.241-0.168c-2.113-2.991-4.304-5.936-6.607-8.781c-1.021-1.262-2.411-2.227-3.634-3.326
	c-0.501,1.978-0.166,3.228,0.1,4.491c4.86,23.148,2.465,44.885-13.306,63.607c-9.552,11.34-21.87,16.179-36.646,12.852
	c-14.563-3.28-25.584-10.994-30.451-25.854c-0.392-1.196-0.972-2.955-1.869-3.261c-6.594-2.242-7.192-7.904-7.616-13.37
	c-1.225-15.822,2.619-30.478,11.387-43.684c17.923-26.997,60.941-37.729,86.771-16.299c1.454,1.206,3.221,2.037,5.982,3.75
	c3.574-17.13,6.933-33.229,10.176-48.771c-10.113,3.129-19.393,8.335-28.678,8.346c-15.188,0.017-26.51,5.698-38.016,14.737
	c-14.937,11.734-31.873,20.576-49.912,26.991c-2.707,0.963-5.137,1.989-5.25,5.707c-0.703,23.073-0.183,46.021,6.673,68.335
	c5.835,18.992,15.727,35.2,32.465,46.655c1.371,0.938,2.305,2.513,3.441,3.792c-1.734,0.729-3.426,1.948-5.211,2.104
	c-10.287,0.901-19.778-1.939-28.799-6.67c-1.504-0.789-3.003-1.59-4.504-2.385c-0.3,0.393-0.599,0.786-0.897,1.179
	c7.515,21.666,22.586,36.538,44.203,46.283c-2.518,1.65-4.049,2.653-6.267,4.107c7.878,3.158,15.021,6.022,22.063,8.846
	c6.678-12.54,17.714-14.203,27.246-4.718c2.553,2.54,4.683,5.505,7.199,8.504c1.884-1.14,3.462-2.441,5.274-3.128
	c7.568-2.869,15.013-6.738,22.865-8.024c11.57-1.894,18.868,7.274,16.265,18.8c-0.427,1.889-1.043,3.734-1.537,5.48
	c0.544,0.409,0.778,0.69,1.073,0.786c0.628,0.204,1.281,0.408,1.934,0.443c31.004,1.642,61.87,0.894,91.08-10.996
	c27.119-11.038,32.9-24.959,32.221-47.143c-0.056-1.832-0.399-3.731-0.046-5.486c1.364-6.775,2.371-13.71,4.636-20.192
	c2.164-6.198,5.724-11.908,8.793-18.079c-5.423-2.352-6.153-6.888-6.609-11.686c-0.521-5.468-0.944-10.983-2.049-16.346
	C559.95,601.273,558.05,595.107,552.369,589.17z M305.903,832.897c-3.104-4.491-6.483-8.796-9.159-13.501
	c-1.31-2.302-1.312-5.348-1.905-8.057c2.558,1.042,5.767,1.438,7.559,3.241c6.684,6.728,12.608,14.214,19.365,20.86
	c9.242,9.091,18.435,18.383,28.649,26.297c13.044,10.104,28.751,8.583,39.119-3.275c3.923-4.486,7.191-10.341,8.578-16.097
	c4.004-16.629,7.463-33.44,10.003-50.351c1.358-9.044,3.957-16.231,11.376-22.191c9.682-7.777,9.403-16.775,0.494-25.619
	c-4.841-4.806-4.752-6.083-1.285-12.038c1.273-2.188,1.198-5.16,1.737-7.773c-2.504-0.208-5.413-1.344-7.439-0.457
	c-7.423,3.247-14.774,6.792-21.73,10.935c-7.428,4.425-8.885,4.082-13.055-3.32c-2.215-3.932-5.655-7.229-8.854-10.512
	c-0.745-0.765-3.156-0.874-4.06-0.235c-0.844,0.595-1.213,2.713-0.906,3.939c1.212,4.838,2.949,9.545,4.161,14.384
	c2.015,8.043,3.869,16.131,5.562,24.247c0.348,1.67,0.103,3.729-0.575,5.305c-6.041,14.067-12.235,28.069-18.407,42.08
	c-0.332,0.754-0.782,1.492-1.322,2.112c-2.111,2.426-4.768,2.12-5.705-0.922c-0.552-1.792-0.552-4.012-0.039-5.824
	c1.401-4.955,3.021-9.87,4.923-14.654c1.118-2.811,1.047-4.895-1.066-7.23c-5.583-6.174-10.632-12.86-16.499-18.739
	c-5.62-5.631-11.867-10.67-18.097-15.646c-3.996-3.19-8.533-3.168-12.221,0.581c-3.703,3.764-7.618,7.592-10.246,12.09
	c-7.904,13.528-12.557,28.348-14.22,43.873c-0.601,5.609,0.161,11.766,1.923,17.141C285.788,833.389,297.518,837.88,305.903,832.897
	z M369.767,1156.905c0.288-21.238-3.815-41.822-8.563-62.287c-0.475-2.044-2.975-4.803-4.878-5.111
	c-6.051-0.98-12.265-0.94-18.413-1.332c-3.65-0.232-5.521,1.469-6.118,5.048c-1.013,6.076-1.964,12.179-3.375,18.168
	c-7.377,31.306-4.8,62.56,0.506,93.766c0.296,1.74,3.086,4.277,4.805,4.352c9.641,0.415,19.313,0.313,28.963,0.026
	c1.246-0.037,3.395-2.08,3.498-3.329C367.553,1189.786,368.623,1173.343,369.767,1156.905z M570.145,323.113
	c-0.582,0.521-1.163,1.042-1.744,1.563c2.337,2.086,4.834,4.019,6.984,6.281c16.505,17.372,29.377,37.082,37.049,59.855
	c2.036,6.044,4.597,11.062,9.659,15.122c3.446,2.766,6.191,6.521,8.859,10.122c11.91,16.076,20.063,34.121,27.187,52.683
	c0.418,1.089,0.728,2.223,1.201,3.285c0.39,0.874,0.946,1.674,1.43,2.507c0.368-0.238,0.737-0.477,1.105-0.715
	C648.274,413.256,619.433,361.965,570.145,323.113z M493.418,983.549c-1.264-3.81-1.724-6.431-2.94-8.634
	c-3.619-6.554-7.591-12.911-11.322-19.404c-4.384-7.629-9.962-14.88-12.722-23.07c-6.533-19.386-12.258-39.089-17.281-58.925
	c-5.843-23.068-10.481-46.439-15.896-69.62c-1.141-4.886-3.381-9.515-5.487-15.28c-0.634,1.639-0.872,1.941-0.825,2.188
	c0.186,0.979,0.408,1.959,0.712,2.907c7.796,24.302,11.464,49.209,11.579,74.731c0.024,5.547,0.654,11.549,2.823,16.553
	c13.175,30.38,26.874,60.531,40.402,90.758C484.284,979.831,487.428,982.162,493.418,983.549z M375.162,491.362
	c0.619,0.078,1.241,0.263,1.846,0.217c12.632-0.952,23.749-6.228,34.435-12.474c1.479-0.864,2.503-3.469,2.707-5.378
	c0.761-7.112,1.131-14.269,1.563-21.414c0.141-2.34,0.021-4.696,0.021-7.194C402.109,460.648,388.78,475.841,375.162,491.362z
	 M578.22,619.409c6.315-10.298,11.971-20.439,15.047-32.365c-6.362,3.064-11.789,5.679-17.436,8.397
	C576.588,603.035,577.404,611.222,578.22,619.409z M559.264,497.474c-0.435-0.024-0.868-0.05-1.303-0.075
	c-3.226,7.161-6.45,14.322-9.891,21.961c5.029,2.347,9.71,4.531,15.514,7.24C562.006,515.962,560.635,506.718,559.264,497.474z
	 M297.24,726.975c2.563,7.096,6.887,10.127,10.952,9.355c7.455-1.414,15.003-2.327,22.484-3.616
	c1.964-0.338,3.822-1.289,5.729-1.958c-0.143-0.731-0.286-1.464-0.43-2.195C323.252,731.26,310.616,731.806,297.24,726.975z
	 M350.283,752.185c3.563,6.537,6.803,12.479,10.24,18.785C364.666,763.602,361.269,757.508,350.283,752.185z"/>
<path fill-rule="evenodd" clip-rule="evenodd" d="M148.614,258.622c-13.195,7.297-26.802,14.823-40.381,22.334
	C91.64,257.908,84.58,233.781,95.852,206.53c3.625-8.765,7.058-17.651,9.845-26.708c3.925-12.753,2.971-25.086-7.573-34.485
	c-3.709-3.307-9.193-5.907-14.099-6.37c-23.837-2.252-39.275,19.011-30.305,41.085c1.305,3.211,2.937,6.288,4.667,9.958
	c-15.377,7.9-30.549,15.695-46.127,23.699c-11.566-20.503-16.572-41.813-7.81-64.527c9.639-24.988,29.192-40.071,53.126-49.794
	c18.446-7.493,37.529-10.445,57.037-3.429c28.415,10.222,47.208,42.384,41.141,71.983c-2.394,11.679-6.83,22.94-10.366,34.382
	c-0.441,1.429-0.968,2.85-1.625,4.19c-8.402,17.149-7.105,33.471,4.083,48.983c0.382,0.53,0.597,1.186,0.86,1.795
	C148.762,257.424,148.691,257.61,148.614,258.622z"/>
<path fill-rule="evenodd" clip-rule="evenodd" d="M531.419,182.689c-14.418-6.019-28.64-11.955-42.504-17.743
	c7.418-29.669,23.533-50.442,53.973-58.07c8.349-2.092,16.468-5.361,24.397-8.774c6.895-2.967,12.233-8.079,15.131-15.228
	c6.68-16.484-0.955-31.476-18.773-37.052c-14.654-4.587-26.854,0.533-33.83,14.303c-1.568,3.095-2.83,6.346-4.458,10.034
	c-4.563-1.817-9.023-3.513-13.419-5.361c-9.824-4.132-19.55-8.51-29.456-12.43c-3.591-1.421-3.871-2.987-2.563-6.338
	c13.033-33.38,40.091-49.752,75.622-45.316c23.892,2.981,44.827,12.548,61.976,29.577c32.353,32.128,23.056,84.89-18.382,103.861
	c-9.351,4.281-19.13,7.896-29.04,10.626c-18.768,5.17-32.264,15.349-37.177,34.979C532.688,180.664,532.055,181.469,531.419,182.689
	z"/>
<path fill-rule="evenodd" clip-rule="evenodd" d="M176.351,305.26c0.038,16.01-13.559,29.141-30.09,29.059
	c-14.319-0.071-26.755-13.113-26.875-28.185c-0.124-15.655,13.357-29.355,28.789-29.257
	C163.942,276.978,176.313,289.438,176.351,305.26z"/>
<path fill-rule="evenodd" clip-rule="evenodd" d="M494.263,183.451c15.894-0.032,29.02,12.661,29.104,28.146
	c0.086,15.826-12.361,28.655-27.81,28.663c-16.215,0.009-29.013-12.672-28.979-28.712
	C466.611,195.839,478.787,183.482,494.263,183.451z"/>
<path fill-rule="evenodd" clip-rule="evenodd" fill="#FFFFFF" d="M552.369,589.17c5.681,5.938,7.581,12.104,8.872,18.372
	c1.104,5.362,1.528,10.878,2.049,16.346c0.456,4.798,1.187,9.334,6.609,11.686c-3.069,6.171-6.629,11.881-8.793,18.079
	c-2.265,6.482-3.271,13.417-4.636,20.192c-0.354,1.755-0.01,3.654,0.046,5.486c0.68,22.184-5.102,36.104-32.221,47.143
	c-29.21,11.89-60.076,12.638-91.08,10.996c-0.652-0.035-1.306-0.239-1.934-0.443c-0.295-0.096-0.529-0.377-1.073-0.786
	c0.494-1.746,1.11-3.592,1.537-5.48c2.604-11.525-4.694-20.693-16.265-18.8c-7.853,1.286-15.297,5.155-22.865,8.024
	c-1.813,0.687-3.391,1.988-5.274,3.128c-2.517-2.999-4.646-5.964-7.199-8.504c-9.532-9.485-20.568-7.822-27.246,4.718
	c-7.042-2.823-14.186-5.688-22.063-8.846c2.218-1.454,3.749-2.457,6.267-4.107c-21.617-9.745-36.688-24.617-44.203-46.283
	c0.299-0.393,0.598-0.786,0.897-1.179c1.501,0.795,3,1.596,4.504,2.385c9.021,4.73,18.512,7.571,28.799,6.67
	c1.785-0.156,3.477-1.376,5.211-2.104c-1.137-1.279-2.07-2.854-3.441-3.792c-16.738-11.455-26.63-27.663-32.465-46.655
	c-6.855-22.314-7.376-45.262-6.673-68.335c0.113-3.718,2.543-4.744,5.25-5.707c18.039-6.415,34.976-15.257,49.912-26.991
	c11.506-9.039,22.827-14.721,38.016-14.737c9.285-0.011,18.564-5.217,28.678-8.346c-3.243,15.541-6.602,31.641-10.176,48.771
	c-2.762-1.713-4.528-2.544-5.982-3.75c-25.829-21.431-68.848-10.698-86.771,16.299c-8.768,13.206-12.611,27.861-11.387,43.684
	c0.424,5.466,1.022,11.128,7.616,13.37c0.897,0.306,1.478,2.064,1.869,3.261c4.867,14.86,15.888,22.574,30.451,25.854
	c14.776,3.327,27.095-1.512,36.646-12.852c15.771-18.723,18.166-40.459,13.306-63.607c-0.266-1.264-0.601-2.514-0.1-4.491
	c1.223,1.1,2.612,2.064,3.634,3.326c2.304,2.846,4.494,5.79,6.607,8.781c4.732,6.696,6.288,6.428,11.241,0.168
	c4.803-6.07,5.063-11.406,0.185-17.352c-1.975-2.407-3.357-5.3-4.326-6.867c12.403-8.561,24.468-16.887,36.515-25.202
	c-0.262,0.708-0.489,2.091-1.208,3.133c-4.525,6.557-8.995,13.163-13.815,19.5c-3.292,4.328-2.965,6.365,2.163,7.865
	c25.024,7.318,48.769,6.361,69.976-10.896c0.361-0.295,0.879-0.397,2.362,0.051c-2.723,4.334-5.415,8.688-8.188,12.989
	c-0.716,1.11-1.984,1.936-2.461,3.11c-0.572,1.412-1.233,3.438-0.629,4.494c0.616,1.075,2.959,2.102,4.141,1.758
	c6.333-1.845,12.989-3.303,18.696-6.426c11.394-6.233,20.406-15.471,28.032-25.935c2.272-3.117,4.026-3.98,7.637-1.766
	c4.519,2.771,9.618,4.576,14.332,7.055c1.452,0.763,3.367,2.254,3.533,3.602c1.397,11.358,2.438,22.761,3.586,34.149
	c-0.572,0.448-1.146,0.896-1.719,1.344c-1.062-1.563-1.888-3.371-3.221-4.651c-16.509-15.854-43.639-11.852-56.35,7.118
	c-11.101,16.564-17.206,34.453-18.999,54.033c-0.438,4.787-0.425,9.665-0.088,14.464c0.67,9.511,4.78,17.018,14.033,20.688
	c9.72,3.855,18.845,1.972,26.718-4.501c10.864-8.932,17.112-21.018,19.699-34.512c2.055-10.718,2.232-21.796,3.209-32.717
	C552.47,593.348,552.369,592.036,552.369,589.17z M447.71,687.96c-5.595,0.146-11.395,4.714-10.825,8.033
	c0.263,1.533,2.373,3.647,3.896,3.883c3.442,0.533,10.467-5.552,9.784-8.216C450.146,690.021,448.346,688.736,447.71,687.96z"/>
<path fill-rule="evenodd" clip-rule="evenodd" fill="#FFFFFF" d="M305.903,832.897c-8.386,4.982-20.115,0.491-23.342-9.357
	c-1.762-5.375-2.523-11.531-1.923-17.141c1.663-15.525,6.315-30.345,14.22-43.873c2.628-4.498,6.543-8.326,10.246-12.09
	c3.688-3.749,8.225-3.771,12.221-0.581c6.229,4.976,12.477,10.015,18.097,15.646c5.867,5.879,10.916,12.565,16.499,18.739
	c2.113,2.336,2.185,4.42,1.066,7.23c-1.902,4.784-3.521,9.699-4.923,14.654c-0.513,1.813-0.513,4.032,0.039,5.824
	c0.938,3.042,3.594,3.348,5.705,0.922c0.54-0.62,0.99-1.358,1.322-2.112c6.172-14.011,12.366-28.013,18.407-42.08
	c0.678-1.576,0.923-3.635,0.575-5.305c-1.692-8.116-3.547-16.204-5.562-24.247c-1.212-4.839-2.949-9.546-4.161-14.384
	c-0.307-1.227,0.063-3.345,0.906-3.939c0.903-0.639,3.314-0.529,4.06,0.235c3.198,3.282,6.639,6.58,8.854,10.512
	c4.17,7.402,5.627,7.745,13.055,3.32c6.956-4.143,14.308-7.688,21.73-10.935c2.026-0.887,4.936,0.249,7.439,0.457
	c-0.539,2.613-0.464,5.586-1.737,7.773c-3.467,5.955-3.556,7.232,1.285,12.038c8.909,8.844,9.188,17.842-0.494,25.619
	c-7.419,5.96-10.018,13.147-11.376,22.191c-2.54,16.91-5.999,33.722-10.003,50.351c-1.387,5.756-4.655,11.61-8.578,16.097
	c-10.368,11.858-26.075,13.38-39.119,3.275c-10.215-7.914-19.407-17.206-28.649-26.297c-6.757-6.646-12.682-14.133-19.365-20.86
	c-1.792-1.804-5.001-2.199-7.559-3.241c0.594,2.709,0.596,5.755,1.905,8.057C299.42,824.102,302.799,828.406,305.903,832.897z"/>
<path fill-rule="evenodd" clip-rule="evenodd" fill="#FFFFFF" d="M570.145,323.113c49.288,38.852,78.13,90.143,91.73,150.703
	c-0.368,0.238-0.737,0.477-1.105,0.715c-0.483-0.833-1.04-1.633-1.43-2.507c-0.474-1.063-0.783-2.196-1.201-3.285
	c-7.124-18.562-15.276-36.606-27.187-52.683c-2.668-3.602-5.413-7.356-8.859-10.122c-5.063-4.061-7.623-9.078-9.659-15.122
	c-7.672-22.773-20.544-42.483-37.049-59.855c-2.15-2.263-4.647-4.195-6.984-6.281C568.981,324.155,569.563,323.634,570.145,323.113z
	"/>
<path fill-rule="evenodd" clip-rule="evenodd" fill="#FFFFFF" d="M493.418,983.549c-5.99-1.387-9.134-3.718-10.958-7.796
	c-13.528-30.227-27.228-60.378-40.402-90.758c-2.169-5.004-2.799-11.006-2.823-16.553c-0.115-25.522-3.783-50.43-11.579-74.731
	c-0.304-0.948-0.526-1.928-0.712-2.907c-0.047-0.247,0.191-0.55,0.825-2.188c2.106,5.766,4.347,10.395,5.487,15.28
	c5.415,23.181,10.054,46.552,15.896,69.62c5.023,19.836,10.748,39.539,17.281,58.925c2.76,8.19,8.338,15.441,12.722,23.07
	c3.731,6.493,7.703,12.851,11.322,19.404C491.694,977.118,492.154,979.739,493.418,983.549z"/>
<path fill-rule="evenodd" clip-rule="evenodd" fill="#FFFFFF" d="M375.162,491.362c13.618-15.521,26.947-30.714,40.571-46.243
	c0,2.498,0.119,4.854-0.021,7.194c-0.432,7.146-0.802,14.302-1.563,21.414c-0.204,1.909-1.229,4.514-2.707,5.378
	c-10.686,6.246-21.803,11.521-34.435,12.474C376.403,491.625,375.781,491.44,375.162,491.362z"/>
<path fill-rule="evenodd" clip-rule="evenodd" fill="#FFFFFF" d="M578.22,619.409c-0.815-8.188-1.632-16.374-2.389-23.968
	c5.646-2.719,11.073-5.333,17.436-8.397C590.19,598.97,584.535,609.111,578.22,619.409z"/>
<path fill-rule="evenodd" clip-rule="evenodd" fill="#FFFFFF" d="M559.264,497.474c1.371,9.244,2.742,18.488,4.32,29.126
	c-5.804-2.709-10.484-4.894-15.514-7.24c3.44-7.639,6.665-14.8,9.891-21.961C558.396,497.424,558.829,497.449,559.264,497.474z"/>
<path fill-rule="evenodd" clip-rule="evenodd" fill="#FFFFFF" d="M350.283,752.185c10.985,5.323,14.383,11.417,10.24,18.785
	C357.086,764.664,353.846,758.722,350.283,752.185z"/>
<path fill-rule="evenodd" clip-rule="evenodd" d="M447.71,687.96c0.636,0.776,2.437,2.062,2.855,3.7
	c0.683,2.664-6.342,8.749-9.784,8.216c-1.523-0.235-3.634-2.35-3.896-3.883C436.315,692.674,442.115,688.105,447.71,687.96z"/>
</svg>
