<svg xmlns="http://www.w3.org/2000/svg" xml:space="preserve" width="1148.826" height="1308.065" viewBox="0 0 1148.826 1308.065"><path fill-rule="evenodd" d="M626.366 680.451c-6.535 2.558-12.771 5.895-19.422 7.411-12.952 2.952-24.673-1.278-35.467-8.374-13.018-8.559-22.943-20.033-29.073-34.204-4.861-11.238-8.072-23.183-12.235-34.733-.921-2.558-2.376-5.157-4.246-7.103-17.163-17.851-27.79-39.264-34.859-62.716-.57-1.891-1.995-3.836-3.564-5.064-16.265-12.739-32.64-25.337-48.985-37.974-.264-.204-.511-.432-.785-.619-3.139-2.148-5.019-4.828-2.067-8.256 2.735-3.177 5.267-1.029 7.77.873 10.21 7.761 20.474 15.452 30.744 23.134 1.11.83 2.395 1.428 4.374 1.388-2.285-3.948-4.671-7.841-6.838-11.852-14.45-26.742-22.693-55.203-25.396-85.569-3.776-42.426-.954-84.571 3.697-126.676 4.087-36.994 13.167-72.752 28.806-106.636 22.992-49.82 55.457-91.988 100.958-123.42 70.032-48.38 147.84-66.715 231.921-57.945 47.482 4.953 92.921 18.068 133.937 43.447 35.002 21.657 64.29 49.796 88.021 83.301 23.758 33.543 41.502 70.242 52.469 109.977 3.007 10.896 5.414 22.027 7.083 33.201 1.782 11.938 6.543 22.652 11.585 33.317 9.609 20.328 20.667 40.064 28.944 60.911 16.104 40.558 21.3 82.265 5.725 124.363-3.462 9.356-9.757 17.674-14.868 26.398-.592 1.01-1.96 1.563-2.969 2.328-.083-1.378-.515-2.847-.188-4.12 1.401-5.479 3.294-10.844 4.483-16.363.966-4.479 1.184-9.121 1.733-13.69l-1.441-.508c-1.052 2.054-2.255 4.044-3.131 6.17-11.042 26.797-29.091 47.132-55.296 59.89-2.969 1.445-6.216 2.407-9.424 3.246-2.971.776-5.947.969-4.225-2.189-9.578 6.334-19.924 13.777-30.885 20.164-5.334 3.107-11.789 4.332-17.805 6.192-1.294.4-2.877-.134-4.326-.238.412-1.347.699-2.749 1.261-4.031 1.867-4.265 3.929-8.447 5.688-12.753.414-1.013-.063-2.39-.129-3.599-.989.537-2.07.954-2.955 1.63-9.115 6.965-17.778 14.624-27.388 20.817-15.703 10.12-32.524 17.706-51.937 16.793-.664-.031-1.396.199-1.986-.006-1.139-.396-2.198-1.017-3.291-1.545.803-.748 1.478-1.813 2.428-2.196 8.777-3.536 13.135-10.914 16.594-19.021.494-1.159.105-2.694.126-4.055-1.172.48-2.554.709-3.485 1.48-23.607 19.533-51.13 26.221-81.137 25.003-2.146-.087-4.33.806-6.496 1.243 1.106 2.076 1.702 4.959 3.43 6.051 3.093 1.954 6.791 3.104 10.372 4.109 11.678 3.277 23.912 5.136 35.031 9.724 26.012 10.731 38.112 44.662 27.219 72.18-2.2 5.559-3.429 11.812-3.635 17.794-.714 20.814.192 41.725-1.385 62.456-1.417 18.624 5.721 32.889 16.598 46.975 37.765 48.907 66.552 102.785 87.061 161.079.387 1.1.728 2.218 1.04 3.341 4.428 15.879 1.835 25.221-11.879 34.568-13.17 8.978-27.171 16.758-40.978 24.77-4.675 2.713-9.67 3.805-15.175.92-6.162-3.23-20.596 2.83-21.609 12.26-2.163 20.129-8.376 39.751-6.728 60.393.952 11.933 1.519 23.992.949 35.932-1.304 27.35-6.874 53.787-19.008 78.621-5.289 10.826-4.955 10.619 7.199 12.008 36.059 4.121 72.488 5.594 107.929 14.254 9.684 2.367 19.347 5.17 28.58 8.871 4.041 1.619 9.005 5.488 9.94 9.238 1.384 5.545-5.025 7.322-9.241 9.482-16.238 8.32-34.19 9.646-51.76 12.324-46.05 7.018-92.584 8.145-138.971 10.998-47.138 2.898-94.335 2.629-141.412-.246-43.862-2.678-87.92-3.885-131.364-11.477a667 667 0 0 1-39.568-8.176c-4.757-1.133-9.399-3.473-13.6-6.061-6.851-4.223-6.793-10.131.506-13.699 7.272-3.557 15.054-6.318 22.878-8.455 36.53-9.98 74.169-12.488 111.646-16.014 9.123-.857 18.269-1.477 27.386-2.391 5.892-.59 5.984-1.35 3.727-6.854-6.496-15.844-13.929-31.438-18.788-47.785-5.895-19.83-6.995-40.577-7.553-61.314-.242-8.98-2.46-18.032-4.731-26.806-3.25-12.559-7.634-24.82-11.042-37.343-3.318-12.188-8.354-14.583-19.897-9.482-2.705 1.194-6.825 1.237-9.529.057-20.208-8.821-39.606-19.109-56.328-33.783-6.633-5.82-8.522-12.702-6.432-21.552 7.845-33.203 22.289-63.771 36.915-94.267 13.71-28.586 29.691-55.881 47.773-81.94 3.521-5.073 3.384-5.168-2.557-6.742-18.28-4.844-29.949-21.63-28.594-40.564 1.078-15.069 5.75-29.034 12.386-42.403 2.085-4.201 1.906-6.927-1.805-10.283-9.898-8.952-9.943-20.772-8.327-32.829.24-1.787.799-3.531 1.186-5.301.027-.121-.154-.285.097.14m83.416-331.662c4.918 7.967 11.604 13.984 19.458 18.839 1.682 1.04 2.973 2.711 4.444 4.092-1.876 1.131-3.62 2.837-5.647 3.299-12.474 2.836-24.66.355-36.369-3.572-24.032-8.06-41.653-24.569-55.772-44.999-2.918-4.223-5.764-5.685-10.209-3.811-8.247 3.477-16.423 7.124-24.592 10.781-6.593 2.952-9.807 8.211-11.606 15.194-7.103 27.565-14.677 55.008-22.003 82.516-2.766 10.383-2.455 20.17 4.941 29.041 2.522 3.025 3.165 2.521 4.186-.534 4.217-12.625 8.855-25.13 12.533-37.911 7.091-24.642 23.567-38.741 48.07-44.102 12.743-2.788 24.475 1.32 35.675 6.731 9.343 4.514 17.193 10.819 19.71 21.74.109.475.424.901.645 1.351 11.135 22.673 14.513 47.021 14.147 71.825-.194 13.168-6.849 23.52-19.576 28.959-11.742 5.019-23.554 5.038-33.507-3.188-7.182-5.938-13.727-13.228-18.75-21.071-9.86-15.395-12.155-33.251-13.731-51.111-.124-1.4-.619-2.77-.942-4.153-1.105.886-2.311 1.674-3.284 2.687-.794.826-1.393 1.876-1.939 2.9-5.166 9.696-10.437 19.34-15.381 29.148-2.023 4.015-4.996 5.093-8.997 4.328-3.924-.75-7.805-1.73-11.725-2.508-1.087-.216-2.245-.072-3.37-.093.362 1.02.516 2.189 1.121 3.036 4.64 6.504 9.303 12.994 14.12 19.367 1.053 1.394 2.579 2.772 4.18 3.357 14.822 5.418 29.479 11.473 44.629 15.77 24.63 6.986 50.146 8.635 75.594 10.313 13.311.877 26.3 2.756 35.69 13.892 15.458 18.331 17.938 38.442 8.028 60.063-1.839 4.01-1.608 5.366 2.978 4.695 14.143-2.067 28.522-3.118 42.385-6.373 31.944-7.501 61.834-20.72 91.098-35.32 16.417-8.19 32.68-16.74 46.078-29.59 2.374-2.276 4.498-5.59 5.146-8.75 2.199-10.747 3.75-21.63 5.391-32.484.327-2.167-.04-4.44-.087-6.664-2.019 1.054-4.102 2.001-6.046 3.178-8.853 5.355-17.561 11.119-28.572 10.483-1.608-.093-3.175-.928-4.76-1.419.866-1.311 1.491-2.896 2.633-3.891 27.195-23.693 36.707-54.615 36.538-89.444-.007-1.355-1.496-3.671-2.617-3.891-5.873-1.147-11.849-1.769-17.79-2.56-2.512-.335-2.936.561-2.641 3.13 1.319 11.528 2.574 23.078 3.345 34.653 1.284 19.297-13.486 39.471-30.806 45.77-24.764 9.006-43.296.65-54.663-22.137-13.467-26.997-14.776-55.38-7.97-84.752 3.455-14.911 13.976-22.367 25.251-29.735 3.395-2.219 7.531-4.343 11.436-4.559 16.711-.924 31.588 5.975 46.11 12.917 7.064 3.377 12.89 9.284 19.484 13.739 2.776 1.875 6.089 2.957 9.157 4.399.543-3.49 1.348-6.968 1.505-10.475.068-1.526-.753-3.773-1.928-4.559-5.903-3.943-12.807-6.682-17.987-11.362-18.027-16.284-35.438-33.248-53.231-49.794-2.044-1.901-4.956-3.843-7.568-3.995-13.58-.79-27.194-.969-40.794-1.442-4.84-.168-6.204 2.091-6.042 6.733.656 18.859-3.358 37.102-8.052 55.195-1.981 7.642-5.633 8.499-11.711 3.396-8.021-6.733-16.121-13.372-24.245-19.981-.916-.746-2.204-1.035-3.318-1.536.254 1.233.147 2.728.82 3.66 5.533 7.66 11.017 15.371 16.922 22.74 3.286 4.101 3.309 7.16-1.692 8.649-6.156 1.833-12.591 3.302-18.979 3.683-22.768 1.352-44.533-2.318-64.549-14.483m204.5 314.222c.064-10.355-5.469-22.708-18.525-31.189q-8.423-5.473-17.573-1.281c-11.66 5.342-21.739 12.822-30.533 22.147a11164 11164 0 0 1-51.925 54.675c-1.677 1.754-2.217 2.768-.417 4.898 1.03 1.221.799 3.507 1.136 5.313-1.837.116-3.858.784-5.475.242-4.247-1.424-8.316-3.378-12.459-5.115-20.563-8.622-41.115-17.266-61.692-25.853-8.79-3.668-12.691-10.192-13.615-19.674-.447-4.591-3.646-8.98-5.951-13.271-.518-.965-2.505-1.141-3.815-1.679-.256 1.204-.45 2.426-.782 3.608-.623 2.218-1.326 4.413-1.995 6.618-2.213-.819-4.496-1.488-6.625-2.485-6.287-2.943-12.379-6.35-18.812-8.915-4.038-1.611-7.838-.47-11.419 2.741-3.777 3.387-5.786 8.331-8.944 11.314-7.18 6.783-6.129 15.775-7.699 23.334-3.085 14.854 1.89 21.986 15.861 28.5 6.575 3.064 13.714 4.918 20.6 7.313 4.687 1.631 9.893 2.438 13.967 5.029 11.65 7.411 22.762 15.662 34.231 23.367 18.267 12.274 36.657 24.272 58.468 29.709 7.438 1.854 14.709 2.102 21.494-1.09 12.162-5.721 24.411-11.45 35.886-18.396 23.079-13.971 40.815-34.045 58.643-53.854 10.482-11.647 17.991-24.799 17.97-46.006m-72.424 509.008-1.545-.196c-.457-19.308-.749-38.571-7.273-57.188-4.341-12.386-7.908-25.061-11.35-37.734-1.369-5.044-3.651-7.46-9-7.021-11.27.927-22.554 1.691-33.839 2.409-3.633.231-4.061 2.657-4.482 5.458-5.464 36.311-9.465 72.702-4.651 109.418 1.924 14.672 4.554 29.252 6.95 43.859.571 3.482 1.766 6.064 6.368 5.998 15.314-.223 30.635-.088 45.952.072 3.207.035 4.964-.83 5.375-4.252 2.44-20.28 4.985-40.55 7.495-60.823M621.727 513.483c.796 1.348 1.062 1.921 1.435 2.413 29.234 38.562 34.325 81.555 23.432 127.491-.22.929-.293 1.894-.435 2.841 1.011-.295 2.117-.416 3.018-.911 20.275-11.141 40.588-22.214 60.703-33.64 2.435-1.383 4.585-4.441 5.48-7.178 8.522-26.048 4.345-50.285-11.491-72.455-1.686-2.359-5.1-4.297-8.009-4.84-21.25-3.964-42.581-7.494-63.873-11.237-3.184-.559-6.299-1.513-10.26-2.484m-7.348-454.111-1.355-1.338c-55.342 28.45-93.981 72.766-120.66 128.344-15.762 32.835-24.698 67.36-25.302 103.845 3.885-8.684 6.998-17.593 10.579-26.309 11.287-27.464 23.997-54.227 40.541-78.984 2.364-3.538 5.173-7.602 8.775-9.293 5.174-2.43 7.146-6.287 8.183-11.033 4.187-19.167 14.105-35.477 25.236-51.175 12.227-17.245 26.933-32.118 43.621-45.077 3.609-2.803 6.929-5.977 10.382-8.98m48.081 739.613c7.179.059 11.918-2.118 16.674-7.439 9.777-10.939 13.609-24.609 17.483-38.226.318-1.119-.634-3.193-1.65-4.003-7.886-6.283-15.571-13.33-27.042-10.14-.46.128-.998.027-1.493-.027-5.745-.638-11.269-1.308-13.322-8.287-.851-2.894-2.996-2.259-4.132.222-5.973 13.039-11.375 26.153-12.541 40.797-1.395 17.535 13.853 27.536 26.023 27.103m138.731-138.92.124 1.054c5.828 0 11.711-.497 17.47.138 5.889.649 8.962-2.001 11.346-6.773 5.274-10.563 10.739-21.031 16.042-31.58.86-1.71 1.293-3.635 1.923-5.46-2.106.045-4.277-.228-6.309.186-15.068 3.063-28.147 10.775-41.606 17.698-5.958 3.064-12.389 6.404-18.843 6.99-7.062.641-14.432-1.576-21.599-2.917-2.884-.539-4.742-.298-6.092 2.528-3.011 6.308-6.271 12.497-9.253 18.818-.811 1.72-.989 3.737-1.458 5.618 2.091.012 4.208.245 6.27.001 17.334-2.051 34.658-4.19 51.985-6.301m266.034-245.866c-.316-19.623-3.36-29.275-11.574-41.468-3.865-5.738-9.205-8.91-15.606-10.829-3.076-.922-4.428-1.037-3.883 3.191 4.171 32.384 7.319 64.813 1.837 97.397-.2 1.189.315 2.5.498 3.755 1.133-.446 2.443-.661 3.372-1.373 17.626-13.524 26.228-31.336 25.356-50.673m-477.731 89.752c-8.663-2.649-16.98-1.847-24.609 3.692-9.934 7.213-16.254 17.176-19.948 28.63-13.921 43.174-6.986 83.148 19.702 119.572 8.34 11.383 19.526 19.031 34.354 19.64 7.538.311 14.462-2.568 17.226-7.028-15.061 3.271-21.97 2.586-31.676-3.141-9.067-5.351-16.54-12.441-21.899-21.461-17.042-28.682-22.838-59.497-15.785-92.211 3.458-16.037 9.703-31.101 24.431-40.315 5.405-3.383 11.966-4.919 18.204-7.378m274.879-233.956c-.347-.565-.825-1.553-1.486-2.398-13.641-17.417-27.288-34.828-40.991-52.195-.731-.927-1.955-1.465-2.95-2.184-.207 1.208-.715 2.451-.577 3.619 1.982 16.832 3.995 33.662 6.239 50.46.139 1.035 2.251 2.562 3.465 2.582 12.071.192 24.147.116 36.3.116M740.578 616.959l-.347-1.741c-4.319.872-8.655 1.67-12.944 2.671-1.021.238-1.886 1.153-2.821 1.757.87.686 1.69 1.455 2.629 2.029.695.427 1.634.467 2.31.913 1.4.923 2.697 2.001 4.037 3.015-1.471.92-2.844 2.381-4.429 2.665-7.188 1.289-14.451 2.16-21.652 3.391-1.569.269-3.819 1.028-4.334 2.191-1.966 4.437 2.657 13.692 7.384 15.106.968.289 2.582-.369 3.441-1.116 10.339-8.983 22.473-14.736 34.963-19.964 7.738-3.238 16.54-4.559 22.305-11.576.983-1.196 1.559-2.729 2.322-4.105-1.679-.203-3.433-.822-5.025-.54-9.301 1.651-18.564 3.513-27.839 5.304m-147.722-22.62c-.786-8.706-2.882-16.678-8.205-23.496-4.385-5.618-10.303-5.036-11.844 1.775-1.611 7.122-2.127 14.836-1.25 22.064.665 5.48 3.584 11.064 6.749 15.762 3.388 5.027 9.028 4.032 11.124-1.665 1.695-4.609 2.324-9.612 3.426-14.44m15.122-321.342c-3.799 15.784-7.537 31.265-11.221 46.76-.173.73.138 1.576.223 2.368.907-.177 1.852-.246 2.714-.549 7.964-2.799 15.87-5.775 23.895-8.384 2.484-.807 3.406-1.486 2.125-4.066-5.878-11.84-11.659-23.727-17.736-36.129m19.491 276.027-.454-1.773c-1.739.177-3.662-.065-5.188.6-9.896 4.314-19.725 8.788-29.521 13.326-1.145.53-1.957 1.776-2.923 2.691 1.3.073 2.776.589 3.872.151 10.644-4.253 21.232-8.645 31.806-13.067.913-.382 1.611-1.274 2.408-1.928m3.893 74.838 2.096-1.196c-.704-.565-1.335-1.474-2.124-1.641-4.39-.927-8.825-1.634-13.23-2.493-6.526-1.271-13.026-2.683-19.572-3.835-.964-.17-2.121.756-3.188 1.175.565.758 1.032 2.071 1.709 2.191 11.292 2 22.61 3.851 34.309 5.799m95.411 32.223-1.192-.95c-2.944 2.575-6.637 4.695-8.572 7.882-1.326 2.184-.208 5.853-.183 8.857.765-.14 1.999-.032 2.222-.456 2.661-5.065 5.173-10.21 7.725-15.333" clip-rule="evenodd"/><path fill-rule="evenodd" d="M457.119 730.905c-1.813-1.472-3.923-2.35-4.305-3.712-.446-1.592.051-4.083 1.123-5.356 4.923-5.851 10.242-11.366 15.322-17.088a12205 12205 0 0 0 41.323-46.741c2.268-2.581 4.703-4.905 7.955-2.25 3.696 3.018 1.198 5.905-1.08 8.492-18.356 20.853-36.702 41.712-55.119 62.51-1.353 1.528-3.233 2.59-5.219 4.145m36.048-154.069c-9.296-2.514-17.675-4.558-25.853-7.217-1.313-.428-2.573-3.754-2.277-5.468.213-1.233 3.281-3.107 4.683-2.814 7.947 1.661 15.844 3.674 23.588 6.107 1.533.481 3.113 3.28 3.204 5.085.07 1.388-2.164 2.89-3.345 4.307" clip-rule="evenodd"/><path fill="#fff" fill-rule="evenodd" d="M709.782 348.789c20.017 12.165 41.781 15.835 64.547 14.481 6.388-.38 12.822-1.849 18.979-3.683 5.001-1.489 4.979-4.548 1.692-8.649-5.905-7.37-11.389-15.081-16.922-22.74-.673-.932-.566-2.426-.82-3.66 1.114.501 2.402.79 3.318 1.536 8.124 6.609 16.225 13.248 24.245 19.981 6.078 5.103 9.729 4.246 11.711-3.396 4.693-18.093 8.708-36.336 8.052-55.195-.162-4.643 1.202-6.902 6.042-6.733 13.6.474 27.214.652 40.794 1.442 2.612.152 5.524 2.094 7.568 3.995 17.793 16.547 35.204 33.511 53.231 49.794 5.181 4.68 12.084 7.418 17.987 11.362 1.175.785 1.996 3.033 1.928 4.559-.157 3.507-.962 6.985-1.505 10.475-3.068-1.442-6.381-2.524-9.157-4.399-6.595-4.455-12.42-10.362-19.484-13.739-14.522-6.942-29.399-13.841-46.11-12.917-3.904.216-8.041 2.34-11.436 4.559-11.275 7.368-21.796 14.824-25.251 29.735-6.807 29.373-5.497 57.755 7.97 84.752 11.367 22.787 29.899 31.143 54.663 22.137 17.319-6.299 32.09-26.473 30.806-45.77-.771-11.575-2.025-23.125-3.345-34.653-.295-2.569.129-3.465 2.641-3.13 5.941.792 11.917 1.413 17.79 2.56 1.121.219 2.61 2.536 2.617 3.891.169 34.829-9.343 65.751-36.538 89.444-1.142.994-1.767 2.58-2.633 3.891 1.585.491 3.151 1.326 4.76 1.419 11.012.636 19.72-5.128 28.572-10.483 1.944-1.177 4.027-2.124 6.046-3.178.047 2.224.414 4.497.087 6.664-1.641 10.854-3.191 21.737-5.391 32.484-.647 3.16-2.771 6.474-5.146 8.75-13.398 12.85-29.661 21.399-46.078 29.59-29.264 14.601-59.153 27.819-91.098 35.32-13.862 3.255-28.242 4.306-42.385 6.373-4.586.671-4.816-.686-2.978-4.695 9.91-21.62 7.43-41.731-8.028-60.063-9.391-11.136-22.38-13.015-35.69-13.892-25.448-1.678-50.963-3.326-75.594-10.313-15.15-4.297-29.807-10.352-44.629-15.77-1.601-.585-3.126-1.964-4.18-3.357-4.817-6.373-9.48-12.863-14.12-19.367-.605-.847-.758-2.017-1.121-3.036 1.125.021 2.283-.123 3.37.093 3.92.777 7.8 1.758 11.725 2.508 4.001.765 6.973-.313 8.997-4.328 4.944-9.809 10.215-19.452 15.381-29.148.546-1.024 1.145-2.074 1.939-2.9.973-1.013 2.179-1.801 3.284-2.687.323 1.384.818 2.753.942 4.153 1.576 17.86 3.872 35.717 13.731 51.111 5.023 7.844 11.568 15.134 18.75 21.071 9.953 8.227 21.765 8.207 33.507 3.188 12.727-5.439 19.382-15.791 19.576-28.959.365-24.805-3.013-49.152-14.147-71.825-.221-.449-.536-.876-.645-1.351-2.517-10.921-10.367-17.226-19.71-21.74-11.201-5.411-22.932-9.519-35.675-6.731-24.503 5.36-40.979 19.46-48.07 44.102-3.678 12.781-8.316 25.286-12.533 37.911-1.021 3.055-1.663 3.56-4.186.534-7.396-8.871-7.707-18.658-4.941-29.041 7.327-27.508 14.901-54.951 22.003-82.516 1.799-6.983 5.013-12.242 11.606-15.194 8.169-3.657 16.346-7.304 24.592-10.781 4.446-1.875 7.291-.412 10.209 3.811 14.119 20.43 31.74 36.939 55.772 44.999 11.709 3.927 23.895 6.408 36.369 3.572 2.027-.461 3.771-2.167 5.647-3.299-1.472-1.38-2.763-3.052-4.444-4.092-7.852-4.853-14.538-10.87-19.456-18.837m70.215 192.918c2.003-3.051 4.425-5.32 3.979-6.355-.917-2.131-3.366-3.602-5.186-5.343-1.431 1.69-4.132 3.514-3.974 5.04.203 1.957 2.706 3.676 5.181 6.658m134.285 121.304c.021 21.207-7.487 34.358-17.973 46.01-17.827 19.809-35.563 39.883-58.643 53.854-11.475 6.945-23.724 12.675-35.886 18.396-6.785 3.191-14.056 2.944-21.494 1.09-21.811-5.437-40.201-17.435-58.468-29.709-11.469-7.705-22.581-15.956-34.231-23.367-4.074-2.591-9.28-3.398-13.967-5.029-6.886-2.396-14.025-4.249-20.6-7.313-13.971-6.514-18.946-13.646-15.861-28.5 1.57-7.559.519-16.551 7.699-23.334 3.158-2.983 5.167-7.928 8.944-11.314 3.581-3.211 7.381-4.353 11.419-2.741 6.432 2.565 12.525 5.972 18.812 8.915 2.13.997 4.413 1.666 6.625 2.485.669-2.205 1.373-4.4 1.995-6.618.332-1.183.526-2.404.782-3.608 1.311.538 3.297.714 3.815 1.679 2.305 4.291 5.504 8.681 5.951 13.271.924 9.481 4.825 16.006 13.615 19.674 20.577 8.587 41.13 17.23 61.692 25.853 4.143 1.737 8.212 3.691 12.459 5.115 1.616.542 3.638-.126 5.475-.242-.337-1.807-.105-4.093-1.136-5.313-1.8-2.131-1.26-3.145.417-4.898 17.368-18.168 34.68-36.39 51.925-54.675 8.794-9.325 18.873-16.806 30.533-22.147q9.15-4.192 17.573 1.281c13.059 8.477 18.592 20.83 18.528 31.185" clip-rule="evenodd"/><path fill="#fff" fill-rule="evenodd" d="M621.727 513.483c3.961.971 7.077 1.925 10.261 2.484 21.292 3.743 42.623 7.273 63.873 11.237 2.909.543 6.323 2.48 8.009 4.84 15.835 22.17 20.013 46.407 11.491 72.455-.896 2.736-3.046 5.795-5.48 7.178-20.114 11.426-40.428 22.499-60.703 33.64-.901.495-2.007.616-3.018.911.142-.947.214-1.912.435-2.841 10.893-45.937 5.802-88.93-23.432-127.491-.374-.492-.641-1.065-1.436-2.413m-7.348-454.111c-3.454 3.003-6.773 6.177-10.383 8.98-16.688 12.959-31.394 27.832-43.621 45.077-11.131 15.698-21.049 32.009-25.236 51.175-1.037 4.746-3.008 8.604-8.183 11.033-3.603 1.692-6.411 5.755-8.775 9.293-16.544 24.757-29.254 51.52-40.541 78.984-3.582 8.716-6.694 17.625-10.579 26.309.604-36.485 9.541-71.01 25.302-103.845 26.678-55.578 65.318-99.895 120.66-128.344q.68.668 1.356 1.338m48.081 739.613c-12.171.434-27.418-9.567-26.022-27.104 1.166-14.644 6.568-27.758 12.541-40.797 1.136-2.48 3.281-3.115 4.132-.222 2.053 6.979 7.577 7.649 13.322 8.287.495.055 1.032.155 1.493.027 11.471-3.19 19.157 3.856 27.042 10.14 1.016.81 1.968 2.884 1.65 4.003-3.874 13.616-7.706 27.286-17.483 38.226-4.757 5.322-9.496 7.498-16.675 7.44m138.731-138.92c-17.327 2.111-34.651 4.25-51.985 6.301-2.062.244-4.179.011-6.27-.001.469-1.881.647-3.898 1.458-5.618 2.981-6.321 6.242-12.511 9.253-18.818 1.35-2.826 3.208-3.067 6.092-2.528 7.167 1.341 14.537 3.558 21.599 2.917 6.454-.586 12.885-3.926 18.843-6.99 13.459-6.923 26.538-14.636 41.606-17.698 2.031-.413 4.202-.141 6.309-.186-.63 1.825-1.063 3.75-1.923 5.46-5.303 10.549-10.768 21.017-16.042 31.58-2.384 4.772-5.457 7.423-11.346 6.773-5.759-.635-11.642-.138-17.47-.138zm266.034-245.866c.872 19.337-7.73 37.149-25.356 50.673-.929.712-2.239.927-3.373 1.373-.182-1.255-.697-2.565-.497-3.755 5.482-32.584 2.334-65.014-1.837-97.397-.545-4.228.807-4.113 3.883-3.191 6.401 1.919 11.741 5.091 15.606 10.829 8.214 12.192 11.258 21.845 11.574 41.468m-477.731 89.752c-6.237 2.459-12.799 3.995-18.205 7.378-14.728 9.215-20.973 24.278-24.431 40.315-7.053 32.714-1.258 63.529 15.785 92.211 5.359 9.02 12.832 16.11 21.899 21.461 9.707 5.727 16.615 6.412 31.676 3.141-2.764 4.46-9.688 7.339-17.226 7.028-14.827-.608-26.014-8.257-34.354-19.64-26.688-36.424-33.623-76.398-19.702-119.572 3.693-11.454 10.014-21.417 19.948-28.63 7.629-5.539 15.947-6.342 24.61-3.692m274.879-233.956c-12.152 0-24.229.076-36.301-.117-1.214-.02-3.326-1.546-3.465-2.582-2.244-16.799-4.257-33.628-6.239-50.46-.138-1.167.37-2.411.577-3.619.995.719 2.219 1.257 2.95 2.184 13.703 17.368 27.351 34.778 40.991 52.195.661.846 1.14 1.834 1.487 2.399" clip-rule="evenodd"/><path fill="#fff" fill-rule="evenodd" d="M592.856 594.339c-1.102 4.828-1.731 9.831-3.427 14.44-2.095 5.697-7.736 6.692-11.124 1.665-3.165-4.697-6.083-10.281-6.749-15.762-.877-7.229-.361-14.942 1.25-22.064 1.541-6.812 7.458-7.394 11.844-1.775 5.324 6.819 7.421 14.79 8.206 23.496m15.122-321.342c6.077 12.403 11.858 24.29 17.736 36.129 1.281 2.58.359 3.259-2.125 4.066-8.025 2.609-15.93 5.585-23.895 8.384-.862.303-1.808.372-2.714.549-.085-.792-.396-1.638-.223-2.368 3.684-15.495 7.422-30.977 11.221-46.76m19.491 276.027c-.797.654-1.496 1.546-2.408 1.928-10.574 4.423-21.163 8.814-31.806 13.067-1.096.438-2.572-.078-3.872-.151.966-.915 1.779-2.161 2.923-2.691 9.796-4.538 19.625-9.012 29.521-13.326 1.526-.665 3.449-.423 5.188-.6zm3.893 74.838c-11.699-1.948-23.017-3.799-34.309-5.799-.678-.12-1.145-1.434-1.709-2.191 1.067-.419 2.224-1.345 3.188-1.175 6.546 1.152 13.046 2.563 19.572 3.835 4.405.859 8.84 1.566 13.23 2.493.789.167 1.42 1.075 2.124 1.641zm95.411 32.223c-2.552 5.123-5.063 10.268-7.726 15.333-.223.424-1.457.316-2.222.456-.025-3.005-1.144-6.674.183-8.857 1.936-3.187 5.628-5.307 8.572-7.882z" clip-rule="evenodd"/><path fill-rule="evenodd" d="M779.997 541.707c-2.475-2.981-4.978-4.7-5.181-6.658-.158-1.526 2.543-3.35 3.974-5.04 1.819 1.741 4.269 3.212 5.186 5.343.445 1.034-1.976 3.304-3.979 6.355" clip-rule="evenodd"/><path stroke="#fff" stroke-miterlimit="10" stroke-width="4" d="M.662 642.175c-1.181-4.13-.869-6.741 1.648-9.045 3.36-3.075 11.72-9.373 12.087-9.238 2 .733 13.394 19.149 25.444 18.691 9.313-.354 18.993-2.188 27.698-5.671 1.985-.794 3.004-.03 3.288 2.199.709 5.582 1.062 12.192.998 17.552-.042 3.614-.68 4.751-3.183 5.622-9.589 3.339-19.334 4.571-29.344 5.381-18.197 1.472-33.415-7.237-38.636-25.491zm9.762-80.32c2.036-1.308 20.794 6.495 32.116 7.161 6.469.381 14.732-.581 19.923-.759 1.354-.046 1.983.895 2.069 2.654.148 3.02.474 10.348.398 16.509-.049 4.023-1.11 4.829-4.174 5.382a73.6 73.6 0 0 1-17.149 1.035c-10.496-.61-21.153-1.807-31.185-5.417-2.762-.994-3.273-2.148-3.212-6.162.087-5.619.421-19.893 1.214-20.403zm114.424 11.371c2.349-5.25 3.895-11.851 4.207-11.992 3.699-1.676 20.011 12.162 19.997 13.979-.008 1.022-.453 1.797-1.422 2.88-1.316 1.47-2.627 3.76-4.053 6.192-4.302 7.339-8.536 15.187-12.507 22.319a2186 2186 0 0 0-3.16 6.008c3.435-2.879 7.596-4.272 11.869-4.245 10.678.069 15.569 10.43 15.401 19.837l.254 6.642c.264 5.288 1.662 6.374 3.772 6.315 3.919-.108 14.788-19.768 14.788-19.768.172.025 4.128 14.448 7.021 18.386 1.489 2.027 1.413 4.217-.04 7.084-4.809 9.485-13.898 16.573-24.542 17.312-14.073.977-20.378-11.939-20.121-24.358l-.164-4.612c-.065-4.269-1.887-6.504-4.267-6.071-8.157 1.482-13.979 13.979-17.181 22.669a151 151 0 0 0-3.833 11.921c-.733 2.648-2.094 3.521-4.152 2.952-5.011-1.383-10.894-4.113-13.72-6.077-1.975-1.373-2.371-2.951-1.346-5.784 9.965-27.537 21.214-54.789 33.199-81.589zm75.888 12.604c1.044-5.664 1.594-12.067 1.956-12.303 3.654-2.375 20.488 7.391 20.482 9.242-.002.618-.21 1.227-1.008 2.633-.909 1.601-1.709 3.696-2.527 6.715-3.204 11.835-4.546 24.854-4.74 37.412l-.008 2.188a2124 2124 0 0 1 5.358-11.167c1.09 4.23 3.176 7.798 4.986 10.028 1.142 1.407 1.195 2.638.59 4.087-2.33 5.585-5.87 13.778-7.5 20.802-.511 2.201-1.139 2.843-3.131 3.284-1.8.398-7.246 1.363-11.672 1.622-2.013.117-2.777-.353-3.31-2.036-3.198-10.104-3.743-22.765-3.762-34.046-.02-12.835 1.956-25.819 4.286-38.461zm29.714 48.003c1.941-2.086 9.824-8.552 10.66-8.295 2.071.635 9.722 10.94 16.854 10.717 6.931-.217 12.57-1.301 17.073-2.739 1.996-.638 3.258-.254 3.616 1.507.878 4.325 1.412 9.802 1.413 13.021.001 1.8-.515 2.521-2.411 3.168-5.147 1.759-11.618 2.73-18.905 3.297-11.756.914-24.273-3.631-29.02-15.055-1.021-2.458-.592-4.211.72-5.621zm3.828-47.605c.204-1.814 1.319-2.663 3.11-2.391 4.212.642 8.307 1.278 13.813 1.519 6.608.288 13.537.103 20.223-.858 1.498-.215 2.589.422 2.803 1.75.646 4.002.985 9.864.704 13.199-.149 1.767-.615 2.556-2.605 2.817-4.883.643-12.128 1.239-19.545 1.111-6.214-.107-12.637-.616-15.834-1.09-2.299-.341-2.794-1.079-2.899-3.604-.172-4.141-.077-9.73.23-12.453zm78.299 3.755c2.104.076 5.73.553 6.209.134 1.284-1.123.879-7.173.871-9.932-.005-1.513-.465-5.12-.316-5.268 2.994-2.971 21.925 3.72 21.932 5.266.003.687-.22 1.113-.791 2.108-.703 1.225-1.288 2.949-1.681 4.829l-.391 2.053c6.906-.689 13.662-1.696 19.206-3.13 1.771-.458 2.793.144 3.213 1.55.972 3.253 1.85 7.936 1.872 11.577.005.911-.428 1.703-2.492 2.109-8.087 1.593-22.694.924-25.542 3.204-1.36 1.089-4.169 10.788-4.169 10.788.253.233 13.741-5.255 21.541-5.359 11.052-.147 24.672 5.534 24.494 18.29-.264 18.879-26.218 24.847-40.85 27.187-2.587.414-3.846.139-4.533-1.42-1.532-3.474-8.688-11.718-8.688-11.718.205-.699 33.346-2.254 34.6-12.766.338-2.836-2.703-5.518-9.064-5.318-11.203.352-21.9 6.126-29.566 14.266-1.399 1.485-2.409 1.615-4.116.71-3.3-1.75-7.143-4.439-9.459-6.982-1.292-1.417-1.234-2.346.091-4.012 4.94-6.211 11.685-22.081 11.18-22.735-.5-.649-8.521.174-12.731.124-2.707-.032-3.732-.517-4.214-2.167-.931-3.189-2.956-14.038-2.428-14.527.619-.576 9.012.891 15.822 1.139zm89.201-1.41c.584-2.436.668-5.687 1.047-5.96 4.328-3.127 20.973 5.322 20.983 6.356.005.518-.257 1.029-.785 1.599-.597.645-1.293 1.885-1.869 3.2-4.239 9.688-5.88 20.436-5.702 31.032l.011 1.052c1.458-2.815 2.186-4.214 3.643-6.99.722 1.928 3.254 4.707 5.089 6.631.514.539.735 1.571.326 2.427-1.945 4.072-5.43 13.142-5.951 17.13-.139 1.065-.5 1.522-1.993 1.94-2.096.587-7.628 1.551-11.648 1.85-1.909.142-2.509-.299-3.133-1.623-2.866-6.086-4.577-16.435-4.624-23.426-.079-11.842 1.851-23.74 4.606-35.218zm44.329 30.868c1.404-.033 3.935.164 4.116-.027.562-.59.061-9.355-.527-9.893-.989-.903-9.322.319-13.534.334-4.914.017-5.719-.497-6.341-2.174-.922-2.483-1.952-10.298-1.422-10.775 1.146-1.033 13.132.644 20.843.388l-.03-2.388c-.07-5.552-1.176-10.031-.931-10.297 2.634-2.857 21.348 2.145 21.372 3.827.005.337-.176.807-.583 1.319-.403.508-.671 1.274-.87 2.128-.261 1.124-.73 4.163-.438 4.444.67.645 7.151-.7 10.101-1.025 1.665-.184 2.402.204 2.623 1.119.508 2.101.986 5.597 1.027 8.288.023 1.51-.477 2.03-2.47 2.366-2.693.454-10.349.432-11.111 1.286-.899 1.009.028 12.217 1.194 13.487 1.661 1.811 10.96 2.92 15.238 5.066 2 1.003 2.272 1.638 1.652 2.787-1.481 2.744-4.339 6.123-6.308 8.113-1.188 1.201-2.225 1.29-4.421.096-1.918-1.043-5.784-3.204-6.176-3.03-1.386.614-9.344 9.578-21.774 10.746-8.603.809-21.682-1.606-21.957-12.499-.187-7.413 8.185-13.389 20.727-13.686zm.988 14.892c3.515-.19 4.502-1.648 4.486-2.908l-.015-1.188c-1.609-.135-2.917-.217-4.122-.162-2.911.133-4.808 1.146-4.793 2.357s1.532 2.058 4.444 1.901z"/></svg>