<?xml version="1.0" encoding="utf-8"?>
<!-- Generator: Adobe Illustrator 16.0.3, SVG Export Plug-In . SVG Version: 6.00 Build 0)  -->
<!DOCTYPE svg PUBLIC "-//W3C//DTD SVG 1.1//EN" "http://www.w3.org/Graphics/SVG/1.1/DTD/svg11.dtd">
<svg version="1.1" id="レイヤー_1" xmlns="http://www.w3.org/2000/svg" xmlns:xlink="http://www.w3.org/1999/xlink" x="0px"
	 y="0px" width="549.341px" height="741.463px" viewBox="0 0 549.341 741.463" enable-background="new 0 0 549.341 741.463"
	 xml:space="preserve">
<path fill="#FFFFFF" d="M282.179,269.816c0.963-2.427,1.314-5.047,2.307-7.465c0.009-0.021,0.018-0.043,0.026-0.065
	c0.407-1.005,0.709-2.076,1.42-2.92c0.614-0.729,1.397-1.148,2.156-1.698c2.235-1.619,4.459-3.455,7.163-4.222
	c19.671-5.579,37.226-0.005,53.533,10.932c4.818,3.232,9.188,7.133,13.821,10.774c1.676-7.855-0.809-11.919-8.542-15.015
	c-18.278-7.316-32.021-20.923-44.551-35.798c-1.302-1.546-3.874-2.785-5.888-2.832c-6.729-0.155-13.472,0.384-20.21,0.441
	c-1.297,0.011-2.604-0.951-3.906-1.465c0.59-1.281,0.839-3.128,1.839-3.729c2.299-1.38,4.883-2.611,7.497-3.063
	c3.947-0.683,8.019-0.649,10.881-0.843c-8.169-15.399-16.44-30.99-24.583-46.341c-0.068,0.837-0.274,2.181-0.272,3.524
	c0.016,11.122-0.222,22.254,0.18,33.363c0.648,17.967,1.465,35.941,7.899,53.091c0.197,0.525,0.397,0.949,0.602,1.302
	c-0.765,0.138-1.533,0.327-2.315,0.293c-1.767-0.075-3.563-0.351-5.279-0.776c-0.823-0.205-1.625-0.488-2.445-0.702
	c-0.655-0.17-1.313-0.33-1.973-0.481c-2.356-0.541-4.731-0.999-7.083-1.563c-2.299-0.552-4.583-1.208-6.753-2.155
	c-7.259-3.167-13.989-7.546-21.384-11.649c1.073,7.997,4.337,14.884,10.177,20.605c0.843,0.825,1.124,2.225,1.665,3.359
	c-1.284,0.171-2.634,0.691-3.839,0.458c-8.896-1.717-16.737-5.758-23.793-11.347c-3.839-3.041-7.543-6.253-11.309-9.388
	c2.209,4.695,5.297,8.662,8.371,12.639c0.642,0.831,1.228,1.705,1.84,2.559c-1.151,0.126-2.503,0.708-3.42,0.304
	c-7.168-3.153-14.954-5.507-21.235-9.96c-21.218-15.042-32.118-36.711-37.102-61.706c-1.276-6.401-2.205-12.871-3.293-19.309
	c-0.559-0.188-1.118-0.376-1.677-0.564c-7.774,15.317-15.547,30.636-23.352,46.013c1.18,0.521,1.305,0.629,1.389,0.604
	c1.07-0.326,2.125-0.707,3.203-1.004c9.139-2.516,18.257-3.428,26.885,1.535c1.494,0.859,2.154,3.168,3.2,4.808
	c-1.764,0.343-3.536,1.02-5.288,0.974c-9.198-0.246-18.39-0.848-27.585-0.871c-1.584-0.004-3.986,1.84-4.641,3.403
	c-12.466,29.756-19.263,60.187-10.303,92.373c0.387,1.393,0.145,3.292-0.516,4.594c-5.794,11.405-6.61,23.491-4.813,35.828
	c2.479,17.005,13.632,27.907,27.565,35.864c27.431,15.665,57.743,21.119,88.828,22.835c22.923,1.267,45.712-0.432,68.209-5.135
	c17.492-3.657,34.827-7.767,50.88-16.165c6.506-3.403,10.492-8.118,12.06-15.17c0.593-2.672,1.585-5.254,2.313-7.9
	c0.181-0.662,0.037-1.413,0.042-2.124c-0.636,0.219-1.333,0.335-1.897,0.672c-3.852,2.304-7.655,4.687-11.531,6.949
	c-0.54,0.315-1.386,0.108-2.091,0.144c0.233-0.61,0.426-1.239,0.706-1.828c3.952-8.27,8.58-16.292,11.72-24.858
	c4.687-12.783,5.957-26.249,5.225-39.866c-0.167-3.105,0.71-6.674-0.529-9.237c-3.949-8.158-8.017-16.495-17.014-20.579
	c-1.104-0.501-2.266-0.877-3.401-1.31c0.182,1.161,0.353,2.322,0.546,3.481c1.366,8.198,3.844,16.392,3.873,24.594
	c0.062,16.724-6.928,30.576-21.742,38.989c-19.187,10.896-42.063-0.729-46.895-23.717c-3.564-16.957-1.089-33.734,3.616-50.228
	C281.583,271.302,281.884,270.56,282.179,269.816z M186.996,315.282c-0.777,7.858-3.12,15.15-8.289,21.314
	c-9.599,11.448-23.396,11.718-33.324,0.513c-8.926-10.074-11.871-22.363-12.263-35.382c-0.327-10.841,0.983-21.455,6.605-31.716
	c-9.325,3.346-15.855,14.239-15.563,25.132c0.034,1.3-0.238,2.607-0.369,3.912c-1.243-0.705-2.812-1.136-3.673-2.161
	c-4.986-5.93-7.785-12.621-5.047-20.373c4.621-13.081,11.986-23.849,26.572-26.955c13.303-2.833,25.035,1.074,34.752,10.383
	c2.208,2.114,3.718,5.458,4.471,8.503C184.668,283.814,188.583,299.209,186.996,315.282z"/>
<path fill="#FFFFFF" d="M264.11,583.862c-2.261,6.133-4.361,12.281-10.108,16.23c-12.25,8.415-14.955,21.302-15.758,34.802
	c-0.441,7.415,3.738,11.562,11.125,12.459c17.138,2.08,29.718-6.918,34.296-24.151c1.263-4.755,2.968-9.521,5.293-13.841
	c5.792-10.763,12.434-21.074,18.053-31.92c11.923-23.018,17.883-48.15,24.786-72.905c1.83-6.563,2.432-13.468,3.598-20.216
	c-0.241-0.039-0.482-0.079-0.723-0.119c0-1.75,0.094-3.505-0.016-5.248c-0.516-8.145-5.002-12.398-12.353-11.639
	c-4.659,0.481-7.852,3.364-9.869,7.261c-9.451,18.254-19.522,36.246-27.845,55.009C276.763,547.233,270.802,565.713,264.11,583.862z
	"/>
<path d="M534.819,258.786c-11.455-12.116-15.024-27.796-17.443-43.503c-3.247-21.081-7.997-41.704-15.327-61.714
	c-20.794-56.76-56.85-100.594-111.484-127.328C326.07-5.315,258.971-8.241,192.124,16.548
	C117.036,44.395,71.372,99.764,52.637,177.389c-3.542,14.671-5.513,29.73-9.25,44.344c-4.021,15.726-11.916,29.134-27.359,36.634
	c-1.095,0.532-1.946,1.567-2.91,2.369c1.103,0.909,2.083,2.099,3.343,2.651c1.325,0.581,2.91,0.652,4.395,0.77
	c9.589,0.764,18.66-1.348,27.301-5.322c2.81-1.293,3.748-0.801,3.834,2.26c0.282,9.965,0.22,19.971,1.148,29.881
	c1.995,21.289,5.65,42.233,13.412,62.367c10.217,26.508,25.905,48.632,49.671,64.606c2.465,1.656,5.234,2.959,8.028,3.969
	c0.939,0.339,2.418-0.688,3.565-1.261c0.111-0.056-0.158-1.672-0.629-1.972c-6.891-4.401-8.56-11.643-10.251-18.821
	c-0.338-1.431,0.117-3.049,0.208-4.581c1.209,0.935,2.7,1.659,3.579,2.841c3.58,4.81,6.803,9.891,10.475,14.626
	c5.576,7.191,12.277,13.17,20.605,17.037c0.992,0.461,2.624-0.247,3.844-0.713c0.186-0.071,0.095-2.188-0.464-2.676
	c-5.438-4.757-7.096-11.302-8.677-17.879c-0.238-0.991,0.063-2.112,0.116-3.173c1.042,0.332,2.115,0.588,3.118,1.01
	c5.63,2.369,11.286,4.687,16.847,7.211c2.961,1.345,5.946,2.797,8.577,4.679c6.284,4.495,12.267,9.412,18.572,13.876
	c2.695,1.909,4.783,1.12,4.871-2.629c0.023-0.999,0.092-1.999,0.2-2.993c0.509-4.689,2.015-5.705,6.702-4.92
	c8.806,1.475,16.867,4.475,23.557,10.655c0.867,0.801,2.851,1.626,3.45,1.205c1.006-0.707,1.406-2.374,1.878-3.701
	c0.239-0.672-0.186-1.639,0.144-2.207c1.162-2,2.367-5.318,3.84-5.477c2.2-0.236,5.385,1.181,6.84,2.963
	c3.905,4.782,1.084,13.31-5.755,16.03c-13.371,5.32-24.452,13.376-33.321,24.668c-0.906,1.152-2.906,1.92-4.445,2.004
	c-3.346,0.184-6.721-0.252-10.087-0.327c-32.488-0.72-64.977-1.423-97.465-2.12c-23.244-0.499-46.49-0.929-69.732-1.495
	c-8.292-0.202-16.278,3.78-19.006,10.84c-1.907,4.936-3.542,10.332-3.643,15.554c-0.813,42.127-1.255,84.261-1.759,126.393
	c-0.107,8.941,5.211,15.946,13.88,18.088c3.612,0.893,7.383,1.348,11.107,1.549c34.828,1.877,69.662,3.646,104.494,5.471
	c7.102,0.372,6.915,0.368,5.031,7.33c-4.112,15.192-8.018,30.439-12.007,45.664c-2.236,8.537,0.611,15.439,8.066,19.483
	c7.728,4.191,15.885,7.965,24.292,10.427c7.831,2.293,16.271,2.43,24.381,3.869c7.171,1.272,13.87,3.537,16.909,11.281
	c0.307,0.781,1.894,1.502,2.889,1.507c17.88,0.09,35.76,0.065,53.641,0.065c4.108-3.824,8.09-0.637,12.348-0.398
	c17.076,0.958,34.237,0.422,51.367,0.334c1.005-0.005,2.666-0.721,2.906-1.465c2.282-7.081,8.265-8.506,14.392-9.645
	c8.723-1.62,17.508-2.916,26.207-4.65c16.542-3.297,31.799-9.475,44.886-20.461c4.698-3.944,7.318-8.62,5.907-14.774
	c-2.564-11.184-4.521-22.604-8.232-33.41c-10.345-30.121-21.965-59.808-32.129-89.985c-11.159-33.133-21.289-66.613-31.79-99.967
	c-2.043-6.489-4.987-12.482-10.625-16.36c-5.817-4.001-12.157-7.242-18.279-10.797c-3.87-2.246-8.12-4.012-11.554-6.79
	c-5.114-4.138-5.626-11.001-1.285-14.772c1.741-1.512,4.616-1.72,6.975-2.521c0.567,2.149,1.228,4.281,1.652,6.458
	c0.156,0.802-0.498,1.765-0.338,2.564c0.246,1.216,0.629,2.604,1.45,3.422c0.431,0.43,2.105,0.1,2.896-0.398
	c7.762-4.885,16.282-7.562,25.267-8.965c5.56-0.869,7.194,0.804,6.367,6.539c-0.698,4.847,1.553,6.976,5.919,4.834
	c7.032-3.449,13.815-7.433,20.553-11.444c3.53-2.103,6.707-4.791,10.101-7.13c1.797-1.237,3.206-0.608,2.556,1.524
	c-1.646,5.406-3.719,10.683-5.572,16.028c-0.534,1.541-0.902,3.14-1.347,4.712c1.663-0.107,3.877,0.438,4.902-0.426
	c8.176-6.893,16.202-13.971,24.119-21.164c4.354-3.955,8.405-8.244,12.594-12.383c0.678,0.59,1.357,1.18,2.036,1.769
	c-3.07,4.109-6.16,8.205-9.192,12.343c-0.534,0.729-1.363,2.128-1.142,2.368c0.792,0.852,1.954,1.787,3.022,1.844
	c1.268,0.067,2.662-0.582,3.864-1.192c13.452-6.834,25.063-16.103,34.519-27.777c6.271-7.741,11.615-16.23,17.424-24.35
	c0.692-0.966,1.701-1.705,2.563-2.55c0.451,1.108,1.144,2.182,1.314,3.331c1.089,7.293,2.093,14.599,3.041,21.911
	c0.141,1.082-0.313,2.233-0.224,3.331c0.132,1.627,0.504,3.233,0.774,4.849c1.573-0.914,3.2-1.75,4.691-2.781
	c0.565-0.392,0.806-1.244,1.215-1.872c12.011-18.393,17.962-39.253,23.778-60.043c5.936-21.213,9.423-42.917,9.404-65.056
	c-0.003-2.696,1.106-1.942,2.742-1.255c6.077,2.55,12.062,5.61,18.403,7.141c4.52,1.091,9.561,0.103,14.361-0.126
	c0.64-0.031,1.233-1.055,1.849-1.618c-0.602-0.534-1.171-1.113-1.813-1.596C543.267,265.269,538.432,262.606,534.819,258.786z
	 M65.089,166.44c1.622-22.967,20.341-65.172,56.623-98.986c31.789-29.627,74.131-49.424,103.15-50.765
	C151.958,46.09,95.759,93.106,65.089,166.44z M238.225,458.755c10.362,3.644,20.662,2.213,30.925-0.411
	c4.28-1.094,8.502-2.412,13.198-3.756c-2.859,7.11-15.212,15.872-21.824,15.755c-7.229-0.128-14.458-0.431-21.678-0.82
	c-3.459-0.187-6.404-1.413-6.941-5.447C231.253,459.175,233.662,457.15,238.225,458.755z M228.218,637.674
	c-14.238-0.486-28.465-1.232-42.698-1.882c-30.839-1.408-61.68-2.796-92.52-4.199c-23.721-1.078-47.446-2.099-71.162-3.284
	c-9.735-0.486-14.409-5.77-14.311-15.925c0.359-37.126,0.772-74.253,1.19-111.379c0.057-4.997,0.116-10.001,0.421-14.987
	c0.583-9.519,6.006-14.579,15.528-14.37c48.991,1.073,97.98,2.186,146.969,3.343c28.868,0.682,57.733,1.469,86.599,2.213
	c9.197,0.238,14.49,5.563,14.166,14.693c-0.634,17.847-1.347,35.693-2.326,53.523c-0.186,3.389-1.749,6.701-2.676,10.049
	c-0.239-0.03-0.478-0.06-0.717-0.09c0-13.959-0.041-27.919,0.018-41.877c0.029-6.625,0.27-13.247,0.373-19.871
	c0.107-6.867-3.863-11.113-10.691-11.295c-31.235-0.827-62.47-1.659-93.707-2.404c-45.735-1.091-91.473-2.107-137.209-3.162
	c-7.031-0.162-11.19,3.51-11.35,10.819c-0.391,17.87-0.526,35.747-0.741,53.623c-0.279,23.241-0.511,46.482-0.816,69.724
	c-0.109,8.262,2.953,11.858,11.133,12.214c33.463,1.452,66.937,2.683,100.396,4.238c32.085,1.492,64.155,3.29,96.232,4.942
	c2.745,0.142,5.532-0.03,8.222,0.414c1.149,0.189,2.099,1.589,3.14,2.439C230.525,636.054,229.343,637.712,228.218,637.674z
	 M210.914,553.866h-0.111c0,3.868,0.202,7.75-0.042,11.604c-0.486,7.696-6.237,13.486-13.294,13.687
	c-7.802,0.222-14.461-5.292-14.985-13.206c-0.533-8.077-0.521-16.211-0.24-24.303c0.054-1.534,2.482-2.985,3.815-4.475
	c1.097,1.567,3.005,3.07,3.138,4.716c0.412,5.084,0.146,10.223,0.145,15.34c-0.001,1.248-0.067,2.5,0.01,3.742
	c0.323,5.145,3.433,9.144,7.113,9.215c4.068,0.078,7.143-3.684,7.265-9.223c0.132-5.987-0.219-12.002,0.236-17.959
	c0.139-1.82,2.08-4.777,3.485-4.958c2.854-0.367,3.566,2.298,3.492,4.962C210.838,546.624,210.914,550.246,210.914,553.866z
	 M148.92,567.895c0.156,1.981,0.312,4.11-0.254,5.951c-0.447,1.455-1.991,2.571-3.049,3.838c-1.249-1.269-3.291-2.383-3.576-3.841
	c-0.564-2.886-0.155-5.961-0.152-8.958s0-5.994,0-8.992h0.083c0-5.866-0.125-11.738,0.125-17.594
	c0.041-0.965,1.726-2.659,2.648-2.657c6.613,0.018,13.242,0.177,19.833,0.703c6.436,0.514,11.012,6.206,11.487,13.636
	c0.407,6.346-3.471,12.146-9.665,13.32c-4.496,0.853-9.177,0.894-13.78,0.961C149.938,564.302,148.696,565.044,148.92,567.895z
	 M121.876,552.998c0.051,6.491,0.173,13.003-0.318,19.462c-0.136,1.786-2.347,3.414-3.605,5.114
	c-1.218-1.765-3.236-3.423-3.489-5.316c-0.539-4.048-0.165-8.219-0.165-12.339h0.116c0-3.621-0.158-7.25,0.043-10.86
	c0.212-3.819-1.086-5.718-5.155-5.138c-1.093,0.155-2.607,0.385-3.282-0.185c-1.372-1.159-3.195-2.859-3.162-4.297
	c0.033-1.421,2.098-3.964,3.324-3.996c8.227-0.214,16.48-0.08,24.691,0.462c1.275,0.083,3.208,2.784,3.296,4.36
	c0.074,1.313-2.089,2.775-3.326,4.113c-0.185,0.2-0.72,0.082-1.093,0.102C121.745,544.897,121.813,544.896,121.876,552.998z
	 M93.891,563.148c-0.559,7.812-5.897,13.372-12.847,13.721c-6.797,0.342-13.947-4.763-14.644-11.966
	c-0.849-8.78-0.457-17.697-0.216-26.545c0.032-1.165,2.346-2.269,3.603-3.4c1.054,1.327,2.935,2.604,3.02,3.99
	c0.352,5.728,0.086,11.489,0.208,17.235c0.044,2.094,0.197,4.301,0.899,6.239c1.114,3.075,3.179,5.731,6.875,5.225
	c3.724-0.509,5.533-3.409,5.728-6.916c0.311-5.608,0.224-11.239,0.305-16.859c0.018-1.25-0.371-2.706,0.14-3.702
	c0.85-1.656,2.275-3.019,3.458-4.504c1.284,1.542,3.427,2.956,3.676,4.65c0.559,3.792,0.175,7.722,0.175,11.596h-0.334
	C93.937,555.659,94.158,559.42,93.891,563.148z M60.435,554.54c-1.639,4.493-2.667,9.345-5.043,13.406
	c-5.142,8.791-16.043,9.35-22.763,1.632c-6.664-7.653-7.396-21.15-1.417-29.347c3.447-4.726,8.095-7.625,14.134-6.686
	c6.924,1.076,10.766,5.971,12.95,12.163c0.936,2.654,1.02,5.608,1.491,8.426C60.004,554.269,60.22,554.405,60.435,554.54z
	 M234.743,575.007c-0.147,1.87-2.226,3.59-3.419,5.379c-1.283-1.827-3.382-3.531-3.677-5.506c-0.585-3.909-0.173-7.968-0.173-11.964
	h0.1c0-3.622-0.173-7.255,0.047-10.863c0.241-3.95-0.998-5.981-5.298-5.354c-1.195,0.174-2.931,0.293-3.601-0.378
	c-1.246-1.248-2.633-3.135-2.552-4.681c0.067-1.27,2.156-3.447,3.388-3.474c8.108-0.176,16.241-0.091,24.326,0.479
	c1.339,0.095,3.354,2.943,3.43,4.593c0.057,1.235-2.38,3.532-3.918,3.735c-8.351,1.094-8.353,0.92-8.363,9.688
	C235.024,562.781,235.221,568.922,234.743,575.007z M312.435,474.575c2.017-3.896,5.21-6.779,9.869-7.261
	c7.351-0.76,11.837,3.494,12.353,11.639c0.109,1.743,0.016,3.498,0.016,5.248c0.24,0.04,0.481,0.08,0.723,0.119
	c-1.166,6.748-1.768,13.653-3.598,20.216c-6.903,24.755-12.863,49.888-24.786,72.905c-5.619,10.846-12.261,21.157-18.053,31.92
	c-2.325,4.319-4.03,9.086-5.293,13.841c-4.578,17.233-17.158,26.231-34.296,24.151c-7.387-0.897-11.566-5.044-11.125-12.459
	c0.803-13.5,3.508-26.387,15.758-34.802c5.747-3.949,7.847-10.098,10.108-16.23c6.692-18.148,12.652-36.629,20.48-54.278
	C292.913,510.821,302.984,492.829,312.435,474.575z M277.747,322.3c4.832,22.989,27.708,34.613,46.895,23.717
	c14.814-8.413,21.803-22.265,21.742-38.989c-0.029-8.202-2.507-16.396-3.873-24.594c-0.193-1.159-0.364-2.321-0.546-3.481
	c1.136,0.433,2.298,0.809,3.401,1.31c8.997,4.084,13.064,12.421,17.014,20.579c1.239,2.563,0.362,6.132,0.529,9.237
	c0.732,13.617-0.538,27.083-5.225,39.866c-3.14,8.566-7.768,16.589-11.72,24.858c-0.28,0.589-0.473,1.218-0.706,1.828
	c0.705-0.035,1.551,0.172,2.091-0.144c3.876-2.263,7.68-4.646,11.531-6.949c0.564-0.337,1.262-0.453,1.897-0.672
	c-0.005,0.711,0.139,1.462-0.042,2.124c-0.728,2.646-1.72,5.229-2.313,7.9c-1.567,7.052-5.554,11.767-12.06,15.17
	c-16.053,8.398-33.388,12.508-50.88,16.165c-22.497,4.703-45.286,6.401-68.209,5.135c-31.085-1.716-61.397-7.17-88.828-22.835
	c-13.933-7.957-25.086-18.859-27.565-35.864c-1.798-12.337-0.982-24.423,4.813-35.828c0.661-1.302,0.903-3.201,0.516-4.594
	c-8.96-32.186-2.163-62.617,10.303-92.373c0.655-1.563,3.057-3.408,4.641-3.403c9.195,0.023,18.387,0.625,27.585,0.871
	c1.752,0.046,3.524-0.631,5.288-0.974c-1.046-1.64-1.706-3.949-3.2-4.808c-8.627-4.963-17.746-4.051-26.885-1.535
	c-1.079,0.297-2.133,0.678-3.203,1.004c-0.083,0.025-0.209-0.083-1.389-0.604c7.804-15.377,15.578-30.696,23.352-46.013
	c0.559,0.188,1.118,0.376,1.677,0.564c1.088,6.438,2.017,12.908,3.293,19.309c4.984,24.995,15.884,46.664,37.102,61.706
	c6.281,4.453,14.067,6.808,21.235,9.96c0.917,0.404,2.269-0.178,3.42-0.304c-0.612-0.854-1.198-1.728-1.84-2.559
	c-3.073-3.977-6.162-7.943-8.371-12.639c3.766,3.135,7.469,6.347,11.309,9.388c7.056,5.588,14.896,9.629,23.793,11.347
	c1.205,0.233,2.556-0.287,3.839-0.458c-0.541-1.134-0.821-2.534-1.665-3.359c-5.839-5.721-9.104-12.608-10.177-20.605
	c7.395,4.103,14.125,8.481,21.384,11.649c2.17,0.947,4.454,1.603,6.753,2.155c2.351,0.564,4.726,1.022,7.083,1.563
	c0.66,0.151,1.318,0.311,1.973,0.481c0.821,0.214,1.622,0.497,2.445,0.702c1.716,0.425,3.512,0.701,5.279,0.776
	c0.782,0.033,1.55-0.156,2.315-0.293c-0.205-0.353-0.405-0.777-0.602-1.302c-6.435-17.15-7.251-35.124-7.899-53.091
	c-0.401-11.109-0.164-22.241-0.18-33.363c-0.002-1.343,0.205-2.687,0.272-3.524c8.144,15.351,16.415,30.942,24.583,46.341
	c-2.863,0.193-6.934,0.16-10.881,0.843c-2.614,0.452-5.198,1.684-7.497,3.063c-1,0.6-1.249,2.448-1.839,3.729
	c1.302,0.514,2.608,1.476,3.906,1.465c6.739-0.057,13.481-0.596,20.21-0.441c2.015,0.047,4.586,1.286,5.888,2.832
	c12.53,14.875,26.273,28.481,44.551,35.798c7.733,3.096,10.218,7.159,8.542,15.015c-4.634-3.642-9.003-7.542-13.821-10.774
	c-16.307-10.938-33.861-16.511-53.533-10.932c-2.704,0.767-4.928,2.604-7.163,4.222c-0.759,0.55-1.542,0.969-2.156,1.698
	c-0.711,0.844-1.014,1.916-1.42,2.92c-0.009,0.022-0.018,0.043-0.026,0.065c-0.993,2.418-1.343,5.038-2.307,7.465
	c-0.295,0.743-0.596,1.486-0.816,2.256C276.658,288.566,274.183,305.344,277.747,322.3z M449.711,356.465
	c-10.182,10.32-22.625,15.775-36.886,17.287c-1.582,0.168-3.267-0.634-4.903-0.986c0.426-1.373,0.719-2.806,1.3-4.111
	c4.472-10.033,9.003-20.04,13.511-30.059c2.816-6.26,6.4-11.939,12.577-15.4c4.635-2.597,7.705-1.667,10.627,3.667
	c1.403-5.374,0.521-9.701-2.514-12.932c-2.916-3.103-6.902-5.174-10.19-7.967c-1.131-0.96-2.327-2.802-2.197-4.113
	c0.403-4.082,1.501-8.091,2.188-12.152c0.566-3.345,2.447-4.146,5.607-3.682c12.582,1.848,23.301,12.87,26.401,27.021
	C469.126,330.803,461.632,344.379,449.711,356.465z"/>
<path fill="#FFFFFF" d="M228.541,632.745c-2.69-0.444-5.477-0.272-8.222-0.414c-32.077-1.652-64.147-3.45-96.232-4.942
	c-33.458-1.556-66.932-2.786-100.396-4.238c-8.18-0.355-11.242-3.952-11.133-12.214c0.305-23.241,0.537-46.482,0.816-69.724
	c0.215-17.876,0.35-35.753,0.741-53.623c0.16-7.31,4.319-10.981,11.35-10.819c45.736,1.055,91.474,2.071,137.209,3.162
	c31.237,0.745,62.472,1.577,93.707,2.404c6.829,0.182,10.799,4.428,10.691,11.295c-0.104,6.624-0.344,13.246-0.373,19.871
	c-0.059,13.958-0.018,27.918-0.018,41.877c0.239,0.03,0.478,0.06,0.717,0.09c0.927-3.348,2.49-6.66,2.676-10.049
	c0.979-17.83,1.691-35.677,2.326-53.523c0.325-9.131-4.968-14.455-14.166-14.693c-28.866-0.744-57.731-1.531-86.599-2.213
	c-48.988-1.157-97.978-2.27-146.969-3.343c-9.522-0.209-14.945,4.852-15.528,14.37c-0.305,4.986-0.364,9.99-0.421,14.987
	c-0.418,37.126-0.832,74.253-1.19,111.379c-0.098,10.155,4.576,15.438,14.311,15.925c23.716,1.186,47.44,2.206,71.162,3.284
	c30.84,1.403,61.681,2.791,92.52,4.199c14.232,0.649,28.46,1.396,42.698,1.882c1.125,0.038,2.307-1.62,3.462-2.49
	C230.64,634.333,229.69,632.934,228.541,632.745z"/>
<path fill="#FFFFFF" d="M438.831,286.016c-3.16-0.464-5.041,0.337-5.607,3.682c-0.688,4.062-1.785,8.07-2.188,12.152
	c-0.13,1.312,1.066,3.153,2.197,4.113c3.288,2.792,7.274,4.864,10.19,7.967c3.034,3.231,3.917,7.558,2.514,12.932
	c-2.922-5.334-5.992-6.264-10.627-3.667c-6.177,3.461-9.761,9.14-12.577,15.4c-4.508,10.019-9.039,20.025-13.511,30.059
	c-0.581,1.306-0.874,2.738-1.3,4.111c1.637,0.353,3.321,1.154,4.903,0.986c14.261-1.512,26.704-6.967,36.886-17.287
	c11.921-12.085,19.415-25.662,15.521-43.428C462.132,298.886,451.413,287.864,438.831,286.016z"/>
<path fill="#FFFFFF" d="M224.863,16.689c-29.019,1.341-71.361,21.138-103.15,50.765c-36.282,33.813-55.001,76.019-56.623,98.986
	C95.759,93.106,151.958,46.09,224.863,16.689z"/>
<path fill="#FFFFFF" d="M152.622,564.262c4.604-0.067,9.284-0.108,13.78-0.961c6.194-1.174,10.071-6.975,9.665-13.32
	c-0.476-7.43-5.051-13.122-11.487-13.636c-6.592-0.526-13.221-0.686-19.833-0.703c-0.922-0.002-2.607,1.692-2.648,2.657
	c-0.25,5.855-0.125,11.728-0.125,17.594h-0.083c0,2.998,0.002,5.995,0,8.992s-0.412,6.072,0.152,8.958
	c0.285,1.458,2.328,2.572,3.576,3.841c1.058-1.267,2.602-2.383,3.049-3.838c0.566-1.841,0.411-3.97,0.254-5.951
	C148.696,565.044,149.938,564.302,152.622,564.262z M149.367,546.358c0.228-0.805,1.667-1.728,2.598-1.791
	c3.095-0.208,6.22-0.15,9.325-0.004c3.757,0.176,6.397,2.415,6.485,5.958c0.091,3.652-2.984,5.161-6.39,5.464
	c-1.603,0.143-3.229,0.024-3.737,0.024c-1.233-0.071-1.357-0.079-1.481-0.085C149.247,555.598,147.44,553.161,149.367,546.358z"/>
<path fill="#FFFFFF" d="M45.347,533.545c-6.04-0.939-10.687,1.96-14.134,6.686c-5.979,8.196-5.247,21.693,1.417,29.347
	c6.719,7.718,17.621,7.159,22.763-1.632c2.376-4.062,3.404-8.913,5.043-13.406c-0.215-0.135-0.431-0.271-0.647-0.405
	c-0.471-2.817-0.555-5.771-1.491-8.426C56.113,539.516,52.271,534.622,45.347,533.545z M43.493,565.764
	c-4.263,0.036-8.015-5.099-8.248-11.285c-0.005-0.125-0.007-0.249-0.009-0.374c-0.094-6.681,3.599-11.91,8.34-11.81
	c4.574,0.097,8.33,5.719,8.106,12.134C51.467,560.618,47.776,565.727,43.493,565.764z"/>
<path fill="#FFFFFF" d="M94.096,540.316c-0.25-1.694-2.393-3.108-3.676-4.65c-1.183,1.485-2.608,2.848-3.458,4.504
	c-0.511,0.996-0.123,2.452-0.14,3.702c-0.081,5.62,0.006,11.251-0.305,16.859c-0.195,3.507-2.004,6.407-5.728,6.916
	c-3.696,0.507-5.761-2.149-6.875-5.225c-0.702-1.938-0.855-4.146-0.899-6.239c-0.122-5.746,0.145-11.508-0.208-17.235
	c-0.085-1.387-1.965-2.663-3.02-3.99c-1.257,1.132-3.571,2.235-3.603,3.4c-0.241,8.848-0.633,17.765,0.216,26.545
	c0.697,7.203,7.847,12.308,14.644,11.966c6.95-0.349,12.288-5.909,12.847-13.721c0.267-3.728,0.046-7.489,0.046-11.236h0.334
	C94.271,548.038,94.655,544.108,94.096,540.316z"/>
<path fill="#FFFFFF" d="M207.448,538.045c-1.405,0.181-3.346,3.138-3.485,4.958c-0.455,5.957-0.104,11.972-0.236,17.959
	c-0.123,5.539-3.197,9.301-7.265,9.223c-3.68-0.071-6.79-4.07-7.113-9.215c-0.078-1.242-0.011-2.494-0.01-3.742
	c0.002-5.117,0.267-10.256-0.145-15.34c-0.133-1.646-2.042-3.148-3.138-4.716c-1.333,1.489-3.762,2.94-3.815,4.475
	c-0.281,8.092-0.293,16.226,0.24,24.303c0.523,7.914,7.183,13.428,14.985,13.206c7.057-0.2,12.808-5.99,13.294-13.687
	c0.244-3.854,0.042-7.735,0.042-11.604h0.111c0-3.62-0.076-7.242,0.026-10.858C211.014,540.343,210.302,537.678,207.448,538.045z"/>
<path fill="#FFFFFF" d="M243.395,546.973c1.539-0.203,3.975-2.5,3.918-3.735c-0.076-1.649-2.09-4.498-3.43-4.593
	c-8.085-0.569-16.218-0.654-24.326-0.479c-1.231,0.026-3.321,2.204-3.388,3.474c-0.081,1.546,1.307,3.433,2.552,4.681
	c0.669,0.671,2.405,0.552,3.601,0.378c4.3-0.627,5.539,1.404,5.298,5.354c-0.22,3.608-0.047,7.241-0.047,10.863h-0.1
	c0,3.996-0.412,8.055,0.173,11.964c0.295,1.975,2.394,3.679,3.677,5.506c1.193-1.789,3.271-3.509,3.419-5.379
	c0.478-6.085,0.281-12.227,0.289-18.346C235.042,547.893,235.044,548.067,243.395,546.973z"/>
<path fill="#FFFFFF" d="M129.752,544.48c0.373-0.02,0.908,0.099,1.093-0.102c1.236-1.338,3.4-2.8,3.326-4.113
	c-0.088-1.576-2.021-4.277-3.296-4.36c-8.211-0.542-16.464-0.676-24.691-0.462c-1.226,0.032-3.291,2.575-3.324,3.996
	c-0.034,1.438,1.79,3.138,3.162,4.297c0.675,0.569,2.188,0.34,3.282,0.185c4.068-0.58,5.367,1.318,5.155,5.138
	c-0.201,3.61-0.043,7.239-0.043,10.86H114.3c0,4.12-0.375,8.291,0.165,12.339c0.253,1.894,2.271,3.552,3.489,5.316
	c1.259-1.7,3.47-3.328,3.605-5.114c0.491-6.459,0.369-12.971,0.318-19.462C121.813,544.896,121.745,544.897,129.752,544.48z"/>
<path fill="#FFFFFF" d="M238.847,469.523c7.22,0.39,14.449,0.692,21.678,0.82c6.612,0.117,18.964-8.645,21.824-15.755
	c-4.696,1.344-8.918,2.662-13.198,3.756c-10.263,2.624-20.563,4.055-30.925,0.411c-4.563-1.605-6.972,0.42-6.319,5.32
	C232.443,468.11,235.388,469.336,238.847,469.523z"/>
<path d="M176.397,259.95c-9.717-9.309-21.449-13.217-34.752-10.383c-14.586,3.106-21.951,13.874-26.572,26.955
	c-2.738,7.751,0.061,14.443,5.047,20.373c0.862,1.025,2.431,1.456,3.673,2.161c0.13-1.304,0.403-2.612,0.369-3.912
	c-0.292-10.893,6.237-21.786,15.563-25.132c-5.622,10.262-6.932,20.875-6.605,31.716c0.393,13.019,3.337,25.308,12.263,35.382
	c9.928,11.205,23.726,10.935,33.324-0.513c5.168-6.164,7.512-13.456,8.289-21.314c1.587-16.073-2.327-31.468-6.127-46.83
	C180.115,265.408,178.605,262.063,176.397,259.95z"/>
<path d="M156.167,555.924c0.124,0.006,0.249,0.014,1.481,0.085c0.507,0,2.134,0.118,3.737-0.024c3.405-0.303,6.48-1.812,6.39-5.464
	c-0.088-3.543-2.728-5.782-6.485-5.958c-3.104-0.146-6.229-0.204-9.325,0.004c-0.931,0.063-2.37,0.986-2.598,1.791
	C147.44,553.161,149.247,555.598,156.167,555.924z"/>
<path d="M43.576,542.295c-4.741-0.101-8.434,5.129-8.34,11.81c0.002,0.125,0.004,0.249,0.009,0.374
	c0.232,6.187,3.985,11.321,8.248,11.285c4.283-0.037,7.974-5.146,8.189-11.335C51.906,548.014,48.15,542.392,43.576,542.295z"/>
<line fill="none" stroke="#000000" stroke-width="3" stroke-linecap="round" stroke-linejoin="round" x1="224.904" y1="385.665" x2="232.029" y2="385.665"/>
</svg>
