<?xml version="1.0" encoding="utf-8"?>
<!-- Generator: Adobe Illustrator 16.0.3, SVG Export Plug-In . SVG Version: 6.00 Build 0)  -->
<!DOCTYPE svg PUBLIC "-//W3C//DTD SVG 1.1//EN" "http://www.w3.org/Graphics/SVG/1.1/DTD/svg11.dtd">
<svg version="1.1" id="レイヤー_1" xmlns="http://www.w3.org/2000/svg" xmlns:xlink="http://www.w3.org/1999/xlink" x="0px"
	 y="0px" width="395.974px" height="625.439px" viewBox="0 0 395.974 625.439" enable-background="new 0 0 395.974 625.439"
	 xml:space="preserve">
<path fill-rule="evenodd" clip-rule="evenodd" d="M158.083,603.935c-10.072-24.482-16.084-49.693-17.064-76.319
	c-5.411-1.565-10.81-2.663-15.836-4.685c-8.31-3.344-16.417-7.203-24.523-11.029c-1.875-0.886-3.43-2.479-5.081-3.81
	c-2.424-1.955-3.381-4.255-2.698-7.557c3.201-15.462,9.837-29.543,17.083-43.386c2.08-3.975,4.487-7.778,6.741-11.655
	c-5.168-6.435-5-11.911,2.111-16.642c0.56-2.38,1.125-4.781,1.741-7.399c-3.5-2.732-7.229-5.424-10.707-8.407
	c-9.366-8.033-17.076-17.492-23.786-27.831c-2.828-4.359-3.405-8.591-0.263-12.83c4.896-6.61,9.592-13.431,15.073-19.533
	c11.705-13.027,24.183-25.301,39.038-34.821c2.703-1.731,5.786-2.869,8.93-4.396c-6.442-2.903-12.733-5.738-19.606-8.835
	c1.838,3.972,3.576,7.729,5.57,12.038c-13.417-0.311-24.847-5.126-35.229-12.959c-0.25,0.17-0.5,0.341-0.75,0.511
	c1.763,3.682,3.525,7.363,5.375,11.227c-9.709-2.433-17.251-8.528-22.713-13.886c-15.29-3.289-25.431-10.283-32.228-22.415
	c-0.731,5.082,3.128,14.509,8.08,20.117c-5.863-0.267-15.463-6.002-20.588-12.534c-8.02-10.221-11.963-22.071-13.452-34.821
	c-0.793-6.796-1.396-13.615-2.068-20.265c-6.92,1.054-13.854,2.11-20.788,3.166c-0.149-0.374-0.298-0.748-0.447-1.122
	c1.403-1.597,2.773-3.225,4.216-4.785c6.022-6.515,9.224-14.527,11.263-22.893c0.846-3.471-0.309-7.412-0.438-11.144
	c-0.365-10.565-0.994-21.134-0.936-31.698c0.132-24.244,4.692-47.689,14.461-69.922c17.156-39.043,46.25-65.773,85.606-81.519
	c24.642-9.86,50.379-13.447,76.745-11.29c41.468,3.392,77.088,19.596,105.581,50.303c21.708,23.395,33.838,51.608,39.945,82.551
	c2.736,13.861,3.689,27.908,2.496,42.115c-0.631,7.506-0.706,15.231,0.341,22.665c1.282,9.103,6.811,16.465,12.593,23.441
	c0.729,0.881,1.408,1.804,2.111,2.708c-0.196,0.439-0.393,0.879-0.589,1.319c-6.381-1.121-12.762-2.242-19.576-3.439
	c0.563,5.825,1.266,11.57,1.648,17.336c1.313,19.761-1.365,38.439-15.281,53.882c-5.035,5.586-10.934,10.008-18.084,13.163
	c0.792-5.554,1.522-10.67,2.252-15.786c-0.305-0.169-0.609-0.339-0.914-0.508c-6.446,8.454-13.591,16.07-23.988,20.654
	c2.767-6.737,4.408-13.224,2.535-21.224c-8.603,12.869-20.106,19.897-34.684,23.267c0.291-3.516,0.558-6.728,0.873-10.536
	c-5.289,3.558-9.949,6.692-15.162,10.199c17.108,9.554,33.931,18.948,50.214,28.042c13.109-6.095,25.871-12.01,38.604-17.987
	c0.856-0.402,1.634-1.174,2.2-1.952c3.303-4.542,6.696-9.033,9.721-13.758c1.653-2.582,2.975-5.489,3.861-8.427
	c1.929-6.403,6.945-8.644,12.666-5.134c4.869,2.986,7.646,7.403,8.079,13.183c0.063,0.852,0.133,1.704,0.238,3.058
	c3.57-0.43,6.989-1.218,10.397-1.171c6.695,0.093,13.47,0.122,20.049,1.185c5.195,0.839,7.869,4.772,6.63,9.119
	c-0.727,2.545-2.963,5.466-5.299,6.575c-4.66,2.214-9.858,3.296-14.311,4.682c-1.616,5.677-2.957,11.577-4.989,17.23
	c-2.82,7.85-8.87,11.551-17.117,11.362c-5.587-0.127-11.164-0.684-17.133-1.072c-6.886,8.241-14.876,15.904-24.194,22.103
	c-0.831,0.553-1.688,1.072-2.483,1.674c-10.594,8.013-21.869,9.319-34.117,3.99c-4.611-2.007-9.603-3.141-15.563-5.035
	c1.153,4.908,1.288,9.091,3.052,12.408c13.194,24.813,23.473,50.762,30.281,77.99c2.804,11.215,4.123,22.799,6.208,34.199
	c0.654,3.579-0.834,5.99-3.576,7.992c-6.469,4.724-13.806,7.443-21.482,9.362c-5.3,1.325-10.632,2.524-16.168,3.831
	c-4.961,26.616-11.616,52.62-22.574,77.987c7.291,0.378,13.865,0.432,20.374,1.115c14.998,1.572,29.978,3.342,44.929,5.305
	c2.618,0.344,5.061,2.02,7.585,3.081c0.034,0.593,0.067,1.187,0.102,1.779c-1.967,0.945-3.847,2.386-5.915,2.75
	c-8.469,1.484-16.961,2.981-25.508,3.859c-38.502,3.957-77.141,3.695-115.758,2.956c-21.968-0.421-43.924-1.826-65.589-5.922
	c-2.97-0.562-5.806-1.834-8.704-2.777c-0.135-0.459-0.27-0.919-0.405-1.379c1.103-1.024,2.054-2.646,3.335-2.972
	c5.66-1.438,11.364-3.034,17.147-3.601c15.895-1.557,31.837-2.623,47.76-3.896C156.155,604.403,156.738,604.215,158.083,603.935z
	 M362.952,344.67c1.08-1.592,2.6-3.044,3.158-4.801c1.681-5.291,1.192-10.529-1.696-15.477c7.7-2.297,16.192-1.138,22.512-6.955
	c-12.141-2.759-23.979-0.565-35.86,1.5c0.713-13.399-0.56-17.496-4.61-18.178c-6.092,9.367-11.972,18.409-17.945,27.595
	c-8.299,3.838-16.831,7.688-25.278,11.719c-7.341,3.504-15.965,5.097-20.26,14.331c-0.12-2.47-0.186-3.827-0.24-4.939
	c-13.451-7.486-26.674-14.848-39.896-22.208c7.506,13.818,13.037,28.159,16.223,43.342c0.547,0.322,0.94,0.665,1.398,0.81
	c9.877,3.13,19.723,6.371,29.679,9.227c1.796,0.516,4.396-0.008,6.034-1.013c6.798-4.171,13.74-8.249,19.922-13.237
	c6.746-5.444,12.712-11.856,18.81-17.649c4.274,0.587,8.486,1.165,13.049,1.791c-0.757-4.927-1.368-8.916-2.002-13.046
	c-1.844-0.141-3.344-0.254-5.735-0.436c5.252-2.667,6.112-6.931,6.588-10.986c4.96,2.072,9.851-3.229,14.945,0.139
	c-3.755,2.107-8.273,2.812-10.04,7.572c2.591,0.469,4.864,0.879,7.384,1.335c-2.311,1.316-4.121,2.348-5.931,3.379
	c0.069,0.519,0.138,1.038,0.207,1.557c1.813,0.896,3.623,1.8,5.441,2.687c1.399,0.683,2.811,1.345,4.216,2.017
	c-4.137-0.394-8.274-0.785-12.433-1.18c0.341,4.649,1.897,6.462,5.844,6.984C359.347,350.935,361.479,349.012,362.952,344.67z
	 M110.789,207.192c-0.28,0.165-0.561,0.331-0.841,0.496c0,0.983-0.045,1.969,0.011,2.949c0.078,1.371,0.19,2.743,0.362,4.105
	c2.575,20.471,6.279,40.724,11.479,60.705c0.667,2.564,1.777,4.121,4.177,5.214c17.788,8.102,36.489,12.502,55.845,14.898
	c25.914,3.208,51.078,0.162,75.844-7.509c12.034-3.727,23.379-8.899,33.222-16.877c5.918-4.796,10.759-10.448,11.831-18.464
	c0.781-5.835-1.149-10.995-3.269-16.291c-1.486-3.715-2.747-7.919-2.549-11.826c0.417-8.209,1.952-16.356,2.856-24.548
	c0.874-7.924,1.531-15.872,2.138-22.273c-9.865-13.392-18.885-25.637-28.608-38.836c-5.959,0.976-12.639,2.07-19.423,3.181
	c1.817-3.251,5.005-4.592,8.466-4.971c3.379-0.37,6.829-0.081,10.419-0.081c-5.553-10.394-11.206-20.978-16.861-31.561
	c-0.868,0.984-1.107,1.775-1.122,2.57c-0.21,11.708-2.167,23.123-5.906,34.21c-8.527,25.282-25.007,42.234-51.356,48.754
	c-0.9,0.223-1.86,0.203-2.629,0.28c0.702-9.763,1.383-19.228,2.063-28.692c-0.342-0.063-0.684-0.124-1.025-0.186
	c-3.363,3.857-6.726,7.714-10.089,11.571c-0.94-18.801,0.53-37.248-1.581-56.596c-4.277,7.947-8.025,14.91-11.73,21.793
	c2.957,1.207,5.862,2.392,8.768,3.576c-0.091,0.292-0.183,0.584-0.274,0.877c-4.006-0.343-8.014-0.686-11.722-1.003
	c-10.255,12.854-21.732,23.333-36.231,30.022c3.081-10.192,6.117-20.238,9.152-30.284c-0.404-0.195-0.809-0.39-1.213-0.585
	c-9.04,14.068-19.841,26.527-33.198,36.677c0.413,7.012,0.813,13.829,1.215,20.646c1.481-0.621,2.062-1.254,2.515-1.969
	c8.493-13.399,21.103-20.613,36.234-23.839c11.057-2.357,18.808,1.311,25.305,10.323c4.48,6.216,6.733,13.378,6.859,21.052
	c0.118,7.085,0.728,14.308-0.378,21.23c-1.601,10.021-7.53,17.356-18.015,19.132c-10.445,1.769-19.575-1.08-25.996-10.23
	c-6.67-9.507-7.753-20.084-5.958-31.174c0.442-2.727,1.374-5.373,2.08-8.057c-8.066,6.336-10.205,14.945-9.73,25.086
	C117.958,215.88,114.373,211.536,110.789,207.192z M151.982,367.27c4.061-1.076,5.271-3.96,5.453-7.171
	c0.618-10.857-1.572-21.158-7.1-30.582c-1.2-2.046-3.189-3.627-4.58-5.162c-10.044,2.946-49.219,42.397-53.715,53.823
	c8.768,16.765,22.23,29.482,37.358,39.388c-1.902,6.109-3.589,11.523-5.399,17.338c-0.689,0.503-1.77,1.291-3.606,2.63
	c1.445,1.294,2.47,2.957,3.781,3.228c2.749,0.566,5.807,1.057,8.458,0.418c10.8-2.601,17.339-9.913,20.523-20.279
	c0.617-2.006,0.7-4.664-0.098-6.543c-6.983-16.433-15.447-31.862-30.43-42.366c4.134-1.507,8.566-2.373,12.608,1.264
	c6.155-4.648,11.967-9.038,17.928-13.539C152.923,362.378,148.797,364.027,151.982,367.27z M185.809,603.433
	c2.828-22.323,5.604-44.241,8.309-65.601c-13.55,4.378-27.382,8.847-41.915,13.542c2.689,17.957,6.459,35.833,16.512,52.059
	C174.6,603.433,180.275,603.433,185.809,603.433z M209.956,603.027c3.581,0.255,6.425,0.598,9.272,0.633
	c8.358,0.105,8.895-0.306,11.752-7.949c6.734-18.015,12.391-36.349,16.24-55.212c0.225-1.103,0.26-2.244,0.354-3.094
	c-13.309,5.584-26.269,11.022-39.801,16.7C207.234,570.036,206.586,586.401,209.956,603.027z M76.361,44.883
	c-0.184-0.208-0.369-0.416-0.552-0.624c-1.54,1.226-3.145,2.378-4.61,3.688c-23.674,21.148-37.745,47.711-44.597,78.472
	c-3.333,14.965-4.054,30.169-5.166,45.357c-0.199,2.712-0.479,5.419-0.722,8.129c0.315,0.04,0.63,0.079,0.946,0.119
	c1.024-4.077,2.329-8.106,3.027-12.237c4.666-27.618,11.683-54.432,26.292-78.719c1.535-2.552,2.968-5.183,4.713-7.584
	c3.015-4.147,5.496-8.343,6.975-13.456c1.593-5.505,4.683-10.64,7.562-15.685C71.8,49.588,74.287,47.353,76.361,44.883z
	 M212.611,315.454c-14.299,8.261-28.178,3.327-41.394-0.936c6.522,6.96,13.25,14.138,20.565,21.943
	c9.936-1.634,20.762-3.415,31.553-5.19c-0.665-5.879-7.013-17.138-10.725-19.339C212.611,312.968,212.611,313.911,212.611,315.454z
	 M63.045,257.855c-2.432-16.959-4.833-33.702-7.238-50.479c-9.421,4.531-14.473,16.138-12.503,28.503
	C44.943,246.164,54.315,256.554,63.045,257.855z M62.981,220.211c-2.462-52.241,2.947-103.17,26.429-151.09
	c-0.663-0.11-1.325-0.221-1.987-0.331C62.011,116.389,58.561,167.645,62.981,220.211z M201.093,603.737
	c-0.958-10.09-1.873-19.719-2.788-29.348c-0.32-0.024-0.639-0.048-0.958-0.071c-0.95,9.757-1.899,19.514-2.863,29.419
	C197.089,603.737,198.916,603.737,201.093,603.737z"/>
<path fill-rule="evenodd" clip-rule="evenodd" fill="#FFFFFF" d="M110.789,207.192c3.584,4.344,7.169,8.688,11.136,13.495
	c-0.475-10.141,1.664-18.75,9.73-25.086c-0.707,2.684-1.638,5.331-2.08,8.057c-1.796,11.089-0.712,21.667,5.958,31.174
	c6.421,9.151,15.551,11.999,25.996,10.23c10.485-1.776,16.414-9.111,18.015-19.132c1.106-6.922,0.496-14.146,0.378-21.23
	c-0.126-7.674-2.379-14.836-6.859-21.052c-6.497-9.012-14.249-12.68-25.305-10.323c-15.131,3.226-27.742,10.44-36.234,23.839
	c-0.453,0.715-1.034,1.348-2.515,1.969c-0.402-6.817-0.802-13.633-1.215-20.646c13.356-10.15,24.158-22.609,33.198-36.677
	c0.405,0.195,0.809,0.39,1.213,0.585c-3.036,10.046-6.072,20.092-9.152,30.284c14.499-6.689,25.977-17.168,36.231-30.022
	c3.708,0.318,7.716,0.661,11.722,1.003c0.091-0.292,0.183-0.584,0.274-0.877c-2.905-1.185-5.811-2.37-8.768-3.576
	c3.705-6.883,7.453-13.846,11.73-21.793c2.11,19.348,0.641,37.795,1.581,56.596c3.363-3.857,6.726-7.714,10.089-11.571
	c0.342,0.062,0.683,0.124,1.025,0.186c-0.681,9.464-1.362,18.929-2.063,28.692c0.769-0.077,1.729-0.057,2.629-0.28
	c26.35-6.521,42.829-23.473,51.356-48.754c3.739-11.087,5.696-22.501,5.906-34.21c0.015-0.795,0.254-1.585,1.122-2.57
	c5.655,10.583,11.309,21.167,16.861,31.561c-3.59,0-7.04-0.289-10.419,0.081c-3.461,0.379-6.648,1.72-8.466,4.971
	c6.784-1.11,13.464-2.205,19.423-3.181c9.724,13.199,18.743,25.444,28.608,38.836c-0.606,6.401-1.264,14.349-2.138,22.273
	c-0.904,8.192-2.439,16.339-2.856,24.548c-0.198,3.907,1.063,8.111,2.549,11.826c2.119,5.296,4.05,10.456,3.269,16.291
	c-1.072,8.016-5.913,13.668-11.831,18.464c-9.843,7.978-21.188,13.15-33.222,16.877c-24.766,7.671-49.93,10.717-75.844,7.509
	c-19.356-2.396-38.058-6.796-55.845-14.898c-2.4-1.093-3.51-2.65-4.177-5.214c-5.199-19.981-8.904-40.234-11.479-60.705
	c-0.171-1.362-0.284-2.735-0.362-4.105c-0.057-0.98-0.011-1.966-0.011-2.949C110.228,207.523,110.509,207.357,110.789,207.192z
	 M299.947,189.534c-6.302-9.24-13.363-18.288-26.061-20.213c-5.403-0.819-11.013-1.894-16.033,1.427
	c-5.641,3.73-9.793,8.756-12.311,15.098c-3.324,8.382-4.747,17.069-3.875,26.03c0.873,8.973,2.892,17.575,10.325,23.717
	c8.23,6.802,19.411,2.01,22.807-5.113c7.257-15.222,8.111-30.709-1.12-45.74c-0.224-0.363-0.195-0.88-0.435-2.071
	c12.575,5.669,15.917,15.782,15.736,28.632C292.79,203.741,296.187,196.998,299.947,189.534z"/>
<path fill-rule="evenodd" clip-rule="evenodd" fill="#FFFFFF" d="M151.982,367.27c-3.185-3.242,0.941-4.892,1.18-7.555
	c-5.96,4.501-11.773,8.891-17.928,13.539c-4.042-3.637-8.474-2.771-12.608-1.264c14.983,10.504,23.447,25.934,30.43,42.366
	c0.798,1.879,0.715,4.537,0.098,6.543c-3.184,10.366-9.724,17.679-20.523,20.279c-2.651,0.639-5.709,0.148-8.458-0.418
	c-1.311-0.271-2.335-1.934-3.781-3.228c1.837-1.339,2.917-2.127,3.606-2.63c1.811-5.814,3.497-11.229,5.399-17.338
	c-15.128-9.905-28.59-22.623-37.358-39.388c4.496-11.426,43.67-50.877,53.715-53.823c1.391,1.535,3.38,3.116,4.58,5.162
	c5.528,9.424,7.718,19.725,7.1,30.582C157.253,363.31,156.043,366.193,151.982,367.27z"/>
<path fill-rule="evenodd" clip-rule="evenodd" fill="#FFFFFF" d="M363.022,344.743c-1.405-0.672-2.816-1.334-4.216-2.017
	c-1.818-0.887-3.628-1.79-5.441-2.687c-0.069-0.519-0.138-1.038-0.207-1.557c1.81-1.031,3.62-2.063,5.931-3.379
	c-2.52-0.456-4.793-0.866-7.384-1.335c1.767-4.761,6.285-5.465,10.04-7.572c-5.095-3.368-9.985,1.934-14.945-0.139
	c-0.476,4.056-1.336,8.319-6.588,10.986c2.392,0.182,3.892,0.295,5.735,0.436c0.634,4.13,1.245,8.119,2.002,13.046
	c-4.563-0.626-8.774-1.204-13.049-1.791c-6.098,5.793-12.063,12.205-18.81,17.649c-6.182,4.988-13.124,9.066-19.922,13.237
	c-1.639,1.005-4.238,1.528-6.034,1.013c-9.956-2.855-19.802-6.097-29.679-9.227c-0.458-0.145-0.852-0.487-1.398-0.81
	c-3.186-15.183-8.717-29.523-16.223-43.342c13.223,7.36,26.445,14.722,39.896,22.208c0.055,1.112,0.12,2.47,0.24,4.939
	c4.295-9.234,12.919-10.827,20.26-14.331c8.447-4.031,16.979-7.881,25.278-11.719c5.974-9.186,11.854-18.228,17.945-27.595
	c4.051,0.682,5.323,4.779,4.61,18.178c11.881-2.065,23.72-4.259,35.86-1.5c-6.319,5.817-14.812,4.658-22.512,6.955
	c2.889,4.947,3.377,10.186,1.696,15.477c-0.559,1.757-2.078,3.209-3.158,4.801L363.022,344.743z"/>
<path fill-rule="evenodd" clip-rule="evenodd" fill="#FFFFFF" d="M185.809,603.433c-5.534,0-11.209,0-17.094,0
	c-10.053-16.226-13.823-34.102-16.512-52.059c14.532-4.695,28.364-9.164,41.915-13.542
	C191.412,559.191,188.636,581.109,185.809,603.433z"/>
<path fill-rule="evenodd" clip-rule="evenodd" fill="#FFFFFF" d="M209.956,603.027c-3.37-16.626-2.722-32.991-2.183-48.922
	c13.532-5.678,26.492-11.116,39.801-16.7c-0.094,0.85-0.129,1.991-0.354,3.094c-3.85,18.863-9.506,37.197-16.24,55.212
	c-2.857,7.644-3.394,8.055-11.752,7.949C216.381,603.625,213.537,603.282,209.956,603.027z"/>
<path fill-rule="evenodd" clip-rule="evenodd" fill="#FFFFFF" d="M76.361,44.883c-2.074,2.47-4.561,4.705-6.133,7.461
	c-2.879,5.045-5.969,10.18-7.562,15.685c-1.479,5.112-3.96,9.309-6.975,13.456c-1.745,2.401-3.178,5.032-4.713,7.584
	c-14.608,24.287-21.625,51.101-26.292,78.719c-0.698,4.131-2.003,8.16-3.027,12.237c-0.315-0.04-0.631-0.08-0.946-0.119
	c0.242-2.709,0.523-5.417,0.722-8.129c1.112-15.188,1.833-30.393,5.166-45.357c6.852-30.761,20.923-57.324,44.597-78.472
	c1.465-1.309,3.07-2.462,4.61-3.688C75.992,44.467,76.177,44.675,76.361,44.883z"/>
<path fill-rule="evenodd" clip-rule="evenodd" fill="#FFFFFF" d="M212.611,315.454c0-1.543,0-2.486,0-3.521
	c3.712,2.201,10.06,13.46,10.725,19.339c-10.791,1.775-21.617,3.557-31.553,5.19c-7.315-7.806-14.043-14.983-20.565-21.943
	C184.433,318.781,198.313,323.715,212.611,315.454z"/>
<path fill-rule="evenodd" clip-rule="evenodd" fill="#FFFFFF" d="M63.045,257.855c-8.73-1.301-18.103-11.691-19.741-21.976
	c-1.969-12.366,3.082-23.973,12.503-28.503C58.213,224.153,60.613,240.896,63.045,257.855z"/>
<path fill-rule="evenodd" clip-rule="evenodd" fill="#FFFFFF" d="M62.981,220.211c-4.42-52.566-0.97-103.822,24.442-151.42
	c0.662,0.11,1.325,0.221,1.987,0.331C65.928,117.041,60.519,167.971,62.981,220.211z"/>
<path fill-rule="evenodd" clip-rule="evenodd" fill="#FFFFFF" d="M362.952,344.67c-1.473,4.342-3.605,6.265-6.519,5.878
	c-3.946-0.522-5.503-2.335-5.844-6.984c4.158,0.395,8.296,0.786,12.433,1.18L362.952,344.67z"/>
<path fill-rule="evenodd" clip-rule="evenodd" d="M299.947,189.534c-3.761,7.463-7.157,14.207-10.966,21.766
	c0.181-12.85-3.161-22.963-15.736-28.632c0.239,1.191,0.211,1.708,0.435,2.071c9.231,15.031,8.377,30.519,1.12,45.74
	c-3.396,7.123-14.576,11.915-22.807,5.113c-7.434-6.142-9.452-14.744-10.325-23.717c-0.872-8.961,0.551-17.648,3.875-26.03
	c2.518-6.342,6.67-11.368,12.311-15.098c5.021-3.32,10.63-2.246,16.033-1.427C286.584,171.246,293.646,180.294,299.947,189.534z"/>
<line fill="none" stroke="#000000" stroke-width="3" stroke-miterlimit="10" x1="211.517" y1="270.281" x2="217.851" y2="270.281"/>
</svg>
