<?xml version="1.0" encoding="utf-8"?>
<!-- Generator: Adobe Illustrator 16.0.3, SVG Export Plug-In . SVG Version: 6.00 Build 0)  -->
<!DOCTYPE svg PUBLIC "-//W3C//DTD SVG 1.1//EN" "http://www.w3.org/Graphics/SVG/1.1/DTD/svg11.dtd">
<svg version="1.1" id="レイヤー_1" xmlns="http://www.w3.org/2000/svg" xmlns:xlink="http://www.w3.org/1999/xlink" x="0px"
	 y="0px" width="361.606px" height="626.332px" viewBox="0 0 361.606 626.332" enable-background="new 0 0 361.606 626.332"
	 xml:space="preserve">
<path fill-rule="evenodd" clip-rule="evenodd" d="M233.368,372.652c4.111,4.945,8.366,9.665,12.179,14.719
	c17.841,23.648,32.322,49.195,42.812,76.938c1.318,3.486,2.432,7.117,3.026,10.78c0.301,1.856-0.273,4.255-1.309,5.854
	c-3.692,5.711-9.342,9.357-15.122,12.566c-4.647,2.581-9.689,4.467-14.609,6.534c-0.816,0.343-1.979,0.269-2.857-0.009
	c-5.873-1.856-9.531-0.032-10.334,5.934c-1.426,10.596-4.585,21.1-3.241,31.898c1.865,14.989-0.654,29.316-5.476,43.387
	c-1.365,3.98-3.099,7.834-4.8,12.092c5.615,0.545,10.916,1.116,16.226,1.566c15.282,1.297,30.469,3.253,45.394,6.844
	c3.486,0.84,6.949,2.105,10.132,3.742c1.695,0.872,3.808,2.945,3.825,4.499c0.017,1.501-2.139,3.796-3.823,4.402
	c-5.366,1.93-10.868,3.905-16.479,4.65c-14.443,1.919-28.943,3.666-43.478,4.599c-21.048,1.352-42.141,2.471-63.224,2.666
	c-18.211,0.167-36.441-0.949-54.65-1.779c-10.71-0.488-21.451-1.09-32.076-2.44c-11.092-1.411-22.086-3.656-33.064-5.831
	c-2.467-0.488-4.873-1.94-6.982-3.413c-2.713-1.897-2.773-4.098-0.087-6.065c2.064-1.513,4.527-2.814,7.002-3.375
	c9.944-2.252,19.886-4.741,29.97-6.089c13.572-1.813,27.274-2.644,40.917-3.935c0.951-0.09,1.872-0.498,2.934-0.793
	c-2.144-4.771-4.255-9.263-6.196-13.827c-5.056-11.884-7.085-24.384-7.047-37.216c0.019-6.31-0.641-12.348-3.065-18.28
	c-2.113-5.173-3.488-10.646-5.203-15.982c-1.728-5.378-2.955-5.795-7.835-3.358c-1.144,0.57-2.996,0.45-4.251-0.044
	c-10.269-4.038-19.96-9.103-28.408-16.349c-3.256-2.794-4.715-5.888-3.324-10.231c1.972-6.157,3.671-12.402,5.457-18.619
	c0.357-1.244,0.576-2.528,0.816-3.602c-6.264-2.3-12.077-4.431-17.884-6.575c-0.465-0.173-0.903-0.428-1.336-0.674
	c-8.78-5.001-7.581-12.427-0.342-17.806c9.295-6.907,18.544-13.89,27.541-21.178c2.304-1.865,3.951-4.824,5.263-7.583
	c5.158-10.843,11.032-21.214,18.024-31.009c2.246-3.146,3.259-7.212,4.63-10.933c3.962-10.755,7.678-21.602,11.755-32.312
	c4.802-12.611,13.875-20.649,26.831-24.536c4.753-1.427,9.321-3.504,13.906-5.442c1.282-0.541,2.327-1.644,3.343-2.948
	c-8.437,0.489-16.728,2.531-25.541,0.072c1.667,3.689,4.943,4.287,7.699,5.895c-7.004,2.357-13.972,3.859-21.424,3.038
	c-7.297-0.804-13.995-3.145-20.674-7.064c0.062,4.095,2.375,6.095,5.119,7.832c-0.02,0.355-0.04,0.71-0.06,1.064
	c-1.986,0.507-3.955,1.358-5.96,1.457c-6.926,0.341-13.244-1.986-19.359-4.958c-1.639-0.796-3.24-1.671-5.368-2.774
	c2.52,6.27,6.647,10.363,12.349,13.91c-4.64,1.456-8.331,0.433-11.938-0.659c-14.465-4.38-25.89-13.28-35.513-24.6
	c-10.015-11.78-15.641-25.644-18.499-40.731c-0.227-1.195-0.837-2.329-1.354-3.454c-0.458-0.995-1.033-1.935-1.686-3.139
	c-7.955,5.033-16.406,9.326-26.64,11.077c0.516-1.428,0.716-2.477,1.232-3.336c8.287-13.809,11.031-28.849,10.84-44.797
	c-0.214-17.959-0.492-35.977,0.665-53.879c1.503-23.261,6.667-45.82,17.43-66.81c16.608-32.389,41.64-55.681,75.159-69.836
	c14.801-6.251,30.288-9.752,46.235-11.446c24.693-2.622,48.77,0.212,72.294,7.993c25.832,8.543,47.046,23.773,64.229,44.734
	c19.274,23.511,30.513,50.593,36.124,80.318c1.231,6.519,4.087,12.778,6.589,18.999c4.182,10.399,8.381,20.811,13.144,30.948
	c3.642,7.749,8.144,15.096,12.309,22.595c1.65,2.97,3.427,5.869,5.354,9.156c-8.511,0.883-15.956-2.283-24.138-5.414
	c-3.034,7.926-6.061,15.829-8.946,23.367c2.951-0.754,6.32-2.125,9.772-2.379c5.695-0.419,9.634,4.847,7.868,10.388
	c-1.039,3.261-2.896,6.262-4.453,9.521c1.324,0.294,3.107,0.529,4.78,1.093c4.46,1.504,6.022,4.803,4.258,9.11
	c-2.075,5.064-5.998,8.704-11.089,9.878c-7.063,1.629-11.713,5.406-15.376,11.513c-1.913,3.188-5.16,5.831-8.322,7.95
	c-3.775,2.532-5.523,5.802-6.202,10.074c-1.701,10.717-3.971,21.294-8.228,31.35c-2.97,7.017-7.011,13.119-13.336,17.678
	c-5.95,4.286-12.339,3.46-18.696,2.056c-9.227-2.038-18.349-4.547-27.533-6.785c-1.714-0.418-3.509-0.506-5.268-0.747
	c-0.256,0.35-0.511,0.7-0.766,1.05c1.096,1.813,1.903,3.908,3.346,5.379c3.733,3.807,3.617,7.579,0.753,11.73
	C237.768,365.784,235.651,369.162,233.368,372.652z M75.012,223.699c2.123,2.92,3.776,5.252,5.487,7.54
	c6.048,8.086,9.955,16.971,10.494,27.201c0.308,5.842,2.62,10.939,6.665,15.119c4.375,4.522,9.905,7.115,15.932,8.67
	c18.049,4.658,36.436,4.787,54.723,2.732c24.331-2.733,46.563-12.113,67.546-24.328c11.702-6.814,19.794-16.433,19.009-31.212
	c-5.732,3.124-11.462,7.171-19.159,4.97c15.061-11.697,19.054-27.574,18.927-45.674c-3.434-0.451-6.557-0.86-10.084-1.323
	c0.456,2.733,0.98,4.9,1.156,7.096c0.753,9.394,1.326,18.579-5.636,26.57c-9.72,11.159-25.893,10.56-33.892-1.802
	c-6.897-10.661-8.693-22.566-7.112-34.87c0.902-7.025,1.752-14.181,8.16-19.398c5.551-4.52,11.136-6.539,18.216-5.414
	c9.497,1.509,16.883,7.002,24.542,12.09c1.257,0.835,2.632,1.495,4.438,2.507c0.031-3.053,0.912-5.378-1.652-7.105
	c-10.814-7.282-20.688-15.725-29.283-25.494c-3.569-4.06-7.428-6.347-12.733-6.542c-5.456-0.201-10.897-0.439-16.618,1.027
	c0,1.818,0.2,3.458-0.034,5.032c-1.157,7.757-2.134,15.559-3.773,23.217c-0.963,4.5-2.927,4.806-6.514,1.981
	c-3.845-3.026-7.728-6.003-11.595-9.002c-0.239,0.214-0.479,0.428-0.718,0.642c3.293,4.287,6.586,8.574,10.28,13.384
	c-1.649,0.875-3.144,2.234-4.778,2.431c-5.06,0.61-10.177,1.089-15.266,1.044c-7.565-0.067-14.533-2.822-21.352-5.925
	c-0.153,0.235-0.306,0.47-0.459,0.706c3.618,2.897,7.236,5.795,11.319,9.064c-3.691,2.577-7.438,2.636-11.254,2.295
	c-11.781-1.054-21.334-6.652-29.486-14.839c-3.412-3.426-6.414-7.258-10.104-11.479c-4.357,1.865-8.952,3.716-13.44,5.792
	c-3.12,1.444-4.896,4.027-5.707,7.431c-1.707,7.162-3.56,14.291-5.42,21.415c-1.822,6.976-4.176,13.849-5.444,20.919
	c-0.903,5.031,0.171,9.407,4.235,10.864c2.01-6.274,4.147-12.508,6-18.824c3.907-13.32,15.676-22.253,29.036-21.192
	c8.055,0.64,15.79,3.324,19.788,10.926c6.318,12.015,8.844,25.125,8.354,38.685c-0.15,4.15-1.838,8.013-5.104,10.941
	c-6.497,5.823-15.668,5.84-22.512-0.148c-6.433-5.628-10.119-12.936-12.134-21.109c-1.048-4.25-1.75-8.583-2.608-12.879
	c-0.284-0.072-0.568-0.145-0.852-0.216c-3.134,5.896-6.269,11.793-9.518,17.904C81.806,224.658,78.756,224.228,75.012,223.699z
	 M343.961,259.851c-0.054-0.493-0.107-0.986-0.162-1.479c-1.467-0.106-2.969-0.463-4.393-0.265c-2.713,0.378-5.372,1.122-8.07,1.619
	c-1.971,0.363-4.148,0.861-5.244-1.514c-1.012-2.192,0.741-3.38,2.044-4.735c3.54-3.686,7.118-7.347,10.437-11.227
	c0.74-0.866,0.479-2.591,0.679-3.92c-1.344,0.104-3.006-0.266-3.983,0.388c-6.598,4.409-13.051,9.036-20.02,13.918
	c-1.79-0.406-1.204-2.185-0.868-3.933c1.014-5.263,2.05-10.523,2.937-15.809c0.409-2.437,0.081-4.727-3.537-6.167
	c-4.514,8.545-8.487,17.217-11.087,26.893c-1.353-1.242-2.454-2.516-2.867-3.982c-0.98-3.477-1.478-7.092-2.479-10.563
	c-0.604-2.091-1.041-4.708-4.473-4.846c-2.237,8.353,0.109,17.625-5.48,25.703c-1.705-1.301-2.991-2.192-4.176-3.203
	c-2.655-2.268-5.103-4.825-7.962-6.787c-1.166-0.801-3.182-0.369-4.811-0.497c-0.082,1.524-0.763,3.381-0.137,4.512
	c2.107,3.8,4.691,7.334,7.067,10.986c0.587,0.903,1.544,1.865,1.545,2.801c0.004,5.397,2.63,9.795,5.036,14.311
	c0.873,1.638,1.622,3.346,2.353,5.055c0.105,0.246-0.209,0.672-0.417,1.271c-1.01,0-2.048,0-3.116,0
	c-5.117,11.452-12.965,21.375-15.478,33.795c-0.178,0.879-1.584,1.51-2.419,2.256c-0.682-0.926-1.788-1.782-1.953-2.792
	c-0.315-1.921-0.091-3.93-0.091-6.195c-12.561-3.103-22.632-11.666-34.802-14.9c-7.948,9.155-10.367,31.486-4.693,40.653
	c2.913-5.304,5.607-6.609,11.633-5.485c2.817,0.524,5.612,1.18,8.404,1.837c10.076,2.368,20.132,4.822,30.223,7.127
	c6.502,1.484,11.677-1.109,15.303-6.272c2.773-3.947,5.169-8.282,6.998-12.746c4.284-10.457,6.309-21.516,7.665-32.699
	c0.284-2.342,0.387-4.634,3.153-5.833c7.316-3.168,12.414-8.726,15.783-15.83c1.788-3.77,4.253-5.573,8.64-5.667
	C336.071,265.523,340.455,263.366,343.961,259.851z M198.02,591.812c5.132-27.158,3.704-53.259-8.23-78.656
	c-6.37,0.431-13.129,0.889-20.031,1.356c-0.609,7.602-1.202,14.783-1.755,21.969c-0.495,6.437-1.321,12.878-1.308,19.314
	c0.013,6.206,0.658,12.445,1.499,18.605c0.799,5.854,2.212,11.623,3.351,17.411C180.719,591.812,189.179,591.812,198.02,591.812z
	 M205.483,286.942c1.039,2.641,2.767,4.604,5.506,4.068c7.694-1.506,14.97,0.119,21.928,2.893
	c6.926,2.761,13.546,6.304,20.244,9.616c3.732,1.845,7.406,3.674,12.502,2.338c3.312-6.539,6.91-13.5,10.322-20.552
	c0.454-0.94,0.242-2.438-0.146-3.501c-0.83-2.275-1.978-4.436-3.081-6.831c-1.242,0.854-2.361,1.625-3.482,2.393
	c-7.894,5.403-16.57,8.588-26.16,9.027c-1.528,0.07-3.084-0.452-4.627-0.7c0.039-0.306,0.078-0.612,0.116-0.918
	c5.756-1.254,8.387-5.408,10.06-10.504c-6.271,4.476-12.791,8.413-20.375,9.755C220.875,285.337,213.34,285.966,205.483,286.942z
	 M22.78,138.204c0.814-2.152,1.406-3.896,2.125-5.586c4.865-11.446,9.28-23.06,15.668-33.857
	c3.384-5.721,6.371-11.488,11.625-15.789c1.132-0.926,1.753-2.609,2.333-4.054c1.387-3.462,2.293-7.149,3.954-10.465
	c6.625-13.231,15.604-24.636,27.16-33.954c1.288-1.039,2.507-2.163,3.757-3.247C56.452,45.558,22.941,94.381,22.78,138.204z
	 M58.804,439.114c2.609,0.877,4.778,2.24,6.899,2.17c3.158-0.105,6.293-1.179,9.419-1.921c3.275-0.777,6.528-1.65,10.837-2.749
	c9.998-20.07,21.374-40.828,36.283-59.798c-4.193-5.839-2.221-11.58,0.021-17.445c4.143-10.838,8.073-21.756,12.081-32.646
	c0.438-1.189,0.801-2.406,1.199-3.61c-0.268-0.103-0.535-0.206-0.802-0.309c-1.205,2.434-2.653,4.778-3.573,7.315
	c-4.251,11.723-8.32,23.51-12.536,35.244c-1.048,2.919-1.878,6.129-3.706,8.516c-8.184,10.691-14.416,22.455-19.936,34.646
	c-1.642,3.624-4.096,6.392-7.325,8.765C78.245,424.215,69,431.377,58.804,439.114z M160.379,307.204
	c-1.822,3.798-3.65,7.611-5.764,12.019c4.969-0.688,8.886-1.499,12.835-1.719c8.217-0.459,16.45-0.678,24.681-0.827
	c2.19-0.039,3.43-0.748,4.243-2.794c1.289-3.243,2.751-6.424,4.283-9.563c1.281-2.625,2.769-5.15,4.499-8.335
	c-6.865,1.095-12.507,3.377-17.776,6.411c-8.049,4.633-16.272,7.617-25.65,4.703C161.513,307.031,161.244,307.129,160.379,307.204z
	 M296.788,223.542c1.078-0.756,2.219-1.437,3.224-2.279c10.778-9.036,13.173-30.228,4.64-41.514c-2.18-2.882-4.72-5.413-9.29-5.479
	C297.87,190.582,299.241,206.685,296.788,223.542z M191.511,103.81c1.036,8.777,2.036,17.249,2.988,25.32c5.86,0,11.347,0,16.825,0
	C204.668,120.623,198.231,112.396,191.511,103.81z M97.978,149.754c-2.667-5.822-5.191-11.331-7.997-17.455
	c-1.772,7.632-3.428,14.768-5.123,22.067C89.443,152.754,93.519,151.322,97.978,149.754z"/>
<path fill-rule="evenodd" clip-rule="evenodd" fill="#FFFFFF" d="M75.012,223.699c3.744,0.529,6.793,0.959,10.063,1.421
	c3.249-6.111,6.383-12.008,9.518-17.904c0.284,0.071,0.568,0.144,0.852,0.216c0.858,4.296,1.56,8.63,2.608,12.879
	c2.015,8.173,5.701,15.481,12.134,21.109c6.843,5.988,16.015,5.971,22.512,0.148c3.267-2.928,4.955-6.791,5.104-10.941
	c0.49-13.559-2.036-26.67-8.354-38.685c-3.998-7.602-11.733-10.287-19.788-10.926c-13.36-1.061-25.129,7.873-29.036,21.192
	c-1.853,6.316-3.991,12.55-6,18.824c-4.063-1.457-5.138-5.833-4.235-10.864c1.268-7.071,3.622-13.944,5.444-20.919
	c1.861-7.124,3.714-14.252,5.42-21.415c0.811-3.404,2.587-5.987,5.707-7.431c4.489-2.077,9.083-3.927,13.44-5.792
	c3.69,4.221,6.692,8.053,10.104,11.479c8.152,8.188,17.706,13.786,29.486,14.839c3.816,0.341,7.563,0.282,11.254-2.295
	c-4.083-3.269-7.701-6.167-11.319-9.064c0.153-0.235,0.307-0.47,0.459-0.706c6.819,3.103,13.786,5.858,21.352,5.925
	c5.089,0.044,10.206-0.435,15.266-1.044c1.634-0.197,3.128-1.556,4.778-2.431c-3.694-4.81-6.987-9.097-10.28-13.384
	c0.239-0.214,0.479-0.428,0.718-0.642c3.867,2.999,7.75,5.976,11.595,9.002c3.587,2.825,5.551,2.519,6.514-1.981
	c1.64-7.658,2.616-15.46,3.773-23.217c0.234-1.574,0.034-3.214,0.034-5.032c5.721-1.467,11.162-1.228,16.618-1.027
	c5.306,0.195,9.164,2.482,12.733,6.542c8.595,9.769,18.469,18.211,29.283,25.494c2.564,1.727,1.684,4.052,1.652,7.105
	c-1.806-1.013-3.181-1.672-4.438-2.507c-7.659-5.087-15.045-10.581-24.542-12.09c-7.08-1.125-12.665,0.895-18.216,5.414
	c-6.408,5.218-7.258,12.373-8.16,19.398c-1.581,12.304,0.215,24.209,7.112,34.87c7.999,12.362,24.172,12.961,33.892,1.802
	c6.962-7.992,6.389-17.177,5.636-26.57c-0.176-2.196-0.7-4.363-1.156-7.096c3.527,0.463,6.65,0.872,10.084,1.323
	c0.127,18.1-3.866,33.977-18.927,45.674c7.697,2.201,13.427-1.846,19.159-4.97c0.785,14.779-7.307,24.398-19.009,31.212
	c-20.982,12.215-43.215,21.595-67.546,24.328c-18.287,2.055-36.674,1.926-54.723-2.732c-6.027-1.556-11.557-4.148-15.932-8.67
	c-4.045-4.18-6.357-9.277-6.665-15.119c-0.539-10.23-4.446-19.115-10.494-27.201C78.788,228.951,77.135,226.619,75.012,223.699z
	 M172.024,260.247c1.233-1.552,2.755-2.747,2.549-3.365c-0.369-1.106-1.668-2.296-2.801-2.588c-0.587-0.152-2.279,1.517-2.323,2.418
	C169.403,257.634,170.765,258.625,172.024,260.247z"/>
<path fill-rule="evenodd" clip-rule="evenodd" fill="#FFFFFF" d="M343.961,259.851c-3.507,3.516-7.891,5.672-12.818,5.778
	c-4.387,0.094-6.852,1.897-8.64,5.667c-3.369,7.104-8.467,12.661-15.783,15.83c-2.767,1.199-2.869,3.491-3.153,5.833
	c-1.356,11.184-3.381,22.242-7.665,32.699c-1.829,4.464-4.225,8.799-6.998,12.746c-3.626,5.163-8.801,7.757-15.303,6.272
	c-10.091-2.305-20.146-4.759-30.223-7.127c-2.792-0.657-5.587-1.313-8.404-1.837c-6.025-1.124-8.72,0.182-11.633,5.485
	c-5.674-9.167-3.255-31.498,4.693-40.653c12.17,3.234,22.241,11.797,34.802,14.9c0,2.266-0.225,4.274,0.091,6.195
	c0.165,1.01,1.271,1.866,1.953,2.792c0.835-0.746,2.241-1.377,2.419-2.256c2.513-12.42,10.36-22.344,15.478-33.795
	c1.068,0,2.106,0,3.116,0c0.208-0.598,0.522-1.024,0.417-1.271c-0.73-1.708-1.479-3.417-2.353-5.055
	c-2.406-4.516-5.032-8.914-5.036-14.311c-0.001-0.936-0.958-1.898-1.545-2.801c-2.376-3.651-4.96-7.186-7.067-10.986
	c-0.626-1.131,0.055-2.988,0.137-4.512c1.629,0.128,3.645-0.305,4.811,0.497c2.859,1.962,5.307,4.519,7.962,6.787
	c1.185,1.011,2.471,1.902,4.176,3.203c5.59-8.078,3.243-17.351,5.48-25.703c3.432,0.138,3.868,2.755,4.473,4.846
	c1.001,3.471,1.498,7.085,2.479,10.563c0.413,1.467,1.515,2.74,2.867,3.982c2.6-9.675,6.573-18.348,11.087-26.893
	c3.618,1.44,3.946,3.73,3.537,6.167c-0.887,5.285-1.923,10.545-2.937,15.809c-0.336,1.748-0.922,3.527,0.868,3.933
	c6.969-4.883,13.422-9.509,20.02-13.918c0.978-0.653,2.64-0.284,3.983-0.388c-0.199,1.33,0.062,3.054-0.679,3.92
	c-3.318,3.88-6.896,7.541-10.437,11.227c-1.303,1.355-3.056,2.543-2.044,4.735c1.096,2.375,3.273,1.877,5.244,1.514
	c2.698-0.498,5.357-1.241,8.07-1.619c1.424-0.198,2.926,0.158,4.393,0.265C343.854,258.865,343.908,259.357,343.961,259.851z"/>
<path fill-rule="evenodd" clip-rule="evenodd" fill="#FFFFFF" d="M22.78,138.204c0.162-43.823,33.672-92.646,66.622-106.952
	c-1.25,1.084-2.47,2.208-3.757,3.247c-11.556,9.317-20.535,20.723-27.16,33.954c-1.661,3.316-2.567,7.002-3.954,10.465
	c-0.58,1.445-1.201,3.128-2.333,4.054c-5.254,4.301-8.241,10.068-11.625,15.789c-6.388,10.797-10.803,22.411-15.668,33.857
	C24.186,134.308,23.594,136.051,22.78,138.204z"/>
<path fill-rule="evenodd" clip-rule="evenodd" fill="#FFFFFF" d="M58.804,439.114c10.196-7.737,19.441-14.899,28.861-21.822
	c3.229-2.373,5.684-5.141,7.325-8.765c5.521-12.19,11.752-23.954,19.936-34.646c1.828-2.387,2.657-5.597,3.706-8.516
	c4.216-11.734,8.285-23.521,12.536-35.244c0.92-2.537,2.368-4.882,3.573-7.315c0.268,0.103,0.535,0.206,0.802,0.309
	c-0.398,1.204-0.761,2.421-1.199,3.61c-4.007,10.89-7.938,21.808-12.081,32.646c-2.242,5.865-4.214,11.606-0.021,17.445
	c-14.91,18.97-26.285,39.728-36.283,59.798c-4.309,1.099-7.562,1.972-10.837,2.749c-3.125,0.742-6.261,1.815-9.419,1.921
	C63.582,441.354,61.413,439.991,58.804,439.114z"/>
<path fill-rule="evenodd" clip-rule="evenodd" fill="#FFFFFF" d="M160.379,307.204c0.865-0.075,1.133-0.173,1.351-0.105
	c9.378,2.914,17.601-0.069,25.65-4.703c5.27-3.034,10.911-5.316,17.776-6.411c-1.73,3.186-3.218,5.711-4.499,8.335
	c-1.532,3.138-2.994,6.319-4.283,9.563c-0.813,2.046-2.053,2.755-4.243,2.794c-8.23,0.149-16.463,0.368-24.681,0.827
	c-3.95,0.22-7.867,1.031-12.835,1.719C156.729,314.815,158.558,311.002,160.379,307.204z"/>
<path fill-rule="evenodd" clip-rule="evenodd" fill="#FFFFFF" d="M296.788,223.542c2.453-16.857,1.082-32.96-1.427-49.272
	c4.57,0.066,7.11,2.597,9.29,5.479c8.533,11.286,6.139,32.478-4.64,41.514C299.006,222.105,297.866,222.786,296.788,223.542z"/>
<path fill-rule="evenodd" clip-rule="evenodd" fill="#FFFFFF" d="M191.511,103.81c6.72,8.586,13.157,16.813,19.813,25.32
	c-5.479,0-10.965,0-16.825,0C193.547,121.059,192.547,112.587,191.511,103.81z"/>
<path fill-rule="evenodd" clip-rule="evenodd" fill="#FFFFFF" d="M97.978,149.754c-4.459,1.568-8.535,3-13.12,4.612
	c1.695-7.3,3.351-14.436,5.123-22.067C92.787,138.423,95.31,143.932,97.978,149.754z"/>
<path fill-rule="evenodd" clip-rule="evenodd" d="M172.024,260.247c-1.259-1.622-2.621-2.613-2.576-3.535
	c0.044-0.901,1.736-2.57,2.323-2.418c1.133,0.292,2.433,1.482,2.801,2.588C174.779,257.5,173.257,258.695,172.024,260.247z"/>
</svg>
