<?xml version="1.0" encoding="utf-8"?>
<!-- Generator: Adobe Illustrator 16.0.3, SVG Export Plug-In . SVG Version: 6.00 Build 0)  -->
<!DOCTYPE svg PUBLIC "-//W3C//DTD SVG 1.1//EN" "http://www.w3.org/Graphics/SVG/1.1/DTD/svg11.dtd">
<svg version="1.1" id="レイヤー_1" xmlns="http://www.w3.org/2000/svg" xmlns:xlink="http://www.w3.org/1999/xlink" x="0px"
	 y="0px" width="712.708px" height="1305.62px" viewBox="0 0 712.708 1305.62" enable-background="new 0 0 712.708 1305.62"
	 xml:space="preserve">
<path fill-rule="evenodd" clip-rule="evenodd" d="M336.019,610.485c-19.942,3.366-38.358,8.935-57.087,1.638
	c3.068,8.569,10.495,9.802,17.802,11.968c-14.258,7.761-29.763,8.33-45.368,7.536c-16.041-0.816-30.185-7.418-43.805-16.499
	c-1.433,5.271,0.844,8.871,3.22,12.039c2.317,3.092,5.485,5.546,9.123,9.105c-24.529,5.523-44.485-4.336-64.784-14.052
	c2.809,13.532,11.969,21.676,23.298,29.096c-1.755,0.324-3.51,0.929-5.266,0.929c-12.518,0.003-23.985-4.234-34.731-9.99
	c-37.468-20.068-66.121-48.615-82.416-88.416c-3.135-7.658-4.801-15.919-7.12-23.909c-0.451-1.556-0.786-3.146-1.764-4.701
	c-9.323,17.244-8.558,35.154-3.632,53.347c5.219,19.272,19.38,30.199,36.524,38.317c-0.063,0.416-0.126,0.833-0.189,1.25
	c-2.316,0.211-4.665,0.777-6.945,0.578c-34.428-3.008-64.443-22.46-71.155-62.685c-3.655-21.906-0.714-43.503,1.579-65.207
	c2.345-22.188,5.188-44.373,6.201-66.633c0.615-13.533-2.348-27.188-2.795-40.817c-1.861-56.808,2.617-112.979,20.242-167.367
	c16.374-50.526,43.582-94.498,82.619-130.84c45.285-42.158,98.803-67.725,159.412-79.012
	c61.833-11.516,122.416-6.883,181.773,13.873c50.579,17.686,92.788,47.294,127.375,88.241
	c38.067,45.069,62.827,96.582,73.813,154.246c4.586,24.073,14.427,45.498,24.489,67.271c10.82,23.411,21.955,46.814,30.573,71.067
	c9.045,25.452,7.699,51.193-6.705,75.165c-0.763,1.27-1.317,2.665-2.161,4.396c1.467,0.584,2.768,1.111,4.074,1.622
	c9.157,3.582,12.794,13.415,6.765,21.133c-3.757,4.808-8.933,9.642-14.492,11.68c-13.111,4.804-22.09,12.809-28.46,25.283
	c-5.502,10.773-14.612,18.807-25.213,25.09c-2.873,1.703-5.098,5.146-6.687,8.265c-9.37,18.393-17.981,37.188-27.857,55.298
	c-4.899,8.984-11.806,16.907-18.067,25.109c-8.734,11.439-20.823,18.466-33.427,24.775c-22.643,11.335-45.208,22.822-67.887,34.084
	c-6.254,3.106-10.484,7.502-11.722,14.508c-2.491,14.102-5.004,28.198-7.507,42.298c-0.976,5.496,0.816,9.776,4.58,14.028
	c36.833,41.608,65.98,88.291,89.27,138.564c9.431,20.356,16.726,41.699,25.027,62.58c3.563,8.965,1.315,15.889-5.502,22.896
	c-15.996,16.44-35.563,26.758-56.461,34.982c-2.918,1.148-7.071,0.934-10.059-0.207c-7.823-2.986-17.05,1.018-18.535,9.305
	c-4.816,26.871-9.616,53.543-6.836,81.325c3.449,34.461-5.314,67.137-20.052,98.242c-3.152,6.654-3.175,6.611,4.06,7.419
	c32.276,3.6,64.628,6.68,96.785,11.146c14.422,2.002,28.497,6.651,42.63,10.468c3.428,0.925,6.781,2.893,9.609,5.098
	c5.516,4.299,5.595,9.704-0.548,12.778c-7.648,3.828-15.857,7.054-24.188,8.91c-32.606,7.268-65.84,10.115-99.078,12.585
	c-56.189,4.175-112.455,6.95-168.809,5.586c-52.646-1.274-105.25-3.89-157.591-10.033c-21.333-2.505-42.684-5.307-63.193-12.182
	c-3.438-1.151-6.828-2.736-9.881-4.685c-6.747-4.304-6.814-10.027,0.331-13.798c6.575-3.47,13.583-6.878,20.793-8.249
	c25.503-4.851,51.091-9.438,76.81-12.916c19.789-2.677,39.824-3.534,59.75-5.198c1.329-0.111,2.663-0.168,3.986-0.318
	c6.29-0.713,6.887-1.491,4.01-6.956c-12.881-24.461-21.369-50.261-23.647-77.894c-0.834-10.116-1.055-20.295-1.237-30.451
	c-0.154-8.608-1.976-16.724-4.846-24.848c-4.766-13.492-8.631-27.301-13.23-40.855c-1.111-3.274-3.094-6.642-5.611-8.944
	c-2.848-2.607-6.711-2.845-9.963,0.216c-3.205,3.017-6.95,3.153-10.715,1.612c-21.066-8.623-41.009-19.139-58.563-33.923
	c-7.596-6.397-9.912-13.563-6.762-23.015c4.423-13.271,8.38-26.699,12.532-40.062c0.472-1.521,0.918-3.049,1.551-5.155
	c-6.722,0.646-13.414,0.37-16.495-4.92c-4.053-6.961-9.822-10.546-16.523-14.155c-7.253-3.906-8.365-12.322-3.425-18.988
	c2.057-2.775,4.761-5.092,7.288-7.494c6.871-6.53,13.853-12.944,20.701-19.498c8.175-7.825,16.488-15.527,24.287-23.716
	c4.411-4.631,8.554-9.766,11.699-15.309c9.45-16.659,18.026-33.815,27.563-50.423c8.532-14.857,14.257-30.729,19.847-46.821
	c7.973-22.95,16.829-45.603,25.743-68.211c2.421-6.14,6.269-11.745,9.7-17.452c7.604-12.648,19.972-19.464,32.775-25.146
	c10.467-4.645,21.698-7.532,32.369-11.76c4.676-1.854,8.884-4.976,13.114-7.806C333.877,615.146,334.341,613.343,336.019,610.485z
	 M136.913,465.223l-0.125-0.131c3.196,4.649,6.199,9.447,9.623,13.922c13.752,17.973,23.122,37.408,24.271,60.663
	c0.874,17.691,10.733,30.821,25.608,40.069c11.086,6.893,23.576,10.15,36.22,12.359c34.067,5.95,68.374,5.385,102.645,2.305
	c28.519-2.563,55.287-11.963,81.539-22.763c20.948-8.617,41.776-17.545,60.726-30.277c20.473-13.756,35.091-31.105,36.541-56.993
	c0.15-2.68,0.496-5.348,0.856-9.137c-2.508,1.66-3.846,2.571-5.208,3.445c-9.353,5.998-19.132,10.922-30.519,11.367
	c-1.63,0.063-3.3-0.891-4.951-1.373c0.938-1.402,1.751-2.916,2.856-4.17c0.86-0.978,2.156-1.556,3.14-2.442
	c25.673-23.145,32.998-53.37,33.161-86.307c0.006-1.225-0.998-3.397-1.806-3.536c-6.949-1.191-13.961-2.018-20.925-2.948
	c1.153,7.113,2.558,13.441,3.11,19.844c0.558,6.455,0.438,12.986,0.319,19.479c-0.368,20.047-12.019,36.659-30.741,43.76
	c-14.278,5.414-28.545,7.125-40.761-4.32c-5.481-5.136-10.626-11.273-13.965-17.938c-12.278-24.503-14.623-50.229-9.567-77.307
	c3.238-17.345,12.25-29.013,27.135-36.968c3.621-1.935,7.717-4.041,11.646-4.149c16.252-0.448,31.158,5.193,45.172,12.641
	c8.148,4.331,15.218,10.672,22.883,15.949c1.88,1.293,4.191,1.959,7.172,3.306c0-4.434-0.105-7.564,0.031-10.685
	c0.122-2.794-0.816-4.263-3.509-5.715c-5.669-3.058-11.298-6.453-16.234-10.562c-18.448-15.352-36.188-31.479-52.065-49.562
	c-1.785-2.033-4.288-4.173-6.794-4.716c-14.803-3.206-29.778-2.846-44.751-1.184c-2.691,0.299-3.865,1.539-3.878,4.583
	c-0.033,7.49,0.165,15.102-1.067,22.439c-2.09,12.438-4.886,24.788-8.054,37.002c-1.339,5.164-4.698,5.862-8.702,2.644
	c-8.293-6.666-16.424-13.534-24.625-20.314c-1.421-1.175-2.862-2.326-4.294-3.488c-0.323,0.289-0.647,0.578-0.972,0.867
	c0.522,1.307,0.802,2.791,1.606,3.891c5.57,7.613,11.027,15.329,16.98,22.638c3.482,4.274,3.439,6.282-1.702,8.521
	c-1.214,0.527-2.5,0.967-3.797,1.211c-26.884,5.055-52.729,2.722-76.972-10.9c-1.196-0.673-2.446-1.249-3.671-1.87
	c0.197,1.54,0.714,2.612,1.546,3.308c6.731,5.63,13.531,11.177,20.282,16.782c1.089,0.904,2.037,1.976,3.051,2.97
	c-1.17,1.044-2.266,2.191-3.539,3.088c-0.63,0.443-1.579,0.451-2.393,0.607c-13.52,2.591-26.674,0.489-39.245-4.294
	c-21.371-8.131-37.736-22.968-51.031-41.146c-3.205-4.383-6.244-5.102-10.396-3.217c-9.531,4.327-18.87,9.078-28.394,13.422
	c-7.041,3.212-10.079,8.784-11.883,16.083c-5.793,23.435-11.427,46.95-18.508,70.008
	C125.43,440.834,126.239,453.608,136.913,465.223z M594.792,483.195c4.252,3.334,8.578,6.178,12.236,9.713
	c6.947,6.712,11.107,14.937,11.12,24.806c0.002,1.374-1.349,2.75-2.072,4.125c-1.123-1.034-2.536-1.895-3.292-3.149
	c-0.834-1.385-1.024-3.146-1.564-4.72c-3.699-10.767-10.516-18.665-20.971-23.501c-2.751-1.272-5.207-3.423-7.416-5.564
	c-2.377-2.305-4.197-5.172-6.452-7.618c-3.715-4.031-8.358-6.019-13.888-5.39c-4.947,0.562-6.487,3.163-4.27,7.559
	c1.567,3.105,3.462,6.095,5.559,8.873c5.734,7.595,9.376,15.979,11.098,25.372c1.106,6.039,2.762,12.031,4.777,17.833
	c1.632,4.698,1.57,8.672-1.759,12.536c-1.842,2.139-3.343,4.569-5.027,6.846c-10.689,14.446-21.241,28.999-32.201,43.237
	c-2.318,3.012-5.855,5.438-9.316,7.158c-21.688,10.778-44.848,16.845-68.677,20.46c-4.638,0.703-7.576,2.823-9.648,6.82
	c-16.463,31.745-16.658,64.26-4.238,97.181c1.85,4.904,5.603,9.09,8.475,13.608c0.536-0.197,1.071-0.396,1.607-0.593
	c1.068-4.659,2.575-9.269,3.123-13.988c1.48-12.748,8.627-20.392,20-25.776c21.521-10.188,42.432-21.67,63.992-31.771
	c18.437-8.637,32.452-21.586,43.547-38.439c12.876-19.559,23.754-40.13,33.009-61.578c2.948-6.834,7.283-11.824,13.578-15.995
	c5.859-3.882,11.081-9.104,15.58-14.562c5.162-6.262,8.975-13.618,13.876-20.121c2.047-2.715,5.126-4.972,8.196-6.526
	c6.222-3.15,12.934-5.352,19.079-8.627c2.478-1.319,4.001-4.431,5.959-6.727c-3.035-0.724-6.149-2.266-9.087-1.981
	c-4.578,0.443-8.985,2.653-13.563,3.103c-3.167,0.31-7.524-0.092-9.421-2.047c-1.416-1.459-0.027-5.972,0.655-9.003
	c0.378-1.677,1.928-3.069,2.855-4.646c4.805-8.167,9.819-16.227,14.205-24.614c1.157-2.214,0.34-5.46,0.429-8.232
	c-2.538,1.204-5.68,1.825-7.511,3.716c-7.644,7.891-14.726,16.327-22.427,24.156c-1.556,1.583-5.167,2.382-7.371,1.8
	c-3.299-0.871-3.295-4.188-2.246-7.127c2.967-8.309,6.079-16.567,8.96-24.905c2.441-7.065,4.836-14.162,6.801-21.367
	c0.448-1.642-0.957-3.789-1.509-5.703c-1.937,0.91-4.76,1.29-5.672,2.813c-8.619,14.399-16.83,29.043-25.397,43.474
	c-1.16,1.954-3.617,4.367-5.505,4.394c-3.574,0.052-4.703-3.027-4.361-6.481c0.59-5.967,1.323-11.932,1.603-17.916
	c0.342-7.305,0.45-14.632,0.255-21.938c-0.044-1.659-1.751-3.273-2.693-4.909c-1.506,1.339-3.579,2.401-4.398,4.076
	c-1.595,3.261-2.533,6.851-3.661,10.33C604.225,448.716,603.898,467.243,594.792,483.195z M401.667,1171.518
	c-0.429-0.038-0.856-0.076-1.285-0.113c0-3.5,0.231-7.018-0.043-10.495c-0.86-10.927-0.496-22.202-3.197-32.675
	c-4.817-18.675-11.601-36.839-17.393-55.269c-1.167-3.714-3.02-4.909-6.931-4.489c-10.101,1.084-20.237,1.97-30.382,2.444
	c-4.506,0.21-6.21,2.243-6.678,6.287c-0.822,7.117-1.513,14.261-2.674,21.325c-7.16,43.578-7.169,86.912,3.739,129.979
	c1.225,4.835,3.331,6.95,8.559,6.808c13.989-0.381,27.991-0.295,41.988-0.35c7.756-0.03,8.237,0.063,9.088-7.798
	C398.462,1208.649,399.962,1190.072,401.667,1171.518z M176.359,58.757c-0.333-0.362-0.665-0.724-0.998-1.086
	C128.26,80.176,94.184,116.582,67.601,160.669c-24.276,40.26-37.922,83.858-39.321,131.059c0.921-0.259,1.324-0.711,1.525-1.24
	c5.019-13.211,9.706-26.558,15.113-39.607c4.511-10.888,9.72-21.496,14.896-32.094c2.836-5.807,6.354-11.276,9.373-16.999
	c5.696-10.798,11.816-21.147,22.205-28.363c2.182-1.517,3.537-4.665,4.549-7.336c2.41-6.364,3.754-13.191,6.647-19.302
	c14.472-30.559,34.779-56.601,61.376-77.635C168.191,65.808,172.232,62.228,176.359,58.757z M118.316,917.471
	c1.29,0.738,2.046,1.551,2.609,1.435c5.643-1.167,11.308-2.289,16.851-3.84c3.047-0.853,4.405-3.254,5.277-6.551
	c1.072-4.053,3.344-7.841,5.487-11.516c0.475-0.813,2.944-1.309,3.84-0.799c0.935,0.53,1.679,2.578,1.437,3.739
	c-0.428,2.054-2.081,3.865-2.444,5.916c-0.336,1.897-0.283,4.499,0.796,5.793c0.738,0.886,4.325,0.829,5.261-0.139
	c3.512-3.63,7.035-7.481,9.502-11.845c6.31-11.158,11.769-22.798,18.082-33.954c14.932-26.389,29.989-52.728,49.686-76.003
	c2.431-2.873,1.753-5.458,0.354-8.269c-4.125-8.284-3.831-16.447-0.519-25.083c9.005-23.479,17.594-47.116,26.289-70.713
	c2.476-6.719,4.749-13.512,7.114-20.271c-0.395-0.178-0.789-0.355-1.183-0.532c-2.878,4.822-6.09,9.479-8.577,14.495
	c-10.765,21.717-18.551,44.58-25.339,67.787c-6.246,21.356-14.487,41.742-25.973,60.936c-9.314,15.564-17.204,31.977-26.028,47.844
	c-2.297,4.13-5.355,8.004-8.709,11.348c-9.654,9.623-19.574,18.984-29.516,28.313c-6.674,6.262-13.563,12.295-20.36,18.426
	C121.077,915.048,119.882,916.086,118.316,917.471z M409.769,617.718c-0.244-0.52-0.488-1.039-0.731-1.559
	c-3.646,0.712-7.561,0.8-10.888,2.244c-14.031,6.089-28.086,12.188-41.733,19.073c-8.519,4.297-17.01,5.354-26.11,3.618
	c-3.103-0.592-6.248-1.123-9.236-2.1c-3.078-1.006-4.876-0.527-6.291,2.657c-1.956,4.4-4.602,8.489-6.7,12.834
	c-1.77,3.663-3.18,7.499-4.782,11.34c1.231,0.458,1.704,0.807,2.14,0.765c1.322-0.128,2.639-0.361,3.941-0.633
	c24.446-5.11,49.194-6.329,74.059-5.297c4.364,0.182,6.104-1.271,7.805-4.938c5.313-11.465,11.041-22.737,16.607-34.085
	C408.49,620.331,409.128,619.024,409.769,617.718z M408.216,597.107c3,8.081,9.994,11.652,18.299,9.779
	c11.262-2.54,22.381-2.776,33.577,0.373c2.468,0.693,5.33,0.823,7.851,0.354c18.428-3.427,36.058-9.35,52.925-17.524
	c0.946-0.459,1.789-1.131,2.68-1.703c-14.115,4.279-27.624,11.555-43.111,6.679c4.773-3.618,9.645-6.522,13.482-10.438
	c3.915-3.994,6.914-8.941,6.638-15.318c-12.899,10.751-27.411,17.832-42.989,22.957C441.715,597.48,425.233,596.983,408.216,597.107
	z M424.484,269.9c-14.565-18.61-29.365-37.521-44.407-56.74c2.256,19.492,4.453,38.486,6.565,56.74
	C399.687,269.9,412.525,269.9,424.484,269.9z M602.522,412.621c10.094-10.649,12.289-11.178,24.274-6.104
	c2.893-20.824-14.019-46.19-29.538-44.056C598.996,379.017,600.734,395.579,602.522,412.621z M188.336,314.382
	c-6.152-13.087-12.567-26.732-19.375-41.215c-4.41,18.933-8.65,37.133-12.811,54.992
	C167.19,323.434,177.928,318.838,188.336,314.382z M152.849,925.228c-6.797-1.234-11.225,3.571-16.619,5.249
	c-0.436,0.136-0.949,1.75-0.694,2.044c0.695,0.805,1.708,1.573,2.726,1.821C143.852,935.702,150.539,931.657,152.849,925.228z"/>
<path fill-rule="evenodd" clip-rule="evenodd" fill="#FFFFFF" d="M136.913,465.223c-10.674-11.614-11.482-24.389-6.922-39.239
	c7.081-23.058,12.715-46.573,18.508-70.008c1.804-7.299,4.842-12.871,11.883-16.083c9.524-4.344,18.862-9.095,28.394-13.422
	c4.152-1.885,7.191-1.166,10.396,3.217c13.294,18.179,29.66,33.016,51.031,41.146c12.571,4.783,25.726,6.885,39.245,4.294
	c0.813-0.156,1.763-0.164,2.393-0.607c1.273-0.896,2.369-2.044,3.539-3.088c-1.014-0.994-1.962-2.065-3.051-2.97
	c-6.751-5.605-13.551-11.152-20.282-16.782c-0.832-0.695-1.349-1.768-1.546-3.308c1.225,0.621,2.475,1.197,3.671,1.87
	c24.243,13.622,50.088,15.955,76.972,10.9c1.297-0.244,2.583-0.684,3.797-1.211c5.142-2.238,5.185-4.246,1.702-8.521
	c-5.953-7.309-11.41-15.024-16.98-22.638c-0.805-1.1-1.084-2.584-1.606-3.891c0.324-0.289,0.648-0.578,0.972-0.867
	c1.432,1.162,2.873,2.313,4.294,3.488c8.201,6.78,16.332,13.648,24.625,20.314c4.004,3.219,7.363,2.521,8.702-2.644
	c3.168-12.214,5.964-24.563,8.054-37.002c1.232-7.338,1.034-14.949,1.067-22.439c0.013-3.044,1.187-4.284,3.878-4.583
	c14.973-1.662,29.948-2.022,44.751,1.184c2.506,0.543,5.009,2.683,6.794,4.716c15.878,18.082,33.617,34.21,52.065,49.562
	c4.937,4.108,10.565,7.504,16.234,10.562c2.692,1.452,3.631,2.921,3.509,5.715c-0.137,3.12-0.031,6.251-0.031,10.685
	c-2.98-1.347-5.292-2.013-7.172-3.306c-7.665-5.277-14.734-11.618-22.883-15.949c-14.014-7.447-28.92-13.089-45.172-12.641
	c-3.93,0.108-8.025,2.215-11.646,4.149c-14.885,7.955-23.896,19.623-27.135,36.968c-5.056,27.078-2.711,52.804,9.567,77.307
	c3.339,6.664,8.483,12.802,13.965,17.938c12.216,11.445,26.482,9.734,40.761,4.32c18.723-7.101,30.373-23.713,30.741-43.76
	c0.119-6.493,0.238-13.024-0.319-19.479c-0.553-6.402-1.957-12.73-3.11-19.844c6.964,0.931,13.976,1.757,20.925,2.948
	c0.808,0.139,1.812,2.312,1.806,3.536c-0.163,32.937-7.488,63.162-33.161,86.307c-0.983,0.887-2.279,1.465-3.14,2.442
	c-1.105,1.254-1.918,2.768-2.856,4.17c1.651,0.482,3.321,1.437,4.951,1.373c11.387-0.445,21.166-5.369,30.519-11.367
	c1.362-0.874,2.7-1.785,5.208-3.445c-0.36,3.789-0.706,6.457-0.856,9.137c-1.45,25.888-16.068,43.237-36.541,56.993
	c-18.949,12.732-39.777,21.66-60.726,30.277c-26.252,10.8-53.021,20.2-81.539,22.763c-34.271,3.08-68.578,3.646-102.645-2.305
	c-12.645-2.209-25.134-5.467-36.22-12.359c-14.875-9.248-24.735-22.378-25.608-40.069c-1.148-23.255-10.518-42.69-24.271-60.663
	c-3.424-4.475-6.427-9.272-9.624-13.922c5.569,0.929,11.174,1.692,16.697,2.846c3.732,0.78,5.912-0.343,7.509-3.807
	c3.065-6.648,6.222-13.275,9.765-19.677c3.029-5.472,6.653-10.614,10.013-15.903c2.409,9.81,3.55,18.828,5.293,27.729
	c3.175,16.223,10.274,30.552,21.866,42.477c5.889,6.06,12.467,11.149,21.132,12.455c21.43,3.229,39.028-11.775,39.428-34.006
	c0.391-21.709-4.204-42.707-11.114-63.118c-2.469-7.296-5.781-14.992-10.843-20.566c-8.205-9.034-19.653-13.645-31.685-15.709
	c-28.211-4.839-56.632,14.537-64.717,43.632c-1.599,5.754-3.795,11.339-5.511,17.063
	C141.958,447.385,139.473,456.314,136.913,465.223z"/>
<path fill-rule="evenodd" clip-rule="evenodd" fill="#FFFFFF" d="M594.792,483.195c9.106-15.952,9.434-34.479,14.959-51.528
	c1.128-3.479,2.066-7.069,3.661-10.33c0.819-1.675,2.893-2.737,4.398-4.076c0.942,1.636,2.649,3.25,2.693,4.909
	c0.195,7.307,0.087,14.634-0.255,21.938c-0.279,5.984-1.013,11.949-1.603,17.916c-0.342,3.454,0.787,6.533,4.361,6.481
	c1.888-0.026,4.345-2.439,5.505-4.394c8.567-14.431,16.778-29.074,25.397-43.474c0.912-1.523,3.735-1.903,5.672-2.813
	c0.552,1.914,1.957,4.062,1.509,5.703c-1.965,7.205-4.359,14.302-6.801,21.367c-2.881,8.338-5.993,16.597-8.96,24.905
	c-1.049,2.938-1.053,6.256,2.246,7.127c2.204,0.582,5.815-0.217,7.371-1.8c7.701-7.829,14.783-16.266,22.427-24.156
	c1.831-1.891,4.973-2.512,7.511-3.716c-0.089,2.772,0.729,6.019-0.429,8.232c-4.386,8.388-9.4,16.447-14.205,24.614
	c-0.928,1.576-2.478,2.969-2.855,4.646c-0.683,3.031-2.071,7.544-0.655,9.003c1.896,1.955,6.254,2.356,9.421,2.047
	c4.578-0.449,8.985-2.659,13.563-3.103c2.938-0.284,6.052,1.258,9.087,1.981c-1.958,2.296-3.481,5.407-5.959,6.727
	c-6.146,3.275-12.857,5.477-19.079,8.627c-3.07,1.555-6.149,3.812-8.196,6.526c-4.901,6.503-8.714,13.859-13.876,20.121
	c-4.499,5.458-9.721,10.68-15.58,14.562c-6.295,4.171-10.63,9.161-13.578,15.995c-9.255,21.448-20.133,42.02-33.009,61.578
	c-11.095,16.854-25.11,29.803-43.547,38.439c-21.561,10.101-42.472,21.582-63.992,31.771c-11.373,5.385-18.52,13.028-20,25.776
	c-0.548,4.72-2.055,9.329-3.123,13.988c-0.536,0.197-1.071,0.396-1.607,0.593c-2.872-4.519-6.625-8.704-8.475-13.608
	c-12.42-32.921-12.225-65.436,4.238-97.181c2.072-3.997,5.011-6.117,9.648-6.82c23.829-3.615,46.989-9.682,68.677-20.46
	c3.461-1.72,6.998-4.146,9.316-7.158c10.96-14.238,21.512-28.791,32.201-43.237c1.685-2.276,3.186-4.707,5.027-6.846
	c3.329-3.864,3.391-7.838,1.759-12.536c-2.016-5.802-3.671-11.794-4.777-17.833c-1.722-9.393-5.363-17.777-11.098-25.372
	c-2.097-2.778-3.991-5.768-5.559-8.873c-2.218-4.396-0.678-6.997,4.27-7.559c5.529-0.629,10.173,1.358,13.888,5.39
	c2.255,2.446,4.075,5.313,6.452,7.618c2.209,2.142,4.665,4.292,7.416,5.564c10.455,4.836,17.271,12.734,20.971,23.501
	c0.54,1.573,0.73,3.335,1.564,4.72c0.756,1.255,2.169,2.115,3.292,3.149c0.724-1.375,2.074-2.751,2.072-4.125
	c-0.013-9.869-4.173-18.094-11.12-24.806C603.37,489.373,599.043,486.529,594.792,483.195z"/>
<path fill-rule="evenodd" clip-rule="evenodd" fill="#FFFFFF" d="M176.359,58.757c-4.127,3.471-8.168,7.051-12.396,10.395
	c-26.597,21.034-46.904,47.076-61.376,77.635c-2.894,6.11-4.237,12.938-6.647,19.302c-1.012,2.671-2.367,5.819-4.549,7.336
	c-10.389,7.216-16.508,17.565-22.205,28.363c-3.019,5.723-6.537,11.192-9.373,16.999c-5.176,10.598-10.385,21.206-14.896,32.094
	c-5.407,13.05-10.094,26.396-15.113,39.607c-0.201,0.529-0.604,0.981-1.525,1.24c1.399-47.2,15.044-90.799,39.321-131.059
	c26.583-44.087,60.659-80.493,107.761-102.998C175.694,58.033,176.026,58.395,176.359,58.757z"/>
<path fill-rule="evenodd" clip-rule="evenodd" fill="#FFFFFF" d="M118.316,917.471c1.566-1.385,2.76-2.423,3.936-3.482
	c6.796-6.131,13.686-12.164,20.36-18.426c9.942-9.328,19.862-18.689,29.516-28.313c3.354-3.344,6.412-7.218,8.709-11.348
	c8.825-15.867,16.714-32.279,26.028-47.844c11.486-19.193,19.727-39.579,25.973-60.936c6.788-23.207,14.574-46.07,25.339-67.787
	c2.487-5.016,5.699-9.673,8.577-14.495c0.395,0.177,0.789,0.354,1.183,0.532c-2.366,6.759-4.639,13.552-7.114,20.271
	c-8.694,23.597-17.284,47.234-26.289,70.713c-3.313,8.636-3.606,16.799,0.519,25.083c1.399,2.811,2.077,5.396-0.354,8.269
	c-19.697,23.275-34.754,49.614-49.686,76.003c-6.313,11.156-11.772,22.796-18.082,33.954c-2.467,4.363-5.99,8.215-9.502,11.845
	c-0.936,0.968-4.522,1.024-5.261,0.139c-1.079-1.294-1.132-3.896-0.796-5.793c0.363-2.051,2.016-3.862,2.444-5.916
	c0.242-1.161-0.502-3.209-1.437-3.739c-0.896-0.51-3.366-0.015-3.84,0.799c-2.144,3.675-4.415,7.463-5.487,11.516
	c-0.872,3.297-2.229,5.698-5.277,6.551c-5.543,1.551-11.208,2.673-16.851,3.84C120.362,919.021,119.606,918.209,118.316,917.471z"/>
<path fill-rule="evenodd" clip-rule="evenodd" fill="#FFFFFF" d="M409.769,617.718c-0.641,1.307-1.279,2.613-1.921,3.92
	c-5.566,11.348-11.294,22.62-16.607,34.085c-1.7,3.667-3.44,5.12-7.805,4.938c-24.864-1.032-49.612,0.187-74.059,5.297
	c-1.303,0.271-2.619,0.505-3.941,0.633c-0.436,0.042-0.908-0.307-2.14-0.765c1.603-3.841,3.013-7.677,4.782-11.34
	c2.099-4.345,4.744-8.434,6.7-12.834c1.415-3.185,3.213-3.663,6.291-2.657c2.988,0.977,6.134,1.508,9.236,2.1
	c9.101,1.735,17.592,0.679,26.11-3.618c13.647-6.885,27.702-12.984,41.733-19.073c3.327-1.444,7.242-1.532,10.888-2.244
	C409.281,616.679,409.525,617.198,409.769,617.718z"/>
<path fill-rule="evenodd" clip-rule="evenodd" fill="#FFFFFF" d="M408.216,597.107c17.017-0.124,33.499,0.373,49.351-4.842
	c15.578-5.125,30.09-12.206,42.989-22.957c0.276,6.377-2.723,11.324-6.638,15.318c-3.838,3.916-8.709,6.82-13.482,10.438
	c15.487,4.876,28.996-2.399,43.111-6.679c-0.891,0.572-1.733,1.244-2.68,1.703c-16.867,8.175-34.497,14.098-52.925,17.524
	c-2.521,0.469-5.383,0.339-7.851-0.354c-11.196-3.149-22.315-2.913-33.577-0.373C418.21,608.76,411.216,605.188,408.216,597.107z"/>
<path fill-rule="evenodd" clip-rule="evenodd" fill="#FFFFFF" d="M424.484,269.9c-11.959,0-24.797,0-37.842,0
	c-2.112-18.254-4.31-37.248-6.565-56.74C395.119,232.379,409.918,251.29,424.484,269.9z"/>
<path fill-rule="evenodd" clip-rule="evenodd" fill="#FFFFFF" d="M602.522,412.621c-1.788-17.042-3.526-33.604-5.264-50.159
	c15.52-2.135,32.431,23.231,29.538,44.056C614.811,401.443,612.616,401.972,602.522,412.621z"/>
<path fill-rule="evenodd" clip-rule="evenodd" fill="#FFFFFF" d="M188.336,314.382c-10.409,4.456-21.146,9.052-32.185,13.777
	c4.161-17.859,8.4-36.06,12.811-54.992C175.77,287.649,182.185,301.295,188.336,314.382z"/>
<path fill-rule="evenodd" clip-rule="evenodd" fill="#FFFFFF" d="M152.849,925.228c-2.31,6.43-8.997,10.475-14.587,9.114
	c-1.017-0.248-2.03-1.017-2.726-1.821c-0.255-0.294,0.258-1.908,0.694-2.044C141.625,928.799,146.052,923.993,152.849,925.228z"/>
<path fill-rule="evenodd" clip-rule="evenodd" d="M136.913,465.223c2.56-8.908,5.046-17.838,7.708-26.716
	c1.716-5.725,3.912-11.31,5.511-17.063c8.085-29.095,36.506-48.471,64.717-43.632c12.032,2.064,23.48,6.675,31.685,15.709
	c5.063,5.574,8.374,13.271,10.843,20.566c6.91,20.411,11.504,41.409,11.114,63.118c-0.4,22.23-17.999,37.234-39.428,34.006
	c-8.666-1.306-15.243-6.396-21.132-12.455c-11.592-11.925-18.69-26.254-21.866-42.477c-1.743-8.9-2.884-17.919-5.293-27.729
	c-3.36,5.289-6.984,10.432-10.013,15.903c-3.543,6.401-6.7,13.028-9.765,19.677c-1.597,3.464-3.777,4.587-7.509,3.807
	c-5.523-1.153-11.128-1.917-16.697-2.846C136.788,465.092,136.913,465.223,136.913,465.223z"/>
<ellipse fill-rule="evenodd" clip-rule="evenodd" cx="351.945" cy="538.367" rx="4.5" ry="3.616"/>
</svg>
