<?xml version="1.0" encoding="utf-8"?>
<!-- Generator: Adobe Illustrator 16.0.3, SVG Export Plug-In . SVG Version: 6.00 Build 0)  -->
<!DOCTYPE svg PUBLIC "-//W3C//DTD SVG 1.1//EN" "http://www.w3.org/Graphics/SVG/1.1/DTD/svg11.dtd">
<svg version="1.1" id="レイヤー_1" xmlns="http://www.w3.org/2000/svg" xmlns:xlink="http://www.w3.org/1999/xlink" x="0px"
	 y="0px" width="233.26px" height="386.247px" viewBox="0 0 233.26 386.247" enable-background="new 0 0 233.26 386.247"
	 xml:space="preserve">
<g id="l1">
	<path fill-rule="evenodd" clip-rule="evenodd" d="M8.257,319.609c4.273-5.675,8.479-11.403,12.848-17.004
		c2.684-3.439,6.124-3.975,10.275-2.566c4.346,1.476,8.877,2.399,13.328,3.564c0.236-0.394,0.473-0.787,0.707-1.182
		c-7.205-6.688-14.411-13.376-22.645-21.017c7.805-5.933,14.756-12.13,22.57-16.922c9.603-5.889,19.861-10.732,29.971-15.756
		c3.541-1.759,5.195-3.728,4.967-7.98c-0.283-5.27,0.401-10.607,0.869-15.897c0.66-7.44,4.816-12.589,11.205-16.04
		c3.505-1.894,7.143-3.544,10.72-5.306c1.489-0.732,3.571-1.074,4.362-2.27c3.582-5.408,9.984-5.045,14.865-7.717
		c0.671-0.366,1.617-0.7,2.292-0.517c6.999,1.902,13.97,3.914,20.944,5.892c-1.592-0.172-3.178-0.339-4.984-0.529
		c3.094,7.814,4.529,9.469,8.846,9.919c-1.406-3.323-2.727-6.437-4.045-9.55c1.439,0.945,3.551,1.56,4.209,2.891
		c3.748,7.594,7.258,15.311,10.613,23.087c1.246,2.888,2.984,4.03,6.094,3.773c2.979-0.245,6.076,0.357,8.973-0.193
		c2.891-0.55,5.979-1.552,8.311-3.267c5.129-3.77,14.059-4.508,18.24-0.899c3.963,3.422,5.518,14.062,2.145,18.605
		c-1.543,2.079-4.285,3.955-6.797,4.509c-10.021,2.212-20.15,3.969-30.275,5.675c-3.576,0.603-7.258,0.58-11.27,0.87
		c-2.326,8.718-4.621,17.331,0.58,26.219c6.715,11.476,13.041,23.185,19.285,34.925c1.191,2.24,1.174,5.106,1.834,7.653
		c0.238,0.922,0.656,1.902,1.279,2.602c5.201,5.842,10.408,11.679,15.738,17.401c2.887,3.101,6.264,3.564,10.471,2.313
		c3.088-0.917,6.619-0.341,9.953-0.431c-0.746,3.379-0.758,7.186-2.412,10.035c-2.475,4.258-5.936,8.001-9.299,11.665
		c-2.91,3.169-6.395,3.517-10.398,1.411c-11.104-5.835-21.182-12.914-30.688-21.202c-6.66-5.809-15.066-9.635-22.791-14.182
		c-0.984-0.58-2.602-0.399-3.852-0.168c-15.791,2.924-31.108,0.876-46.232-4.025c-1.777-0.576-4.459-0.637-5.881,0.317
		c-13.046,8.744-26.389,7.473-39.971,1.719c-2.904-1.23-5.85-2.422-8.605-3.94c-5.457-3.01-10.865-4.545-17.061-1.952
		c-3.406,1.426-6.867,0.784-9.289-2.534C8.257,320.942,8.257,320.276,8.257,319.609z M84.152,264.321
		c-0.785,0.284-1.57,0.567-2.355,0.852c2.015,2.945,3.496,6.579,6.181,8.661c3.282,2.546,11.302,1.024,14.114-1.627
		c2.74-2.583,4.386-10.313,1.983-12.396c-5.034-4.367-3.412-9.661-3.587-15.081c-0.376-11.671,4.994-17.502,16.257-19.127
		c3.515-0.507,7.096-2.001,10.163-3.848c5.647-3.399,7.245-10.856,4.138-16.735c-2.663-5.043-7.463-6.419-14.219-3.518
		c-7.317,3.142-14.516,6.578-21.66,10.098c-7.232,3.562-10.913,9.587-10.986,17.62C84.073,240.919,84.152,252.621,84.152,264.321z
		 M156.61,249.356c1.416,0.15,2.586,0.525,3.666,0.35c12.393-2.024,24.805-3.976,37.123-6.394c1.762-0.347,3.729-2.813,4.438-4.728
		c1.656-4.47-0.146-10.641-2.961-12.322c-3.691-2.207-10.35-0.525-14.059,3.034c-1.354,1.3-3.609,2.227-5.496,2.303
		c-6.746,0.271-13.512,0.106-20.342,0.106C158.181,237.653,157.437,243.204,156.61,249.356z"/>
	<path fill-rule="evenodd" clip-rule="evenodd" fill="#FFFFFF" d="M84.152,264.321c0-11.7-0.079-23.402,0.028-35.102
		c0.073-8.033,3.754-14.059,10.986-17.62c7.145-3.52,14.343-6.956,21.66-10.098c6.756-2.901,11.556-1.525,14.219,3.518
		c3.107,5.879,1.51,13.336-4.138,16.735c-3.067,1.847-6.648,3.341-10.163,3.848c-11.263,1.625-16.633,7.456-16.257,19.127
		c0.175,5.42-1.447,10.714,3.587,15.081c2.402,2.083,0.757,9.813-1.983,12.396c-2.813,2.651-10.832,4.173-14.114,1.627
		c-2.685-2.082-4.166-5.716-6.181-8.661C82.582,264.889,83.367,264.605,84.152,264.321z"/>
	<path fill-rule="evenodd" clip-rule="evenodd" fill="#FFFFFF" d="M156.61,249.356c0.826-6.152,1.57-11.703,2.369-17.65
		c6.83,0,13.596,0.165,20.342-0.106c1.887-0.076,4.143-1.003,5.496-2.303c3.709-3.56,10.367-5.241,14.059-3.034
		c2.814,1.682,4.617,7.853,2.961,12.322c-0.709,1.915-2.676,4.381-4.438,4.728c-12.318,2.418-24.73,4.369-37.123,6.394
		C159.196,249.882,158.026,249.507,156.61,249.356z M191.979,229.409c-5.107,2.535-5.379,7.952-0.883,11.395
		C191.374,237.215,191.659,233.551,191.979,229.409z"/>
	<path fill-rule="evenodd" clip-rule="evenodd" fill="#FFFFFF" d="M145.353,198.732c1.318,3.113,2.639,6.227,4.045,9.55
		c-4.316-0.45-5.752-2.104-8.846-9.919c1.807,0.19,3.393,0.357,4.984,0.529C145.54,198.896,145.353,198.732,145.353,198.732z"/>
	<path fill-rule="evenodd" clip-rule="evenodd" d="M191.979,229.409c-0.32,4.142-0.605,7.806-0.883,11.395
		C186.601,237.361,186.872,231.944,191.979,229.409z"/>
	<animate attributeName="opacity" values="1;1;0;0" keyTimes="0;0.49;0.5;1" dur="1s" repeatCount="indefinite" />
</g>
<g id="r1">
	<path fill-rule="evenodd" clip-rule="evenodd" d="M57.925,313.489c-11.295-9.834-21.499-18.869-31.894-27.679
		c-3.323-2.816-3.267-5.074,0.096-7.449c10.307-7.278,20.533-14.683,31.03-21.68c5.798-3.865,12.028-7.097,18.153-10.45
		c3.131-1.715,3.739-3.582,2.75-7.224c-1.726-6.356-2.753-12.956-3.461-19.52c-0.776-7.185,2.737-12.705,8.787-16.165
		c5.308-3.035,10.969-5.548,16.692-7.71c1.872-0.707,4.621-0.041,6.642,0.792c4.492,1.85,8.66,1.985,12.784-0.746
		c3.897-2.58,7.807-2.657,12.262-1.039c4.99,1.813,10.295,2.763,16.074,4.244c-0.098,0.083,0.816-0.706,1.73-1.495
		c0.646,0.781,1.826,1.541,1.859,2.348c0.406,9.69,9.066,13.432,14.111,19.752c0.334,0.42,1.324,0.783,1.752,0.593
		c5.146-2.286,10.262-4.652,15.336-7.098c0.453-0.219,0.824-1.142,0.809-1.726c-0.225-8.205,6.064-9.885,11.936-11.658
		c5.432-1.642,8.811,1.899,11.654,5.759c3.543,4.81,3.861,10.811,1.014,14.92c-0.75,1.085-1.619,2.166-2.652,2.966
		c-8.393,6.491-16.615,13.231-25.332,19.257c-6.867,4.746-14.51,7.657-23.789,3.147c-0.961,11.83-6.938,22.731-0.168,34.24
		c6.572,11.17,12.686,22.608,18.98,33.94c1.025,1.846,1.951,3.749,3.037,5.847c-3.141,1.881-5.809,3.479-9.48,5.678
		c4.684,7.8,9.025,15.598,14.041,22.935c1.074,1.571,4.563,1.602,6.986,2.117c3.227,0.687,7.996,0.04,9.43,1.961
		c2.545,3.411-1.125,6.805-3.58,9.38c-4.104,4.309-8.479,8.384-12.973,12.286c-3.033,2.633-6.084,1.132-8.346-1.326
		c-9.551-10.379-18.887-20.957-28.441-31.335c-5.24-5.693-10.697-9.495-19.688-9.119c-10.435,0.437-21.035-2.181-31.501-3.849
		c-2.844-0.453-4.919-0.698-6.991,1.729c-8.737,10.23-20.313,13.903-33.353,14.18c-6.328,0.135-12.723,0.082-18.943,1.043
		c-3.122,0.482-5.87,3.151-8.884,4.635c-2.388,1.176-4.924,2.052-7.394,3.061c-0.801-2.35-1.827-4.652-2.322-7.063
		c-0.323-1.574,0.13-3.307,0.222-4.969c0.576-10.36,4.024-17.581,16.199-18.348c6.31-0.397,12.521-3.166,18.646-5.245
		C54.041,316.627,55.97,314.766,57.925,313.489z M131.143,224.646c0.297-0.333,0.596-0.665,0.893-0.997
		c1.426,0.976,2.889,1.899,4.268,2.936c5.715,4.292,11.477,8.523,17.084,12.953c7.939,6.274,16.008,5.894,23.9,0.321
		c8.787-6.206,17.311-12.789,25.904-19.267c0.902-0.68,1.643-1.673,2.229-2.657c2.291-3.832,1.457-7.744-1.279-10.603
		c-2.057-2.149-5.582-4.6-8.053-4.229c-3.361,0.503-8.705,1.816-8.826,6.078c-0.176,6.112-3.791,7.771-8.227,9.525
		c-3.086,1.221-6.215,2.469-9.045,4.171c-3.248,1.952-5.289,1.029-7.688-1.514c-6.16-6.533-12.447-12.963-18.959-19.144
		c-5.455-5.177-11.523-5.565-16.143-1.611c-6.123,5.241-8.845,18.167-5.357,25.433c2.531,5.273,7.094,6.478,12.16,3.105
		C133.051,227.648,132.096,226.147,131.143,224.646z M106.83,196.996c-6.316,2.625-11.774,4.534-16.907,7.097
		c-12.979,6.48-16.235,23.242-6.514,35.405C91.053,225.625,98.565,211.994,106.83,196.996z"/>
	<path fill-rule="evenodd" clip-rule="evenodd" fill="#FFFFFF" d="M131.143,224.646c0.953,1.502,1.908,3.003,2.861,4.501
		c-5.066,3.372-9.629,2.168-12.16-3.105c-3.488-7.266-0.766-20.191,5.357-25.433c4.619-3.954,10.688-3.565,16.143,1.611
		c6.512,6.181,12.799,12.61,18.959,19.144c2.398,2.543,4.439,3.466,7.688,1.514c2.83-1.702,5.959-2.95,9.045-4.171
		c4.436-1.754,8.051-3.413,8.227-9.525c0.121-4.262,5.465-5.575,8.826-6.078c2.471-0.37,5.996,2.08,8.053,4.229
		c2.736,2.858,3.57,6.771,1.279,10.603c-0.586,0.984-1.326,1.978-2.229,2.657c-8.594,6.478-17.117,13.061-25.904,19.267
		c-7.893,5.572-15.961,5.953-23.9-0.321c-5.607-4.43-11.369-8.661-17.084-12.953c-1.379-1.036-2.842-1.96-4.268-2.936
		C131.738,223.98,131.439,224.313,131.143,224.646z"/>
	<path fill-rule="evenodd" clip-rule="evenodd" fill="#FFFFFF" d="M106.83,196.996c-8.265,14.998-15.776,28.629-23.421,42.502
		c-9.722-12.163-6.465-28.925,6.514-35.405C95.055,201.53,100.513,199.621,106.83,196.996z"/>
	<animate attributeName="opacity" values="0;0;1;1" keyTimes="0;0.49;0.5;1" dur="1s" repeatCount="indefinite" />
</g>
<g>
	<path fill-rule="evenodd" clip-rule="evenodd" d="M115.229,199.992c-0.667,0-1.333,0-2,0c-8.771-3.602-17.542-7.203-26.504-10.883
		c0.482,1.467,0.849,2.582,1.383,4.208c-13.894-1.858-24.604-8.727-35.194-16.792c1.347,2.369,2.694,4.739,4.433,7.797
		c-14.006-4.01-22.868-12.616-29.539-24.486c0.347,3.881,0.694,7.763,1.041,11.644c-0.396,0.209-0.792,0.418-1.188,0.627
		c-2.082-4.327-4.119-8.677-6.254-12.978c-4.907-9.884-6.236-20.443-4.449-31.098c2.687-16.01,5.811-31.971,9.447-47.792
		c6.591-28.68,21.122-52.157,48.04-65.735c43.064-21.724,85.366-19.036,125.144,8.009c21.741,14.782,34.797,35.619,33.595,63.195
		c-0.554,12.679-4.399,24.046-16.124,30.836c-3.414,1.977-5.175,4.336-5.785,7.971c-0.496,2.949-1.803,5.979-1.438,8.803
		c0.528,4.089,1.152,9.004,3.681,11.817c4.886,5.438,5.582,11.028,4.024,17.521c-3.618,15.09-14.373,22.755-28.457,26.186
		c-7.15,1.742-14.678,1.931-22.604,2.891c1.518,1.895,2.98,3.72,4.807,6c-20.425,3.22-39.48,1.825-57.111-10.807
		C114.59,192.048,114.91,196.021,115.229,199.992z M154.858,168.734c-0.383,0.259-0.768,0.519-1.15,0.777
		c2.478,4.95,4.83,9.971,7.531,14.796c0.601,1.073,2.378,1.96,3.695,2.089c14.141,1.382,27.683-0.134,39.238-9.414
		c7.05-5.661,10.771-13.042,10.124-22.247c-0.109-1.558-0.479-3.745-1.536-4.484c-8.607-6.013-7.831-14.394-6.06-22.976
		c1.063-5.147,2.567-10.203,3.986-15.74c-3.104-0.19-5.594-0.344-8.308-0.511c0.72,2.276,1.236,3.907,1.914,6.051
		c-1.979-0.446-3.305-0.746-5.07-1.145c0.265,1.593,0.511,2.709,0.629,3.838c0.977,9.358-0.719,18.267-5.002,26.593
		c-0.68,1.323-2.729,2.501-4.229,2.613c-0.768,0.058-2.291-2.317-2.48-3.727c-0.463-3.431-0.982-7.065-0.325-10.39
		c1.32-6.68,3.41-13.207,5.261-20.088c-10.768,3.248-14.953,12.203-18.306,22.183c-1.075-1.79-1.943-3.427-2.089-5.124
		c-0.982-11.5,12.342-24.708,23.936-24.036c1.53,0.089,3.893-0.366,4.564-1.41c5.784-8.988,6.394-18.74,3.777-29.809
		c-2.813,4.543-5.121,8.27-7.298,11.783c2.565,1.546,4.903,2.953,7.24,4.361c-0.229,0.445-0.458,0.891-0.688,1.336
		c-0.902-0.264-1.805-0.525-2.707-0.791c-4.477-1.317-8.023-0.776-11.531,3.104c-7.884,8.724-17.495,15.331-28.037,20.593
		c-1.468,0.732-3.455,2.203-3.609,3.52c-2.318,19.717-2.049,38.806,14.922,53.149c0.155,0.132,0.02,0.609,0.02,1.11
		C166.177,175.692,160.451,172.434,154.858,168.734z"/>
	<path fill-rule="evenodd" clip-rule="evenodd" fill="#FFFFFF" d="M154.858,168.734c5.593,3.699,11.318,6.958,18.412,6.006
		c0-0.501,0.136-0.979-0.02-1.11c-16.971-14.344-17.24-33.433-14.922-53.149c0.154-1.316,2.142-2.787,3.609-3.52
		c10.542-5.262,20.153-11.869,28.037-20.593c3.508-3.881,7.055-4.422,11.531-3.104c0.902,0.266,1.805,0.527,2.707,0.791
		c0.23-0.445,0.459-0.891,0.688-1.336c-2.337-1.408-4.675-2.815-7.24-4.361c2.177-3.514,4.484-7.24,7.298-11.783
		c2.616,11.068,2.007,20.82-3.777,29.809c-0.672,1.044-3.034,1.499-4.564,1.41c-11.594-0.672-24.918,12.536-23.936,24.036
		c0.146,1.697,1.014,3.334,2.089,5.124c3.353-9.979,7.538-18.935,18.306-22.183c-1.851,6.881-3.94,13.408-5.261,20.088
		c-0.657,3.324-0.138,6.959,0.325,10.39c0.189,1.409,1.713,3.784,2.48,3.727c1.5-0.112,3.549-1.29,4.229-2.613
		c4.283-8.326,5.979-17.234,5.002-26.593c-0.118-1.129-0.364-2.245-0.629-3.838c1.766,0.398,3.092,0.698,5.07,1.145
		c-0.678-2.144-1.194-3.774-1.914-6.051c2.714,0.167,5.203,0.32,8.308,0.511c-1.419,5.537-2.924,10.593-3.986,15.74
		c-1.771,8.582-2.548,16.963,6.06,22.976c1.058,0.739,1.427,2.927,1.536,4.484c0.647,9.205-3.074,16.586-10.124,22.247
		c-11.556,9.28-25.098,10.796-39.238,9.414c-1.317-0.129-3.095-1.016-3.695-2.089c-2.701-4.825-5.054-9.846-7.531-14.796
		C154.091,169.253,154.476,168.993,154.858,168.734z"/>
</g>
<ellipse fill-rule="evenodd" clip-rule="evenodd" cx="114.25" cy="373.997" rx="114.25" ry="12.25"/>
</svg>
