<svg xmlns="http://www.w3.org/2000/svg" xml:space="preserve" width="233.26" height="386.247" viewBox="0 0 233.26 386.247"><g><path fill-rule="evenodd" d="M8.257 319.609c4.273-5.675 8.479-11.403 12.848-17.004 2.684-3.439 6.124-3.975 10.275-2.566 4.346 1.476 8.877 2.399 13.328 3.564q.355-.59.707-1.182L22.77 281.404c7.805-5.933 14.756-12.13 22.57-16.922 9.603-5.889 19.861-10.732 29.971-15.756 3.541-1.759 5.195-3.728 4.967-7.98-.283-5.27.401-10.607.869-15.897.66-7.44 4.816-12.589 11.205-16.04 3.505-1.894 7.143-3.544 10.72-5.306 1.489-.732 3.571-1.074 4.362-2.27 3.582-5.408 9.984-5.045 14.865-7.717.671-.366 1.617-.7 2.292-.517 6.999 1.902 13.97 3.914 20.944 5.892-1.592-.172-3.178-.339-4.984-.529 3.094 7.814 4.529 9.469 8.846 9.919-1.406-3.323-2.727-6.437-4.045-9.55 1.439.945 3.551 1.56 4.209 2.891 3.748 7.594 7.258 15.311 10.613 23.087 1.246 2.888 2.984 4.03 6.094 3.773 2.979-.245 6.076.357 8.973-.193 2.891-.55 5.979-1.552 8.311-3.267 5.129-3.77 14.059-4.508 18.24-.899 3.963 3.422 5.518 14.062 2.145 18.605-1.543 2.079-4.285 3.955-6.797 4.509-10.021 2.212-20.15 3.969-30.275 5.675-3.576.603-7.258.58-11.27.87-2.326 8.718-4.621 17.331.58 26.219 6.715 11.476 13.041 23.185 19.285 34.925 1.191 2.24 1.174 5.106 1.834 7.653.238.922.656 1.902 1.279 2.602 5.201 5.842 10.408 11.679 15.738 17.401 2.887 3.101 6.264 3.564 10.471 2.313 3.088-.917 6.619-.341 9.953-.431-.746 3.379-.758 7.186-2.412 10.035-2.475 4.258-5.936 8.001-9.299 11.665-2.91 3.169-6.395 3.517-10.398 1.411-11.104-5.835-21.182-12.914-30.688-21.202-6.66-5.809-15.066-9.635-22.791-14.182-.984-.58-2.602-.399-3.852-.168-15.791 2.924-31.108.876-46.232-4.025-1.777-.576-4.459-.637-5.881.317-13.046 8.744-26.389 7.473-39.971 1.719-2.904-1.23-5.85-2.422-8.605-3.94-5.457-3.01-10.865-4.545-17.061-1.952-3.406 1.426-6.867.784-9.289-2.534zm75.895-55.288-2.355.852c2.015 2.945 3.496 6.579 6.181 8.661 3.282 2.546 11.302 1.024 14.114-1.627 2.74-2.583 4.386-10.313 1.983-12.396-5.034-4.367-3.412-9.661-3.587-15.081-.376-11.671 4.994-17.502 16.257-19.127 3.515-.507 7.096-2.001 10.163-3.848 5.647-3.399 7.245-10.856 4.138-16.735-2.663-5.043-7.463-6.419-14.219-3.518-7.317 3.142-14.516 6.578-21.66 10.098-7.232 3.562-10.913 9.587-10.986 17.62-.108 11.699-.029 23.401-.029 35.101m72.458-14.965c1.416.15 2.586.525 3.666.35 12.393-2.024 24.805-3.976 37.123-6.394 1.762-.347 3.729-2.813 4.438-4.728 1.656-4.47-.146-10.641-2.961-12.322-3.691-2.207-10.35-.525-14.059 3.034-1.354 1.3-3.609 2.227-5.496 2.303-6.746.271-13.512.106-20.342.106-.798 5.948-1.542 11.499-2.369 17.651" clip-rule="evenodd"/><path fill="#fff" fill-rule="evenodd" d="M84.152 264.321c0-11.7-.079-23.402.028-35.102.073-8.033 3.754-14.059 10.986-17.62 7.145-3.52 14.343-6.956 21.66-10.098 6.756-2.901 11.556-1.525 14.219 3.518 3.107 5.879 1.51 13.336-4.138 16.735-3.067 1.847-6.648 3.341-10.163 3.848-11.263 1.625-16.633 7.456-16.257 19.127.175 5.42-1.447 10.714 3.587 15.081 2.402 2.083.757 9.813-1.983 12.396-2.813 2.651-10.832 4.173-14.114 1.627-2.685-2.082-4.166-5.716-6.181-8.661zM156.61 249.356l2.369-17.65c6.83 0 13.596.165 20.342-.106 1.887-.076 4.143-1.003 5.496-2.303 3.709-3.56 10.367-5.241 14.059-3.034 2.814 1.682 4.617 7.853 2.961 12.322-.709 1.915-2.676 4.381-4.438 4.728-12.318 2.418-24.73 4.369-37.123 6.394-1.08.175-2.25-.2-3.666-.351m35.369-19.947c-5.107 2.535-5.379 7.952-.883 11.395zM145.353 198.732c1.318 3.113 2.639 6.227 4.045 9.55-4.316-.45-5.752-2.104-8.846-9.919 1.807.19 3.393.357 4.984.529z" clip-rule="evenodd"/><path fill-rule="evenodd" d="m191.979 229.409-.883 11.395c-4.495-3.443-4.224-8.86.883-11.395" clip-rule="evenodd"/><animate attributeName="opacity" dur="1s" keyTimes="0;0.49;0.5;1" repeatCount="indefinite" values="1;1;0;0"/></g><g><path fill-rule="evenodd" d="M57.925 313.489c-11.295-9.834-21.499-18.869-31.894-27.679-3.323-2.816-3.267-5.074.096-7.449 10.307-7.278 20.533-14.683 31.03-21.68 5.798-3.865 12.028-7.097 18.153-10.45 3.131-1.715 3.739-3.582 2.75-7.224-1.726-6.356-2.753-12.956-3.461-19.52-.776-7.185 2.737-12.705 8.787-16.165 5.308-3.035 10.969-5.548 16.692-7.71 1.872-.707 4.621-.041 6.642.792 4.492 1.85 8.66 1.985 12.784-.746 3.897-2.58 7.807-2.657 12.262-1.039 4.99 1.813 10.295 2.763 16.074 4.244-.098.083.816-.706 1.73-1.495.646.781 1.826 1.541 1.859 2.348.406 9.69 9.066 13.432 14.111 19.752.334.42 1.324.783 1.752.593a543 543 0 0 0 15.336-7.098c.453-.219.824-1.142.809-1.726-.225-8.205 6.064-9.885 11.936-11.658 5.432-1.642 8.811 1.899 11.654 5.759 3.543 4.81 3.861 10.811 1.014 14.92-.75 1.085-1.619 2.166-2.652 2.966-8.393 6.491-16.615 13.231-25.332 19.257-6.867 4.746-14.51 7.657-23.789 3.147-.961 11.83-6.938 22.731-.168 34.24 6.572 11.17 12.686 22.608 18.98 33.94 1.025 1.846 1.951 3.749 3.037 5.847l-9.48 5.678c4.684 7.8 9.025 15.598 14.041 22.935 1.074 1.571 4.563 1.602 6.986 2.117 3.227.687 7.996.04 9.43 1.961 2.545 3.411-1.125 6.805-3.58 9.38-4.104 4.309-8.479 8.384-12.973 12.286-3.033 2.633-6.084 1.132-8.346-1.326-9.551-10.379-18.887-20.957-28.441-31.335-5.24-5.693-10.697-9.495-19.688-9.119-10.435.437-21.035-2.181-31.501-3.849-2.844-.453-4.919-.698-6.991 1.729-8.737 10.23-20.313 13.903-33.353 14.18-6.328.135-12.723.082-18.943 1.043-3.122.482-5.87 3.151-8.884 4.635-2.388 1.176-4.924 2.052-7.394 3.061-.801-2.35-1.827-4.652-2.322-7.063-.323-1.574.13-3.307.222-4.969.576-10.36 4.024-17.581 16.199-18.348 6.31-.397 12.521-3.166 18.646-5.245 2.296-.779 4.225-2.64 6.18-3.917m73.218-88.843.893-.997c1.426.976 2.889 1.899 4.268 2.936 5.715 4.292 11.477 8.523 17.084 12.953 7.939 6.274 16.008 5.894 23.9.321 8.787-6.206 17.311-12.789 25.904-19.267.902-.68 1.643-1.673 2.229-2.657 2.291-3.832 1.457-7.744-1.279-10.603-2.057-2.149-5.582-4.6-8.053-4.229-3.361.503-8.705 1.816-8.826 6.078-.176 6.112-3.791 7.771-8.227 9.525-3.086 1.221-6.215 2.469-9.045 4.171-3.248 1.952-5.289 1.029-7.688-1.514-6.16-6.533-12.447-12.963-18.959-19.144-5.455-5.177-11.523-5.565-16.143-1.611-6.123 5.241-8.845 18.167-5.357 25.433 2.531 5.273 7.094 6.478 12.16 3.105q-1.43-2.248-2.861-4.5m-24.313-27.65c-6.316 2.625-11.774 4.534-16.907 7.097-12.979 6.48-16.235 23.242-6.514 35.405z" clip-rule="evenodd"/><path fill="#fff" fill-rule="evenodd" d="M131.143 224.646q1.43 2.254 2.861 4.501c-5.066 3.372-9.629 2.168-12.16-3.105-3.488-7.266-.766-20.191 5.357-25.433 4.619-3.954 10.688-3.565 16.143 1.611 6.512 6.181 12.799 12.61 18.959 19.144 2.398 2.543 4.439 3.466 7.688 1.514 2.83-1.702 5.959-2.95 9.045-4.171 4.436-1.754 8.051-3.413 8.227-9.525.121-4.262 5.465-5.575 8.826-6.078 2.471-.37 5.996 2.08 8.053 4.229 2.736 2.858 3.57 6.771 1.279 10.603-.586.984-1.326 1.978-2.229 2.657-8.594 6.478-17.117 13.061-25.904 19.267-7.893 5.572-15.961 5.953-23.9-.321-5.607-4.43-11.369-8.661-17.084-12.953-1.379-1.036-2.842-1.96-4.268-2.936q-.448.496-.893.996M106.83 196.996l-23.421 42.502c-9.722-12.163-6.465-28.925 6.514-35.405 5.132-2.563 10.59-4.472 16.907-7.097" clip-rule="evenodd"/><animate attributeName="opacity" dur="1s" keyTimes="0;0.49;0.5;1" repeatCount="indefinite" values="0;0;1;1"/></g><g fill-rule="evenodd" clip-rule="evenodd"><path d="M115.229 199.992h-2l-26.504-10.883 1.383 4.208c-13.894-1.858-24.604-8.727-35.194-16.792l4.433 7.797c-14.006-4.01-22.868-12.616-29.539-24.486l1.041 11.644-1.188.627c-2.082-4.327-4.119-8.677-6.254-12.978-4.907-9.884-6.236-20.443-4.449-31.098 2.687-16.01 5.811-31.971 9.447-47.792 6.591-28.68 21.122-52.157 48.04-65.735 43.064-21.724 85.366-19.036 125.144 8.009 21.741 14.782 34.797 35.619 33.595 63.195-.554 12.679-4.399 24.046-16.124 30.836-3.414 1.977-5.175 4.336-5.785 7.971-.496 2.949-1.803 5.979-1.438 8.803.528 4.089 1.152 9.004 3.681 11.817 4.886 5.438 5.582 11.028 4.024 17.521-3.618 15.09-14.373 22.755-28.457 26.186-7.15 1.742-14.678 1.931-22.604 2.891l4.807 6c-20.425 3.22-39.48 1.825-57.111-10.807zm39.629-31.258-1.15.777c2.478 4.95 4.83 9.971 7.531 14.796.601 1.073 2.378 1.96 3.695 2.089 14.141 1.382 27.683-.134 39.238-9.414 7.05-5.661 10.771-13.042 10.124-22.247-.109-1.558-.479-3.745-1.536-4.484-8.607-6.013-7.831-14.394-6.06-22.976 1.063-5.147 2.567-10.203 3.986-15.74l-8.308-.511 1.914 6.051-5.07-1.145c.265 1.593.511 2.709.629 3.838.977 9.358-.719 18.267-5.002 26.593-.68 1.323-2.729 2.501-4.229 2.613-.768.058-2.291-2.317-2.48-3.727-.463-3.431-.982-7.065-.325-10.39 1.32-6.68 3.41-13.207 5.261-20.088-10.768 3.248-14.953 12.203-18.306 22.183-1.075-1.79-1.943-3.427-2.089-5.124-.982-11.5 12.342-24.708 23.936-24.036 1.53.089 3.893-.366 4.564-1.41 5.784-8.988 6.394-18.74 3.777-29.809l-7.298 11.783 7.24 4.361-.688 1.336q-1.353-.394-2.707-.791c-4.477-1.317-8.023-.776-11.531 3.104-7.884 8.724-17.495 15.331-28.037 20.593-1.468.732-3.455 2.203-3.609 3.52-2.318 19.717-2.049 38.806 14.922 53.149.155.132.02.609.02 1.11-7.093.954-12.819-2.304-18.412-6.004"/><path fill="#fff" d="M154.858 168.734c5.593 3.699 11.318 6.958 18.412 6.006 0-.501.136-.979-.02-1.11-16.971-14.344-17.24-33.433-14.922-53.149.154-1.316 2.142-2.787 3.609-3.52 10.542-5.262 20.153-11.869 28.037-20.593 3.508-3.881 7.055-4.422 11.531-3.104.902.266 1.805.527 2.707.791l.688-1.336-7.24-4.361 7.298-11.783c2.616 11.068 2.007 20.82-3.777 29.809-.672 1.044-3.034 1.499-4.564 1.41-11.594-.672-24.918 12.536-23.936 24.036.146 1.697 1.014 3.334 2.089 5.124 3.353-9.979 7.538-18.935 18.306-22.183-1.851 6.881-3.94 13.408-5.261 20.088-.657 3.324-.138 6.959.325 10.39.189 1.409 1.713 3.784 2.48 3.727 1.5-.112 3.549-1.29 4.229-2.613 4.283-8.326 5.979-17.234 5.002-26.593-.118-1.129-.364-2.245-.629-3.838l5.07 1.145-1.914-6.051 8.308.511c-1.419 5.537-2.924 10.593-3.986 15.74-1.771 8.582-2.548 16.963 6.06 22.976 1.058.739 1.427 2.927 1.536 4.484.647 9.205-3.074 16.586-10.124 22.247-11.556 9.28-25.098 10.796-39.238 9.414-1.317-.129-3.095-1.016-3.695-2.089-2.701-4.825-5.054-9.846-7.531-14.796z"/></g><ellipse cx="114.25" cy="373.997" fill-rule="evenodd" clip-rule="evenodd" rx="114.25" ry="12.25"/></svg>