<?xml version="1.0" encoding="utf-8"?>
<!-- Generator: Adobe Illustrator 16.0.3, SVG Export Plug-In . SVG Version: 6.00 Build 0)  -->
<!DOCTYPE svg PUBLIC "-//W3C//DTD SVG 1.1//EN" "http://www.w3.org/Graphics/SVG/1.1/DTD/svg11.dtd">
<svg version="1.1" id="レイヤー_1" xmlns="http://www.w3.org/2000/svg" xmlns:xlink="http://www.w3.org/1999/xlink" x="0px"
	 y="0px" width="1025.083px" height="1025.062px" viewBox="0 0 1025.083 1025.062" enable-background="new 0 0 1025.083 1025.062"
	 xml:space="preserve">
<path fill-rule="evenodd" clip-rule="evenodd" d="M0.117,995.971c0-124.651,0-249.302,0-373.953
	c22.659-0.004,45.318-0.06,67.977,0.055c2.911,0.015,4.675-0.51,6.198-3.345c2.96-5.513,7.76-8.31,14.298-8.022
	c6.818,0.3,13.664,0.037,20.477,0.399c3.423,0.182,4.482-0.714,4.455-4.255c-0.132-16.828-0.046-33.657,0.142-50.484
	c0.029-2.644-0.613-3.286-3.252-3.337c-30.133-0.583-60.263-1.346-90.395-1.98c-8.692-0.184-12.897-4.18-12.898-12.734
	c-0.01-82.484,0.035-164.968-0.104-247.451c-0.01-5.994,2.781-9.549,7.761-11.389c9.356-3.457,18.871-4.902,29.076-3.408
	c21.313,3.124,42.741,5.493,64.147,7.937c25.042,2.86,50.121,5.379,75.165,8.21c30.988,3.501,61.954,7.204,92.936,10.76
	c29.826,3.424,59.667,6.698,89.484,10.191c10.723,1.255,12.489,3.544,12.488,14.379c-0.004,72.152-0.001,144.304-0.001,216.457
	c0,11.236-4.724,15.709-15.796,15.416c-20.812-0.551-41.626-0.948-62.441-1.383c-32.63-0.68-65.263-1.237-97.887-2.118
	c-4.764-0.128-5.735,1.367-5.474,5.757c0.366,6.138,0.145,12.328-0.14,18.482c-0.161,3.478,0.553,4.917,4.539,4.963
	c45.302,0.522,90.601,1.192,135.899,1.979c8.786,0.152,17.649,0.362,26.32,1.626c12.865,1.874,23.917,8.876,35.544,14.173
	c2.508,1.143,4.206,1.371,6.291-1.136c17.253-20.732,39.553-27.766,65.791-23.752c21.855,3.343,39.243,20.573,42.178,42.259
	c0.429,3.167,1.939,2.757,3.882,2.756c10.831-0.004,21.663-0.069,32.494,0.021c6.775,0.056,10.799,4.112,10.86,10.84
	c0.068,7.497,0.144,15-0.068,22.493c-0.146,5.191-2.806,8.581-8.074,9.897c-5.115,1.278-10.314,0.96-15.384,0.553
	c-4.897-0.394-5.484,1.548-5.476,5.686c0.077,37.158-0.047,74.316-0.069,111.476c-0.037,60.487-0.047,120.975-0.042,181.461
	c0,2.222-1.146,4.718,3.304,4.71c26.985-0.048,53.973,0.212,80.957,0.558c3.788,0.049,4.299-0.574,3.16-4.315
	c-7.85-25.802-13.2-52.15-16.589-78.907c-1.761-13.897-1.845-13.897-13.554-16.384c-2.101-0.446-4.27-0.608-6.337-1.162
	c-11.906-3.189-24.253-4.944-35.322-10.875c-4.448-2.385-6.838-5.33-4.906-10.841c1.294-3.691,1.587-7.746,2.225-11.655
	c7.624-46.757,19.22-92.561,33-137.845c2.86-9.398,5.638-18.057,1.416-28.713c-8.454-21.339-7.476-43.812-2.297-65.998
	c6.148-26.342,14.098-51.806,36.478-69.68c0.601-0.479,1.781-0.766,1.24-1.733c-0.253-0.451-1.401-0.549-2.146-0.555
	c-9.539-0.074-17.53-4.025-24.847-9.761c-0.804-0.629-1.415-2.43-2.508-1.595c-0.903,0.689,0.161,2.112,0.608,3.178
	c1.206,2.87,2.326,5.776,3.534,8.646c0.511,1.213,1.918,2.385-1.125,1.809c-24.574-4.654-48.026-11.432-64.387-32.389
	c-0.359-0.461-0.979-0.719-1.477-1.072c0.161,0.599,0.335,1.196,0.481,1.798c1.089,4.489,2.046,9.014,3.305,13.454
	c0.749,2.643,1.968,5.151,2.976,7.721c-3.391,0.834-6.519-0.521-9.623-1.393c-29.504-8.288-46.904-28.676-56.471-56.813
	c-0.24-0.706,0.26-1.72-0.874-2.041c-0.127,0.737-0.341,1.472-0.366,2.212c-0.364,10.52,0.963,20.858,3.553,31.034
	c0.245,0.962,0.751,1.801,0.368,2.816c-0.881-0.394-1.814-0.7-2.634-1.194c-5.024-3.025-9.427-6.776-13.16-11.315
	c-11.379-13.832-15.211-30.23-15.9-47.584c-1.167-29.398,4.569-58.072,9.34-86.852c0.589-3.563,3.337-7.469,0.69-10.914
	c-9.612-12.513-12.829-27.2-15.078-42.28c-0.136-0.915,0.183-2.188-1.25-2.2c-0.233-0.002-0.554,1.335-0.707,2.08
	c-1.755,8.511-2.34,17.113-2.05,25.792c0.06,1.771-0.185,3.554-0.289,5.33c-2.194-0.438-3.654-1.965-5.171-3.438
	c-11.545-11.204-15.208-25.679-16.442-40.92c-2.06-25.415,1.664-50.25,8.962-74.55c20.371-67.822,57.459-123.871,116.86-163.772
	c34.147-22.938,71.8-37.24,112.428-43.926c7.544-1.241,15.354-1.06,22.643-3.815c13.665,0,27.33,0,40.995,0
	c1.333,1.401,2.666,1.671,3.999,0c1.667,0,3.333,0,5,0c6.736,2.293,13.86,2,20.783,2.809c30.211,3.533,59.179,11.5,87.13,23.304
	c42.037,17.751,78.546,42.945,107.214,78.978c37.483,47.113,51.864,102.12,55.832,160.795c1.377,20.36,2.739,40.698,6.534,60.82
	c4.83,25.606,13.688,50.356,15.946,76.51c1.606,18.605,0.661,36.834-7.694,53.903c-5.417,11.066-13.023,20.407-24.137,26.391
	c-0.997,0.536-2.592,1.562-3.041,1.22c-1.422-1.084,0.203-2.432,0.555-3.485c1.895-5.688,2.769-11.559,3.443-17.45
	c1.181-10.312,0.297-20.542-1.885-30.663c-0.187-0.866-0.927-1.614-1.408-2.417c-0.109,0.816-0.17,1.642-0.336,2.447
	c-0.998,4.852-1.691,9.796-3.089,14.532c-10.877,36.869-33.709,61.415-72.26,69.586c-0.757,0.16-1.893,0.544-2.25,0.199
	c-1.001-0.967,0.355-1.719,0.717-2.494c3.079-6.612,5.119-13.509,5.922-20.761c0.105-0.958,0.306-2.611-0.084-2.796
	c-1.397-0.666-1.929,0.936-2.545,1.726c-5.875,7.543-12.785,13.984-20.574,19.482c-13.737,9.696-29.201,15.123-45.592,18.165
	c-1.431,0.266-2.968-0.036-4.455-0.074c0.639-1.287,1.354-2.543,1.901-3.868c1.502-3.63,2.999-7.265,4.354-10.951
	c0.414-1.126,1.609-2.21,0.666-3.62c-0.873,0.736-1.771,1.445-2.616,2.212c-12.288,11.16-26.88,17.178-43.182,19.428
	c-4.229,0.584-5.905-0.178-3.822-4.904c1.771-4.019,2.631-8.447,3.781-12.725c0.248-0.92,0.013-1.97,0-2.96
	c-0.856,0.448-1.773,0.811-2.56,1.359c-7.22,5.039-14.535,9.832-23.749,10.265c-0.361,0.018-0.708,0.348-1.062,0.532
	c0.46,0.418,0.85,0.995,1.39,1.231c15.943,7.016,25.706,20.001,33.329,34.884c10.646,20.784,16.646,43.167,21.793,65.784
	c2.835,12.459,5.359,25.049,3.53,37.933c-2.855,20.103-13.453,36.285-26.606,51.037c-1.839,2.062-2.308,3.352-1.156,6.146
	c16.275,39.472,29.048,80.034,37.172,121.995c1.757,9.08,0.884,10.672-8.086,14.651c-13.436,5.958-27.513,10.244-41.944,12.477
	c-7.595,1.175-8.528,5.134-8.861,11.011c-1.521,26.855-4.909,53.481-10.09,79.876c-0.725,3.697-1.771,7.332-2.669,10.995
	c3.962,0.129,7.925,0.227,11.885,0.391c42.737,1.779,85.511,2.572,128.197,5.702c27.337,2.004,54.74,3.146,81.869,7.326
	c4.363,0.671,11.317,0.475,11.467,5.444c0.141,4.68-6.725,5.439-11.093,6.426c-13.939,3.147-28.188,4.016-42.385,5.301
	c-30.326,2.747-60.719,4.504-91.13,5.645c-43.438,1.629-86.897,2.696-130.352,3.84c-36.962,0.972-73.937,0.162-110.913,0.885
	c-70.958,1.387-141.925-0.012-212.88-1.113c-44.117-0.685-88.219-2.191-132.33-3.269c-47.261-1.154-94.513-2.388-141.724-5.068
	C79.895,1002.848,39.885,1001.036,0.117,995.971z M669.98,562.273c0,0.231,0,0.463,0,0.693c9.83,0,19.666-0.202,29.486,0.087
	c4.795,0.142,7.575-1.552,9.711-5.884c5.029-10.205,9.732-20.63,16.17-30.055c2.304-3.372,3.014-5.13-1.885-5.95
	c-5.341-0.895-7.687-4.285-7.98-9.712c-0.331-6.115,3.056-7.453,8.216-8.541c27.54-5.807,53.165-16.246,76.131-32.76
	c2.111-1.519,4.592-2.838,5.155-5.725c5.367-27.486,9.94-55.049,11.212-83.122c1.013-22.324,1.205-44.587-1.225-66.808
	c-1.491-13.634-3.958-27.125-6.903-40.523c-0.164-0.74,0.082-2-1.08-1.784c-1.499,0.277-0.533,1.323-0.456,2.237
	c0.874,10.426,1.657,20.86,2.347,31.301c0.083,1.247-0.114,3.053-0.91,3.686c-1.067,0.851-2.323-0.624-3.235-1.349
	c-4.286-3.409-8.71-6.702-12.62-10.514c-13.984-13.632-25.542-29.246-36.277-45.484c-1.454-2.2-2.972-3.515-5.739-4.112
	c-11.451-2.469-22.92-3.255-34.571-1.875c-5.599,0.663-9.244,2.66-11.533,8.57c-7.569,19.544-17.368,38.039-28.666,55.705
	c-4.132,6.46-4.291,6.379-9.442,1.037c-1.878-1.947-3.676-3.972-5.511-5.961c-0.621,3.1-0.548,6.188,0.278,9.236
	c0.766,2.826,0.777,3.819-2.883,2.635c-14.458-4.671-25.313-14.126-34.889-25.363c-5.6-6.571-10.575-13.616-14.994-21.045
	c-0.475-0.798-0.974-2.205-2.086-1.685c-1.309,0.611,0.195,1.599,0.244,2.465c0.419,7.456,2.026,14.718,3.84,21.94
	c1.166,4.643,2.313,9.29,3.467,13.936c-5.268-1.568-10.012-4.186-14.537-7.243c-0.138-0.093-0.256-0.213-0.394-0.306
	c-16.961-11.4-26.291-28.451-34.21-46.482c-1.176-2.677-2.415-4.009-5.501-4.66c-11.525-2.426-22.263,0.112-32.91,4.118
	c-1.77,0.666-2.557,2.047-3.337,3.493c-10.25,18.97-20.469,37.958-30.725,56.925c-0.87,1.61-1.692,3.105-1.747,5.07
	c-0.346,12.347,0.892,24.575,2.609,36.765c2.672,18.962,4.452,37.917,2.871,57.14c-1.73,21.045,2.861,40.126,19.254,55.034
	c9.188,8.356,19.732,14.517,30.923,19.592c35.96,16.312,74.43,19.94,113.178,22.022c4.146,0.222,8.333,0.061,12.144,2.129
	c-2.525,4.314-7.035,5.585-11.313,6.347c-4.923,0.877-5.986,3.432-5.15,7.659c0.914,4.615-0.786,5.606-5.135,4.352
	c-6.398-1.846-10.648,0.241-13.135,6.377c-2.945,7.266-4.081,14.931-4.422,22.754c-0.128,2.917,0.986,3.703,3.718,3.68
	C647.013,562.216,658.498,562.273,669.98,562.273z M36.109,825.59c0,33.16,0,66.319,0,99.479c0,16.33,0.057,32.66-0.057,48.989
	c-0.019,2.688,0.28,3.597,3.403,3.204c6.096-0.767,12.271-1.001,18.422-1.208c41.44-1.397,82.881-2.785,124.326-3.983
	c3.613-0.105,4.653-0.727,4.651-4.608c-0.057-96.312,0.029-192.622,0.226-288.933c0.007-3.719-0.833-4.623-4.579-4.611
	c-47.323,0.145-94.646,0.153-141.969-0.01c-3.927-0.014-4.503,1.172-4.495,4.713C36.158,727.611,36.119,776.6,36.109,825.59z
	 M360.073,842.635c0.048,0,0.097,0,0.146,0c0,39.325-0.013,78.65,0.007,117.976c0.007,13.443,0.37,13.801,13.606,13.48
	c28.133-0.682,56.265-1.469,84.398-2.077c11.598-0.25,13.385-1.911,13.384-13.754c-0.002-49.655,0.022-99.312-0.029-148.968
	c-0.03-29.656-0.061-59.313-0.362-88.968c-0.079-7.822-2.903-10.077-10.818-10.024c-30.489,0.204-60.979,0.454-91.467,0.721
	c-6.182,0.054-8.864,2.883-8.864,9.138C360.071,760.982,360.073,801.81,360.073,842.635z M35.116,411.585c-0.334,0-0.669,0-1.004,0
	c0,38.311,0.002,76.623-0.002,114.935c-0.001,9.373,0.018,9.676,9.691,9.988c49.077,1.588,98.158,3.062,147.24,4.505
	c26.793,0.788,53.592,1.366,80.385,2.161c29.611,0.881,59.219,1.888,88.827,2.877c4.783,0.16,6.607-2.414,6.549-6.771
	c-0.389-29.136-0.878-58.27-1.199-87.407c-0.422-38.305-0.68-76.611-1.095-114.916c-0.131-12.25,2.292-12.428-12.783-14.096
	c-32.628-3.611-65.183-7.871-97.787-11.709c-34.739-4.09-69.498-8.018-104.251-11.985c-35.753-4.082-71.538-7.921-107.245-12.371
	c-6.559-0.818-7.369,1.67-7.36,6.855C35.146,332.961,35.116,372.273,35.116,411.585z M496.047,822.005
	c0-47.968-0.004-95.935,0.01-143.902c0.001-2.482,0.609-4.682-3.523-4.651c-42.299,0.316-84.6,0.432-126.9,0.518
	c-2.55,0.005-3.45,0.582-3.323,3.306c0.241,5.151,0.306,10.34-0.045,15.479c-0.249,3.656,1.079,4.341,4.453,4.323
	c32.31-0.17,64.62-0.134,96.929-0.237c13.23-0.042,19.174,5.961,19.132,19.396c-0.259,81.608-0.486,163.216-0.717,244.825
	c-0.025,8.933,0.008,8.664,9.042,9.03c4.286,0.174,5.06-1.142,5.047-5.185C495.998,917.273,496.053,869.64,496.047,822.005z
	 M811.874,657.007c0-1.996,0.26-4.032-0.039-5.982c-4.1-26.788-11.501-52.662-21.912-77.665c-4.145-9.95-8.973-19.537-17.627-26.519
	c-8.075-6.514-15.531-5.028-19.515,4.428c-6.504,15.436-5.947,31.558-4.412,47.902c2.215,23.579,18.07,43.551,17.402,67.79
	c6.426,13.855,12.859,27.706,19.267,41.569c0.933,2.018,1.859,2.256,3.472,0.534C802.266,694.375,811.214,677.536,811.874,657.007z
	 M380.518,632.804c-11.987,0-23.979,0.223-35.96-0.041c-41.604-0.913-83.212-0.703-124.819-0.768
	c-2.163-0.004-4.561-0.349-5.917,1.752c-3.355,5.196-2.08,11.157-1.086,16.427c0.68,3.604,5.68,2.848,9.069,2.825
	c37.625-0.247,75.251-0.628,112.876-0.757c66.615-0.229,133.229-0.291,199.845-0.461c12.526-0.031,12.416-0.113,12.147-12.829
	c-0.081-3.866-1.396-4.982-5.313-5.047C487.75,633.016,434.135,632.836,380.518,632.804z M226.743,821.981c-0.144,0-0.289,0-0.433,0
	c0,47.656,0.101,95.313-0.148,142.967c-0.026,5.04,1.077,5.986,6.024,6.275c6.722,0.392,8.199-0.931,8.158-8.152
	c-0.419-73.649-0.257-147.304-0.258-220.955c0-10.165-0.083-20.329,0.021-30.493c0.1-9.737,5.147-14.637,14.79-14.634
	c21.829,0.006,43.658-0.039,65.487,0.076c2.847,0.015,4.146-0.326,3.932-3.682c-0.34-5.31-0.196-10.663-0.001-15.989
	c0.093-2.523-0.493-3.439-3.228-3.431c-30.494,0.095-60.988,0.088-91.481,0.011c-2.421-0.006-2.942,0.592-2.937,3.056
	C226.769,725.347,226.743,773.664,226.743,821.981z M666.926,921.08c0-16.726-0.138-28.547,0.093-40.361
	c0.062-3.159-0.753-3.824-3.81-3.789c-17.472,0.201-34.952,0.384-52.359-1.646c-0.986-0.114-3.328-1.092-2.361,1.481
	c1.294,3.445,0.36,6.94,0.867,10.378c4.238,28.75,9.294,56.183,18.594,83.828c1.74,0.682,38.251,1.376,40.151,1.041
	C667.641,953.402,666.353,934.805,666.926,921.08z M751.95,972.596c8.085-29.462,9.276-61.204,11.045-91.399
	c0.141-2.405-1.638-6.72-3.211-6.6c-16.767,1.283-33.561,1.883-50.374,1.843c-2.141-0.005-2.71,0.446-2.496,2.773
	c2.247,24.388,2.283,68.065,3.078,92.508C710.034,973.013,751.666,973.032,751.95,972.596z M674.819,923.424
	c0.294,0,0.949,29.26,0.823,43.888c-0.025,3.034,0.495,4.491,4.017,4.396c6.811-0.185,13.639,0.016,20.451,0.278
	c2.463,0.096,2.99-0.684,2.991-3.05c0.012-29.276-2.317-58.433-4.297-87.609c-0.264-3.9-1.737-5.134-5.74-4.765
	c-5.11,0.472-10.31,0.268-15.452-0.007c-2.552-0.136-2.895,0.56-2.869,2.97C674.895,894.156,674.819,908.791,674.819,923.424z
	 M922.276,374.624c0.087-4.823-0.065-9.643-1.344-14.314c-3.437-12.559-9.162-23.325-22.252-28.395
	c-2.389-0.926-3.403-1.325-3.469,2c-0.131,6.634-0.724,13.262-1.196,19.887c-1.842,25.757-5.768,51.16-12.838,76.042
	c-0.26,0.912-1.61,2.109-0.368,2.968c0.486,0.337,1.787-0.414,2.679-0.767C907.595,422.502,922.033,401.13,922.276,374.624z
	 M303.667,621.013c37.995,1.377,71.623,0.536,105.242,0.965c1.256,0.017,2.514-0.23,3.772-0.354
	c-0.294-1.675-1.788-2.154-2.976-2.864c-6.105-3.648-12.057-4.563-19.628-3.435c-10.703,1.596-21.889-0.189-32.871-0.302
	c-41.44-0.424-82.881-0.678-124.32-1.186c-8.796-0.107-17.583-0.997-26.372-1.566c-1.334-0.087-2.951-0.343-3.352-1.716
	c-0.458-1.565,1.014-2.136,2.264-2.718c0.983-0.456,2.592-0.783,2.253-2.155c-0.134-0.543-1.892-0.848-2.944-0.973
	c-5.425-0.644-10.875-1.097-16.283-1.847c-1.323-0.184-3.161-0.354-3.622-2.088c-0.285-1.072,0.7-1.66,1.574-2.229
	c0.912-0.595,3.237-0.05,2.347-2.215c-0.553-1.346-2.158-1.297-3.512-1.296c-7.159,0.005-14.318-0.013-21.478-0.007
	c-1.625,0.001-3.797-0.497-4.411,1.358c-0.825,2.493,1.906,2.818,3.302,3.521c10.393,5.236,21.522,9.33,31.111,15.74
	c6.974,4.661,13.793,5.385,21.384,5.378C246.114,620.994,277.082,621.013,303.667,621.013z M958.251,214.098
	c-0.524-3.466-0.85-6.774-1.541-10.004c-7.754-36.184-23.126-68.691-47.396-96.745c-15.209-17.578-32.638-32.546-53.382-43.384
	c-1.198-0.625-2.273-1.292-3.63-0.561c0.805,0.794,1.561,1.648,2.42,2.376c47.445,40.186,82.332,88.997,101.922,148.323
	c0.283,0.86,0.678,1.683,1.021,2.523C957.872,215.738,958.077,214.851,958.251,214.098z M491.542,622.135
	c3.139,0,4.832-0.194,6.464,0.037c4.731,0.67,5.437-1.057,3.987-5.334c-7.289-21.508-33.43-34.605-56.795-28.331
	c-9.884,2.653-18.914,6.746-25.809,14.63c-0.373,0.427-0.597,0.983-0.89,1.48c0.439-0.061,1.004,0.035,1.297-0.204
	c9.167-7.458,20.065-8.084,31.039-7.292c12.88,0.928,24.957,4.814,30.53,17.624C484.017,620.844,486.518,623.714,491.542,622.135z
	 M729.542,235.872c4.996,0.831,10.531,1.751,16.067,2.673c0.617,0.103,1.234,0.208,1.852,0.313
	c-0.104-0.546-0.082-1.155-0.327-1.628c-9.09-17.509-17.093-35.473-22.897-54.366c-0.166-0.542-0.656-0.984-0.996-1.474
	c-0.07,0.491-0.146,0.982-0.21,1.475c-2.287,17.725-6.993,34.897-12.184,51.931c-1.079,3.542,0.023,3.498,2.771,3.089
	C718.701,237.128,723.816,236.583,729.542,235.872z M582.043,632.897c0.719,11.429,1.694,21.155,4.05,30.691
	c0.221,0.896,0.106,2.153,1.464,2.168c0.157,0.002,0.381-1.411,0.486-2.18c2.341-17.048,4.341-34.151,7.088-51.132
	c3.233-19.99,7.261-39.833,14.805-58.771c0.41-1.03,1.991-2.02,0.766-3.479c-0.904,0.941-1.928,1.796-2.695,2.838
	C590.143,577.27,585,605.551,582.043,632.897z M554.293,194.438c0-3.824,0.011-7.646-0.012-11.469
	c-0.004-0.562,0.363-1.443-0.583-1.485c-0.271-0.012-0.683,0.871-0.86,1.4c-6.562,19.628-14.82,38.578-22.999,57.56
	c-0.303,0.701-0.862,1.8-0.587,2.148c0.83,1.052,1.712-0.078,2.604-0.325c8.279-2.297,16.575-4.688,25.307-3.157
	c3.331,0.584,2.311-1.119,1.914-2.894C556.01,222.46,553.69,208.607,554.293,194.438z M210.139,595.023
	c-0.003-0.059-0.006-0.116-0.009-0.174c-3.284,0.185-6.579,0.274-9.846,0.619c-0.808,0.086-2.091,0.919-2.179,1.545
	c-0.214,1.528,1.334,0.927,2.127,1.114c6.231,1.479,12.465-0.196,18.703-0.077c0.93,0.018,2.233-0.081,1.902-1.498
	c-0.221-0.944-1.12-1.553-2.274-1.539C215.754,595.044,212.946,595.023,210.139,595.023z M357.692,609.554
	c0.497,0,0.994-0.016,1.491,0.003c1.773,0.063,4.421,0.702,4.677-1.385c0.262-2.14-2.534-1.947-4.196-2.42
	c-0.469-0.133-0.903-0.543-1.356-0.548c-3.294-0.036-6.67-0.703-9.748,1.071c-0.121,0.07-0.017,0.955,0.234,1.175
	C351.372,609.713,354.536,609.653,357.692,609.554z M291.317,604.914c-2.354,0.679-6.771-1.232-6.844,1.474
	c-0.077,2.873,4.365,2.868,7.1,2.544c2.746-0.325,7.803,1.52,7.763-1.541C299.284,603.527,294.279,605.467,291.317,604.914z
	 M315.51,609.105c2.093-0.597,6.038,0.965,6.093-0.99c0.08-2.809-3.628-3.389-6.229-3.006c-2.797,0.412-7.848-2.017-7.92,1.605
	C307.382,610.342,312.57,608.496,315.51,609.105z M224.742,603.942c-2.57,0.548-7.288-0.888-7.264,1.769
	c0.025,2.914,4.653,2.19,7.465,2.295c2.548,0.095,6.976,0.164,6.812-1.729C231.463,602.912,227.352,604.364,224.742,603.942z
	 M333.192,605.004c-1.436,1.053-5.474-1.694-5.574,1.753c-0.081,2.759,3.802,2.212,6.231,2.248c0.166,0.002,0.34,0.034,0.498-0.002
	c2.599-0.598,7.533,1.228,7.41-1.122C341.588,604.648,336.917,605.049,333.192,605.004z M235.468,595.022
	c-1.321,0-2.642-0.011-3.963,0.003c-1.374,0.016-3.035,0.436-3.197,1.688c-0.216,1.673,1.952,1.771,2.943,1.985
	c2.214,0.478,4.582,0.36,6.881,0.29c1.647-0.051,4.389,0.823,4.429-1.521c0.035-2.048-2.475-2.721-4.62-2.593
	C237.118,594.924,236.293,594.963,235.468,595.022z M257.193,599.028c0.494,0,0.998,0.061,1.481-0.011
	c1.83-0.271,5.042,0.943,5.096-1.353c0.061-2.621-3.072-2.774-5.451-2.647c-0.493,0.026-0.992-0.034-1.482,0.01
	c-2.547,0.229-7.243-0.661-7.087,1.354C250.013,599.798,254.318,598.913,257.193,599.028z M321.424,599.999
	c2.693-0.114,6.297,0.116,6.279-2.045c-0.02-2.473-3.529-2.041-5.791-2.081c-0.166-0.003-0.332-0.014-0.498-0.021
	c-2.499-0.102-6.765-1.77-6.858,1.163C314.453,600.281,319.151,599.376,321.424,599.999z M378.434,609.563
	c1.809-1.024,5.798,1.124,6.219-1.805c0.263-1.827-3.909-2.645-6.566-2.706c-2.76-0.064-7.673,0.977-7.518,1.584
	C371.517,610.325,375.275,608.766,378.434,609.563z M341.44,600.043c0.53,0,1.186,0.01,1.841-0.002
	c1.626-0.03,4.168,0.288,4.348-1.279c0.229-1.994-2.543-1.902-4.037-2.668c-0.399-0.205-0.971-0.124-1.459-0.098
	c-2.893,0.158-7.528-1.474-7.927,1.931C333.9,600.552,338.782,599.318,341.44,600.043z M280.298,599.242
	c1.737-0.722,5.158,1.007,5.402-1.231c0.256-2.351-2.943-3.243-5.337-2.924c-2.748,0.366-7.571-1.687-7.743,1.653
	C272.451,600.009,277.405,598.562,280.298,599.242z M249.464,608.248c1.768-1.391,5.99,1.564,6.126-1.596
	c0.104-2.396-4.235-2.501-6.991-2.14c-2.824,0.37-8.308-0.205-7.99,1.18C241.537,609.729,246.07,607.386,249.464,608.248z
	 M362.326,600.405c1.55-1.103,4.967,0.839,5.274-1.473c0.22-1.656-3.237-3.049-5.457-2.81c-2.669,0.287-7.403-1.852-7.575,1.562
	C354.399,601.033,359.34,599.497,362.326,600.405z M300.806,599.334c0.342,0,1.058,0.169,1.647-0.033
	c1.469-0.504,4.092,0.652,4.284-1.207c0.214-2.089-2.411-2.09-4.079-2.526c-0.477-0.125-0.974-0.295-1.452-0.268
	c-2.599,0.149-6.967-1.18-7.211,1.509C293.714,599.885,298.08,598.753,300.806,599.334z M270.593,608.23
	c2.13-0.644,6.14,0.926,6.061-1.107c-0.131-3.36-3.933-2.234-6.434-2.162c-2.396,0.068-6.618-2.175-6.668,1.083
	C263.499,609.577,268.167,607.293,270.593,608.23z"/>
<path fill-rule="evenodd" clip-rule="evenodd" fill="#666667" d="M708.028,0.096c-1.333,1.671-2.666,1.401-3.999,0
	C705.362,0.096,706.695,0.096,708.028,0.096z"/>
<path fill-rule="evenodd" clip-rule="evenodd" fill="#E8E8E8" d="M357.692,609.554c-3.156,0.1-6.32,0.159-8.897-2.104
	c-0.25-0.22-0.355-1.104-0.234-1.175c3.078-1.774,6.453-1.107,9.748-1.071c0.453,0.005,0.888,0.415,1.356,0.548
	c1.662,0.473,4.458,0.28,4.196,2.42c-0.256,2.087-2.904,1.448-4.677,1.385C358.686,609.538,358.189,609.554,357.692,609.554z"/>
<path fill-rule="evenodd" clip-rule="evenodd" fill="#F9F9FA" d="M315.51,609.105c-2.94-0.609-8.128,1.236-8.056-2.391
	c0.072-3.622,5.123-1.193,7.92-1.605c2.601-0.383,6.309,0.197,6.229,3.006C321.547,610.07,317.603,608.509,315.51,609.105z"/>
<path fill-rule="evenodd" clip-rule="evenodd" fill="#F5F5F5" d="M224.742,603.942c2.61,0.422,6.721-1.03,7.013,2.334
	c0.164,1.894-4.264,1.824-6.812,1.729c-2.813-0.104-7.44,0.619-7.465-2.295C217.454,603.055,222.172,604.49,224.742,603.942z"/>
<path fill-rule="evenodd" clip-rule="evenodd" fill="#FBFBFB" d="M333.192,605.004c3.725,0.045,8.396-0.355,8.565,2.877
	c0.123,2.35-4.812,0.524-7.41,1.122c-0.158,0.036-0.332,0.004-0.498,0.002c-2.429-0.036-6.313,0.511-6.231-2.248
	C327.718,603.31,331.756,606.057,333.192,605.004z"/>
<path fill-rule="evenodd" clip-rule="evenodd" fill="#FAFAFA" d="M235.469,595.015c0.825-0.052,1.649-0.091,2.473-0.141
	c2.145-0.128,4.655,0.545,4.62,2.593c-0.04,2.345-2.782,1.471-4.429,1.521c-2.3,0.07-4.667,0.188-6.881-0.29
	c-0.991-0.215-3.159-0.313-2.943-1.985c0.162-1.252,1.823-1.672,3.197-1.688C232.826,595.012,234.147,595.022,235.469,595.015z"/>
<path fill-rule="evenodd" clip-rule="evenodd" fill="#FAFAFA" d="M257.191,599.03c-2.874-0.117-7.178,0.768-7.442-2.649
	c-0.156-2.015,4.541-1.124,7.087-1.354c0.49-0.044,0.989,0.017,1.482-0.01c2.378-0.127,5.512,0.026,5.451,2.647
	c-0.054,2.296-3.266,1.082-5.096,1.353C258.19,599.089,257.687,599.028,257.191,599.03z"/>
<path fill-rule="evenodd" clip-rule="evenodd" fill="#EFF0F0" d="M321.424,599.999c-2.273-0.623-6.971,0.282-6.867-2.983
	c0.093-2.933,4.359-1.265,6.858-1.163c0.166,0.007,0.332,0.018,0.498,0.021c2.262,0.04,5.771-0.392,5.791,2.081
	C327.721,600.115,324.117,599.885,321.424,599.999z"/>
<path fill-rule="evenodd" clip-rule="evenodd" fill="#F2F2F1" d="M341.44,600.043c-2.658-0.725-7.54,0.509-7.233-2.116
	c0.398-3.404,5.034-1.772,7.927-1.931c0.488-0.026,1.06-0.107,1.459,0.098c1.493,0.766,4.265,0.674,4.037,2.668
	c-0.18,1.567-2.722,1.249-4.348,1.279C342.625,600.053,341.97,600.043,341.44,600.043z"/>
<path fill-rule="evenodd" clip-rule="evenodd" fill="#FBFBFB" d="M280.298,599.242c-2.893-0.681-7.847,0.767-7.679-2.502
	c0.172-3.34,4.996-1.287,7.743-1.653c2.394-0.319,5.594,0.573,5.337,2.924C285.457,600.249,282.035,598.521,280.298,599.242z"/>
<path fill-rule="evenodd" clip-rule="evenodd" fill="#F9F8F9" d="M249.464,608.248c-3.395-0.862-7.928,1.48-8.855-2.556
	c-0.318-1.385,5.166-0.81,7.99-1.18c2.756-0.361,7.095-0.256,6.991,2.14C255.455,609.813,251.232,606.857,249.464,608.248z"/>
<path fill-rule="evenodd" clip-rule="evenodd" fill="#F0F0F0" d="M300.806,599.334c-2.726-0.581-7.091,0.551-6.811-2.525
	c0.244-2.688,4.613-1.359,7.211-1.509c0.478-0.027,0.975,0.143,1.452,0.268c1.668,0.437,4.292,0.438,4.079,2.526
	c-0.191,1.859-2.815,0.703-4.284,1.207C301.864,599.503,301.147,599.334,300.806,599.334z"/>
<path fill-rule="evenodd" clip-rule="evenodd" d="M692.151,382.209c0.187-28.435,8.426-49.581,27.08-66.167
	c9.412-8.369,20.797-9.921,32.291-6.76c12.713,3.498,24.325,9.743,33.899,19.172c4.699,4.628,5.834,13.497,2.466,18.931
	c-1.794,2.895-2.587-0.228-3.065-0.832c-7.188-9.075-16.497-15.318-26.694-20.427c-0.741-0.371-1.44-0.842-2.209-1.139
	c-3.076-1.19-6.129-2.555-9.576-1.874c1.104,2.746,3.87,3.874,5.778,5.838c9.987,10.288,12.932,23.355,14.067,36.823
	c1.135,13.465-0.181,26.89-5.352,39.561c-5.875,14.395-18.312,22.871-32.581,22.755c-13.059-0.107-25.768-9.708-31.517-23.853
	C693.375,395.965,691.846,387.368,692.151,382.209z"/>
<path fill-rule="evenodd" clip-rule="evenodd" d="M523.523,373.025c1.314-15.801,2.417-33.02,13.423-47.544
	c0.429-0.565,1.688-1.028,0.762-1.876c-0.322-0.296-1.608,0.126-2.236,0.547c-6.732,4.509-13.951,8.503-18.781,15.264
	c-2.237,3.131-3.773,2.3-5.61-0.082c-4.559-5.915-4.582-8.864,0.599-14.289c12.467-13.052,27.405-19.59,45.629-15.926
	c9.874,1.985,16.193,9.165,20.729,17.414c12.009,21.84,14.724,45.091,8.536,69.229c-1.65,6.437-4.867,12.357-9.391,17.292
	c-14.479,15.793-33.904,13.626-45.079-4.895C525.838,397.773,524.211,386.22,523.523,373.025z"/>
<path fill-rule="evenodd" clip-rule="evenodd" d="M415.932,786.484c11.809,0,23.618-0.003,35.427,0.001
	c7.265,0.003,8.7,1.438,8.702,8.708c0.003,18.137,0.019,36.273-0.009,54.408c-0.011,6.975-2.354,9.337-9.171,9.381
	c-22.458,0.145-44.917,0.285-67.375,0.41c-9.342,0.053-10.583-1.258-10.578-10.551c0.011-17.635-0.03-35.271-0.074-52.908
	c-0.018-7.164,1.648-8.933,8.637-8.939c11.48-0.012,22.96-0.004,34.44-0.004C415.931,786.822,415.932,786.653,415.932,786.484z"/>
<path fill-rule="evenodd" clip-rule="evenodd" d="M415.455,725.567c11.488,0,22.977,0.073,34.465-0.025
	c8.472-0.072,10.15,1.479,10.14,10.041c-0.013,9.995-0.015,19.99-0.069,29.986c-0.037,6.539-2.071,9.059-8.443,9.121
	c-24.15,0.235-48.302,0.267-72.454,0.268c-3.874,0-6.215-2.174-6.21-6.208c0.014-12.156-0.022-24.314,0.265-36.466
	c0.094-3.976,1.846-6.543,6.827-6.394c11.817,0.354,23.652,0.114,35.479,0.114C415.454,725.858,415.454,725.713,415.455,725.567z"/>
<path fill-rule="evenodd" clip-rule="evenodd" d="M392.104,873.987c4.495,0,8.99,0.066,13.482-0.025
	c2.561-0.054,3.577,0.999,3.538,3.567c-0.102,6.656-0.122,13.316-0.026,19.973c0.05,3.446-2.166,4.273-4.809,4.316
	c-8.819,0.146-17.641,0.176-26.462,0.131c-3.158-0.016-4.833-1.649-4.78-5.013c0.093-5.824,0.036-11.65,0.02-17.478
	c-0.012-3.735,1.979-5.434,5.556-5.463C383.116,873.96,387.61,873.987,392.104,873.987z"/>
<path fill-rule="evenodd" clip-rule="evenodd" d="M48.911,418.944c0-30.992,0.056-61.985-0.054-92.978
	c-0.019-5.304-0.508-10.575,0.111-15.908c0.768-6.619,2.437-8.559,9.154-7.938c13.392,1.238,26.755,2.794,40.128,4.24
	c14.354,1.553,28.707,3.115,43.058,4.701c16.815,1.857,33.627,3.749,50.442,5.617c16.166,1.796,32.332,3.584,48.498,5.374
	c19.123,2.117,38.248,4.208,57.368,6.355c16.491,1.851,32.954,3.988,49.473,5.526c5.689,0.529,7.758,2.708,7.727,8.353
	c-0.335,60.82-0.554,121.639-0.675,182.46c-0.011,5.551-2.783,7.413-7.646,7.265c-24.47-0.744-48.94-1.482-73.404-2.367
	c-21.283-0.77-42.556-1.783-63.837-2.596c-35.761-1.365-71.522-2.716-107.288-3.951c-15.147-0.523-30.305-0.841-45.461-1.041
	c-5.327-0.07-7.474-2.604-7.472-7.638c0.016-31.824,0.008-63.648,0.008-95.473C48.997,418.944,48.954,418.944,48.911,418.944z"/>
<line fill="none" stroke="#000000" stroke-width="4" stroke-miterlimit="10" x1="632.262" y1="465.105" x2="643.904" y2="465.105"/>
</svg>
