<?xml version="1.0" encoding="utf-8"?>
<!-- Generator: Adobe Illustrator 16.0.3, SVG Export Plug-In . SVG Version: 6.00 Build 0)  -->
<!DOCTYPE svg PUBLIC "-//W3C//DTD SVG 1.1//EN" "http://www.w3.org/Graphics/SVG/1.1/DTD/svg11.dtd">
<svg version="1.1" id="レイヤー_1" xmlns="http://www.w3.org/2000/svg" xmlns:xlink="http://www.w3.org/1999/xlink" x="0px"
	 y="0px" width="758.79px" height="709.934px" viewBox="0 0 758.79 709.934" enable-background="new 0 0 758.79 709.934"
	 xml:space="preserve">
<path d="M0,441.507c0-1.25,0-2.499,0-3.749c0.991,0.064,1.981,0.19,2.972,0.187c11.992-0.054,23.984-0.183,35.976-0.178
	c14.729,0.006,29.456,0.145,44.184,0.138c1.233-0.001,2.654-0.387,3.658-1.074c2.001-1.37,3.556-3.557,5.694-4.522
	c2.763-1.25,3.563-2.966,3.531-5.781c-0.1-8.998-0.009-17.996-0.009-26.995c0-4.16,0.352-3.854-3.846-3.858
	c-15.244-0.023-30.489,0.018-45.733,0.073c-5.139,0.018-6.754-1.168-7.729-6.108c-0.264-1.335-0.353-2.725-0.355-4.089
	c-0.014-6.498,0.05-12.996,0.049-19.494c-0.01-54.365-0.029-108.731-0.04-163.097c0-1.499-0.035-3.007,0.112-4.495
	c0.362-3.654,1.646-4.998,5.205-5.836c2.785-0.656,5.532-1.48,8.329-2.079c1.572-0.336,3.228-0.61,4.813-0.486
	c4.477,0.351,8.945,0.852,13.4,1.418c8.283,1.057,16.547,2.252,24.831,3.299c11.383,1.439,22.779,2.775,34.165,4.193
	c8.656,1.078,17.304,2.224,25.957,3.323c12.619,1.603,25.239,3.202,37.861,4.783c11.379,1.425,22.761,2.822,34.142,4.233
	c8.785,1.089,17.574,2.143,26.353,3.279c8.651,1.12,17.291,2.322,25.936,3.489c7.29,0.983,14.588,1.912,21.866,2.979
	c4.01,0.586,5.298,2.213,5.385,6.271c0.01,0.5-0.001,1-0.001,1.5c-0.002,54.365-0.003,108.73-0.009,163.098
	c-0.001,1.624,0.061,3.258-0.09,4.871c-0.243,2.604-1.748,4.047-4.321,4.251c-1.117,0.088-2.248,0.026-3.373,0.009
	c-17.243-0.271-34.485-0.528-51.728-0.821c-21.241-0.36-42.482-0.74-63.723-1.132c-11.245-0.207-22.489-0.477-33.734-0.667
	c-3.115-0.053-3.159,0.03-3.215,3.096c-0.058,3.124-0.065,6.25-0.011,9.373c0.06,3.47,0.173,3.559,3.63,3.604
	c20.368,0.268,40.735,0.565,61.104,0.776c26.739,0.276,53.479,0.512,80.22,0.675c2.654,0.018,4.814,0.779,6.917,2.302
	c3.43,2.484,6.97,4.814,10.479,7.188c3.82,2.583,7.689,5.097,11.474,7.731c1.184,0.826,2.579,1.718,1.88,3.652
	c-0.063,0.17,0.595,0.836,0.967,0.884c1.794,0.231,1.528-1.16,1.605-2.229c0.43-5.962,3.138-10.608,7.879-14.229
	c9.249-7.06,19.597-10.627,31.273-10.64c9.043-0.011,17.304,2.28,24.517,7.718c5.582,4.207,10.146,9.312,11.27,16.587
	c0.391,2.517,1.623,3.085,4.021,3.056c9.246-0.111,18.496-0.024,27.744,0.041c6.369,0.045,7.289,0.972,7.297,7.421
	c0.008,5.873-0.07,11.747-0.16,17.619c-0.078,5.041-1.158,6.093-6.273,6.115c-4.873,0.021-9.75,0.05-14.621-0.08
	c-1.967-0.052-2.656,0.696-2.641,2.576c0.027,3.248-0.105,6.497-0.107,9.747c-0.02,33.118-0.033,66.236-0.043,99.355
	c-0.008,32.493-0.012,64.986-0.006,97.479c0,3.952,0.031,3.974,3.793,3.977c15.498,0.01,30.996,0.011,46.494,0
	c0.951,0,1.906-0.126,3.096-0.21c-0.346-1.069-0.596-1.885-0.875-2.69c-1.787-5.187-3.695-10.336-5.357-15.563
	c-4.617-14.53-7.729-29.424-10.354-44.419c-0.336-1.916-1.146-2.646-2.891-3.252c-5.531-1.922-10.957-4.144-16.463-6.143
	c-5.795-2.104-7.736-5.969-7.164-12.174c1.457-15.809,3.66-31.478,7.145-46.959c4.031-17.914,9.693-35.34,16.127-52.52
	c0.582-1.554,0.482-2.572-0.314-4.086c-1.965-3.732-3.775-7.604-5.113-11.597c-2.051-6.113-2.457-12.636-1.414-18.854
	c0.748-4.464,1.328-8.849,1.236-13.326c-0.15-7.295,0.555-14.466,2.793-21.434c0.799-2.489,1.805-4.914,2.715-7.369
	c2.555-6.896,4.955-13.854,7.697-20.673c4.162-10.357,11.637-17.482,21.885-21.871c5.658-2.423,11.178-5.172,17.152-7.956
	c-2.701-1.087-4.963-1.854-7.691-1.798c-4.076,0.085-8.168-0.524-12.256-0.827c-0.51-0.037-1.027-0.005-1.695-0.005
	c2,3.283,2.449,3.617,8.457,6.25c-1.861,0.534-3.227,0.975-4.613,1.313c-6.455,1.575-13.324,1.893-19.814,0.35
	c-10.615-2.524-17.822-11.258-27.711-15.15c-1.293-0.51-4.555-1.351-4.779-3.117c0.768,6.01,2.98,11.275,6.197,16.877
	c-14.496-6.191-25.652-15.704-35.936-26.435c-0.316,0.195-0.635,0.391-0.949,0.586c1.436,6.547,2.873,13.094,4.303,19.607
	c-5.645-2.561-10.818-6.202-15.486-10.563c-10.524-9.822-18.71-21.369-25.17-34.199c-7.295-14.488-12.202-29.755-14.961-45.709
	c-0.451-2.607-0.96-4.984-2.361-7.336c-2.99-5.013-6.093-10.062-8.239-15.458c-7.683-19.306-8.293-39.4-5.742-59.738
	c0.502-3.995,1.23-7.96,1.855-11.95c-11.233,3.495-22.112,6.209-33.866,1.967c0.778-0.598,1.123-0.944,1.536-1.166
	c14.245-7.669,23.883-19.43,30.042-34.163c4.182-10.004,7.976-20.17,12.14-30.183c12.959-31.151,33.326-56.619,59.803-77.313
	c17.674-13.813,37.355-23.956,58.51-31.229c18.242-6.277,36.977-10.12,56.307-11.314c16.809-1.039,33.506-0.229,50.008,2.646
	c23.438,4.082,45.904,11.296,66.934,22.725c19.359,10.521,36.746,23.613,51.936,39.508c22.963,24.029,38.355,52.357,47.086,84.396
	c2.518,9.244,5.068,18.513,8.311,27.515c4.279,11.875,10.627,22.572,20.615,30.723c0.203,0.166,0.197,0.591,0.313,0.975
	c-8.576,1.063-16.389-0.991-23.91-5.062c0,2.646-0.074,4.892,0.014,7.131c0.447,11.414-0.451,22.722-2.971,33.855
	c-3.496,15.449-10.553,29.269-19.605,42.169c-8.988,12.809-19.148,24.664-29.693,36.168c-9.783,10.674-20.924,19.653-34.795,24.662
	c-0.684,0.246-1.416,0.347-2.336,0.565c3.17-4.938,6.1-9.504,9.027-14.068c-14.801,12.24-29.863,23.643-48.994,29.412
	c1.393-2.833,2.58-5.117,3.643-7.46c1.01-2.229,2.502-4.331,2.408-7.448c-10.277,10.02-21.23,18.143-34.27,23.214
	c-1.541,0.601-2.652,0.936-4.152-0.121c2.178-5.876,4.354-11.753,6.713-18.125c-9.199,4.011-17.355,8.451-26.857,10.684
	c0.84-2.734,2.873-4.448,2.348-7.162c-3.164,0.771-6.072,1.431-8.947,2.22c-0.744,0.205-1.379,0.816-2.063,1.241
	c0.545,0.734,0.934,1.758,1.662,2.155c3.252,1.769,6.566,3.435,9.926,4.991c4.734,2.198,9.609,4.104,14.275,6.435
	c6.322,3.158,9.727,8.688,11.51,15.332c1.58,5.892,3.076,11.806,4.652,17.697c3.285,12.274,7.186,24.39,8.629,37.114
	c0.629,5.545,2.307,10.968,2.996,16.511c0.705,5.657,1.98,11.405,0.26,17.098c-0.898,2.961-1.957,5.908-3.293,8.694
	c-2.146,4.474-4.359,8.958-8.287,12.25c-2.859,2.396-3.309,4.489-1.943,7.874c2.693,6.688,5.627,13.3,7.879,20.137
	c7.621,23.141,13.463,46.676,14.742,71.149c0.361,6.937-0.105,7.922-6.344,11.096c-0.666,0.34-1.346,0.661-2.041,0.937
	c-4.984,1.972-9.943,4.019-14.979,5.846c-1.992,0.724-3.266,1.637-3.221,3.924c0.018,0.854-0.32,1.715-0.469,2.576
	c-3.328,19.361-7.865,38.375-16.18,56.307c-0.545,1.177-0.91,2.438-1.496,4.031c1.535,0,2.52-0.024,3.506,0.004
	c20.109,0.583,40.221,1.044,60.324,1.8c19.846,0.744,39.678,1.865,59.52,2.681c21.088,0.865,42.156,1.938,63.102,4.646
	c2.928,0.378,5.879,1.108,8.631,2.164c2.242,0.859,2.199,2.623,0.09,3.815c-1.17,0.662-2.523,1.174-3.85,1.354
	c-7.66,1.052-15.313,2.429-23.014,2.87c-22.447,1.289-44.916,2.33-67.387,3.205c-27.592,1.073-55.191,2.019-82.795,2.757
	c-22.484,0.604-44.979,1.032-67.469,1.169c-50.24,0.305-100.482,0.645-150.721,0.476c-59.109-0.2-118.22-0.787-177.327-1.479
	c-28.86-0.338-57.717-1.186-86.57-2.003c-19.607-0.556-39.211-1.339-58.807-2.246c-13.098-0.606-26.178-1.61-39.266-2.438
	c0-3.999,0-7.999,0-11.998c6.34-0.584,12.676-1.21,19.021-1.726c2.059-0.168,3.19-0.784,3.046-3.149
	c-0.152-2.485,0.122-4.993,0.122-7.491c0.003-44.235-0.011-88.474-0.013-132.71c0-23.993,0.021-47.983,0.018-71.977
	c0-3.482-0.038-3.561-3.453-3.563c-6.247-0.006-12.494,0.09-18.741,0.144c0-8.749,0-17.498,0-26.247
	c2.247,0.071,4.495,0.206,6.742,0.206c36.985,0.007,73.97,0.003,110.955-0.015c10.121-0.005,20.242-0.051,30.363-0.104
	c1.286-0.007,2.57-0.174,4.125-0.286c-0.983-2.867-2.987-2.17-4.552-2.169c-39.109,0.018-78.218,0.026-117.327,0.155
	C20.204,440.829,10.102,441.26,0,441.507z M188.185,421.288c-1.957-3.301-5.11-4.063-9.369-1.822
	c3.294,1.398,6.267,2.012,9.442,1.747c-0.258,1.982,0.43,3.368,2.444,3.971c2.251,0.672,4.455,1.793,6.743,1.993
	c6.076,0.529,12.185,0.683,18.281,0.96c3.105,0.141,6.211,0.289,9.318,0.324c4.721,0.056,9.443,0.016,14.166,0.016
	c-0.671-0.753-1.365-0.917-2.062-0.928c-5.328-0.074-10.658-0.036-15.983-0.194c-5.843-0.175-11.702-0.311-17.514-0.873
	c-3.547-0.344-7.044-1.366-10.512-2.277c-1.338-0.352-2.745-1.159-1.129-2.895c3.557,0.054,7.753-2.101,9.894,2.865
	c0.033,0.074,0.221,0.094,0.341,0.118c2.536,0.507,5.071,1.261,7.377,0.417c-3.428-1.863-6.852-3.748-10.298-5.59
	c-3.076-1.644-5.634-0.804-7.198,2.311C190.813,421.384,189.499,421.336,188.185,421.288z M567.495,224.912
	c1.205,2.672,2.393,4.728,3.086,6.938c4.729,15.065,4.82,30.26,0.514,45.394c-2.148,7.543-5.699,14.4-12.328,19.186
	c-8.25,5.953-18.332,5.269-25.662-1.772c-4.832-4.643-7.609-10.492-9.576-16.734c-3.873-12.299-3.91-24.844-1.959-37.464
	c1.574-10.169,5.52-19.441,11.291-27.869c3.26-4.76,7.717-8.346,13.789-8.697c9.625-0.558,18.535,1.757,26.586,7.257
	c6.588,4.501,11.932,10.199,16.68,16.539c1.832,2.449,3.805,4.794,6.186,7.776c0.201-1.619,0.344-2.336,0.373-3.059
	c0.289-6.865,0.168-13.777,0.957-20.585c0.619-5.319-0.701-8.073-5.967-10.281c-11.598-4.863-21.566-12.51-31.057-20.703
	c-1.865-1.611-3.832-2.416-6.334-2.745c-11.305-1.488-22.158,0.28-32.758,4.077c-0.99,0.354-1.986,1.454-2.432,2.453
	c-5.596,12.54-11.086,25.126-16.615,37.693c-0.367,0.838-0.85,1.627-1.379,2.631c-4.273-5.682-4.111-12.542-6.652-18.47
	c-0.279,3.046-0.025,6.06-0.334,9.013c-0.584,5.596-0.445,10.971,2.848,15.833c0.1,0.146-0.047,0.458-0.129,1.06
	c-3.824-0.27-7.775-0.074-11.482-0.935c-4.314-1.001-8.684-1.921-12.68-4.302c-7.691-4.58-12.91-11.286-17.336-18.752
	c-2.297-3.875-4.244-7.959-6.77-12.746c1.545,11.571,5.111,21.526,10.367,30.967c-7.201-5.403-13.826-11.324-18.74-18.729
	c-4.609-6.946-8.494-14.373-12.752-21.557c-0.797-1.345-1.582-3.234-2.813-3.695c-8.131-3.041-16.51-4.814-25.301-4.005
	c-2.752,0.253-4.607,1.314-5.826,3.854c-2.92,6.078-5.719,12.24-9.074,18.075c-3.795,6.594-4.817,13.479-3.957,20.881
	c0.51,4.385,0.709,8.807,1.047,13.21c0.295,0.086,0.592,0.173,0.889,0.258c1.578-2.893,3.041-5.857,4.762-8.664
	c2.604-4.238,5.078-8.614,8.172-12.481c4.393-5.492,10.258-8.703,17.479-8.835c10.246-0.188,19.869,3.745,24.637,14.771
	c2.219,5.133,3.014,10.458,4.156,15.802c2.475,11.591,3.273,23.229,1.768,34.99c-0.959,7.481-2.641,14.77-6.865,21.197
	c-5.891,8.961-15.426,10.824-23.109,4.483c-1.334-1.103-2.506-2.447-3.574-3.818c-3.914-5.018-6.34-10.762-7.613-16.941
	c-3.645-17.653-3.818-35.091,4.059-52.495c-11.512,9.129-14.182,21.477-15.404,34.646c-2.105-3.16-3.865-6.381-5.693-9.561
	c-0.27-0.468-0.863-0.745-1.309-1.11c-0.33,0.587-0.977,1.197-0.936,1.756c0.164,2.236,0.498,4.465,0.848,6.685
	c2.027,12.858,4.096,25.715-0.955,38.396c-0.045,0.113-0.041,0.247-0.068,0.368c-3.247,14.505,1.045,26.504,12.615,35.59
	c5.166,4.058,10.844,7.667,16.744,10.548c22.49,10.983,46.695,15.033,71.414,16.4c26.043,1.439,51.656-1.563,76.652-8.982
	c8.229-2.441,16.152-5.918,24.166-9.052c1.32-0.516,3.045-1.474,3.438-2.62c1.645-4.795,2.854-9.741,4.223-14.631
	c-5.842,5.121-12.209,8.9-19.232,11.827c3.41-6.324,7.01-12.179,9.836-18.386c9.314-20.474,12.1-42.363,13.314-64.538
	c0.043-0.828-0.621-1.695-0.957-2.543c-0.744,0.508-1.701,0.861-2.197,1.55c-1.902,2.633-3.656,5.373-5.891,8.706
	C585.569,243.419,579.631,232.716,567.495,224.912z M274.335,574.553c-0.006,0-0.012,0-0.018,0c0,33.981-0.004,67.965,0.005,101.946
	c0.001,4.334,0.03,4.338,4.369,4.33c25.612-0.046,51.223-0.096,76.835-0.128c1.242-0.002,2.5,0.051,3.728,0.231
	c3.871,0.571,5.631-0.855,5.633-4.764c0.018-22.611,0.035-45.224,0.017-67.834c-0.026-29.48-0.111-58.96-0.123-88.44
	c-0.006-15.863,0.104-31.728,0.13-47.592c0.005-3.078-0.062-3.152-3.057-3.173c-5.62-0.039-11.242,0.032-16.864,0.03
	c-22.363-0.009-44.728-0.035-67.09-0.033c-3.48,0-3.481,0.052-3.546,3.479c-0.012,0.625-0.017,1.249-0.017,1.874
	C274.335,507.837,274.335,541.195,274.335,574.553z M297.284,307.22c0.004,0,0.009,0,0.014,0c0-23.492,0.001-46.983-0.003-70.475
	c0-1.499-0.089-2.998-0.072-4.497c0.017-1.504-0.6-2.245-2.167-2.417c-3.1-0.342-6.179-0.877-9.274-1.271
	c-24.154-3.065-48.31-6.12-72.466-9.172c-15.605-1.972-31.21-3.94-46.817-5.901c-19.077-2.396-38.159-4.762-57.233-7.186
	c-14.117-1.795-28.218-3.722-42.341-5.472c-5.77-0.716-5.765-0.575-5.764,5.125c0.004,24.365,0.001,48.732-0.013,73.1
	c-0.018,30.115-0.058,60.229-0.071,90.345c-0.002,6.283,2.211,8.609,8.398,8.915c10.107,0.499,20.212,1.041,30.322,1.454
	c24.711,1.011,49.421,2.064,74.139,2.9c21.851,0.74,43.71,1.207,65.566,1.801c1.873,0.051,3.744,0.18,5.617,0.226
	c15.61,0.384,31.22,0.783,46.831,1.105c2.951,0.062,5.14-2.201,5.289-5.112c0.044-0.873,0.044-1.749,0.044-2.624
	C297.284,354.449,297.284,330.834,297.284,307.22z M367.737,682.243c7.581,0,15.062,0.036,22.542-0.013
	c5.422-0.035,4.945,0.725,4.947-5.073c0.018-67.823,0.018-135.646,0.02-203.472c0-0.749-0.057-1.503-0.002-2.247
	c0.117-1.553-0.453-2.258-2.117-2.249c-7.744,0.038-15.489,0.005-23.232-0.036c-1.236-0.007-1.873,0.411-1.802,1.727
	c0.048,0.872-0.009,1.748-0.009,2.623c-0.018,26.229-0.055,52.458-0.044,78.688c0.015,41.093,0.069,82.188,0.082,123.279
	C368.123,677.563,367.89,679.656,367.737,682.243z M155.036,439.854c1.204,3.688,2.346,6.647,3.093,9.702
	c0.377,1.541,1.187,1.658,2.373,1.655c3.748-0.011,7.495-0.011,11.243-0.01c67.092,0.021,134.183,0.038,201.274,0.063
	c19.616,0.008,39.231,0.048,58.846,0.049c3.604,0,3.604-0.055,3.699-3.341c0.203-7.005,0.203-6.97-7.035-6.997
	c-35.355-0.132-70.709-0.272-106.065-0.434c-48.472-0.22-96.944-0.464-145.416-0.687
	C169.687,439.824,162.326,439.854,155.036,439.854z M580.374,496.364c1.91-2.073,3.617-3.823,5.205-5.674
	c4.621-5.383,7.318-11.618,7.287-18.733c-0.031-7.469-0.467-14.926-3.137-22.067c-0.688-1.842-1.012-3.881-1.158-5.855
	c-0.689-9.272-3.625-18.04-5.971-26.936c-1.773-6.735-3.613-13.459-5.633-20.125c-1.148-3.801-2.557-7.544-4.137-11.188
	c-1.564-3.607-4.682-5.805-8.148-7.354c-3.775-1.691-4.666-1.372-6.055,2.586c-1.066,3.034-2.047,6.101-2.91,9.197
	c-0.494,1.769-3.777,13.745,0.229,13.656c1.9-0.042,3.506,0.153,4.186,2.227c0.527,1.607,1.262,3.207,1.439,4.86
	c1.135,10.644,2.162,21.299,3.184,31.954c0.416,4.34,0.248,8.8,1.205,13.01c1.375,6.046,3.535,11.914,5.359,17.857
	C573.618,481.275,575.668,488.868,580.374,496.364z M638.293,308.588c3.508,0,6.662,0.414,9.676-0.065
	c24.42-3.878,40.994-28.082,35.773-52.226c-2.063-9.538-7.107-16.984-16.301-21.043c-4.643-2.049-5.072-1.708-5.256,3.176
	c-0.021,0.624,0.01,1.254-0.064,1.871c-0.23,1.897,0.377,2.801,2.449,3.316c3.512,0.873,6.559,2.696,8.402,7.111
	c-1.5-0.777-2.289-1.291-3.15-1.607c-1.047-0.387-2.141-0.69-3.238-0.885c-4.512-0.794-5.096-0.335-5.885,4.175
	C657.178,272.521,651.086,291.62,638.293,308.588z M174.036,586.946c0-25.854,0.005-51.709-0.005-77.563
	c-0.001-4.995-0.035-9.992-0.123-14.986c-0.014-0.812-0.316-2.281-0.61-2.313c-1.966-0.218-4.036-0.417-5.916,0.033
	c-0.61,0.146-1.051,2.253-1.059,3.467c-0.08,11.488-0.041,22.979-0.052,34.47c-0.046,48.459-0.099,96.918-0.144,145.376
	c-0.001,1.748-0.083,3.513,0.139,5.236c0.084,0.649,0.823,1.575,1.436,1.741c4.689,1.272,6.324,0.02,6.327-4.781
	C174.042,647.399,174.035,617.173,174.036,586.946z M499.555,682.355c8.285,0,16.143-0.014,24,0.011
	c1.617,0.005,2.232-0.653,2.002-2.28c-0.277-1.978-0.441-3.971-0.625-5.959c-1.318-14.302-2.555-28.609-3.977-42.9
	c-0.654-6.573-0.816-6.557-7.303-6.881c-0.998-0.05-1.996-0.137-2.994-0.169c-4.018-0.14-3.66-0.328-3.936,3.421
	C505.395,645.773,504.211,663.973,499.555,682.355z M163.501,593.322c-0.092,0-0.185,0-0.277,0c0-9.868-0.01-19.735,0.002-29.604
	c0.028-22.61,0.071-45.221,0.095-67.829c0.001-1.428,0.468-3.054-2.056-3.029c-2.221,0.021-2.806,1.037-2.758,2.969
	c0.043,1.747-0.033,3.496-0.033,5.245c-0.002,58.711-0.003,117.421,0,176.132c0,4.872,0.066,9.743,0.026,14.614
	c-0.016,1.935,0.732,2.564,2.697,2.512c1.855-0.049,2.448-0.747,2.317-2.453c-0.066-0.869-0.012-1.748-0.012-2.622
	C163.501,657.277,163.501,625.3,163.501,593.322z M724.571,166.59c0.23-0.131,0.463-0.263,0.693-0.395
	C713.809,109.412,682.6,66.663,633.057,36.98c2.846,3.199,5.877,6.287,9.178,9.056c6.152,5.158,12.121,10.507,15.824,17.75
	c1.592,3.11,3.896,5.423,6.24,7.81c2.535,2.582,5.168,5.073,7.627,7.726c12.35,13.328,23.01,27.911,31.615,43.904
	c4.305,8.001,7.842,16.415,11.791,24.61C718.36,154.111,721.487,160.34,724.571,166.59z M485.266,394.922
	c3.322-0.563,5.975-1.037,8.635-1.456c9.895-1.556,19.867-1.713,29.844-1.455c2.623,0.067,3.947-0.723,5.027-3.188
	c2.396-5.469,5.225-10.746,7.867-16.105c0.313-0.632,0.576-1.287,1.225-2.747c-3.301,0.849-5.914,1.487-8.512,2.193
	c-5.525,1.505-11.059,2.958-16.875,2.447c-2.332-0.202-4.674-0.71-6.984-0.591c-2.863,0.148-5.189,1.882-7.736,3.118
	C490.26,380.779,488.479,387.872,485.266,394.922z M471.124,390.756c-0.971,0.473-1.414,0.539-1.563,0.783
	c-2.76,4.586-5.988,8.972-8.102,13.842c-3.568,8.235-6.016,16.966-9.721,25.131c-2.563,5.646-3.627,11.229-3.25,17.278
	c0.102,1.604-0.189,3.232-0.314,4.85c-0.354,4.594-0.758,9.183-1.053,13.78c-0.127,1.987-0.027,3.99-0.033,5.985
	c-0.014,5.697,2.064,10.722,4.811,16.086c1.6-3.139,2.379-5.721,2.246-8.744c-0.135-3.086,0.479-6.204,0.771-9.309
	c0.129-1.362,0.508-2.745,0.379-4.08c-0.672-6.999-1.393-13.997-2.254-20.976c-0.533-4.339,0.348-8.445,1.689-12.472
	c0.811-2.43,2.361-4.639,2.99-7.097c2.35-9.192,5.252-18.146,9.771-26.543C468.86,396.74,469.774,393.965,471.124,390.756z
	 M70.887,196.941c0.072-0.271,0.145-0.543,0.217-0.814c-0.831-0.365-1.631-0.924-2.498-1.061c-3.573-0.56-7.188-0.871-10.743-1.514
	c-2.188-0.396-2.633,0.555-2.591,2.384c0.058,2.498,0.056,4.997,0.057,7.496c0.029,56.599,0.054,113.197,0.088,169.796
	c0.001,1.371-0.035,2.771,0.228,4.101c0.096,0.485,1.011,0.812,1.552,1.21c0.271-0.464,0.608-0.904,0.787-1.402
	c0.118-0.329,0-0.74,0-1.115c-0.042-17.491-0.098-34.981-0.12-52.473c-0.05-40.106-0.083-80.213-0.125-120.319
	c-0.006-6.365,0.695-6.935,7.258-6.315C66.944,197.097,68.922,196.941,70.887,196.941z M421.129,173.24
	c-1.385-7.151-3.234-14.172-3.988-21.309c-0.758-7.164-3.037-4.457-5.502-0.488c-3.156,5.086-6.029,10.35-9.049,15.522
	c-1.125,1.927-2.314,3.813-3.607,5.939c3.924-0.403,7.494-1.107,11.051-1.042C413.721,171.931,417.395,172.746,421.129,173.24z
	 M550.053,171.518c-6.389-8.822-12.691-17.528-18.719-25.851c-2.479,9.112-5.072,18.645-7.717,28.364
	C532.387,170.07,541.282,170.34,550.053,171.518z M333.712,426.352c1.507-0.851,3.036-1.664,4.519-2.558
	c5.175-3.12,10.721-4.555,16.792-4.044c5.097,0.428,9.775,2.065,13.977,4.853c7.271,4.825,15.435,3.109,23.792,4.174
	C377.954,408.308,347.042,413.659,333.712,426.352z M268.363,470.821c-0.269,0.026-0.538,0.054-0.807,0.08
	c-0.063,1.337-0.181,2.674-0.183,4.011c-0.041,31.987-0.088,63.975-0.096,95.961c-0.009,34.235,0.014,68.472,0.054,102.707
	c0.002,1.853,0.29,3.701,0.444,5.554c0.196-0.023,0.391-0.048,0.587-0.07C268.363,609.648,268.363,540.234,268.363,470.821z
	 M244.563,433.161c0.095-2.319-1.312-2.168-2.555-2.185c-17.852-0.244-35.705-0.482-53.558-0.703
	c-0.476-0.006-0.955,0.2-1.455,0.313c0.794,2.241,2.427,1.924,3.888,1.955c9.487,0.215,18.973,0.484,28.462,0.599
	C227.696,433.241,236.049,433.161,244.563,433.161z M113.579,432.373c-5.411,0.478-10.492,0.813-15.541,1.414
	c-2.694,0.319-5.083,1.521-7.201,4.052c5.721,0,10.943,0.004,16.164-0.001C111.848,437.834,111.848,437.828,113.579,432.373z
	 M274.641,428.025c-0.053,0.283-0.107,0.568-0.16,0.854c1.212,0.427,2.433,0.83,3.633,1.289c0.781,0.297,1.767,0.472,2.257,1.046
	c3.165,3.709,7.16,2.243,10.88,2.492c0.097-0.395,0.195-0.787,0.293-1.183c-3.516-0.881-7.033-1.762-11.08-2.776
	c1.516-0.646,2.503-1.067,3.491-1.489C280.685,427.056,277.634,426.958,274.641,428.025z M268.808,423.16
	c5.008,3.028,5.277,3.084,9.462,2.076c-10.243-6.54-12.116-7.141-15.664-4.588c2.815,0.632,5.31,1.191,7.826,1.755
	C270.039,422.588,269.617,422.782,268.808,423.16z M180.412,424.529c0.029-0.281,0.059-0.563,0.088-0.846
	c-2.643-1.682-5.237-3.446-7.944-5.017c-1.997-1.158-3.795-0.937-6,0.354c0.129,0.197,0.218,0.444,0.393,0.586
	c2.278,1.832,6.809-0.065,7.469,4.499c0.014,0.094,0.45,0.167,0.693,0.18C176.878,424.377,178.646,424.449,180.412,424.529z
	 M249.417,420.883c2.113,0.39,3.573,0.619,5.012,0.942c0.667,0.149,1.492,0.306,1.903,0.764c1.841,2.051,4.737,3.157,7.946,2.563
	c-3.153-2.003-5.899-3.983-8.867-5.544C253.572,418.642,251.442,418.537,249.417,420.883z M289.407,424.146
	c-5.371-4.696-7.534-5.513-11.205-4.151C281.743,421.99,284.75,424.756,289.407,424.146z M188.063,425.612
	c-3.31,0.539-6.854-1.773-9.694,1.896C184.057,429.724,186.292,429.323,188.063,425.612z M157.902,424.586
	c0.029-0.373,0.058-0.747,0.086-1.12c-2.651-0.51-5.291-1.112-7.963-1.455c-0.617-0.079-1.348,0.735-2.026,1.139
	c0.623,0.513,1.225,1.435,1.873,1.467C152.541,424.752,155.224,424.618,157.902,424.586z M160.559,423.705
	c4.68,1.304,6.014,1.265,9.086-0.29c-1.545-0.646-3.012-1.273-4.492-1.873C162.851,420.607,161.388,421.419,160.559,423.705z
	 M150.174,420.357c-3.276-2.698-6.99-3.352-10.168-1.687C143.347,420.265,146.348,421.814,150.174,420.357z M299.321,429.34
	c-2.504-1.219-4.571-2.328-6.732-3.206c-0.606-0.247-1.491,0.188-2.249,0.312c0.348,0.734,0.499,1.75,1.077,2.153
	C293.682,430.186,296.205,430.319,299.321,429.34z M165.932,428.122c2.904,0.255,5.07,0.539,7.239,0.563
	c0.501,0.006,1.012-0.878,1.519-1.354c-0.483-0.468-0.903-1.234-1.46-1.353C170.93,425.495,168.588,425.204,165.932,428.122z
	 M236.671,424.415c0.073,0.348,0.146,0.694,0.22,1.041c3.938-0.302,6.64,5.25,11.107,2.563c-1.763-0.694-3.461-1.312-5.115-2.03
	c-1.468-0.639-2.849-1.493-4.347-2.04C238.038,423.766,237.3,424.241,236.671,424.415z M171.221,432.88
	c0.07-0.49,0.139-0.979,0.209-1.47c-2.991-0.382-5.977-0.806-8.977-1.092c-0.381-0.036-0.831,0.648-1.249,0.999
	c0.339,0.335,0.655,0.932,1.021,0.964C165.219,432.54,168.221,432.694,171.221,432.88z M163.832,428.162
	c-3.208-2.566-6.152-2.393-9.387-1.281C156.503,429.21,158.089,429.436,163.832,428.162z M174.717,429.837
	c-0.067,0.312-0.135,0.622-0.203,0.935c3,2.55,5.791,3.025,8.853,0.815C180.484,431.003,177.601,430.42,174.717,429.837z
	 M264.566,432.51c-2.714-2.021-5.926-1.429-8.953-1.821C258.086,433.545,261.24,433.455,264.566,432.51z M299.952,428.42
	c4.556,1.911,6.023,2.002,8.781,0.693C306.149,426.443,303.335,426.747,299.952,428.42z M253.194,424.971
	c-1.977-0.939-3.526-1.663-5.063-2.41c-1.782-0.866-3.332-1.089-4.034,1.332C250.479,425.797,250.479,425.797,253.194,424.971z
	 M217.404,419.949c3.427,1.149,5.979,2.369,9.365,0.979C223.743,418.973,221.224,417.789,217.404,419.949z M161.498,420.843
	c-2.464-3.465-5.528-3.793-8.827-1.081C155.956,420.164,158.727,420.504,161.498,420.843z M315.725,433.751
	c-3.124-2.963-5.471-3.363-8.008-1.531C310.025,434.045,312.581,434.382,315.725,433.751z M276.5,433.617
	c-3.499-3.245-5.634-3.497-8.748-1.136C270.667,432.861,273.583,433.239,276.5,433.617z M213.974,421.566
	c-3.251-3.795-5.907-4.06-8.112-1.227C208.66,420.763,211.317,421.164,213.974,421.566z M368.417,431.683
	c-3.063-3.962-5.99-8.295-11.407-9.593C360.854,425.322,364.635,428.502,368.417,431.683z M296.765,420.896
	c-2.623-1.313-4.749-2.482-7.223-0.811C291.247,422.513,292.819,422.724,296.765,420.896z M251.257,427.855
	c3.177,2.098,4.062,2.021,7.625-0.603C256.264,427.276,253.798,425.237,251.257,427.855z M302.342,424.573
	c-3.401-2.517-3.864-2.496-6.738,0.068C298.345,426.043,298.97,426.049,302.342,424.573z M262.824,426.298
	c1.817,4.152,3.914,4.317,6.826,1.073C267.507,427.034,265.475,426.716,262.824,426.298z M232.661,425.709
	c-4.992-4.016-4.992-4.016-6.554-0.813C228.357,425.177,230.509,425.442,232.661,425.709z M231.538,418.807
	c-0.443,0.27-1.188,0.719-1.931,1.169c0.665,0.408,1.303,0.875,2.006,1.201c0.425,0.198,0.952,0.237,1.434,0.239
	c0.974,0.003,1.948-0.067,2.921-0.107c-0.835-0.725-1.628-1.506-2.524-2.145C233.086,418.909,232.503,418.972,231.538,418.807z
	 M305.123,433.603c-2.229-1.754-4.353-2.109-6.73-2.014C299.333,434.245,299.493,434.296,305.123,433.603z M246.493,431.39
	c2.203,1.52,4.287,2.061,7.405,1.435C251.241,430.839,249.304,429.466,246.493,431.39z M245.497,420.979
	c-2.821-2.479-3.799-2.489-6.454-0.249C241.177,422.162,243.132,421.249,245.497,420.979z M221.399,425.337
	c0.055-0.319,0.109-0.641,0.164-0.959c-1.587-0.624-3.149-1.336-4.778-1.82c-0.503-0.149-1.191,0.319-1.794,0.505
	c0.356,0.404,0.647,1.056,1.08,1.168C217.823,424.689,219.619,424.982,221.399,425.337z"/>
<path fill="#FFFFFF" d="M0,441.507c10.102-0.247,20.204-0.678,30.306-0.711c39.109-0.129,78.217-0.139,117.327-0.155
	c1.565-0.001,3.568-0.698,4.552,2.169c-1.555,0.112-2.839,0.279-4.125,0.286c-10.121,0.053-20.242,0.099-30.363,0.104
	c-36.985,0.018-73.97,0.021-110.955,0.015c-2.247,0-4.495-0.135-6.742-0.206C0,442.507,0,442.008,0,441.507z"/>
<path fill="#FFFFFF" d="M567.495,224.912c12.137,7.804,18.074,18.507,19.174,33.05c2.234-3.333,3.988-6.073,5.893-8.706
	c0.496-0.688,1.451-1.042,2.197-1.55c0.334,0.849,1,1.715,0.955,2.543c-1.215,22.175-4,44.063-13.314,64.538
	c-2.824,6.208-6.426,12.063-9.834,18.386c7.021-2.927,13.391-6.707,19.232-11.827c-1.369,4.891-2.578,9.836-4.223,14.631
	c-0.395,1.146-2.119,2.104-3.439,2.62c-8.012,3.134-15.938,6.61-24.164,9.052c-24.998,7.421-50.611,10.423-76.654,8.982
	c-24.719-1.367-48.922-5.417-71.414-16.4c-5.898-2.881-11.576-6.492-16.742-10.548c-11.57-9.085-15.863-21.084-12.615-35.59
	c0.027-0.122,0.021-0.255,0.066-0.368c5.053-12.683,2.982-25.539,0.955-38.396c-0.35-2.22-0.684-4.448-0.848-6.685
	c-0.041-0.56,0.605-1.169,0.936-1.756c0.445,0.365,1.041,0.643,1.309,1.11c1.83,3.18,3.588,6.4,5.695,9.561
	c1.223-13.169,3.893-25.517,15.402-34.646c-7.875,17.404-7.701,34.842-4.059,52.494c1.275,6.181,3.701,11.926,7.615,16.942
	c1.068,1.371,2.238,2.716,3.574,3.818c7.684,6.34,17.219,4.478,23.107-4.483c4.227-6.428,5.906-13.716,6.865-21.197
	c1.508-11.76,0.709-23.398-1.768-34.99c-1.143-5.344-1.938-10.669-4.154-15.802c-4.77-11.026-14.393-14.958-24.637-14.771
	c-7.223,0.132-13.088,3.343-17.48,8.835c-3.092,3.867-5.566,8.243-8.17,12.481c-1.723,2.807-3.186,5.771-4.764,8.664
	c-0.295-0.085-0.592-0.172-0.889-0.258c-0.338-4.403-0.535-8.825-1.045-13.21c-0.862-7.4,0.16-14.287,3.955-20.881
	c3.357-5.835,6.154-11.997,9.074-18.075c1.221-2.54,3.074-3.602,5.828-3.854c8.791-0.81,17.168,0.964,25.299,4.005
	c1.23,0.461,2.018,2.351,2.814,3.695c4.258,7.184,8.141,14.61,12.752,21.557c4.914,7.404,11.537,13.325,18.738,18.729
	c-5.256-9.44-8.82-19.396-10.367-30.967c2.525,4.787,4.473,8.87,6.77,12.746c4.428,7.467,9.646,14.172,17.338,18.752
	c3.996,2.381,8.363,3.301,12.678,4.302c3.707,0.86,7.66,0.665,11.484,0.935c0.08-0.601,0.227-0.913,0.129-1.06
	c-3.295-4.862-3.434-10.236-2.85-15.833c0.309-2.953,0.055-5.967,0.336-9.013c2.539,5.928,2.377,12.788,6.65,18.47
	c0.531-1.004,1.012-1.793,1.381-2.631c5.529-12.567,11.02-25.154,16.613-37.693c0.445-0.999,1.441-2.099,2.432-2.453
	c10.602-3.797,21.455-5.565,32.76-4.077c2.502,0.329,4.467,1.134,6.334,2.745c9.488,8.192,19.459,15.839,31.055,20.703
	c5.266,2.208,6.586,4.962,5.969,10.281c-0.789,6.808-0.67,13.72-0.957,20.585c-0.029,0.723-0.172,1.438-0.375,3.059
	c-2.381-2.982-4.352-5.327-6.186-7.776c-4.746-6.34-10.09-12.037-16.68-16.539c-8.051-5.5-16.961-7.813-26.586-7.257
	c-6.072,0.353-10.527,3.938-13.787,8.697c-5.771,8.428-9.719,17.699-11.291,27.869c-1.953,12.62-1.916,25.165,1.959,37.464
	c1.965,6.242,4.744,12.093,9.574,16.734c7.33,7.041,17.414,7.726,25.662,1.772c6.629-4.785,10.182-11.644,12.328-19.187
	c4.309-15.133,4.217-30.327-0.512-45.393C569.887,229.64,568.7,227.584,567.495,224.912z"/>
<path fill="#FFFFFF" d="M274.335,574.553c0-33.357,0-66.716,0-100.072c0-0.625,0.005-1.249,0.017-1.874
	c0.064-3.427,0.066-3.479,3.546-3.479c22.363-0.002,44.727,0.024,67.09,0.033c5.622,0.002,11.244-0.069,16.864-0.03
	c2.995,0.021,3.062,0.095,3.057,3.173c-0.026,15.864-0.136,31.729-0.13,47.592c0.011,29.48,0.096,58.96,0.123,88.44
	c0.02,22.61,0.001,45.223-0.017,67.834c-0.002,3.907-1.762,5.335-5.633,4.764c-1.228-0.183-2.484-0.233-3.728-0.231
	c-25.612,0.032-51.224,0.082-76.835,0.128c-4.339,0.008-4.368,0.005-4.369-4.33c-0.009-33.981-0.005-67.965-0.005-101.946
	C274.324,574.553,274.33,574.553,274.335,574.553z M322.507,538.183c-10.871,0-21.742-0.042-32.612,0.02
	c-4.751,0.026-6.809,2.146-6.989,6.853c-0.015,0.374-0.007,0.75-0.007,1.125c0.019,15.617,0.033,31.234,0.064,46.854
	c0.003,1.245,0.004,2.509,0.206,3.731c0.43,2.618,2.024,4.256,4.628,4.75c1.214,0.23,2.482,0.249,3.725,0.248
	c20.118-0.005,40.235-0.026,60.353-0.049c3.938-0.004,3.963-0.013,3.974,4.041c0.04,15.867,0.071,31.734,0.087,47.603
	c0.003,3.296-0.034,3.384-3.259,3.414c-6.872,0.064-13.745,0.04-20.617,0.03c-13.619-0.021-27.239-0.053-40.859-0.085
	c-1.611-0.004-3.221,0.328-3.135-2.354c0.221-6.866,0.229-13.742,0.2-20.613c-0.009-2,0.751-2.53,2.662-2.495
	c6.245,0.12,12.494,0.103,18.742,0.079c3.831-0.015,5.202-1.302,5.316-5.111c0.111-3.746,0.062-7.497,0.045-11.245
	c-0.021-5.065-0.995-6.054-6.193-6.12c-5.622-0.07-11.246-0.094-16.868-0.073c-5.156,0.021-6.404,1.246-6.424,6.413
	c-0.067,16.868-0.103,33.735-0.121,50.604c-0.006,5.351,1.331,6.736,6.576,6.744c20.243,0.024,40.485,0.021,60.727,0.003
	c4.497-0.003,6.25-1.885,6.176-6.462c-0.104-6.244-0.273-12.489-0.294-18.733c-0.049-14.245-0.048-28.49,0.016-42.734
	c0.005-1.263,0.25-3.289,1.001-3.642c2.384-1.116,2.375-3.021,2.402-5.002c0.051-3.873-0.001-7.747,0.004-11.62
	c0.02-13.12,0.069-26.24,0.057-39.36c-0.004-4.609-1.968-6.565-6.592-6.788c-0.998-0.047-2-0.02-2.999-0.02
	C342.499,538.186,332.503,538.186,322.507,538.183z M322.426,505.319c0-0.004,0-0.007,0-0.011c5.119,0,10.237,0.007,15.355-0.002
	c5.868-0.011,11.735,0.032,17.601-0.081c3.634-0.07,5.955-1.795,6.044-4.813c0.206-6.982,0.221-13.977,0.103-20.962
	c-0.049-2.917-1.776-4.483-4.698-4.858c-1.107-0.144-2.244-0.077-3.367-0.078c-12.607-0.015-25.217-0.022-37.826-0.029
	c-8.737-0.006-17.477-0.056-26.215,0.012c-4.282,0.035-6.466,2.315-6.43,6.476c0.049,5.74,0.072,11.481,0.238,17.221
	c0.155,5.36,1.923,7.077,7.365,7.109C301.205,505.364,311.815,505.319,322.426,505.319z M322.004,533.555c0,0.054,0,0.105,0,0.159
	c10.985,0,21.969,0.023,32.953-0.012c5.18-0.017,6.335-1.185,6.417-6.445c0.06-3.868,0.062-7.74-0.048-11.607
	c-0.14-4.935-1.707-6.397-6.659-6.406c-21.22-0.034-42.44-0.063-63.659-0.079c-1.368-0.001-2.761-0.006-4.096,0.239
	c-2.737,0.502-4.031,1.809-4.103,4.53c-0.135,5.113-0.125,10.235,0.001,15.35c0.061,2.48,1.457,3.779,4,4.12
	c1.231,0.165,2.491,0.146,3.739,0.146C301.034,533.559,311.52,533.555,322.004,533.555z"/>
<path fill="#FFFFFF" d="M297.284,307.22c0,23.615,0,47.229-0.001,70.844c0,0.875,0,1.751-0.044,2.624
	c-0.149,2.911-2.338,5.174-5.289,5.112c-15.611-0.322-31.221-0.723-46.831-1.105c-1.873-0.046-3.744-0.175-5.617-0.226
	c-21.856-0.594-43.715-1.062-65.566-1.801c-24.718-0.836-49.428-1.891-74.139-2.9c-10.11-0.413-20.215-0.955-30.322-1.454
	c-6.187-0.306-8.401-2.632-8.398-8.915c0.013-30.114,0.053-60.229,0.071-90.345c0.015-24.367,0.017-48.734,0.013-73.1
	c-0.001-5.7-0.005-5.842,5.764-5.125c14.123,1.75,28.224,3.677,42.341,5.472c19.075,2.424,38.156,4.79,57.233,7.186
	c15.606,1.961,31.212,3.93,46.817,5.901c24.156,3.052,48.312,6.106,72.466,9.172c3.096,0.394,6.174,0.929,9.274,1.271
	c1.567,0.173,2.184,0.914,2.167,2.417c-0.017,1.499,0.072,2.998,0.072,4.497c0.005,23.491,0.003,46.982,0.003,70.475
	C297.293,307.22,297.288,307.22,297.284,307.22z M178.848,375.406c0.003-0.098,0.007-0.195,0.01-0.294
	c32.964,1.109,65.932,2.125,98.89,3.395c9.117,0.351,8.97-1.905,8.965-8.785c-0.025-33.611-0.07-67.222-0.088-100.834
	c-0.004-8.121,0.081-16.242,0.1-24.362c0.012-4.737-0.951-5.803-5.774-6.455c-2.473-0.334-4.954-0.614-7.432-0.918
	c-15.361-1.877-30.721-3.766-46.085-5.629c-14.992-1.818-29.99-3.597-44.981-5.425c-17.965-2.189-35.93-4.388-53.889-6.628
	c-16.599-2.071-33.197-4.147-49.78-6.337c-6.466-0.854-7.544-0.068-7.544,6.437c0.001,48.479,0.003,96.96,0.005,145.44
	c0,5.015,0.801,5.924,5.749,6.133C110.944,372.576,144.896,373.987,178.848,375.406z M283.53,383.987
	c-0.064,0.096-0.127,0.19-0.19,0.285c2.034,0,4.066,0,6.1,0c-0.001-0.095-0.003-0.189-0.005-0.285
	C287.466,383.987,285.498,383.987,283.53,383.987z"/>
<path fill="#FFFFFF" d="M155.036,439.854c7.29,0,14.651-0.029,22.011,0.004c48.472,0.223,96.944,0.467,145.416,0.688
	c35.355,0.159,70.709,0.301,106.065,0.433c7.238,0.027,7.238-0.008,7.033,6.997c-0.096,3.286-0.096,3.341-3.697,3.341
	c-19.615-0.001-39.23-0.041-58.846-0.049c-67.092-0.025-134.183-0.043-201.274-0.063c-3.748-0.001-7.495-0.001-11.243,0.01
	c-1.186,0.003-1.996-0.114-2.373-1.655C157.381,446.502,156.24,443.543,155.036,439.854z"/>
<path fill="#FFFFFF" d="M580.374,496.364c-4.705-7.495-6.756-15.089-9.055-22.586c-1.824-5.943-3.984-11.813-5.359-17.857
	c-0.957-4.21-0.789-8.669-1.205-13.01c-1.021-10.655-2.049-21.312-3.184-31.954c-0.178-1.653-0.91-3.253-1.439-4.86
	c-0.68-2.072-2.283-2.269-4.186-2.227c-0.465,0.01-1.297-1.164-1.371-1.857c-0.236-2.218-0.658-4.573-0.168-6.681
	c1.125-4.839,2.574-9.624,4.221-14.315c1.389-3.958,2.277-4.276,6.055-2.586c3.467,1.551,6.584,3.747,8.148,7.354
	c1.58,3.645,2.988,7.388,4.137,11.188c2.02,6.666,3.857,13.39,5.633,20.125c2.346,8.896,5.279,17.662,5.971,26.936
	c0.146,1.976,0.471,4.015,1.158,5.855c2.67,7.143,3.104,14.6,3.137,22.068c0.031,7.114-2.666,13.351-7.287,18.732
	C583.991,492.54,582.284,494.29,580.374,496.364z"/>
<path fill="#FFFFFF" d="M638.293,308.588c12.793-16.968,18.885-36.067,22.406-56.177c0.789-4.51,1.373-4.969,5.885-4.175
	c1.1,0.193,2.191,0.498,3.238,0.885c0.861,0.316,1.65,0.831,3.15,1.607c-1.844-4.415-4.893-6.239-8.402-7.111
	c-2.072-0.517-2.68-1.418-2.449-3.316c0.074-0.617,0.043-1.247,0.064-1.871c0.184-4.884,0.613-5.225,5.256-3.176
	c9.193,4.059,14.238,11.505,16.301,21.043c5.221,24.144-11.354,48.348-35.773,52.226
	C644.956,309.001,641.801,308.588,638.293,308.588z"/>
<path fill="#FFFFFF" d="M174.035,586.946c0,30.228,0.007,60.453-0.006,90.679c-0.002,4.802-1.638,6.056-6.327,4.782
	c-0.613-0.166-1.352-1.092-1.436-1.742c-0.222-1.724-0.141-3.487-0.139-5.235c0.045-48.458,0.098-96.917,0.144-145.376
	c0.011-11.49-0.028-22.98,0.052-34.471c0.008-1.213,0.449-3.319,1.059-3.466c1.879-0.451,3.949-0.251,5.916-0.034
	c0.294,0.032,0.596,1.503,0.61,2.313c0.088,4.994,0.121,9.991,0.123,14.986C174.041,535.237,174.036,561.093,174.035,586.946z"/>
<path fill="#FFFFFF" d="M163.501,593.322c0,31.979,0,63.955,0,95.934c0,0.874-0.054,1.753,0.012,2.622
	c0.131,1.706-0.462,2.404-2.317,2.453c-1.965,0.054-2.713-0.577-2.697-2.512c0.04-4.871-0.025-9.742-0.026-14.614
	c-0.003-58.711-0.002-117.421,0-176.132c0-1.749,0.076-3.498,0.033-5.245c-0.047-1.932,0.538-2.947,2.758-2.969
	c2.524-0.023,2.058,1.602,2.056,3.029c-0.023,22.608-0.066,45.219-0.095,67.829c-0.012,9.867-0.002,19.735-0.002,29.604
	C163.316,593.322,163.409,593.322,163.501,593.322z"/>
<path fill="#FFFFFF" d="M724.571,166.59c-3.084-6.25-6.211-12.479-9.236-18.757c-3.949-8.195-7.486-16.608-11.793-24.61
	c-8.604-15.993-19.266-30.576-31.615-43.904c-2.459-2.652-5.09-5.144-7.627-7.726c-2.344-2.387-4.646-4.699-6.24-7.81
	c-3.701-7.242-9.67-12.591-15.824-17.75c-3.301-2.769-6.33-5.855-9.176-9.056c49.543,29.684,80.75,72.433,92.205,129.216
	C725.034,166.327,724.801,166.459,724.571,166.59z"/>
<path fill="#FFFFFF" d="M485.266,394.922c3.215-7.05,4.994-14.144,12.49-17.783c2.547-1.236,4.871-2.97,7.734-3.118
	c2.313-0.119,4.654,0.389,6.986,0.591c5.816,0.511,11.35-0.942,16.875-2.447c2.598-0.706,5.209-1.346,8.512-2.193
	c-0.648,1.46-0.912,2.115-1.225,2.747c-2.645,5.359-5.473,10.638-7.869,16.105c-1.08,2.466-2.404,3.256-5.025,3.188
	c-9.979-0.258-19.951-0.101-29.846,1.455C491.239,393.885,488.588,394.359,485.266,394.922z"/>
<path fill="#FFFFFF" d="M471.124,390.756c-1.35,3.209-2.264,5.984-3.629,8.518c-4.52,8.397-7.422,17.351-9.771,26.543
	c-0.629,2.458-2.18,4.667-2.99,7.097c-1.342,4.025-2.225,8.133-1.689,12.472c0.861,6.979,1.582,13.977,2.254,20.976
	c0.129,1.335-0.25,2.718-0.379,4.08c-0.295,3.104-0.906,6.223-0.771,9.309c0.133,3.023-0.646,5.605-2.246,8.744
	c-2.746-5.364-4.822-10.389-4.811-16.086c0.006-1.995-0.094-3.998,0.033-5.985c0.295-4.599,0.699-9.188,1.053-13.78
	c0.125-1.616,0.416-3.245,0.314-4.849c-0.377-6.052,0.688-11.635,3.25-17.279c3.705-8.165,6.15-16.896,9.721-25.131
	c2.111-4.87,5.342-9.256,8.102-13.842C469.709,391.295,470.153,391.229,471.124,390.756z"/>
<path fill="#FFFFFF" d="M70.887,196.941c-1.964,0-3.943,0.155-5.89-0.027c-6.563-0.619-7.264-0.05-7.258,6.315
	c0.042,40.106,0.075,80.213,0.125,120.319c0.022,17.491,0.078,34.981,0.12,52.473c0.001,0.375,0.118,0.786,0,1.115
	c-0.179,0.498-0.517,0.938-0.787,1.402c-0.542-0.398-1.456-0.725-1.552-1.21c-0.263-1.33-0.227-2.729-0.228-4.101
	c-0.035-56.6-0.059-113.198-0.088-169.796c-0.001-2.499,0.001-4.998-0.057-7.496c-0.042-1.829,0.403-2.78,2.591-2.384
	c3.556,0.643,7.17,0.954,10.743,1.514c0.867,0.135,1.667,0.695,2.498,1.061C71.032,196.398,70.959,196.67,70.887,196.941z"/>
<path fill="#FFFFFF" d="M421.129,173.24c-3.734-0.494-7.408-1.31-11.098-1.377c-3.557-0.065-7.127,0.639-11.051,1.042
	c1.293-2.125,2.482-4.013,3.607-5.939c3.02-5.173,5.893-10.437,9.049-15.522c2.465-3.969,4.744-6.676,5.502,0.488
	C417.895,159.068,419.745,166.089,421.129,173.24z"/>
<path fill="#FFFFFF" d="M550.053,171.518c-8.771-1.178-17.666-1.448-26.436,2.514c2.645-9.72,5.236-19.251,7.717-28.364
	C537.36,153.99,543.665,162.696,550.053,171.518z"/>
<path fill="#FFFFFF" d="M333.712,426.352c13.33-12.691,44.242-18.044,59.078,2.425c-8.355-1.063-16.519,0.651-23.792-4.174
	c-4.201-2.786-8.88-4.425-13.977-4.853c-6.071-0.511-11.617,0.924-16.792,4.044C336.748,424.688,335.219,425.501,333.712,426.352z"
	/>
<path fill="#FFFFFF" d="M268.363,470.821c0,69.413,0,138.827,0,208.241c-0.196,0.023-0.391,0.047-0.587,0.07
	c-0.154-1.853-0.442-3.701-0.444-5.554c-0.04-34.235-0.063-68.472-0.054-102.706c0.008-31.987,0.055-63.975,0.096-95.962
	c0.001-1.337,0.119-2.674,0.183-4.011C267.826,470.873,268.094,470.848,268.363,470.821z"/>
<path fill="#FFFFFF" d="M244.563,433.161c-8.514,0-16.867,0.08-25.218-0.021c-9.489-0.113-18.975-0.384-28.462-0.598
	c-1.46-0.032-3.093,0.285-3.888-1.956c0.5-0.112,0.979-0.318,1.455-0.313c17.853,0.221,35.706,0.459,53.558,0.703
	C243.251,430.993,244.658,430.842,244.563,433.161z"/>
<path fill="#FFFFFF" d="M113.579,432.373c-1.73,5.455-1.73,5.46-6.578,5.465c-5.221,0.005-10.443,0.001-16.164,0.001
	c2.117-2.531,4.506-3.731,7.201-4.052C103.087,433.188,108.167,432.851,113.579,432.373z"/>
<path fill="#FFFFFF" d="M192.01,421.31c-1.616,1.734-0.209,2.543,1.129,2.895c3.468,0.911,6.965,1.935,10.512,2.277
	c5.812,0.563,11.671,0.698,17.514,0.873c5.325,0.158,10.656,0.12,15.983,0.194c0.696,0.011,1.391,0.175,2.062,0.928
	c-4.722,0-9.444,0.04-14.166-0.016c-3.107-0.035-6.213-0.185-9.318-0.324c-6.097-0.277-12.206-0.431-18.281-0.96
	c-2.288-0.2-4.492-1.321-6.743-1.993c-2.014-0.603-2.702-1.987-2.444-3.971l-0.073,0.075c1.314,0.048,2.628,0.096,3.941,0.143
	L192.01,421.31z"/>
<path fill="#FFFFFF" d="M274.641,428.025c2.994-1.066,6.044-0.97,9.314,0.231c-0.988,0.422-1.975,0.844-3.491,1.489
	c4.047,1.016,7.564,1.896,11.08,2.776c-0.098,0.395-0.196,0.788-0.293,1.183c-3.721-0.249-7.715,1.217-10.88-2.492
	c-0.49-0.574-1.477-0.749-2.257-1.047c-1.2-0.458-2.42-0.861-3.633-1.288C274.534,428.594,274.587,428.309,274.641,428.025z"/>
<path fill="#FFFFFF" d="M268.808,423.16c0.81-0.378,1.231-0.572,1.625-0.757c-2.516-0.563-5.011-1.122-7.826-1.755
	c3.547-2.553,5.42-1.952,15.664,4.588C274.085,426.244,273.815,426.189,268.808,423.16z"/>
<path fill="#FFFFFF" d="M192.126,421.431c1.563-3.113,4.122-3.953,7.198-2.311c3.446,1.842,6.87,3.727,10.298,5.59
	c-2.306,0.844-4.841,0.09-7.377-0.417c-0.12-0.024-0.308-0.045-0.341-0.118c-2.141-4.966-6.337-2.813-9.894-2.865L192.126,421.431z"
	/>
<path fill="#FFFFFF" d="M180.412,424.529c-1.767-0.079-3.534-0.151-5.3-0.244c-0.243-0.013-0.68-0.086-0.693-0.18
	c-0.661-4.564-5.191-2.667-7.469-4.499c-0.175-0.142-0.264-0.389-0.393-0.587c2.205-1.288,4.003-1.511,6-0.353
	c2.707,1.569,5.301,3.335,7.944,5.017C180.471,423.966,180.441,424.247,180.412,424.529z"/>
<path fill="#FFFFFF" d="M249.417,420.883c2.025-2.346,4.156-2.241,5.994-1.275c2.968,1.561,5.713,3.541,8.867,5.544
	c-3.209,0.596-6.104-0.512-7.946-2.563c-0.412-0.458-1.236-0.613-1.903-0.764C252.989,421.502,251.53,421.272,249.417,420.883z"/>
<path fill="#FFFFFF" d="M289.407,424.146c-4.656,0.609-7.664-2.155-11.205-4.151C281.873,418.634,284.036,419.449,289.407,424.146z"
	/>
<path fill="#FFFFFF" d="M188.063,425.612c-1.771,3.711-4.006,4.111-9.694,1.896C181.209,423.838,184.753,426.151,188.063,425.612z"
	/>
<path fill="#FFFFFF" d="M157.902,424.586c-2.678,0.032-5.361,0.166-8.031,0.029c-0.647-0.032-1.25-0.954-1.873-1.467
	c0.679-0.402,1.41-1.218,2.026-1.139c2.672,0.343,5.312,0.945,7.963,1.455C157.96,423.839,157.932,424.213,157.902,424.586z"/>
<path fill="#FFFFFF" d="M160.559,423.705c0.829-2.286,2.292-3.099,4.594-2.163c1.479,0.6,2.946,1.229,4.492,1.873
	C166.573,424.97,165.239,425.009,160.559,423.705z"/>
<path fill="#FFFFFF" d="M150.174,420.357c-3.826,1.457-6.827-0.093-10.168-1.687C143.185,417.006,146.898,417.658,150.174,420.357z"
	/>
<path fill="#FFFFFF" d="M299.321,429.34c-3.116,0.979-5.639,0.846-7.904-0.741c-0.578-0.403-0.729-1.419-1.077-2.153
	c0.757-0.123,1.642-0.559,2.249-0.312C294.75,427.012,296.816,428.121,299.321,429.34z"/>
<path fill="#FFFFFF" d="M165.932,428.122c2.656-2.918,4.998-2.627,7.298-2.142c0.557,0.117,0.978,0.885,1.46,1.353
	c-0.507,0.476-1.018,1.358-1.519,1.354C171.002,428.661,168.836,428.377,165.932,428.122z"/>
<path fill="#FFFFFF" d="M188.258,421.213c-3.175,0.265-6.147-0.348-9.442-1.747c4.258-2.239,7.412-1.479,9.369,1.822
	L188.258,421.213z"/>
<path fill="#FFFFFF" d="M236.671,424.415c0.629-0.174,1.367-0.649,1.866-0.468c1.498,0.547,2.879,1.401,4.347,2.04
	c1.653,0.721,3.352,1.336,5.115,2.03c-4.467,2.688-7.169-2.863-11.107-2.563C236.817,425.11,236.744,424.763,236.671,424.415z"/>
<path fill="#FFFFFF" d="M171.221,432.88c-3-0.187-6.002-0.34-8.996-0.599c-0.365-0.032-0.682-0.629-1.021-0.964
	c0.418-0.351,0.868-1.035,1.249-0.999c3,0.286,5.986,0.71,8.977,1.092C171.36,431.9,171.291,432.39,171.221,432.88z"/>
<path fill="#FFFFFF" d="M163.832,428.162c-5.743,1.272-7.329,1.048-9.387-1.281C157.68,425.771,160.624,425.596,163.832,428.162z"/>
<path fill="#FFFFFF" d="M174.717,429.837c2.883,0.583,5.767,1.166,8.65,1.75c-3.063,2.21-5.854,1.733-8.853-0.815
	C174.582,430.459,174.65,430.148,174.717,429.837z"/>
<path fill="#FFFFFF" d="M264.566,432.51c-3.326,0.945-6.479,1.035-8.953-1.821C258.64,431.081,261.852,430.488,264.566,432.51z"/>
<path fill="#FFFFFF" d="M299.952,428.42c3.384-1.673,6.198-1.978,8.781,0.693C305.976,430.422,304.507,430.331,299.952,428.42z"/>
<path fill="#FFFFFF" d="M253.194,424.971c-2.715,0.826-2.715,0.826-9.097-1.078c0.703-2.421,2.252-2.198,4.034-1.332
	C249.668,423.308,251.217,424.031,253.194,424.971z"/>
<path fill="#FFFFFF" d="M217.404,419.949c3.82-2.16,6.339-0.978,9.365,0.979C223.383,422.319,220.831,421.1,217.404,419.949z"/>
<path fill="#FFFFFF" d="M161.498,420.843c-2.771-0.339-5.542-0.679-8.827-1.081C155.97,417.05,159.034,417.378,161.498,420.843z"/>
<path fill="#FFFFFF" d="M315.725,433.751c-3.144,0.631-5.698,0.294-8.008-1.531C310.254,430.388,312.601,430.788,315.725,433.751z"
	/>
<path fill="#FFFFFF" d="M276.5,433.617c-2.917-0.379-5.833-0.757-8.748-1.136C270.866,430.12,273.001,430.372,276.5,433.617z"/>
<path fill="#FFFFFF" d="M213.974,421.566c-2.657-0.401-5.314-0.804-8.112-1.227C208.067,417.507,210.723,417.771,213.974,421.566z"
	/>
<path fill="#FFFFFF" d="M368.417,431.683c-3.782-3.181-7.563-6.36-11.407-9.593C362.427,423.388,365.354,427.721,368.417,431.683z"
	/>
<path fill="#FFFFFF" d="M296.765,420.896c-3.945,1.827-5.518,1.616-7.223-0.811C292.016,418.413,294.142,419.584,296.765,420.896z"
	/>
<path fill="#FFFFFF" d="M251.257,427.855c2.541-2.618,5.007-0.579,7.625-0.603C255.319,429.876,254.434,429.952,251.257,427.855z"/>
<path fill="#FFFFFF" d="M302.342,424.573c-3.372,1.476-3.997,1.47-6.738,0.068C298.478,422.077,298.939,422.058,302.342,424.573z"/>
<path fill="#FFFFFF" d="M262.824,426.298c2.651,0.418,4.683,0.736,6.826,1.073C266.737,430.615,264.641,430.45,262.824,426.298z"/>
<path fill="#FFFFFF" d="M232.661,425.709c-2.152-0.268-4.303-0.532-6.554-0.813C227.669,421.694,227.669,421.694,232.661,425.709z"
	/>
<path fill="#FFFFFF" d="M231.538,418.807c0.965,0.165,1.548,0.104,1.905,0.357c0.896,0.639,1.689,1.42,2.524,2.145
	c-0.973,0.04-1.947,0.11-2.921,0.107c-0.482-0.002-1.008-0.041-1.434-0.239c-0.703-0.326-1.341-0.793-2.006-1.201
	C230.351,419.525,231.095,419.075,231.538,418.807z"/>
<path fill="#FFFFFF" d="M305.123,433.603c-5.629,0.693-5.789,0.644-6.73-2.014C300.771,431.492,302.894,431.849,305.123,433.603z"/>
<path fill="#FFFFFF" d="M246.493,431.39c2.811-1.924,4.749-0.551,7.405,1.435C250.78,433.449,248.696,432.908,246.493,431.39z"/>
<path fill="#FFFFFF" d="M245.497,420.979c-2.365,0.271-4.32,1.184-6.454-0.249C241.698,418.49,242.676,418.5,245.497,420.979z"/>
<path fill="#FFFFFF" d="M221.399,425.337c-1.78-0.354-3.576-0.647-5.329-1.106c-0.433-0.112-0.724-0.764-1.08-1.168
	c0.604-0.186,1.291-0.654,1.794-0.505c1.629,0.484,3.191,1.196,4.778,1.82C221.509,424.697,221.454,425.018,221.399,425.337z"/>
<path d="M322.507,538.184c9.996,0.002,19.992,0.002,29.989,0.002c1,0,2.001-0.027,2.999,0.021c4.625,0.222,6.588,2.178,6.592,6.787
	c0.014,13.12-0.037,26.24-0.057,39.36c-0.006,3.873,0.047,7.747-0.004,11.62c-0.027,1.982-0.019,3.886-2.402,5.002
	c-0.751,0.354-0.996,2.379-1.001,3.642c-0.063,14.244-0.064,28.489-0.016,42.734c0.021,6.244,0.191,12.489,0.294,18.733
	c0.074,4.578-1.68,6.459-6.176,6.462c-20.241,0.018-40.483,0.021-60.727-0.003c-5.246-0.008-6.582-1.395-6.576-6.744
	c0.018-16.869,0.053-33.736,0.121-50.604c0.021-5.167,1.269-6.393,6.424-6.413c5.622-0.021,11.246,0.003,16.868,0.073
	c5.198,0.066,6.173,1.055,6.193,6.12c0.016,3.748,0.065,7.499-0.045,11.245c-0.114,3.811-1.485,5.098-5.316,5.11
	c-6.248,0.023-12.497,0.041-18.742-0.078c-1.91-0.035-2.67,0.494-2.662,2.494c0.029,6.872,0.021,13.748-0.2,20.614
	c-0.086,2.683,1.524,2.351,3.135,2.354c13.62,0.031,27.24,0.064,40.859,0.085c6.872,0.01,13.745,0.034,20.617-0.03
	c3.225-0.03,3.263-0.118,3.259-3.414c-0.016-15.867-0.047-31.734-0.087-47.603c-0.011-4.054-0.034-4.045-3.974-4.041
	c-20.118,0.021-40.235,0.044-60.353,0.049c-1.243,0.001-2.51-0.018-3.725-0.248c-2.604-0.494-4.199-2.132-4.628-4.75
	c-0.201-1.224-0.203-2.486-0.206-3.731c-0.031-15.617-0.045-31.235-0.064-46.854c0-0.375-0.008-0.751,0.007-1.125
	c0.181-4.706,2.238-6.825,6.989-6.853C300.765,538.141,311.636,538.183,322.507,538.184z M300.655,611.73c0-0.017,0-0.032,0-0.048
	c-3.235,0-6.471,0.039-9.706-0.018c-1.684-0.028-2.615,0.673-2.632,2.361c-0.042,4.23-0.028,8.46-0.051,12.689
	c-0.007,1.404,0.676,2,2.061,2c6.471-0.002,12.94,0.007,19.411,0.057c1.887,0.015,2.725-0.836,2.707-2.701
	c-0.04-3.98-0.074-7.964-0.032-11.943c0.019-1.731-0.641-2.474-2.426-2.423C306.879,611.792,303.766,611.73,300.655,611.73z"/>
<path d="M322.426,505.319c-10.609,0-21.221,0.045-31.831-0.019c-5.442-0.032-7.21-1.749-7.365-7.109
	c-0.166-5.738-0.189-11.479-0.238-17.221c-0.036-4.159,2.148-6.439,6.43-6.476c8.738-0.066,17.479-0.018,26.215-0.012
	c12.609,0.007,25.218,0.016,37.826,0.029c1.123,0.001,2.259-0.064,3.367,0.078c2.922,0.375,4.648,1.941,4.698,4.858
	c0.117,6.985,0.104,13.979-0.103,20.962c-0.089,3.019-2.41,4.742-6.044,4.813c-5.865,0.113-11.732,0.07-17.601,0.081
	c-5.118,0.009-10.236,0.002-15.355,0.002C322.426,505.313,322.426,505.315,322.426,505.319z"/>
<path d="M322.004,533.555c-10.485,0-20.97,0.004-31.455-0.005c-1.248-0.002-2.508,0.019-3.739-0.146c-2.544-0.341-3.94-1.64-4-4.12
	c-0.125-5.113-0.136-10.235-0.001-15.35c0.072-2.723,1.366-4.028,4.103-4.53c1.335-0.245,2.729-0.24,4.096-0.239
	c21.219,0.016,42.439,0.045,63.659,0.079c4.952,0.009,6.52,1.473,6.659,6.406c0.109,3.867,0.107,7.739,0.048,11.607
	c-0.082,5.262-1.237,6.43-6.417,6.445c-10.984,0.035-21.968,0.012-32.953,0.012C322.004,533.66,322.004,533.608,322.004,533.555z
	 M322.083,530.772c0,0.045,0,0.091,0,0.136c10.979,0,21.959,0.016,32.939-0.008c3.647-0.007,4.066-0.525,3.908-4.142
	c-0.157-3.611-0.266-7.227-0.358-10.841c-0.089-3.48-0.244-3.803-3.515-3.813c-22.084-0.069-44.168-0.093-66.251-0.092
	c-3.037,0-3.313,0.35-3.349,3.54c-0.042,3.741-0.026,7.484,0,11.228c0.026,3.764,0.235,3.979,4.061,3.985
	C300.373,530.782,311.227,530.772,322.083,530.772z"/>
<path d="M178.848,375.406c-33.952-1.419-67.903-2.829-101.854-4.265c-4.947-0.209-5.749-1.118-5.749-6.133
	c-0.002-48.48-0.004-96.961-0.005-145.44c0-6.505,1.078-7.29,7.544-6.437c16.583,2.188,33.182,4.266,49.78,6.337
	c17.959,2.241,35.924,4.438,53.889,6.628c14.992,1.828,29.989,3.606,44.981,5.425c15.364,1.864,30.724,3.752,46.085,5.629
	c2.478,0.304,4.958,0.584,7.432,0.918c4.824,0.652,5.786,1.718,5.774,6.455c-0.019,8.121-0.104,16.241-0.1,24.362
	c0.018,33.612,0.063,67.223,0.088,100.834c0.005,6.88,0.151,9.136-8.965,8.785c-32.958-1.27-65.926-2.284-98.89-3.395
	C178.854,375.21,178.851,375.309,178.848,375.406z M103.885,349.7c0.001-0.016,0.002-0.03,0.003-0.046
	c-1.991-0.125-3.981-0.262-5.973-0.37c-8.285-0.456-8.193-0.457-7.818,7.78c0.106,2.329,1.011,2.919,3.142,3.011
	c5.978,0.255,11.944,0.763,17.92,1.063c8.356,0.423,8.302,0.385,7.812-8.142c-0.102-1.764-0.692-2.378-2.401-2.459
	C112.337,350.335,108.113,349.988,103.885,349.7z M90.152,335.564c0,0.374-0.002,0.748,0,1.121c0.027,4.18,0.03,4.143,4.315,4.37
	c5.845,0.31,11.687,0.674,17.528,1.037c7.409,0.46,7.114,2.117,6.912-6.755c-0.058-2.508-1.11-3.149-3.332-3.28
	c-6.713-0.395-13.417-0.942-20.125-1.409C90.235,330.285,90.234,330.299,90.152,335.564z M277.524,250.354
	c0.038-0.286,0.076-0.57,0.114-0.855c-0.138-0.178-0.26-0.493-0.417-0.513c-64.811-7.659-129.625-15.3-194.44-22.926
	c-0.341-0.04-0.712,0.125-1.062,0.22c-0.111,0.03-0.244,0.13-0.283,0.229s0.029,0.24,0.14,0.887
	C146.792,235.037,212.158,242.695,277.524,250.354z M80.74,233.62c65.565,7.578,131.13,15.156,196.696,22.735
	C274.099,253.998,84.854,232.307,80.74,233.62z M275.877,263.214c-0.382-0.021-0.765-0.041-1.147-0.063
	c-0.094,1.384-0.277,2.769-0.27,4.151c0.06,10.612,0.188,21.225,0.235,31.837c0.086,19.604,0.066,39.205,0.227,58.807
	c0.06,7.349,0.245,7.188-7.294,6.707c-16.071-1.021-32.154-1.866-48.233-2.763c-0.869-0.048-1.75,0.106-2.625,0.166
	c0.82,0.805,1.629,0.99,2.445,1.042c6.6,0.415,13.199,0.832,19.802,1.196c10.842,0.6,21.689,1.1,32.526,1.765
	c4.624,0.283,4.624,0.423,4.619-4.034c-0.035-31.84-0.072-63.68-0.119-95.52C276.043,265.409,275.936,264.312,275.877,263.214z
	 M89.042,266.436c0.191,6.543,2.947,12.65,8.609,17.201c7.356,5.914,16.89,4.57,21.968-2.871c7.119-10.435,1.948-27.275-9.803-31.93
	c-5.685-2.252-11.6-0.966-15.732,3.554C90.654,256.141,89.138,260.665,89.042,266.436z M112.752,323.794
	c0-0.006,0-0.013,0.001-0.018c1.12,0.078,2.245,0.119,3.359,0.247c1.309,0.15,2.422,0.36,2.548-1.614
	c0.195-3.052-0.025-3.773-2.229-3.979c-7.822-0.728-15.65-1.38-23.476-2.07c-1.654-0.146-2.882-0.073-2.909,2.214
	c-0.037,3.199-0.018,3.514,2.553,3.714C99.314,322.813,106.034,323.295,112.752,323.794z M263.942,269.633
	c0-1.999-0.053-3.486,0.016-4.967c0.06-1.271-0.548-1.794-1.722-1.911c-4.469-0.442-8.935-0.915-13.405-1.341
	c-1.231-0.118-1.848,0.513-1.828,1.765c0.016,0.999-0.011,1.998,0.004,2.997c0.02,1.3,0.527,2.026,1.988,2.136
	C253.827,268.676,258.649,269.155,263.942,269.633z M125.122,297.237c-14.569-1.696-29.156-3.195-43.828-3.689
	C84.388,295.156,122.627,298.399,125.122,297.237z M121.666,309.794c-12.903-2.245-25.858-3.324-38.899-3.37
	C95.658,308.584,108.702,309.02,121.666,309.794z M263.189,343.07c0.072,0.148,0.144,0.298,0.215,0.446
	c0.972-0.479,2.499-0.727,2.819-1.482c1.151-2.719-0.221-4.577-3.2-4.837c-1.233-0.107-2.461-0.28-3.695-0.354
	c-2.778-0.166-3,0.092-3.223,2.7c-0.171,2.01,0.084,3.378,2.652,3.17C260.216,342.593,261.711,342.936,263.189,343.07z
	 M261.236,352.217c0,0.021,0,0.043,0,0.063c0.496,0,0.993,0.026,1.486-0.004c1.591-0.097,3.643,0.745,3.728-2.155
	c0.077-2.665-0.274-3.222-3.36-3.635c-1.468-0.195-2.976-0.091-4.448-0.264c-1.767-0.208-2.35,0.439-2.416,2.235
	c-0.131,3.551-0.121,3.686,3.524,3.758C260.245,352.225,260.74,352.217,261.236,352.217z M269.495,321.86
	c0.049-0.001,0.099-0.001,0.147-0.001c0-13.939,0-27.88,0-41.819c-0.049,0-0.098,0-0.147,0.001
	C269.495,293.98,269.495,307.92,269.495,321.86z M247.722,301.235c5.517,1.118,11.396,1.608,17.32,1.201
	c0.015-0.4,0.031-0.801,0.047-1.201C259.299,301.235,253.511,301.235,247.722,301.235z M247.407,317.823
	c0.003,0.398,0.005,0.797,0.007,1.194c6.051,0,12.102,0,18.153,0c0.011-0.108,0.021-0.218,0.033-0.327
	C259.536,318.402,253.471,318.113,247.407,317.823z M247.549,280.287c0.017,0.368,0.035,0.737,0.051,1.106
	c5.685,0.23,11.37,0.46,17.055,0.691c0.018-0.207,0.035-0.414,0.053-0.62C258.988,281.072,253.269,280.679,247.549,280.287z
	 M264.954,299.16c0.019-0.297,0.038-0.595,0.056-0.892c-5.665-0.363-11.33-0.727-16.994-1.091c-0.021,0.334-0.042,0.668-0.063,1.002
	C253.62,298.506,259.288,298.834,264.954,299.16z M264.871,279.084c0.029-0.292,0.058-0.584,0.087-0.876
	c-5.57-0.608-11.141-1.216-16.711-1.824c-0.035,0.352-0.069,0.704-0.104,1.056C253.718,277.988,259.295,278.536,264.871,279.084z
	 M270.697,267.021c0.083-0.016,0.166-0.032,0.249-0.048c-0.262-1.036-0.437-2.109-0.859-3.074c-0.084-0.192-1.622-0.026-1.631,0.063
	c-0.186,1.772-0.304,3.562-0.239,5.34c0.006,0.179,1.273,0.368,1.965,0.421c0.149,0.011,0.451-0.535,0.492-0.849
	C270.753,268.265,270.697,267.64,270.697,267.021z M264.764,309.433c0.061-0.302,0.122-0.604,0.182-0.906
	c-5.489,0-10.979,0-17.302,0C253.896,308.858,259.33,309.145,264.764,309.433z M247.75,293.951
	c-0.022,0.286-0.044,0.574-0.067,0.861c5.691,0,11.381,0,17.071,0c0.006-0.026,0.013-0.054,0.019-0.082
	C259.098,294.472,253.424,294.211,247.75,293.951z M248.23,304.99c5.408,1.414,11.058,0.421,16.618,1.094
	c0.016-0.365,0.031-0.729,0.047-1.094C259.313,304.99,253.729,304.99,248.23,304.99z M264.702,316.427
	c-0.002-0.265-0.005-0.53-0.008-0.794c-5.628-0.275-11.257-0.55-16.887-0.825c-0.009,0.242-0.019,0.484-0.028,0.728
	C253.419,315.832,259.061,316.129,264.702,316.427z M264.858,312.17c0.105-0.121,0.211-0.242,0.316-0.363
	c-5.849,0-11.697,0-17.545,0c-0.012,0.121-0.024,0.242-0.036,0.363C253.348,312.17,259.104,312.17,264.858,312.17z M247.891,290.849
	c0.01,0.199,0.02,0.398,0.029,0.598c5.542,0.3,11.082,0.6,16.624,0.898c0.01-0.233,0.019-0.466,0.029-0.699
	C259.012,291.38,253.452,291.115,247.891,290.849z M253.724,323.188c8.041,1.267,8.77,1.264,10.938,0
	C261.187,323.188,257.902,323.188,253.724,323.188z M264.759,288.291c-0.024-0.149-0.048-0.3-0.073-0.448c-3.864,0-7.727,0-11.59,0
	c-0.001,0.148-0.002,0.299-0.004,0.448C256.98,288.291,260.869,288.291,264.759,288.291z M256.678,284.391
	c0.004-0.063,0.009-0.128,0.013-0.192c-3.097,0-6.194,0-9.291,0c-0.01,0.064-0.019,0.129-0.028,0.192
	C250.475,284.391,253.576,284.391,256.678,284.391z"/>
<path d="M283.53,383.987c1.968,0,3.936,0,5.905,0c0.001,0.096,0.003,0.19,0.005,0.285c-2.034,0-4.066,0-6.1,0
	C283.402,384.178,283.466,384.082,283.53,383.987z"/>
<path fill="#FFFFFF" d="M300.655,611.73c3.11,0,6.224,0.063,9.332-0.025c1.786-0.05,2.444,0.691,2.426,2.424
	c-0.042,3.979-0.008,7.963,0.032,11.943c0.018,1.865-0.82,2.716-2.707,2.701c-6.471-0.05-12.94-0.059-19.411-0.057
	c-1.385,0-2.068-0.596-2.061-2c0.023-4.229,0.009-8.459,0.051-12.689c0.017-1.689,0.948-2.391,2.632-2.361
	c3.235,0.057,6.47,0.018,9.706,0.018C300.655,611.698,300.655,611.714,300.655,611.73z"/>
<path fill="#FFFFFF" d="M322.083,530.772c-10.855,0-21.71,0.011-32.565-0.005c-3.826-0.006-4.034-0.222-4.061-3.985
	c-0.026-3.742-0.042-7.484,0-11.228c0.036-3.19,0.312-3.54,3.349-3.54c22.083-0.001,44.167,0.021,66.251,0.092
	c3.271,0.01,3.425,0.331,3.515,3.813c0.093,3.613,0.201,7.229,0.358,10.84c0.158,3.615-0.261,4.135-3.908,4.142
	c-10.98,0.022-21.961,0.008-32.939,0.008C322.083,530.863,322.083,530.817,322.083,530.772z"/>
<path fill="#FFFFFF" d="M103.885,349.7c4.228,0.287,8.453,0.635,12.685,0.838c1.709,0.081,2.299,0.696,2.401,2.459
	c0.49,8.525,0.544,8.563-7.812,8.142c-5.976-0.302-11.943-0.81-17.92-1.063c-2.13-0.092-3.035-0.682-3.142-3.011
	c-0.375-8.237-0.467-8.236,7.818-7.78c1.992,0.108,3.982,0.247,5.973,0.37C103.887,349.67,103.886,349.686,103.885,349.7z"/>
<path fill="#FFFFFF" d="M90.153,335.564c0.081-5.265,0.082-5.278,5.298-4.917c6.708,0.467,13.412,1.016,20.125,1.409
	c2.222,0.131,3.274,0.772,3.332,3.28c0.202,8.872,0.497,7.215-6.912,6.755c-5.842-0.363-11.684-0.728-17.528-1.037
	c-4.286-0.228-4.288-0.188-4.315-4.37C90.15,336.312,90.152,335.938,90.153,335.564z"/>
<path fill="#FFFFFF" d="M277.524,250.354c-65.366-7.659-130.732-15.316-195.95-22.958c-0.111-0.646-0.178-0.787-0.14-0.887
	c0.039-0.101,0.172-0.199,0.283-0.229c0.35-0.095,0.721-0.26,1.062-0.22c64.816,7.626,129.629,15.267,194.44,22.926
	c0.157,0.02,0.279,0.335,0.417,0.513C277.6,249.781,277.562,250.068,277.524,250.354z"/>
<path fill="#FFFFFF" d="M80.74,233.62c4.114-1.313,193.358,20.378,196.696,22.735C211.871,248.777,146.305,241.198,80.74,233.62z"/>
<path fill="#FFFFFF" d="M275.877,263.214c0.058,1.098,0.166,2.195,0.167,3.292c0.046,31.84,0.083,63.68,0.119,95.52
	c0.005,4.457,0.005,4.317-4.619,4.034c-10.837-0.665-21.684-1.165-32.526-1.765c-6.603-0.364-13.203-0.781-19.802-1.196
	c-0.816-0.052-1.625-0.237-2.445-1.042c0.875-0.06,1.755-0.214,2.625-0.166c16.079,0.896,32.162,1.74,48.233,2.763
	c7.539,0.479,7.354,0.642,7.294-6.707c-0.161-19.602-0.141-39.204-0.227-58.807c-0.047-10.613-0.175-21.225-0.235-31.837
	c-0.007-1.383,0.176-2.769,0.27-4.151C275.112,263.173,275.495,263.193,275.877,263.214z"/>
<path fill="#FFFFFF" d="M89.042,266.436c0.096-5.771,1.612-10.295,5.041-14.045c4.133-4.52,10.048-5.806,15.732-3.554
	c11.751,4.655,16.922,21.495,9.803,31.93c-5.078,7.44-14.612,8.784-21.968,2.871C91.989,279.086,89.233,272.979,89.042,266.436z
	 M90.587,264.761c0.116,7.754,2.68,12.937,7.186,17.045c7.254,6.614,17.647,4.45,21.93-4.38c4.382-9.036,0.332-21.287-8.677-26.246
	c-6.285-3.459-13.533-1.653-17.335,4.451C91.681,258.856,90.508,262.396,90.587,264.761z"/>
<path fill="#FFFFFF" d="M112.752,323.794c-6.718-0.5-13.438-0.982-20.153-1.506c-2.571-0.201-2.59-0.516-2.553-3.715
	c0.026-2.286,1.254-2.358,2.909-2.213c7.826,0.69,15.654,1.343,23.476,2.07c2.205,0.205,2.425,0.927,2.229,3.979
	c-0.126,1.975-1.239,1.766-2.548,1.614c-1.114-0.128-2.239-0.168-3.359-0.247C112.752,323.782,112.752,323.789,112.752,323.794z"/>
<path fill="#FFFFFF" d="M263.942,269.633c-5.293-0.479-10.115-0.957-14.947-1.322c-1.46-0.109-1.968-0.835-1.988-2.136
	c-0.015-0.999,0.012-1.998-0.004-2.997c-0.02-1.252,0.597-1.883,1.828-1.765c4.47,0.427,8.937,0.898,13.405,1.341
	c1.174,0.117,1.782,0.64,1.722,1.911C263.889,266.147,263.942,267.634,263.942,269.633z"/>
<path fill="#FFFFFF" d="M125.122,297.237c-2.495,1.162-40.734-2.08-43.828-3.689C95.966,294.042,110.553,295.541,125.122,297.237z"
	/>
<path fill="#FFFFFF" d="M121.666,309.794c-12.963-0.774-26.007-1.21-38.899-3.37C95.808,306.47,108.762,307.549,121.666,309.794z"/>
<path fill="#FFFFFF" d="M263.189,343.07c-1.479-0.135-2.974-0.477-4.432-0.358c-2.567,0.208-2.823-1.16-2.652-3.17
	c0.224-2.608,0.445-2.866,3.223-2.7c1.234,0.074,2.462,0.248,3.695,0.354c2.979,0.26,4.351,2.119,3.2,4.836
	c-0.321,0.758-1.847,1.004-2.819,1.483C263.333,343.368,263.261,343.219,263.189,343.07z"/>
<path fill="#FFFFFF" d="M261.236,352.217c-0.496,0-0.992,0.008-1.487-0.001c-3.645-0.072-3.655-0.207-3.524-3.758
	c0.066-1.796,0.649-2.443,2.416-2.235c1.473,0.173,2.98,0.067,4.448,0.264c3.086,0.413,3.438,0.97,3.36,3.635
	c-0.085,2.9-2.137,2.06-3.728,2.155c-0.494,0.03-0.991,0.005-1.486,0.005C261.236,352.26,261.236,352.238,261.236,352.217z"/>
<path fill="#FFFFFF" d="M269.495,321.86c0-13.939,0-27.88,0-41.819c0.049-0.001,0.099-0.001,0.147-0.001c0,13.939,0,27.88,0,41.819
	C269.594,321.859,269.544,321.859,269.495,321.86z"/>
<path fill="#FFFFFF" d="M247.722,301.235c5.789,0,11.578,0,17.367,0c-0.016,0.4-0.032,0.801-0.047,1.201
	C259.118,302.843,253.238,302.353,247.722,301.235z"/>
<path fill="#FFFFFF" d="M247.407,317.823c6.064,0.29,12.129,0.579,18.193,0.867c-0.011,0.109-0.022,0.219-0.033,0.327
	c-6.051,0-12.102,0-18.153,0C247.412,318.62,247.41,318.222,247.407,317.823z"/>
<path fill="#FFFFFF" d="M247.549,280.287c5.72,0.393,11.439,0.784,17.159,1.178c-0.018,0.207-0.035,0.413-0.053,0.62
	c-5.685-0.23-11.37-0.46-17.055-0.691C247.583,281.024,247.566,280.656,247.549,280.287z"/>
<path fill="#FFFFFF" d="M264.954,299.16c-5.667-0.326-11.334-0.654-17.001-0.98c0.021-0.334,0.042-0.668,0.063-1.002
	c5.665,0.364,11.33,0.728,16.994,1.091C264.992,298.566,264.973,298.864,264.954,299.16z"/>
<path fill="#FFFFFF" d="M264.871,279.084c-5.576-0.549-11.152-1.098-16.729-1.645c0.035-0.352,0.069-0.704,0.104-1.056
	c5.57,0.608,11.141,1.216,16.711,1.824C264.929,278.5,264.9,278.792,264.871,279.084z"/>
<path fill="#FFFFFF" d="M270.697,267.021c0,0.619,0.056,1.244-0.023,1.854c-0.041,0.313-0.343,0.859-0.492,0.849
	c-0.692-0.053-1.959-0.242-1.965-0.421c-0.065-1.778,0.053-3.567,0.239-5.34c0.009-0.09,1.547-0.257,1.631-0.063
	c0.423,0.965,0.598,2.039,0.859,3.074C270.863,266.988,270.781,267.004,270.697,267.021z"/>
<path fill="#FFFFFF" d="M264.764,309.433c-5.434-0.288-10.868-0.575-17.12-0.906c6.323,0,11.813,0,17.302,0
	C264.885,308.829,264.825,309.13,264.764,309.433z"/>
<path fill="#FFFFFF" d="M247.75,293.951c5.674,0.26,11.348,0.521,17.022,0.78c-0.006,0.027-0.013,0.055-0.019,0.082
	c-5.69,0-11.38,0-17.071,0C247.705,294.526,247.727,294.238,247.75,293.951z"/>
<path fill="#FFFFFF" d="M248.23,304.99c5.499,0,11.083,0,16.666,0c-0.016,0.364-0.031,0.729-0.047,1.094
	C259.288,305.41,253.638,306.403,248.23,304.99z"/>
<path fill="#FFFFFF" d="M264.702,316.427c-5.641-0.297-11.282-0.595-16.923-0.892c0.009-0.243,0.019-0.484,0.028-0.728
	c5.629,0.274,11.258,0.549,16.887,0.825C264.696,315.897,264.699,316.162,264.702,316.427z"/>
<path fill="#FFFFFF" d="M264.858,312.17c-5.755,0-11.51,0-17.265,0c0.012-0.121,0.024-0.242,0.036-0.363c5.849,0,11.697,0,17.545,0
	C265.069,311.929,264.964,312.049,264.858,312.17z"/>
<path fill="#FFFFFF" d="M247.891,290.849c5.561,0.266,11.121,0.531,16.682,0.797c-0.01,0.233-0.019,0.466-0.029,0.699
	c-5.542-0.299-11.082-0.599-16.624-0.898C247.911,291.248,247.901,291.048,247.891,290.849z"/>
<path fill="#FFFFFF" d="M253.724,323.188c4.178,0,7.463,0,10.938,0C262.494,324.451,261.765,324.454,253.724,323.188z"/>
<path fill="#FFFFFF" d="M264.759,288.291c-3.89,0-7.778,0-11.667,0c0.001-0.149,0.003-0.3,0.004-0.448c3.864,0,7.727,0,11.59,0
	C264.71,287.992,264.734,288.142,264.759,288.291z"/>
<path fill="#FFFFFF" d="M256.678,284.391c-3.102,0-6.204,0-9.306,0c0.009-0.063,0.018-0.128,0.028-0.192c3.097,0,6.194,0,9.291,0
	C256.687,284.263,256.683,284.327,256.678,284.391z"/>
<path d="M90.587,264.761c-0.08-2.364,1.093-5.904,3.103-9.13c3.802-6.104,11.051-7.91,17.335-4.451
	c9.009,4.958,13.059,17.21,8.677,26.246c-4.283,8.83-14.676,10.994-21.93,4.38C93.268,277.698,90.704,272.515,90.587,264.761z
	 M117.84,269.645c0.019-4.022-1.179-7.679-3.48-10.902c-2.528-3.542-5.8-5.841-10.468-5.078c-5.006,0.817-8.024,3.914-9.258,8.655
	c-1.373,5.28-0.163,10.226,3.085,14.503c2.905,3.827,6.888,5.917,11.788,4.844c4.711-1.033,6.714-4.831,7.986-9.059
	C117.776,271.671,117.733,270.635,117.84,269.645z"/>
<path fill="#FFFFFF" d="M117.84,269.645c-0.107,0.991-0.064,2.026-0.347,2.964c-1.272,4.228-3.275,8.025-7.986,9.059
	c-4.9,1.073-8.883-1.017-11.788-4.844c-3.249-4.277-4.458-9.224-3.085-14.503c1.234-4.741,4.252-7.838,9.258-8.655
	c4.667-0.763,7.939,1.535,10.468,5.078C116.661,261.965,117.859,265.621,117.84,269.645z"/>
<ellipse cx="467.926" cy="321.044" rx="2.834" ry="1.478"/>
</svg>
