<?xml version="1.0" encoding="utf-8"?>
<!-- Generator: Adobe Illustrator 16.0.3, SVG Export Plug-In . SVG Version: 6.00 Build 0)  -->
<!DOCTYPE svg PUBLIC "-//W3C//DTD SVG 1.1//EN" "http://www.w3.org/Graphics/SVG/1.1/DTD/svg11.dtd">
<svg version="1.1" id="レイヤー_1" xmlns="http://www.w3.org/2000/svg" xmlns:xlink="http://www.w3.org/1999/xlink" x="0px"
	 y="0px" width="758.79px" height="709.934px" viewBox="0 0 758.79 709.934" enable-background="new 0 0 758.79 709.934"
	 xml:space="preserve">
<path fill-rule="evenodd" clip-rule="evenodd" d="M0,441.507c0-1.25,0-2.499,0-3.749c0.991,0.065,1.981,0.191,2.972,0.187
	c11.992-0.054,23.984-0.183,35.976-0.178c14.729,0.006,29.456,0.145,44.184,0.138c1.233-0.001,2.654-0.387,3.658-1.074
	c2.001-1.371,3.556-3.557,5.694-4.523c2.763-1.25,3.563-2.966,3.531-5.781c-0.1-8.998-0.009-17.996-0.009-26.995
	c0-4.161,0.352-3.854-3.846-3.859c-15.244-0.023-30.489,0.018-45.733,0.073c-5.139,0.018-6.754-1.168-7.729-6.108
	c-0.264-1.335-0.353-2.725-0.355-4.089c-0.014-6.498,0.05-12.996,0.049-19.494c-0.01-54.365-0.029-108.731-0.04-163.097
	c0-1.499-0.035-3.007,0.112-4.495c0.362-3.654,1.646-4.998,5.205-5.836c2.785-0.656,5.532-1.48,8.329-2.079
	c1.572-0.336,3.228-0.61,4.813-0.486c4.477,0.35,8.945,0.851,13.4,1.418c8.283,1.056,16.547,2.252,24.831,3.299
	c11.383,1.439,22.779,2.775,34.165,4.193c8.656,1.078,17.304,2.224,25.957,3.323c12.619,1.603,25.239,3.202,37.861,4.783
	c11.379,1.425,22.761,2.823,34.142,4.234c8.785,1.089,17.574,2.142,26.353,3.279c8.651,1.12,17.291,2.322,25.936,3.489
	c7.29,0.984,14.588,1.912,21.866,2.979c4.01,0.586,5.298,2.213,5.385,6.271c0.01,0.5-0.001,1-0.001,1.5
	c-0.002,54.366-0.003,108.731-0.009,163.098c-0.001,1.624,0.061,3.258-0.09,4.871c-0.243,2.604-1.748,4.047-4.321,4.251
	c-1.117,0.088-2.248,0.026-3.373,0.009c-17.243-0.271-34.485-0.528-51.728-0.821c-21.241-0.361-42.482-0.741-63.723-1.132
	c-11.245-0.207-22.489-0.477-33.734-0.667c-3.115-0.053-3.159,0.03-3.215,3.095c-0.058,3.124-0.065,6.25-0.011,9.373
	c0.06,3.47,0.173,3.559,3.63,3.604c20.368,0.268,40.735,0.565,61.104,0.776c26.739,0.277,53.479,0.512,80.22,0.675
	c2.654,0.018,4.814,0.779,6.917,2.302c3.43,2.484,6.97,4.815,10.48,7.188c3.82,2.583,7.689,5.096,11.473,7.731
	c1.184,0.826,2.579,1.718,1.88,3.652c-0.062,0.17,0.595,0.836,0.967,0.884c1.794,0.232,1.528-1.16,1.605-2.229
	c0.43-5.962,3.138-10.609,7.879-14.229c9.249-7.06,19.597-10.627,31.274-10.64c9.043-0.01,17.304,2.281,24.516,7.718
	c5.582,4.207,10.147,9.312,11.271,16.587c0.389,2.517,1.623,3.085,4.021,3.056c9.246-0.111,18.495-0.024,27.744,0.041
	c6.37,0.045,7.289,0.972,7.297,7.421c0.007,5.873-0.071,11.747-0.16,17.619c-0.078,5.041-1.158,6.093-6.273,6.115
	c-4.874,0.021-9.75,0.05-14.621-0.08c-1.967-0.052-2.657,0.697-2.642,2.576c0.028,3.248-0.104,6.497-0.106,9.747
	c-0.021,33.119-0.035,66.237-0.043,99.356c-0.008,32.493-0.012,64.986-0.007,97.479c0.001,3.953,0.032,3.974,3.794,3.977
	c15.498,0.01,30.995,0.011,46.493,0c0.952,0,1.906-0.126,3.097-0.21c-0.347-1.069-0.597-1.885-0.875-2.69
	c-1.789-5.187-3.697-10.336-5.358-15.564c-4.617-14.53-7.728-29.424-10.354-44.419c-0.336-1.916-1.147-2.646-2.891-3.252
	c-5.53-1.922-10.956-4.143-16.462-6.142c-5.795-2.104-7.736-5.969-7.164-12.174c1.457-15.809,3.659-31.478,7.144-46.959
	c4.032-17.914,9.694-35.34,16.127-52.52c0.582-1.553,0.482-2.572-0.314-4.086c-1.966-3.732-3.775-7.603-5.114-11.596
	c-2.051-6.113-2.456-12.636-1.414-18.854c0.748-4.464,1.328-8.848,1.236-13.326c-0.149-7.295,0.556-14.466,2.793-21.433
	c0.8-2.49,1.806-4.915,2.716-7.37c2.555-6.896,4.955-13.854,7.696-20.673c4.163-10.357,11.637-17.482,21.885-21.871
	c5.658-2.423,11.178-5.172,17.152-7.956c-2.701-1.087-4.962-1.854-7.691-1.798c-4.076,0.085-8.168-0.524-12.255-0.827
	c-0.511-0.037-1.027-0.005-1.695-0.005c2,3.283,2.449,3.617,8.457,6.25c-1.863,0.534-3.227,0.975-4.615,1.313
	c-6.454,1.575-13.323,1.892-19.813,0.349c-10.615-2.524-17.823-11.257-27.711-15.15c-1.293-0.51-4.555-1.351-4.78-3.117
	c0.768,6.01,2.98,11.275,6.197,16.877c-14.496-6.192-25.652-15.704-35.936-26.435c-0.316,0.195-0.633,0.391-0.949,0.586
	c1.437,6.547,2.874,13.094,4.304,19.608c-5.646-2.561-10.818-6.203-15.487-10.563c-10.524-9.822-18.71-21.369-25.17-34.199
	c-7.295-14.488-12.202-29.755-14.961-45.709c-0.451-2.608-0.96-4.985-2.362-7.336c-2.99-5.013-6.092-10.062-8.239-15.458
	c-7.682-19.306-8.293-39.4-5.742-59.738c0.502-3.995,1.231-7.96,1.856-11.951c-11.234,3.496-22.113,6.209-33.866,1.967
	c0.778-0.597,1.123-0.944,1.536-1.166c14.245-7.669,23.883-19.429,30.042-34.163c4.182-10.004,7.976-20.17,12.14-30.182
	c12.959-31.152,33.326-56.62,59.804-77.314c17.673-13.813,37.355-23.956,58.509-31.229C474.93,5.47,493.665,1.627,512.995,0.433
	c16.809-1.039,33.506-0.229,50.008,2.646c23.437,4.082,45.904,11.296,66.933,22.725c19.359,10.521,36.747,23.613,51.936,39.508
	c22.962,24.029,38.356,52.357,47.085,84.396c2.518,9.244,5.068,18.513,8.312,27.515c4.278,11.875,10.626,22.572,20.614,30.723
	c0.204,0.166,0.197,0.59,0.313,0.974c-8.576,1.064-16.388-0.991-23.91-5.061c0,2.645-0.075,4.891,0.013,7.131
	c0.447,11.414-0.451,22.721-2.97,33.855c-3.496,15.449-10.553,29.269-19.606,42.169c-8.989,12.809-19.148,24.664-29.693,36.168
	c-9.784,10.674-20.925,19.653-34.796,24.662c-0.682,0.246-1.416,0.347-2.335,0.565c3.169-4.938,6.099-9.503,9.027-14.068
	c-14.801,12.24-29.862,23.643-48.993,29.412c1.391-2.833,2.58-5.117,3.642-7.46c1.01-2.229,2.501-4.331,2.407-7.448
	c-10.277,10.02-21.229,18.143-34.268,23.214c-1.541,0.6-2.653,0.935-4.152-0.121c2.176-5.876,4.352-11.753,6.711-18.125
	c-9.199,4.011-17.355,8.451-26.857,10.683c0.841-2.734,2.873-4.448,2.349-7.162c-3.164,0.772-6.073,1.431-8.948,2.22
	c-0.745,0.205-1.379,0.816-2.063,1.241c0.546,0.735,0.934,1.758,1.662,2.155c3.253,1.769,6.567,3.435,9.927,4.992
	c4.733,2.198,9.609,4.103,14.274,6.434c6.323,3.158,9.728,8.688,11.51,15.332c1.58,5.892,3.076,11.806,4.652,17.698
	c3.286,12.274,7.186,24.389,8.629,37.114c0.629,5.545,2.307,10.968,2.997,16.511c0.705,5.657,1.98,11.405,0.259,17.097
	c-0.897,2.961-1.957,5.909-3.293,8.695c-2.145,4.473-4.358,8.958-8.287,12.25c-2.859,2.396-3.308,4.489-1.943,7.874
	c2.693,6.687,5.627,13.3,7.879,20.136c7.622,23.141,13.463,46.676,14.742,71.15c0.362,6.936-0.106,7.922-6.343,11.096
	c-0.667,0.339-1.347,0.661-2.042,0.936c-4.984,1.972-9.942,4.019-14.979,5.846c-1.991,0.723-3.264,1.637-3.219,3.924
	c0.017,0.854-0.321,1.714-0.47,2.576c-3.328,19.361-7.865,38.375-16.179,56.306c-0.546,1.177-0.911,2.438-1.497,4.032
	c1.535,0,2.521-0.025,3.507,0.004c20.108,0.583,40.221,1.044,60.323,1.799c19.847,0.745,39.678,1.866,59.521,2.681
	c21.087,0.865,42.155,1.938,63.101,4.646c2.928,0.378,5.878,1.108,8.631,2.164c2.242,0.859,2.199,2.623,0.09,3.815
	c-1.17,0.662-2.524,1.174-3.85,1.355c-7.66,1.051-15.312,2.428-23.013,2.87c-22.449,1.289-44.917,2.33-67.388,3.205
	c-27.592,1.073-55.191,2.018-82.794,2.757c-22.484,0.603-44.978,1.032-67.47,1.168c-50.239,0.305-100.481,0.645-150.72,0.476
	c-59.11-0.2-118.22-0.787-177.327-1.478c-28.86-0.338-57.717-1.186-86.57-2.003c-19.607-0.556-39.211-1.339-58.807-2.246
	c-13.098-0.607-26.178-1.611-39.266-2.438c0-3.999,0-7.999,0-11.998c6.34-0.584,12.676-1.21,19.021-1.726
	c2.059-0.168,3.19-0.784,3.046-3.149c-0.152-2.485,0.122-4.993,0.122-7.491c0.003-44.236-0.011-88.474-0.013-132.71
	c0-23.993,0.021-47.984,0.018-71.977c0-3.482-0.038-3.56-3.453-3.563c-6.247-0.006-12.494,0.09-18.741,0.143
	c0-8.749,0-17.498,0-26.247c2.247,0.072,4.495,0.206,6.742,0.206c36.985,0.007,73.97,0.003,110.955-0.014
	c10.121-0.005,20.242-0.051,30.363-0.104c1.286-0.007,2.57-0.174,4.125-0.286c-0.983-2.867-2.987-2.17-4.552-2.169
	c-39.109,0.018-78.218,0.026-117.327,0.155C20.204,440.83,10.102,441.26,0,441.507z M188.185,421.288
	c-1.957-3.3-5.11-4.062-9.369-1.822c3.294,1.399,6.267,2.012,9.442,1.747c-0.258,1.983,0.43,3.369,2.444,3.971
	c2.251,0.672,4.455,1.793,6.743,1.993c6.076,0.53,12.185,0.683,18.281,0.96c3.105,0.141,6.211,0.289,9.318,0.324
	c4.721,0.056,9.443,0.016,14.166,0.016c-0.671-0.753-1.365-0.917-2.062-0.928c-5.328-0.074-10.658-0.036-15.983-0.194
	c-5.843-0.175-11.702-0.311-17.514-0.873c-3.547-0.344-7.044-1.366-10.512-2.277c-1.338-0.352-2.745-1.16-1.129-2.895
	c3.557,0.054,7.753-2.101,9.894,2.865c0.033,0.074,0.221,0.094,0.341,0.118c2.536,0.507,5.071,1.261,7.377,0.417
	c-3.428-1.863-6.852-3.748-10.298-5.59c-3.076-1.643-5.634-0.803-7.198,2.311C190.813,421.384,189.499,421.336,188.185,421.288z
	 M567.495,224.912c1.205,2.672,2.392,4.728,3.086,6.938c4.729,15.065,4.82,30.26,0.513,45.393
	c-2.148,7.543-5.699,14.401-12.328,19.186c-8.249,5.953-18.332,5.269-25.662-1.772c-4.832-4.643-7.61-10.493-9.576-16.735
	c-3.874-12.299-3.911-24.844-1.959-37.464c1.574-10.169,5.52-19.441,11.291-27.869c3.26-4.76,7.716-8.346,13.788-8.697
	c9.625-0.558,18.536,1.757,26.586,7.257c6.589,4.501,11.933,10.199,16.68,16.539c1.833,2.449,3.805,4.794,6.186,7.776
	c0.202-1.619,0.344-2.336,0.374-3.058c0.288-6.866,0.168-13.778,0.957-20.585c0.618-5.32-0.702-8.074-5.968-10.282
	c-11.597-4.863-21.566-12.509-31.056-20.703c-1.866-1.611-3.832-2.416-6.334-2.745c-11.304-1.488-22.158,0.28-32.759,4.077
	c-0.989,0.354-1.985,1.454-2.431,2.453c-5.595,12.54-11.085,25.126-16.614,37.694c-0.369,0.838-0.85,1.627-1.38,2.631
	c-4.274-5.682-4.112-12.542-6.652-18.47c-0.28,3.046-0.026,6.059-0.335,9.013c-0.584,5.595-0.445,10.97,2.849,15.833
	c0.099,0.146-0.048,0.458-0.129,1.059c-3.824-0.269-7.776-0.074-11.483-0.934c-4.314-1.001-8.683-1.921-12.679-4.302
	c-7.691-4.58-12.91-11.286-17.337-18.752c-2.297-3.875-4.244-7.959-6.769-12.746c1.545,11.571,5.111,21.526,10.367,30.967
	c-7.201-5.404-13.825-11.325-18.74-18.729c-4.61-6.946-8.494-14.373-12.751-21.557c-0.797-1.344-1.583-3.234-2.814-3.695
	c-8.131-3.041-16.509-4.814-25.3-4.005c-2.753,0.253-4.607,1.315-5.827,3.855c-2.92,6.078-5.718,12.24-9.074,18.075
	c-3.794,6.594-4.817,13.479-3.956,20.881c0.51,4.385,0.708,8.806,1.046,13.21c0.296,0.086,0.592,0.173,0.888,0.258
	c1.579-2.893,3.041-5.858,4.763-8.664c2.604-4.239,5.078-8.615,8.171-12.482c4.393-5.492,10.258-8.703,17.479-8.835
	c10.246-0.187,19.869,3.745,24.637,14.772c2.219,5.132,3.014,10.458,4.155,15.801c2.476,11.591,3.274,23.23,1.768,34.991
	c-0.959,7.481-2.64,14.769-6.865,21.197c-5.89,8.961-15.425,10.824-23.109,4.483c-1.335-1.102-2.505-2.447-3.574-3.818
	c-3.914-5.018-6.34-10.762-7.614-16.942c-3.644-17.653-3.817-35.09,4.059-52.495c-11.511,9.129-14.182,21.477-15.404,34.646
	c-2.106-3.16-3.865-6.381-5.694-9.561c-0.269-0.467-0.863-0.745-1.309-1.11c-0.33,0.587-0.976,1.197-0.935,1.756
	c0.164,2.236,0.498,4.465,0.847,6.684c2.028,12.859,4.097,25.715-0.955,38.397c-0.045,0.113-0.04,0.247-0.067,0.368
	c-3.247,14.505,1.044,26.504,12.615,35.59c5.166,4.057,10.844,7.667,16.743,10.548c22.492,10.983,46.696,15.033,71.414,16.4
	c26.043,1.44,51.657-1.562,76.654-8.982c8.228-2.442,16.152-5.918,24.165-9.052c1.32-0.516,3.045-1.474,3.438-2.62
	c1.645-4.795,2.854-9.741,4.223-14.631c-5.842,5.121-12.21,8.9-19.233,11.827c3.41-6.324,7.01-12.179,9.835-18.386
	c9.315-20.473,12.1-42.363,13.315-64.538c0.044-0.828-0.621-1.695-0.956-2.543c-0.745,0.508-1.701,0.862-2.197,1.55
	c-1.903,2.633-3.658,5.373-5.892,8.706C585.568,243.419,579.632,232.716,567.495,224.912z M274.335,574.553
	c-0.006,0-0.012,0-0.018,0c0,33.982-0.004,67.965,0.005,101.947c0.001,4.334,0.03,4.337,4.369,4.33
	c25.612-0.046,51.223-0.096,76.835-0.128c1.243-0.002,2.5,0.05,3.728,0.231c3.871,0.571,5.631-0.855,5.633-4.764
	c0.017-22.611,0.035-45.223,0.016-67.834c-0.026-29.48-0.111-58.96-0.123-88.44c-0.006-15.863,0.104-31.728,0.13-47.592
	c0.005-3.078-0.061-3.152-3.056-3.173c-5.621-0.039-11.243,0.033-16.865,0.031c-22.363-0.009-44.727-0.036-67.09-0.034
	c-3.48,0-3.481,0.052-3.546,3.479c-0.012,0.625-0.017,1.249-0.017,1.874C274.335,507.837,274.335,541.195,274.335,574.553z
	 M297.284,307.22c0.004,0,0.009,0,0.014,0c0-23.492,0.001-46.983-0.003-70.475c0-1.499-0.089-2.998-0.072-4.497
	c0.017-1.504-0.6-2.245-2.167-2.417c-3.1-0.341-6.179-0.877-9.274-1.271c-24.154-3.066-48.31-6.12-72.466-9.172
	c-15.605-1.972-31.21-3.94-46.817-5.901c-19.077-2.396-38.159-4.762-57.233-7.186c-14.117-1.795-28.218-3.722-42.341-5.472
	c-5.77-0.715-5.765-0.575-5.764,5.125c0.004,24.366,0.001,48.733-0.013,73.1c-0.018,30.115-0.058,60.229-0.071,90.345
	c-0.002,6.283,2.211,8.609,8.398,8.915c10.107,0.499,20.212,1.041,30.322,1.454c24.711,1.011,49.421,2.064,74.139,2.9
	c21.851,0.74,43.71,1.207,65.566,1.801c1.873,0.051,3.744,0.18,5.617,0.226c15.61,0.383,31.22,0.783,46.831,1.105
	c2.951,0.062,5.14-2.201,5.289-5.112c0.044-0.873,0.044-1.749,0.044-2.624C297.284,354.449,297.284,330.834,297.284,307.22z
	 M367.737,682.244c7.581,0,15.062,0.036,22.542-0.013c5.422-0.035,4.947,0.725,4.949-5.073
	c0.016-67.824,0.016-135.647,0.019-203.472c0-0.749-0.058-1.503-0.002-2.247c0.116-1.553-0.453-2.258-2.118-2.249
	c-7.744,0.038-15.488,0.005-23.231-0.036c-1.237-0.007-1.874,0.411-1.802,1.726c0.048,0.872-0.009,1.748-0.009,2.623
	c-0.018,26.229-0.055,52.458-0.044,78.688c0.015,41.093,0.069,82.187,0.082,123.279C368.123,677.563,367.89,679.657,367.737,682.244
	z M155.036,439.854c1.204,3.688,2.346,6.647,3.093,9.702c0.377,1.541,1.187,1.658,2.373,1.655c3.748-0.01,7.495-0.01,11.243-0.009
	c67.092,0.021,134.183,0.038,201.275,0.063c19.615,0.008,39.23,0.048,58.846,0.049c3.603,0,3.603-0.055,3.698-3.341
	c0.205-7.005,0.204-6.97-7.035-6.997c-35.354-0.132-70.709-0.272-106.064-0.433c-48.472-0.22-96.944-0.464-145.416-0.687
	C169.687,439.825,162.326,439.854,155.036,439.854z M580.374,496.364c1.909-2.073,3.617-3.823,5.205-5.674
	c4.621-5.383,7.318-11.618,7.287-18.733c-0.032-7.469-0.467-14.926-3.137-22.068c-0.688-1.842-1.011-3.881-1.158-5.855
	c-0.69-9.273-3.625-18.04-5.97-26.936c-1.775-6.735-3.614-13.459-5.633-20.125c-1.149-3.801-2.558-7.544-4.138-11.188
	c-1.564-3.607-4.682-5.804-8.147-7.354c-3.777-1.691-4.667-1.372-6.056,2.586c-1.065,3.034-2.046,6.1-2.91,9.197
	c-0.493,1.769-3.777,13.745,0.229,13.656c1.901-0.042,3.506,0.154,4.186,2.227c0.527,1.607,1.261,3.207,1.438,4.86
	c1.136,10.644,2.162,21.299,3.185,31.955c0.416,4.34,0.248,8.799,1.205,13.009c1.374,6.046,3.535,11.914,5.358,17.858
	C573.617,481.275,575.669,488.869,580.374,496.364z M638.293,308.588c3.508,0,6.663,0.414,9.676-0.065
	c24.421-3.878,40.994-28.082,35.774-52.226c-2.062-9.538-7.107-16.984-16.302-21.043c-4.642-2.049-5.072-1.708-5.254,3.176
	c-0.022,0.624,0.009,1.254-0.066,1.871c-0.229,1.898,0.377,2.801,2.449,3.316c3.512,0.874,6.56,2.697,8.403,7.112
	c-1.5-0.778-2.289-1.291-3.15-1.608c-1.047-0.386-2.14-0.69-3.238-0.884c-4.513-0.794-5.096-0.335-5.885,4.174
	C657.179,272.521,651.087,291.62,638.293,308.588z M174.036,586.946c0-25.854,0.005-51.709-0.005-77.563
	c-0.001-4.995-0.035-9.992-0.123-14.986c-0.014-0.812-0.316-2.281-0.61-2.313c-1.966-0.217-4.036-0.417-5.916,0.034
	c-0.61,0.146-1.051,2.253-1.059,3.466c-0.08,11.489-0.041,22.979-0.052,34.47c-0.046,48.459-0.099,96.918-0.144,145.376
	c-0.001,1.748-0.083,3.513,0.139,5.236c0.084,0.65,0.823,1.576,1.436,1.742c4.689,1.272,6.324,0.019,6.327-4.782
	C174.042,647.399,174.035,617.173,174.036,586.946z M499.556,682.355c8.285,0,16.142-0.014,23.999,0.011
	c1.618,0.005,2.233-0.654,2.003-2.281c-0.279-1.977-0.442-3.97-0.625-5.959c-1.319-14.301-2.556-28.609-3.977-42.9
	c-0.654-6.573-0.817-6.556-7.304-6.881c-0.998-0.05-1.995-0.136-2.994-0.169c-4.017-0.139-3.659-0.328-3.934,3.421
	C505.396,645.773,504.211,663.973,499.556,682.355z M163.501,593.322c-0.092,0-0.185,0-0.277,0c0-9.868-0.01-19.736,0.002-29.604
	c0.028-22.61,0.071-45.22,0.095-67.829c0.001-1.428,0.468-3.054-2.056-3.029c-2.221,0.021-2.806,1.037-2.758,2.969
	c0.043,1.747-0.033,3.496-0.033,5.245c-0.002,58.711-0.003,117.421,0,176.132c0,4.872,0.066,9.743,0.026,14.614
	c-0.016,1.934,0.732,2.564,2.697,2.512c1.855-0.049,2.448-0.748,2.317-2.454c-0.066-0.869-0.012-1.748-0.012-2.622
	C163.501,657.277,163.501,625.3,163.501,593.322z M724.57,166.59c0.231-0.131,0.463-0.263,0.694-0.394
	c-11.455-56.784-42.663-99.533-92.206-129.216c2.845,3.199,5.876,6.287,9.176,9.055c6.154,5.159,12.122,10.507,15.825,17.75
	c1.592,3.111,3.896,5.423,6.24,7.81c2.536,2.582,5.168,5.073,7.627,7.726c12.349,13.328,23.011,27.911,31.615,43.904
	c4.306,8.001,7.843,16.415,11.792,24.61C718.359,154.111,721.487,160.34,724.57,166.59z M485.267,394.922
	c3.321-0.563,5.973-1.037,8.633-1.456c9.895-1.556,19.868-1.713,29.845-1.455c2.622,0.067,3.946-0.723,5.027-3.188
	c2.396-5.468,5.225-10.746,7.868-16.105c0.312-0.632,0.575-1.287,1.224-2.747c-3.301,0.849-5.914,1.487-8.511,2.193
	c-5.526,1.505-11.059,2.958-16.875,2.448c-2.332-0.203-4.675-0.71-6.986-0.591c-2.863,0.148-5.188,1.882-7.735,3.118
	C490.261,380.779,488.479,387.872,485.267,394.922z M471.124,390.756c-0.971,0.473-1.415,0.539-1.563,0.783
	c-2.759,4.586-5.989,8.972-8.101,13.842c-3.569,8.235-6.017,16.966-9.722,25.131c-2.562,5.646-3.627,11.229-3.249,17.279
	c0.101,1.604-0.189,3.232-0.314,4.849c-0.354,4.594-0.759,9.183-1.053,13.78c-0.127,1.988-0.028,3.991-0.033,5.986
	c-0.014,5.697,2.063,10.721,4.809,16.086c1.601-3.139,2.379-5.721,2.247-8.744c-0.135-3.086,0.478-6.205,0.771-9.309
	c0.129-1.362,0.509-2.745,0.38-4.08c-0.672-6.999-1.393-13.997-2.254-20.976c-0.534-4.339,0.348-8.445,1.689-12.471
	c0.811-2.43,2.362-4.639,2.99-7.097c2.35-9.193,5.253-18.146,9.772-26.543C468.859,396.74,469.774,393.965,471.124,390.756z
	 M70.887,196.941c0.072-0.271,0.145-0.543,0.217-0.815c-0.831-0.365-1.631-0.924-2.498-1.06c-3.573-0.56-7.188-0.871-10.743-1.514
	c-2.188-0.396-2.633,0.555-2.591,2.384c0.058,2.498,0.056,4.997,0.057,7.496c0.029,56.599,0.054,113.197,0.088,169.796
	c0.001,1.371-0.035,2.77,0.228,4.1c0.096,0.486,1.011,0.812,1.552,1.21c0.271-0.464,0.608-0.904,0.787-1.402
	c0.118-0.329,0-0.74,0-1.115c-0.042-17.491-0.098-34.982-0.12-52.473c-0.05-40.106-0.083-80.213-0.125-120.319
	c-0.006-6.365,0.695-6.935,7.258-6.316C66.944,197.097,68.922,196.941,70.887,196.941z M421.13,173.241
	c-1.385-7.152-3.235-14.172-3.988-21.309c-0.758-7.164-0.679-14.451-0.493-21.672c0.182-7.065,0.959-14.116,1.475-21.172
	c-0.56,0.784-0.883,1.596-1.07,2.437c-1.988,8.949-2.862,18.025-2.314,27.158c0.282,4.692-0.636,8.792-3.1,12.761
	c-3.157,5.086-6.03,10.349-9.049,15.522c-1.125,1.927-2.315,3.814-3.609,5.94c3.924-0.404,7.495-1.108,11.052-1.042
	C413.721,171.931,417.396,172.746,421.13,173.241z M550.054,171.518c-6.389-8.822-12.693-17.528-18.72-25.851
	c-2.479,9.113-5.072,18.645-7.716,28.365C532.387,170.07,541.281,170.34,550.054,171.518z M333.712,426.352
	c1.507-0.851,3.036-1.664,4.518-2.558c5.175-3.12,10.721-4.554,16.792-4.044c5.097,0.428,9.776,2.066,13.977,4.853
	c7.272,4.825,15.435,3.109,23.792,4.174C377.954,408.308,347.042,413.659,333.712,426.352z M268.363,470.821
	c-0.269,0.026-0.538,0.053-0.807,0.08c-0.063,1.337-0.181,2.674-0.183,4.011c-0.041,31.987-0.088,63.974-0.096,95.961
	c-0.009,34.235,0.014,68.471,0.054,102.707c0.002,1.852,0.29,3.701,0.444,5.553c0.196-0.023,0.391-0.047,0.587-0.07
	C268.363,609.648,268.363,540.234,268.363,470.821z M244.563,433.162c0.095-2.32-1.312-2.168-2.555-2.185
	c-17.852-0.244-35.705-0.482-53.558-0.703c-0.476-0.006-0.955,0.2-1.455,0.313c0.794,2.242,2.427,1.924,3.888,1.956
	c9.487,0.214,18.973,0.484,28.462,0.598C227.696,433.242,236.049,433.162,244.563,433.162z M113.579,432.374
	c-5.411,0.477-10.492,0.813-15.541,1.414c-2.694,0.319-5.083,1.52-7.201,4.051c5.721,0,10.943,0.004,16.164-0.001
	C111.848,437.834,111.848,437.829,113.579,432.374z M274.641,428.025c-0.053,0.283-0.107,0.568-0.16,0.853
	c1.212,0.427,2.433,0.831,3.633,1.289c0.781,0.297,1.767,0.472,2.257,1.046c3.165,3.709,7.16,2.244,10.88,2.493
	c0.097-0.395,0.195-0.788,0.293-1.183c-3.516-0.881-7.033-1.762-11.08-2.776c1.516-0.646,2.503-1.068,3.491-1.49
	C280.685,427.056,277.634,426.958,274.641,428.025z M268.808,423.161c5.008,3.028,5.277,3.084,9.462,2.076
	c-10.243-6.54-12.116-7.141-15.664-4.588c2.815,0.632,5.31,1.191,7.826,1.755C270.039,422.588,269.617,422.783,268.808,423.161z
	 M180.412,424.529c0.029-0.281,0.059-0.563,0.088-0.846c-2.643-1.682-5.237-3.446-7.944-5.017c-1.997-1.158-3.795-0.936-6,0.354
	c0.129,0.197,0.218,0.444,0.393,0.586c2.278,1.832,6.809-0.066,7.469,4.499c0.014,0.094,0.45,0.167,0.693,0.18
	C176.878,424.377,178.646,424.45,180.412,424.529z M249.417,420.883c2.113,0.39,3.573,0.619,5.012,0.942
	c0.667,0.15,1.492,0.306,1.903,0.764c1.841,2.051,4.737,3.158,7.946,2.563c-3.153-2.003-5.899-3.984-8.867-5.544
	C253.572,418.642,251.442,418.537,249.417,420.883z M289.407,424.146c-5.371-4.697-7.534-5.513-11.205-4.152
	C281.743,421.991,284.75,424.756,289.407,424.146z M188.063,425.612c-3.31,0.539-6.854-1.774-9.694,1.896
	C184.057,429.724,186.292,429.323,188.063,425.612z M157.902,424.586c0.029-0.373,0.058-0.747,0.086-1.12
	c-2.651-0.509-5.291-1.112-7.963-1.455c-0.617-0.079-1.348,0.736-2.026,1.139c0.623,0.513,1.225,1.434,1.873,1.467
	C152.541,424.752,155.224,424.619,157.902,424.586z M160.559,423.706c4.68,1.303,6.014,1.264,9.086-0.29
	c-1.545-0.646-3.012-1.274-4.492-1.874C162.851,420.607,161.388,421.419,160.559,423.706z M150.174,420.357
	c-3.276-2.699-6.99-3.352-10.168-1.687C143.347,420.265,146.348,421.814,150.174,420.357z M299.321,429.34
	c-2.504-1.218-4.571-2.328-6.732-3.206c-0.606-0.247-1.491,0.188-2.249,0.312c0.348,0.734,0.499,1.75,1.077,2.153
	C293.682,430.186,296.205,430.319,299.321,429.34z M165.932,428.123c2.904,0.254,5.07,0.539,7.239,0.563
	c0.501,0.006,1.012-0.878,1.519-1.353c-0.483-0.468-0.903-1.235-1.46-1.353C170.93,425.496,168.588,425.205,165.932,428.123z
	 M236.671,424.416c0.073,0.347,0.146,0.694,0.22,1.041c3.938-0.302,6.64,5.25,11.107,2.562c-1.763-0.694-3.461-1.311-5.115-2.03
	c-1.468-0.639-2.849-1.493-4.347-2.04C238.038,423.766,237.3,424.242,236.671,424.416z M171.221,432.88
	c0.07-0.49,0.139-0.979,0.209-1.469c-2.991-0.382-5.977-0.806-8.977-1.092c-0.381-0.036-0.831,0.648-1.249,0.999
	c0.339,0.335,0.655,0.932,1.021,0.964C165.219,432.541,168.221,432.694,171.221,432.88z M163.832,428.163
	c-3.208-2.567-6.152-2.393-9.387-1.282C156.503,429.21,158.089,429.436,163.832,428.163z M174.717,429.837
	c-0.067,0.312-0.135,0.622-0.203,0.935c3,2.55,5.791,3.025,8.853,0.815C180.484,431.003,177.601,430.42,174.717,429.837z
	 M264.566,432.51c-2.714-2.021-5.926-1.428-8.953-1.821C258.086,433.545,261.24,433.456,264.566,432.51z M299.952,428.42
	c4.556,1.912,6.024,2.002,8.781,0.694C306.149,426.443,303.335,426.748,299.952,428.42z M253.194,424.971
	c-1.977-0.939-3.526-1.663-5.063-2.41c-1.782-0.866-3.332-1.089-4.034,1.332C250.479,425.797,250.479,425.797,253.194,424.971z
	 M217.404,419.949c3.427,1.15,5.979,2.37,9.365,0.98C223.743,418.973,221.224,417.789,217.404,419.949z M161.498,420.843
	c-2.464-3.465-5.528-3.793-8.827-1.081C155.956,420.164,158.727,420.504,161.498,420.843z M315.725,433.751
	c-3.124-2.962-5.471-3.363-8.008-1.531C310.025,434.045,312.581,434.382,315.725,433.751z M276.5,433.618
	c-3.499-3.245-5.634-3.497-8.748-1.136C270.667,432.861,273.583,433.239,276.5,433.618z M213.974,421.566
	c-3.251-3.795-5.907-4.06-8.112-1.227C208.66,420.763,211.317,421.164,213.974,421.566z M368.417,431.683
	c-3.063-3.962-5.99-8.295-11.407-9.593C360.854,425.322,364.635,428.502,368.417,431.683z M296.765,420.896
	c-2.623-1.313-4.749-2.483-7.223-0.811C291.247,422.513,292.819,422.724,296.765,420.896z M251.257,427.855
	c3.177,2.098,4.062,2.021,7.625-0.603C256.264,427.276,253.798,425.237,251.257,427.855z M302.342,424.574
	c-3.402-2.517-3.864-2.496-6.738,0.068C298.345,426.043,298.97,426.049,302.342,424.574z M262.824,426.298
	c1.817,4.153,3.914,4.318,6.826,1.074C267.507,427.035,265.475,426.716,262.824,426.298z M232.661,425.709
	c-4.992-4.015-4.992-4.015-6.554-0.812C228.357,425.177,230.509,425.442,232.661,425.709z M231.538,418.807
	c-0.443,0.269-1.188,0.719-1.931,1.169c0.665,0.408,1.303,0.875,2.006,1.201c0.425,0.198,0.952,0.237,1.434,0.239
	c0.974,0.003,1.948-0.067,2.921-0.107c-0.835-0.725-1.628-1.506-2.524-2.145C233.086,418.909,232.503,418.972,231.538,418.807z
	 M305.123,433.603c-2.229-1.754-4.352-2.109-6.73-2.014C299.333,434.246,299.493,434.296,305.123,433.603z M246.493,431.39
	c2.203,1.52,4.287,2.061,7.405,1.435C251.241,430.839,249.304,429.466,246.493,431.39z M245.497,420.979
	c-2.821-2.479-3.799-2.489-6.454-0.249C241.177,422.163,243.132,421.249,245.497,420.979z M221.399,425.337
	c0.055-0.319,0.109-0.64,0.164-0.959c-1.587-0.624-3.149-1.336-4.778-1.82c-0.503-0.149-1.191,0.319-1.794,0.505
	c0.356,0.404,0.647,1.056,1.08,1.168C217.823,424.689,219.619,424.982,221.399,425.337z"/>
<path fill-rule="evenodd" clip-rule="evenodd" fill="#FFFFFF" d="M0,441.507c10.102-0.247,20.204-0.677,30.306-0.711
	c39.109-0.129,78.217-0.138,117.327-0.155c1.565-0.001,3.568-0.698,4.552,2.169c-1.555,0.112-2.839,0.279-4.125,0.286
	c-10.121,0.053-20.242,0.099-30.363,0.104c-36.985,0.017-73.97,0.021-110.955,0.014c-2.247,0-4.495-0.134-6.742-0.206
	C0,442.507,0,442.008,0,441.507z"/>
<path fill-rule="evenodd" clip-rule="evenodd" fill="#FFFFFF" d="M567.495,224.912c12.137,7.804,18.073,18.507,19.174,33.05
	c2.233-3.333,3.988-6.073,5.892-8.706c0.496-0.688,1.452-1.042,2.197-1.55c0.335,0.849,1,1.715,0.956,2.543
	c-1.216,22.175-4,44.064-13.315,64.538c-2.825,6.208-6.425,12.063-9.835,18.386c7.023-2.927,13.392-6.707,19.233-11.827
	c-1.368,4.891-2.578,9.836-4.223,14.631c-0.394,1.146-2.118,2.104-3.438,2.62c-8.013,3.134-15.938,6.61-24.165,9.052
	c-24.997,7.421-50.611,10.423-76.654,8.982c-24.718-1.367-48.922-5.417-71.414-16.4c-5.899-2.881-11.577-6.492-16.743-10.548
	c-11.57-9.085-15.862-21.084-12.615-35.59c0.027-0.122,0.021-0.255,0.067-0.368c5.052-12.683,2.983-25.539,0.955-38.397
	c-0.349-2.219-0.683-4.448-0.847-6.684c-0.041-0.56,0.604-1.169,0.935-1.756c0.445,0.365,1.04,0.643,1.309,1.11
	c1.829,3.18,3.588,6.401,5.694,9.561c1.223-13.169,3.894-25.517,15.404-34.646c-7.876,17.405-7.702,34.842-4.059,52.495
	c1.274,6.18,3.7,11.925,7.614,16.942c1.069,1.371,2.239,2.716,3.574,3.818c7.685,6.34,17.22,4.478,23.109-4.483
	c4.226-6.428,5.906-13.716,6.865-21.197c1.507-11.76,0.708-23.399-1.768-34.991c-1.142-5.343-1.937-10.669-4.155-15.801
	c-4.768-11.027-14.391-14.958-24.637-14.772c-7.222,0.132-13.087,3.343-17.479,8.835c-3.093,3.867-5.567,8.243-8.171,12.482
	c-1.723,2.806-3.185,5.771-4.763,8.664c-0.296-0.085-0.592-0.172-0.888-0.258c-0.338-4.404-0.536-8.825-1.046-13.21
	c-0.862-7.401,0.161-14.287,3.956-20.881c3.356-5.835,6.154-11.997,9.074-18.075c1.22-2.54,3.074-3.602,5.827-3.855
	c8.791-0.809,17.169,0.964,25.3,4.005c1.231,0.461,2.018,2.351,2.814,3.695c4.257,7.184,8.141,14.611,12.751,21.557
	c4.915,7.404,11.539,13.325,18.74,18.729c-5.256-9.441-8.822-19.396-10.367-30.967c2.524,4.787,4.472,8.87,6.769,12.746
	c4.427,7.467,9.646,14.172,17.337,18.752c3.996,2.381,8.364,3.301,12.679,4.302c3.707,0.86,7.659,0.665,11.483,0.934
	c0.081-0.6,0.228-0.913,0.129-1.059c-3.294-4.863-3.433-10.237-2.849-15.833c0.309-2.954,0.055-5.967,0.335-9.013
	c2.54,5.928,2.378,12.788,6.652,18.47c0.53-1.004,1.011-1.793,1.38-2.631c5.529-12.568,11.02-25.155,16.614-37.694
	c0.445-0.999,1.441-2.098,2.431-2.453c10.601-3.797,21.455-5.565,32.759-4.077c2.502,0.329,4.468,1.134,6.334,2.745
	c9.489,8.193,19.459,15.839,31.056,20.703c5.266,2.208,6.586,4.962,5.968,10.282c-0.789,6.807-0.669,13.719-0.957,20.585
	c-0.03,0.722-0.172,1.438-0.374,3.058c-2.381-2.982-4.353-5.327-6.186-7.776c-4.747-6.34-10.091-12.037-16.68-16.539
	c-8.05-5.5-16.961-7.814-26.586-7.257c-6.072,0.352-10.528,3.937-13.788,8.697c-5.771,8.428-9.717,17.699-11.291,27.869
	c-1.952,12.62-1.915,25.165,1.959,37.464c1.966,6.242,4.744,12.093,9.576,16.735c7.33,7.041,17.413,7.725,25.662,1.772
	c6.629-4.785,10.18-11.643,12.328-19.186c4.308-15.133,4.217-30.328-0.513-45.393C569.887,229.64,568.7,227.584,567.495,224.912z"/>
<path fill-rule="evenodd" clip-rule="evenodd" fill="#FFFFFF" d="M274.335,574.553c0-33.357,0-66.716,0-100.072
	c0-0.625,0.005-1.249,0.017-1.874c0.064-3.427,0.066-3.479,3.546-3.479c22.363-0.002,44.727,0.025,67.09,0.034
	c5.622,0.002,11.244-0.07,16.865-0.031c2.995,0.021,3.061,0.095,3.056,3.173c-0.026,15.864-0.136,31.729-0.13,47.592
	c0.011,29.48,0.096,58.96,0.123,88.44c0.02,22.611,0.001,45.223-0.016,67.834c-0.002,3.908-1.762,5.335-5.633,4.764
	c-1.228-0.182-2.484-0.233-3.728-0.231c-25.612,0.032-51.223,0.082-76.835,0.128c-4.339,0.007-4.368,0.004-4.369-4.33
	c-0.009-33.982-0.005-67.965-0.005-101.947C274.324,574.553,274.33,574.553,274.335,574.553z M322.507,538.183
	c-10.871,0-21.742-0.042-32.612,0.02c-4.751,0.026-6.809,2.146-6.989,6.852c-0.015,0.374-0.007,0.75-0.007,1.125
	c0.019,15.617,0.033,31.235,0.064,46.854c0.003,1.245,0.004,2.508,0.206,3.731c0.43,2.618,2.024,4.256,4.628,4.75
	c1.214,0.231,2.482,0.249,3.725,0.248c20.118-0.005,40.235-0.026,60.353-0.049c3.939-0.004,3.963-0.012,3.974,4.041
	c0.04,15.868,0.071,31.735,0.087,47.603c0.003,3.296-0.035,3.384-3.259,3.414c-6.872,0.064-13.745,0.04-20.617,0.03
	c-13.62-0.02-27.24-0.053-40.86-0.085c-1.611-0.004-3.221,0.328-3.135-2.354c0.221-6.866,0.229-13.742,0.2-20.614
	c-0.009-2,0.751-2.53,2.662-2.495c6.245,0.12,12.494,0.103,18.742,0.079c3.831-0.014,5.202-1.301,5.316-5.111
	c0.112-3.746,0.062-7.497,0.045-11.245c-0.021-5.065-0.995-6.054-6.193-6.12c-5.622-0.07-11.246-0.094-16.868-0.073
	c-5.156,0.021-6.404,1.246-6.424,6.413c-0.067,16.868-0.103,33.735-0.121,50.604c-0.006,5.351,1.331,6.737,6.576,6.744
	c20.243,0.025,40.485,0.021,60.727,0.003c4.497-0.003,6.25-1.884,6.175-6.462c-0.103-6.244-0.273-12.489-0.294-18.733
	c-0.048-14.245-0.047-28.49,0.016-42.734c0.005-1.263,0.25-3.289,1.001-3.642c2.384-1.116,2.375-3.02,2.402-5.002
	c0.051-3.873-0.001-7.747,0.004-11.62c0.02-13.12,0.07-26.24,0.057-39.36c-0.004-4.61-1.968-6.566-6.592-6.788
	c-0.998-0.047-2-0.02-2.999-0.02C342.499,538.186,332.503,538.186,322.507,538.183z M322.426,505.319c0-0.004,0-0.007,0-0.011
	c5.119,0,10.237,0.007,15.355-0.002c5.868-0.011,11.736,0.032,17.601-0.081c3.634-0.07,5.955-1.795,6.044-4.813
	c0.206-6.983,0.22-13.977,0.102-20.962c-0.049-2.917-1.776-4.484-4.698-4.859c-1.107-0.143-2.244-0.077-3.367-0.078
	c-12.608-0.014-25.217-0.022-37.826-0.029c-8.738-0.006-17.477-0.056-26.215,0.012c-4.282,0.035-6.466,2.315-6.43,6.475
	c0.049,5.74,0.072,11.482,0.238,17.221c0.155,5.36,1.923,7.077,7.365,7.109C301.205,505.364,311.815,505.319,322.426,505.319z
	 M322.004,533.555c0,0.054,0,0.106,0,0.159c10.985,0,21.969,0.024,32.953-0.011c5.18-0.017,6.335-1.185,6.417-6.446
	c0.06-3.868,0.062-7.74-0.048-11.607c-0.139-4.935-1.707-6.398-6.659-6.406c-21.22-0.035-42.44-0.064-63.659-0.079
	c-1.368-0.001-2.761-0.006-4.096,0.239c-2.737,0.502-4.031,1.808-4.103,4.53c-0.135,5.113-0.125,10.235,0.001,15.35
	c0.061,2.48,1.457,3.779,4,4.12c1.231,0.165,2.491,0.145,3.739,0.146C301.034,533.559,311.52,533.555,322.004,533.555z"/>
<path fill-rule="evenodd" clip-rule="evenodd" fill="#FFFFFF" d="M297.284,307.22c0,23.615,0,47.229-0.001,70.844
	c0,0.875,0,1.751-0.044,2.624c-0.149,2.911-2.338,5.174-5.289,5.112c-15.611-0.322-31.221-0.723-46.831-1.105
	c-1.873-0.046-3.744-0.175-5.617-0.226c-21.856-0.594-43.715-1.061-65.566-1.801c-24.718-0.836-49.428-1.89-74.139-2.9
	c-10.11-0.413-20.215-0.955-30.322-1.454c-6.187-0.306-8.401-2.632-8.398-8.915c0.013-30.115,0.053-60.23,0.071-90.345
	c0.015-24.367,0.017-48.734,0.013-73.1c-0.001-5.7-0.005-5.841,5.764-5.125c14.123,1.75,28.224,3.677,42.341,5.472
	c19.075,2.424,38.156,4.79,57.233,7.186c15.606,1.961,31.212,3.929,46.817,5.901c24.156,3.052,48.312,6.106,72.466,9.172
	c3.096,0.393,6.174,0.929,9.274,1.271c1.567,0.173,2.184,0.914,2.167,2.417c-0.017,1.499,0.072,2.998,0.072,4.497
	c0.005,23.492,0.003,46.983,0.003,70.475C297.293,307.22,297.288,307.22,297.284,307.22z M178.848,375.406
	c0.003-0.098,0.007-0.196,0.01-0.294c32.964,1.109,65.932,2.125,98.89,3.394c9.117,0.351,8.97-1.905,8.965-8.785
	c-0.025-33.611-0.07-67.222-0.088-100.834c-0.004-8.121,0.081-16.242,0.1-24.362c0.012-4.738-0.951-5.803-5.774-6.455
	c-2.473-0.334-4.954-0.615-7.432-0.918c-15.361-1.877-30.721-3.766-46.085-5.629c-14.992-1.819-29.99-3.597-44.981-5.425
	c-17.965-2.19-35.93-4.388-53.889-6.628c-16.599-2.071-33.197-4.147-49.78-6.337c-6.466-0.853-7.544-0.068-7.544,6.437
	c0.001,48.479,0.003,96.96,0.005,145.44c0,5.015,0.801,5.924,5.749,6.133C110.944,372.576,144.896,373.987,178.848,375.406z
	 M283.53,383.987c-0.064,0.095-0.127,0.19-0.19,0.285c2.034,0,4.066,0,6.1,0c-0.001-0.095-0.003-0.19-0.005-0.285
	C287.466,383.987,285.498,383.987,283.53,383.987z"/>
<path fill-rule="evenodd" clip-rule="evenodd" fill="#FFFFFF" d="M155.036,439.854c7.29,0,14.651-0.029,22.011,0.004
	c48.472,0.223,96.944,0.467,145.416,0.687c35.355,0.16,70.71,0.301,106.064,0.433c7.239,0.027,7.24-0.008,7.035,6.997
	c-0.096,3.286-0.096,3.341-3.698,3.341c-19.615-0.001-39.23-0.041-58.846-0.049c-67.092-0.025-134.183-0.043-201.275-0.063
	c-3.748-0.001-7.495-0.001-11.243,0.009c-1.186,0.003-1.996-0.114-2.373-1.655C157.381,446.502,156.24,443.543,155.036,439.854z"/>
<path fill-rule="evenodd" clip-rule="evenodd" fill="#FFFFFF" d="M580.374,496.364c-4.705-7.495-6.757-15.089-9.056-22.586
	c-1.823-5.944-3.984-11.813-5.358-17.858c-0.957-4.21-0.789-8.669-1.205-13.009c-1.022-10.656-2.049-21.312-3.185-31.955
	c-0.177-1.653-0.91-3.253-1.438-4.86c-0.68-2.072-2.284-2.269-4.186-2.227c-0.465,0.01-1.297-1.164-1.371-1.857
	c-0.236-2.218-0.659-4.573-0.169-6.681c1.126-4.839,2.574-9.624,4.221-14.315c1.389-3.958,2.278-4.277,6.056-2.586
	c3.466,1.551,6.583,3.747,8.147,7.354c1.58,3.645,2.988,7.388,4.138,11.188c2.019,6.666,3.857,13.39,5.633,20.125
	c2.345,8.896,5.279,17.662,5.97,26.936c0.147,1.975,0.47,4.014,1.158,5.855c2.67,7.143,3.104,14.6,3.137,22.068
	c0.031,7.115-2.666,13.351-7.287,18.733C583.991,492.541,582.283,494.291,580.374,496.364z"/>
<path fill-rule="evenodd" clip-rule="evenodd" fill="#FFFFFF" d="M638.293,308.588c12.794-16.968,18.886-36.067,22.407-56.177
	c0.789-4.509,1.372-4.968,5.885-4.174c1.099,0.193,2.191,0.498,3.238,0.884c0.861,0.317,1.65,0.831,3.15,1.608
	c-1.844-4.415-4.892-6.239-8.403-7.112c-2.072-0.516-2.679-1.418-2.449-3.316c0.075-0.617,0.044-1.247,0.066-1.871
	c0.182-4.884,0.612-5.225,5.254-3.176c9.194,4.059,14.24,11.505,16.302,21.043c5.22,24.144-11.354,48.348-35.774,52.226
	C644.956,309.001,641.801,308.588,638.293,308.588z"/>
<path fill-rule="evenodd" clip-rule="evenodd" fill="#FFFFFF" d="M174.035,586.946c0,30.227,0.007,60.453-0.006,90.679
	c-0.002,4.801-1.638,6.055-6.327,4.782c-0.613-0.166-1.352-1.092-1.436-1.742c-0.222-1.724-0.141-3.488-0.139-5.236
	c0.045-48.458,0.098-96.917,0.144-145.376c0.011-11.49-0.028-22.98,0.052-34.47c0.008-1.213,0.449-3.32,1.059-3.466
	c1.879-0.451,3.949-0.251,5.916-0.034c0.294,0.032,0.596,1.502,0.61,2.313c0.088,4.994,0.121,9.991,0.123,14.986
	C174.041,535.237,174.036,561.093,174.035,586.946z"/>
<path fill-rule="evenodd" clip-rule="evenodd" fill="#FFFFFF" d="M163.501,593.322c0,31.978,0,63.955,0,95.933
	c0,0.874-0.054,1.753,0.012,2.622c0.131,1.706-0.462,2.405-2.317,2.454c-1.965,0.053-2.713-0.578-2.697-2.512
	c0.04-4.871-0.025-9.742-0.026-14.614c-0.003-58.711-0.002-117.421,0-176.132c0-1.749,0.076-3.498,0.033-5.245
	c-0.047-1.932,0.538-2.948,2.758-2.969c2.524-0.024,2.058,1.602,2.056,3.029c-0.023,22.609-0.066,45.219-0.095,67.829
	c-0.012,9.868-0.002,19.736-0.002,29.604C163.316,593.322,163.409,593.322,163.501,593.322z"/>
<path fill-rule="evenodd" clip-rule="evenodd" fill="#FFFFFF" d="M724.57,166.59c-3.083-6.25-6.211-12.479-9.236-18.757
	c-3.949-8.195-7.486-16.608-11.792-24.61c-8.604-15.993-19.267-30.576-31.615-43.904c-2.459-2.653-5.091-5.144-7.627-7.726
	c-2.344-2.387-4.648-4.699-6.24-7.81c-3.703-7.242-9.671-12.59-15.825-17.75c-3.3-2.768-6.331-5.855-9.176-9.055
	c49.543,29.683,80.751,72.432,92.206,129.216C725.033,166.327,724.802,166.459,724.57,166.59z"/>
<path fill-rule="evenodd" clip-rule="evenodd" fill="#FFFFFF" d="M485.267,394.922c3.213-7.05,4.994-14.143,12.489-17.783
	c2.548-1.236,4.872-2.97,7.735-3.118c2.312-0.119,4.654,0.388,6.986,0.591c5.816,0.51,11.349-0.943,16.875-2.448
	c2.597-0.706,5.21-1.345,8.511-2.193c-0.648,1.46-0.912,2.115-1.224,2.747c-2.644,5.359-5.472,10.638-7.868,16.105
	c-1.081,2.466-2.405,3.256-5.027,3.188c-9.977-0.258-19.95-0.101-29.845,1.455C491.239,393.885,488.588,394.359,485.267,394.922z"/>
<path fill-rule="evenodd" clip-rule="evenodd" fill="#FFFFFF" d="M471.124,390.756c-1.35,3.209-2.265,5.984-3.629,8.518
	c-4.52,8.397-7.423,17.35-9.772,26.543c-0.628,2.458-2.18,4.667-2.99,7.097c-1.342,4.025-2.224,8.132-1.689,12.471
	c0.861,6.979,1.582,13.977,2.254,20.976c0.129,1.335-0.251,2.718-0.38,4.08c-0.294,3.104-0.906,6.223-0.771,9.309
	c0.132,3.023-0.646,5.605-2.247,8.744c-2.745-5.365-4.822-10.389-4.809-16.086c0.005-1.995-0.094-3.998,0.033-5.986
	c0.294-4.598,0.698-9.187,1.053-13.78c0.125-1.616,0.415-3.245,0.314-4.849c-0.378-6.051,0.688-11.634,3.249-17.279
	c3.705-8.165,6.152-16.896,9.722-25.131c2.111-4.87,5.342-9.256,8.101-13.842C469.709,391.295,470.153,391.229,471.124,390.756z"/>
<path fill-rule="evenodd" clip-rule="evenodd" fill="#FFFFFF" d="M70.887,196.941c-1.964,0-3.943,0.155-5.89-0.028
	c-6.563-0.619-7.264-0.049-7.258,6.316c0.042,40.106,0.075,80.213,0.125,120.319c0.022,17.491,0.078,34.982,0.12,52.473
	c0.001,0.375,0.118,0.786,0,1.115c-0.179,0.498-0.517,0.938-0.787,1.402c-0.542-0.398-1.456-0.724-1.552-1.21
	c-0.263-1.33-0.227-2.729-0.228-4.1c-0.035-56.6-0.059-113.198-0.088-169.796c-0.001-2.499,0.001-4.998-0.057-7.496
	c-0.042-1.829,0.403-2.78,2.591-2.384c3.556,0.643,7.17,0.954,10.743,1.514c0.867,0.135,1.667,0.695,2.498,1.06
	C71.032,196.398,70.959,196.67,70.887,196.941z"/>
<path fill-rule="evenodd" clip-rule="evenodd" fill="#FFFFFF" d="M421.13,173.241c-3.734-0.495-7.409-1.31-11.098-1.377
	c-3.557-0.066-7.128,0.638-11.052,1.042c1.294-2.125,2.484-4.013,3.609-5.94c3.019-5.173,5.892-10.436,9.049-15.522
	c2.464-3.969,3.382-8.069,3.1-12.761c-0.548-9.133,0.326-18.209,2.314-27.158c0.188-0.841,0.511-1.653,1.07-2.437
	c-0.516,7.057-1.293,14.107-1.475,21.172c-0.186,7.222-0.265,14.508,0.493,21.672C417.895,159.068,419.745,166.089,421.13,173.241z"
	/>
<path fill-rule="evenodd" clip-rule="evenodd" fill="#FFFFFF" d="M550.054,171.518c-8.772-1.178-17.667-1.448-26.436,2.514
	c2.644-9.72,5.236-19.251,7.716-28.365C537.36,153.99,543.665,162.696,550.054,171.518z"/>
<path fill-rule="evenodd" clip-rule="evenodd" fill="#FFFFFF" d="M333.712,426.352c13.33-12.692,44.242-18.044,59.078,2.425
	c-8.356-1.064-16.52,0.651-23.792-4.174c-4.201-2.786-8.88-4.425-13.977-4.853c-6.071-0.51-11.617,0.924-16.792,4.044
	C336.748,424.688,335.219,425.501,333.712,426.352z"/>
<path fill-rule="evenodd" clip-rule="evenodd" fill="#FFFFFF" d="M268.363,470.821c0,69.413,0,138.827,0,208.241
	c-0.196,0.023-0.391,0.047-0.587,0.07c-0.154-1.852-0.442-3.701-0.444-5.553c-0.04-34.236-0.063-68.472-0.054-102.707
	c0.008-31.987,0.055-63.974,0.096-95.961c0.001-1.337,0.119-2.674,0.183-4.011C267.826,470.874,268.094,470.848,268.363,470.821z"/>
<path fill-rule="evenodd" clip-rule="evenodd" fill="#FFFFFF" d="M244.563,433.162c-8.514,0-16.867,0.08-25.218-0.021
	c-9.489-0.113-18.975-0.384-28.462-0.598c-1.46-0.032-3.093,0.286-3.888-1.956c0.5-0.112,0.979-0.318,1.455-0.313
	c17.853,0.221,35.706,0.459,53.558,0.703C243.251,430.994,244.658,430.842,244.563,433.162z"/>
<path fill-rule="evenodd" clip-rule="evenodd" fill="#FFFFFF" d="M113.579,432.374c-1.73,5.455-1.73,5.46-6.578,5.464
	c-5.221,0.005-10.443,0.001-16.164,0.001c2.117-2.531,4.506-3.731,7.201-4.051C103.087,433.188,108.167,432.851,113.579,432.374z"/>
<path fill-rule="evenodd" clip-rule="evenodd" fill="#FFFFFF" d="M192.01,421.31c-1.616,1.734-0.209,2.543,1.129,2.895
	c3.468,0.911,6.965,1.934,10.512,2.277c5.812,0.563,11.671,0.698,17.514,0.873c5.325,0.158,10.656,0.12,15.983,0.194
	c0.696,0.011,1.391,0.175,2.062,0.928c-4.722,0-9.444,0.04-14.166-0.016c-3.107-0.035-6.213-0.184-9.318-0.324
	c-6.097-0.277-12.206-0.43-18.281-0.96c-2.288-0.2-4.492-1.321-6.743-1.993c-2.014-0.602-2.702-1.987-2.444-3.971l-0.073,0.075
	c1.314,0.048,2.628,0.096,3.941,0.143L192.01,421.31z"/>
<path fill-rule="evenodd" clip-rule="evenodd" fill="#FFFFFF" d="M274.641,428.025c2.994-1.067,6.044-0.97,9.314,0.231
	c-0.988,0.422-1.975,0.844-3.491,1.49c4.047,1.015,7.564,1.896,11.08,2.776c-0.098,0.395-0.196,0.788-0.293,1.183
	c-3.721-0.249-7.715,1.216-10.88-2.493c-0.49-0.574-1.477-0.749-2.257-1.046c-1.2-0.458-2.42-0.862-3.633-1.289
	C274.534,428.594,274.587,428.309,274.641,428.025z"/>
<path fill-rule="evenodd" clip-rule="evenodd" fill="#FFFFFF" d="M268.808,423.161c0.81-0.378,1.231-0.573,1.625-0.757
	c-2.516-0.563-5.011-1.123-7.826-1.755c3.547-2.553,5.42-1.952,15.664,4.588C274.085,426.245,273.815,426.189,268.808,423.161z"/>
<path fill-rule="evenodd" clip-rule="evenodd" fill="#FFFFFF" d="M192.126,421.431c1.563-3.113,4.122-3.953,7.198-2.311
	c3.446,1.842,6.87,3.727,10.298,5.59c-2.306,0.844-4.841,0.09-7.377-0.417c-0.12-0.024-0.308-0.044-0.341-0.118
	c-2.141-4.966-6.337-2.812-9.894-2.865L192.126,421.431z"/>
<path fill-rule="evenodd" clip-rule="evenodd" fill="#FFFFFF" d="M180.412,424.529c-1.767-0.079-3.534-0.152-5.3-0.244
	c-0.243-0.013-0.68-0.086-0.693-0.18c-0.661-4.565-5.191-2.667-7.469-4.499c-0.175-0.142-0.264-0.389-0.393-0.587
	c2.205-1.288,4.003-1.511,6-0.353c2.707,1.57,5.301,3.335,7.944,5.017C180.471,423.966,180.441,424.248,180.412,424.529z"/>
<path fill-rule="evenodd" clip-rule="evenodd" fill="#FFFFFF" d="M249.417,420.883c2.025-2.346,4.156-2.241,5.994-1.275
	c2.968,1.56,5.713,3.541,8.867,5.544c-3.209,0.596-6.104-0.512-7.946-2.563c-0.412-0.458-1.236-0.613-1.903-0.764
	C252.989,421.502,251.53,421.272,249.417,420.883z"/>
<path fill-rule="evenodd" clip-rule="evenodd" fill="#FFFFFF" d="M289.407,424.146c-4.656,0.609-7.664-2.155-11.205-4.152
	C281.873,418.634,284.036,419.449,289.407,424.146z"/>
<path fill-rule="evenodd" clip-rule="evenodd" fill="#FFFFFF" d="M188.063,425.612c-1.771,3.711-4.006,4.111-9.694,1.896
	C181.209,423.838,184.753,426.151,188.063,425.612z"/>
<path fill-rule="evenodd" clip-rule="evenodd" fill="#FFFFFF" d="M157.902,424.586c-2.678,0.033-5.361,0.166-8.031,0.03
	c-0.647-0.033-1.25-0.954-1.873-1.467c0.679-0.402,1.41-1.218,2.026-1.139c2.672,0.343,5.312,0.946,7.963,1.455
	C157.96,423.839,157.932,424.213,157.902,424.586z"/>
<path fill-rule="evenodd" clip-rule="evenodd" fill="#FFFFFF" d="M160.559,423.706c0.829-2.287,2.292-3.099,4.594-2.164
	c1.479,0.6,2.946,1.229,4.492,1.874C166.573,424.97,165.239,425.009,160.559,423.706z"/>
<path fill-rule="evenodd" clip-rule="evenodd" fill="#FFFFFF" d="M150.174,420.357c-3.826,1.457-6.827-0.093-10.168-1.687
	C143.185,417.006,146.898,417.658,150.174,420.357z"/>
<path fill-rule="evenodd" clip-rule="evenodd" fill="#FFFFFF" d="M299.321,429.34c-3.116,0.979-5.639,0.846-7.904-0.741
	c-0.578-0.403-0.729-1.419-1.077-2.153c0.757-0.123,1.642-0.559,2.249-0.312C294.75,427.012,296.816,428.122,299.321,429.34z"/>
<path fill-rule="evenodd" clip-rule="evenodd" fill="#FFFFFF" d="M165.932,428.123c2.656-2.918,4.998-2.627,7.298-2.142
	c0.557,0.117,0.978,0.885,1.46,1.353c-0.507,0.475-1.018,1.358-1.519,1.353C171.002,428.662,168.836,428.377,165.932,428.123z"/>
<path fill-rule="evenodd" clip-rule="evenodd" fill="#FFFFFF" d="M188.258,421.213c-3.175,0.265-6.147-0.348-9.442-1.747
	c4.258-2.239,7.412-1.478,9.369,1.822L188.258,421.213z"/>
<path fill-rule="evenodd" clip-rule="evenodd" fill="#FFFFFF" d="M236.671,424.416c0.629-0.174,1.367-0.65,1.866-0.468
	c1.498,0.547,2.879,1.401,4.347,2.04c1.653,0.72,3.352,1.336,5.115,2.03c-4.467,2.688-7.169-2.863-11.107-2.562
	C236.817,425.11,236.744,424.763,236.671,424.416z"/>
<path fill-rule="evenodd" clip-rule="evenodd" fill="#FFFFFF" d="M171.221,432.88c-3-0.186-6.002-0.339-8.996-0.598
	c-0.365-0.032-0.682-0.629-1.021-0.964c0.418-0.351,0.868-1.035,1.249-0.999c3,0.286,5.986,0.71,8.977,1.092
	C171.36,431.9,171.291,432.39,171.221,432.88z"/>
<path fill-rule="evenodd" clip-rule="evenodd" fill="#FFFFFF" d="M163.832,428.163c-5.743,1.272-7.329,1.047-9.387-1.282
	C157.68,425.771,160.624,425.596,163.832,428.163z"/>
<path fill-rule="evenodd" clip-rule="evenodd" fill="#FFFFFF" d="M174.717,429.837c2.883,0.583,5.767,1.166,8.65,1.75
	c-3.063,2.21-5.854,1.734-8.853-0.815C174.582,430.459,174.65,430.148,174.717,429.837z"/>
<path fill-rule="evenodd" clip-rule="evenodd" fill="#FFFFFF" d="M264.566,432.51c-3.326,0.946-6.479,1.035-8.953-1.821
	C258.64,431.082,261.852,430.488,264.566,432.51z"/>
<path fill-rule="evenodd" clip-rule="evenodd" fill="#FFFFFF" d="M299.952,428.42c3.384-1.672,6.198-1.977,8.781,0.694
	C305.976,430.422,304.507,430.332,299.952,428.42z"/>
<path fill-rule="evenodd" clip-rule="evenodd" fill="#FFFFFF" d="M253.194,424.971c-2.715,0.826-2.715,0.826-9.097-1.078
	c0.703-2.421,2.252-2.198,4.034-1.332C249.668,423.308,251.217,424.031,253.194,424.971z"/>
<path fill-rule="evenodd" clip-rule="evenodd" fill="#FFFFFF" d="M217.404,419.949c3.82-2.16,6.339-0.977,9.365,0.98
	C223.383,422.319,220.831,421.1,217.404,419.949z"/>
<path fill-rule="evenodd" clip-rule="evenodd" fill="#FFFFFF" d="M161.498,420.843c-2.771-0.339-5.542-0.679-8.827-1.081
	C155.97,417.05,159.034,417.378,161.498,420.843z"/>
<path fill-rule="evenodd" clip-rule="evenodd" fill="#FFFFFF" d="M315.725,433.751c-3.144,0.631-5.699,0.294-8.008-1.531
	C310.254,430.388,312.601,430.789,315.725,433.751z"/>
<path fill-rule="evenodd" clip-rule="evenodd" fill="#FFFFFF" d="M276.5,433.618c-2.917-0.379-5.833-0.757-8.748-1.136
	C270.866,430.121,273.001,430.373,276.5,433.618z"/>
<path fill-rule="evenodd" clip-rule="evenodd" fill="#FFFFFF" d="M213.974,421.566c-2.657-0.402-5.314-0.804-8.112-1.227
	C208.067,417.507,210.723,417.771,213.974,421.566z"/>
<path fill-rule="evenodd" clip-rule="evenodd" fill="#FFFFFF" d="M368.417,431.683c-3.782-3.181-7.563-6.36-11.407-9.593
	C362.427,423.388,365.354,427.721,368.417,431.683z"/>
<path fill-rule="evenodd" clip-rule="evenodd" fill="#FFFFFF" d="M296.765,420.896c-3.945,1.827-5.518,1.616-7.223-0.811
	C292.016,418.413,294.142,419.584,296.765,420.896z"/>
<path fill-rule="evenodd" clip-rule="evenodd" fill="#FFFFFF" d="M251.257,427.855c2.541-2.618,5.007-0.579,7.625-0.603
	C255.319,429.876,254.434,429.953,251.257,427.855z"/>
<path fill-rule="evenodd" clip-rule="evenodd" fill="#FFFFFF" d="M302.342,424.574c-3.372,1.475-3.997,1.469-6.738,0.068
	C298.478,422.078,298.939,422.058,302.342,424.574z"/>
<path fill-rule="evenodd" clip-rule="evenodd" fill="#FFFFFF" d="M262.824,426.298c2.651,0.418,4.683,0.737,6.826,1.074
	C266.737,430.616,264.641,430.451,262.824,426.298z"/>
<path fill-rule="evenodd" clip-rule="evenodd" fill="#FFFFFF" d="M232.661,425.709c-2.152-0.267-4.303-0.532-6.554-0.812
	C227.669,421.694,227.669,421.694,232.661,425.709z"/>
<path fill-rule="evenodd" clip-rule="evenodd" fill="#FFFFFF" d="M231.538,418.807c0.965,0.165,1.548,0.103,1.905,0.357
	c0.896,0.639,1.689,1.42,2.524,2.145c-0.973,0.04-1.947,0.11-2.921,0.107c-0.482-0.002-1.008-0.041-1.434-0.239
	c-0.703-0.326-1.341-0.793-2.006-1.201C230.351,419.525,231.095,419.075,231.538,418.807z"/>
<path fill-rule="evenodd" clip-rule="evenodd" fill="#FFFFFF" d="M305.123,433.603c-5.629,0.693-5.789,0.644-6.73-2.014
	C300.771,431.493,302.894,431.849,305.123,433.603z"/>
<path fill-rule="evenodd" clip-rule="evenodd" fill="#FFFFFF" d="M246.493,431.39c2.811-1.924,4.749-0.551,7.405,1.435
	C250.78,433.45,248.696,432.909,246.493,431.39z"/>
<path fill-rule="evenodd" clip-rule="evenodd" fill="#FFFFFF" d="M245.497,420.979c-2.365,0.27-4.32,1.184-6.454-0.249
	C241.698,418.49,242.676,418.5,245.497,420.979z"/>
<path fill-rule="evenodd" clip-rule="evenodd" fill="#FFFFFF" d="M221.399,425.337c-1.78-0.354-3.576-0.647-5.329-1.106
	c-0.433-0.112-0.724-0.764-1.08-1.168c0.604-0.186,1.291-0.654,1.794-0.505c1.629,0.484,3.191,1.196,4.778,1.82
	C221.509,424.697,221.454,425.018,221.399,425.337z"/>
<path fill-rule="evenodd" clip-rule="evenodd" d="M322.507,538.184c9.996,0.002,19.992,0.002,29.989,0.002
	c1,0,2.001-0.027,2.999,0.02c4.625,0.222,6.588,2.178,6.592,6.788c0.014,13.12-0.037,26.24-0.057,39.36
	c-0.006,3.873,0.047,7.747-0.004,11.62c-0.027,1.982-0.018,3.886-2.402,5.002c-0.751,0.353-0.996,2.379-1.001,3.642
	c-0.063,14.244-0.064,28.489-0.016,42.734c0.021,6.244,0.192,12.489,0.294,18.733c0.075,4.578-1.679,6.459-6.175,6.462
	c-20.242,0.018-40.484,0.022-60.727-0.003c-5.246-0.007-6.582-1.394-6.576-6.744c0.018-16.869,0.053-33.736,0.121-50.604
	c0.021-5.167,1.269-6.393,6.424-6.413c5.622-0.021,11.246,0.003,16.868,0.073c5.198,0.066,6.173,1.055,6.193,6.12
	c0.016,3.748,0.066,7.499-0.045,11.245c-0.114,3.811-1.485,5.098-5.316,5.111c-6.248,0.023-12.497,0.041-18.742-0.079
	c-1.91-0.035-2.67,0.495-2.662,2.495c0.029,6.872,0.021,13.748-0.2,20.614c-0.086,2.682,1.524,2.35,3.135,2.354
	c13.62,0.032,27.24,0.065,40.86,0.085c6.872,0.01,13.745,0.034,20.617-0.03c3.224-0.03,3.262-0.118,3.259-3.414
	c-0.016-15.867-0.047-31.734-0.087-47.603c-0.011-4.053-0.035-4.045-3.974-4.041c-20.118,0.022-40.235,0.044-60.353,0.049
	c-1.243,0.001-2.51-0.017-3.725-0.248c-2.604-0.494-4.199-2.132-4.628-4.75c-0.201-1.224-0.203-2.486-0.206-3.731
	c-0.031-15.618-0.045-31.236-0.064-46.854c0-0.375-0.008-0.751,0.007-1.125c0.181-4.706,2.238-6.825,6.989-6.852
	C300.765,538.141,311.636,538.183,322.507,538.184z M300.655,611.73c0-0.017,0-0.032,0-0.048c-3.235,0-6.471,0.039-9.706-0.017
	c-1.684-0.029-2.615,0.672-2.632,2.361c-0.042,4.23-0.028,8.46-0.051,12.689c-0.007,1.405,0.676,2,2.061,2
	c6.471-0.002,12.941,0.007,19.411,0.057c1.887,0.015,2.725-0.836,2.707-2.701c-0.04-3.981-0.074-7.964-0.032-11.944
	c0.019-1.731-0.641-2.473-2.426-2.423C306.879,611.792,303.766,611.73,300.655,611.73z"/>
<path fill-rule="evenodd" clip-rule="evenodd" d="M322.426,505.319c-10.61,0-21.221,0.045-31.831-0.019
	c-5.442-0.032-7.21-1.749-7.365-7.109c-0.166-5.738-0.189-11.48-0.238-17.221c-0.036-4.159,2.148-6.439,6.43-6.475
	c8.738-0.067,17.478-0.018,26.215-0.012c12.609,0.007,25.217,0.016,37.826,0.029c1.123,0.001,2.259-0.064,3.367,0.078
	c2.922,0.375,4.649,1.942,4.698,4.859c0.118,6.985,0.104,13.979-0.102,20.962c-0.089,3.018-2.41,4.742-6.044,4.813
	c-5.865,0.113-11.733,0.07-17.601,0.081c-5.118,0.009-10.236,0.002-15.355,0.002C322.426,505.313,322.426,505.315,322.426,505.319z"
	/>
<path fill-rule="evenodd" clip-rule="evenodd" d="M322.004,533.555c-10.485,0-20.97,0.004-31.455-0.005
	c-1.248-0.002-2.508,0.019-3.739-0.146c-2.544-0.341-3.94-1.64-4-4.12c-0.125-5.114-0.136-10.236-0.001-15.35
	c0.072-2.723,1.366-4.028,4.103-4.53c1.335-0.245,2.729-0.24,4.096-0.239c21.219,0.015,42.439,0.044,63.659,0.079
	c4.952,0.008,6.52,1.472,6.659,6.406c0.11,3.867,0.108,7.739,0.048,11.607c-0.082,5.262-1.237,6.43-6.417,6.446
	c-10.984,0.035-21.968,0.011-32.953,0.011C322.004,533.661,322.004,533.608,322.004,533.555z M322.083,530.772
	c0,0.045,0,0.091,0,0.136c10.979,0,21.959,0.015,32.939-0.008c3.648-0.007,4.067-0.525,3.909-4.142
	c-0.158-3.611-0.266-7.226-0.359-10.84c-0.089-3.481-0.244-3.803-3.514-3.813c-22.084-0.069-44.168-0.093-66.252-0.092
	c-3.037,0-3.313,0.35-3.349,3.54c-0.042,3.742-0.026,7.485,0,11.228c0.026,3.764,0.235,3.979,4.061,3.985
	C300.373,530.783,311.227,530.772,322.083,530.772z"/>
<path fill-rule="evenodd" clip-rule="evenodd" d="M178.848,375.406c-33.952-1.419-67.903-2.83-101.854-4.265
	c-4.947-0.209-5.749-1.118-5.749-6.133c-0.002-48.48-0.004-96.961-0.005-145.44c0-6.505,1.078-7.29,7.544-6.437
	c16.583,2.189,33.182,4.266,49.78,6.337c17.959,2.241,35.924,4.438,53.889,6.628c14.992,1.828,29.989,3.606,44.981,5.425
	c15.364,1.864,30.724,3.752,46.085,5.629c2.478,0.303,4.958,0.584,7.432,0.918c4.824,0.652,5.786,1.717,5.774,6.455
	c-0.019,8.121-0.104,16.241-0.1,24.362c0.018,33.612,0.063,67.223,0.088,100.834c0.005,6.88,0.151,9.136-8.965,8.785
	c-32.958-1.269-65.926-2.284-98.89-3.394C178.854,375.21,178.851,375.309,178.848,375.406z M103.885,349.7
	c0.001-0.015,0.002-0.03,0.003-0.045c-1.991-0.125-3.981-0.262-5.973-0.371c-8.285-0.456-8.193-0.457-7.818,7.781
	c0.106,2.329,1.011,2.919,3.142,3.01c5.978,0.255,11.944,0.763,17.92,1.064c8.356,0.423,8.302,0.385,7.812-8.142
	c-0.102-1.763-0.692-2.378-2.401-2.459C112.337,350.335,108.113,349.988,103.885,349.7z M90.152,335.564
	c0,0.374-0.002,0.748,0,1.121c0.027,4.18,0.03,4.142,4.315,4.37c5.845,0.31,11.687,0.674,17.528,1.037
	c7.409,0.46,7.114,2.117,6.912-6.755c-0.058-2.508-1.11-3.149-3.332-3.28c-6.713-0.395-13.417-0.942-20.125-1.409
	C90.235,330.285,90.234,330.299,90.152,335.564z M277.524,250.354c0.038-0.286,0.076-0.571,0.114-0.856
	c-0.138-0.177-0.26-0.493-0.417-0.512c-64.811-7.66-129.625-15.3-194.44-22.926c-0.341-0.04-0.712,0.125-1.062,0.22
	c-0.111,0.03-0.244,0.129-0.283,0.229c-0.039,0.1,0.029,0.24,0.14,0.887C146.792,235.037,212.158,242.695,277.524,250.354z
	 M80.74,233.62c65.565,7.579,131.13,15.157,196.696,22.736C274.099,253.998,84.854,232.307,80.74,233.62z M275.877,263.214
	c-0.382-0.021-0.765-0.041-1.147-0.062c-0.094,1.383-0.277,2.768-0.27,4.151c0.06,10.612,0.188,21.225,0.235,31.837
	c0.086,19.603,0.066,39.205,0.227,58.807c0.06,7.348,0.245,7.187-7.294,6.707c-16.071-1.022-32.154-1.867-48.233-2.763
	c-0.869-0.048-1.75,0.106-2.625,0.166c0.82,0.805,1.629,0.99,2.445,1.042c6.6,0.415,13.199,0.832,19.802,1.196
	c10.842,0.6,21.689,1.1,32.526,1.765c4.624,0.283,4.624,0.423,4.619-4.034c-0.035-31.84-0.072-63.68-0.119-95.52
	C276.043,265.409,275.936,264.312,275.877,263.214z M89.042,266.436c0.191,6.543,2.947,12.65,8.609,17.201
	c7.356,5.914,16.89,4.57,21.968-2.871c7.119-10.435,1.948-27.275-9.803-31.93c-5.685-2.252-11.6-0.966-15.732,3.554
	C90.654,256.141,89.138,260.665,89.042,266.436z M112.752,323.794c0-0.006,0-0.012,0.001-0.017c1.12,0.078,2.245,0.119,3.359,0.247
	c1.309,0.15,2.422,0.36,2.548-1.615c0.195-3.051-0.025-3.773-2.229-3.978c-7.822-0.728-15.65-1.38-23.476-2.07
	c-1.654-0.146-2.882-0.074-2.909,2.213c-0.037,3.2-0.018,3.514,2.553,3.714C99.314,322.813,106.034,323.295,112.752,323.794z
	 M263.942,269.633c0-1.999-0.053-3.486,0.016-4.967c0.06-1.271-0.548-1.794-1.722-1.911c-4.469-0.442-8.935-0.915-13.405-1.341
	c-1.231-0.118-1.848,0.513-1.828,1.765c0.016,0.999-0.011,1.998,0.004,2.997c0.02,1.3,0.527,2.026,1.988,2.136
	C253.827,268.676,258.649,269.155,263.942,269.633z M125.122,297.237c-14.569-1.697-29.156-3.196-43.828-3.69
	C84.388,295.157,122.627,298.399,125.122,297.237z M121.666,309.794c-12.903-2.245-25.858-3.324-38.899-3.37
	C95.658,308.584,108.702,309.02,121.666,309.794z M263.189,343.07c0.072,0.148,0.144,0.297,0.215,0.446
	c0.972-0.48,2.499-0.727,2.819-1.483c1.151-2.718-0.221-4.577-3.2-4.836c-1.233-0.108-2.461-0.281-3.695-0.355
	c-2.778-0.166-3,0.092-3.223,2.7c-0.171,2.01,0.084,3.378,2.652,3.17C260.216,342.593,261.711,342.936,263.189,343.07z
	 M261.236,352.217c0,0.021,0,0.043,0,0.063c0.496,0,0.993,0.026,1.486-0.004c1.591-0.097,3.643,0.745,3.728-2.156
	c0.077-2.665-0.274-3.221-3.36-3.634c-1.468-0.196-2.976-0.091-4.448-0.264c-1.767-0.208-2.35,0.439-2.416,2.235
	c-0.131,3.551-0.121,3.686,3.524,3.758C260.245,352.225,260.74,352.217,261.236,352.217z M269.495,321.86
	c0.049-0.001,0.099-0.001,0.147-0.001c0-13.94,0-27.88,0-41.82c-0.049,0-0.098,0-0.147,0.001
	C269.495,293.98,269.495,307.92,269.495,321.86z M247.722,301.235c5.517,1.118,11.396,1.608,17.32,1.201
	c0.015-0.401,0.031-0.801,0.047-1.201C259.299,301.235,253.511,301.235,247.722,301.235z M247.407,317.824
	c0.003,0.398,0.005,0.796,0.007,1.194c6.051,0,12.102,0,18.153,0c0.011-0.109,0.021-0.218,0.033-0.327
	C259.536,318.402,253.471,318.113,247.407,317.824z M247.549,280.287c0.017,0.369,0.035,0.738,0.051,1.107
	c5.685,0.23,11.37,0.46,17.055,0.691c0.018-0.207,0.035-0.414,0.053-0.62C258.988,281.072,253.269,280.679,247.549,280.287z
	 M264.954,299.16c0.019-0.296,0.038-0.594,0.056-0.891c-5.665-0.363-11.33-0.727-16.994-1.091c-0.021,0.334-0.042,0.668-0.063,1.002
	C253.62,298.506,259.288,298.834,264.954,299.16z M264.871,279.084c0.029-0.292,0.058-0.584,0.087-0.876
	c-5.57-0.608-11.141-1.216-16.711-1.824c-0.035,0.352-0.069,0.704-0.104,1.056C253.718,277.988,259.295,278.536,264.871,279.084z
	 M270.697,267.021c0.083-0.016,0.166-0.032,0.249-0.048c-0.262-1.036-0.437-2.109-0.859-3.074c-0.084-0.193-1.622-0.027-1.631,0.063
	c-0.186,1.773-0.304,3.562-0.239,5.34c0.006,0.179,1.273,0.368,1.965,0.421c0.149,0.011,0.451-0.535,0.492-0.849
	C270.753,268.265,270.697,267.64,270.697,267.021z M264.764,309.433c0.061-0.302,0.122-0.604,0.182-0.906
	c-5.489,0-10.979,0-17.302,0C253.896,308.858,259.33,309.145,264.764,309.433z M247.75,293.951
	c-0.022,0.287-0.044,0.575-0.067,0.862c5.691,0,11.381,0,17.071,0c0.006-0.027,0.013-0.054,0.019-0.082
	C259.098,294.472,253.424,294.211,247.75,293.951z M248.23,304.99c5.408,1.414,11.058,0.42,16.618,1.093
	c0.016-0.365,0.031-0.729,0.047-1.093C259.313,304.99,253.729,304.99,248.23,304.99z M264.702,316.427
	c-0.002-0.265-0.005-0.53-0.008-0.794c-5.628-0.275-11.257-0.55-16.887-0.825c-0.009,0.242-0.019,0.484-0.028,0.727
	C253.419,315.832,259.061,316.129,264.702,316.427z M264.858,312.17c0.105-0.121,0.211-0.242,0.316-0.363
	c-5.849,0-11.697,0-17.545,0c-0.012,0.121-0.024,0.242-0.036,0.363C253.348,312.17,259.104,312.17,264.858,312.17z M247.891,290.849
	c0.01,0.199,0.02,0.398,0.029,0.598c5.542,0.299,11.082,0.599,16.624,0.898c0.01-0.233,0.019-0.466,0.029-0.699
	C259.012,291.38,253.452,291.115,247.891,290.849z M253.724,323.188c8.041,1.266,8.77,1.263,10.938,0
	C261.187,323.188,257.902,323.188,253.724,323.188z M264.759,288.291c-0.024-0.149-0.048-0.299-0.073-0.448
	c-3.864,0-7.727,0-11.59,0c-0.001,0.149-0.002,0.299-0.004,0.448C256.98,288.291,260.869,288.291,264.759,288.291z M256.678,284.391
	c0.004-0.063,0.009-0.128,0.013-0.192c-3.097,0-6.194,0-9.291,0c-0.01,0.064-0.019,0.128-0.028,0.192
	C250.475,284.391,253.576,284.391,256.678,284.391z"/>
<path fill-rule="evenodd" clip-rule="evenodd" d="M283.53,383.987c1.968,0,3.936,0,5.905,0c0.001,0.095,0.003,0.19,0.005,0.285
	c-2.034,0-4.066,0-6.1,0C283.402,384.178,283.466,384.082,283.53,383.987z"/>
<path fill-rule="evenodd" clip-rule="evenodd" fill="#FFFFFF" d="M300.655,611.73c3.111,0,6.224,0.062,9.332-0.025
	c1.786-0.05,2.445,0.691,2.426,2.423c-0.042,3.98-0.008,7.963,0.032,11.944c0.018,1.865-0.82,2.716-2.707,2.701
	c-6.47-0.05-12.94-0.059-19.411-0.057c-1.385,0-2.068-0.595-2.061-2c0.023-4.229,0.009-8.459,0.051-12.689
	c0.017-1.689,0.948-2.391,2.632-2.361c3.235,0.056,6.47,0.017,9.706,0.017C300.655,611.698,300.655,611.714,300.655,611.73z"/>
<path fill-rule="evenodd" clip-rule="evenodd" fill="#FFFFFF" d="M322.083,530.772c-10.855,0-21.71,0.011-32.565-0.005
	c-3.826-0.006-4.034-0.222-4.061-3.985c-0.026-3.742-0.042-7.485,0-11.228c0.036-3.19,0.312-3.54,3.349-3.54
	c22.084-0.001,44.168,0.022,66.252,0.092c3.27,0.01,3.424,0.331,3.514,3.813c0.093,3.614,0.201,7.229,0.359,10.84
	c0.158,3.616-0.261,4.135-3.909,4.142c-10.98,0.022-21.96,0.008-32.939,0.008C322.083,530.863,322.083,530.817,322.083,530.772z"/>
<path fill-rule="evenodd" clip-rule="evenodd" fill="#FFFFFF" d="M103.885,349.7c4.228,0.288,8.453,0.635,12.685,0.838
	c1.709,0.081,2.299,0.697,2.401,2.459c0.49,8.526,0.544,8.564-7.812,8.142c-5.976-0.302-11.943-0.81-17.92-1.064
	c-2.13-0.091-3.035-0.681-3.142-3.01c-0.375-8.238-0.467-8.237,7.818-7.781c1.992,0.109,3.982,0.247,5.973,0.371
	C103.887,349.67,103.886,349.686,103.885,349.7z"/>
<path fill-rule="evenodd" clip-rule="evenodd" fill="#FFFFFF" d="M90.153,335.564c0.081-5.265,0.082-5.279,5.298-4.917
	c6.708,0.467,13.412,1.015,20.125,1.409c2.222,0.131,3.274,0.772,3.332,3.28c0.202,8.872,0.497,7.215-6.912,6.755
	c-5.842-0.363-11.684-0.727-17.528-1.037c-4.286-0.228-4.288-0.189-4.315-4.37C90.15,336.312,90.152,335.938,90.153,335.564z"/>
<path fill-rule="evenodd" clip-rule="evenodd" fill="#FFFFFF" d="M277.524,250.354c-65.366-7.659-130.732-15.317-195.95-22.958
	c-0.111-0.646-0.178-0.787-0.14-0.887c0.039-0.101,0.172-0.199,0.283-0.229c0.35-0.095,0.721-0.26,1.062-0.22
	c64.816,7.626,129.629,15.266,194.44,22.926c0.157,0.019,0.279,0.335,0.417,0.512C277.6,249.782,277.562,250.068,277.524,250.354z"
	/>
<path fill-rule="evenodd" clip-rule="evenodd" fill="#FFFFFF" d="M80.74,233.62c4.114-1.313,193.358,20.378,196.696,22.736
	C211.871,248.777,146.305,241.199,80.74,233.62z"/>
<path fill-rule="evenodd" clip-rule="evenodd" fill="#FFFFFF" d="M275.877,263.214c0.058,1.098,0.166,2.195,0.167,3.292
	c0.046,31.84,0.083,63.68,0.119,95.52c0.005,4.457,0.005,4.317-4.619,4.034c-10.837-0.665-21.684-1.165-32.526-1.765
	c-6.603-0.364-13.203-0.781-19.802-1.196c-0.816-0.052-1.625-0.237-2.445-1.042c0.875-0.06,1.755-0.214,2.625-0.166
	c16.079,0.896,32.162,1.74,48.233,2.763c7.539,0.479,7.354,0.641,7.294-6.707c-0.161-19.602-0.141-39.204-0.227-58.807
	c-0.047-10.613-0.175-21.225-0.235-31.837c-0.007-1.383,0.176-2.768,0.27-4.151C275.112,263.173,275.495,263.193,275.877,263.214z"
	/>
<path fill-rule="evenodd" clip-rule="evenodd" fill="#FFFFFF" d="M89.042,266.436c0.096-5.771,1.612-10.295,5.041-14.045
	c4.133-4.52,10.048-5.806,15.732-3.554c11.751,4.655,16.922,21.495,9.803,31.93c-5.078,7.44-14.612,8.784-21.968,2.871
	C91.989,279.086,89.233,272.979,89.042,266.436z M90.587,264.761c0.116,7.754,2.68,12.937,7.186,17.045
	c7.254,6.614,17.647,4.45,21.93-4.38c4.382-9.036,0.332-21.287-8.677-26.246c-6.285-3.459-13.533-1.653-17.335,4.451
	C91.681,258.856,90.508,262.396,90.587,264.761z"/>
<path fill-rule="evenodd" clip-rule="evenodd" fill="#FFFFFF" d="M112.752,323.794c-6.718-0.5-13.438-0.982-20.153-1.506
	c-2.571-0.201-2.59-0.515-2.553-3.714c0.026-2.287,1.254-2.359,2.909-2.213c7.826,0.69,15.654,1.342,23.476,2.07
	c2.205,0.205,2.425,0.927,2.229,3.978c-0.126,1.975-1.239,1.766-2.548,1.615c-1.114-0.128-2.239-0.168-3.359-0.247
	C112.752,323.783,112.752,323.789,112.752,323.794z"/>
<path fill-rule="evenodd" clip-rule="evenodd" fill="#FFFFFF" d="M263.942,269.633c-5.293-0.478-10.115-0.957-14.947-1.322
	c-1.46-0.11-1.968-0.835-1.988-2.136c-0.015-0.999,0.012-1.998-0.004-2.997c-0.02-1.252,0.597-1.883,1.828-1.765
	c4.47,0.427,8.937,0.899,13.405,1.341c1.174,0.117,1.782,0.64,1.722,1.911C263.889,266.147,263.942,267.634,263.942,269.633z"/>
<path fill-rule="evenodd" clip-rule="evenodd" fill="#FFFFFF" d="M125.122,297.237c-2.495,1.162-40.734-2.08-43.828-3.69
	C95.966,294.042,110.553,295.541,125.122,297.237z"/>
<path fill-rule="evenodd" clip-rule="evenodd" fill="#FFFFFF" d="M121.666,309.794c-12.963-0.774-26.007-1.21-38.899-3.37
	C95.808,306.47,108.762,307.549,121.666,309.794z"/>
<path fill-rule="evenodd" clip-rule="evenodd" fill="#FFFFFF" d="M263.189,343.07c-1.479-0.135-2.974-0.477-4.432-0.359
	c-2.567,0.208-2.823-1.16-2.652-3.17c0.224-2.608,0.445-2.866,3.223-2.7c1.234,0.074,2.462,0.248,3.695,0.355
	c2.979,0.259,4.351,2.119,3.2,4.836c-0.321,0.757-1.847,1.003-2.819,1.483C263.333,343.368,263.261,343.219,263.189,343.07z"/>
<path fill-rule="evenodd" clip-rule="evenodd" fill="#FFFFFF" d="M261.236,352.217c-0.496,0-0.992,0.008-1.487-0.001
	c-3.645-0.072-3.655-0.207-3.524-3.758c0.066-1.796,0.649-2.443,2.416-2.235c1.473,0.173,2.98,0.067,4.448,0.264
	c3.086,0.413,3.438,0.969,3.36,3.634c-0.085,2.901-2.137,2.06-3.728,2.156c-0.494,0.03-0.991,0.004-1.486,0.004
	C261.236,352.26,261.236,352.238,261.236,352.217z"/>
<path fill-rule="evenodd" clip-rule="evenodd" fill="#FFFFFF" d="M269.495,321.86c0-13.94,0-27.88,0-41.82
	c0.049-0.001,0.099-0.001,0.147-0.001c0,13.94,0,27.88,0,41.82C269.594,321.859,269.544,321.859,269.495,321.86z"/>
<path fill-rule="evenodd" clip-rule="evenodd" fill="#FFFFFF" d="M247.722,301.235c5.789,0,11.578,0,17.367,0
	c-0.016,0.4-0.032,0.8-0.047,1.201C259.118,302.843,253.238,302.353,247.722,301.235z"/>
<path fill-rule="evenodd" clip-rule="evenodd" fill="#FFFFFF" d="M247.407,317.824c6.064,0.29,12.129,0.579,18.193,0.867
	c-0.011,0.109-0.022,0.218-0.033,0.327c-6.051,0-12.102,0-18.153,0C247.412,318.62,247.41,318.222,247.407,317.824z"/>
<path fill-rule="evenodd" clip-rule="evenodd" fill="#FFFFFF" d="M247.549,280.287c5.72,0.393,11.439,0.785,17.159,1.178
	c-0.018,0.207-0.035,0.413-0.053,0.62c-5.685-0.23-11.37-0.46-17.055-0.691C247.583,281.024,247.566,280.656,247.549,280.287z"/>
<path fill-rule="evenodd" clip-rule="evenodd" fill="#FFFFFF" d="M264.954,299.16c-5.667-0.326-11.334-0.654-17.001-0.98
	c0.021-0.334,0.042-0.668,0.063-1.002c5.665,0.364,11.33,0.728,16.994,1.091C264.992,298.566,264.973,298.864,264.954,299.16z"/>
<path fill-rule="evenodd" clip-rule="evenodd" fill="#FFFFFF" d="M264.871,279.084c-5.576-0.549-11.152-1.097-16.729-1.644
	c0.035-0.352,0.069-0.704,0.104-1.056c5.57,0.608,11.141,1.216,16.711,1.824C264.929,278.5,264.9,278.792,264.871,279.084z"/>
<path fill-rule="evenodd" clip-rule="evenodd" fill="#FFFFFF" d="M270.697,267.021c0,0.619,0.056,1.244-0.023,1.853
	c-0.041,0.314-0.343,0.86-0.492,0.849c-0.692-0.053-1.959-0.242-1.965-0.421c-0.065-1.778,0.053-3.567,0.239-5.34
	c0.009-0.09,1.547-0.257,1.631-0.063c0.423,0.965,0.598,2.039,0.859,3.074C270.863,266.988,270.781,267.004,270.697,267.021z"/>
<path fill-rule="evenodd" clip-rule="evenodd" fill="#FFFFFF" d="M264.764,309.433c-5.434-0.288-10.868-0.575-17.12-0.906
	c6.323,0,11.813,0,17.302,0C264.885,308.829,264.825,309.13,264.764,309.433z"/>
<path fill-rule="evenodd" clip-rule="evenodd" fill="#FFFFFF" d="M247.75,293.951c5.674,0.26,11.348,0.521,17.022,0.781
	c-0.006,0.027-0.013,0.054-0.019,0.082c-5.69,0-11.38,0-17.071,0C247.705,294.526,247.727,294.238,247.75,293.951z"/>
<path fill-rule="evenodd" clip-rule="evenodd" fill="#FFFFFF" d="M248.23,304.99c5.499,0,11.083,0,16.666,0
	c-0.016,0.364-0.031,0.728-0.047,1.093C259.288,305.41,253.638,306.403,248.23,304.99z"/>
<path fill-rule="evenodd" clip-rule="evenodd" fill="#FFFFFF" d="M264.702,316.427c-5.641-0.297-11.282-0.595-16.923-0.892
	c0.009-0.243,0.019-0.484,0.028-0.727c5.629,0.274,11.258,0.549,16.887,0.825C264.696,315.897,264.699,316.162,264.702,316.427z"/>
<path fill-rule="evenodd" clip-rule="evenodd" fill="#FFFFFF" d="M264.858,312.17c-5.755,0-11.51,0-17.265,0
	c0.012-0.121,0.024-0.242,0.036-0.363c5.849,0,11.697,0,17.545,0C265.069,311.929,264.964,312.049,264.858,312.17z"/>
<path fill-rule="evenodd" clip-rule="evenodd" fill="#FFFFFF" d="M247.891,290.849c5.561,0.266,11.121,0.531,16.682,0.797
	c-0.01,0.233-0.019,0.466-0.029,0.699c-5.542-0.299-11.082-0.599-16.624-0.898C247.911,291.248,247.901,291.048,247.891,290.849z"/>
<path fill-rule="evenodd" clip-rule="evenodd" fill="#FFFFFF" d="M253.724,323.188c4.178,0,7.463,0,10.938,0
	C262.494,324.451,261.765,324.454,253.724,323.188z"/>
<path fill-rule="evenodd" clip-rule="evenodd" fill="#FFFFFF" d="M264.759,288.291c-3.89,0-7.778,0-11.667,0
	c0.001-0.149,0.003-0.299,0.004-0.448c3.864,0,7.727,0,11.59,0C264.71,287.992,264.734,288.142,264.759,288.291z"/>
<path fill-rule="evenodd" clip-rule="evenodd" fill="#FFFFFF" d="M256.678,284.391c-3.102,0-6.204,0-9.306,0
	c0.009-0.063,0.018-0.128,0.028-0.192c3.097,0,6.194,0,9.291,0C256.687,284.263,256.683,284.327,256.678,284.391z"/>
<path fill-rule="evenodd" clip-rule="evenodd" d="M90.587,264.761c-0.08-2.364,1.093-5.904,3.103-9.13
	c3.802-6.104,11.051-7.91,17.335-4.451c9.009,4.958,13.059,17.21,8.677,26.246c-4.283,8.83-14.676,10.994-21.93,4.38
	C93.268,277.698,90.704,272.515,90.587,264.761z M117.84,269.645c0.019-4.023-1.179-7.679-3.48-10.903
	c-2.528-3.542-5.8-5.84-10.468-5.078c-5.006,0.818-8.024,3.914-9.258,8.656c-1.373,5.28-0.163,10.225,3.085,14.503
	c2.905,3.827,6.888,5.917,11.788,4.843c4.711-1.033,6.714-4.831,7.986-9.058C117.776,271.671,117.733,270.635,117.84,269.645z"/>
<path fill-rule="evenodd" clip-rule="evenodd" fill="#FFFFFF" d="M117.84,269.645c-0.107,0.991-0.064,2.026-0.347,2.964
	c-1.272,4.227-3.275,8.025-7.986,9.058c-4.9,1.074-8.883-1.016-11.788-4.843c-3.249-4.278-4.458-9.224-3.085-14.503
	c1.234-4.742,4.252-7.838,9.258-8.656c4.667-0.762,7.939,1.535,10.468,5.078C116.661,261.965,117.859,265.621,117.84,269.645z"/>
<ellipse fill-rule="evenodd" clip-rule="evenodd" cx="467.927" cy="321.044" rx="2.834" ry="1.478"/>
</svg>
