<?xml version="1.0" encoding="utf-8"?>
<!-- Generator: Adobe Illustrator 16.0.3, SVG Export Plug-In . SVG Version: 6.00 Build 0)  -->
<!DOCTYPE svg PUBLIC "-//W3C//DTD SVG 1.1//EN" "http://www.w3.org/Graphics/SVG/1.1/DTD/svg11.dtd">
<svg version="1.1" id="レイヤー_1" xmlns="http://www.w3.org/2000/svg" xmlns:xlink="http://www.w3.org/1999/xlink" x="0px"
	 y="0px" width="1042px" height="1250.125px" viewBox="1.042 -234.969 1042 1250.125"
	 enable-background="new 1.042 -234.969 1042 1250.125" xml:space="preserve">
<path d="M20.118,995.971c0-124.651,0-249.302,0-373.953c22.659-0.004,45.318-0.06,67.977,0.055c2.911,0.016,4.675-0.51,6.198-3.345
	c2.96-5.513,7.76-8.31,14.298-8.021c6.818,0.3,13.664,0.036,20.477,0.398c3.423,0.182,4.482-0.714,4.455-4.255
	c-0.132-16.828-0.046-33.657,0.142-50.484c0.029-2.644-0.613-3.286-3.252-3.337c-30.133-0.583-60.263-1.346-90.395-1.979
	c-8.692-0.185-12.897-4.181-12.898-12.734c-0.01-82.483,0.035-164.968-0.104-247.451c-0.01-5.994,2.781-9.549,7.761-11.389
	c9.356-3.457,18.871-4.902,29.076-3.408c21.313,3.124,42.741,5.493,64.147,7.937c25.042,2.86,50.121,5.38,75.165,8.211
	c30.988,3.501,61.954,7.203,92.936,10.76c29.826,3.424,59.667,6.698,89.484,10.19c10.723,1.255,12.489,3.544,12.488,14.379
	c-0.004,72.152-0.001,144.305-0.001,216.458c0,11.235-4.725,15.709-15.796,15.416c-20.813-0.552-41.626-0.948-62.441-1.384
	c-32.63-0.68-65.263-1.236-97.887-2.117c-4.764-0.128-5.735,1.366-5.474,5.757c0.366,6.138,0.145,12.328-0.14,18.481
	c-0.161,3.479,0.553,4.917,4.539,4.964c45.302,0.521,90.601,1.191,135.899,1.979c8.785,0.152,17.648,0.362,26.319,1.626
	c12.865,1.874,23.917,8.876,35.544,14.173c2.508,1.144,4.206,1.371,6.291-1.136c17.253-20.732,39.554-27.767,65.791-23.752
	c21.855,3.343,39.244,20.573,42.179,42.259c0.43,3.167,1.939,2.757,3.883,2.756c10.83-0.004,21.662-0.068,32.494,0.021
	c6.773,0.056,10.799,4.111,10.859,10.84c0.068,7.497,0.145,15-0.068,22.493c-0.146,5.19-2.807,8.581-8.074,9.896
	c-5.115,1.278-10.314,0.96-15.383,0.553c-4.898-0.394-5.484,1.548-5.477,5.687c0.076,37.158-0.047,74.315-0.068,111.476
	c-0.037,60.487-0.049,120.976-0.043,181.461c0,2.223-1.146,4.719,3.305,4.71c26.984-0.048,53.973,0.212,80.957,0.559
	c3.787,0.049,4.299-0.574,3.16-4.315c-7.852-25.802-13.201-52.149-16.59-78.907c-1.762-13.896-1.846-13.896-13.555-16.384
	c-2.1-0.445-4.27-0.607-6.336-1.162c-11.906-3.188-24.254-4.943-35.322-10.875c-4.447-2.385-6.838-5.33-4.906-10.841
	c1.295-3.69,1.588-7.746,2.225-11.655c7.625-46.757,19.221-92.561,33-137.845c2.861-9.397,5.639-18.057,1.416-28.713
	c-8.453-21.339-7.475-43.813-2.297-65.998c6.148-26.342,14.098-51.806,36.479-69.68c0.602-0.479,1.781-0.767,1.24-1.733
	c-0.254-0.451-1.4-0.549-2.146-0.555c-9.539-0.074-17.529-4.025-24.848-9.761c-0.803-0.629-1.414-2.431-2.508-1.596
	c-0.902,0.689,0.162,2.112,0.609,3.179c1.205,2.87,2.326,5.775,3.533,8.646c0.512,1.213,1.918,2.385-1.125,1.81
	c-24.574-4.654-48.025-11.433-64.387-32.39c-0.359-0.461-0.979-0.719-1.477-1.072c0.16,0.6,0.334,1.196,0.48,1.799
	c1.088,4.488,2.045,9.014,3.305,13.454c0.75,2.643,1.969,5.15,2.977,7.721c-3.391,0.834-6.52-0.521-9.623-1.394
	c-29.505-8.287-46.905-28.676-56.472-56.813c-0.24-0.706,0.26-1.72-0.874-2.041c-0.127,0.737-0.341,1.472-0.366,2.212
	c-0.364,10.521,0.963,20.858,3.553,31.034c0.245,0.962,0.751,1.801,0.368,2.815c-0.881-0.394-1.813-0.699-2.634-1.193
	c-5.024-3.025-9.427-6.776-13.16-11.315c-11.379-13.832-15.211-30.229-15.899-47.584c-1.167-29.398,4.568-58.072,9.34-86.852
	c0.589-3.563,3.337-7.47,0.689-10.914c-9.611-12.514-12.829-27.2-15.078-42.28c-0.136-0.915,0.184-2.188-1.25-2.2
	c-0.232-0.002-0.554,1.335-0.707,2.08c-1.755,8.511-2.34,17.113-2.05,25.792c0.061,1.771-0.185,3.554-0.289,5.33
	c-2.193-0.438-3.653-1.965-5.171-3.438c-11.545-11.203-15.208-25.679-16.441-40.92c-2.061-25.415,1.664-50.25,8.962-74.55
	c20.371-67.822,57.459-123.871,116.861-163.771c34.146-22.938,71.801-37.24,112.428-43.927c7.545-1.24,15.354-1.06,22.643-3.814
	c13.666,0,27.33,0,40.996,0c1.332,1.4,2.666,1.671,3.998,0c1.668,0,3.334,0,5,0c6.736,2.293,13.861,2,20.783,2.809
	c30.211,3.533,59.18,11.5,87.131,23.305c42.037,17.751,78.545,42.944,107.213,78.978c37.484,47.113,51.865,102.12,55.832,160.795
	c1.377,20.36,2.74,40.698,6.535,60.82c4.83,25.605,13.688,50.355,15.945,76.51c1.605,18.605,0.66,36.834-7.693,53.903
	c-5.418,11.066-13.023,20.407-24.137,26.391c-0.998,0.536-2.594,1.563-3.041,1.221c-1.424-1.084,0.201-2.433,0.555-3.485
	c1.895-5.688,2.768-11.559,3.441-17.45c1.182-10.312,0.299-20.542-1.885-30.663c-0.186-0.866-0.926-1.614-1.408-2.417
	c-0.107,0.816-0.17,1.643-0.336,2.447c-0.998,4.852-1.689,9.796-3.088,14.532c-10.877,36.869-33.709,61.415-72.26,69.586
	c-0.758,0.16-1.893,0.544-2.25,0.199c-1.002-0.968,0.354-1.72,0.717-2.494c3.078-6.612,5.119-13.51,5.922-20.762
	c0.105-0.958,0.307-2.61-0.084-2.796c-1.396-0.666-1.93,0.937-2.545,1.727c-5.875,7.543-12.785,13.983-20.574,19.481
	c-13.736,9.696-29.201,15.123-45.592,18.165c-1.432,0.267-2.969-0.036-4.455-0.073c0.639-1.287,1.354-2.544,1.9-3.868
	c1.502-3.63,3-7.266,4.354-10.951c0.414-1.126,1.609-2.21,0.666-3.62c-0.871,0.736-1.77,1.445-2.615,2.212
	c-12.287,11.16-26.879,17.178-43.182,19.428c-4.229,0.584-5.904-0.178-3.822-4.903c1.771-4.02,2.631-8.447,3.781-12.726
	c0.248-0.92,0.014-1.97,0-2.96c-0.855,0.448-1.773,0.812-2.561,1.359c-7.219,5.039-14.535,9.832-23.748,10.265
	c-0.361,0.019-0.709,0.349-1.063,0.532c0.459,0.418,0.85,0.995,1.391,1.231c15.941,7.016,25.705,20.001,33.328,34.884
	c10.646,20.784,16.646,43.167,21.793,65.784c2.836,12.459,5.359,25.049,3.529,37.933c-2.854,20.103-13.453,36.285-26.605,51.037
	c-1.838,2.062-2.309,3.352-1.156,6.146c16.275,39.473,29.049,80.034,37.172,121.995c1.758,9.08,0.885,10.672-8.086,14.651
	c-13.436,5.958-27.512,10.244-41.943,12.477c-7.596,1.175-8.527,5.134-8.861,11.012c-1.521,26.854-4.908,53.48-10.09,79.875
	c-0.725,3.697-1.771,7.332-2.668,10.995c3.961,0.13,7.924,0.228,11.885,0.392c42.736,1.778,85.51,2.572,128.197,5.702
	c27.336,2.004,54.738,3.146,81.867,7.325c4.363,0.672,11.318,0.476,11.469,5.444c0.141,4.68-6.727,5.439-11.094,6.426
	c-13.939,3.147-28.188,4.017-42.385,5.302c-30.326,2.746-60.719,4.504-91.131,5.645c-43.438,1.629-86.896,2.696-130.352,3.84
	c-36.963,0.973-73.938,0.162-110.912,0.885c-70.959,1.388-141.927-0.012-212.881-1.112c-44.117-0.686-88.22-2.191-132.331-3.27
	c-47.261-1.153-94.513-2.388-141.724-5.067C99.896,1002.848,59.886,1001.036,20.118,995.971z M689.981,562.273
	c0,0.231,0,0.463,0,0.693c9.83,0,19.666-0.202,29.486,0.087c4.795,0.142,7.576-1.552,9.711-5.884
	c5.029-10.205,9.732-20.631,16.17-30.056c2.305-3.372,3.016-5.13-1.885-5.95c-5.34-0.895-7.686-4.284-7.979-9.712
	c-0.332-6.114,3.055-7.453,8.215-8.541c27.541-5.807,53.166-16.246,76.131-32.76c2.111-1.519,4.592-2.838,5.156-5.725
	c5.365-27.486,9.939-55.05,11.211-83.122c1.014-22.324,1.205-44.588-1.225-66.809c-1.492-13.634-3.959-27.125-6.902-40.522
	c-0.164-0.74,0.082-2-1.08-1.784c-1.5,0.276-0.533,1.323-0.457,2.236c0.875,10.427,1.656,20.86,2.348,31.302
	c0.082,1.247-0.115,3.053-0.91,3.686c-1.066,0.852-2.324-0.624-3.234-1.349c-4.287-3.409-8.711-6.702-12.621-10.515
	c-13.984-13.632-25.541-29.245-36.277-45.483c-1.453-2.2-2.971-3.516-5.738-4.112c-11.451-2.469-22.92-3.255-34.57-1.875
	c-5.6,0.663-9.244,2.66-11.533,8.57c-7.57,19.544-17.369,38.039-28.666,55.705c-4.133,6.46-4.291,6.379-9.443,1.037
	c-1.877-1.947-3.676-3.973-5.51-5.961c-0.621,3.1-0.549,6.188,0.277,9.235c0.766,2.826,0.777,3.819-2.883,2.635
	c-14.459-4.671-25.313-14.126-34.889-25.362c-5.6-6.571-10.576-13.616-14.994-21.045c-0.475-0.799-0.975-2.205-2.086-1.686
	c-1.309,0.611,0.195,1.6,0.244,2.465c0.418,7.456,2.025,14.719,3.84,21.94c1.166,4.643,2.313,9.29,3.467,13.936
	c-5.268-1.567-10.012-4.186-14.537-7.242c-0.139-0.094-0.256-0.214-0.395-0.307c-16.961-11.399-26.291-28.451-34.209-46.481
	c-1.176-2.678-2.416-4.01-5.502-4.66c-11.525-2.426-22.262,0.111-32.91,4.118c-1.77,0.666-2.557,2.047-3.336,3.492
	c-10.251,18.971-20.47,37.958-30.726,56.926c-0.87,1.609-1.692,3.104-1.747,5.069c-0.346,12.348,0.892,24.575,2.609,36.766
	c2.672,18.962,4.452,37.917,2.871,57.14c-1.729,21.045,2.861,40.126,19.255,55.034c9.188,8.356,19.732,14.517,30.924,19.592
	c35.959,16.313,74.43,19.94,113.178,22.022c4.145,0.222,8.332,0.061,12.143,2.129c-2.523,4.313-7.033,5.585-11.313,6.347
	c-4.922,0.877-5.986,3.433-5.15,7.659c0.914,4.615-0.785,5.606-5.135,4.352c-6.398-1.846-10.648,0.241-13.135,6.378
	c-2.945,7.266-4.08,14.931-4.422,22.754c-0.127,2.917,0.986,3.703,3.719,3.68C667.014,562.217,678.5,562.273,689.981,562.273z
	 M56.11,825.591c0,33.159,0,66.318,0,99.479c0,16.33,0.057,32.66-0.057,48.989c-0.019,2.688,0.28,3.597,3.403,3.204
	c6.096-0.768,12.271-1.001,18.422-1.208c41.44-1.397,82.881-2.785,124.326-3.983c3.613-0.104,4.653-0.727,4.651-4.607
	c-0.057-96.313,0.029-192.622,0.226-288.934c0.007-3.719-0.833-4.623-4.579-4.61c-47.323,0.145-94.646,0.152-141.969-0.011
	c-3.927-0.014-4.503,1.172-4.495,4.713C56.159,727.611,56.12,776.6,56.11,825.591z M380.074,842.635c0.048,0,0.097,0,0.146,0
	c0,39.325-0.013,78.649,0.007,117.976c0.008,13.443,0.37,13.801,13.606,13.48c28.133-0.683,56.265-1.47,84.397-2.077
	c11.599-0.25,13.386-1.911,13.385-13.754c-0.002-49.655,0.021-99.313-0.029-148.969c-0.03-29.655-0.061-59.313-0.362-88.968
	c-0.079-7.822-2.902-10.077-10.817-10.023c-30.489,0.203-60.979,0.453-91.467,0.721c-6.183,0.054-8.864,2.883-8.864,9.138
	C380.072,760.982,380.074,801.81,380.074,842.635z M55.117,411.585c-0.334,0-0.669,0-1.004,0c0,38.312,0.002,76.624-0.002,114.936
	c-0.001,9.373,0.018,9.676,9.691,9.988c49.077,1.588,98.158,3.062,147.24,4.505c26.793,0.788,53.592,1.366,80.385,2.161
	c29.611,0.881,59.22,1.888,88.827,2.877c4.783,0.16,6.607-2.414,6.549-6.771c-0.389-29.136-0.878-58.27-1.199-87.407
	c-0.422-38.305-0.68-76.61-1.095-114.916c-0.131-12.25,2.292-12.428-12.783-14.096c-32.628-3.611-65.183-7.871-97.787-11.709
	c-34.739-4.09-69.498-8.018-104.251-11.985c-35.753-4.082-71.538-7.921-107.245-12.371c-6.559-0.817-7.369,1.671-7.36,6.855
	C55.147,332.961,55.117,372.273,55.117,411.585z M516.048,822.006c0-47.969-0.004-95.936,0.01-143.902
	c0.001-2.482,0.609-4.682-3.523-4.651c-42.299,0.316-84.601,0.433-126.9,0.519c-2.55,0.005-3.45,0.582-3.323,3.306
	c0.241,5.151,0.307,10.34-0.045,15.479c-0.249,3.655,1.079,4.341,4.453,4.322c32.311-0.17,64.62-0.134,96.93-0.236
	c13.229-0.042,19.174,5.961,19.132,19.396c-0.26,81.608-0.486,163.216-0.717,244.825c-0.025,8.933,0.008,8.664,9.041,9.03
	c4.287,0.174,5.061-1.143,5.048-5.186C516,917.273,516.054,869.64,516.048,822.006z M831.875,657.008
	c0-1.996,0.26-4.032-0.039-5.982c-4.1-26.788-11.5-52.662-21.912-77.665c-4.145-9.95-8.973-19.537-17.627-26.519
	c-8.074-6.515-15.531-5.028-19.514,4.428c-6.504,15.436-5.947,31.558-4.412,47.902c2.215,23.578,18.07,43.551,17.4,67.79
	c6.428,13.854,12.859,27.706,19.268,41.568c0.934,2.019,1.859,2.256,3.473,0.534C822.268,694.375,831.215,677.536,831.875,657.008z
	 M400.519,632.804c-11.986,0-23.979,0.223-35.96-0.041c-41.604-0.913-83.211-0.703-124.818-0.769
	c-2.163-0.004-4.561-0.349-5.917,1.752c-3.355,5.196-2.08,11.157-1.086,16.428c0.68,3.604,5.68,2.848,9.069,2.825
	c37.625-0.247,75.251-0.629,112.875-0.758c66.615-0.229,133.229-0.291,199.846-0.461c12.525-0.031,12.416-0.112,12.146-12.829
	c-0.08-3.865-1.395-4.981-5.313-5.047C507.751,633.016,454.136,632.837,400.519,632.804z M246.744,821.981c-0.144,0-0.289,0-0.433,0
	c0,47.656,0.101,95.313-0.148,142.967c-0.026,5.04,1.077,5.986,6.024,6.275c6.722,0.392,8.199-0.931,8.158-8.152
	c-0.419-73.648-0.257-147.304-0.258-220.955c0-10.165-0.083-20.329,0.021-30.493c0.1-9.736,5.147-14.637,14.79-14.634
	c21.829,0.006,43.658-0.039,65.487,0.076c2.848,0.015,4.146-0.326,3.933-3.682c-0.341-5.311-0.196-10.663-0.001-15.989
	c0.093-2.523-0.493-3.439-3.229-3.431c-30.494,0.095-60.988,0.088-91.481,0.011c-2.421-0.006-2.942,0.592-2.937,3.056
	C246.77,725.347,246.744,773.664,246.744,821.981z M686.928,921.08c0-16.726-0.139-28.547,0.092-40.36
	c0.063-3.159-0.752-3.824-3.809-3.789c-17.473,0.201-34.953,0.384-52.359-1.646c-0.986-0.113-3.328-1.092-2.361,1.481
	c1.295,3.445,0.359,6.939,0.867,10.378c4.238,28.75,9.295,56.183,18.594,83.828c1.74,0.682,38.252,1.376,40.15,1.041
	C687.643,953.402,686.354,934.805,686.928,921.08z M771.952,972.596c8.086-29.462,9.275-61.204,11.045-91.399
	c0.141-2.404-1.637-6.72-3.211-6.6c-16.768,1.283-33.561,1.883-50.373,1.843c-2.143-0.005-2.711,0.446-2.496,2.773
	c2.246,24.388,2.283,68.064,3.078,92.508C730.036,973.013,771.668,973.032,771.952,972.596z M694.821,923.425
	c0.295,0,0.949,29.26,0.822,43.888c-0.023,3.034,0.496,4.491,4.018,4.396c6.811-0.186,13.639,0.016,20.451,0.277
	c2.463,0.096,2.99-0.684,2.99-3.05c0.014-29.276-2.316-58.433-4.297-87.609c-0.264-3.899-1.736-5.134-5.738-4.765
	c-5.111,0.472-10.311,0.268-15.453-0.007c-2.553-0.136-2.895,0.56-2.869,2.97C694.897,894.156,694.821,908.791,694.821,923.425z
	 M942.278,374.624c0.088-4.823-0.064-9.643-1.344-14.313c-3.438-12.56-9.162-23.325-22.252-28.396c-2.389-0.926-3.402-1.325-3.469,2
	c-0.131,6.634-0.725,13.263-1.197,19.888c-1.842,25.757-5.768,51.159-12.838,76.042c-0.26,0.912-1.609,2.108-0.367,2.968
	c0.486,0.337,1.787-0.414,2.68-0.767C927.596,422.503,942.036,401.13,942.278,374.624z M323.668,621.013
	c37.995,1.377,71.623,0.536,105.242,0.965c1.256,0.017,2.514-0.23,3.771-0.354c-0.294-1.676-1.788-2.154-2.976-2.864
	c-6.105-3.648-12.057-4.563-19.628-3.436c-10.703,1.597-21.889-0.188-32.871-0.302c-41.44-0.424-82.881-0.678-124.32-1.186
	c-8.796-0.107-17.583-0.997-26.372-1.566c-1.334-0.087-2.951-0.343-3.352-1.716c-0.458-1.565,1.014-2.136,2.264-2.718
	c0.983-0.456,2.592-0.783,2.253-2.155c-0.134-0.543-1.892-0.849-2.944-0.974c-5.425-0.644-10.875-1.097-16.283-1.847
	c-1.323-0.184-3.161-0.354-3.622-2.088c-0.285-1.072,0.7-1.66,1.574-2.229c0.912-0.596,3.237-0.051,2.347-2.216
	c-0.553-1.346-2.158-1.297-3.512-1.296c-7.159,0.005-14.318-0.013-21.478-0.007c-1.625,0.001-3.797-0.497-4.411,1.358
	c-0.825,2.492,1.906,2.817,3.302,3.521c10.393,5.236,21.522,9.33,31.111,15.74c6.974,4.661,13.793,5.385,21.384,5.378
	C266.115,620.994,297.083,621.013,323.668,621.013z M978.252,214.098c-0.523-3.467-0.85-6.774-1.541-10.004
	c-7.754-36.185-23.125-68.691-47.396-96.745c-15.209-17.578-32.637-32.546-53.381-43.385c-1.197-0.625-2.273-1.292-3.631-0.561
	c0.805,0.794,1.563,1.648,2.42,2.376c47.445,40.186,82.332,88.997,101.922,148.323c0.283,0.859,0.68,1.683,1.021,2.522
	C977.874,215.738,978.079,214.851,978.252,214.098z M511.543,622.135c3.139,0,4.833-0.194,6.464,0.037
	c4.731,0.67,5.438-1.058,3.987-5.334c-7.289-21.509-33.43-34.605-56.795-28.331c-9.884,2.652-18.914,6.746-25.81,14.63
	c-0.373,0.427-0.597,0.982-0.89,1.479c0.439-0.061,1.004,0.035,1.297-0.204c9.167-7.458,20.065-8.084,31.039-7.292
	c12.88,0.929,24.957,4.814,30.53,17.624C504.018,620.844,506.519,623.715,511.543,622.135z M749.543,235.872
	c4.996,0.831,10.531,1.751,16.068,2.673c0.615,0.104,1.232,0.208,1.852,0.313c-0.104-0.546-0.082-1.155-0.328-1.628
	c-9.09-17.509-17.092-35.474-22.896-54.366c-0.166-0.542-0.656-0.984-0.996-1.474c-0.07,0.49-0.146,0.981-0.209,1.475
	c-2.287,17.725-6.994,34.897-12.186,51.931c-1.078,3.542,0.023,3.498,2.771,3.09C738.704,237.128,743.819,236.583,749.543,235.872z
	 M602.045,632.897c0.719,11.429,1.693,21.155,4.049,30.691c0.223,0.896,0.107,2.152,1.465,2.168
	c0.156,0.002,0.381-1.411,0.486-2.181c2.34-17.048,4.34-34.15,7.088-51.132c3.232-19.99,7.26-39.833,14.805-58.771
	c0.41-1.03,1.99-2.021,0.766-3.479c-0.904,0.941-1.928,1.796-2.695,2.838C610.145,577.27,605.002,605.552,602.045,632.897z
	 M574.295,194.438c0-3.824,0.01-7.646-0.012-11.469c-0.004-0.563,0.361-1.443-0.584-1.485c-0.271-0.012-0.684,0.871-0.859,1.4
	c-6.563,19.628-14.82,38.577-23,57.56c-0.303,0.701-0.861,1.8-0.586,2.147c0.83,1.053,1.711-0.077,2.604-0.324
	c8.279-2.297,16.574-4.688,25.307-3.157c3.332,0.584,2.311-1.119,1.914-2.895C576.012,222.46,573.692,208.607,574.295,194.438z
	 M230.14,595.023c-0.003-0.059-0.006-0.116-0.009-0.174c-3.284,0.185-6.579,0.273-9.846,0.619c-0.808,0.086-2.091,0.919-2.179,1.545
	c-0.214,1.527,1.334,0.927,2.127,1.114c6.231,1.479,12.465-0.196,18.703-0.077c0.93,0.018,2.233-0.081,1.902-1.498
	c-0.221-0.944-1.12-1.553-2.274-1.539C235.755,595.045,232.947,595.023,230.14,595.023z M377.693,609.554
	c0.497,0,0.993-0.017,1.49,0.003c1.773,0.063,4.421,0.702,4.678-1.385c0.262-2.141-2.534-1.947-4.196-2.42
	c-0.469-0.134-0.903-0.544-1.356-0.549c-3.294-0.035-6.67-0.702-9.748,1.071c-0.12,0.07-0.017,0.955,0.234,1.175
	C371.373,609.714,374.537,609.653,377.693,609.554z M311.318,604.914c-2.354,0.68-6.771-1.231-6.844,1.475
	c-0.077,2.873,4.365,2.868,7.1,2.544c2.746-0.325,7.803,1.52,7.763-1.541C319.285,603.527,314.28,605.468,311.318,604.914z
	 M335.511,609.105c2.093-0.597,6.038,0.965,6.093-0.99c0.08-2.809-3.628-3.389-6.229-3.006c-2.797,0.412-7.848-2.017-7.92,1.605
	C327.383,610.343,332.571,608.496,335.511,609.105z M244.743,603.942c-2.57,0.548-7.288-0.888-7.264,1.77
	c0.025,2.913,4.653,2.189,7.465,2.295c2.548,0.095,6.976,0.164,6.812-1.729C251.464,602.912,247.353,604.364,244.743,603.942z
	 M353.193,605.005c-1.437,1.053-5.475-1.694-5.574,1.753c-0.081,2.759,3.802,2.212,6.23,2.248c0.166,0.002,0.34,0.033,0.498-0.002
	c2.6-0.599,7.533,1.228,7.41-1.122C361.589,604.648,356.918,605.05,353.193,605.005z M255.469,595.022
	c-1.321,0-2.642-0.011-3.963,0.003c-1.374,0.016-3.035,0.436-3.197,1.688c-0.216,1.673,1.952,1.771,2.943,1.984
	c2.214,0.479,4.582,0.36,6.881,0.29c1.647-0.051,4.389,0.823,4.429-1.521c0.035-2.048-2.475-2.722-4.62-2.594
	C257.119,594.925,256.294,594.964,255.469,595.022z M277.194,599.028c0.494,0,0.998,0.062,1.481-0.011
	c1.83-0.271,5.042,0.943,5.096-1.354c0.061-2.62-3.072-2.773-5.451-2.646c-0.493,0.026-0.992-0.034-1.482,0.01
	c-2.547,0.229-7.243-0.661-7.087,1.354C270.014,599.799,274.319,598.913,277.194,599.028z M341.425,600
	c2.693-0.114,6.297,0.115,6.279-2.046c-0.021-2.473-3.529-2.041-5.791-2.081c-0.166-0.003-0.332-0.014-0.498-0.021
	c-2.499-0.102-6.765-1.771-6.858,1.163C334.454,600.281,339.152,599.377,341.425,600z M398.435,609.563
	c1.81-1.024,5.799,1.124,6.22-1.805c0.263-1.827-3.909-2.646-6.566-2.706c-2.76-0.064-7.673,0.977-7.518,1.584
	C391.518,610.325,395.276,608.766,398.435,609.563z M361.441,600.044c0.529,0,1.186,0.01,1.841-0.003
	c1.626-0.029,4.168,0.288,4.348-1.278c0.229-1.994-2.543-1.902-4.037-2.668c-0.398-0.205-0.971-0.124-1.459-0.099
	c-2.893,0.158-7.528-1.474-7.927,1.932C353.901,600.552,358.783,599.318,361.441,600.044z M300.299,599.242
	c1.737-0.722,5.158,1.008,5.402-1.23c0.256-2.352-2.943-3.243-5.337-2.924c-2.748,0.365-7.571-1.688-7.743,1.652
	C292.452,600.01,297.406,598.562,300.299,599.242z M269.465,608.248c1.768-1.391,5.99,1.564,6.126-1.596
	c0.104-2.396-4.235-2.501-6.991-2.14c-2.824,0.37-8.308-0.205-7.99,1.18C261.538,609.729,266.071,607.386,269.465,608.248z
	 M382.327,600.405c1.55-1.103,4.967,0.839,5.273-1.473c0.221-1.656-3.236-3.049-5.457-2.811c-2.669,0.287-7.402-1.852-7.574,1.563
	C374.4,601.033,379.341,599.497,382.327,600.405z M320.807,599.334c0.343,0,1.059,0.17,1.647-0.032
	c1.469-0.504,4.092,0.651,4.284-1.207c0.214-2.089-2.411-2.09-4.079-2.526c-0.478-0.125-0.975-0.295-1.452-0.268
	c-2.599,0.148-6.967-1.181-7.211,1.509C313.715,599.885,318.081,598.754,320.807,599.334z M290.594,608.23
	c2.13-0.644,6.14,0.926,6.061-1.107c-0.131-3.359-3.933-2.233-6.434-2.161c-2.396,0.067-6.618-2.176-6.668,1.083
	C283.5,609.577,288.168,607.294,290.594,608.23z"/>
<path fill="#666667" d="M728.03,0.096c-1.332,1.671-2.666,1.4-3.998,0C725.364,0.096,726.698,0.096,728.03,0.096z"/>
<path fill="#E8E8E8" d="M377.693,609.554c-3.156,0.1-6.32,0.159-8.897-2.104c-0.25-0.22-0.354-1.104-0.234-1.175
	c3.078-1.773,6.453-1.106,9.748-1.071c0.453,0.006,0.889,0.415,1.356,0.549c1.662,0.473,4.458,0.279,4.196,2.42
	c-0.257,2.087-2.904,1.447-4.678,1.385C378.687,609.538,378.19,609.554,377.693,609.554z"/>
<path fill="#F9F9FA" d="M335.511,609.105c-2.939-0.609-8.128,1.236-8.056-2.391c0.072-3.622,5.123-1.193,7.92-1.605
	c2.601-0.383,6.309,0.197,6.229,3.006C341.548,610.07,337.604,608.51,335.511,609.105z"/>
<path fill="#F5F5F5" d="M244.743,603.942c2.61,0.422,6.721-1.03,7.013,2.334c0.164,1.895-4.264,1.824-6.812,1.729
	c-2.813-0.104-7.44,0.619-7.465-2.295C237.455,603.055,242.173,604.49,244.743,603.942z"/>
<path fill="#FBFBFB" d="M353.193,605.005c3.725,0.045,8.396-0.355,8.564,2.877c0.123,2.35-4.812,0.523-7.41,1.122
	c-0.157,0.035-0.332,0.004-0.498,0.002c-2.429-0.036-6.313,0.511-6.23-2.248C347.719,603.31,351.757,606.057,353.193,605.005z"/>
<path fill="#FAFAFA" d="M255.47,595.015c0.825-0.052,1.649-0.091,2.473-0.141c2.145-0.129,4.655,0.545,4.62,2.593
	c-0.04,2.345-2.782,1.471-4.429,1.521c-2.3,0.07-4.667,0.188-6.881-0.29c-0.991-0.215-3.159-0.313-2.943-1.984
	c0.162-1.252,1.823-1.672,3.197-1.688C252.827,595.012,254.148,595.022,255.47,595.015z"/>
<path fill="#FAFAFA" d="M277.192,599.03c-2.874-0.117-7.178,0.769-7.442-2.648c-0.156-2.016,4.541-1.124,7.087-1.354
	c0.49-0.044,0.989,0.018,1.482-0.01c2.378-0.127,5.512,0.026,5.451,2.646c-0.054,2.297-3.266,1.082-5.096,1.354
	C278.191,599.09,277.688,599.028,277.192,599.03z"/>
<path fill="#EFF0F0" d="M341.425,600c-2.272-0.623-6.971,0.281-6.867-2.983c0.094-2.933,4.359-1.265,6.858-1.163
	c0.166,0.007,0.332,0.018,0.498,0.021c2.262,0.039,5.771-0.393,5.791,2.08C347.722,600.115,344.118,599.885,341.425,600z"/>
<path fill="#F2F2F1" d="M361.441,600.044c-2.658-0.726-7.54,0.509-7.233-2.116c0.398-3.404,5.034-1.772,7.927-1.932
	c0.488-0.025,1.061-0.106,1.459,0.099c1.493,0.766,4.266,0.674,4.037,2.668c-0.18,1.566-2.722,1.249-4.348,1.278
	C362.626,600.053,361.971,600.044,361.441,600.044z"/>
<path fill="#FBFBFB" d="M300.299,599.242c-2.893-0.681-7.847,0.768-7.679-2.502c0.172-3.34,4.996-1.287,7.743-1.652
	c2.394-0.319,5.594,0.572,5.337,2.924C305.458,600.25,302.036,598.521,300.299,599.242z"/>
<path fill="#F9F8F9" d="M269.465,608.248c-3.395-0.861-7.928,1.48-8.855-2.556c-0.318-1.385,5.166-0.81,7.99-1.18
	c2.756-0.361,7.095-0.256,6.991,2.14C275.456,609.813,271.233,606.857,269.465,608.248z"/>
<path fill="#F0F0F0" d="M320.807,599.334c-2.726-0.58-7.091,0.552-6.811-2.524c0.244-2.688,4.613-1.359,7.211-1.509
	c0.478-0.027,0.975,0.143,1.452,0.268c1.668,0.438,4.292,0.438,4.079,2.526c-0.191,1.858-2.815,0.703-4.284,1.207
	C321.865,599.504,321.148,599.334,320.807,599.334z"/>
<path d="M712.153,382.209c0.188-28.435,8.426-49.581,27.08-66.167c9.412-8.369,20.797-9.921,32.291-6.76
	c12.713,3.498,24.324,9.743,33.898,19.172c4.699,4.628,5.834,13.497,2.467,18.932c-1.795,2.895-2.588-0.229-3.064-0.832
	c-7.189-9.075-16.498-15.318-26.695-20.428c-0.74-0.371-1.439-0.842-2.209-1.139c-3.076-1.19-6.129-2.555-9.576-1.874
	c1.105,2.746,3.871,3.874,5.779,5.838c9.986,10.288,12.932,23.355,14.066,36.823c1.135,13.465-0.182,26.89-5.352,39.561
	c-5.875,14.396-18.313,22.871-32.582,22.756c-13.059-0.107-25.768-9.709-31.516-23.854
	C713.377,395.965,711.848,387.368,712.153,382.209z"/>
<path d="M543.526,373.025c1.313-15.801,2.416-33.021,13.422-47.544c0.43-0.565,1.688-1.028,0.762-1.876
	c-0.322-0.296-1.607,0.126-2.236,0.547c-6.73,4.509-13.951,8.503-18.779,15.264c-2.238,3.131-3.774,2.3-5.611-0.082
	c-4.559-5.915-4.582-8.863,0.599-14.289c12.468-13.052,27.405-19.59,45.63-15.926c9.873,1.985,16.193,9.165,20.729,17.414
	c12.01,21.84,14.725,45.091,8.537,69.229c-1.65,6.437-4.867,12.356-9.393,17.292c-14.479,15.793-33.902,13.626-45.078-4.896
	C545.84,397.773,544.213,386.22,543.526,373.025z"/>
<path d="M435.933,786.484c11.81,0,23.618-0.003,35.428,0.001c7.265,0.003,8.699,1.438,8.701,8.708
	c0.004,18.137,0.02,36.273-0.009,54.408c-0.011,6.975-2.354,9.337-9.171,9.381c-22.458,0.146-44.917,0.285-67.375,0.41
	c-9.342,0.053-10.583-1.258-10.578-10.551c0.012-17.636-0.029-35.271-0.073-52.908c-0.019-7.164,1.647-8.934,8.637-8.939
	c11.479-0.012,22.96-0.004,34.439-0.004C435.932,786.822,435.933,786.653,435.933,786.484z"/>
<path d="M435.456,725.567c11.488,0,22.977,0.073,34.465-0.024c8.472-0.072,10.15,1.479,10.14,10.041
	c-0.013,9.994-0.015,19.989-0.068,29.985c-0.037,6.539-2.071,9.06-8.443,9.121c-24.149,0.235-48.302,0.267-72.454,0.269
	c-3.874,0-6.215-2.175-6.21-6.209c0.015-12.155-0.021-24.313,0.266-36.466c0.094-3.976,1.846-6.543,6.826-6.394
	c11.817,0.354,23.652,0.114,35.479,0.114C435.455,725.858,435.455,725.714,435.456,725.567z"/>
<path d="M412.105,873.987c4.494,0,8.989,0.066,13.481-0.024c2.562-0.055,3.577,0.999,3.538,3.566
	c-0.102,6.656-0.122,13.316-0.026,19.974c0.051,3.445-2.166,4.272-4.809,4.315c-8.819,0.146-17.641,0.176-26.462,0.131
	c-3.158-0.016-4.833-1.648-4.78-5.013c0.093-5.824,0.036-11.65,0.021-17.479c-0.013-3.734,1.979-5.434,5.556-5.463
	C403.117,873.961,407.611,873.987,412.105,873.987z"/>
<path d="M68.912,418.944c0-30.992,0.056-61.985-0.054-92.979c-0.019-5.304-0.508-10.574,0.111-15.907
	c0.768-6.619,2.437-8.56,9.154-7.938c13.392,1.238,26.755,2.794,40.128,4.24c14.354,1.553,28.707,3.115,43.058,4.701
	c16.815,1.856,33.627,3.749,50.442,5.617c16.166,1.796,32.332,3.584,48.498,5.374c19.123,2.116,38.248,4.208,57.368,6.354
	c16.491,1.851,32.954,3.988,49.473,5.526c5.689,0.528,7.758,2.708,7.728,8.353c-0.335,60.82-0.555,121.64-0.676,182.46
	c-0.011,5.552-2.782,7.413-7.646,7.266c-24.47-0.744-48.94-1.482-73.404-2.367c-21.283-0.77-42.556-1.783-63.837-2.596
	c-35.761-1.365-71.522-2.717-107.288-3.951c-15.147-0.523-30.305-0.841-45.461-1.041c-5.327-0.07-7.474-2.604-7.472-7.638
	c0.016-31.824,0.008-63.648,0.008-95.474C68.998,418.944,68.955,418.944,68.912,418.944z"/>
<line fill="none" stroke="#000000" stroke-width="4" stroke-miterlimit="10" x1="652.264" y1="465.105" x2="663.907" y2="465.105"/>
<g>
	<path d="M93.173-59.534H78.249l14.304,10.944c1.49,1.119,2.238,2.366,2.238,3.855c0,2.488-2.986,7.715-5.723,7.715
		c-0.87,0-1.867-0.496-2.862-1.368L73.392-49.21c-2.986,4.974-14.927,19.028-21.146,19.028c-3.481,0-7.216-3.478-7.216-7.091
		c0-2.238,1.368-3.606,2.366-4.227c7.836-4.482,13.559-10.947,16.791-18.039h-14.93c-3.107,0-4.604-1.368-4.604-5.847
		c0-4.352,1.497-5.848,4.604-5.848h17.91V-82.55h-6.215c-1.743,2.359-4.23,6.714-7.466,6.714c-3.232,0-6.717-3.357-6.717-6.593
		c0-1.368,0.62-2.487,1.243-3.235c3.856-4.227,8.335-10.199,11.446-15.551c0.624-1.119,2.487-2.73,5.1-2.73
		c2.861,0,6.342,1.74,6.342,4.975c0,1.618-1.24,3.357-2.113,4.604h21.271c3.111,0,4.728,1.49,4.728,5.972
		c0,4.477-1.617,5.845-4.728,5.845h-9.953v11.324h13.06c3.107,0,4.725,1.489,4.725,5.844C97.898-60.903,96.28-59.534,93.173-59.534z
		 M98.02-113.895c-1.989,7.468-6.218,9.706-14.304,9.706H59.334c-6.592,0-11.321-3.609-11.321-11.324v-22.514
		c0-3.728,1.743-5.723,7.092-5.723c5.224,0,7.091,1.988,7.091,5.723v4.732l22.019-6.471c0.745-0.249,1.489-0.374,2.113-0.374
		c3.232,0,6.468,4.604,6.468,7.708c0,1.618-0.995,2.491-2.858,2.986l-27.741,7.469v3.232c0,1.993,1.119,3.232,3.11,3.232h17.661
		c4.729,0,2.616-5.595,8.21-5.595c3.36,0,6.97,2.858,6.97,6.343C98.147-114.387,98.147-114.138,98.02-113.895z M158.103-92.621
		l-4.604,9.083c-0.87,1.618-1.992,2.611-3.855,2.611c-2.114,0-6.468-1.118-6.468-3.606c0-0.623,0.122-1.247,0.371-1.868l2.366-5.594
		c0-0.998-0.748-1.618-1.867-1.618h-7.091v19.777h12.437c3.111,0,4.729,1.493,4.729,5.848c0,4.479-1.618,5.848-4.729,5.848h-12.437
		v18.035l16.171-0.375c2.238,0,5.224,1.497,5.224,6.471c0,5.349-1.992,7.091-5.723,7.091h-21.894
		c-7.96,0-15.048-5.723-20.522-12.811c-1.369,3.855-4.355,14.18-9.454,14.18c-3.232,0-6.714-3.111-6.714-6.343
		c0-1.247,0.371-2.241,0.87-2.865c5.723-8.581,9.703-22.141,10.697-41.668c0.125-1.368,1.493-3.98,5.103-3.98
		c2.858,0,5.972,1.739,5.972,4.853c0,7.462-1.496,15.919-3.114,23.256c2.986,4.482,6.72,8.459,10.825,10.576v-47.896h-18.658
		c-3.357,0-4.975-1.493-4.975-6.218c0-4.729,1.618-6.347,4.975-6.347h17.29l-9.578-8.456c-1.119-0.998-1.74-1.989-1.74-2.986
		c0-2.487,4.105-6.472,6.471-6.472c0.991,0,1.989,0.499,2.983,1.372l7.091,6.347l9.333-10.822c0.371-0.496,0.496-0.873,0.496-1.123
		c0-0.621-0.496-0.991-1.494-0.991h-27.987c-2.362,0-4.354-2.366-4.354-5.851c0-3.481,1.992-5.844,4.354-5.844h34.83
		c5.723,0,11.19,3.856,11.19,9.949c0,2.366-0.87,4.482-2.114,5.972l-14.799,16.919l2.238,1.989h8.584
		c5.224,0,10.819,2.615,10.819,8.456C159.343-95.978,158.848-94.239,158.103-92.621z"/>
	<path d="M199.912-136.281c-2.488,11.196-6.219,23.013-10.822,33.831c3.236,0.499,4.354,2.366,4.354,5.352v62.19
		c0,3.734-1.743,5.474-6.839,5.474c-5.224,0-6.841-1.739-6.841-5.474v-48.759c-1.618,2.861-3.734,7.836-7.59,7.836
		c-4.726,0-6.216-6.093-6.216-9.822c0-2.241,0.745-4.354,1.867-5.972c7.708-10.947,14.924-30.475,18.032-46.771
		c0.374-1.741,2.366-4.722,6.596-4.722c3.609,0,7.586,1.989,7.586,5.969C200.039-136.78,200.039-136.531,199.912-136.281z
		 M240.834-65.503c-5.224,5.224-29.478,27.118-35.073,27.118c-3.858,0-7.218-4.354-7.218-7.96c0-4.604,5.595-6.72,8.83-8.958
		v-80.478c0-3.734,1.742-5.723,7.091-5.723c5.352,0,7.216,1.989,7.216,5.723v69.533c2.612-2.241,12.686-12.686,15.547-12.686
		c1.368,0,2.986,0.745,4.355,3.36c0.87,1.739,1.243,3.357,1.243,4.726C242.826-68.362,241.835-66.497,240.834-65.503z
		 M245.563-94.735c-2.241,0-3.609-1.368-4.354-2.736c-1.864-3.859-11.813-21.021-11.813-23.637c0-3.357,4.226-5.722,7.34-5.722
		c2.114,0,3.606,1.122,4.355,2.365c3.357,5.474,8.706,14.432,11.938,20.526c0.249,0.623,0.499,1.368,0.499,2.241
		C253.527-97.967,249.173-94.735,245.563-94.735z M275.043-35.652c-1.119,0-2.238-0.745-3.357-2.113L260.49-52.194
		c-3.107,4.85-14.054,20.151-20.397,20.151c-3.98,0-8.83-3.734-8.83-7.963c0-1.992,0.991-3.482,1.863-4.23
		c19.528-15.8,28.237-35.078,28.237-68.91v-22.514c0-3.855,1.743-5.847,7.216-5.847c5.474,0,7.341,1.992,7.341,5.847v22.514
		c0,17.667-2.737,33.71-8.459,47.644l13.31,16.542c1.123,1.369,1.742,2.73,1.742,4.227C282.509-41.62,278.403-35.652,275.043-35.652
		z"/>
	<path d="M402.064-110.41H297.577c-3.236,0-4.85-1.493-4.85-6.094c0-4.482,1.614-6.093,4.85-6.093h104.487
		c3.236,0,4.978,1.618,4.978,6.093C407.039-111.9,405.297-110.41,402.064-110.41z M385.641-30.175h-71.522
		c-5.224,0-9.329-4.108-9.329-9.333v-17.786c0-5.227,4.105-9.333,9.329-9.333h71.522c5.227,0,9.333,4.105,9.333,9.333v17.786
		C394.974-34.283,390.868-30.175,385.641-30.175z M386.386-130.312h-73.258c-2.737,0-3.983-1.243-3.983-4.977
		c0-3.729,1.247-5.097,3.983-5.097h73.258c2.737,0,4.105,1.368,4.105,5.097C390.491-131.555,389.123-130.312,386.386-130.312z
		 M386.386-92.621h-73.258c-2.737,0-3.983-1.24-3.983-4.975c0-3.734,1.247-5.102,3.983-5.102h73.258
		c2.737,0,4.105,1.368,4.105,5.102C390.491-93.862,389.123-92.621,386.386-92.621z M386.386-74.832h-73.258
		c-2.737,0-3.983-1.248-3.983-4.975c0-3.734,1.247-5.103,3.983-5.103h73.258c2.737,0,4.105,1.368,4.105,5.103
		C390.491-76.08,389.123-74.832,386.386-74.832z M379.797-53.188c0-1.496-1.244-2.737-2.737-2.737h-54.482
		c-1.493,0-2.737,1.241-2.737,2.737v9.7c0,1.49,1.244,2.737,2.737,2.737h54.482c1.493,0,2.737-1.247,2.737-2.737V-53.188z"/>
	<path d="M460.543-110.653h-39.306c-2.986,0-4.354-1.369-4.354-5.477c0-4.105,1.368-5.474,4.354-5.474h39.306
		c2.986,0,4.479,1.368,4.479,5.474C465.022-112.022,463.526-110.653,460.543-110.653z M452.458-31.793h-22.888
		c-5.224,0-9.332-4.105-9.332-9.333v-16.417c0-5.224,4.105-9.329,9.332-9.329h22.888c5.224,0,9.329,4.099,9.329,9.329v16.417
		C461.787-35.899,457.681-31.793,452.458-31.793z M455.319-128.944h-28.735c-2.862,0-4.23-1.244-4.23-5.349
		c0-4.105,1.368-5.47,4.23-5.47h28.735c2.862,0,4.355,1.365,4.355,5.47C459.674-130.187,458.181-128.944,455.319-128.944z
		 M455.319-92.493h-28.735c-2.862,0-4.23-1.247-4.23-5.352c0-4.105,1.368-5.47,4.23-5.47h28.735c2.862,0,4.355,1.365,4.355,5.47
		C459.674-93.74,458.181-92.493,455.319-92.493z M455.319-74.333h-28.735c-2.862,0-4.23-1.248-4.23-5.353
		c0-4.105,1.368-5.474,4.23-5.474h28.735c2.862,0,4.355,1.368,4.355,5.474C459.674-75.581,458.181-74.333,455.319-74.333z
		 M449.97-53.811c0-1.493-1.247-2.737-2.736-2.737h-12.565c-1.49,0-2.737,1.244-2.737,2.737v8.833c0,1.489,1.247,2.73,2.737,2.73
		h12.565c1.489,0,2.736-1.241,2.736-2.73V-53.811z M526.592-79.436h-54.978c-3.234,0-4.725-1.493-4.725-5.973
		c0-4.476,1.491-6.093,4.725-6.093h8.211l2.241-13.684h-4.85c-3.236,0-4.85-1.496-4.85-6.094c0-4.479,1.614-6.097,4.85-6.097h6.72
		l1.739-10.202h-11.318c-3.234,0-4.853-1.49-4.853-6.094c0-4.482,1.618-6.094,4.853-6.094h49.504c3.235,0,4.978,1.618,4.978,6.094
		c0,4.604-1.742,6.094-4.978,6.094H498.24l-1.617,10.202h17.411c5.225,0,9.329,4.104,9.329,9.332v16.542h3.235
		c3.236,0,4.854,1.618,4.854,6.093C531.445-80.929,529.825-79.436,526.592-79.436z M517.762-30.552h-36.824
		c-5.225,0-9.33-4.105-9.33-9.329v-23.013c0-5.224,4.104-9.329,9.33-9.329h36.824c5.224,0,9.329,4.105,9.329,9.329v23.013
		C527.091-34.657,522.986-30.552,517.762-30.552z M513.657-57.293c0-1.496-1.24-2.736-2.736-2.736h-23.135
		c-1.493,0-2.736,1.24-2.736,2.736v11.692c0,1.493,1.243,2.733,2.736,2.733h23.135c1.496,0,2.736-1.244,2.736-2.733V-57.293z
		 M510.792-102.449c0-1.489-1.24-2.736-2.736-2.736H494.75l-2.118,13.684h18.16V-102.449z"/>
	<path d="M574.997-33.909c-9.08,0-23.761-17.29-25.379-45.278c-0.62-10.825-0.121-31.715,1.368-47.516
		c0.25-3.235,3.612-5.601,8.217-5.473c4.847,0.121,7.584,3.232,7.213,6.592c-1.868,18.53-2.238,38.935-1.868,44.529
		c1.12,16.669,6.594,25.999,9.579,25.999c1.739,0,4.976-5.848,11.318-17.166c1.368-2.612,4.974-3.36,8.587-1.119
		c3.607,2.241,4.847,5.474,3.357,7.96C582.958-42.247,577.484-33.909,574.997-33.909z M646.273-61.897
		c-4.726,1.618-8.71-0.87-9.579-4.233c-2.857-10.691-9.578-29.229-14.055-38.433c-1.368-2.986,0-6.717,4.105-8.456
		c4.354-1.868,7.961-0.87,9.457,1.867c5.844,10.947,12.809,28.982,16.414,40.549C653.613-67.12,651.248-63.511,646.273-61.897z"/>
	<path d="M766.944-49.831c-22.265,11.816-39.555,18.038-50.629,18.038c-18.901,0-27.61-9.083-27.61-25.378
		c0-5.474,0.621-62.318,0.25-80.727c-0.129-3.482,2.985-6.468,7.832-6.218c4.854,0.125,7.84,2.986,7.712,6.346
		c-0.87,23.135-0.62,78.61-0.499,80.973c0.25,5.473,3.363,8.955,11.324,8.955c10.57,0,24.132-5.096,44.657-16.167
		c2.73-1.493,6.714,0.124,8.702,4.479C770.679-55.304,769.809-51.321,766.944-49.831z M746.297-107.053
		c-1.988,1.369-3.984,1.369-4.854,0l-7.212-10.444c-0.998-1.369-0.499-3.36,1.489-4.728c1.988-1.369,3.983-1.12,4.976,0.249
		l7.219,10.324C748.785-110.41,748.166-108.421,746.297-107.053z M758.242-114.512c-1.995,1.369-4.104,1.244-4.981-0.124
		l-7.213-10.449c-0.748-1.119-0.248-3.235,1.618-4.604c1.989-1.368,3.978-1.247,4.854,0.122l7.213,10.327
		C760.723-117.872,760.223-115.881,758.242-114.512z"/>
	<path d="M847.569-30.303c-19.655,0-28.236-11.068-28.236-20.646c0-9.828,8.581-17.91,19.405-17.91
		c4.976,0,10.699,3.107,17.163,10.199c1.496,1.739,0.997,4.726-1.617,6.963c-2.609,2.241-5.596,1.992-7.092,0.249
		c-3.357-3.98-6.471-6.094-8.581-6.094c-4.477-0.122-6.842,2.616-6.842,5.973c0,2.986,4.482,7.587,13.186,7.587
		c18.906,0,30.475-11.193,30.475-21.146c0-9.825-9.7-19.653-22.514-19.653c-14.803,0.125-31.716,9.451-42.413,21.146
		c-2.117,2.366-6.351,2.612-9.707-0.87c-3.356-3.36-3.855-7.711-1.369-9.827c2.986-2.737,6.095-5.225,9.208-7.587
		c19.656-18.904,35.699-33.458,43.781-40.427c-5.716,0.377-22.636,3.113-33.952,4.977c-3.357,0.624-6.721-2.362-7.463-7.465
		c-0.62-4.975,2.116-8.709,5.474-8.831c20.774-0.873,39.683-2.736,48.014-4.85c2.986-0.745,7.213-0.249,10.449,3.232
		c3.107,3.363,1.987,7.59-0.621,9.454c-8.089,5.848-20.896,17.913-30.974,28.112c4.227-0.748,8.709-1.244,13.306-1.244
		c20.398,0,35.822,14.304,35.822,32.214C892.47-44.978,870.704-30.303,847.569-30.303z"/>
	<path d="M958.292-50.579c-1.74,2.616-3.357,3.859-4.981,3.859c-0.991,0-1.988-0.495-3.107-1.368l-5.474-4.102
		c-2.608,4.726-12.935,21.271-18.901,21.271c-3.484,0-7.59-3.61-7.59-7.091c0-1.618,0.87-2.986,1.618-3.609
		c5.972-5.474,10.818-11.446,14.675-18.035l-13.684-10.202c-2.609-1.989-4.227-5.224-4.227-8.709c0-1.24,0.121-2.363,0.492-3.606
		c2.243-7.711,4.354-16.542,6.222-25.5h-4.355c-3.355,0-5.102-1.618-5.102-6.471c0-4.85,1.746-6.592,5.102-6.592h6.965
		c0.996-5.595,1.866-10.947,2.614-15.922c0.249-1.739,1.861-4.476,5.844-4.476c3.108,0,6.472,1.867,6.472,5.349l-2.615,15.049h8.089
		c8.082,0,12.065,5.352,12.065,12.936c0,13.933-3.229,30.603-8.21,43.538l7.463,4.847c1.616,1.12,2.614,2.366,2.614,3.98
		C960.28-54.061,959.659-52.568,958.292-50.579z M946.104-105.186c0-1.369-1.246-2.487-2.494-2.487h-7.839
		c-0.742,3.734-6.465,26.248-6.465,27.738c0,1.247,0.62,2.616,1.618,3.236l8.83,5.601c3.479-9.582,6.343-20.65,6.343-33.835v-0.252
		H946.104z M1026.958-34.779c-2.116,2.609-4.481,3.481-6.477,3.481c-1.248,0-2.238-0.374-2.852-0.745
		c-14.183-9.578-26.127-26.37-31.102-45.155h-6.721v28.115l12.065-3.111c2.737,0,3.984,2.363,3.984,4.979
		c0,3.357-1.868,7.212-4.854,8.082c-4.476,1.369-25.743,7.219-28.607,7.219c-3.984,0-5.967-3.984-5.967-7.59
		c0-6.593,5.474-5.972,9.95-6.963v-76.629c0-5.224,4.104-9.329,9.329-9.329h11.567v-5.848c0-3.61,1.618-5.471,6.842-5.471
		c5.096,0,6.841,1.868,6.841,5.471v5.848h11.688c5.226,0,9.329,4.105,9.329,9.329v36.569c0,5.224-4.104,9.329-9.329,9.329h-14.054
		c1.496,4.728,3.485,9.083,5.973,13.063l11.932-10.822c1.132-0.995,2.116-1.493,3.235-1.493c2.365,0,6.72,3.485,6.72,5.972
		c0,0.995-0.62,1.866-1.617,2.736l-13.934,12.312c4.476,5.1,9.699,9.205,15.302,12.44c1.125,0.499,2.493,1.992,2.493,3.983
		C1028.698-37.765,1028.194-36.397,1026.958-34.779z M1008.543-118.741c0-1.493-1.24-2.737-2.729-2.737h-23.27
		c-1.489,0-2.736,1.244-2.736,2.737v8.332h28.735V-118.741z M1008.543-99.335h-28.735v11.068h26.006
		c1.489,0,2.729-1.246,2.729-2.736V-99.335z"/>
</g>
<g>
	<path d="M93.317-154.773H77.229c-3.574,0-6.384-2.808-6.384-6.385v-54.14c0-3.575,2.81-6.385,6.384-6.385h16.088
		c21.366,0,31.155,11.407,31.155,29.88v5.614C124.472-167.632,116.045-154.773,93.317-154.773z M112.554-191.294
		c0-13.958-6.215-20.343-19.067-20.343h-9.448c-1.026,0-1.87,0.851-1.87,1.874v42.729c0,1.02,0.851,1.871,1.87,1.871h9.448
		c13.028,0,19.067-6.977,19.067-21.191V-191.294z"/>
	<path d="M244.565-153.839c-4.939,0-6.302-0.678-8.002-3.488l-29.369-48.945c-0.256-0.428-0.428-0.598-0.595-0.598
		c-0.173,0-0.342,0.255-0.342,0.851l0.681,47.921c0,2.302-2.212,4.259-5.617,4.259c-3.405,0-5.617-1.874-5.617-4.173v-59.584
		c0-4.169,2.807-5.193,6.979-5.193c4.85,0,6.64,0.595,8.51,3.748l28.349,47.755c0.255,0.425,0.425,0.595,0.595,0.595
		c0.172,0,0.342-0.252,0.342-0.851l-0.681-46.905c0-2.299,2.295-4.169,5.618-4.169c3.405,0,5.704,1.957,5.704,4.252v59.674
		C251.123-154.69,248.482-153.839,244.565-153.839z"/>
	<path d="M353.337-153.328h-3.149c-18.639,0-27.661-14.553-27.661-33.026v-5.109c0-17.623,10.128-31.581,27.661-31.581h3.149
		c17.197,0,25.536,11.746,26.987,22.898v0.428c0,2.213-2.385,3.997-5.793,3.997c-3.657,0-5.87-2.04-6.298-4.424
		c-1.02-6.468-5.275-12.77-14.726-12.77h-3.232c-10.64,0-16.258,8.089-16.258,21.453v5.109c0,13.364,4.764,22.898,16.258,22.898
		h3.232c8.684,0,13.537-5.873,14.643-13.364c0.339-2.385,2.724-4.431,6.381-4.431c3.408,0,5.877,1.873,5.877,4.085v0.342
		C379.045-165.752,371.385-153.328,353.337-153.328z"/>
	<path d="M498.033-154.773h-40.261c-3.575,0-6.385-2.808-6.385-6.385v-57.206c0-2.295,2.299-4.252,5.704-4.252s5.7,1.957,5.7,4.252
		v51.33c0,1.02,0.854,1.871,1.874,1.871h33.369c2.042,0,3.83,2.046,3.83,5.191C501.863-156.82,500.075-154.773,498.033-154.773z"/>
</g>
<g>
	<path d="M993.638-155.112c-10.128,0.934-18.895,1.445-27.149,1.445c-21.964,0-32.859-6.042-32.949-15.916
		c0-3.321,2.558-8.344,5.281-14.048c0.85-1.704,3.146-2.295,5.704-1.189c2.551,1.106,3.402,3.402,2.468,4.937
		c-2.468,4.169-3.408,6.554-3.408,8.341c0,3.744,5.877,7.404,22.47,7.404c8.172,0,20.429-1.276,26.728-2.125
		c2.302-0.342,4.598,1.703,4.687,5.108C997.642-157.669,995.941-155.285,993.638-155.112z M989.13-204.06
		c-5.704,1.701-17.194,2.89-43.845,1.275c-2.123-0.168-3.83-2.468-3.83-5.617c0-3.319,2.046-5.365,4.176-5.192
		c20.679,1.874,34.043,0.934,40.686-0.594c2.13-0.512,5.025,0.677,5.448,3.83C992.194-207.125,991.253-204.657,989.13-204.06z"/>
</g>
</svg>
