<?xml version="1.0" encoding="utf-8"?>
<!-- Generator: Adobe Illustrator 16.0.3, SVG Export Plug-In . SVG Version: 6.00 Build 0)  -->
<!DOCTYPE svg PUBLIC "-//W3C//DTD SVG 1.1//EN" "http://www.w3.org/Graphics/SVG/1.1/DTD/svg11.dtd">
<svg version="1.1" id="レイヤー_1" xmlns="http://www.w3.org/2000/svg" xmlns:xlink="http://www.w3.org/1999/xlink" x="0px"
	 y="0px" width="437.231px" height="893.885px" viewBox="0 0 437.231 893.885" enable-background="new 0 0 437.231 893.885"
	 xml:space="preserve">
<path fill-rule="evenodd" clip-rule="evenodd" d="M331.78,699.617c3.262,7.915,6.694,15.45,9.49,23.215
	c4.181,11.605,3.656,13.328-6.374,20.406c-5.971,4.215-12.346,7.876-18.667,11.566c-3.488,2.036-7.091,3.007-11.358,1.341
	c-3.934-1.535-12.554,3.648-13.383,8.063c-1.992,10.606-4.878,21.308-4.878,31.97c0,20.716-2.662,40.5-12.709,58.891
	c-0.788,1.443-1.254,3.062-2.176,5.359c3.402,0.366,6.464,0.609,9.5,1.035c15.973,2.24,31.968,4.35,47.887,6.923
	c3.838,0.62,7.604,2.488,11.067,4.394c3.835,2.108,3.869,5.21,0.013,7.161c-3.813,1.931-7.977,3.704-12.161,4.277
	c-18.792,2.575-37.602,5.203-56.488,6.875c-35.897,3.178-71.883,3.744-107.854,1.177c-25.241-1.801-50.596-2.867-75.312-9.04
	c-3.196-0.798-6.404-1.958-9.271-3.553c-3.481-1.937-3.571-5.146-0.023-6.904c4.279-2.12,8.896-3.791,13.548-4.883
	c26.417-6.198,53.445-7.087,80.365-8.86c1.633-0.107,3.264-0.238,5.61-0.411c-1.171-3.031-1.969-5.676-3.173-8.121
	c-6.616-13.434-8.593-27.779-9.63-42.561c-0.938-13.39-3.363-26.68-5.32-39.985c-0.211-1.429-1.371-3.242-2.611-3.904
	c-5.641-3.011-10.635-8.604-18.239-4.854c-1.165,0.574-3.393-0.143-4.734-0.932c-8.298-4.885-16.58-9.813-24.669-15.032
	c-4.31-2.781-5.346-6.823-3.254-11.76c5.39-12.721,10.596-25.521,15.889-38.283c0.604-1.455,1.294-2.874,2.37-5.251
	c-2.376,1.21-3.742,2.038-5.205,2.625c-3.95,1.587-7.857,1.449-10.117-2.498c-1.688-2.948-3.524-2.391-6.156-2.188
	c-5.274,0.404-10.644,0.529-15.893-0.015c-4.395-0.456-8.561-2.395-9.776-7.315c-1.218-4.932,0.96-8.894,4.807-11.777
	c6.528-4.893,13.013-9.905,19.932-14.197c6.825-4.233,12.358-9.275,16.26-16.421c3.019-5.529,6.639-10.839,10.661-15.691
	c10.836-13.072,18.808-27.803,26.343-42.89c4.436-8.882,9.675-17.36,14.654-26.199c-11.663,0-23.802,0-36.396,0
	c1.29,1.369,2.63,2.792,4.384,4.655c-13.842,3.348-26.485,0.776-38.902-4.236c-0.215,0.39-0.429,0.78-0.644,1.171
	c3.076,2.407,6.151,4.815,10.204,7.988c-22.431,2.925-39.664-5.587-55.369-19.036c2.573,8.353,9.059,13.051,15.967,17.373
	c-0.179,0.42-0.358,0.84-0.537,1.261c-3.257-0.928-6.654-1.525-9.751-2.834c-22.892-9.669-35.252-27.68-39.619-51.493
	c-2.038-11.117-3.939-22.405-4.241-33.661c-0.521-19.42-6.186-37.665-10.442-56.311c-7.708-33.765-7.92-67.402,4.361-100.392
	c10.54-28.31,27.848-51.691,51.037-70.972c21.684-18.03,46.529-29.148,73.491-36.924c23.31-6.722,46.599-10.067,70.528-6.045
	c46.783,7.863,83.539,32.601,113.002,68.91c14.997,18.482,25.993,39.098,30.328,62.784c1.046,5.717,1.681,11.555,1.905,17.359
	c0.18,4.646,1.929,8.152,4.884,11.605c6.921,8.087,14.039,16.089,20.119,24.794c10.134,14.511,15.776,30.432,11.718,48.536
	c-2.068,9.223-6.862,16.503-12.938,19.513c3.057-11.877,3.033-16.495-0.668-22.904c-1.978,18.795-6.011,35.89-22.665,48.425
	c0.457-5.86,0.806-10.333,1.154-14.805c-0.447-0.204-0.896-0.408-1.344-0.612c-5.695,16.864-14.426,31.071-32.409,38.23
	c1.497-5.93,2.841-11.248,4.185-16.567c-0.383-0.324-0.765-0.648-1.147-0.973c-6.732,9.16-14.471,16.816-26.493,19.272
	c0.289-3.164,0.521-5.697,0.752-8.23c-8.637,10.547-18.96,17.315-32.896,19.093c0.064-0.94,0.061-1.498,0.15-2.039
	c0.103-0.623,0.288-1.233,0.495-2.089c-0.71,0-1.224-0.137-1.618,0.023c-2.004,0.809-3.959,1.736-5.964,2.543
	c-5.389,2.17-6.77,6.773-2.549,10.95c2.735,2.706,6.4,5.072,10.069,6.132c19.069,5.509,29.253,18.831,35.096,37.016
	c7.176,22.331,15.033,44.448,22.946,66.531c1.771,4.942,4.729,9.537,7.606,13.99c7.047,10.904,14.485,21.555,21.497,32.48
	c1.942,3.027,3.377,6.547,4.281,10.039c1.729,6.682-1.87,10.926-8.686,10.271C341.082,701.755,336.614,700.545,331.78,699.617z
	 M124.431,459.791l-0.09-0.126c8.726,17.808,23.624,27.661,43.604,32.419c-8.565,5.84-17.05,4.458-26.278,4.201
	c2.033,2.599,3.208,4.389,4.662,5.913c12.12,12.695,27.622,18.538,44.529,18.167c27.067-0.595,53.146-6.974,77.379-19.37
	c18.454-9.439,34.679-21.844,46.381-39.338c7.459-11.15,8.034-22.824,1-34.341c-5.96-9.756-8.291-20.228-7.875-31.486
	c0.062-1.669,0.008-3.342,0.008-5.013c-5.883,6.447-10.024-1.941-14.953-0.763c1.25,3.354,2.616,6.551,3.64,9.854
	c2.95,9.517,3.354,19.092-0.836,28.326c-5.771,12.722-19.931,15.146-29.399,4.905c-3.448-3.73-6.778-8.086-8.516-12.768
	c-3.103-8.356-4.438-17.363-7.472-25.751c-3.028-8.369-0.11-14.674,5.198-20.458c11.804-12.862,27.356-13.342,40.164-1.43
	c3.831,3.563,7.609,7.186,11.749,11.099c1.826-9.565-0.604-17.523-7.142-21.694c-9.788-6.243-19.09-13.429-27.811-21.107
	c-7.258-6.39-14.21-2.93-21.551-1.571c-6.771,1.254-6.167,6.632-6.933,11.399c-2.258,14.065-7.671,26.5-18.834,35.901
	c-3.873,3.263-8.331,4.798-13.563,5.148c2.265-6.145,4.287-11.633,6.311-17.122c-0.397-0.127-0.794-0.254-1.19-0.381
	c-14.671,23.265-33.491,34.702-49.469,30.102c0.809-6.878,1.62-13.771,2.431-20.663c-0.446-0.073-0.894-0.147-1.341-0.221
	c-4.285,8.974-9.031,17.572-18.169,23.355c-0.656-10.604-1.265-20.434-1.92-31.019c-7.163,3.673-12.005,7.107-13.319,14.848
	c-2.861,16.856-9.029,32.684-17.121,47.756c-0.649,1.208-1.391,2.993-0.96,4.05C119.113,448.419,121.833,454.08,124.431,459.791z
	 M346.912,695.378c0.349-0.48,0.696-0.961,1.045-1.44c-0.928-2.059-1.596-4.29-2.827-6.147c-6.98-10.531-14.106-20.966-21.16-31.448
	c-2.038-3.029-4.488-5.896-5.922-9.198c-8.61-19.835-17.324-39.625-22.686-60.705c-2.168-8.525-5.062-16.895-8.106-25.158
	c-2.379-6.456-6.285-11.991-12.307-15.629c-0.536,0.393-0.853,0.532-1.028,0.773c-0.292,0.4-0.631,0.841-0.713,1.307
	c-1.89,10.723-5.526,20.956-0.281,32.322c4.25,9.21,5.985,19.722,7.893,29.834c1.998,10.591,6.636,19.736,12.469,28.548
	c10.006,15.115,19.815,30.358,29.779,45.5c0.856,1.301,2.068,2.633,3.432,3.285c4.64,2.219,9.396,4.198,14.159,6.146
	C342.679,694.193,344.824,694.717,346.912,695.378z M116.083,684.291c1.851-1.402,3.411-2.118,4.292-3.328
	c5.673-7.794,10.766-16.08,19.399-21.178c0.802-0.474,1.314-1.492,1.871-2.318c5.299-7.872,10.761-15.644,15.771-23.696
	c1.973-3.171,3.936-6.915,4.159-10.507c0.875-14.092,3.788-27.706,8.417-40.955c3.427-9.809,7.354-19.442,11.06-29.153
	c-0.467-0.501-0.934-1.001-1.4-1.502c-1.081,1.82-2.164,3.64-3.245,5.46c-4.58,7.717-9.774,15.143-13.611,23.213
	c-7.753,16.309-16.629,31.815-27.78,46.069c-5.113,6.537-9.268,13.817-14.072,20.608c-1.589,2.246-3.606,4.362-5.847,5.943
	c-8.57,6.046-17.345,11.799-25.961,17.781c-1.892,1.313-3.443,3.115-5.297,4.827c8.55,5.985,20.192,4.592,28.791-3.348
	C113.782,676.242,114.819,679.872,116.083,684.291z M215.843,773.195c-1.336,8.34-2.3,16.098-3.857,23.734
	c-3.691,18.107-2.409,36.074,0.701,54.079c0.858,4.969,2.714,7.765,8.368,6.937c2.913-0.426,6.001-0.063,8.958,0.327
	c4.05,0.535,5.667-0.781,6.498-5.038c5.064-25.938,3.619-51.656-1.953-77.275c-0.24-1.103-2.067-2.57-3.229-2.639
	C226.368,773.026,221.38,773.195,215.843,773.195z M11.22,384.475c3.142-31.402,12.845-60.583,28.153-87.956
	c15.46-27.646,37.35-49.43,62.495-68.273c-29.721,12.518-52.523,33.108-69.737,60.086C13.328,317.801,6.549,349.971,11.22,384.475z
	 M196.817,561.248c15.337,0,29.296,0.139,43.244-0.177c1.716-0.039,4.082-2.154,4.933-3.898c2.841-5.82,5.128-11.91,7.628-17.896
	c0.878-2.103,2.374-4.121-0.532-6.049c-2.681-1.777-4.517-4.338-8.561-1.658c-11.284,7.474-22.897,14.511-37.47,11.946
	c-0.637-0.112-1.434-0.131-1.965,0.158c-0.944,0.514-2.229,1.132-2.52,1.994C199.944,550.495,198.568,555.407,196.817,561.248z
	 M72.62,457.95c-5.683,2.311-9.045,5.959-10.817,11.07c-6.983,20.145,13.05,46.264,35.124,44.97
	C84.974,497.016,77.412,478.391,72.62,457.95z M164.17,536.942c12.031,11.833,23.988,3.642,35.855,0.462
	c4.096-1.098,8.47-2.589,10.677-8.232C194.899,533.753,180.782,542.782,164.17,536.942z M261.434,331.673
	c-6.34-5.724-12.476-11.262-17.726-16.001c0.507,5.502,1.165,12.648,1.823,19.799C250.966,334.173,256.016,332.967,261.434,331.673z
	 M138.814,374.403c8.21-3.486,8.211-3.486,6.369-11.365c-0.601-2.573-1.12-5.17-1.836-7.71c-0.744-2.646-1.68-5.236-2.532-7.852
	c-0.249,0.101-0.499,0.2-0.748,0.301C139.652,356.6,139.237,365.422,138.814,374.403z"/>
<path fill-rule="evenodd" clip-rule="evenodd" d="M320.219,0c15.723,1.799,30.465,5.544,41.631,17.41
	c11.44,12.157,12.869,26.524,8.019,41.914c-4.702,14.922-15.434,23.281-30.146,26.94c-4.007,0.996-8.24,1.114-12.38,1.528
	c-3.535,0.354-5.934,1.931-6.757,5.553c-0.22,0.968-0.582,1.92-0.999,2.822c-1.608,3.476-1.607,8.694-6.722,8.901
	c-6.431,0.259-12.871-1.115-17.021-6.581c-1.29-1.697-1.205-5.153-0.556-7.47c1.615-5.755,3.972-11.299,5.929-16.963
	c1.738-5.031,5.482-6.887,10.467-7.948c7.268-1.549,14.624-3.271,21.46-6.089c7.972-3.286,10.875-10.404,10.465-18.771
	c-0.371-7.579-4.815-12.288-11.645-14.685c-7.417-2.603-14.011-0.962-19.696,4.629c-7.16,7.041-20.437,5.24-25.372-3.752
	c-1.07-1.951-0.62-5.704,0.587-7.779C294.762,7.152,306.244,1.367,320.219,0z"/>
<path fill-rule="evenodd" clip-rule="evenodd" d="M403.43,167.373c-4.239-0.844-9.042-1.014-12.501,4.917
	c-2.284,3.917-6.413,2.985-9.578,0.332c-3.031-2.541-6.631-5.19-3.797-9.988c1.775-3.005,3.707-5.931,5.744-8.766
	c2.584-3.596,6.019-4.263,10.492-4.028c5.82,0.305,12.06,0.162,17.495-1.654c6.991-2.335,9.623-11.913,6.134-18.063
	c-3.35-5.907-9.689-6.947-16.887-2.771c-3.606,2.093-10.073-0.521-13.478-5.435c-2.995-4.323,0.017-6.781,2.941-9.123
	c4.65-3.725,10.08-4.812,15.945-4.621c18.13,0.59,33.447,17.859,31.04,35.119C434.746,159.315,422.271,168.637,403.43,167.373z"/>
<path fill-rule="evenodd" clip-rule="evenodd" d="M294.881,142.625c-8.192,0.059-14.752-5.979-14.891-13.702
	c-0.157-8.785,6.026-15.69,14.009-15.645c8.729,0.05,15.074,6.149,15.171,14.583C309.266,136.238,303.142,142.566,294.881,142.625z"
	/>
<path fill-rule="evenodd" clip-rule="evenodd" d="M370.639,195.823c-5.313,0.063-9.721-4.444-9.694-9.913
	c0.026-5.366,4.064-9.688,9.195-9.84c5.889-0.177,10.275,3.997,10.255,9.755C380.375,191.19,375.915,195.761,370.639,195.823z"/>
<path fill-rule="evenodd" clip-rule="evenodd" fill="#FFFFFF" d="M124.431,459.791c-2.598-5.711-5.317-11.372-7.685-17.177
	c-0.431-1.057,0.311-2.842,0.96-4.05c8.092-15.072,14.26-30.899,17.121-47.756c1.314-7.74,6.156-11.175,13.319-14.848
	c0.655,10.585,1.264,20.415,1.92,31.019c9.138-5.783,13.884-14.382,18.169-23.355c0.447,0.073,0.895,0.147,1.341,0.221
	c-0.811,6.893-1.622,13.785-2.431,20.663c15.978,4.601,34.798-6.837,49.469-30.102c0.396,0.127,0.793,0.254,1.19,0.381
	c-2.023,5.489-4.046,10.978-6.311,17.122c5.231-0.351,9.689-1.886,13.563-5.148c11.163-9.401,16.576-21.836,18.834-35.901
	c0.766-4.768,0.161-10.146,6.933-11.399c7.341-1.358,14.293-4.818,21.551,1.571c8.721,7.679,18.022,14.864,27.811,21.107
	c6.537,4.171,8.968,12.129,7.142,21.694c-4.14-3.913-7.918-7.535-11.749-11.099c-12.808-11.912-28.36-11.433-40.164,1.43
	c-5.309,5.784-8.227,12.089-5.198,20.458c3.034,8.388,4.369,17.395,7.472,25.751c1.737,4.682,5.067,9.037,8.516,12.768
	c9.469,10.24,23.629,7.816,29.399-4.905c4.189-9.234,3.786-18.81,0.836-28.326c-1.023-3.304-2.39-6.5-3.64-9.854
	c4.929-1.179,9.07,7.21,14.953,0.763c0,1.671,0.054,3.344-0.008,5.013c-0.416,11.259,1.915,21.73,7.875,31.486
	c7.034,11.517,6.459,23.19-1,34.341c-11.702,17.494-27.927,29.898-46.381,39.338c-24.233,12.396-50.312,18.775-77.379,19.37
	c-16.907,0.371-32.409-5.472-44.529-18.167c-1.454-1.524-2.629-3.314-4.662-5.913c9.229,0.257,17.713,1.639,26.278-4.201
	c-19.98-4.758-34.879-14.611-43.592-32.403c2.66,2.995,5.867,4.351,9.828,3.229c3.993-1.13,4.41-4.527,4.886-7.894
	c0.256-1.811,0.501-3.648,1.027-5.391c1.042-3.449,2.276-6.84,3.431-10.255c1.628,13.428,4.721,23.683,10.521,31.896
	c7.516,10.642,19.288,14.999,29.999,11.104c10.083-3.667,15.185-13.019,14.053-26.482c-1.278-15.201-8.644-27.202-19.496-37.652
	c-8.71-8.387-18.341-10.432-29.336-5.123c-11.033,5.328-17.062,14.662-20.387,25.861
	C126.865,445.755,125.879,452.841,124.431,459.791z M256.449,476.558c-0.67-0.56-1.627-1.742-1.968-1.585
	c-3.647,1.68-7.198,3.57-10.775,5.404c0.685,0.915,1.756,2.717,1.994,2.612c3.335-1.458,6.568-3.154,9.788-4.862
	C255.857,477.932,256.002,477.314,256.449,476.558z"/>
<path fill-rule="evenodd" clip-rule="evenodd" fill="#FFFFFF" d="M346.912,695.378c-2.088-0.661-4.233-1.185-6.254-2.011
	c-4.763-1.948-9.52-3.928-14.159-6.146c-1.363-0.652-2.575-1.984-3.432-3.285c-9.964-15.142-19.773-30.385-29.779-45.5
	c-5.833-8.812-10.471-17.957-12.469-28.548c-1.907-10.112-3.643-20.624-7.893-29.834c-5.245-11.366-1.608-21.6,0.281-32.322
	c0.082-0.466,0.421-0.906,0.713-1.307c0.176-0.241,0.492-0.381,1.028-0.773c6.021,3.638,9.928,9.173,12.307,15.629
	c3.045,8.264,5.938,16.633,8.106,25.158c5.361,21.08,14.075,40.87,22.686,60.705c1.434,3.302,3.884,6.169,5.922,9.198
	c7.054,10.482,14.18,20.917,21.16,31.448c1.231,1.857,1.899,4.089,2.827,6.147C347.608,694.417,347.261,694.897,346.912,695.378z"/>
<path fill-rule="evenodd" clip-rule="evenodd" fill="#FFFFFF" d="M116.083,684.291c-1.264-4.419-2.302-8.049-3.456-12.083
	c-8.598,7.939-20.241,9.333-28.791,3.348c1.854-1.712,3.405-3.515,5.297-4.827c8.616-5.982,17.391-11.735,25.961-17.781
	c2.241-1.581,4.258-3.697,5.847-5.943c4.804-6.791,8.959-14.071,14.072-20.608c11.151-14.254,20.027-29.761,27.78-46.069
	c3.837-8.07,9.031-15.496,13.611-23.213c1.081-1.82,2.164-3.64,3.245-5.46c0.467,0.501,0.934,1.001,1.4,1.502
	c-3.705,9.711-7.633,19.345-11.06,29.153c-4.629,13.249-7.542,26.863-8.417,40.955c-0.224,3.592-2.187,7.336-4.159,10.507
	c-5.01,8.053-10.472,15.824-15.771,23.696c-0.557,0.826-1.069,1.845-1.871,2.318c-8.634,5.098-13.727,13.384-19.399,21.178
	C119.495,682.173,117.935,682.889,116.083,684.291z"/>
<path fill-rule="evenodd" clip-rule="evenodd" fill="#FFFFFF" d="M11.22,384.475c-4.671-34.504,2.108-66.674,20.911-96.144
	c17.213-26.978,40.016-47.568,69.737-60.086c-25.145,18.844-47.035,40.628-62.495,68.273
	C24.065,323.892,14.362,353.072,11.22,384.475z"/>
<path fill-rule="evenodd" clip-rule="evenodd" fill="#FFFFFF" d="M196.817,561.248c1.751-5.841,3.127-10.753,4.758-15.579
	c0.291-0.862,1.575-1.48,2.52-1.994c0.531-0.289,1.328-0.271,1.965-0.158c14.572,2.564,26.186-4.473,37.47-11.946
	c4.044-2.68,5.88-0.119,8.561,1.658c2.906,1.928,1.41,3.946,0.532,6.049c-2.5,5.985-4.787,12.075-7.628,17.896
	c-0.851,1.744-3.217,3.859-4.933,3.898C226.113,561.387,212.154,561.248,196.817,561.248z"/>
<path fill-rule="evenodd" clip-rule="evenodd" fill="#FFFFFF" d="M72.62,457.95c4.792,20.44,12.354,39.065,24.307,56.04
	c-22.074,1.294-42.106-24.825-35.124-44.97C63.575,463.909,66.937,460.261,72.62,457.95z"/>
<path fill-rule="evenodd" clip-rule="evenodd" fill="#FFFFFF" d="M164.17,536.942c16.612,5.84,30.729-3.189,46.532-7.771
	c-2.207,5.644-6.581,7.135-10.677,8.232C188.158,540.584,176.201,548.775,164.17,536.942z"/>
<path fill-rule="evenodd" clip-rule="evenodd" fill="#FFFFFF" d="M261.434,331.673c-5.418,1.294-10.468,2.5-15.902,3.798
	c-0.658-7.15-1.316-14.297-1.823-19.799C248.958,320.411,255.094,325.949,261.434,331.673z"/>
<path fill-rule="evenodd" clip-rule="evenodd" fill="#FFFFFF" d="M138.814,374.403c0.423-8.981,0.838-17.804,1.253-26.626
	c0.249-0.101,0.499-0.2,0.748-0.301c0.853,2.615,1.788,5.206,2.532,7.852c0.716,2.54,1.235,5.137,1.836,7.71
	C147.025,370.917,147.024,370.917,138.814,374.403z"/>
<path fill-rule="evenodd" clip-rule="evenodd" d="M124.431,459.791c1.448-6.95,2.435-14.036,4.448-20.817
	c3.325-11.199,9.354-20.533,20.387-25.861c10.995-5.309,20.626-3.264,29.336,5.123c10.853,10.45,18.218,22.451,19.496,37.652
	c1.132,13.464-3.97,22.815-14.053,26.482c-10.711,3.896-22.483-0.462-29.999-11.104c-5.801-8.214-8.894-18.469-10.521-31.896
	c-1.154,3.415-2.389,6.806-3.431,10.255c-0.526,1.742-0.771,3.58-1.027,5.391c-0.476,3.366-0.893,6.764-4.886,7.894
	c-3.961,1.122-7.168-0.233-9.828-3.229C124.341,459.665,124.431,459.791,124.431,459.791z"/>
<path fill-rule="evenodd" clip-rule="evenodd" d="M256.449,476.558c-0.447,0.757-0.592,1.374-0.961,1.569
	c-3.22,1.708-6.453,3.404-9.788,4.862c-0.238,0.104-1.31-1.697-1.994-2.612c3.577-1.834,7.128-3.725,10.775-5.404
	C254.822,474.815,255.779,475.998,256.449,476.558z"/>
</svg>
